<?xml version="1.0" encoding="UTF-8" standalone="no"?>
<svg
   width="1000"
   height="1000"
   viewBox="0 0 264.58333 264.58333"
   version="1.1"
   id="svg1"
   sodipodi:docname="csharp-logo-2023.svg"
   inkscape:version="1.3.2 (091e20e, 2023-11-25, custom)"
   xmlns:inkscape="http://www.inkscape.org/namespaces/inkscape"
   xmlns:sodipodi="http://sodipodi.sourceforge.net/DTD/sodipodi-0.dtd"
   xmlns="http://www.w3.org/2000/svg"
   xmlns:svg="http://www.w3.org/2000/svg">
  <sodipodi:namedview
     id="namedview1"
     pagecolor="#818181"
     bordercolor="#bfbfbf"
     borderopacity="0.50196078"
     inkscape:showpageshadow="false"
     inkscape:pageopacity="0"
     inkscape:pagecheckerboard="true"
     inkscape:deskcolor="#808080"
     inkscape:zoom="0.69053396"
     inkscape:cx="418.51671"
     inkscape:cy="391.00177"
     inkscape:window-width="2339"
     inkscape:window-height="1396"
     inkscape:window-x="814"
     inkscape:window-y="497"
     inkscape:window-maximized="0"
     inkscape:current-layer="svg1"
     showborder="true" />
  <defs
     id="defs12">
    <linearGradient
       id="a"
       x1="46.772999"
       x2="69.906998"
       y1="86.461998"
       y2="126.732"
       gradientTransform="matrix(3.7213612,0,0,3.7213612,-156.52396,-278.41164)"
       gradientUnits="userSpaceOnUse">
      <stop
         stop-color="#927BE5"
         id="stop1" />
      <stop
         offset="1"
         stop-color="#512BD4"
         id="stop2" />
    </linearGradient>
    <filter
       id="b"
       width="42.845001"
       height="39.136002"
       x="44.629002"
       y="91.889999"
       color-interpolation-filters="sRGB"
       filterUnits="userSpaceOnUse">
      <feFlood
         flood-opacity="0"
         result="BackgroundImageFix"
         id="feFlood2" />
      <feColorMatrix
         in="SourceAlpha"
         result="hardAlpha"
         type="matrix"
         values="0 0 0 0 0 0 0 0 0 0 0 0 0 0 0 0 0 0 127 0"
         id="feColorMatrix2" />
      <feOffset
         id="feOffset2" />
      <feColorMatrix
         type="matrix"
         values="0 0 0 0 0 0 0 0 0 0 0 0 0 0 0 0 0 0 0.1 0"
         id="feColorMatrix3" />
      <feBlend
         in2="BackgroundImageFix"
         mode="normal"
         result="effect1_dropShadow_2037_2800"
         id="feBlend3" />
      <feColorMatrix
         in="SourceAlpha"
         result="hardAlpha"
         type="matrix"
         values="0 0 0 0 0 0 0 0 0 0 0 0 0 0 0 0 0 0 127 0"
         id="feColorMatrix4" />
      <feOffset
         dy="1"
         id="feOffset4" />
      <feGaussianBlur
         stdDeviation="2.499"
         id="feGaussianBlur4" />
      <feColorMatrix
         type="matrix"
         values="0 0 0 0 0 0 0 0 0 0 0 0 0 0 0 0 0 0 0.1 0"
         id="feColorMatrix5" />
      <feBlend
         in2="effect1_dropShadow_2037_2800"
         mode="normal"
         result="effect2_dropShadow_2037_2800"
         id="feBlend5" />
      <feColorMatrix
         in="SourceAlpha"
         result="hardAlpha"
         type="matrix"
         values="0 0 0 0 0 0 0 0 0 0 0 0 0 0 0 0 0 0 127 0"
         id="feColorMatrix6" />
      <feOffset
         dy="4"
         id="feOffset6" />
      <feGaussianBlur
         stdDeviation="2"
         id="feGaussianBlur6" />
      <feColorMatrix
         type="matrix"
         values="0 0 0 0 0 0 0 0 0 0 0 0 0 0 0 0 0 0 0.09 0"
         id="feColorMatrix7" />
      <feBlend
         in2="effect2_dropShadow_2037_2800"
         mode="normal"
         result="effect3_dropShadow_2037_2800"
         id="feBlend7" />
      <feColorMatrix
         in="SourceAlpha"
         result="hardAlpha"
         type="matrix"
         values="0 0 0 0 0 0 0 0 0 0 0 0 0 0 0 0 0 0 127 0"
         id="feColorMatrix8" />
      <feOffset
         dy="9"
         id="feOffset8" />
      <feGaussianBlur
         stdDeviation="2.5"
         id="feGaussianBlur8" />
      <feColorMatrix
         type="matrix"
         values="0 0 0 0 0 0 0 0 0 0 0 0 0 0 0 0 0 0 0.05 0"
         id="feColorMatrix9" />
      <feBlend
         in2="effect3_dropShadow_2037_2800"
         mode="normal"
         result="effect4_dropShadow_2037_2800"
         id="feBlend9" />
      <feColorMatrix
         in="SourceAlpha"
         result="hardAlpha"
         type="matrix"
         values="0 0 0 0 0 0 0 0 0 0 0 0 0 0 0 0 0 0 127 0"
         id="feColorMatrix10" />
      <feOffset
         dy="15"
         id="feOffset10" />
      <feGaussianBlur
         stdDeviation="3"
         id="feGaussianBlur10" />
      <feColorMatrix
         type="matrix"
         values="0 0 0 0 0 0 0 0 0 0 0 0 0 0 0 0 0 0 0.01 0"
         id="feColorMatrix11" />
      <feBlend
         in2="effect4_dropShadow_2037_2800"
         mode="normal"
         result="effect5_dropShadow_2037_2800"
         id="feBlend11" />
      <feBlend
         in="SourceGraphic"
         in2="effect5_dropShadow_2037_2800"
         mode="normal"
         result="shape"
         id="feBlend12" />
    </filter>
  </defs>
  <g
     id="g1"
     transform="matrix(1.3343495,0,0,1.3343495,13.165952,0)"
     style="stroke-width:0.749429">
    <path
       d="M 1.2124687e-8,62.322655 V 135.95853 C 1.2124687e-8,145.06807 4.85938,153.49346 12.75387,158.04463 l 63.76893,36.82259 a 25.496309,25.496309 0 0 0 25.50774,0 l 63.7685,-36.82259 A 25.502236,25.502236 0 0 0 178.55249,135.9581 V 62.323079 c 0,-9.112931 -4.85896,-17.537048 -12.75345,-22.089915 L 102.03011,3.4198869 a 25.490805,25.490805 0 0 0 -25.50731,0 L 12.75387,40.233164 A 25.505623,25.505623 0 0 0 1.2124687e-8,62.323079 Z"
       fill="url(#a)"
       id="path12"
       style="fill:url(#a);stroke-width:0.0749429" />
    <path
       d="m 54.056,107.43512 v 6.855 c -0.0017,0.9473 0.766696,1.71566 1.714,1.714 0.946845,5.5e-4 1.714553,-0.76716 1.714,-1.714 0,-2.28467 3.427,-2.28467 3.427,0 0,2.8393 -2.301704,5.141 -5.141,5.141 -2.839296,0 -5.141,-2.3017 -5.141,-5.141 v -6.854 c 0,-6.85466 10.282,-6.85466 10.282,0 0,2.28467 -3.427,2.28467 -3.427,0 0,-2.28467 -3.427,-2.28467 -3.427,0 z m 27.418,6.855 c 0.0011,0.94707 -0.766926,1.71511 -1.714,1.714 h -1.714 v 1.713 c 0,0.455 -0.18,0.891 -0.502,1.212 -0.66833,0.67093 -1.75467,0.67093 -2.423,0 -0.320971,-0.32176 -0.501463,-0.75752 -0.502,-1.212 v -1.713 h -3.427 v 1.713 c 0.0022,0.94753 -0.766466,1.71622 -1.714,1.714 -0.947143,0.002 -1.715217,-0.76686 -1.713,-1.714 v -1.713 H 66.05 c -2.284666,0 -2.284666,-3.427 0,-3.427 h 1.714 v -3.427 H 66.05 c -2.284666,0 -2.284666,-3.427 0,-3.427 h 1.714 v -1.714 c 0,-2.28467 3.427,-2.28467 3.427,0 v 1.713 h 3.427 v -1.713 c 0,-2.28467 3.427,-2.28467 3.427,0 v 1.713 h 1.714 c 0.454,0 0.89,0.18 1.211,0.502 0.670932,0.66833 0.670932,1.75467 0,2.423 -0.320912,0.32174 -0.756574,0.5027 -1.211,0.503 h -1.714 v 3.427 h 1.714 c 0.945314,0.002 1.711251,0.76769 1.714,1.713 z m -6.855,-5.14 h -3.427 v 3.427 h 3.427 z"
       fill="#ffffff"
       filter="url(#b)"
       style="mix-blend-mode:screen;stroke-width:0.177017"
       transform="matrix(3.7213782,0,0,3.7213782,-156.52638,-315.63419)"
       id="path13"
       sodipodi:nodetypes="ccccsssssscccccscccccccccssccsscssccsscsccccccccccccc" />
  </g>
</svg>
