<?xml version="1.0" encoding="UTF-8" standalone="no"?>
<svg
   width="2000"
   height="2000"
   viewBox="0 0 2000 2000"
   version="1.1"
   xml:space="preserve"
   id="SVGRoot"
   inkscape:version="1.4.2 (f4327f4, 2025-05-13)"
   sodipodi:docname="dutch-tongue.svg"
   xmlns:inkscape="http://www.inkscape.org/namespaces/inkscape"
   xmlns:sodipodi="http://sodipodi.sourceforge.net/DTD/sodipodi-0.dtd"
   xmlns="http://www.w3.org/2000/svg"
   xmlns:svg="http://www.w3.org/2000/svg"><defs
   id="defs126" />
<sodipodi:namedview
   pagecolor="#a9a9a9"
   bordercolor="#292929"
   borderopacity="1"
   inkscape:showpageshadow="2"
   inkscape:pageopacity="0.0"
   inkscape:pagecheckerboard="true"
   inkscape:deskcolor="#232323"
   id="namedview1"
   labelstyle="default"
   inkscape:zoom="0.22922045"
   inkscape:cx="305.38288"
   inkscape:cy="597.67792"
   inkscape:window-width="1792"
   inkscape:window-height="1096"
   inkscape:window-x="727"
   inkscape:window-y="239"
   inkscape:window-maximized="0"
   inkscape:current-layer="SVGRoot" />
<style
   type="text/css"
   id="style1">
g.prefab path {
  vector-effect:non-scaling-stroke;
  -inkscape-stroke:hairline;
  fill: none;
  fill-opacity: 1;
  stroke-opacity: 1;
  stroke: #00349c;
}
</style>

<g
   id="g155"
   transform="scale(4.3478261)"><path
     style="fill:#fbfafa"
     d="M 211.9006,341.956 C 169.27973,328.67501 103.53,307.89392 90.325461,303.53053 l -8.76,-2.89471 0.0022,-1.52011 c 0.01905,-13.10184 8.625383,-41.76022 17.826291,-59.36011 2.700998,-5.16659 4.222328,-8.60448 6.903298,-15.6 0.60705,-1.584 1.91892,-4.338 2.91528,-6.12 l 1.81153,-3.24 h 0.89121 c 1.45137,0 54.8151,11.559 55.23378,11.96407 0.21099,0.20413 -0.9151,2.70651 -2.50241,5.56086 -10.91615,19.62975 -19.85797,58.07507 -13.50741,58.07507 h 0.65081 l 2.10372,-8.16 c 4.59419,-17.82006 16.11999,-47.19817 20.85202,-53.14968 l 0.65968,-0.82967 24.24,5.26138 c 88.58747,19.22823 77.62963,15.73128 74.0329,23.62593 -6.76041,14.83882 -12.77039,31.46116 -16.18777,44.77204 -3.10015,12.07521 -7.16345,22.82446 -11.88455,31.44 -1.08499,1.98 -3.00316,5.60513 -4.2626,8.05585 -2.20985,4.30009 -4.89884,7.81895 -5.9236,7.75171 -0.27191,-0.0179 -10.85557,-3.26107 -23.51924,-7.20716 z m 27.10486,-173.44451 c -5.94892,-1.25092 -14.02776,-5.87552 -15.61033,-8.93587 -0.40131,-0.77604 -1.25173,-1.75306 -1.88983,-2.17116 l -1.16018,-0.76018 -2.06983,0.92283 c -1.13841,0.50755 -3.22151,2.00921 -4.62913,3.33701 -2.90195,2.73741 -6.33588,4.57351 -10.73987,5.74253 l -3.02083,0.80187 -5.28,-0.0212 c -9.12475,-0.0366 -13.96212,-1.94698 -19.97139,-7.88703 l -3.21231,-3.1753 -1.36815,-2.9397 c -1.58988,-3.41614 -1.69246,-3.44095 -5.8224,-1.40778 l -3.13206,1.5419 -3.00709,0.19148 -3.00709,0.19148 -2.58165,-1.18192 c -14.94905,-6.8439 -6.70355,-21.26464 15.31841,-26.79071 l 4.22374,-1.05988 4.32,0.29337 c 8.58607,0.58309 19.06106,4.50382 26.4,9.88137 10.9688,8.0373 21.95622,8.40599 32.72399,1.09806 15.12799,-10.26714 30.63046,-12.73457 42.74662,-6.8037 l 3.9506,1.93383 5.54497,5.33061 c 7.62686,7.33203 10.72976,12.00619 12.76307,19.22612 1.49038,5.29207 0.87616,6.55946 -5.0502,10.42063 l -3.0799,2.00664 -2.55958,0.24714 -2.55957,0.24714 -2.64,-1.35774 -2.64,-1.35773 -3.74866,-4.92 c -4.28043,-5.61795 -4.35539,-5.64559 -7.69478,-2.83738 -9.947,8.36478 -21.87138,12.22144 -31.51657,10.19327 z m -34.8,-70.148038 c -2.26795,-1.17528 -4.36396,-3.450994 -5.99226,-6.506004 -1.66803,-3.12955 -2.52493,-3.78185 -4.96795,-3.78185 h -1.66332 l -2.56824,1.74394 c -10.13503,6.882164 -14.68456,5.7506 -14.25979,-3.54667 l 0.17156,-3.75497 1.68,-2.79742 c 8.15436,-13.5781 21.45669,-18.63126 34.10446,-12.95527 l 2.89536,1.29936 2.2843,2.49938 c 2.35057,2.5719 3.16114,4.47436 3.93673,9.23976 l 0.4365,2.68194 -0.69378,3.32739 c -1.9102,9.16138 -9.67044,15.500672 -15.36357,12.550414 z m 80.55165,0.11563 c -2.39888,-0.88444 -5.88834,-3.557684 -6.77961,-5.193794 -0.44662,-0.81987 -1.3368,-2.1347 -1.97817,-2.92184 l -1.16613,-1.43115 -1.88564,0.25292 c -1.10814,0.14863 -2.66045,0.87557 -3.76475,1.76301 -1.03351,0.83055 -3.08415,2.14398 -4.55697,2.91873 l -2.67786,1.40864 h -2.31443 -2.31443 l -1.46893,-1.23603 c -1.7117,-1.44029 -2.92473,-4.95971 -2.92473,-8.48562 v -2.34741 l 1.19818,-2.04455 c 2.60219,-4.44029 7.96215,-8.80048 13.68182,-11.12979 l 3.12,-1.27061 6,-0.24439 6,-0.24438 3.09761,0.79646 c 8.34729,2.14627 12.62897,7.108 13.33454,15.45242 l 0.24742,2.92611 -1.47716,3.07389 c -3.40548,7.086614 -8.12093,9.892922 -13.37076,7.957384 z"
     id="path155" /><path
     id="path154"
     style="fill:#f55152;fill-opacity:1"
     d="m 301.59216,159.31966 c -0.0766,0.0138 -0.13479,0.23536 -0.14844,0.61914 -0.0538,1.51048 -2.4197,4.01983 -5.9746,6.33594 l -3.05664,1.99024 -2.36524,0.28124 -2.36719,0.2793 -2.5,-1.07617 c -1.37557,-0.59176 -3.14743,-1.81109 -3.9375,-2.71094 l -1.4375,-1.63672 v 0.97657 0.97461 l -3.95898,3.15625 c -7.55149,6.01793 -17.98941,10.2607 -29.42188,11.95898 l -4.82031,0.71484 -12.93945,-0.0762 -12.93945,-0.0762 -1.19922,0.63672 c -7.83424,4.39167 -31.09865,30.46086 -12.75,11.04883 l 5.29296,-5.52149 -4.46874,4.32032 c -9.26025,8.95015 -19.34927,22.02049 -26.21485,33.96093 l -1.31055,2.2793 h 0.98633 c 2.10428,0 99.9586,21.50072 100.58008,22.09961 0.26947,0.21682 2.38815,-3.24307 5.14844,-8.41992 14.11248,-26.46757 29.18506,-46.1804 48.08594,-62.89258 l 2.73046,-2.41602 v -1.48632 c 0,-2.47027 -2.21833,-3.32662 -9.48046,-3.66211 -2.34012,-0.10811 -3.5064,-0.0863 -3.63282,0.008 -10e-4,8.9e-4 -0.005,0.005 -0.006,0.006 -6.3e-4,9.1e-4 -0.003,0.005 -0.004,0.006 v 0.002 c -1e-4,9.5e-4 -0.002,0.005 -0.002,0.006 2.7e-4,9.8e-4 0.002,0.005 0.002,0.006 0.0863,0.13861 1.90857,0.39143 5.14648,0.62305 l -4.74414,-0.3379 -2.87891,-1.31445 c -4.36448,-1.99097 -6.35787,-3.56339 -8.72656,-6.88281 l -2.1582,-3.02344 h -2.07813 c -1.21317,0 -2.17894,-0.2493 -2.32031,-0.59961 -0.0458,-0.11343 -0.0908,-0.16348 -0.13086,-0.15625 z m -131.58789,6.88477 -23.45898,16.06836 c -12.90251,8.83781 -23.94932,16.22243 -24.54688,16.41015 -0.69902,0.21959 -1.80234,1.64735 -3.0957,4.00391 -1.10562,2.0145 -3.26215,5.04517 -4.79297,6.73437 -2.27283,2.50799 -3.41724,4.41407 -2.64844,4.41407 0.7542,0 56.19188,12.00633 56.40039,12.21484 0.42336,0.42335 0.42155,0.4258 8.26953,-12.69531 4.02655,-6.732 9.33638,-15.31808 11.80079,-19.08008 2.7708,-4.22972 4.12739,-6.41237 4.13281,-6.58203 v -0.002 -0.002 -0.002 l -0.002,-0.002 v -0.002 h -0.002 -0.002 -0.002 c -8.4e-4,2.9e-4 -0.005,0.002 -0.006,0.002 -0.0805,0.0445 -0.45734,0.52891 -1.11914,1.44726 2.04902,-2.91236 3.90057,-5.45614 4.69531,-6.43164 2.6838,-3.29419 2.70168,-3.24109 -1.25391,-3.63086 -7.30628,-0.71995 -14.31671,-3.58457 -19.69922,-8.00781 h -0.002 l -1.9668,-2.04687 z m -0.0351,0.46679 2.71875,2.57618 1.33007,1.26172 c -0.25877,-0.22445 -0.51325,-0.45175 -0.76367,-0.6836 l -3.35351,-3.10547 z m 161.93554,6.94922 c 0.8702,1.26707 -0.56166,3.17549 -4.20508,5.96289 3.63542,-2.78127 5.06542,-4.69353 4.20508,-5.96289 z m -173.97851,1.97852 c -0.64424,0.60257 -1.07614,1.0963 -1.33008,1.51562 0.25387,-0.41885 0.68479,-0.91272 1.33008,-1.51562 z m -1.33203,1.51758 c -0.25311,0.41877 -0.32867,0.7636 -0.26368,1.0664 -0.0659,-0.30298 0.01,-0.6471 0.26368,-1.0664 z"
     sodipodi:nodetypes="ccccccccccccccccccccscscsccsscccccccccccssccccssssssscccccccccccssccccccccccccccccccc" /><path
     id="path153"
     style="fill:#5394c2;fill-opacity:1"
     d="m 81.099972,299.51498 -0.0078,0.97656 -0.0059,0.97656 6.841797,2.24219 c -8.620891,-2.7223 -7.28334,-1.68111 -7.591797,1.19922 -2.23049,20.828 3.205057,43.1409 14.794922,60.73242 l 3.869141,5.87305 6.283205,6.27539 6.28125,6.27734 4.80078,3.16406 c 4.83123,3.18569 9.72769,5.91095 14.64062,7.86524 10.65782,4.23953 16.36915,4.7952 25.19922,5.95507 2.376,0.21382 7.4513,0.31441 11.2793,0.22461 l 6.96094,-0.16211 4.32031,-1.20117 c 15.19142,-4.22444 37.90115,-23.3177 52.90625,-44.47851 1.96562,-2.772 3.88003,-5.21271 4.25391,-5.42383 0.84166,-0.47528 0.90458,-1.35184 0.0742,-1.0332 -0.80751,0.30987 -48.91386,-14.62346 -122.27539,-37.95704 -29.695209,-9.44494 -31.760241,-10.14313 -32.2461,-10.9082 z"
     sodipodi:nodetypes="ccccscccccsscccsssscc" /><path
     style="fill:#6a6a69"
     d="m 154.52546,401.53758 c -23.66477,-1.74722 -45.47809,-14.59836 -59.480528,-35.04245 -2.769649,-4.04379 -8.209035,-13.80715 -8.190258,-14.701 0.0051,-0.24119 1.097731,1.61347 2.428143,4.12147 1.330412,2.508 4.063363,7.044 6.073225,10.08 l 3.65429,5.52 6.277578,6.27564 6.27756,6.27564 4.8,3.16781 c 21.32158,14.07141 51.39034,18.3734 69.97603,10.01157 9.00437,-4.05112 24.23789,-16.84827 36.05751,-30.29066 4.69831,-5.34338 12.76645,-15.47538 12.76645,-16.03218 0,-0.15038 1.04913,-1.39075 2.3314,-2.75637 1.28227,-1.36561 2.76938,-3.36685 3.30468,-4.44719 0.53531,-1.08035 2.81802,-5.63626 5.0727,-10.12426 6.02077,-11.98453 9.3473,-20.68201 11.6577,-30.48 2.37122,-10.05589 7.70784,-25.54937 13.41166,-38.93727 3.24452,-7.61548 10.11543,-22.02273 10.50278,-22.02273 0.14965,0 -0.57974,1.782 -1.62086,3.96 -10.01705,20.95545 -17.09569,39.60284 -21.39923,56.37239 -2.73483,10.6568 -5.59578,18.35663 -10.60539,28.54287 -4.69407,9.54466 -4.70674,9.68311 -0.47548,5.19775 9.88107,-10.47446 16.19355,-20.25601 18.27165,-28.31301 11.02478,-42.74412 20.86684,-66.54895 35.89181,-86.81092 1.83159,-2.47 3.76918,-5.278 4.30575,-6.24 1.74161,-3.12248 11.09863,-14.0827 29.30343,-34.3242 8.09004,-8.99514 9.59663,-10.86488 8.75458,-10.86488 -1.76363,0 -21.04341,-3.11015 -22.70491,-3.66268 -5.50606,-1.83103 -12.86447,-7.04458 -18.24751,-12.92865 l -3.04523,-3.32867 0.29714,1.2 c 0.6862,2.77121 1.65668,6.09106 2.1545,7.37022 l 0.53326,1.37023 1.2336,-0.30962 c 1.92147,-0.48226 2.82796,0.0475 4.39501,2.56834 1.82863,2.94164 5.54255,5.90119 9.11596,7.26433 l 2.761,1.05323 4.92577,0.33222 4.92577,0.33222 1.31423,0.97687 c 0.85085,0.63244 1.3674,1.51197 1.46502,2.49452 l 0.1508,1.51765 -1.1108,1.38439 c -0.61092,0.76141 -2.98901,2.92228 -5.2846,4.80193 -10.87349,8.90329 -28.68275,31.3682 -38.75281,48.88347 -2.47028,4.29663 -3.7765,6.06163 -2.13142,2.88 9.07432,-17.54996 27.53951,-40.76294 44.04345,-55.36791 l 2.76618,-2.4479 -0.15579,-1.62876 -0.1558,-1.62876 -1.41057,-0.67294 c -0.77582,-0.37012 -3.69182,-0.83046 -6.48,-1.02298 l -5.06943,-0.35004 -2.64,-1.20053 c -3.89268,-1.77019 -6.49107,-3.87016 -8.46236,-6.83914 l -1.75356,-2.64104 h -2.27945 -2.27945 l -1.06037,-3.96 c -0.58321,-2.178 -1.94206,-5.688 -3.01968,-7.8 l -1.9593,-3.84 -6.75291,-6.74293 -6.75291,-6.74293 -4.08,-2.00167 c -2.244,-1.10092 -5.592,-2.35478 -7.44,-2.78636 l -3.36,-0.78469 -4.08,0.23491 c -8.2341,0.4741 -17.11742,3.60961 -27.01452,9.53521 -3.65927,2.19089 -7.73671,4.22483 -9.63191,4.80467 l -3.28642,1.00549 -4.87358,-0.2313 -4.87357,-0.2313 -3.05594,-1.25865 c -1.68076,-0.69226 -5.47297,-2.88193 -8.42713,-4.86594 -6.18199,-4.15181 -11.36664,-6.53874 -17.95555,-8.26644 l -4.64138,-1.21703 -4.8,-0.052 -4.8,-0.052 -3.84,1.09552 c -6.52348,1.86108 -15.845,6.68562 -18.13708,9.38721 -5.8203,6.86016 -4.24994,13.74473 4.00282,17.54868 l 3.41433,1.57376 2.53053,-0.20985 c 1.55555,-0.129 3.93348,-0.87611 6.17189,-1.93913 l 3.64136,-1.72927 0.45116,0.56301 c 0.24814,0.30965 1.04599,1.75101 1.773,3.20301 7.42614,14.83157 31.42685,18.35715 44.09081,6.47671 1.6793,-1.57539 3.57757,-2.86075 4.7386,-3.2086 l 1.93698,-0.58034 1.0128,1.35724 c 10.65211,14.27482 31.15184,14.51395 48.48106,0.56554 1.81954,-1.46456 3.45522,-2.57201 3.63485,-2.46099 0.65732,0.40624 5.77689,7.33282 5.77689,7.81589 0,4.03272 -17.51422,13.03394 -30.72,15.78817 l -4.08,0.85093 -12.48,0.0503 c -6.864,0.0277 -13.70785,0.0896 -15.20855,0.13772 l -2.72856,0.0874 -3.75144,2.95985 c -10.24473,8.083 -20.89251,20.20559 -29.78125,33.90619 -4.80911,7.41249 -5.25704,8.03841 -3.67404,5.13396 8.23978,-15.11815 28.38334,-38.16459 36.88264,-42.19777 l 1.61813,-0.76786 13.84153,0.0637 13.84154,0.0637 4.32,-0.79704 c 12.40016,-2.28783 23.72864,-7.48224 29.64761,-13.59423 l 1.80761,-1.86656 -2.68218,-3.45197 c -3.14866,-4.05232 -2.70932,-3.9221 -5.46215,-1.61901 -5.5535,4.64619 -11.04343,7.65238 -17.79089,9.742 l -3.6,1.11488 h -5.04 -5.04 l -3.36,-1.0586 c -5.81028,-1.83058 -12.32554,-6.06707 -13.99376,-9.0993 -1.54956,-2.81654 -3.58245,-2.33304 -8.25616,1.96363 -12.93518,11.89169 -36.44923,8.05072 -44.62546,-7.28946 -0.8695,-1.63136 -1.652,-2.9661 -1.73888,-2.9661 -0.0869,0 -1.64021,0.69602 -3.45185,1.54671 l -3.29389,1.54671 -3.15581,0.1827 -3.15581,0.18269 -2.89266,-1.46021 c -6.88214,-3.47409 -9.25684,-8.02745 -7.05563,-13.52881 1.20479,-3.01108 0.82782,-2.79574 -6.57322,3.75485 -10.75926,9.52292 -21.27399,18.51613 -27.37431,23.41315 -7.43337,5.9671 -8.41595,7.5856 -6.01195,9.90278 0.62735,0.60468 4.22568,5.09543 7.99631,9.97943 3.77062,4.884 7.40211,9.47437 8.06998,10.20083 l 1.2143,1.32083 -0.76109,0.59917 c -0.41861,0.32954 -1.66207,2.21917 -2.76325,4.19917 -1.10118,1.98 -2.94056,4.572 -4.08751,5.76 -1.14694,1.188 -2.5094,2.916 -3.02769,3.84 -0.51829,0.924 -1.81685,3.21053 -2.88568,5.08117 -1.06883,1.87065 -2.28694,4.57065 -2.70689,6 -0.41996,1.42936 -0.99378,2.92283 -1.27516,3.31883 l -0.51159,0.72 0.25408,-1.2 c 3.16045,-14.9265 -1.64125,-27.4007 -15.55027,-40.39772 l -5.21132,-4.86962 -1.03877,-2.41468 -1.03877,-2.41469 0.243867,-1.81816 c 0.134126,-0.99999 0.704745,-2.56388 1.26804,-3.47531 l 1.024175,-1.65715 4.71338,-2.89647 c 27.458248,-16.8737 45.718018,-37.80694 51.119798,-58.60442 0.40501,-3.48026 2.22548,-5.86208 4.12016,-8.683468 29.38789,-43.762077 71.12981,-54.378644 87.42755,-22.236174 2.4507,4.83328 2.19273,4.79722 6.19389,0.86586 9.15635,-8.99661 21.67967,-15.51971 35.47487,-18.478 l 4.59698,-0.98579 8.16,-0.26187 8.16,-0.26186 2.84743,1.00916 c 12.62691,4.47511 20.35371,14.86577 27.7079,37.260364 l 3.78307,11.519998 3.77941,7.68 c 10.80349,21.95334 26.65017,37.55772 42.84064,42.18561 l 2.71845,0.77704 1.24155,1.4755 c 2.66629,3.16872 1.31125,6.46588 -5.71108,13.89649 -33.55245,35.50325 -51.50646,62.81998 -58.51221,89.02536 -7.4883,28.01032 -19.66133,51.65794 -31.41295,61.02352 -14.69199,11.70893 -30.00291,20.13141 -40.40221,22.2251 l -4.08,0.82143 -3.01803,4.04497 c -12.47907,16.7253 -27.01158,31.63091 -40.41479,41.45236 -4.02551,2.94977 -10.63897,6.134 -16.08718,7.74562 l -4.32,1.27788 -7.68,0.1416 c -4.224,0.0779 -9.948,-0.0258 -12.72,-0.2305 z m 73.68,-262.5995 c 1.584,-0.6001 4.716,-2.2596 6.96,-3.68779 19.52189,-12.42462 36.64432,-13.45608 49.33362,-2.97186 4.30955,3.56066 4.07948,2.72471 -0.64303,-2.33624 l -4.09467,-4.38815 -2.97796,-1.45557 c -1.74658,-0.8537 -4.5324,-1.69367 -6.7372,-2.03139 l -3.75925,-0.57581 -4.52933,0.57207 c -6.01122,0.75923 -13.66734,3.29072 -20.65231,6.82865 -17.3271,8.77629 -32.79873,8.53404 -45.23856,-0.70832 -9.61564,-7.14409 -22.5186,-8.03055 -34.57624,-2.37548 -5.17314,2.42621 -5.59446,3.1878 -0.75603,1.36662 14.18761,-5.3402 28.5694,-3.04568 42.19805,6.73244 7.20017,5.16589 11.29205,6.57561 18.27292,6.29535 l 4.31999,-0.17344 z M 210.82088,98.949842 c 3.9571,-1.65436 8.47282,-8.289124 9.53721,-14.012604 l 0.53901,-2.89835 -0.77364,-3.79369 c -1.67036,-8.19087 -6.81355,-12.54077 -16.8148,-14.22128 l -3.67621,-0.61771 -2.99349,0.58977 c -1.64643,0.32437 -4.80236,1.47075 -7.01318,2.54751 l -4.01968,1.95775 -3.90032,3.92532 c -2.14518,2.15892 -4.69575,5.2916 -5.66793,6.96151 l -1.76762,3.03619 -0.32236,3.01013 c -0.82578,7.71105 3.08109,11.216784 9.33719,8.37849 1.16578,-0.52889 3.40268,-1.83744 4.97088,-2.90789 4.85687,-3.31527 7.16547,-3.0626 9.22927,1.01012 3.22591,6.366024 8.40296,9.096982 13.33567,7.034734 z m 80.91644,-0.27948 c 2.52704,-1.2892 5.19591,-4.401674 6.90374,-8.051234 l 1.44829,-3.09491 -0.24941,-3.20431 c -0.6504,-8.35633 -5.05472,-13.53718 -13.34327,-15.69583 l -3.09121,-0.80506 -6.24,0.21201 -6.24,0.21201 -2.88,1.10789 c -5.78702,2.22619 -11.24358,6.51647 -14.26787,11.21828 l -1.50102,2.33362 0.0793,2.87583 c 0.305,11.066864 6.93809,13.119554 17.54204,5.42861 3.50087,-2.53915 5.09569,-2.2049 6.82029,1.42943 2.4197,5.099164 10.49332,8.342572 15.01916,6.033664 z"
     id="path151"
     sodipodi:nodetypes="ssssscccssssssssssssssssssssscsscssscccsscssssscccsscsscccsscccsscssscccssscccssscsscsssscssssscsscsssscccsscssscccsssssscccssssssscssssssscsscccsscsssssscccsscsscssssscssscssssssscsscssssssscssscsscsscsscssssssscsscccsscsssss" /><path
     style="fill:#060404"
     d="m 243.80546,339.49303 c 0,-0.16357 1.81288,-3.98361 4.02863,-8.48898 4.99669,-10.15998 7.85917,-17.86627 10.5922,-28.51606 4.3535,-16.96424 11.48636,-35.69756 21.69268,-56.97239 10.59488,-22.08476 32.43304,-51.77671 46.63268,-63.40347 2.29559,-1.87965 4.67368,-4.04052 5.2846,-4.80193 l 1.1108,-1.38439 -0.1508,-1.51765 c -0.0976,-0.98255 -0.61417,-1.86208 -1.46502,-2.49452 l -1.31423,-0.97687 -4.92577,-0.33222 -4.92577,-0.33222 -2.761,-1.05323 c -3.57341,-1.36314 -7.28733,-4.32269 -9.11596,-7.26433 -1.56705,-2.52087 -2.47354,-3.0506 -4.39501,-2.56834 l -1.2336,0.30962 -0.53326,-1.37023 c -0.49782,-1.27916 -1.4683,-4.59901 -2.1545,-7.37022 l -0.29714,-1.2 3.04523,3.32867 c 5.38304,5.88407 12.74145,11.09762 18.24751,12.92865 1.6615,0.55253 20.94128,3.66268 22.70491,3.66268 0.84205,0 -0.66454,1.86974 -8.75458,10.86488 -18.2048,20.2415 -27.56182,31.20172 -29.30343,34.3242 -0.53657,0.962 -2.47416,3.77 -4.30575,6.24 -15.02497,20.26197 -24.86703,44.0668 -35.89181,86.81092 -1.56398,6.06369 -1.7474,6.44401 -6.4818,13.44 -4.89123,7.22773 -15.32981,19.57811 -15.32981,18.13743 z M 150.9164,286.13102 c -2.26287,-8.52724 5.81411,-38.4704 14.20985,-52.67907 0.83729,-1.41699 2.53686,-4.52035 3.77682,-6.89635 5.26149,-10.08199 24.25817,-39.94281 28.3278,-44.52836 1.21425,-1.36819 1.92108,-2.57451 1.7578,-3 l -0.27308,-0.71164 h -2.38369 c -7.80741,0 -17.19199,-3.94447 -23.12556,-9.72 -1.55953,-1.518 -3.01797,-2.76 -3.24096,-2.76 -0.46866,0 -5.09719,3.15535 -29.74495,20.2777 l -17.90503,12.4383 -0.72549,-0.60211 c -0.39903,-0.33116 -4.00576,-4.83026 -8.01498,-9.998 -4.0092,-5.16774 -7.88347,-10.02193 -8.60947,-10.78709 -2.52819,-2.66454 -1.7573,-3.99829 5.83256,-10.09101 6.10032,-4.89702 16.61506,-13.89023 27.37431,-23.41315 7.40104,-6.55059 7.77801,-6.76593 6.57322,-3.75485 -2.20121,5.50136 0.17349,10.05472 7.05563,13.52881 2.09327,1.48412 3.62044,1.41808 6.04847,1.27752 2.50015,0.21968 4.25972,-0.70106 6.4497,-1.72941 1.81164,-0.85069 3.36497,-1.54671 3.45185,-1.54671 0.0869,0 0.86938,1.33474 1.73888,2.9661 8.17623,15.34018 31.69028,19.18115 44.62546,7.28946 4.67371,-4.29667 6.7066,-4.78017 8.25616,-1.96363 1.66822,3.03223 8.18348,7.26872 13.99376,9.0993 l 3.36001,1.0586 h 5.03999 5.04 l 3.60001,-1.11488 c 6.74745,-2.08962 12.23739,-5.09581 17.79088,-9.742 2.75284,-2.30309 2.31349,-2.43331 5.46216,1.61901 l 2.68218,3.45197 -1.80761,1.86656 c -5.91897,6.11199 -17.24746,11.3064 -29.64761,13.59423 l -4.32,0.79704 -13.84154,-0.0637 -13.84153,-0.0637 -1.6075,0.76281 c -7.90951,3.75331 -25.1529,22.99855 -35.01748,39.08282 -1.53818,2.508 -3.49335,5.64 -4.34482,6.96 -6.71701,10.41302 -15.34978,31.24732 -20.3862,49.2 -1.37016,4.884 -2.66025,9.42 -2.86688,10.08 l -0.37569,1.2 z m 63.01994,-146.45161 c -3.57331,-0.90546 -6.57883,-2.4539 -11.2038,-5.77216 -13.62865,-9.77812 -28.01044,-12.07264 -42.19805,-6.73244 -4.83843,1.82118 -4.41711,1.05959 0.75603,-1.36662 12.05764,-5.65507 24.96061,-4.76861 34.57625,2.37548 12.43983,9.24236 27.91146,9.48461 45.23856,0.70832 6.98497,-3.53793 14.64109,-6.06942 20.65231,-6.82865 l 4.52933,-0.57207 3.75925,0.57581 c 2.20481,0.33772 4.99063,1.17769 6.7372,2.03139 l 2.97796,1.45557 4.09467,4.38815 c 4.72251,5.06095 4.95258,5.8969 0.64303,2.33624 -12.6893,-10.48422 -29.81173,-9.45276 -49.33362,2.97186 -2.244,1.42819 -5.376,3.08769 -6.96,3.68779 l -2.88,1.09108 -4.31999,0.17344 c -2.7494,0.11038 -5.31949,-0.0798 -7.06913,-0.52319 z"
     id="path148"
     sodipodi:nodetypes="sssssscsscccssscsscsssssssssssssscsssscssssssscsssssscccssscsscccssssscsssssssscsscsssscss" /></g></svg>
