<?xml version="1.0" encoding="UTF-8" standalone="no"?>
<svg
   width="1000.0001"
   height="1000.0001"
   viewBox="0 0 264.58336 264.58336"
   version="1.1"
   id="svg8"
   inkscape:version="1.3.2 (091e20e, 2023-11-25, custom)"
   sodipodi:docname="mikenakis-rumination.svg"
   xmlns:inkscape="http://www.inkscape.org/namespaces/inkscape"
   xmlns:sodipodi="http://sodipodi.sourceforge.net/DTD/sodipodi-0.dtd"
   xmlns="http://www.w3.org/2000/svg"
   xmlns:svg="http://www.w3.org/2000/svg"
   xmlns:rdf="http://www.w3.org/1999/02/22-rdf-syntax-ns#"
   xmlns:cc="http://creativecommons.org/ns#"
   xmlns:dc="http://purl.org/dc/elements/1.1/">
  <defs
     id="defs2" />
  <sodipodi:namedview
     id="base"
     pagecolor="#808080"
     bordercolor="#bfbfbf"
     borderopacity="0.50196078"
     inkscape:pageopacity="0.0"
     inkscape:pageshadow="2"
     inkscape:zoom="0.66117446"
     inkscape:cx="558.09778"
     inkscape:cy="716.14986"
     inkscape:document-units="mm"
     inkscape:current-layer="layer1"
     inkscape:document-rotation="0"
     showgrid="false"
     fit-margin-top="0"
     fit-margin-left="0"
     fit-margin-right="0"
     fit-margin-bottom="0"
     inkscape:showpageshadow="0"
     inkscape:pagecheckerboard="true"
     inkscape:deskcolor="#808080"
     inkscape:window-width="1675"
     inkscape:window-height="1303"
     inkscape:window-x="512"
     inkscape:window-y="512"
     inkscape:window-maximized="0" />
  <metadata
     id="metadata5">
    <rdf:RDF>
      <cc:Work
         rdf:about="">
        <dc:format>image/svg+xml</dc:format>
        <dc:type
           rdf:resource="http://purl.org/dc/dcmitype/StillImage" />
      </cc:Work>
    </rdf:RDF>
  </metadata>
  <g
     inkscape:label="Layer 1"
     inkscape:groupmode="layer"
     id="layer1"
     transform="translate(33.602455,-9.8975525)">
    <circle
       style="fill:#cccccc;fill-opacity:1;stroke:none;stroke-width:4.99999;stroke-miterlimit:4;stroke-dasharray:none;stroke-opacity:1"
       id="background-disk"
       cx="98.689217"
       cy="142.18922"
       r="132.29167" />
    <g
       id="symbol-and-background-ring"
       transform="matrix(0.95446847,0,0,0.95446847,-20.215809,-112.68229)"
       style="stroke-width:1.0477">
      <g
         id="goat-head"
         style="stroke-width:1.0477">
        <rect
           style="fill:#ffffff;fill-opacity:1;stroke-width:10.477"
           id="background-for-eye"
           width="50.98682"
           height="38.205662"
           x="106.97691"
           y="239.80428" />
        <g
           id="g1132"
           transform="translate(-205.70368,212.30378)"
           style="stroke-width:1.0477">
          <path
             style="fill:#fdfcf3;stroke-width:1.0477"
             d="m 318.01114,182.81137 c 0.2644,-2.15178 1.0866,-5.89562 1.63514,-7.44546 0.2193,-0.61962 0.25471,-1.11578 0.0842,-1.17996 -0.2412,-0.0908 0.28554,-2.53976 0.5897,-2.74171 0.76846,-0.51025 0.22225,-1.03934 -0.84242,-0.81603 -2.42313,0.50826 -5.48555,2.82601 -7.7326,5.85234 -0.43571,0.58682 -0.79197,0.98687 -0.79169,0.889 0.008,-2.93273 2.18377,-9.57141 5.96766,-18.21193 5.42224,-12.38168 6.46154,-17.55607 6.53414,-32.5317 0.0303,-6.24271 0.0303,-6.24271 0.45607,-6.7945 2.03209,-2.6334 4.83106,-5.39592 11.55478,-11.40428 19.85304,-17.740821 26.14282,-26.297801 30.22618,-41.121387 1.84166,-6.685656 2.8224,-20.064003 1.32027,-18.009711 -0.0795,0.108762 -0.18158,0.558772 -0.2268,1.000025 -0.31323,3.057436 -3.29048,9.460068 -6.52637,14.035117 -7.86132,11.114678 -22.7208,21.625312 -33.93944,24.006562 -5.21562,1.10706 -15.0249,1.500861 -18.54604,0.744563 -5.87466,-1.261821 -11.08849,-0.191579 -16.68316,3.424556 -0.63656,0.411441 -0.90228,0.523024 -0.97299,0.408622 -0.18284,-0.295846 -4.50199,0.368567 -7.96286,1.224915 -5.12041,1.267003 -8.15365,2.821102 -10.18381,5.217757 -2.01977,2.384391 -7.2791,5.019011 -12.00864,6.015661 -9.93978,2.09457 -16.48156,-2.37397 -17.33753,-11.842904 -0.22151,-2.450439 -0.0711,-2.689758 1.21354,-1.930298 2.23364,1.320571 5.20486,2.663647 7.70306,3.48201 1.23107,0.403276 1.23107,0.403276 0.65273,1.18764 -0.54079,0.733438 -1.67599,2.841651 -1.87553,3.483103 -0.18447,0.593009 0.1415,0.247219 0.77823,-0.825589 1.79227,-3.019705 2.13145,-3.30722 3.5315,-2.993556 7.98961,1.789964 15.35794,0.367691 22.606,-4.363529 3.49181,-2.279308 4.08628,-2.560397 10.287,-4.864139 7.40353,-2.750629 10.39045,-4.65187 13.29984,-8.465655 0.73939,-0.969238 0.84561,-0.955434 3.10459,0.403428 1.60467,0.965277 1.47326,-1.230985 -0.16314,-2.726563 -1.13897,-1.040955 -1.55845,-1.156767 -3.05673,-0.843915 -0.47606,0.0994 -1.65137,0.254242 -2.61181,0.344094 -2.13684,0.199911 -2.25409,0.380213 -0.381,0.585889 2.72868,0.299631 3.08338,0.513118 2.35291,1.416203 -3.16859,3.917327 -6.26605,5.684621 -15.26552,8.709901 -6.07355,2.041703 -5.87834,1.96041 -14.47556,6.027535 -11.92752,5.64261 -16.51613,5.253368 -28.59992,-2.426056 -1.77401,-1.127417 -1.82871,-1.434541 -1.82863,-10.266299 7e-5,-6.800177 1.0635,-11.9171 2.76715,-13.314721 1.26703,-1.039438 3.02434,1.867122 2.45569,4.061691 -0.92731,3.578746 -0.90206,7.772489 0.0581,9.654629 1.50485,2.94974 4.33242,2.633269 10.74931,-1.203084 4.36268,-2.608237 7.02003,-3.91687 10.1476,-4.997247 1.78522,-0.616674 1.87465,-0.995769 0.2349,-0.995769 -1.01919,0 -1.01919,0 4.445,-2.738412 23.18796,-11.620825 36.39638,-21.147368 46.28454,-33.382628 11.68178,-14.45461 10.4885,-27.9331877 -2.87835,-32.512225 -9.1134,-3.1219471 -16.99466,-0.302025 -26.64462,9.533474 -5.79223,5.903591 -6.85107,8.10661 -7.04121,14.64979 -0.10969,3.774643 -0.20551,4.432127 -0.83295,5.715 -0.31057,0.635 -0.31057,0.635 -0.24342,-0.0635 0.0847,-0.88087 -0.24132,-2.797853 -1.06906,-6.2865 -2.6914,-11.3432 -1.85771,-13.865044 5.82675,-17.6255349 3.05908,-1.4969986 4.09394,-2.2393581 5.02919,-3.607712 0.54796,-0.8017002 0.68581,-0.815161 0.68581,-0.066967 0,0.5830773 0.20554,0.1376845 0.57329,-1.2422874 0.63081,-2.3670883 9.92649,-10.9311267 12.76171,-11.757268 0.81864,-0.2385378 2.72268,-1.1376915 3.59596,-1.6981336 0.76508,-0.4910036 0.97516,-0.9441295 1.48137,-3.1952121 1.13846,-5.062601 4.57082,-7.197158 12.85113,-7.991995 4.72189,-0.453262 5.78251,0.265768 5.39265,3.655858 -0.0919,0.798835 -0.0793,0.92075 0.0946,0.92075 0.22378,0 0.64542,0.572097 0.6487,0.880182 10e-4,0.135279 0.10412,0.189947 0.31961,0.17015 6.11622,-0.561885 10.8133,0.249838 20.63751,3.566458 6.31325,2.1313349 9.81978,3.8806266 12.23774,6.105019 1.03325,0.9505328 0.83251,0.909767 2.55776,0.5193995 3.40755,-0.7710158 7.52426,0.5120513 12.79102,3.98660383 3.25173,2.14521047 3.62625,2.83597357 2.9016,5.35167867 -1.14435,3.9728471 -1.29477,9.157117 -0.50096,17.26651 0.21593,2.205789 0.29162,2.449321 0.72962,2.347489 0.37882,-0.08808 1.47772,0.621912 1.47772,0.954745 0,0.235451 0.085,0.253767 1.17807,0.253767 3.98603,0 8.0645,1.312971 12.25437,3.94501 2.33719,1.468198 3.82881,2.610924 9.46098,7.247989 9.57135,7.880264 17.32068,11.824441 25.28285,12.868189 3.0161,0.395375 4.96834,0.24938 9.31439,-0.696558 1.31442,-0.286087 3.07564,-0.668542 3.91384,-0.849899 3.89273,-0.84225 6.58425,0.0095 4.81719,1.524395 -0.41425,0.35514 -1.98192,1.858452 -3.48369,3.340693 -3.28887,3.246095 -4.46312,3.91968 -9.271,5.318115 -9.64978,2.806767 -22.17868,1.979583 -31.92475,-2.10774 -3.13679,-1.315508 -5.90017,-2.80751 -9.89883,-5.344553 -1.31454,-0.834045 -3.28621,-2.017066 -4.3815,-2.628938 -1.09529,-0.611872 -2.67722,-1.50339 -3.51542,-1.981151 -4.55782,-2.597887 -8.65865,-4.078195 -12.446,-4.492736 -2.86415,-0.31349 -2.6035,-0.347929 -2.6035,0.344018 0,5.529715 2.44919,11.562363 7.00115,17.244632 1.1856,1.479982 1.35856,1.760827 1.5643,2.54 0.38311,1.450888 0.93476,2.770577 2.17163,5.195087 3.21637,6.304714 2.72728,9.484096 -2.83644,18.438435 -4.39589,7.074827 -5.15673,8.962834 -5.15927,12.802515 -0.004,5.810609 2.70834,9.282999 10.59363,13.562989 9.39448,5.09914 9.97061,7.37385 5.58743,22.06051 -2.75347,9.22597 -3.4131,13.75705 -2.73638,18.796 0.94902,7.06653 3.84957,12.56317 8.20915,16.10441 -11.09409,5.64636 -22.93046,11.67457 -36.91148,14.48118 -27.85671,2.66351 -28.91078,3.48559 -28.69997,0.69493 0.12865,-1.70319 0.64384,-6.70024 0.96256,-8.34884 0.13416,-0.69398 0.21342,-1.2923 0.17613,-1.32959 -0.33251,-0.33251 -4.77939,5.29847 -6.08328,7.70313 -0.36153,0.66675 -0.36153,0.66675 -2.69522,0.66675 -2.33369,0 -2.33369,0 -2.25177,-0.66675 z m 64.84944,-49.95556 c 2.05275,-1.02747 2.56304,-1.34125 3.24296,-1.99414 6.24021,-5.99217 -5.19281,-19.4694 -12.37738,-14.59045 -2.28636,1.55264 -1.84205,2.5908 1.75135,4.09224 4.55883,1.90483 5.03169,2.79211 3.61554,6.78418 -1.1345,3.19806 -1.00433,4.55574 0.59937,6.25141 0.771,0.81523 0.28891,0.89789 3.16816,-0.54324 z m -7.5389,-5.5679 c 2.13551,-2.31675 -0.64555,-4.3842 -4.35589,-3.23819 -1.05498,0.32584 -1.15248,0.15759 1.31355,2.26704 2.32012,1.98465 2.15633,1.93236 3.04234,0.97115 z M 341.83665,56.926185 c 1.83762,-0.320455 3.08882,-0.822366 3.08882,-1.239071 0,-0.30887 5.03561,-7.356113 5.8088,-8.129297 0.18847,-0.188469 0.46108,-0.223699 1.73106,-0.223699 3.7396,0 7.49172,-1.36629 8.80078,-3.204704 0.27939,-0.392352 0.27939,-0.392352 -0.14473,-0.30753 -4.77148,0.954297 -6.18651,0.784255 -7.98656,-0.95973 -5.8077,-5.626832 -12.90479,-8.769107 -20.23619,-8.959667 -4.37922,-0.113826 -4.95548,0.101956 -5.06089,1.895073 -0.0846,1.439225 -0.42423,2.272265 -1.60851,3.945461 -0.43905,0.620301 -0.79827,1.197192 -0.79827,1.281978 0,0.255274 -0.63111,1.102119 -0.82136,1.102119 -0.0975,0 -1.14413,0.642938 -2.32593,1.42875 -1.18179,0.785813 -3.01259,1.9431 -4.06845,2.57175 -1.05585,0.62865 -1.92165,1.171575 -1.924,1.2065 -0.002,0.03493 1.30678,0.04315 2.90917,0.01828 3.35654,-0.0521 4.7483,0.08511 5.52104,0.544279 0.8719,0.518104 4.13853,4.015915 4.13853,4.431428 0,0.09051 0.30883,0.431189 0.68629,0.757059 3.73109,3.221197 8.06958,4.577068 12.2904,3.841019 z m -86.31919,80.881045 c -1.02882,-0.0914 -2.79723,-0.33319 -2.90341,-0.39692 -0.0602,-0.0361 0.28527,-0.21924 0.76766,-0.40692 4.6686,-1.81643 8.7688,-5.63285 11.66545,-10.85807 0.47134,-0.85024 0.48738,-0.91906 0.45501,-1.95298 -0.0331,-1.05772 -0.0281,-1.07729 0.38266,-1.50113 0.66764,-0.68882 0.24958,-1.03317 -0.62397,-0.51393 -3.22495,1.91687 -6.41714,2.87054 -9.0449,2.70217 -1.87954,-0.12044 -1.96572,-0.17166 -1.01507,-0.60319 4.04634,-1.83678 6.76801,-5.6784 7.58919,-10.71212 0.22782,-1.39652 0.22782,-1.39652 2.0021,-2.31307 6.60883,-3.41397 8.35272,-3.66483 13.86377,-1.99435 3.70296,1.12241 4.74836,1.62509 5.2999,2.54844 1.71855,2.87709 4.72718,6.19544 7.56889,8.34808 1.54126,1.16751 -2.67382,1.24271 -6.81136,0.1215 -2.57286,-0.6972 -2.67084,-0.53464 -1.1791,1.95625 2.8046,4.6831 4.97746,7.53583 6.41796,8.42612 0.69994,0.43258 0.41926,0.5407 -1.14699,0.44182 -3.4202,-0.21595 -6.49143,-1.20443 -8.90379,-2.86568 -0.4191,-0.28861 -0.9188,-0.62102 -1.11044,-0.73868 -0.21263,-0.13056 -0.34876,-0.32533 -0.34925,-0.4997 -0.001,-0.50891 -0.38009,-0.31624 -1.53099,0.77898 -7.41402,7.05541 -14.97911,10.6034 -21.39332,10.03338 z"
             id="path1218"
             sodipodi:nodetypes="sssssscsscssscssssssssscsssssssssssssssssssssssssssssssssssssssssscsssssssssssssssssssssssssssscsssccsssssssssssssssssssssssssssssssscsssssssssssssssssssssssssscss" />
          <path
             style="fill:#dddcc8;stroke-width:1.0477"
             d="m 326.57396,116.61262 c 0.16406,-0.17462 0.32686,-0.3175 0.36178,-0.3175 0.0349,0 -0.0707,0.14288 -0.23478,0.3175 -0.16405,0.17463 -0.32685,0.3175 -0.36177,0.3175 -0.0349,0 0.0707,-0.14287 0.23477,-0.3175 z m 1.905,-1.88124 c 0,-0.0219 0.18574,-0.20759 0.41275,-0.41275 0.41275,-0.37301 0.41275,-0.37301 0.0397,0.0397 -0.34769,0.38475 -0.45249,0.47113 -0.45249,0.37301 z m -4.35704,-10.53706 c -0.95643,-3.5122 -1.73869,-6.412561 -1.73838,-6.445251 3.9e-4,-0.0327 0.61469,-0.06673 1.36525,-0.07562 3.70967,-0.04397 14.83967,-3.427679 24.78452,-7.534923 4.0417,-1.669237 -6.61217,8.714715 -16.68885,16.266034 -2.93199,2.19721 -5.71019,4.17556 -5.8637,4.17556 -0.0659,0 -0.90242,-2.87362 -1.85884,-6.3858 z m 18.70805,-2.55215 c 0,-0.0264 0.10001,-0.12638 0.22225,-0.22225 0.20143,-0.15797 0.20591,-0.15348 0.048,0.048 -0.16591,0.21154 -0.2702,0.27883 -0.2702,0.1743 z m 2.9845,-2.87305 c 0.34399,-0.34925 0.65402,-0.635 0.68895,-0.635 0.0349,0 -0.21796,0.28575 -0.56195,0.635 -0.344,0.349251 -0.65403,0.635001 -0.68895,0.635001 -0.0349,0 0.21795,-0.28575 0.56195,-0.635001 z m 2.34419,-2.31775 c 0.52628,-0.56073 0.64031,-0.661555 0.64031,-0.566191 0,0.02038 -0.27147,0.291846 -0.60325,0.60325 -0.60325,0.566191 -0.60325,0.566191 -0.0371,-0.03706 z m 3.68831,-22.622206 c 0,-0.02637 0.10001,-0.126377 0.22225,-0.22225 0.20143,-0.157962 0.20591,-0.153479 0.048,0.04796 -0.16591,0.211544 -0.2702,0.278829 -0.2702,0.174295 z m 91.8845,-20.653045 c 0.62574,-0.62865 1.16628,-1.143 1.2012,-1.143 0.0349,0 -0.44846,0.51435 -1.0742,1.143 -0.62574,0.62865 -1.16628,1.143 -1.2012,1.143 -0.0349,0 0.44846,-0.51435 1.0742,-1.143 z"
             id="path1208" />
          <path
             style="fill:#d1c9b8;stroke-width:1.0477"
             d="m 343.46497,96.80062 c 0.16404,-0.174625 0.32684,-0.3175 0.36177,-0.3175 0.0349,0 -0.0707,0.142875 -0.23477,0.3175 -0.16405,0.174625 -0.32685,0.3175 -0.36178,0.3175 -0.0349,0 0.0707,-0.142875 0.23478,-0.3175 z m 2.7305,-2.7305 c 0.12642,-0.1397 0.25844,-0.254 0.29337,-0.254 0.0349,0 -0.0399,0.1143 -0.16637,0.254 -0.12643,0.1397 -0.25845,0.254 -0.29337,0.254 -0.0349,0 0.0399,-0.1143 0.16637,-0.254 z"
             id="path1202" />
          <path
             style="fill:#c7c4ac;stroke-width:1.0477"
             d="m 322.76396,183.39456 c 0,-0.3231 2.37218,-3.86104 3.56297,-5.31394 2.23956,-2.73249 2.73051,-3.08767 2.45569,-1.77659 -0.23239,1.10862 -0.78289,5.46203 -0.89961,7.10259 -0.0739,1.03856 -5.11905,1.0103 -5.11905,-0.0121 z m 0.58961,-63.94073 c -0.39291,-4.61306 -0.52679,-5.90025 -0.78695,-7.56621 -1.26744,-8.11606 -3.98826,-14.458286 -8.15197,-19.002257 -0.74321,-0.811073 -0.92807,-1.102005 -0.69944,-1.100697 0.0524,0 0.89535,0.144488 1.87325,0.320447 17.566,3.160585 34.59368,-4.345369 43.73354,-19.278131 1.0855,-1.773517 0.50932,-1.678191 -0.74792,0.123736 -8.69687,12.464771 -21.07724,19.214402 -35.2436,19.214402 -3.35445,0 -8.62351,-1.020102 -13.31736,-2.578278 -0.0629,-0.02087 1.59446,-0.04289 3.683,-0.04892 12.3892,-0.03576 19.29781,-2.092922 29.26085,-8.712899 11.25281,-7.476973 19.44634,-17.153313 23.06698,-27.241453 0.80427,-2.240924 0.13046,1.371491 -1.48472,7.959807 -0.55454,2.262016 -1.00826,4.190829 -1.00826,4.28625 0,0.453217 0.2637,0.07906 0.57142,-0.810758 2.17966,-6.302934 2.76422,-8.294495 3.19645,-10.89025 0.29872,-1.793916 0.35272,-1.27945 0.17931,1.708385 -0.89854,15.48231 -7.29647,28.498833 -20.51478,41.737097 -3.58484,3.590249 -5.35488,5.234669 -12.90099,11.985409 -3.92635,3.51252 -8.38394,7.88801 -9.57901,9.40261 -1.14543,1.45169 -1.05152,1.41081 -1.1298,0.49171 z m 4.84858,-10.29977 c 10.13236,-7.26187 18.10694,-14.352369 21.10163,-18.762241 0.28636,-0.421691 0.49723,-0.766699 0.4686,-0.766699 -0.0286,0 -1.38807,0.518643 -3.02098,1.152538 -11.47764,4.455579 -19.64622,6.848462 -23.37864,6.848462 -0.86276,0 -1.12911,0.03903 -1.08351,0.15875 0.0333,0.08731 0.81392,2.93053 1.73481,6.31825 0.92089,3.38773 1.70506,6.26364 1.7426,6.39093 0.0952,0.32281 0.1822,0.27495 2.43549,-1.33999 z m -65.21841,1.24641 c -0.0147,-0.91401 -0.10812,-2.14762 -0.20761,-2.74135 -0.0995,-0.59372 -0.17318,-1.08817 -0.16377,-1.09879 0.009,-0.0105 0.51994,-0.25108 1.13452,-0.53439 3.7023,-1.70669 10.69082,-7.00282 9.24058,-7.00282 -0.13558,0 -0.27925,0.05297 -0.31926,0.11773 -0.04,0.06474 -0.31442,0.307632 -0.60978,0.53975 -0.53701,0.42202 -0.53701,0.42202 0.0592,-0.339979 2.23627,-2.858047 7.18482,-4.85996 15.08632,-6.103138 2.93373,-0.461569 3.41268,-0.383997 2.23252,0.361569 -1.72069,1.087044 -6.86304,5.040071 -7.88402,6.060605 -0.72965,0.729333 -1.24142,1.142303 -1.41516,1.141983 -0.86814,-0.002 0.48826,4.69548 2.48452,8.60373 0.40138,0.78581 0.72059,1.42875 0.70936,1.42875 -0.0112,0 -0.38747,-0.1507 -0.83607,-0.33487 -7.76348,-3.18737 -10.53468,-3.08733 -17.70665,0.63923 -1.778,0.92385 -1.778,0.92385 -1.80472,-0.73801 z M 406.50571,71.960816 c -11.68838,-1.043648 -21.55327,-7.704029 -34.5717,-23.341414 -1.14095,-1.370482 -2.1495,-2.509132 -2.24122,-2.530336 -0.42729,-0.09878 -0.63769,-3.707948 -0.21617,-3.707948 0.18828,0 0.24718,0.05784 0.19565,0.192117 -0.10035,0.261495 0.17902,0.569883 0.51624,0.569883 0.3985,0 3.75713,0.838181 3.88381,0.969245 0.0586,0.06064 1.14779,1.79618 2.42039,3.856755 7.50136,12.146085 17.31912,19.830612 27.08781,21.20208 12.55481,1.762633 24.6665,-1.496589 32.32112,-8.697507 1.15537,-1.086881 1.18518,-1.174437 0.32625,-0.958155 -0.89844,0.226229 -0.79601,0.09233 0.23204,-0.303347 2.30814,-0.888351 6.45874,-3.284589 6.5506,-3.78182 0.0575,-0.311326 -0.26939,-0.281592 -0.83734,0.07615 -1.41756,0.892937 -1.32785,0.707554 0.60578,-1.251745 2.61819,-2.652956 4.59609,-4.418857 4.72396,-4.217628 1.21367,1.910001 -3.2915,8.93766 -8.2745,12.907447 -8.02056,6.389719 -21.26572,10.039203 -32.72272,9.016218 z M 376.60289,60.564388 c -3.47997,-4.182502 -6.93403,-10.917498 -6.97511,-13.600641 0,-0.02908 0.49324,0.685295 1.0971,1.5875 1.04539,1.561903 1.9169,2.763829 3.53289,4.872339 1.18369,1.544457 1.84677,3.100674 2.67858,6.28657 0.51286,1.964296 0.53754,1.901072 -0.33346,0.854232 z M 269.55096,38.439236 C 251.36748,37.64195 239.00598,30.947985 237.50041,21.08331 c -0.0982,-0.643559 -0.11015,-0.645913 1.93759,0.382328 1.16699,0.585985 1.32398,0.704132 1.35786,1.02195 0.1292,1.211859 3.01607,4.916641 4.99049,6.40441 1.68396,1.268896 4.45099,2.627539 4.74748,2.331055 0.0882,-0.0882 0.48861,0.05063 1.25241,0.434237 7.46263,3.747959 20.01608,5.137405 27.32147,3.024007 0.68093,-0.196988 0.1843,0.605527 -1.37878,2.227976 -1.76734,1.83448 -1.66588,1.815497 -8.17797,1.529963 z"
             id="path1196"
             sodipodi:nodetypes="ssssssssccssssssssssssssssssssssssssscsssssssscsscssssssssssssssssssssssscssssssssssssss" />
          <path
             style="fill:#c9b7aa;stroke-width:1.0477"
             d="m 385.13099,151.78104 c 0.006,-0.14795 0.0362,-0.17804 0.0767,-0.0767 0.0367,0.0917 0.0322,0.20122 -0.01,0.24342 -0.0422,0.0422 -0.0722,-0.0328 -0.0667,-0.16669 z m 0,-3.937 c 0.006,-0.14795 0.0362,-0.17804 0.0767,-0.0767 0.0367,0.0917 0.0322,0.20122 -0.01,0.24342 -0.0422,0.0422 -0.0722,-0.0328 -0.0667,-0.16669 z m 5.6143,-24.88142 c 10e-4,-0.34925 0.0256,-0.47705 0.0548,-0.28401 0.0292,0.19305 0.0284,0.4788 -0.002,0.635 -0.0301,0.15621 -0.054,-0.002 -0.0531,-0.35099 z M 280.52343,28.411118 c 0,-1.012825 0.0197,-1.427163 0.0438,-0.92075 0.0241,0.506412 0.0241,1.335087 0,1.8415 -0.0241,0.506412 -0.0438,0.09208 -0.0438,-0.92075 z M 306.85721,2.9192447 c 0.22702,-0.028171 0.59849,-0.028171 0.8255,0 0.22702,0.028172 0.0413,0.051223 -0.41275,0.051223 -0.45402,0 -0.63976,-0.023051 -0.41275,-0.051223 z"
             id="path1194"
             sodipodi:nodetypes="sssssssssscscccssssssss" />
          <path
             style="fill:#c0a99d;stroke-width:1.0477"
             d="m 379.90435,133.59887 c -0.30788,-0.34925 -0.30788,-0.34925 0.0414,-0.0414 0.32642,0.28777 0.40749,0.39061 0.30788,0.39061 -0.0227,0 -0.17991,-0.15716 -0.34925,-0.34925 z m 6.23262,-2.88925 c 0.16404,-0.17462 0.32684,-0.3175 0.36177,-0.3175 0.0349,0 -0.0707,0.14288 -0.23477,0.3175 -0.16405,0.17463 -0.32685,0.3175 -0.36178,0.3175 -0.0349,0 0.0707,-0.14287 0.23478,-0.3175 z m -13.35121,-11.84275 c -0.15796,-0.20143 -0.15348,-0.20592 0.048,-0.048 0.21154,0.16591 0.27883,0.2702 0.17429,0.2702 -0.0264,0 -0.12638,-0.10001 -0.22225,-0.22225 z m -63.4203,-74.199752 c 0.12643,-0.1397 0.25845,-0.254 0.29337,-0.254 0.0349,0 -0.0399,0.1143 -0.16637,0.254 -0.12642,0.1397 -0.25844,0.254 -0.29336,0.254 -0.0349,0 0.0399,-0.1143 0.16636,-0.254 z m 3.302,-3.302 c 0.12643,-0.1397 0.25845,-0.254 0.29337,-0.254 0.0349,0 -0.0399,0.1143 -0.16637,0.254 -0.12642,0.1397 -0.25844,0.254 -0.29336,0.254 -0.0349,0 0.0399,-0.1143 0.16636,-0.254 z m -24.892,-28.067001 c 0.48521,-0.48895 0.91077,-0.889 0.94569,-0.889 0.0349,0 -0.33348,0.40005 -0.81869,0.889 -0.4852,0.48895 -0.91076,0.889 -0.94568,0.889 -0.0349,0 0.33348,-0.40005 0.81868,-0.889 z"
             id="path1190"
             sodipodi:nodetypes="ssssssssssccsccsssssssssssssss" />
          <path
             style="fill:#af9486;stroke-width:1.0477"
             d="m 391.32776,167.50787 c -0.15796,-0.20143 -0.15348,-0.20591 0.048,-0.0479 0.21154,0.16591 0.27883,0.2702 0.17429,0.2702 -0.0264,0 -0.12638,-0.10001 -0.22225,-0.22225 z m -6.18204,-16.22425 c 0.003,-0.20955 0.031,-0.27989 0.0633,-0.15633 0.0322,0.12357 0.0301,0.29502 -0.005,0.381 -0.0348,0.086 -0.0611,-0.0151 -0.0585,-0.22467 z m -0.005,-2.8575 c 0,-0.17462 0.0288,-0.24606 0.0641,-0.15875 0.0352,0.0873 0.0352,0.23019 0,0.3175 -0.0352,0.0873 -0.0641,0.0159 -0.0641,-0.15875 z m -5.31946,-24.003 c 0,-0.31432 0.0248,-0.44291 0.055,-0.28575 0.0303,0.15716 0.0303,0.41434 0,0.5715 -0.0303,0.15716 -0.055,0.0286 -0.055,-0.28575 z m 10.89743,-0.58208 c 0.006,-0.14795 0.0362,-0.17804 0.0767,-0.0767 0.0367,0.0917 0.0322,0.20122 -0.01,0.24342 -0.0422,0.0422 -0.0722,-0.0328 -0.0667,-0.16669 z m -18.44884,-0.0127 c 0.0917,-0.0367 0.20122,-0.0322 0.24342,0.01 0.0422,0.0422 -0.0328,0.0722 -0.16668,0.0667 -0.14796,-0.006 -0.17804,-0.0362 -0.0767,-0.0767 z m 18.44884,-1.63832 c 0.006,-0.14796 0.0362,-0.17804 0.0767,-0.0767 0.0367,0.0917 0.0322,0.20122 -0.01,0.24342 -0.0422,0.0422 -0.0722,-0.0328 -0.0667,-0.16668 z m -2.56623,-5.86317 c -0.15796,-0.20144 -0.15348,-0.20592 0.048,-0.048 0.21154,0.16591 0.27883,0.27021 0.17429,0.27021 -0.0264,0 -0.12638,-0.10002 -0.22225,-0.22225 z m -16.35677,-16.23483 c 0.006,-0.147959 0.0362,-0.178045 0.0767,-0.0767 0.0367,0.0917 0.0322,0.20122 -0.01,0.24342 -0.0422,0.0422 -0.0722,-0.0328 -0.0667,-0.16668 z m 0,-1.905004 c 0.006,-0.147955 0.0362,-0.178041 0.0767,-0.07673 0.0367,0.09168 0.0322,0.201218 -0.01,0.24342 -0.0422,0.0422 -0.0722,-0.03282 -0.0667,-0.166687 z M 244.51576,66.796869 c -0.15797,-0.201429 -0.15348,-0.205921 0.0479,-0.04795 0.12224,0.09587 0.22225,0.195879 0.22225,0.22225 0,0.104526 -0.10429,0.03725 -0.2702,-0.1743 z m 191.65921,-6.69925 c 0.16405,-0.174625 0.32685,-0.3175 0.36177,-0.3175 0.0349,0 -0.0707,0.142875 -0.23477,0.3175 -0.16405,0.174625 -0.32685,0.3175 -0.36177,0.3175 -0.0349,0 0.0707,-0.142875 0.23477,-0.3175 z M 307.90496,46.016168 c 0,-0.02637 0.10002,-0.126384 0.22225,-0.22225 0.20143,-0.157971 0.20593,-0.153479 0.048,0.04795 -0.1659,0.211551 -0.2702,0.278826 -0.2702,0.1743 z m 3.17273,-3.0318 c 0.73218,-0.750887 1.34654,-1.36525 1.36525,-1.36525 0.0917,0 -0.0632,0.162794 -1.33123,1.39927 -1.36525,1.33123 -1.36525,1.33123 -0.034,-0.03402 z m -30.5947,-12.488333 c 0.006,-0.147949 0.0362,-0.178042 0.0767,-0.07673 0.0367,0.09168 0.0322,0.201216 -0.01,0.243417 -0.0422,0.0422 -0.0722,-0.03281 -0.0667,-0.166687 z"
             id="path1184"
             sodipodi:nodetypes="ssssscccccscssscssssssssscsssssssscssssssssssssscssccssssssssssssssscssc" />
          <path
             style="fill:#9a7667;stroke-width:1.0477"
             d="m 394.63654,170.22166 c -7.35972,-1.49315 -9.45207,-11.46605 -9.42653,-20.46204 0.0131,-4.60516 0.34894,-6.17173 3.9754,-18.542 3.18573,-10.86689 2.12509,-13.88463 -6.54094,-18.61034 -11.92064,-6.50049 -13.7247,-12.863511 -6.83304,-24.100484 2.87424,-4.686491 3.4,-5.581231 4.11279,-6.999288 2.73897,-5.449024 2.71171,-8.448396 -0.12791,-14.079397 -1.10425,-2.189755 -1.78518,-3.867899 -2.09666,-5.167217 -0.0747,-0.311483 0.16973,-0.112546 1.41126,1.148717 1.69832,1.725331 3.09553,2.98796 4.90014,4.428124 0.70533,0.562897 1.26261,1.105968 1.29303,1.260069 0.0294,0.148946 0.20186,1.185215 0.38326,2.302815 2.99491,18.453038 13.12011,35.886571 28.19913,48.553241 7.3751,6.19523 17.19565,11.36088 22.42835,12.26051 -8.17209,12.11414 -26.79359,29.94215 -41.67828,38.00729 z m -14.91006,-36.9433 c -1.51723,-1.72759 -1.63998,-2.99542 -0.57451,-5.93424 1.4423,-3.97824 0.94451,-5.16983 -2.81611,-6.74104 -4.06851,-1.69986 -4.61865,-2.35201 -3.14139,-3.7239 6.50436,-6.04036 19.22884,7.50091 12.94928,13.78048 -1.74638,1.74638 -5.74894,3.37971 -6.41727,2.6187 z m -7.33862,-7.03365 c -2.1901,-1.87739 -2.1766,-1.85174 -1.13518,-2.15834 2.86028,-0.8421 5.45812,0.50912 4.51028,2.34593 -0.89637,1.73707 -1.14604,1.72319 -3.3751,-0.18759 z M 255.58096,70.680847 c -10.1686,-2.390553 -9.26266,-2.262947 -9.62902,-1.356284 -0.16096,0.398361 -0.26342,0.547814 -0.24785,0.361556 0.0146,-0.174625 -0.008,-0.37465 -0.0508,-0.4445 -0.0425,-0.06985 -0.17147,-0.498475 -0.28655,-0.9525 -0.26744,-1.055137 -0.71912,-1.613033 -1.71076,-2.113045 -0.79041,-0.398544 -0.79041,-0.398544 3.63053,-3.552259 13.27256,-9.468105 22.23695,-16.6616 28.23307,-22.655697 3.53994,-3.538743 4.14371,-4.249934 3.93659,-4.636952 -0.1476,-0.275785 -0.12182,-0.407361 0.2294,-1.170629 0.69582,-1.512198 0.79614,-2.186391 0.91212,-6.130419 0.18671,-6.34899 1.42664,-8.82042 7.42356,-14.796659 10.82914,-10.7918003 20.83299,-13.14687572 30.19146,-7.1075835 17.8651,11.5288625 0.12226,38.3671615 -39.32727,59.4875045 -13.98975,7.489789 -13.47599,7.378067 -23.3045,5.067467 z m 127.4918,-13.916978 c -0.15796,-0.20143 -0.15348,-0.205922 0.048,-0.04795 0.12223,0.09587 0.22225,0.195878 0.22225,0.22225 0,0.104526 -0.1043,0.03725 -0.27021,-0.1743 z"
             id="path1174"
             sodipodi:nodetypes="csssssssssscsccssssssssssssscsssssssssssssssss" />
          <path
             style="fill:#70433e;stroke-width:1.0477"
             d="m 247.86388,79.851517 c -2.32249,-0.566179 -3.43076,-5.85771 -2.05984,-9.83488 0.55042,-1.596821 -0.52404,-1.675081 9.65098,0.702932 9.37577,2.191233 9.19048,2.138198 8.34919,2.389708 -0.97701,0.292088 -2.79085,1.214019 -5.11175,2.598167 -4.59245,2.738894 -9.26208,4.52595 -10.82858,4.144073 z M 407.47297,69.482449 c -7.39512,-0.65471 -10.47118,-1.667693 -15.621,-5.144225 -6.07451,-4.10077 -10.80261,-9.214003 -15.41765,-16.673525 -2.32819,-3.763181 -2.27101,-3.619993 -1.32283,-3.312733 12.16045,4.278351 22.19882,13.329054 34.30078,16.118224 8.17394,1.828885 16.00861,1.830494 23.2067,0.0048 4.5509,-1.154294 4.42577,-1.161911 2.93087,0.17843 -6.90758,6.193393 -18.09843,9.712479 -28.07687,8.829067 z m -23.60016,-1.829412 c -4.35365,-3.475092 -6.21233,-5.528452 -6.67094,-7.369679 -0.46872,-1.881818 -1.03339,-3.656894 -1.49327,-4.694239 -0.36597,-0.8255 -0.36597,-0.8255 0.0315,-0.381 3.19458,3.572267 5.73676,6.075526 8.1426,8.017897 0.96653,0.780343 0.98427,0.805053 0.98547,1.373123 10e-4,0.318164 0.0868,1.34481 0.19146,2.281435 0.23189,2.075778 0.34982,1.999032 -1.18684,0.772463 z M 266.50296,35.447869 c -0.24447,-0.02783 -0.98742,-0.111007 -1.651,-0.184845 -5.26777,-0.58616 -14.097,-3.406592 -14.097,-4.503182 0,-0.217268 -0.23949,-0.392465 -1.17475,-0.859372 -2.85625,-1.425922 -5.97369,-4.182689 -6.6926,-5.918299 -0.27568,-0.66556 -0.13585,-0.698943 1.97991,-0.472672 9.21222,0.985199 17.47389,1.028224 24.74694,0.128876 1.48171,-0.183221 4.98115,-0.758787 5.42988,-0.893073 0.14236,-0.0426 0.25095,0.01675 0.30059,0.164309 0.0427,0.127053 0.61954,1.506533 1.28178,3.065511 0.66225,1.558977 1.18024,2.858346 1.15109,2.887487 -0.14688,0.146887 -3.18063,0.564509 -4.10079,0.564509 -1.83091,0 -3.67905,-0.475121 -5.23686,-1.346296 -1.19394,-0.667687 -1.3059,-0.395868 -0.20947,0.508522 2.58049,2.128509 5.3159,3.055575 8.77868,2.975209 1.80689,-0.04193 1.80689,-0.04193 2.0095,0.847065 0.35492,1.55733 0.37938,2.056856 0.10492,2.142872 -0.40813,0.127912 -2.20556,0.444527 -3.73082,0.657181 -1.38428,0.192998 -7.77725,0.362853 -8.89,0.236198 z M 379.21288,-0.11923801 c -2.28707,-1.86237129 -6.91954,-4.47251089 -10.22091,-5.75892069 -1.41696,-0.5521287 -1.39392,-0.4906492 -0.47966,-1.2796914 0.43844,-0.3783838 3.76896,-3.6315909 7.40116,-7.2293479 10.09079,-9.995117 14.01088,-13.089093 16.86377,-13.309979 2.60336,-0.201566 1.34541,2.908091 -6.41205,15.850675 -3.57479,5.9641739 -4.18413,7.0293204 -5.72162,10.0013085 -1.0523,2.03409179 -1.0523,2.03409179 -1.43069,1.72595549 z M 312.26589,-19.416923 c 0.58212,-1.945934 1.16851,-4.078543 2.17907,-7.924962 3.28101,-12.488304 5.24548,-17.666838 7.58766,-20.001906 1.99022,-1.984169 2.41364,-1.99985 2.567,-0.09507 0.0435,0.540909 0.13502,1.440672 0.20326,1.999472 0.34703,2.841613 0.4115,6.239782 0.26249,13.836575 -0.0823,4.194533 -0.11038,8.472626 -0.0624,9.506871 0.0872,1.880446 0.0872,1.880446 -1.23465,1.778 -4.36932,-0.338641 -8.78981,0.07385 -11.35971,1.06001 -0.16705,0.0641 -0.19882,0.02869 -0.14267,-0.158994 z"
             id="path1160"
             sodipodi:nodetypes="sssssssssccssssssscsccsssssssssscscsssssssscssssssccsscsscsscc" />
          <path
             style="fill:#403e42;stroke-width:1.0477"
             d="m 337.33945,52.929419 c -1.9371,-0.257669 -3.56588,-0.515177 -3.6195,-0.572242 -0.0536,-0.05707 0.10254,-0.07068 0.34701,-0.03025 0.24448,0.04043 1.87326,0.251776 3.61951,0.469665 2.89816,0.36162 4.41267,0.625014 3.4925,0.607394 -0.17463,-0.0033 -1.90241,-0.216898 -3.83952,-0.474567 z"
             id="path1150" />
          <path
             style="fill:#3e3d40;stroke-width:1.0477"
             d="m 341.11547,53.279586 c -0.20955,-0.05707 -1.9812,-0.30658 -3.937,-0.554471 -2.09938,-0.266088 -3.6219,-0.51586 -3.71687,-0.609755 -0.11068,-0.109423 1.12856,0.0087 3.97202,0.378675 4.92124,0.64029 4.57995,0.580302 4.28936,0.753947 -0.13876,0.08292 -0.37413,0.09516 -0.60751,0.0316 z"
             id="path1148" />
          <path
             style="fill:#19161a;stroke-width:1.0477"
             d="m 314.89014,183.31937 c 0.001,-0.87995 0.85882,-4.46621 1.5099,-6.31214 0.28214,-0.79991 0.48396,-1.48341 0.44849,-1.51888 -0.2418,-0.24179 -2.84532,2.91997 -4.31563,5.24097 -2.3336,3.68377 -5.13518,2.55327 -4.76583,-1.92312 0.5042,-6.1109 1.87267,-10.70508 6.3634,-21.36308 4.8181,-11.43495 5.8347,-15.18733 6.22768,-22.987 1.05269,-20.89372 -1.04869,-32.26089 -7.44659,-40.281568 -1.00042,-1.254163 -0.60779,-1.097064 -4.0541,-1.622145 -8.25224,-1.257313 -12.8521,0.0085 -23.38371,6.434899 -3.2615,1.990184 -3.34113,2.097214 -2.85512,3.838174 2.02312,7.24723 6.75996,13.50043 12.41885,16.39441 2.01359,1.02977 2.49428,2.29548 1.35195,3.55989 -0.64416,0.71302 -2.93768,1.00834 -7.83084,1.00834 -1.11009,0 -1.11009,0 -0.57504,0.79375 1.34834,2.00026 2.9044,3.6098 4.61791,4.77662 2.75868,1.87854 1.69664,4.19796 -1.8415,4.02171 -4.93455,-0.24579 -8.31646,-1.18538 -11.20185,-3.11217 -0.96597,-0.64505 -0.80778,-0.69334 -1.88493,0.5754 -6.92586,8.15781 -18.79808,11.88206 -28.3045,8.87898 -1.84489,-0.58279 -2.59822,-2.02357 -1.83706,-3.51347 0.29271,-0.57295 0.93465,-0.93872 2.39347,-1.36377 4.15475,-1.21055 7.21314,-3.09002 10.53355,-6.47317 1.62063,-1.65127 1.61699,-1.59352 0.0753,-1.19486 -3.85623,0.99721 -9.18244,0.13489 -10.10784,-1.63646 -0.69446,-1.32932 0.0916,-2.59034 1.93813,-3.10915 4.76497,-1.33878 7.4863,-4.84963 8.04264,-10.37597 0.24916,-2.47501 0.0967,-3.12897 -0.68157,-2.92351 -10.77237,2.84394 -19.35182,-4.15009 -19.11118,-15.579569 0.0443,-2.105127 0.0443,-2.105127 -0.9447,-2.777782 -1.19911,-0.815531 -1.41066,-1.167181 -1.37919,-2.292579 0.0127,-0.454025 -0.0764,-1.597025 -0.19797,-2.54 -0.46643,-3.617621 -0.29968,-10.343579 0.36523,-14.732001 0.17889,-1.180642 0.23719,-2.018385 0.18723,-2.690453 -0.32731,-4.403084 -0.32217,-4.4083 13.50722,-13.69632 9.53742,-6.405469 12.36992,-8.418463 16.2395,-11.541037 1.00376,-0.809979 1.91398,-1.543538 2.02273,-1.630129 0.30124,-0.23986 0.23195,-0.25486 -1.87923,-0.406813 -19.28713,-1.3882 -30.72776,-8.139132 -33.704,-19.888204 -1.83854,-7.257859 -0.85422,-9.549102 3.60631,-8.394562 6.36243,1.646816 11.57919,1.28436 24.19219,-1.680853 8.22058,-1.9325908 12.88492,-2.6809218 16.71887,-2.6823226 1.81769,-6.35e-4 6.93907,-2.6102845 8.58031,-4.3721314 0.42791,-0.4593476 0.84199,-0.8351774 0.92018,-0.8351774 0.0782,0 0.24875,-0.2428876 0.37902,-0.5397501 0.76837,-1.7510252 6.50087,-7.1940562 10.16812,-9.6546724 4.27264,-2.8668118 4.82521,-3.3783391 4.82788,-4.4693041 0.007,-2.840622 2.26601,-6.559577 4.90163,-8.069274 0.776,-0.4445 0.776,-0.4445 1.03207,-1.397 0.14084,-0.523875 0.95394,-3.552826 1.8069,-6.731001 4.5313,-16.883896 6.69135,-22.220322 9.84024,-24.310439 2.03814,-1.352835 4.65468,-1.262941 5.61819,0.193021 1.20928,1.827345 1.63859,11.758958 0.96293,22.275918 -0.5156,8.025451 -0.51644,7.725461 0.0226,8.043486 0.86866,0.512522 1.01452,1.111518 0.70674,2.902419 -0.14179,0.825053 -0.28205,1.645732 -0.31168,1.823732 -0.0539,0.323637 -0.0539,0.323637 2.57308,0.271813 7.42994,-0.146574 18.09939,2.863718 25.67892,7.2450865 3.87886,2.2421826 4.4634,2.3498481 6.71219,1.2363057 1.06875,-0.5292242 1.38954,-0.6313411 1.9832,-0.6313411 0.70823,0 0.70823,0 7.27694,-6.5138771 7.69381,-7.629595 12.02592,-11.69029 14.31571,-13.418816 6.07954,-4.589353 12.72119,-3.462505 10.84938,1.840743 -1.68054,4.761331 -3.87895,8.729827 -10.02231,18.0919501 -5.16428,7.87006964 -5.72962,8.87740193 -5.28128,9.41021775 0.71557,0.85040345 0.71133,1.65017835 -0.0181,3.40773785 -1.99022,4.7956141 -2.79847,10.2486563 -2.45509,16.5639073 0.1857,3.415269 0.072,3.124729 1.19017,3.040341 5.6421,-0.425797 12.58111,2.412575 19.4443,7.953595 8.27913,6.684203 9.83098,7.859042 13.0264,9.861747 8.94789,5.608009 14.7614,6.639658 25.52019,4.528744 5.59405,-1.097574 7.1243,-1.040485 8.99068,0.335416 5.9515,4.387473 -2.33623,16.926381 -15.58787,23.583611 -14.91303,7.491883 -31.78519,6.762954 -44.76581,-1.934002 -0.83682,-0.560669 -0.81066,-0.592649 -0.61407,0.750438 4.43987,30.335399 25.51074,54.318691 51.68789,61.058501 -0.49835,0.90395 -0.70954,1.60296 -1.35011,2.70733 -8.36971,-0.68525 -27.99477,-12.40204 -40.45997,-31.53958 -7.08881,-10.883278 -12.02455,-25.303582 -12.53403,-36.619432 -0.0334,-0.741933 -0.0334,-0.741933 -1.4304,-1.8944 -1.91952,-1.583522 -6.57368,-6.28338 -8.20509,-8.285669 -2.3765,-2.916736 -5.82841,-7.75822 -5.82841,-8.174635 0,-0.350956 0.34368,-0.0075 2.11194,2.110384 16.1321,19.322047 27.32535,25.296954 43.98906,23.481171 13.92406,-1.517256 23.96754,-6.849465 30.06156,-15.960068 3.71326,-5.55136 2.41791,-8.449605 -3.26456,-7.304156 -0.59373,0.119681 -2.3368,0.493104 -3.8735,0.829832 -6.20141,1.358873 -8.71141,1.370269 -13.84705,0.06286 -6.96792,-1.773861 -13.31197,-5.485086 -22.79245,-13.33346 -8.9717,-7.427173 -13.32174,-9.617934 -19.71675,-9.929723 -1.43548,-0.06999 -1.61925,-0.104489 -1.61925,-0.304009 0,-0.284334 -1.2548,-1.020478 -1.66198,-0.975013 -0.35709,0.03987 -0.39187,-0.127746 -0.67818,-3.26919 -0.67249,-7.378455 -0.53162,-11.737753 0.50987,-15.7777374 0.81537,-3.1628246 0.61671,-3.5922256 -2.67179,-5.7755043 -5.51321,-3.6602799 -9.82531,-4.918239 -13.61893,-3.9730123 -0.91251,0.227363 -0.91251,0.227363 -1.778,-0.5668251 -2.59976,-2.3855631 -6.33867,-4.1923553 -13.62899,-6.5860489 -8.65044,-2.840274 -13.70927,-3.692963 -18.77548,-3.164693 -0.72931,0.07605 -0.91939,0.06224 -0.87409,-0.0635 0.0861,-0.239006 -0.31303,-0.870606 -0.6269,-0.991984 -0.25126,-0.09717 -0.2636,-0.151305 -0.14895,-0.653321 0.74436,-3.259271 -0.69689,-4.347977 -5.19019,-3.920622 -8.653,0.822977 -12.07436,2.910261 -13.2316,8.072247 -0.51005,2.2751377 -0.67299,2.6377735 -1.39147,3.0967655 -0.92226,0.5891759 -3.2142,1.6650831 -3.66838,1.7220553 -2.20027,0.2760002 -12.06377,9.3257044 -12.72894,11.6787364 -0.34148,1.2079516 -0.44947,1.3263639 -0.53953,0.5915685 -0.033,-0.269052 -0.0994,-0.210124 -0.50413,0.4472915 -1.00668,1.6351098 -2.23687,2.5423318 -5.72519,4.2221188 -6.73633,3.243853 -7.92884,6.40215 -5.85851,15.515965 0.24594,1.082676 0.64061,2.817634 0.87704,3.855463 0.46282,2.031657 0.71461,3.600962 0.40022,2.494538 -0.16238,-0.5715 -0.16238,-0.5715 -0.8544,-0.508 -3.75002,0.344107 -7.26851,-0.734742 -10.05266,-3.082377 -0.82362,-0.694484 -0.71648,-0.703225 0.57048,-0.04654 2.27068,1.158639 4.9501,1.472517 7.83767,0.918135 1.58298,-0.303915 1.54714,-0.156225 0.57799,-2.382073 -0.46641,-1.071205 -1.0536,-2.461996 -1.30486,-3.090646 -0.25127,-0.62865 -0.46729,-1.15784 -0.48005,-1.175976 -0.0128,-0.01814 -0.56081,0.0773 -1.21789,0.212086 -7.95904,1.632601 -20.2832,1.811836 -30.58805,0.44485 -2.85132,-0.378241 2.48716,5.348425 6.54475,7.020641 0.62195,0.256316 0.74118,0.424415 0.51776,0.72996 -0.40845,0.558582 -3.883,-1.355983 -5.84174,-3.218941 -1.99405,-1.896537 -4.06579,-4.933559 -3.78535,-5.549048 0.16372,-0.359346 0.0974,-0.356027 2.36694,-0.118431 9.33583,0.977358 20.76023,0.926061 29.13662,-0.130824 2.92563,-0.36914 2.58371,-0.106308 2.22041,-1.706817 -0.83362,-3.672385 0.38,-6.741243 3.41522,-8.636 0.83844,-0.523403 0.89817,-0.661534 0.248,-0.57356 -2.71426,0.36727 -3.66189,0.518514 -5.30225,0.846257 -2.31297,0.462131 -5.03542,1.153673 -9.906,2.516271 -11.11642,3.109942 -15.94671,3.808823 -20.65026,2.98783 -4.868,-0.849698 -5.41784,-0.664868 -5.27463,1.773087 0.69419,11.817424 13.55932,19.014552 34.56432,19.336289 4.57543,0.07008 4.57543,0.07008 6.09179,-1.546167 0.834,-0.888936 1.53792,-1.551601 1.56426,-1.472586 0.15018,0.450559 -6.69906,7.166864 -11.21548,10.997784 -4.89878,4.155249 -15.37038,12.098014 -23.07575,17.503076 -4.65572,3.265834 -5.95134,8.000854 -5.30467,19.386722 0.0694,1.222375 0.12752,2.925788 0.12911,3.785349 0.003,1.562862 0.003,1.562862 1.44488,2.503069 2.74285,1.788401 6.58168,3.854907 8.48951,4.570057 0.33335,0.124955 0.58199,0.251282 0.55255,0.280733 -0.17229,0.172289 -4.48396,-1.831987 -6.48997,-3.016859 -0.60643,-0.358178 -1.1193,-0.632029 -1.13973,-0.608546 -1.2685,1.458735 0.45908,8.315605 2.77175,11.001232 5.25581,6.10339 17.04502,5.19234 26.40356,-2.040404 1.32851,-1.026744 1.36395,-0.851484 0.0666,0.329254 -2.68474,2.44338 -5.84728,4.57671 -8.61032,5.8082 -0.52387,0.23351 -0.966,0.43165 -0.98251,0.44033 -0.0165,0.009 0.0627,0.46901 0.17603,1.02294 1.4392,7.03479 -1.9929,14.37579 -7.87786,16.85013 -0.89717,0.37722 -0.85971,0.41 0.68334,0.59791 3.00776,0.36629 6.31311,-0.52578 9.93803,-2.68215 0.70675,-0.42044 0.93657,-0.14099 0.36719,0.44647 -0.40521,0.41807 -0.41264,0.44671 -0.38939,1.50148 0.0817,3.70713 -7.22461,11.216 -12.54544,12.89324 -0.946,0.29821 -0.86258,0.36325 0.7853,0.61236 7.43437,1.12381 15.05281,-1.99739 22.90781,-9.38512 0.86295,-0.81162 1.61066,-1.47567 1.66158,-1.47567 0.19247,0 0.25451,0.17341 0.12002,0.33546 -0.10741,0.12941 -0.0704,0.19541 0.15985,0.28548 0.16475,0.0644 0.52546,0.35113 0.80158,0.63711 0.27611,0.28597 0.5539,0.51995 0.61732,0.51995 0.0634,0 -0.0196,-0.11858 -0.18453,-0.2635 -0.1649,-0.14493 -0.0326,-0.0879 0.2941,0.12668 2.50037,1.64266 6.0063,2.67682 9.07472,2.67682 1.68165,0 1.70218,-0.0278 0.63778,-0.86428 -1.53379,-1.20537 -3.28637,-3.53573 -5.80142,-7.71404 -1.69915,-2.82282 -1.69235,-2.8633 0.3845,-2.29087 2.62153,0.72255 9.66871,1.28964 8.60102,0.69214 -2.19173,-1.22656 -6.34193,-5.48173 -8.41927,-8.63222 -2.65976,-4.0338 -5.3409,-11.26328 -4.22499,-11.39236 0.23186,-0.0268 0.67914,-0.39273 1.42208,-1.163425 2.27455,-2.359495 9.95,-7.727226 13.01907,-9.104732 5.94945,-2.67034 9.08634,-2.711437 17.98659,-0.235648 18.02383,5.013693 34.45876,-1.161098 45.88343,-17.238905 1.35202,-1.902701 1.6088,-1.993239 0.48175,-0.169862 -5.73655,9.280652 -14.95025,15.815882 -26.35168,18.691098 -5.7899,1.460107 -9.88171,1.531595 -16.902,0.295301 -1.15252,-0.202971 -2.13836,-0.369062 -2.19075,-0.369113 -0.28011,0 -0.008,0.500545 0.67917,1.250442 7.08476,7.730204 9.81561,19.794294 9.00253,39.770474 -0.42113,10.34646 -1.70203,15.56654 -6.51611,26.55513 -3.52892,8.0551 -4.92665,12.13685 -5.67642,16.5767 -0.38269,2.26611 -0.34804,2.30844 0.70108,0.85645 1.61354,-2.23314 3.72697,-4.14486 5.68019,-5.13806 1.14249,-0.58096 2.63946,-1.03437 2.84684,-0.86226 0.25317,0.21011 0.21012,0.59099 -0.0771,0.68215 -0.15422,0.0489 -0.2773,0.2342 -0.3221,0.48481 -0.34007,1.90235 -0.4067,2.44287 -0.30571,2.47991 0.16966,0.0623 0.14118,0.42489 -0.0827,1.05296 -0.10894,0.30564 -0.39283,1.32724 -0.63086,2.27021 -0.36765,1.4565 -0.56598,2.50909 -1.02297,5.42925 -0.0693,0.44262 -2.97439,0.69074 -2.97391,0.254 z M 380.6643,-1.5885633 c 1.08494,-2.2052306 3.31324,-6.1152014 6.15967,-10.8083317 6.97743,-11.504185 8.57647,-15.45299 6.25755,-15.45299 -2.87729,0 -7.48856,3.582515 -17.48656,13.585372 -2.96917,2.970621 -6.0123,5.9670284 -6.76252,6.6586831 -1.36402,1.2575553 -1.36402,1.2575553 0.25501,1.8953557 3.16043,1.2450268 6.64345,3.1705564 9.27735,5.12882155 0.67741,0.50365281 1.26024,0.91340436 1.29517,0.91055956 0.0349,-0.002845 0.48686,-0.86570697 1.00433,-1.91747021 z M 315.14396,-19.897722 c 2.25933,-0.460558 6.74881,-0.582646 9.35843,-0.254494 0.65892,0.08286 0.65892,0.08286 0.58707,-2.442156 -0.0395,-1.388756 -0.008,-5.668263 0.0711,-9.510013 0.16667,-8.144517 -0.0692,-14.303617 -0.62624,-16.351251 -0.24761,-0.910222 -0.8869,-0.649927 -2.63127,1.071348 -2.28754,2.257263 -4.191,7.288606 -7.53441,19.915403 -0.76756,2.898775 -1.59291,5.933618 -1.83412,6.744094 -0.2412,0.810477 -0.43856,1.528299 -0.43856,1.595161 0,0.06686 0.47149,-0.03492 1.04775,-0.226181 0.57627,-0.19126 1.47638,-0.435119 2.00025,-0.541911 z M 250.62949,99.356432 c -0.008,-0.608813 2.40403,-4.20958 2.60377,-3.886403 0.0447,0.07242 -0.0928,0.330009 -0.30563,0.572427 -0.42548,0.484594 -1.5493,2.118893 -2.00599,2.917164 -0.15984,0.279401 -0.29131,0.457963 -0.29215,0.396812 z m 8.25347,-2.875864 c -2.01658,-0.186792 -2.86698,-0.370878 -1.3335,-0.288659 2.44733,0.131217 4.28833,-0.276301 7.98689,-1.767954 1.77917,-0.717537 2.8866,-1.22442 9.15811,-4.191673 3.52697,-1.668717 5.14358,-2.304847 10.06806,-3.961677 7.5633,-2.544673 10.34535,-3.892232 13.0499,-6.321069 1.23046,-1.105015 2.98054,-3.057233 2.98054,-3.324784 0,-0.162992 -1.79961,-0.596989 -3.1115,-0.75038 -1.397,-0.163334 -1.397,-0.163334 0.3175,-0.329336 0.94298,-0.0913 2.104,-0.246748 2.58006,-0.345453 1.85907,-0.385458 3.26201,0.369989 4.20632,2.264969 0.43552,0.873963 -0.0964,1.657198 -0.75456,1.110996 -0.86492,-0.717817 -2.5469,-1.395362 -2.76784,-1.114958 -3.55871,4.516526 -6.18287,6.317056 -12.72548,8.731377 -6.92988,2.557247 -8.03341,3.069209 -11.46283,5.318049 -5.90492,3.872129 -12.01797,5.542407 -18.19167,4.970552 z m -3.07181,-0.465201 c 0.0917,-0.03669 0.20122,-0.03218 0.24342,0.01003 0.0422,0.0422 -0.0328,0.07222 -0.16669,0.06671 -0.14795,-0.0061 -0.17804,-0.03619 -0.0767,-0.07673 z m -8.3043,-14.383678 c -2.98164,-0.713194 -3.77627,-5.214989 -2.12539,-12.04082 0.038,-0.157162 0.12345,-0.28575 0.18986,-0.28575 0.0664,0 0.0862,0.108827 0.044,0.241846 -0.81607,2.571192 -0.48814,7.614336 0.60057,9.23605 1.43059,2.130972 5.57801,1.165619 12.34957,-2.874454 3.85092,-2.297545 6.01495,-3.174442 7.83402,-3.174442 1.36325,0 1.1459,0.286436 -0.72202,0.951497 -3.10654,1.106069 -5.51015,2.295906 -9.779,4.840796 -4.5709,2.724975 -6.69518,3.511055 -8.39161,3.105277 z M 363.66741,65.706156 c -0.005,-0.05855 0.41724,-1.830204 0.93875,-3.937 1.11237,-4.493768 1.87561,-8.207768 2.19654,-10.688537 0.17741,-1.371352 0.27252,-1.778001 0.41589,-1.778001 0.55975,0 0.19254,4.382476 -0.63833,7.618228 -0.52434,2.042008 -2.88059,9.148577 -2.91285,8.78531 z m 54.71478,-4.03331 c -9.93415,-0.635746 -15.54865,-2.627215 -28.18122,-9.995927 -9.31807,-5.435323 -13.51666,-7.303895 -18.98866,-8.450839 -1.83798,-0.385246 -1.9461,-0.66544 -0.24369,-0.631538 4.5912,0.09143 9.8348,2.306202 18.53385,7.828253 7.75182,4.920769 10.71433,6.432425 15.32029,7.817379 13.70602,4.121217 26.81219,3.335333 36.67276,-2.199004 0.69188,-0.388328 1.29228,-0.706051 1.33421,-0.706051 0.50229,0 -1.64104,1.442498 -3.79726,2.555621 -5.7115,2.948494 -12.95268,4.274721 -20.65028,3.782106 z m -81.52122,-4.928159 c -2.54853,-0.562361 -5.33064,-2.015122 -7.17551,-3.746898 -0.635,-0.596075 -0.635,-0.596075 0.127,-0.0962 1.6465,1.080108 4.34346,2.170777 5.84337,2.363101 0.63364,0.08125 0.63364,0.08125 -0.0251,-0.165879 -3.74687,-1.405623 -6.45251,-5.919473 -5.94209,-9.913256 0.0906,-0.708937 0.0906,-0.708937 0.2707,-0.01351 1.23832,4.781506 7.66512,3.603325 7.68986,-1.409727 0.0187,-3.793242 -3.95943,-5.70299 -6.5284,-3.134018 -1.1134,1.113398 0.65694,-1.807047 1.84206,-3.038764 0.65755,-0.683397 0.71663,-0.654844 -1.44235,-0.697044 -2.53685,-0.04959 -2.97275,0.194315 -4.84162,2.709072 -0.56511,0.760408 -1.05187,1.382559 -1.08169,1.382559 -0.0741,0 0.0556,-0.20803 0.59402,-0.9525 1.28643,-1.778742 1.79163,-3.003868 1.74517,-4.232118 -0.0524,-1.38615 0.25418,-1.584511 2.80751,-1.816298 7.29385,-0.662121 15.85862,2.829045 22.59555,9.210389 1.42898,1.353554 1.42898,1.353554 2.2225,1.289935 0.43644,-0.03499 1.36503,-0.0954 2.06353,-0.134239 1.16264,-0.06465 2.3226,-0.203979 3.302,-0.396616 0.54231,-0.106669 -0.18487,0.663011 -1.34247,1.420927 -2.45572,1.607832 -9.0568,2.757884 -8.28556,1.443522 0.23003,-0.392003 0.23003,-0.392003 -0.43051,-0.985253 -0.3633,-0.326287 -1.12054,-1.013642 -1.68275,-1.527454 -1.02221,-0.934205 -1.02221,-0.934205 -1.02296,-0.254 -0.006,5.752516 -4.19771,10.941722 -9.20675,11.398597 -1.8533,0.169038 -0.0413,0.317568 2.53888,0.208108 1.25792,-0.05336 2.51038,-0.104784 2.78325,-0.114263 0.61729,-0.02144 0.72844,0.218718 0.22237,0.480421 -1.68691,0.872334 -5.37699,1.220771 -7.64,0.721411 z m 3.11656,-2.744977 c 1.36567,-0.347148 4.06722,-1.970362 3.74144,-2.24803 -0.11226,-0.09567 -11.56293,-1.53297 -11.63541,-1.460486 -0.14306,0.143053 0.82686,1.454352 1.57951,2.135466 1.70977,1.547255 4.08659,2.139364 6.31446,1.57305 z m -22.23007,-7.387094 c 0.0699,-0.06854 0.72708,-0.487319 1.4605,-0.930628 0.73343,-0.443309 2.26336,-1.426126 3.39986,-2.184041 1.78743,-1.192015 3.41475,-1.826213 1.98653,-0.77419 -0.53346,0.392944 -7.06458,4.102454 -6.84689,3.888859 z M 279.21299,32.909035 c 0.006,-0.147949 0.0362,-0.178041 0.0767,-0.07673 0.0367,0.09168 0.0322,0.201217 -0.01,0.243417 -0.0422,0.0422 -0.0722,-0.03281 -0.0667,-0.166687 z"
             id="path1134"
             sodipodi:nodetypes="ssssssssssssssssssssssssssscsssssssssssssssssscsssssssssssssssssscsssssssscccssssscssssssssssssssssssssssssssssssssssssssssssssssssssssssssssccssscsssscssssssssssssssscssssssssssssssccssssssssssssssssssssssssscssssssscssscsssssssssssssssssssssssscsssssscsssscsssssssssssssssssssssssssssssssssscsssssssssssssssscssc" />
        </g>
      </g>
      <path
         id="background-ring"
         style="fill:none;fill-opacity:1;stroke:#000000;stroke-width:5.23852;stroke-miterlimit:4;stroke-dasharray:none;stroke-opacity:1"
         d="M 256.02957,267.02978 A 131.45235,131.45235 0 0 1 124.57722,398.48213 131.45235,131.45235 0 0 1 -6.8751313,267.02978 131.45235,131.45235 0 0 1 124.57722,135.57743 131.45235,131.45235 0 0 1 256.02957,267.02978 Z" />
    </g>
  </g>
</svg>
