<?xml version="1.0" encoding="UTF-8" standalone="no"?>
<!-- Created with Inkscape (http://www.inkscape.org/) -->

<svg
   width="1620mm"
   height="1000mm"
   viewBox="0 0 1620 1000"
   version="1.1"
   id="svg1"
   inkscape:version="1.3.2 (091e20e, 2023-11-25, custom)"
   sodipodi:docname="refactoring.svg"
   inkscape:export-filename="refactoring.png"
   inkscape:export-xdpi="102.62627"
   inkscape:export-ydpi="102.62627"
   xmlns:inkscape="http://www.inkscape.org/namespaces/inkscape"
   xmlns:sodipodi="http://sodipodi.sourceforge.net/DTD/sodipodi-0.dtd"
   xmlns="http://www.w3.org/2000/svg"
   xmlns:svg="http://www.w3.org/2000/svg">
  <sodipodi:namedview
     id="namedview1"
     pagecolor="#505050"
     bordercolor="#eeeeee"
     borderopacity="1"
     inkscape:showpageshadow="0"
     inkscape:pageopacity="0"
     inkscape:pagecheckerboard="true"
     inkscape:deskcolor="#505050"
     inkscape:document-units="mm"
     inkscape:zoom="0.14370237"
     inkscape:cx="-588.02093"
     inkscape:cy="2393.8367"
     inkscape:window-width="3205"
     inkscape:window-height="1790"
     inkscape:window-x="18"
     inkscape:window-y="253"
     inkscape:window-maximized="0"
     inkscape:current-layer="layer1"
     labelstyle="default" />
  <defs
     id="defs1" />
  <g
     inkscape:label="Layer 1"
     inkscape:groupmode="layer"
     id="layer1"
     transform="translate(23.434518,8.4624669)">
    <g
       id="g3"
       transform="matrix(10,0,0,10,210.91067,76.162205)"
       style="stroke-width:0.1">
      <rect
         style="fill:#bfbfbf;fill-opacity:1;stroke:none;stroke-width:0.0797981"
         id="background"
         width="162"
         height="100"
         x="-23.434519"
         y="-8.4624672" />
      <g
         id="g2"
         style="stroke-width:0.1">
        <text
           xml:space="preserve"
           style="font-style:normal;font-variant:normal;font-weight:normal;font-stretch:normal;font-size:10.6536px;font-family:'Times New Roman';-inkscape-font-specification:'Times New Roman, Normal';font-variant-ligatures:normal;font-variant-caps:normal;font-variant-numeric:normal;font-variant-east-asian:normal;text-align:center;text-anchor:middle;display:inline;fill:#3f3f3f;fill-opacity:1;stroke:none;stroke-width:0.203559"
           x="35.540722"
           y="50.665668"
           id="equations"><tspan
             sodipodi:role="line"
             style="font-style:normal;font-variant:normal;font-weight:normal;font-stretch:normal;font-size:10.6536px;font-family:'Times New Roman';-inkscape-font-specification:'Times New Roman, Normal';font-variant-ligatures:normal;font-variant-caps:normal;font-variant-numeric:normal;font-variant-east-asian:normal;text-align:start;text-anchor:start;fill:#3f3f3f;fill-opacity:1;stroke:none;stroke-width:0.203559"
             x="35.540722"
             y="50.665668"
             id="tspan2">y = 2x + 2z</tspan><tspan
             sodipodi:role="line"
             style="font-style:normal;font-variant:normal;font-weight:normal;font-stretch:normal;font-size:10.6536px;font-family:'Times New Roman';-inkscape-font-specification:'Times New Roman, Normal';font-variant-ligatures:normal;font-variant-caps:normal;font-variant-numeric:normal;font-variant-east-asian:normal;text-align:start;text-anchor:start;fill:#3f3f3f;fill-opacity:1;stroke:none;stroke-width:0.203559"
             x="35.540722"
             y="63.98267"
             id="tspan4">y = 2(x+z)</tspan></text>
        <text
           xml:space="preserve"
           style="font-style:normal;font-variant:normal;font-weight:normal;font-stretch:normal;font-size:10.6536px;font-family:'Times New Roman';-inkscape-font-specification:'Times New Roman, Normal';font-variant-ligatures:normal;font-variant-caps:normal;font-variant-numeric:normal;font-variant-east-asian:normal;text-align:center;text-anchor:middle;display:inline;fill:#3f3f3f;fill-opacity:1;stroke:none;stroke-width:0.203559"
           x="23.141939"
           y="64.05629"
           id="implies"><tspan
             sodipodi:role="line"
             style="font-style:normal;font-variant:normal;font-weight:normal;font-stretch:normal;font-size:10.6536px;font-family:'Times New Roman';-inkscape-font-specification:'Times New Roman, Normal';font-variant-ligatures:normal;font-variant-caps:normal;font-variant-numeric:normal;font-variant-east-asian:normal;text-align:start;text-anchor:start;fill:#3f3f3f;fill-opacity:1;stroke:none;stroke-width:0.203559"
             x="23.141939"
             y="64.05629"
             id="tspan4-9">⇒</tspan></text>
        <path
           d="m 27.187506,20.393595 h 2.833763 q 0.331367,0 0.588463,-0.15997 0.257095,-0.159971 0.394213,-0.451346 0.142831,-0.297088 0.142831,-0.679874 v 0 q 0,-0.382787 -0.142831,-0.674162 -0.137118,-0.297088 -0.394213,-0.457058 -0.251382,-0.159971 -0.588463,-0.159971 h -2.833763 v -1.108367 h 2.788057 q 0.719867,0 1.262624,0.297088 0.548471,0.297088 0.845559,0.845559 0.302801,0.542757 0.302801,1.256911 v 0 q 0,0.714154 -0.302801,1.262624 -0.302802,0.542757 -0.851272,0.839845 -0.542757,0.297088 -1.256911,0.297088 h -2.788057 z m -0.508478,-3.690748 h 1.165499 V 25.0156 h -1.165499 z m 2.770918,4.54202 1.159786,-0.262809 2.125322,4.033542 h -1.382602 z m 6.941577,3.856432 q -0.822705,0 -1.405455,-0.308515 -0.58275,-0.308514 -0.891264,-0.902691 -0.302802,-0.599889 -0.302802,-1.445447 v -0.668449 q 0,-0.879837 0.291375,-1.50258 0.297088,-0.622742 0.856985,-0.948396 0.559897,-0.325654 1.348323,-0.325654 0.74272,0 1.268337,0.37136 0.525618,0.37136 0.799853,1.074087 0.279948,0.702728 0.279948,1.685404 v 0.3885 h -3.999262 v -0.93697 h 2.890895 v 0 q -0.05142,-0.725581 -0.377073,-1.125507 -0.319941,-0.40564 -0.862698,-0.40564 -0.662735,0 -1.028382,0.434206 -0.359934,0.434206 -0.359934,1.228345 v 0.754147 q 0,0.737007 0.3885,1.13122 0.3885,0.394213 1.102654,0.394213 0.35422,0 0.702728,-0.142831 0.348507,-0.142831 0.622742,-0.399926 v 0 l 0.765573,0.765573 v 0 q -0.439919,0.422779 -0.988389,0.657021 -0.54847,0.22853 -1.102654,0.22853 z m 4.016402,-6.8216 q 0,-0.788426 0.359933,-1.176926 0.365647,-0.394213 1.119794,-0.394213 h 0.856985 v 1.108367 h -0.834132 q -0.165684,0 -0.251382,0.125692 -0.0857,0.125691 -0.0857,0.325654 V 25.0156 h -1.165499 z m -0.628456,0.805566 h 2.965168 v 0.994102 h -2.965168 z m 7.284372,2.171028 q 0,-0.582749 -0.314228,-0.90269 -0.308515,-0.325655 -0.879838,-0.325655 -0.35422,0 -0.697014,0.108552 -0.337081,0.108551 -0.59989,0.302801 L 43.7216,19.856551 q 0.33708,-0.405639 0.885551,-0.628455 0.554183,-0.228529 1.228345,-0.228529 0.737007,0 1.262624,0.262808 0.525617,0.257096 0.799852,0.754147 0.274236,0.491338 0.274236,1.188352 V 25.0156 h -1.108367 z m -1.451161,3.845006 q -1.096941,0 -1.639698,-0.451346 -0.542757,-0.457058 -0.542757,-1.382602 0,-0.879838 0.497051,-1.319757 0.497051,-0.439918 1.50258,-0.439918 h 1.685404 l 0.07999,0.93697 h -1.759676 q -0.457058,0 -0.685588,0.205676 -0.222816,0.199963 -0.222816,0.617029 0,0.451345 0.297089,0.668448 0.302801,0.217103 0.914117,0.217103 0.668448,0 0.994102,-0.142831 0.331368,-0.14283 0.331368,-0.445632 l 0.119977,0.834132 q -0.154257,0.239956 -0.382786,0.394213 -0.222816,0.154257 -0.519904,0.228529 -0.297088,0.07999 -0.668448,0.07999 z m 6.724473,0 q -0.811279,0 -1.388315,-0.302802 -0.571323,-0.302801 -0.874125,-0.879837 -0.302801,-0.577037 -0.302801,-1.394029 v -0.976963 q 0,-0.805566 0.302801,-1.376889 0.302802,-0.571323 0.874125,-0.868411 0.577036,-0.302801 1.388315,-0.302801 0.462772,0 0.868412,0.114264 0.411353,0.108552 0.737007,0.319941 0.325654,0.21139 0.542757,0.514191 v 0 l -0.839845,0.754147 v 0 q -0.251383,-0.285662 -0.588463,-0.439919 -0.337081,-0.154257 -0.702728,-0.154257 -0.674161,0 -1.045521,0.377073 -0.37136,0.377073 -0.37136,1.062661 v 0.976963 q 0,0.702727 0.365646,1.085514 0.371361,0.382787 1.051235,0.382787 0.37136,0 0.708441,-0.165684 0.337081,-0.165684 0.58275,-0.468485 v 0 l 0.839845,0.811279 v 0 q -0.222816,0.297088 -0.54847,0.508477 -0.325655,0.205677 -0.737007,0.314228 -0.40564,0.108552 -0.862699,0.108552 z m 4.976226,-0.05713 q -0.719867,0 -1.056948,-0.394213 -0.331367,-0.399926 -0.331367,-1.176926 v -6.113158 h 1.165499 v 6.124585 q 0,0.217103 0.0857,0.337081 0.0857,0.114264 0.251382,0.114264 h 0.559897 v 1.108367 z m -1.999631,-5.958901 h 2.673793 V 20.1365 h -2.673793 z m 6.547366,6.016034 q -0.771287,0 -1.319757,-0.302802 -0.54847,-0.302801 -0.839845,-0.879837 -0.285662,-0.58275 -0.285662,-1.399742 v -0.965537 q 0,-0.805565 0.285662,-1.376889 0.291375,-0.577036 0.839845,-0.874124 0.54847,-0.302801 1.319757,-0.302801 0.771286,0 1.319756,0.302801 0.548471,0.297088 0.834132,0.874124 0.291375,0.571324 0.291375,1.376889 v 0.982676 q 0,0.811279 -0.291375,1.388316 -0.285661,0.571323 -0.834132,0.874124 -0.54847,0.302802 -1.319756,0.302802 z m 0,-1.108367 q 0.611316,0 0.942683,-0.382787 0.337081,-0.382787 0.337081,-1.074088 v -0.982676 q 0,-0.691301 -0.337081,-1.068374 -0.331367,-0.377073 -0.942683,-0.377073 -0.611316,0 -0.948397,0.377073 -0.331367,0.377073 -0.331367,1.068374 v 0.982676 q 0,0.691301 0.331367,1.074088 0.337081,0.382787 0.948397,0.382787 z m 4.102098,-4.907667 h 1.1655 V 25.0156 h -1.1655 z m 3.262256,1.405455 q -0.154257,-0.188536 -0.3885,-0.285661 -0.234242,-0.09712 -0.542757,-0.09712 -0.554183,0 -0.862698,0.308514 -0.302801,0.302801 -0.302801,0.845559 L 67.008734,20.11936 q 0.274235,-0.531331 0.708441,-0.822705 0.434205,-0.297088 0.959823,-0.297088 0.405639,0 0.731293,0.119977 0.331368,0.114265 0.577037,0.342794 z m 1.731111,-3.78216 h 1.165499 v 1.1655 h -1.165499 z m 0,2.376705 h 1.165499 V 25.0156 h -1.165499 z m 2.936599,0 h 1.1655 V 25.0156 h -1.1655 z m 3.599337,2.336712 q 0,-0.628455 -0.325655,-0.971249 -0.325654,-0.342794 -0.914117,-0.342794 -0.571323,0 -0.885551,0.302801 -0.308514,0.302801 -0.308514,0.851272 L 74.9387,20.11936 q 0.274235,-0.537044 0.714154,-0.828419 0.445632,-0.291374 0.982676,-0.291374 0.965536,0 1.491153,0.634168 0.531331,0.628456 0.531331,1.782529 V 25.0156 h -1.165499 z m 4.924806,6.004607 q -0.668448,0 -1.199778,-0.251382 -0.525618,-0.245669 -0.816993,-0.697014 v 0 l 0.788426,-0.714154 v 0 q 0.22853,0.314227 0.542758,0.485624 0.319941,0.171397 0.668448,0.171397 0.668448,0 1.034095,-0.37136 0.365647,-0.365647 0.365647,-1.039808 v -5.924622 h 1.165499 v 5.753225 q 0,0.816992 -0.302801,1.399742 -0.297088,0.58275 -0.868412,0.885551 -0.571323,0.302801 -1.376889,0.302801 z M 82.30877,25.118438 q -0.651308,0 -1.11408,-0.279948 -0.457059,-0.285662 -0.697015,-0.828419 -0.239955,-0.542757 -0.239955,-1.302617 v -1.30833 q 0,-0.765573 0.234242,-1.30833 0.234243,-0.542757 0.679875,-0.822706 0.451345,-0.285661 1.079801,-0.285661 0.525617,0 0.959823,0.274235 0.439919,0.274235 0.708441,0.771286 l -0.119978,1.211206 q 0,-0.377074 -0.137118,-0.645596 -0.137118,-0.268522 -0.399926,-0.405639 -0.257096,-0.142831 -0.628456,-0.142831 -0.577036,0 -0.896977,0.359934 -0.314228,0.359933 -0.314228,1.011242 v 1.29119 q 0,0.645596 0.314228,0.999816 0.319941,0.348507 0.896977,0.348507 0.37136,0 0.628456,-0.142831 0.262808,-0.148544 0.399926,-0.422779 0.137118,-0.274235 0.137118,-0.657022 l 0.07998,1.251198 q -0.17711,0.439919 -0.58275,0.737007 -0.399926,0.297088 -0.988389,0.297088 z"
           id="Refactoring"
           style="font-size:11.7007px;font-family:Bahnschrift;-inkscape-font-specification:'Bahnschrift, Normal';fill:#3f3f3f;stroke-width:0.18;stroke-linejoin:round;stroke-miterlimit:100;stroke-opacity:0.198507"
           aria-label="Refactoring" />
      </g>
    </g>
  </g>
</svg>
