<?xml version="1.0" encoding="UTF-8" standalone="no"?>
<!-- Created with Inkscape (http://www.inkscape.org/) -->

<svg
   width="1583.7932"
   height="252.78349"
   viewBox="0 0 419.04528 66.882299"
   version="1.1"
   id="svg343"
   inkscape:export-filename="michael_gr_logo_4.png"
   inkscape:export-xdpi="25.4"
   inkscape:export-ydpi="25.4"
   inkscape:version="1.3.2 (091e20e, 2023-11-25, custom)"
   sodipodi:docname="logo.svg"
   xmlns:inkscape="http://www.inkscape.org/namespaces/inkscape"
   xmlns:sodipodi="http://sodipodi.sourceforge.net/DTD/sodipodi-0.dtd"
   xmlns="http://www.w3.org/2000/svg"
   xmlns:svg="http://www.w3.org/2000/svg">
  <sodipodi:namedview
     id="namedview345"
     pagecolor="#505050"
     bordercolor="#ffffff"
     borderopacity="1"
     inkscape:showpageshadow="0"
     inkscape:pageopacity="0"
     inkscape:pagecheckerboard="1"
     inkscape:deskcolor="#505050"
     inkscape:document-units="mm"
     showgrid="false"
     inkscape:zoom="1.1893044"
     inkscape:cx="743.29162"
     inkscape:cy="64.743728"
     inkscape:current-layer="layer1"
     inkscape:window-width="2524"
     inkscape:window-height="1408"
     inkscape:window-x="1298"
     inkscape:window-y="612"
     inkscape:window-maximized="0" />
  <defs
     id="defs340" />
  <g
     inkscape:label="Layer 1"
     inkscape:groupmode="layer"
     id="layer1"
     transform="translate(-0.76995875,-298.10696)">
    <path
       id="fill"
       style="display:inline;fill:#f20d0d;fill-opacity:1;stroke:#ffffff;stroke-width:1.8;stroke-dasharray:none;stroke-opacity:0.19850746"
       d="m 138.0657,299.16934 v 50.92836 h 12.29914 v -28.60558 h 21.75919 v 28.60558 h 11.46866 v -28.64186 c 0.0563,-4.13617 -3.13957,-7.98349 -7.29293,-7.98349 h -25.93491 v -14.27019 z m 155.15343,0 v 50.92836 h 12.29871 v -50.92836 z m -224.215453,0.0324 v 7.98782 h 12.2987 v -7.98785 z m 299.620633,14.03905 -32.72257,0.23148 c -5.12468,0.0362 -6.6585,1.37552 -6.63694,7.86776 l -0.0432,20.38499 c -0.007,5.9786 1.88131,8.3726 6.81055,8.3726 h 27.97505 v 5.80947 h -22.7054 v 8.01978 h 27.35619 c 5.36165,-0.026 6.98156,-2.64494 7.02518,-7.34952 l 0.12438,-35.2438 c 0.11467,-6.08261 -2.02327,-7.94265 -7.18324,-8.09276 z m -357.673076,0.2316 c -5.6365595,0 -9.1175815,1.33625 -9.1175815,7.7736 v 28.85175 H 14.132367 v -28.60558 h 12.298706 v 28.60558 h 12.298716 v -28.60558 h 12.298708 v 28.60558 h 12.29914 v -28.76883 c 0,-5.91516 -4.19942,-7.85652 -9.18321,-7.85652 z m 58.052443,0 v 36.62535 h 12.2987 v -36.62538 z m 25.06123,0 c -3.93009,0.16573 -6.00687,3.27467 -6.03145,7.92519 l -0.10839,20.28609 c 0.13008,4.78793 2.15909,8.47357 7.84746,8.41407 h 36.547613 v -8.02013 H 99.277557 v -20.58548 l 33.112103,0.0147 v -8.03445 z m 97.206803,0 v 8.01977 h 32.88409 v 6.2828 h -27.89299 c -4.58375,0 -5.16189,4.52264 -5.16858,8.01977 v 6.2828 c 0.0168,4.36433 1.27138,7.99948 5.28865,8.02021 h 32.8897 c 4.38322,-0.11151 6.05986,-3.80494 6.05736,-8.47712 l -0.0212,-20.04986 c -0.003,-3.38081 -2.50097,-8.09837 -6.40544,-8.09837 z m 56.22436,0 c -4.35882,-0.0176 -5.68727,2.98547 -5.68727,8.01977 v 20.60956 h 4.4e-4 c 0.0533,5.22075 2.63651,7.88397 6.27243,7.99602 h 38.02548 v -8.02021 h -32.75152 v -6.2828 h 27.16402 c 3.60814,0 5.60001,-2.80893 5.60001,-7.19059 l 0.007,-7.13141 c 0,-6.30289 -1.3392,-7.98067 -6.26509,-8.00034 z m 139.33142,-1e-4 c -4.63654,0 -5.69445,1.53415 -5.69028,7.93686 v 28.6885 h 12.1981 v -28.60558 h 25.41624 v -8.01978 z m -45.5257,7.98566 h 22.70542 v 20.61949 h -22.70542 z m -87.90341,0.0342 h 21.7592 v 6.28279 h -21.7592 z m -51.94669,14.30255 h 22.70541 v 6.2828 h -22.70541 z m 110.00087,6.31518 v 7.98781 h 12.29871 v -7.98781 z"
       sodipodi:nodetypes="ccccccccscccccccccccccscccsccccccccscccccccccccsssccccccccccccccccccccsccccccsccscccccccsccccsccccccsccccccccccccccccccccc" />
  </g>
</svg>
