<?xml version="1.0" encoding="UTF-8" standalone="no"?>
<!-- Created with Inkscape (http://www.inkscape.org/) -->

<svg
   width="1583.7932"
   height="252.78349"
   viewBox="0 0 419.04528 66.882299"
   version="1.1"
   id="svg343"
   inkscape:export-filename="michael_gr_logo_4.png"
   inkscape:export-xdpi="25.4"
   inkscape:export-ydpi="25.4"
   inkscape:version="1.4.2 (f4327f4, 2025-05-13)"
   sodipodi:docname="logo.svg"
   xmlns:inkscape="http://www.inkscape.org/namespaces/inkscape"
   xmlns:sodipodi="http://sodipodi.sourceforge.net/DTD/sodipodi-0.dtd"
   xmlns="http://www.w3.org/2000/svg"
   xmlns:svg="http://www.w3.org/2000/svg">
  <sodipodi:namedview
     id="namedview345"
     pagecolor="#505050"
     bordercolor="#ffffff"
     borderopacity="1"
     inkscape:showpageshadow="0"
     inkscape:pageopacity="0"
     inkscape:pagecheckerboard="1"
     inkscape:deskcolor="#505050"
     inkscape:document-units="mm"
     showgrid="false"
     inkscape:zoom="0.84096521"
     inkscape:cx="874.59029"
     inkscape:cy="188.47391"
     inkscape:current-layer="layer1"
     inkscape:window-width="1225"
     inkscape:window-height="607"
     inkscape:window-x="15"
     inkscape:window-y="737"
     inkscape:window-maximized="0" />
  <defs
     id="defs340" />
  <g
     inkscape:label="Layer 1"
     inkscape:groupmode="layer"
     id="layer1"
     transform="translate(-0.76995875,-298.10696)">
    <path
       id="fill"
       style="display:inline;fill:#f20d0d;fill-opacity:1;stroke:#ffffff;stroke-width:1.8;stroke-dasharray:none;stroke-opacity:0.198507"
       d="m 294.27734,349.03906 c 3.39388,0 6.78776,0 10.18164,0 0,-16.27018 0,-32.54036 0,-48.81054 -3.39388,0 -6.78776,0 -10.18164,0 0,16.27018 0,32.54036 0,48.81054 z m -155.15234,0 c 3.39388,0 6.78776,0 10.18164,0 0,-9.53515 0,-19.07031 0,-28.60547 7.95899,0 15.91797,0 23.87695,0 0,9.53516 0,19.07032 0,28.60547 3.11654,0 6.23308,0 9.34961,0 -0.0176,-9.47352 0.0463,-18.94989 -0.042,-28.4216 -0.26848,-3.20303 -3.08808,-6.26155 -6.4326,-6.07876 -8.91731,-0.009 -17.83463,-0.0104 -26.75195,-0.007 0,-4.75781 0,-9.51562 0,-14.27344 -3.39388,-0.008 -6.78776,-0.0169 -10.18164,-0.0254 0,16.26888 0,32.53776 0,48.80664 z m -69.0625,-42.9082 c 3.39388,0 6.78776,0 10.181641,0 0,-1.95703 0,-3.91406 0,-5.87109 -3.393881,0 -6.787761,0 -10.181641,0 0,1.95703 0,3.91406 0,5.87109 z m 296.70312,8.18359 c -10.53217,0.0831 -21.06624,0.1206 -31.59793,0.24301 -1.53966,0.0354 -3.52909,0.24231 -4.18331,1.89371 -0.90022,2.18253 -0.57471,4.60344 -0.66312,6.90469 0.0132,6.67809 -0.10151,13.35947 0.0224,20.03549 0.12979,1.52922 0.35817,3.0563 1.41316,4.26861 1.55154,1.59273 3.96703,1.3852 6.00604,1.37061 9.10069,0.0188 18.20244,0.004 27.30355,0.008 0,2.64193 0,5.28386 0,7.92578 -7.56836,0 -15.13672,0 -22.70508,0 0,1.9681 0,3.9362 0,5.9043 9.1397,-0.0208 18.28166,0.0529 27.41991,-0.048 1.79195,-0.10371 3.80054,-0.97076 4.33111,-2.84161 0.85021,-2.52156 0.39115,-5.22229 0.52731,-7.82839 0.0245,-10.80173 0.11529,-21.60479 0.0771,-32.40574 -0.0701,-1.84731 -0.63526,-4.0939 -2.56442,-4.80989 -1.70012,-0.71313 -3.58039,-0.65342 -5.38672,-0.6211 z m -139.72851,0.22657 c -11.56823,-0.0222 -23.13815,-0.004 -34.70703,-0.01 0,1.96745 0,3.9349 0,5.90234 10.96159,0 21.92318,0 32.88476,0 0,2.80013 0,5.60026 0,8.40039 -9.89498,0.0163 -19.79162,-0.0431 -29.68554,0.0391 -1.72149,0.19561 -2.81526,1.84274 -3.04553,3.44628 -0.60584,2.92329 -0.21265,5.92631 -0.33338,8.88575 0.0134,2.38813 0.0222,5.11916 1.76012,6.97287 1.40578,1.24298 3.38899,0.77603 5.09066,0.86133 10.30859,-0.0179 20.61986,0.0464 30.92674,-0.0462 2.01057,-0.20524 3.52208,-1.95513 3.91559,-3.8637 0.59911,-2.24347 0.41584,-4.4493 0.40875,-6.78361 0.005,-5.81571 0.0443,-11.63464 -0.0452,-17.44875 -0.3261,-2.51571 -1.65096,-5.22914 -4.15118,-6.17157 -0.9767,-0.29454 -2.01391,-0.20018 -3.01872,-0.18445 z m 50.40625,-0.0195 c -10.23588,0.0367 -20.47374,-0.0255 -30.70895,0.0346 -1.56301,0.0818 -2.98017,1.20945 -3.3467,2.74284 -0.73329,2.48378 -0.45531,5.1128 -0.52749,7.66745 0.0625,6.10421 -0.0864,12.21315 0.0767,18.31445 0.15773,2.22177 1.22622,4.70859 3.4941,5.45898 1.97294,0.56528 4.05667,0.19676 6.07753,0.29923 10.84675,0 21.69349,0 32.54024,0 0,-1.96745 0,-3.93489 0,-5.90234 -10.91732,0 -21.83464,0 -32.75195,0 -10e-6,-2.80013 0,-5.60026 0,-8.40039 9.62991,-0.0156 19.26222,0.0404 28.89062,-0.0371 1.68973,-0.15842 3.04152,-1.52438 3.45048,-3.13091 0.71848,-2.39637 0.32103,-4.92887 0.41962,-7.38897 -0.0614,-2.68392 0.30944,-5.52839 -0.79823,-8.05431 -0.82246,-1.42318 -2.67184,-1.57442 -4.09661,-1.56905 -0.90587,-0.0388 -1.81288,-0.0381 -2.7194,-0.0345 z m -225.003907,0.008 c -14.25309,0.0182 -28.50793,-0.0343 -42.7605027,0.0337 -2.0685567,0.10887 -4.5193337,0.40365 -5.7691271,2.27999 -1.411187,2.2464 -0.9234598,5.0121 -1.0172451,7.52262 0,8.22447 0,16.44895 0,24.67343 3.3938802,0 6.7877604,0 10.1816409,0 0,-9.53515 0,-19.07031 0,-28.60547 4.805338,0 9.610677,0 14.416015,0 0,9.53516 0,19.07032 0,28.60547 3.393881,0 6.787761,0 10.181641,0 0,-9.53515 0,-19.07031 0,-28.60547 4.805339,0 9.610677,0 14.416016,0 0,9.53516 0,19.07032 0,28.60547 3.39388,0 6.78776,0 10.18164,0 -0.01546,-9.57925 0.0417,-19.15997 -0.04102,-28.73828 -0.157654,-2.20001 -1.551934,-4.33702 -3.697895,-5.04377 -1.959783,-0.78505 -4.015663,-0.73856 -6.091168,-0.72771 z m 50.847657,0.002 c -3.27883,0.0268 -6.561457,-0.0268 -9.837891,0.0508 -2.108882,0.26407 -3.687042,2.12906 -4.046875,4.15625 -0.57059,2.62494 -0.210576,5.32882 -0.337866,7.98984 -0.0027,5.27046 -0.117405,10.64558 -0.02737,15.85 0.149852,2.32142 1.123427,4.92555 3.427735,5.87696 2.356095,0.96818 4.95184,0.44853 7.422265,0.58398 10.458201,0 20.916411,0 31.374611,0 0,-1.96745 0,-3.93489 0,-5.90234 -11.01432,0 -22.02865,0 -33.04297,0 0,-7.56771 0,-15.13542 0,-22.70313 11.03776,0.004 22.07552,0.009 33.11328,0.0137 0,-1.97201 0,-3.94401 0,-5.91602 -9.34831,-7.7e-4 -18.69661,-0.003 -28.04492,0 z m 290.78711,0 c -2.90388,0.0393 -5.81417,-0.0541 -8.71399,0.0705 -1.17056,0.0732 -2.45442,0.70837 -2.67257,1.97246 -0.74909,2.54391 -0.39591,5.23429 -0.49235,7.84691 0,8.20599 0,16.41198 0,24.61797 3.36068,0 6.72136,0 10.08203,0 0,-9.53515 0,-19.07031 0,-28.60547 8.47201,0 16.94401,0 25.41602,0 0,-1.96744 0,-3.93489 0,-5.90234 -7.87305,-7.8e-4 -15.74609,-0.003 -23.61914,0 z M 70.0625,349.03906 c 3.39388,0 6.78776,0 10.181641,0 0,-11.5026 0,-23.00521 0,-34.50781 -3.393881,0 -6.787761,0 -10.181641,0 0,11.5026 0,23.00521 0,34.50781 z m 270.71094,-28.64062 c 8.09765,0 16.19531,0 24.29297,0 0,7.57942 0,15.15885 0,22.73828 -8.27409,0 -16.54818,0 -24.82227,0 0,-7.57943 0,-15.15886 0,-22.73828 0.17643,0 0.35287,0 0.5293,0 z m -87.9043,0.0351 c 7.78255,0 15.5651,0 23.34766,0 0,2.80013 0,5.60026 0,8.40039 -7.95899,0 -15.91797,0 -23.87696,0 0,-2.80013 0,-5.60026 0,-8.40039 0.17644,0 0.35287,0 0.5293,0 z m -51.94726,14.30274 c 8.09765,0 16.19531,0 24.29296,0 0,2.80013 0,5.60026 0,8.40039 -8.27408,0 -16.54817,0 -24.82226,0 0,-2.80013 0,-5.60026 0,-8.40039 0.17643,0 0.35286,0 0.5293,0 z m 111.58984,14.30273 c 3.39388,0 6.78776,0 10.18164,0 0,-1.95703 0,-3.91406 0,-5.87109 -3.39388,0 -6.78776,0 -10.18164,0 0,1.95703 0,3.91406 0,5.87109 z" />
  </g>
</svg>
