<?xml version="1.0" encoding="UTF-8" standalone="no"?>
<!-- Created with Inkscape (http://www.inkscape.org/) -->

<svg
   width="1000mm"
   height="1000mm"
   viewBox="0 0 1000 1000"
   version="1.1"
   id="svg1"
   inkscape:version="1.3.2 (091e20e, 2023-11-25, custom)"
   sodipodi:docname="hail-mary-initialization.svg"
   xmlns:inkscape="http://www.inkscape.org/namespaces/inkscape"
   xmlns:sodipodi="http://sodipodi.sourceforge.net/DTD/sodipodi-0.dtd"
   xmlns="http://www.w3.org/2000/svg"
   xmlns:svg="http://www.w3.org/2000/svg">
  <sodipodi:namedview
     id="namedview1"
     pagecolor="#505050"
     bordercolor="#eeeeee"
     borderopacity="1"
     inkscape:showpageshadow="0"
     inkscape:pageopacity="0"
     inkscape:pagecheckerboard="0"
     inkscape:deskcolor="#505050"
     inkscape:document-units="mm"
     inkscape:zoom="0.13622196"
     inkscape:cx="3196.9882"
     inkscape:cy="1233.2813"
     inkscape:window-width="2398"
     inkscape:window-height="1816"
     inkscape:window-x="1002"
     inkscape:window-y="94"
     inkscape:window-maximized="0"
     inkscape:current-layer="layer1" />
  <defs
     id="defs1" />
  <g
     inkscape:label="Layer 1"
     inkscape:groupmode="layer"
     id="layer1"
     transform="translate(-128.86588,-54.678539)">
    <rect
       style="display:inline;fill:#bebebe;fill-opacity:0.998437;stroke-width:0.264583;stroke-linejoin:round;stroke-miterlimit:100"
       id="background"
       width="1000"
       height="1000"
       x="128.86588"
       y="54.678539" />
    <text
       xml:space="preserve"
       style="font-style:normal;font-variant:normal;font-weight:bold;font-stretch:normal;font-size:70.9305px;font-family:Consolas;-inkscape-font-specification:'Consolas, Bold';font-variant-ligatures:normal;font-variant-caps:normal;font-variant-numeric:normal;font-variant-east-asian:normal;fill:#000000;fill-opacity:1;stroke-width:0.264583;stroke-linejoin:round;stroke-miterlimit:100"
       x="597.73962"
       y="358.53052"
       id="text1"><tspan
         sodipodi:role="line"
         id="tspan8"
         x="597.73962"
         y="358.53052">int a = 0; </tspan><tspan
         sodipodi:role="line"
         id="tspan9"
         x="597.73962"
         y="447.19363">if( x )</tspan><tspan
         sodipodi:role="line"
         id="tspan10"
         x="597.73962"
         y="535.85675">    a = y;</tspan><tspan
         sodipodi:role="line"
         id="tspan11"
         x="597.73962"
         y="624.5199">else</tspan><tspan
         sodipodi:role="line"
         id="tspan12"
         x="597.73962"
         y="713.18298">    a = z;</tspan><tspan
         sodipodi:role="line"
         id="tspan13"
         x="597.73962"
         y="801.84613">f( a );</tspan><tspan
         sodipodi:role="line"
         id="tspan14"
         x="597.73962"
         y="890.50922" /></text>
    <g
       id="the-virgin-mary"
       clip-rule="evenodd"
       fill-rule="evenodd"
       style="stroke-width:0.254152"
       transform="matrix(1.0410448,0,0,1.0410448,245.49349,143.10322)">
      <path
         d="m 131.98,70.515 c 3.563,-1.645 5.542,-4.873 11.362,-4.261 -7.174,9.238 -15.709,17.115 -20.831,28.406 14.971,-14.932 31.509,-34.666 62.966,-33.14 2.044,1.743 4.57,3.005 7.574,3.788 11.252,14.604 0.045,38.942 -9.469,48.763 -3.937,11.528 -8.04,22.891 -10.415,35.98 -1.111,-0.151 -1.777,-0.748 -3.313,-0.473 -0.579,-9.316 4.537,-20.97 0,-26.986 4.018,-3.715 9.132,-6.333 9.941,-13.256 -0.936,-0.8 -2.955,-0.517 -4.261,-0.947 -0.98,-1.545 -2.261,-2.789 -1.894,-5.681 3.671,-0.509 4.527,2.414 7.102,2.367 5.839,-0.106 7.146,-8.335 10.415,-12.309 -2.413,-7.529 -6.125,-13.759 -8.048,-21.778 -7.474,2.688 -23.071,6.206 -32.193,5.681 -9.049,4.05 -16.169,10.028 -20.357,18.937 -1.061,0.518 -2.372,0.784 -3.314,1.42 -1.312,5.997 -2.355,9.879 -5.208,13.729 1.746,4.102 2.425,9.436 5.208,13.256 2.422,3.324 7.842,6.859 8.048,8.521 0.298,2.41 -5.125,4.563 -2.841,8.048 -5.81,-0.128 -4.848,6.515 -6.628,10.416 5.64,4.151 20.074,5.736 24.618,-0.473 -0.985,-4.646 -3.733,-5.62 -7.102,-7.102 0.855,-2.932 2.988,-4.587 4.734,-6.628 1.74,2.315 5.41,6.075 8.049,8.995 -0.116,-3.547 3.158,-9.811 0,-11.836 1.253,-2.061 3.388,-3.239 5.207,-4.734 0.966,0.297 0.133,2.392 1.894,1.894 -2.798,13.602 -1.694,26.408 -1.42,42.135 -0.498,2.077 1.602,1.555 1.42,3.314 -2.395,2.175 -2.687,1.244 -5.681,0.473 0.232,-8.438 -2.848,-13.564 -4.734,-19.884 -12.12,3.258 -24.404,2.187 -33.613,-2.841 -2.028,-6.652 -3.354,-14.004 -3.788,-22.251 -1.875,1.056 -1.796,1.454 -4.734,0.947 1.094,-5.692 0.917,-12.655 4.734,-15.623 0.603,-8.416 2.308,-17.339 3.788,-26.039 2.476,-14.553 3.613,-28.103 10.889,-36.927 4.616,-2.013 8.406,-4.85 13.729,-6.155 -0.272,0.99 -1.174,1.351 -0.947,2.84 -4.456,1.383 -7.048,4.63 -8.521,8.996 1.249,1.269 2.868,-1.631 4.734,0 -2.05,3.781 -5.4,6.273 -7.11,10.4 z m 47.34,36.455 c -0.406,-1.803 -1.689,-2.729 -3.787,-2.84 0.03,2.19 1.35,3.07 3.79,2.84 z"
         id="path1"
         style="stroke-width:0.254152" />
      <path
         d="m 196.37,58.679 c 1.464,0.903 1.326,3.408 2.841,4.261 -0.991,1.061 -2.365,1.738 -3.788,2.367 -0.719,-1.648 -1.798,-2.937 -1.894,-5.208 1.44,0.024 2.41,-0.43 2.84,-1.42 z"
         id="path2"
         style="stroke-width:0.254152" />
      <path
         d="m 230.93,60.573 c 2.519,1.268 2.925,4.65 3.313,8.048 -1.36,-0.098 -2.405,0.12 -2.841,0.947 -1.817,-1.654 -2.145,-4.799 -3.313,-7.102 0.68,-0.895 3.04,-0.108 2.84,-1.893 z"
         id="path3"
         style="stroke-width:0.254152" />
      <path
         d="m 236.61,77.616 c 1.861,6.834 1.246,18.323 -0.947,24.145 -1.856,-0.438 -1.759,-1.031 -3.787,-0.474 0.866,-7.34 2.397,-14.015 1.894,-22.725 1.26,-0.009 2.79,0.261 2.85,-0.949 z"
         id="path4"
         style="stroke-width:0.254152" />
      <path
         d="m 113.52,84.718 c -0.273,4.391 -0.383,8.124 1.42,11.362 -2.018,10.292 -4.165,20.454 -9.942,26.985 -1.246,-0.49 -1.594,-1.877 -2.84,-2.367 2.467,-4.843 0.728,-10.398 2.84,-14.676 0.268,-0.542 1.648,-0.865 1.894,-1.42 0.325,-0.735 -0.299,-1.884 0,-2.84 0.465,-1.489 2.437,-2.532 2.84,-3.788 1.402,-4.361 -0.739,-9.336 2.367,-13.256 0.47,0.012 0.94,0.012 1.42,0.012 z"
         id="path5"
         style="stroke-width:0.254152" />
      <path
         d="m 100.26,88.032 c 0.271,8.618 -2.333,15.868 -0.947,24.145 -2.356,-0.621 -2.014,1.458 -3.787,1.42 0.401,-1.979 -1.282,-1.874 -1.894,-2.84 1.418,-7.261 1.741,-15.619 3.314,-22.725 1.104,-0.003 2.209,-0.003 3.314,-0.003 z"
         id="path6"
         style="stroke-width:0.254152" />
      <path
         d="m 161.8,92.766 c 0.793,0.785 0.377,2.779 0.474,4.261 -0.964,0.862 -3.839,1.497 -5.208,0.474 0.462,-1.274 1.044,-2.428 1.421,-3.788 1.98,0.542 1.86,-0.996 3.32,-0.947 z"
         id="path7"
         style="stroke-width:0.254152" />
      <path
         d="m 155.65,111.7 c 3.088,0.384 4.718,2.225 7.102,3.314 0.049,1.469 -1.49,1.351 -0.947,3.314 -3.57,-0.42 -7.16,-3.15 -6.15,-6.62 z"
         id="path8"
         style="stroke-width:0.254152" />
      <path
         d="m 143.82,117.86 c 7.524,0.365 14.786,0.995 17.044,6.628 -2.555,1.27 -5.021,4.493 -8.996,2.84 0.306,-2.127 0.306,-2.108 1.421,-3.788 -4.37,-2.77 -7.96,-0.57 -9.46,-5.68 z"
         id="path9"
         style="stroke-width:0.254152" />
      <path
         d="m 181.69,127.33 c 1.092,0.487 1.527,1.63 3.314,1.42 -1.299,4.207 -1.882,10.089 -0.947,15.149 3.125,1.154 1.557,9.072 6.155,9.469 1.482,0.128 2.962,-1.001 4.261,-2.367 0.986,0.908 1.973,1.815 2.367,3.314 -1.306,1.377 -3.799,1.567 -5.208,2.841 -1.412,1.467 1.537,1.245 1.42,2.84 0.212,2.263 -2.026,2.076 -2.367,3.788 -6.337,-4.903 -6.211,-17.593 -13.729,-19.884 1.54,-5.58 2.29,-11.93 4.75,-16.57 z"
         id="path10"
         style="stroke-width:0.254152" />
      <path
         d="m 97.893,130.64 c 1.551,0.027 1.81,1.347 3.787,0.947 0.33,2.381 -0.803,3.3 -0.473,5.681 -2.531,-0.795 -2.053,1.419 -3.788,1.42 -1.877,-2.13 0.434,-5.06 0.471,-8.05 z"
         id="path11"
         style="stroke-width:0.254152" />
      <path
         d="m 107.83,207.34 c -2.826,-15.801 -8.136,-31.259 -15.15,-43.082 -1.748,-2.946 -4.545,-7.211 -7.101,-9.468 -3.154,-2.785 -8.383,-3.174 -8.995,-8.522 4.643,-1.36 9.268,-4.91 12.782,-8.521 1.667,-1.713 1.417,-4.895 4.261,-2.841 2.126,4.82 0.423,9.62 0.947,14.203 0.316,2.771 1.964,5.026 2.367,7.575 0.306,1.936 -0.401,3.861 0,5.681 0.903,4.104 4.836,7.29 6.154,10.889 0.497,1.357 0.038,2.839 0.474,4.261 1.57,5.125 5.144,10.196 7.101,15.623 2.608,7.232 5.044,14.194 7.102,20.831 1.642,-0.379 1.82,0.706 3.314,0.474 0.417,-5.471 -6.096,-10.627 -3.787,-17.99 1.762,-0.875 3.666,3.097 4.734,5.681 1.254,3.035 1.859,6.618 2.367,9.469 0.601,2.179 -0.861,2.295 -1.42,3.314 1.945,2 5.299,1.138 8.521,0.947 -1.205,-16.944 -5.823,-34.576 -9.942,-50.184 1.176,0.071 1.965,-0.245 2.367,-0.947 6.365,7.68 8.122,19.968 13.256,28.879 3.103,-4.788 -0.725,-16.505 4.261,-19.41 2.098,5.319 1.649,13.185 2.367,19.884 3.468,-1.27 4.317,-9.251 8.521,-11.362 0.285,0.978 0.732,1.793 2.367,1.42 0.476,3.074 -1.116,5.274 0,7.575 -1.699,-0.279 -2.29,0.55 -3.313,0.947 -3.002,10.886 -7.155,20.62 -13.256,28.406 -3.735,0.842 -5.504,3.649 -8.049,5.681 -1.174,10.691 0.539,21.187 1.42,31.247 4.939,-1.354 9.525,-10.102 7.101,-17.517 5.354,-2.876 7.497,-9.498 12.31,-13.256 3.643,-2.845 8.323,-3.849 10.889,-7.575 1.028,-1.494 1.618,-4.322 2.841,-7.102 0.928,-2.11 3.385,-4.711 3.787,-6.155 0.177,-0.632 -0.779,-2.129 -0.474,-2.84 3.073,-7.143 12.091,-15.54 17.99,-20.357 0.026,-3.39 -4.357,-5.019 -0.473,-7.102 -1.058,-1.625 -4.098,-1.268 -4.261,-3.788 1.479,-1.204 4.542,-0.822 4.733,-3.314 -3.525,0.104 -3.733,3.525 -8.048,2.841 -0.75,-2.638 -1.199,-3.306 0.947,-4.734 -4.12,-0.568 -5.741,3.618 -8.522,2.841 0.373,-1.951 -2.267,-0.89 -1.894,-2.841 4.973,-1.911 7.624,-1.341 13.256,-3.314 1.758,1.714 3.102,3.842 6.628,3.788 -1.413,3.456 1.063,3.382 1.895,5.681 0.581,8.715 -2.977,13.015 -3.314,21.778 -1.391,-1.134 -4.459,-0.591 -3.314,-4.261 -6.387,7.342 -6.002,21.457 -13.729,27.459 -0.057,3.609 2.644,6.714 1.894,9.468 -4.083,-1.341 -3.708,-2.393 -5.208,-6.154 -1.921,6.974 3.393,10.808 3.787,17.043 11.144,-2.428 11.174,-15.97 11.362,-29.353 3.545,-1.786 4.961,-0.814 5.682,3.314 2.385,-2.191 1.997,-7.155 6.154,-7.575 1.293,5.375 -2.416,9.478 -1.894,15.624 3.427,-10.032 14.64,-24.235 11.362,-38.821 -1.073,-4.777 -9.229,-9.204 -3.787,-13.729 4.869,3.495 5.895,10.833 11.835,13.256 4.482,5.165 2.919,13.62 5.682,20.357 1.128,2.751 5.039,4.53 5.681,7.102 1.112,4.458 -2.058,8.844 -1.42,13.256 0.667,4.614 5.693,6.42 2.367,10.889 0.414,2.426 3.86,1.821 4.261,4.261 -3.801,4.563 -8.862,-1.855 -12.782,-1.42 1.418,-3.697 6.124,-5.874 4.734,-10.889 -4.653,-0.545 -4.581,6.143 -8.522,4.734 -0.715,-1.739 2.944,-3.74 4.261,-6.628 1.625,-3.563 2.159,-8.066 1.421,-12.309 -1.716,1.534 -2.282,6.427 -4.734,5.681 -3.478,-3.537 1.563,-9.341 0.474,-15.623 -0.637,-3.669 -3.5,-6.341 -3.314,-9.942 -4.446,12.438 -7.106,26.665 -17.99,32.667 0.969,7.236 8.376,10.029 14.677,10.416 1.324,6.25 7.408,7.742 9.468,13.256 -1.161,7.781 2.363,17.41 -0.946,22.725 -6.281,-0.704 -4.836,-7.879 -5.682,-12.783 -1.544,-8.957 -5.281,-18.377 -11.362,-22.251 2.44,7.231 4.508,15.787 6.155,25.092 1.813,10.239 4.925,20.996 4.261,32.193 -0.79,13.317 3.401,30.542 0,40.241 -0.397,34.28 -2.572,71.691 -0.947,107.47 0.987,21.726 4.379,44.071 2.367,64.86 -0.279,2.887 -1.481,5.592 -1.894,8.521 -3.635,25.837 -3.104,53.911 -6.628,80.01 -2.372,17.566 -1.42,35.934 -1.42,52.077 0,3.894 -2.517,9.023 0.473,12.782 -1.979,8.497 0.577,21.314 -5.207,26.985 -1.975,-7.336 -2.224,-16.397 -5.208,-22.725 -5.743,10.269 -9.893,29.594 -4.734,43.556 5.307,-3.374 8.076,-13.385 13.729,-17.99 3.452,14.746 -5.738,23.955 -12.782,31.246 -0.725,1.801 -0.188,4.863 -2.367,5.208 -3.208,-4.833 -5.467,-11.187 -7.102,-17.518 -2.556,-9.896 -3.746,-20.063 -2.841,-31.246 0.622,-7.681 -0.549,-15.843 1.42,-23.198 1.216,-4.537 3.365,-8.574 3.788,-13.256 0.572,-6.344 1.27,-10.452 1.894,-16.569 1.243,-1.439 1.943,-3.423 3.313,-4.734 v -4.734 c 4.895,-6.381 3.126,-14.524 5.208,-22.251 0.759,-2.817 2.142,-5.11 2.841,-8.049 1.979,-8.319 3.851,-17.196 5.208,-26.038 0.917,-5.978 1.089,-12.262 2.367,-18.464 2.98,-14.475 3.44,-31.052 4.261,-49.71 0.629,-14.306 -0.272,-27.279 -1.421,-39.769 -1.963,-21.348 -1.357,-43.586 -2.367,-65.806 -0.688,-15.136 -1.288,-30.157 -2.367,-44.976 -0.675,-9.273 0.606,-18.474 0.947,-26.985 0.354,-8.847 -1.766,-17.224 -2.367,-26.039 -0.204,-2.991 0.409,-6.476 0,-9.469 -0.287,-2.099 -1.801,-3.985 -2.367,-6.628 -3.06,-14.279 4.581,-35.293 -7.575,-40.241 -2.223,12.138 -6.468,22.253 -9.941,33.14 -2.305,0.253 -2.216,-1.888 -3.788,-2.367 2.133,-7.335 4.999,-13.938 7.575,-20.831 -5.698,1.719 -9.297,8.967 -17.043,5.681 0.14,9.328 2.811,16.126 5.207,23.198 0.37,1.682 2.607,1.496 3.788,2.367 -1.558,6.153 -2.794,12.296 -4.734,18.464 -1.773,5.637 -5.249,10.907 -6.628,16.57 -1.037,4.256 -1.154,10.52 -1.894,16.57 -2.143,17.521 -3.266,41.956 -2.367,60.599 0.371,7.71 4.293,14.902 4.261,21.777 -2.097,-0.518 -2.354,0.803 -3.788,0.947 -2.959,-14.246 -8.094,-26.851 -9.468,-43.082 -0.466,-5.499 -3.124,-10.653 -3.788,-16.097 -4.372,-35.879 -16.774,-71.69 -18.463,-108.89 -0.234,-5.161 -0.693,-12.316 1.42,-15.623 -3.11,0.997 -5.589,6.718 -10.416,7.575 -6.935,9.616 -10.921,23.455 -8.048,40.241 -0.456,1.718 2.127,0.397 1.894,1.894 1.995,13.628 -1.113,29.958 -0.473,44.502 0.234,5.332 1.552,11.069 2.367,17.043 0.798,5.856 0.747,12.106 1.894,17.043 0.517,2.224 1.922,4.287 2.367,6.628 1.497,7.871 1.011,16.196 2.367,24.145 0.487,2.856 2.042,5.594 2.367,8.521 0.258,2.331 -0.261,4.56 0,7.102 0.917,8.951 5.028,17.932 6.154,26.038 2.541,18.284 -2.28,28.319 -9.942,39.295 -2.165,3.101 -4.521,5.795 -6.155,8.995 -1.563,3.064 -1.818,7.438 -5.681,8.995 2.125,-15.911 2.636,-31.198 0.474,-48.29 -1.857,-14.684 -1.619,-32.765 -2.367,-49.236 -0.688,-15.134 1.063,-26.816 0,-41.662 -0.69,-9.631 -2.945,-19.284 -2.84,-28.406 0.044,-3.884 1.181,-7.557 1.42,-11.362 0.58,-9.23 -1.788,-17.948 -1.894,-26.985 -4.104,3.313 -1.497,13.338 -5.208,17.043 -1.115,0.011 -1.394,-0.815 -2.841,-0.473 -0.308,-6.017 3.016,-12.033 0,-16.57 -2.744,2.937 -3.316,8.046 -5.208,11.836 -0.792,-0.628 -1.586,-1.254 -3.314,-0.947 1.21,-16.464 8.007,-27.342 13.256,-39.768 6.566,-9.846 13.912,-18.912 24.145,-25.092 -6.651,-4.283 -8.859,-1.364 -14.676,1.894 -1.452,0.813 -2.986,0.875 -3.788,1.42 -1.671,1.138 -2.874,3.663 -4.734,5.208 -0.789,0.655 -1.993,0.371 -2.84,0.947 -2.339,1.591 -3.894,4.95 -6.155,7.101 -5.889,5.605 -7.701,6.098 -11.362,14.203 -1.063,2.354 -2.885,4.486 -3.788,6.628 -2.647,6.282 -3.198,16.04 -4.734,23.198 -1.426,6.643 -1.551,18.298 -2.367,26.985 0.188,1.925 -2.015,1.457 -2.367,2.841 -4.872,29.688 -2.212,66.909 -4.734,98.946 -4.121,-0.055 -4.024,-5.72 -4.261,-8.521 -2.27,-26.875 -2.085,-60.365 0.947,-86.637 -0.758,-5.521 0.446,-14.967 1.42,-24.145 0.75,-7.07 1.104,-14.986 2.84,-19.884 2.126,-5.998 6.6,-10.437 6.628,-16.57 4.789,-6.416 8.799,-13.61 12.783,-20.831 -5.402,0.437 -7.885,3.792 -13.256,4.261 1.016,-8.295 8.922,-9.7 12.309,-15.623 -3.807,-2.19 -10.804,-1.19 -16.57,-1.42 5.15,-12.646 27.051,-4.973 36.454,-1.42 -2.067,-11.346 -7.647,-19.18 -11.362,-28.879 9.656,3.4 13.459,12.69 20.829,18.42 z m 20.36,11.83 c 1.864,0.128 3.29,-0.182 3.788,-1.42 -1.86,-0.13 -3.29,0.18 -3.79,1.42 z m 28.88,67.7 c -0.61,-0.652 -2.057,-0.469 -3.313,-0.474 -1.253,-9.952 0.306,-22.715 -2.841,-30.772 -0.559,6.552 -3.695,12.729 -2.367,19.411 0.359,1.808 2.162,3.341 2.367,5.208 0.285,2.593 -1.411,5.963 -1.42,9.469 -0.008,2.826 1.132,5.73 0.946,8.048 -0.24,3.004 -3.395,6.551 -0.946,9.469 2.887,-3.583 3.664,-9.276 4.733,-14.676 0.473,1.106 2.582,0.575 3.314,1.42 0.33,1.879 -0.825,5.244 0.947,5.681 1.204,-6.844 3.455,-12.641 3.313,-20.831 1.856,-0.827 3.071,-2.294 4.261,-3.787 0.355,-2.88 -0.779,-4.271 -0.946,-6.628 -2.251,-0.107 -2.595,-0.713 -3.788,-0.947 -1.919,-5.024 -0.256,-13.631 -4.261,-16.57 -0.02,11.8 3.55,24.92 0.01,35.98 z m -22.72,-4.26 c 2.539,-0.302 2.38,-3.301 2.367,-6.155 4.077,-4.287 3.951,-12.777 5.682,-19.411 -0.104,-0.369 -0.396,-0.55 -0.947,-0.473 -3.01,7.78 -8.11,15.79 -7.1,26.03 z m 6.62,20.83 c 0.256,-11.077 5.312,-19.446 3.314,-31.246 -0.605,-0.026 -0.656,-0.607 -1.421,-0.473 -1.12,9.55 -4.22,22.52 -1.89,31.72 z"
         id="path12"
         style="stroke-width:0.254152" />
      <path
         d="m 116.83,174.67 c -2.394,-3.76 -5.451,-6.858 -7.102,-11.362 -0.849,-2.119 -5.125,-1.872 -7.102,-4.734 -2.814,-4.077 -4.214,-13.769 -0.947,-15.15 6.6,8.86 14.74,16.18 15.15,31.24 z"
         id="path13"
         style="stroke-width:0.254152" />
      <path
         d="m 3.68,334.69 v -4.261 C 5.043,315.046 3.492,300.01 4.154,285.453 4.63,274.966 6.452,264.561 6.521,254.68 6.537,252.344 5.785,249.547 6.047,247.105 7.54,233.232 16.986,220.67 21.196,207.811 c 2.45,-7.481 4.104,-13.427 7.575,-19.884 3.313,-6.164 5.998,-12.689 8.521,-18.938 7.171,-8.768 15.168,-16.71 24.145,-23.671 1.026,0.709 1.103,2.369 2.84,2.367 -1.921,3.444 -5.204,5.527 -8.521,7.575 -0.104,5.415 -7.64,10.791 -7.102,15.624 0.093,0.833 0.354,1.121 1.42,0.947 -0.694,0.396 -2.687,2.16 0,1.894 -2.027,3.654 -3.42,7.942 -4.734,12.309 -0.086,1.815 0.388,0.172 1.42,0.474 -0.405,1.488 -1.79,1.998 -1.894,3.788 1.85,0.417 2.376,-4.559 5.208,-4.734 -1.168,6.406 -6.33,8.819 -7.102,15.623 2.584,1.778 2.272,-3.396 5.208,-2.841 -2.313,4.789 -5.871,8.333 -8.048,13.256 0.43,1.145 1.397,-1.073 2.84,-0.474 -0.626,3.792 -3.899,4.938 -3.787,9.469 -8.227,9.921 -11.688,24.608 -19.411,35.034 -2.65,12.354 -6.447,25.832 -7.102,40.241 -0.358,7.889 0.409,15.691 0,23.671 -0.354,6.9 -2.725,13.754 -3.314,20.831 -0.579,6.948 0.859,14.537 1.42,22.251 0.398,5.478 -0.663,11.252 0,16.097 0.248,1.816 1.498,3.325 1.894,5.208 1.941,9.229 -0.917,19.4 0,28.879 -1.36,-0.098 -2.405,0.12 -2.84,0.947 -1.783,-16.79 -1.564,-33.976 -3.788,-50.184 -0.258,-1.878 -1.273,-3.763 -1.42,-5.681 -0.6,-7.87 3.158,-16.19 -0.944,-23.21 z"
         id="path14"
         style="stroke-width:0.254152" />
      <path
         d="m 31.139,368.3 c -2.408,-0.727 -1.42,-5.615 -1.42,-9.469 0,-3.751 0.574,-8.179 0,-11.835 -0.379,-2.415 -2.008,-4.49 -2.367,-7.102 -0.576,-4.186 -0.236,-9.688 0,-14.676 0.218,-4.617 -0.137,-9.243 0,-13.729 0.162,-5.29 1.647,-10.666 1.894,-16.096 0.267,-5.876 0.108,-11.805 0.474,-17.517 0.72,-11.244 4.286,-20.764 6.155,-29.826 0.532,-2.583 0.102,-5.271 0.947,-7.575 1.131,-3.083 4.516,-5.319 6.628,-8.521 2.291,-3.474 3.102,-7.108 4.734,-8.995 2.05,-2.37 5.517,-3.482 8.048,-5.208 1.749,7.226 -2.786,10.397 -6.155,15.15 -4.227,5.963 -6.782,9.674 -8.048,19.411 -1.651,1.791 1.776,1.372 0.947,3.787 -3.361,7.059 -4.379,16.529 -3.787,28.406 0.481,9.67 4.206,19.684 3.787,27.459 -0.234,4.353 -2.366,9.029 -3.314,13.729 -2.383,11.818 -2.803,24.627 -5.208,37.401 -0.316,1.69 0.247,5.98 -3.315,5.22 z"
         id="path15"
         style="stroke-width:0.254152" />
      <path
         d="m 223.35,249.94 c 0.402,-0.087 0.446,0.185 0.474,0.473 0.23,17.1 1.446,34.098 -0.474,50.184 -0.579,4.854 -2.32,9.995 -2.367,14.676 -0.053,5.295 2.226,10.559 2.841,16.097 0.984,8.867 -0.79,19.504 -0.947,29.826 -0.23,15.131 -0.88,29.608 -0.946,42.608 2.117,-2.396 1.295,-6.486 1.894,-10.415 0.704,-4.627 4.513,-9.393 0.946,-13.256 1.216,-17.211 5.682,-36.386 5.682,-55.865 0,-14.817 -0.947,-29.995 -0.947,-44.976 0,-4.51 -1.598,-10.952 2.367,-12.783 3.426,8.905 3.164,18.672 3.787,28.406 0.602,9.384 2.479,19.845 1.421,30.299 -0.441,4.36 -2.279,8.603 -2.841,13.256 -0.569,4.722 -1.015,9.715 -1.42,14.677 -1.563,19.129 -6.939,40.568 -8.995,59.651 -0.92,8.538 0.473,18.482 0.474,27.933 0,27.745 -0.87,56.777 -0.947,83.797 -0.045,15.483 0.474,31.097 0.474,49.236 0,10.883 -0.55,22.087 0.474,32.193 1.001,9.892 2.083,20.602 3.313,30.772 1.337,11.048 3.518,22.332 2.367,31.247 -0.453,3.508 -2.654,6.911 -2.841,10.415 -0.268,5.034 1.957,9.785 1.894,14.676 3.783,2.057 10.574,1.104 11.836,5.682 -0.336,2.473 -3.384,1.516 -4.734,1.894 -4.046,1.133 -9.802,3.099 -13.729,5.682 -1.614,1.062 -3.384,3.479 -5.681,5.207 -2.377,1.79 -5.069,2.646 -6.154,4.734 -1.131,2.176 -0.253,4.393 -0.947,6.628 -0.744,2.396 -2.878,4.84 -3.787,7.102 -1.021,2.538 -0.922,5.561 -3.788,6.628 -1.8,-1.799 -4.645,-1.794 -1.894,-4.734 -6.401,4.174 -15.517,2.892 -15.623,-4.261 -0.097,-6.491 8.333,-9.502 13.729,-11.836 3.463,-3.874 3.816,-9.061 5.681,-13.729 3.636,-9.101 10.741,-16.011 16.57,-22.725 0.324,-4.898 3.856,-7.227 4.261,-11.362 0.271,-2.762 -1.139,-5.846 -1.42,-8.995 -0.739,-8.283 -0.191,-18.074 -1.42,-26.039 -0.465,-3.009 -2.094,-5.878 -2.367,-10.415 -0.39,-6.457 -0.289,-14.116 -0.947,-21.305 -0.949,-10.362 -0.852,-17.848 -0.474,-26.038 0.953,-20.647 -0.474,-44.682 -0.474,-67.7 0,-13.049 3.411,-26.205 2.367,-38.349 -3.694,-42.979 -2.238,-94.851 -2.367,-139.66 -0.023,-8.192 -0.285,-16.368 0,-24.618 0.288,-8.327 -1.536,-16.37 -0.946,-24.145 0.756,-9.965 4.509,-19.599 4.261,-29.353 1.12,-0.16 2.05,-0.49 2.38,-1.43 z"
         id="path16"
         style="stroke-width:0.254152" />
      <path
         d="m 182.16,261.31 h 1.42 c 0.344,17.124 3.385,32.946 4.734,49.236 0.893,10.763 -0.652,21.532 -0.473,32.667 0.17,10.554 1.494,21.191 2.367,31.72 0.928,11.193 -0.091,22.151 0.473,32.667 0.14,2.598 1.283,5.008 1.421,7.574 0.367,6.85 -1.81,13.053 -1.894,21.778 -0.026,2.663 2.096,25.341 -1.421,25.092 -3.186,-0.227 -2.367,-5.533 -2.367,-9.469 0,-11.238 0.474,-24.211 0.474,-34.087 0,-38.228 -4.453,-70.423 -8.521,-105.1 -5.888,6.421 -3.477,21.142 -5.682,31.246 -4.121,-7.313 -3.399,-19.309 -2.84,-29.826 0.536,-10.089 2.578,-20.439 3.787,-28.406 2.132,-3.01 2.737,-8.562 4.734,-13.729 1.56,-4.02 3.27,-6.99 3.79,-11.36 z"
         id="path17"
         style="stroke-width:0.254152" />
      <path
         d="m 161.33,409.96 c 2.707,4.236 4.107,9.78 4.734,16.097 -1.709,-0.954 -2.291,0.047 -3.787,0.473 -2.818,-3.652 -2.886,-10.055 -3.787,-15.623 1.27,-0.01 2.8,0.26 2.85,-0.95 z"
         id="path18"
         style="stroke-width:0.254152" />
      <path
         d="m 160.38,431.27 c 8.316,14.272 -5.226,26.3 -10.416,35.98 -5.904,4.037 -10.599,9.286 -13.729,16.097 -0.132,1.446 -2.116,1.04 -2.367,2.367 -0.559,3.07 3.376,3.686 2.367,5.682 -0.83,1.157 -2.855,1.118 -4.26,0.473 -1.247,-9.8 -1.268,-20.825 -2.367,-30.772 -1.581,0.104 -2.858,-1.101 -4.261,-2.367 0.471,-1.896 2.254,-2.48 1.894,-5.208 9.59,-8.89 13.56,-23.39 33.15,-22.25 z"
         id="path19"
         style="stroke-width:0.254152" />
      <path
         d="m 66.646,436.48 c 0.403,-0.087 0.447,0.185 0.474,0.474 0.383,0.09 0.472,0.475 0.947,0.474 3.489,11.943 1.257,31.514 0.474,48.763 -1.11,24.434 -0.302,47.462 -2.367,70.067 8.676,-6.039 19.11,-11.363 24.145,-21.777 3.281,-6.787 2.857,-18.064 7.102,-23.198 4.593,0.359 2.841,7.172 2.841,11.362 0,10.409 -0.221,21.296 -0.947,31.246 1.779,1.28 3.485,-4.065 5.208,-2.841 4.157,4.448 2.045,11.983 1.42,18.464 -0.921,9.555 -2.103,18.666 -1.894,27.933 -1.448,0.343 -1.393,-0.817 -2.84,-0.474 -2.249,-8.265 -0.459,-20.645 0,-29.353 -3.08,2.03 -4.86,6.488 -7.575,10.415 -2.234,3.231 -5.933,7.118 -7.101,11.362 -1.144,4.152 0.26,9.902 -0.474,15.15 -0.486,3.481 -2.606,7.5 -0.947,12.782 -2.206,1.837 -3.774,1.403 -5.681,3.314 -3.037,-3.293 -0.004,-8.849 0.474,-14.203 0.356,-3.991 -0.443,-8.31 0.473,-11.836 0.565,-2.177 2.438,-4.09 2.841,-6.154 2.327,-11.939 -1.633,-25.853 0.947,-38.821 -3.335,-0.879 -4.95,3.821 -7.575,5.208 -1.297,11.514 -0.588,24.396 -0.474,35.033 -5.544,-0.496 -4.476,-5.939 -5.681,-9.469 -2.792,-8.174 -8.293,-12.255 -8.521,-20.357 -0.126,-4.47 1.722,-9.229 1.42,-14.676 -0.221,-3.99 0.08,-7.942 0,-13.256 -0.459,-30.46 0.41,-65.52 3.31,-95.6 z"
         id="path20"
         style="stroke-width:0.254152" />
      <path
         d="m 123.93,466.78 c -2.355,17.371 -3.247,36.205 -6.628,52.55 -1.024,-0.396 -1.615,-1.226 -3.314,-0.946 0.624,-12.002 0.27,-24.98 0.947,-36.928 -1.974,2.178 -2.726,7.19 -7.102,4.261 3.273,-7.931 8.795,-13.614 12.783,-20.831 1.47,0.26 2.03,1.44 3.31,1.9 z"
         id="path21"
         style="stroke-width:0.254152" />
      <path
         d="m 89.844,465.35 c 0.402,-0.087 0.446,0.185 0.473,0.474 -0.087,0.402 0.185,0.446 0.474,0.474 -0.458,11.463 0.796,24.66 -0.474,35.507 -0.185,1.582 0.315,4.902 -1.894,5.208 -3.388,-0.073 -1.754,-6.303 -1.894,-9.469 -0.434,-9.864 -1.004,-22.826 0.947,-31.246 1.177,0.08 1.966,-0.23 2.368,-0.94 z"
         id="path22"
         style="stroke-width:0.254152" />
      <path
         d="m 189.74,471.51 c 1.312,8.164 -0.018,17.608 -1.421,24.619 0.412,2.502 -1.156,0.066 -1.42,1.894 -2.964,18.406 -1.797,38.498 -8.521,53.497 0.982,3.789 -0.945,6.738 -1.421,10.415 -2.197,-1.442 -0.643,1.696 -2.84,1.421 1.431,-31.086 9.194,-59.857 12.309,-91.846 1.96,-0.13 1.84,0.62 3.31,0 z"
         id="path23"
         style="stroke-width:0.254152" />
      <path
         d="m 149.02,472.93 c 3.429,6.884 0.023,14.428 0,21.777 -0.067,20.349 0.794,42.115 0,63.439 -0.558,14.959 -0.912,30.591 0,45.449 -0.696,1.801 2.116,0.093 1.42,1.894 1.293,19.98 2.71,39.209 6.154,56.338 0.391,1.94 1.66,3.761 1.895,5.682 0.19,1.564 -0.536,3.065 -0.474,4.734 0.207,5.561 3.637,14.517 6.628,21.777 2.856,6.934 5.064,14.801 7.574,20.357 1.311,2.899 3.677,5.008 4.734,7.575 0.554,1.343 0.411,3.019 0.947,4.261 1.598,3.701 5.647,6.157 6.154,9.941 3.355,3.115 7.427,5.514 10.416,8.995 -2.262,1.544 -1.421,1.82 -0.474,4.262 -2.157,1.272 -4.425,-0.194 -7.102,0 -2.507,0.181 -4.881,1.931 -7.575,2.367 -9.912,1.605 -21.752,-0.91 -29.825,1.42 0.372,-1.635 -0.443,-2.083 -1.421,-2.367 9.478,-3.621 23.112,-3.084 33.141,-6.154 0.237,-6.393 -3.781,-8.528 -4.734,-13.729 -7.886,0.637 -14.276,2.767 -22.725,2.841 0.274,-9.427 7.314,-15.985 11.362,-23.198 -1.715,-4.124 -1.791,-9.887 -4.734,-12.783 -2.54,2.706 -4.99,14.032 -9.469,11.836 -2.021,-0.188 -0.451,-3.967 -0.947,-5.681 4.339,-1.051 5.607,-8.78 8.522,-12.783 -3.125,-5.712 -1.543,-16.132 -8.522,-17.99 -0.71,-13.177 -0.784,-26.989 -4.261,-37.4 -2.358,7.702 -0.885,19.212 -1.42,28.879 -0.496,8.952 -2.81,18.109 -3.314,26.985 -0.495,8.712 3.052,30.134 -6.628,29.353 -7.261,-0.586 -5.882,-15.967 -5.208,-24.145 1.963,0.542 1.845,-0.996 3.314,-0.947 1.049,2.896 0.927,6.964 1.894,9.942 2.637,-5.203 3.657,-14.326 2.841,-21.305 -0.186,-1.588 -1.374,-2.805 -1.42,-4.261 -0.154,-4.862 1.636,-10.895 1.894,-16.57 0.451,-9.936 0.021,-18.129 0.474,-28.405 0.245,-5.579 1.711,-11.066 1.894,-16.57 0.811,-24.423 -0.16,-48.802 0,-72.435 -1.855,-0.916 -1.249,5.783 -4.734,3.314 -0.85,-6.314 0.171,-19.492 0.474,-28.406 -12.395,7.353 -8.868,27.421 -10.416,47.816 -1.468,19.357 -2.842,40.451 -1.894,62.02 0.542,12.316 4.597,23.702 3.788,36.928 -0.275,4.49 -1.667,8.884 -1.894,13.256 -0.582,11.226 2.249,21.213 -3.787,28.405 0.351,11.416 -8.393,19.858 -8.048,31.246 2.773,2.277 7.879,2.221 10.416,4.734 -7.451,6.192 -18.076,-1.56 -27.933,-0.946 -4.197,0.261 -8.083,2.992 -11.835,0.473 -1.563,-3.481 4.77,-4.341 6.628,-4.261 1.099,-0.985 -0.531,-1.996 0.947,-2.84 2.105,-0.212 3.451,0.336 4.734,0.946 4.38,-3.352 6.15,-9.315 9.942,-13.256 -0.065,-7.049 5.121,-11.876 6.628,-18.464 2.057,-8.992 0.691,-20.587 1.42,-30.772 0.186,-2.587 1.121,-4.928 1.42,-7.575 2.805,-24.803 -1.526,-53.411 0.473,-80.956 1.027,-14.146 1.038,-31.921 0.947,-46.869 -0.634,-0.802 -2.404,-1.171 -4.261,-1.894 2.37,-3.87 4.422,-8.1 8.522,-11.362 1.009,-0.804 2.75,-0.991 3.787,-1.895 1.335,-1.161 2.102,-3.56 3.788,-5.207 3.653,-3.571 6.75,-5.89 10.416,-10.416 1.828,-2.257 4.676,-5.063 5.208,-6.628 2.302,-6.771 0.013,-22.022 -1.421,-26.512 1.87,-1.23 2.74,-5.65 5.68,-4.26 z"
         id="path24"
         style="stroke-width:0.254152" />
      <path
         d="m 160.86,524.06 c 4.733,14.592 -0.262,29.932 0.473,44.503 0.153,3.041 1.358,6.055 1.421,8.995 0.098,4.676 -1.581,9.147 -1.421,13.729 0.176,5.003 0.533,11.753 1.894,16.57 1.015,3.59 6.624,7.587 7.575,11.362 1.397,5.546 -2.528,9.957 -3.313,15.149 -0.634,4.187 1.718,8.156 -2.367,9.942 -1.852,-3.326 -1.261,-6.917 -2.367,-10.415 -0.676,-2.137 -2.205,-3.552 -2.841,-5.682 -1.545,-5.172 -1.518,-12.675 -2.367,-19.41 -0.866,-6.868 -1.828,-14.188 -1.42,-19.884 0.298,-4.166 1.932,-8.222 1.894,-12.31 -0.022,-2.401 -1.292,-4.758 -1.421,-7.102 -0.149,-2.734 0.811,-5.515 0.947,-8.521 0.549,-12.09 -1.814,-25.136 0.474,-35.98 0.25,-0.381 0.493,-0.769 0.474,-1.421 1.15,-0.21 1.04,0.85 2.38,0.46 z"
         id="path25"
         style="stroke-width:0.254152" />
      <path
         d="m 17.883,534.95 c 0.894,1.804 0.21,4.108 -0.473,5.682 -1.024,-0.396 -1.615,-1.226 -3.314,-0.947 v -4.261 c 1.682,0.93 1.72,-0.62 3.787,-0.47 z"
         id="path26"
         style="stroke-width:0.254152" />
      <path
         d="m 17.41,595.55 c -1.255,0.007 -2.788,-0.263 -2.841,0.946 -4.6,-10.423 0.795,-23.911 -0.473,-36.927 1.637,0.374 1.999,-0.526 2.84,-0.947 2.915,6.58 0.195,26.54 0.474,36.93 z"
         id="path27"
         style="stroke-width:0.254152" />
      <path
         d="m 209.62,568.09 c 7.907,1.353 3.646,22.498 6.628,26.038 -0.746,12.287 0.789,25.557 0.947,39.295 0.062,5.414 0.96,8.758 0.473,14.203 -0.803,8.976 1.074,15.862 -1.42,22.251 -2.695,6.904 -5.413,16.835 -12.31,19.41 2.049,-15.835 -1.713,-30.924 0.947,-46.396 0.354,-2.061 1.556,-4.146 1.894,-6.155 3.626,-21.543 1.223,-43.233 2.841,-67.227 v -1.4 z"
         id="path28"
         style="stroke-width:0.254152" />
      <path
         d="m 13.622,611.17 c 1.091,0.486 1.527,1.629 3.314,1.42 -1.158,15.412 0.604,33.744 -2.84,46.869 -1.091,-0.486 -1.527,-1.629 -3.314,-1.42 2.119,-13.6 0.704,-32.22 2.84,-46.87 z"
         id="path29"
         style="stroke-width:0.254152" />
      <path
         d="m 63.332,611.17 c 1.831,0.063 1.868,1.92 3.314,2.367 -2.356,3.956 -4.693,7.932 -8.048,10.889 -0.766,-0.97 -1.277,-2.194 -2.84,-2.367 1.525,-4.63 5.32,-6.99 7.574,-10.89 z"
         id="path30"
         style="stroke-width:0.254152" />
      <path
         d="m 70.907,629.16 c -0.051,16.856 4.298,35.333 0.473,50.184 -1.023,-0.397 -1.615,-1.227 -3.314,-0.947 0.725,-15.676 -1.451,-36.382 -2.367,-49.236 2.05,-1.48 2.966,-1.29 5.208,0.01 z"
         id="path31"
         style="stroke-width:0.254152" />
      <path
         d="m 61.438,635.79 c -2.616,30.151 -4.646,63.465 -5.208,94.212 -5.034,0.963 -7.743,4.251 -13.256,4.734 9.486,-25.863 11.713,-58.985 11.836,-94.212 1.917,-2.299 -0.006,-3.19 1.42,-5.208 0.7,-0.246 1.193,-0.7 1.894,-0.947 1.138,0.45 1.254,1.91 3.314,1.43 z"
         id="path32"
         style="stroke-width:0.254152" />
      <path
         d="m 45.342,642.42 c 0.769,6.668 -0.771,13.944 -1.42,21.777 -0.986,11.906 -1.805,24.559 -2.367,36.928 -0.403,8.875 -0.285,17.461 -1.894,25.092 -2.652,12.577 -15.457,16.38 -22.251,24.145 h -4.734 c -0.531,2.468 -2.438,3.559 -3.314,5.682 -6.504,-3.194 0.828,-9.955 6.628,-9.469 3.747,-12.905 -0.15,-31.574 -4.261,-42.608 0.308,-1.586 1.813,-1.976 2.367,-3.314 2.193,-26.687 17.516,-40.241 27.459,-59.179 1.433,0.15 1.691,1.46 3.787,0.95 z M 24.511,678.4 c -0.404,1.992 0.199,4.833 0,7.575 -0.278,3.817 -1.605,7.9 -1.42,10.889 0.033,0.529 1.341,1.874 1.42,2.367 0.499,3.11 -1.034,7.793 -1.42,11.836 -0.88,9.213 -1.046,18.314 -0.947,27.932 3.047,-1.056 5.282,-2.923 6.628,-5.681 -4.35,-17.069 6.006,-31.908 2.84,-47.816 1.969,-5.565 1.903,-18.021 1.42,-22.725 -1.198,5.87 -7.367,9.92 -8.521,15.62 z"
         id="path33"
         style="stroke-width:0.254152" />
      <path
         d="m 104.05,696.39 c 2.437,15.442 -8.426,25.612 -12.782,37.401 -12.609,6.485 -25.316,12.873 -41.188,16.096 0.098,-1.36 -0.12,-2.404 -0.947,-2.84 4.232,-5.182 11.279,-4.933 17.043,-7.102 2.281,-0.858 5.323,-3.12 8.048,-4.734 6.694,-3.966 7.775,-7.174 12.782,-13.256 1.896,-2.303 4.54,-4.944 5.681,-7.102 0.394,-0.744 -0.321,-2.057 0,-2.841 0.813,-1.985 3.208,-4.129 4.261,-6.628 1.486,-3.527 1.767,-6.647 4.261,-8.995 0.94,-0.01 1.89,-0.01 2.84,-0.01 z"
         id="path34"
         style="stroke-width:0.254152" />
      <path
         d="m 247.97,700.17 c 0.551,-0.076 0.843,0.104 0.947,0.474 2.905,0.408 1.711,4.917 2.84,7.102 3.551,3.561 10.958,2.934 12.31,8.995 0.685,3.071 -1.643,7.358 -1.894,10.889 -0.475,6.649 1.302,14.191 -3.314,17.044 0.104,3.194 0.452,3.841 -0.474,6.154 -4.618,0.353 -9.226,-1.813 -13.256,-0.474 -1.065,-0.196 0.071,-2.596 -1.42,-2.367 6.037,-4.221 15.03,-5.484 14.203,-16.569 -7.681,0.525 -11.579,4.833 -15.623,8.995 -7.896,2.519 -11.412,9.418 -20.357,10.889 -0.874,-2.569 2.393,-3.42 3.787,-4.734 9.038,-8.521 17.734,-19.324 33.14,-22.251 1.842,-8.012 -3.153,-9.892 -7.102,-13.256 -2.462,12.688 -12.468,17.83 -21.304,24.145 -0.316,-8.05 5.396,-10.069 10.415,-12.782 1.782,-5.074 6.581,-8.784 6.628,-14.677 0.01,-2.65 -1.53,-5.18 0.46,-7.57 z m 2.84,46.87 h 2.84 c 0.26,-1.9 -2.75,-0.7 -2.84,0 z"
         id="path35"
         style="stroke-width:0.254152" />
      <path
         d="m 79.429,702.07 c 0.788,3.157 0.199,7.691 1.42,10.415 2.687,-0.317 3.837,-6.259 5.681,-8.995 1.433,0.145 1.691,1.465 3.787,0.946 0.346,3.86 -3.197,7.097 -5.681,11.362 -2.059,3.536 -4.331,10.417 -9.468,8.522 0.573,-6.687 0.516,-14.003 0.473,-21.305 2.157,0.59 1.858,-1.28 3.788,-0.93 z"
         id="path36"
         style="stroke-width:0.254152" />
      <path
         d="m 64.279,707.75 c 0.737,0.683 0.935,1.906 2.841,1.42 -0.305,7.744 0.616,16.713 -0.474,23.672 -0.086,1.033 0.388,1.506 1.42,1.42 -1.265,1.733 -2.674,3.323 -5.681,3.314 -0.802,-0.935 0.014,-3.486 -2.367,-2.841 0.875,-2.597 1.015,-5.929 3.314,-7.102 -0.822,-5.97 -0.978,-15.11 0.947,-19.88 z"
         id="path37"
         style="stroke-width:0.254152" />
      <path
         d="m 238.5,713.43 c -0.845,4.521 -2.605,8.125 -5.208,10.889 -6.442,3.972 -13.148,7.682 -16.096,15.149 -1.403,1.911 -3.13,3.498 -4.262,5.681 -0.807,-1.086 -1.754,-2.033 -2.84,-2.84 2.604,-5.603 4.206,-12.206 7.102,-17.518 5.837,-3.946 10.379,-9.188 15.149,-14.202 3.07,-0.06 5.06,0.94 6.16,2.84 z"
         id="path38"
         style="stroke-width:0.254152" />
      <path
         d="m 123.93,718.16 c 0.38,0.251 0.769,0.494 1.42,0.474 2.009,9.985 6.542,17.444 12.31,23.672 3.329,-0.616 4.679,-3.211 6.154,-5.682 1.529,1.235 4.687,0.884 3.314,3.788 7.063,-0.411 16.913,-4.14 22.725,0 -5.145,3.818 -11.832,2.556 -18.464,3.313 -8.457,0.967 -14.738,6.874 -20.831,9.469 -0.21,0.895 0.644,2.854 -0.947,2.367 -5.319,-3.152 1.479,-5.032 2.84,-8.049 -1.221,-4.934 -6.267,-6.042 -8.995,-9.468 0.1,-6.26 -1.63,-14.58 0.49,-19.88 z"
         id="path39"
         style="stroke-width:0.254152" />
      <path
         d="m 149.5,721.95 c 0.792,0.628 1.586,1.254 3.313,0.946 1.256,3.036 -1.293,5.394 -1.894,8.049 -1.023,-0.396 -1.615,-1.226 -3.314,-0.947 0.17,-3.13 0.63,-5.99 1.89,-8.05 z"
         id="path40"
         style="stroke-width:0.254152" />
      <path
         d="m 53.39,736.63 c -0.75,0.708 -0.349,1.937 0.474,2.367 -3.683,3.261 -8.509,5.378 -10.889,9.942 1.63,2.731 -1.485,5.514 1.42,7.574 -1.746,1.096 -5.516,0.165 -8.048,0.474 1.507,-1.563 -0.708,-2.074 -1.42,-2.84 0.481,-2.833 3.776,-2.853 5.208,-4.734 -3.998,-3.455 -10.594,0.483 -15.623,0.473 0.231,-1.494 -0.854,-1.672 -0.474,-3.313 9.528,-3.57 16.528,-9.67 29.352,-9.94 z"
         id="path41"
         style="stroke-width:0.254152" />
      <path
         d="m 221.46,743.73 c 0.231,3.073 -2.422,3.26 -3.314,5.208 1.332,2.571 0.706,4.932 0,7.574 -2.695,-1.426 -5.266,0.927 -8.521,0.474 -0.007,-1.255 0.263,-2.787 -0.947,-2.84 4.83,-2.58 7.94,-9.4 12.78,-10.41 z"
         id="path42"
         style="stroke-width:0.254152" />
      <path
         d="m 268.8,752.25 v 2.367 c -0.754,1.771 -1.85,3.201 -4.261,3.314 0.485,-1.906 -0.737,-2.104 -1.421,-2.841 -0.024,-2.707 2.418,-2.947 2.841,-5.208 1.82,-0.08 2.14,1.33 2.84,2.37 z"
         id="path43"
         style="stroke-width:0.254152" />
      <path
         d="m 118.25,754.15 c 0.352,1.93 -1.526,1.63 -0.947,3.787 -6.889,0.576 -11.495,-1.13 -17.991,-0.947 0.518,-2.096 -0.802,-2.354 -0.947,-3.787 7.108,-0.65 13.498,-0.21 19.888,0.95 z"
         id="path44"
         style="stroke-width:0.254152" />
      <path
         d="m 68.066,753.2 c -0.098,1.36 0.12,2.405 0.947,2.841 -3.323,1.772 -9.528,1.953 -13.729,1.42 0.098,-1.36 -0.12,-2.405 -0.947,-2.841 3.128,-1.92 8.821,-1.28 13.729,-1.42 z"
         id="path45"
         style="stroke-width:0.254152" />
      <path
         d="m 89.844,33.587 h 0.947 c -0.121,1.823 3.144,1.827 1.894,3.314 -0.926,-1.125 -2.57,-1.533 -2.841,-3.314 z"
         id="path46"
         style="stroke-width:0.254152" />
      <path
         d="m 144.29,10.39 h 13.257 c 33.354,3.218 57.019,19.102 70.067,42.608 1.641,2.957 5.18,6.906 3.313,10.889 -4.536,-3.063 -5.399,-8.618 -8.048,-12.783 -17.9,-28.138 -61.14,-47.981 -104.16,-31.246 -18.579,7.228 -36.208,22.137 -43.556,40.715 -7.773,19.653 -6.325,50.542 9.469,64.859 1.758,-1.24 3.152,-2.844 3.787,-5.208 -0.893,-3.717 -4.049,-5.747 -5.681,-8.522 -14.043,-23.88 0.079,-57.831 14.679,-72.431 29.228,-29.228 88.223,-23.284 113.15,6.628 8.399,10.079 14.098,22.943 15.149,37.4 2.01,27.603 -12.418,45.51 -28.405,57.285 -3.48,2.563 -7.383,6.354 -12.782,6.154 20.642,-13.767 41.792,-27.621 39.294,-62.492 -2.744,-38.318 -37.632,-64.734 -78.115,-62.493 -18.619,1.031 -35.774,7.841 -46.87,18.937 -15.788,15.788 -30.619,56.819 -8.995,76.695 3.076,-2 3.127,-9.311 8.048,-6.628 2.408,1.313 2.895,7.852 0,10.416 -3.827,-0.062 -0.341,-4.918 -1.42,-8.048 -3.722,3.259 -4.504,8.63 -7.575,12.309 -1.731,2.075 -4.602,3.375 -6.628,5.681 -5.914,6.733 -12.566,12.965 -20.357,17.043 0.415,-4.721 5.995,-7.047 9.468,-9.942 3.956,-3.296 7.155,-7.03 10.416,-10.416 C 72.033,115.31 65.681,99.579 67.119,79.51 69.95,39.828 106.538,13.937 144.278,10.4 Z"
         id="path47"
         style="stroke-width:0.254152" />
      <path
         d="m 196.36,60.573 c -2.868,0.374 -3.825,-3.207 -5.207,-4.734 -6.398,-7.074 -19.738,-16.34 -32.667,-17.043 -22.351,-1.216 -43.453,15.141 -52.077,29.826 -3.72,6.335 -5.138,13.028 -7.575,20.357 -1.193,-14.289 7.791,-27.64 17.99,-36.454 9.333,-8.065 29.088,-19.49 46.87,-15.15 13.33,3.251 27.59,11.928 32.67,23.198 z"
         id="path48"
         style="stroke-width:0.254152" />
      <path
         d="m 126.77,51.578 c -3.727,4.005 -6.156,9.309 -8.048,15.149 -1.92,-5.595 3.36,-14.583 8.05,-15.149 z"
         id="path49"
         style="stroke-width:0.254152" />
      <path
         d="m 196.36,62.467 h 0.947 c 16.685,22.779 -7.826,48.842 -13.729,67.7 -3.598,-3.255 0.073,-8.74 1.42,-11.835 5.236,-12.036 16.715,-23.487 15.15,-41.188 -0.433,-4.895 -2.37,-8.229 -4.261,-13.256 -0.13,-0.773 0.45,-0.824 0.47,-1.429 z"
         id="path50"
         style="stroke-width:0.254152" />
      <path
         d="m 231.4,67.201 h 0.947 c 2.781,2.399 5.94,9.031 3.787,13.256 -2.96,-2.765 -5.06,-8.791 -4.74,-13.256 z"
         id="path51"
         style="stroke-width:0.254152" />
      <path
         d="m 109.73,72.409 c 0.765,-0.133 0.815,0.447 1.42,0.474 -1.475,8.151 -4.141,15.112 -5.681,23.198 -2.79,-8.329 2.94,-16.293 4.26,-23.672 z"
         id="path52"
         style="stroke-width:0.254152" />
      <path
         d="m 167.96,89.926 c -4.842,-1.193 -6.987,-5.681 -12.31,-6.628 -2.205,-0.392 -4.392,0.662 -7.101,-0.473 -0.201,-0.99 0.324,-1.253 0.473,-1.894 8.74,-1.305 17.02,1.898 18.94,8.995 z"
         id="path53"
         style="stroke-width:0.254152" />
      <path
         d="m 158.49,97.027 c -4.387,-0.663 -8.232,-1.867 -9.469,-5.681 2.173,-5.668 12.866,-2.379 12.31,2.367 -0.21,1.772 -1.96,1.412 -2.84,3.314 z m -6.15,-5.208 c 1.573,1.583 4.191,2.121 6.628,2.84 -0.13,-3.035 -4.58,-4.604 -6.63,-2.84 z"
         id="path54"
         style="stroke-width:0.254152" />
      <path
         d="m 178.85,94.66 c 4.762,0.131 9.542,0.242 10.416,4.261 -3.002,0.545 -6.498,-2.275 -10.416,-2.367 z"
         id="path55"
         style="stroke-width:0.254152" />
      <path
         d="m 185.48,105.55 c -4.434,-2.756 -7.798,-6.368 -12.309,-3.314 -4.677,3.166 -3.04,11.104 -6.628,15.623 -1.843,0.759 -5.237,0.615 -6.155,-0.947 0.055,-2.634 2.534,-0.692 4.261,-0.947 3.194,-3.95 1.941,-11.499 6.155,-15.15 4.25,-3.678 14.22,-2.652 14.68,4.74 z"
         id="path56"
         style="stroke-width:0.254152" />
      <path
         d="m 234.71,99.394 c -1.795,19.486 -12.839,35.231 -25.564,45.923 -4.207,3.534 -9.146,7.736 -14.677,8.521 -0.4,-3.612 3.739,-4.342 5.682,-5.681 15.113,-10.42 27.142,-25.91 32.193,-47.343 -0.261,-1.05 0.903,-0.674 0.946,-1.42 0.48,-0.006 0.95,-0.006 1.42,-0.006 z"
         id="path57"
         style="stroke-width:0.254152" />
      <path
         d="m 146.66,119.75 h 1.421 c 0.076,2.516 1.021,5.967 5.681,5.208 -2.1,5.08 -9.49,-1.23 -7.1,-5.21 z"
         id="path58"
         style="stroke-width:0.254152" />
      <path
         d="m 104.99,120.7 c 0.357,2.25 -1.193,2.594 -1.894,3.787 -1.324,2.937 -0.002,8.519 -4.261,8.522 -0.221,-4.24 0.761,-13.69 6.151,-12.31 z"
         id="path59"
         style="stroke-width:0.254152" />
      <path
         d="m 172.22,122.12 c -1.878,3.927 -7.522,8.515 -11.362,9.469 2.3,-4.64 6.27,-7.62 11.36,-9.47 z"
         id="path60"
         style="stroke-width:0.254152" />
      <path
         d="m 94.578,124.96 h 1.42 c 0.223,2.984 -0.534,8.877 -2.841,10.889 -2.162,-2.57 1.24,-7.53 1.421,-10.89 z"
         id="path61"
         style="stroke-width:0.254152" />
      <path
         d="m 112.1,132.06 c 0.765,-0.134 0.815,0.447 1.42,0.473 -1.491,4.155 0.778,11.961 -0.947,14.676 -2.73,-3.05 -2.11,-11.57 -0.47,-15.15 z"
         id="path62"
         style="stroke-width:0.254152" />
      <path
         d="m 158.96,133.96 c -4.271,8.591 -20.598,5.522 -26.512,0.473 -0.133,-0.765 0.448,-0.815 0.474,-1.42 3.764,0.698 9.429,3.478 14.676,4.261 3.94,-0.69 7.67,-3.95 11.36,-3.31 z"
         id="path63"
         style="stroke-width:0.254152" />
      <path
         d="m 99.786,135.85 c 0.791,3.326 2.55,7.628 2.367,10.416 -5.008,1.29 -6.327,-10.19 -2.364,-10.42 z"
         id="path64"
         style="stroke-width:0.254152" />
      <path
         d="m 145.71,142.48 c 0.482,3.859 -2.452,8.233 -4.261,11.362 -2.75,-2.58 0.95,-10.18 4.26,-11.36 z"
         id="path65"
         style="stroke-width:0.254152" />
      <path
         d="m 179.32,142.95 c -0.153,3.437 -1.164,8.177 -1.894,12.782 -0.684,4.314 -0.546,9.519 -3.314,11.836 -0.582,-8.178 1.362,-17.876 3.788,-24.618 h 1.41 z"
         id="path66"
         style="stroke-width:0.254152" />
      <path
         d="m 160.38,175.14 c 1.597,-3.769 6.335,-4.396 8.522,-7.575 -0.629,-6.568 -0.949,-16.229 2.84,-19.884 3.629,2.7 0.086,10.894 0.474,16.096 0.104,1.392 0.759,2.616 0.474,3.788 -0.74,3.08 -10.04,10.18 -12.3,7.57 z"
         id="path67"
         style="stroke-width:0.254152" />
      <path
         d="m 122.51,152.89 c -0.993,6.086 3.471,9.095 1.894,14.203 -4.28,-0.29 -8.23,-15.17 -1.89,-14.2 z"
         id="path68"
         style="stroke-width:0.254152" />
      <path
         d="m 190.68,160.47 c 4.804,1.207 9.952,6.541 8.521,10.889 -4.04,-2.15 -8.7,-6.09 -8.52,-10.89 z"
         id="path69"
         style="stroke-width:0.254152" />
      <path
         d="m 179.32,169.46 c -2.104,3.814 -6.805,4.536 -9.942,7.102 -2.598,2.125 -3.823,5.355 -7.101,6.628 0.809,-6.786 9.229,-10.008 14.676,-13.729 h 2.36 z"
         id="path70"
         style="stroke-width:0.254152" />
      <path
         d="m 183.11,172.78 c -1.992,3.321 -5.721,5.075 -8.521,7.575 -2.779,2.48 -5.019,5.358 -8.048,7.575 1.21,-6.856 9.205,-10.98 14.676,-15.149 0.63,-0.01 1.26,-0.01 1.89,-0.01 z"
         id="path71"
         style="stroke-width:0.254152" />
      <path
         d="m 151.86,185.56 c -0.229,-4.537 4.171,-8.42 8.521,-9.942 0.09,0.383 0.476,0.472 0.474,0.947 -0.54,2.932 -2.631,4.313 -4.734,5.681 -1.31,1.21 -1.13,3.91 -4.26,3.31 z"
         id="path72"
         style="stroke-width:0.254152" />
      <path
         d="m 186.42,178.46 c -2.46,4.591 -8.024,5.788 -11.362,9.469 -2.015,2.221 -2.217,6.324 -6.154,6.628 1.495,-9.078 8.961,-12.185 15.149,-16.57 1.09,-0.16 1.81,0.07 2.36,0.47 z"
         id="path73"
         style="stroke-width:0.254152" />
      <path
         d="m 186.42,192.66 c 0.508,5.438 -1.338,12.521 -2.367,17.99 -3.003,-0.601 -2.124,-5.054 -1.894,-7.575 0.301,-3.29 1.712,-6.83 1.894,-8.995 -0.134,-0.765 0.447,-0.815 0.474,-1.42 h 1.9 z"
         id="path74"
         style="stroke-width:0.254152" />
      <path
         d="m 212.46,213.96 c 1.397,3.737 -2.625,6.495 -4.734,8.995 -1.939,2.3 -3.766,6.98 -7.101,6.155 1.944,-6.577 7.837,-9.207 10.415,-15.15 0.48,-0.01 0.95,-0.01 1.42,-0.01 z"
         id="path75"
         style="stroke-width:0.254152" />
      <path
         d="m 135.29,220.12 h 1.421 c 1.593,6.317 3.379,14.9 4.261,20.357 -3.125,0.08 -3.621,-4.819 -4.261,-8.048 -0.83,-4.23 -1.82,-8.91 -1.42,-12.31 z"
         id="path76"
         style="stroke-width:0.254152" />
      <path
         d="m 154.7,223.43 c -3.576,2.894 -7.963,4.978 -11.362,8.048 -0.27,-4.32 7.9,-9.02 11.36,-8.05 z"
         id="path77"
         style="stroke-width:0.254152" />
      <path
         d="m 215.78,237.16 c 1.752,0.332 1.181,-1.66 1.894,-2.367 1.633,0.345 0.315,1.424 0,2.367 3.971,2.646 7.521,10.269 5.682,15.624 -5.161,-1.625 -2.573,-10.999 -7.575,-12.783 -3.145,-0.485 -4.953,-2.306 -7.575,-3.314 -1.734,-0.35 -2.63,1.165 -3.787,0 v -2.367 c 4.9,-1.69 8.07,1.46 11.37,2.84 z"
         id="path78"
         style="stroke-width:0.254152" />
      <path
         d="m 231.87,268.88 c -4.12,-2.337 -2.538,-9.326 -2.841,-14.203 -0.435,-6.998 -2.294,-12.556 -4.734,-16.57 -0.077,-0.551 0.104,-0.842 0.474,-0.947 0.382,-0.328 1.297,-0.736 1.42,0 6.51,5.37 6.21,22.46 5.68,31.72 z"
         id="path79"
         style="stroke-width:0.254152" />
      <path
         d="m 175.54,259.89 c -1.952,3.887 -1.85,9.829 -6.155,11.362 -1.7,-3.41 2.07,-15.22 6.16,-11.36 z"
         id="path80"
         style="stroke-width:0.254152" />
      <path
         d="m 162.28,266.52 h 1.42 c 0.104,3.373 1.992,11.449 -0.474,12.782 -2.32,-2.01 -1.54,-9.43 -0.95,-12.78 z"
         id="path81"
         style="stroke-width:0.254152" />
      <path
         d="m 84.163,283.08 h 1.42 c -0.756,4.956 -1.49,13.952 -4.734,17.99 -0.298,-5.54 2.234,-12.25 3.314,-17.99 z"
         id="path82"
         style="stroke-width:0.254152" />
      <path
         d="m 154.7,284.5 h 1.894 c 1.476,2.158 1.813,9.96 -0.947,10.889 -3.16,-0.64 -1.03,-7.75 -0.94,-10.89 z"
         id="path83"
         style="stroke-width:0.254152" />
      <path
         d="m 92.684,288.77 h 1.42 c -0.388,8.623 -0.071,22.01 -1.894,30.773 -2.718,-0.369 -0.951,-3.601 -0.947,-5.208 0.02,-7.584 0.168,-17.721 1.42,-24.145 10e-4,-0.47 10e-4,-0.94 10e-4,-1.41 z"
         id="path84"
         style="stroke-width:0.254152" />
      <path
         d="m 31.139,366.88 h 1.894 c 0.238,2.559 1.847,9.858 -0.947,10.889 -1.812,-1.19 -1.26,-7.95 -0.947,-10.89 z"
         id="path85"
         style="stroke-width:0.254152" />
      <path
         d="m 89.844,377.77 c 1.659,28.236 -0.202,60.625 0,89.479 -3.472,-1.782 -1.894,-7.006 -1.894,-9.942 0,-25.035 -0.216,-52.148 0.473,-78.116 -0.133,-0.765 0.448,-0.815 0.474,-1.42 h 0.947 z"
         id="path86"
         style="stroke-width:0.254152" />
      <path
         d="m 227.61,379.19 c 1.353,5.776 -0.816,15.794 -2.367,21.778 -0.108,2.732 0.525,6.207 -2.841,5.681 0.8,-7.738 0.861,-20.271 3.787,-27.458 h 1.42 z"
         id="path87"
         style="stroke-width:0.254152" />
      <path
         d="m 159.91,402.39 c 0.351,3.354 2.581,7.101 1.42,10.416 -4.26,0.73 -6.42,-12.17 -1.42,-10.42 z"
         id="path88"
         style="stroke-width:0.254152" />
      <path
         d="m 57.177,407.12 h 1.42 c 0.288,3.819 0.63,11.634 -0.947,15.149 -3.006,-2.56 -1.098,-11.58 -0.473,-15.15 z"
         id="path89"
         style="stroke-width:0.254152" />
      <path
         d="m 10.781,411.38 c 2.611,3.082 1.732,9.343 1.894,15.15 0.992,35.636 5.993,74.772 3.788,110.78 -3.391,-1.907 -2.367,-8.979 -2.367,-14.203 0,-36.646 -4.65,-73.518 -4.734,-110.31 -0.133,-0.765 0.447,-0.815 0.474,-1.421 h 0.945 z"
         id="path90"
         style="stroke-width:0.254152" />
      <path
         d="m 163.7,424.17 c 0.765,-0.134 0.814,0.447 1.42,0.473 5.858,14.317 2.603,26.607 -4.261,37.401 -3.345,5.26 -7.538,11.567 -12.782,12.782 -0.125,-3.207 3.341,-4.87 5.207,-7.102 8.307,-9.928 16.358,-24.523 9.469,-42.135 -0.27,-1.04 0.9,-0.67 0.94,-1.41 z"
         id="path91"
         style="stroke-width:0.254152" />
      <path
         d="m 128.19,458.73 c -1.535,3.673 -3.09,7.325 -6.628,8.995 -1.43,-2.88 2.38,-10.29 6.63,-8.99 z"
         id="path92"
         style="stroke-width:0.254152" />
      <path
         d="m 187.84,459.67 c 4.189,0.878 2.501,11.709 0.474,13.729 -3.73,-1.45 -1.27,-10.76 -0.47,-13.73 z"
         id="path93"
         style="stroke-width:0.254152" />
      <path
         d="m 146.18,479.56 c -5.148,2.427 -6.501,8.648 -11.362,11.362 -1.014,-4.979 5.542,-10.107 9.468,-13.256 1.2,0.06 1.83,0.69 1.89,1.9 z"
         id="path94"
         style="stroke-width:0.254152" />
      <path
         d="m 109.25,484.29 c 2.865,1.354 -0.057,5.252 -0.947,7.102 -2.244,4.662 -4.889,9.42 -6.628,14.676 -0.815,2.464 -0.226,6.359 -3.314,7.102 -0.857,-9.61 5.794,-21.33 10.894,-28.88 z"
         id="path95"
         style="stroke-width:0.254152" />
      <path
         d="m 158.96,500.86 h 0.947 c 1.722,5.904 1.183,18.945 0.473,24.145 -2.555,-2.035 -1.42,-6.763 -1.42,-10.889 V 500.87 Z"
         id="path96"
         style="stroke-width:0.254152" />
      <path
         d="m 87.003,506.07 h 2.367 c -1.073,7.922 0.135,18.125 -5.208,21.778 0.366,-5.98 3.234,-13.48 2.841,-21.78 z"
         id="path97"
         style="stroke-width:0.254152" />
      <path
         d="m 116.83,516.96 c -0.97,3.696 2.261,12.461 -0.947,15.149 -2.751,-2.659 -1.928,-10.73 -1.42,-15.149 h 2.37 z"
         id="path98"
         style="stroke-width:0.254152" />
      <path
         d="m 116.36,538.74 c -0.786,3.339 -3.802,5.468 -5.681,8.048 -1.782,2.446 -2.789,6.66 -6.628,7.102 0.286,-6.523 6.84,-10.816 9.942,-16.097 1.51,-0.41 1.46,0.74 2.37,0.95 z"
         id="path99"
         style="stroke-width:0.254152" />
      <path
         d="m 15.989,538.26 c 2.506,1.633 1.42,7.102 1.42,11.362 0,4.26 1.085,9.729 -1.42,11.362 -2.036,-0.725 -1.758,-4.454 -1.894,-7.102 -0.247,-4.806 -0.148,-10.583 0.474,-14.202 -0.134,-0.765 0.447,-0.815 0.473,-1.421 h 0.947 z"
         id="path100"
         style="stroke-width:0.254152" />
      <path
         d="m 208.67,545.84 h 1.894 c -0.991,7.104 2.843,17.334 0.474,24.145 -2.285,-1.119 -1.653,-4.717 -1.894,-7.102 -0.455,-4.508 -1.253,-9.68 -0.947,-15.623 -0.12,-0.77 0.46,-0.82 0.48,-1.42 z"
         id="path101"
         style="stroke-width:0.254152" />
      <path
         d="m 135.77,548.2 c 2.278,3.597 0.769,14.701 -0.474,19.41 -2.94,-3.357 0.547,-11.89 -0.473,-17.99 -0.27,-1.04 0.89,-0.67 0.94,-1.42 z"
         id="path102"
         style="stroke-width:0.254152" />
      <path
         d="m 75.167,587.5 c 1.838,12.424 -3.35,21.891 -10.889,26.513 -1.082,-3.828 3.072,-5.794 4.734,-8.522 2.571,-4.218 4.064,-8.998 3.788,-16.569 -0.133,-0.765 0.447,-0.815 0.474,-1.421 h 1.893 z"
         id="path103"
         style="stroke-width:0.254152" />
      <path
         d="m 15.516,593.65 c 3.018,0.595 1.915,6.471 1.894,10.415 -0.021,3.841 0.853,9.765 -2.367,9.942 -3.185,-3.602 -0.567,-13.004 -1.42,-18.938 0.167,-0.622 0.833,-0.744 0.947,-1.42 0.314,0.01 0.63,0.01 0.946,0.01 z"
         id="path104"
         style="stroke-width:0.254152" />
      <path
         d="m 101.68,595.07 c 0.38,0.25 0.769,0.494 1.42,0.474 -1.299,32.884 -2.552,70.89 -10.416,98.946 -1.084,3.869 -1.103,8.699 -4.261,11.362 -2.688,-2.5 0.482,-7.96 1.42,-11.362 3.181,-11.528 5.605,-24.988 7.102,-39.768 1.955,-19.313 1.662,-39.744 3.787,-58.705 0.12,-0.51 0.94,-0.32 0.95,-0.95 z"
         id="path105"
         style="stroke-width:0.254152" />
      <path
         d="m 83.689,616.85 c 2.909,3.469 1.177,12.298 0.947,17.518 -1.05,23.876 -3.582,47.604 -6.628,70.067 -3.564,-2.714 -1.849,-9.863 -1.42,-14.677 1.323,-14.835 4.501,-29.858 5.208,-45.922 0.37,-8.421 0.337,-16.766 0.474,-25.565 -0.134,-0.765 0.447,-0.815 0.473,-1.421 0.315,-0.01 0.631,-0.01 0.946,-0.01 z"
         id="path106"
         style="stroke-width:0.254152" />
      <path
         d="m 80.375,618.27 c -2.589,5.302 -7.094,8.687 -11.835,11.836 -0.08,-5.636 7.428,-7.697 9.942,-12.31 0.989,-0.2 1.253,0.32 1.893,0.47 z"
         id="path107"
         style="stroke-width:0.254152" />
      <path
         d="m 59.071,621.58 c -3.168,8.51 -10.935,12.421 -13.729,21.305 3.976,-1.173 7.169,-7.847 12.309,-4.734 0.455,2.348 -2.992,0.795 -3.787,1.894 -3.554,1.893 -7.966,8.128 -11.836,2.841 2.919,-9.232 9.511,-14.792 14.676,-21.777 1.098,-0.14 1.817,0.09 2.367,0.48 z"
         id="path108"
         style="stroke-width:0.254152" />
      <path
         d="m 67.593,629.63 c -0.077,0.55 0.104,0.843 0.473,0.946 -2.124,3.242 -5.825,4.906 -9.468,6.628 -0.792,-4.48 4.716,-6.61 8.995,-7.58 z"
         id="path109"
         style="stroke-width:0.254152" />
      <path
         d="m 13.148,656.62 c 1.315,7.953 -1.916,18.473 -1.42,28.405 0.35,7.02 2.615,12.808 2.367,18.464 -4.141,-1.333 -4.794,-9.464 -5.208,-15.149 -0.744,-10.223 1.016,-22.46 2.367,-30.3 -0.133,-0.765 0.448,-0.814 0.474,-1.42 0.474,0.01 0.947,0.01 1.42,0.01 z"
         id="path110"
         style="stroke-width:0.254152" />
      <path
         d="m 152.34,672.24 c 2.162,6.77 0.158,17.402 0.474,25.565 0.092,2.387 1.961,5.943 -0.947,7.102 -3.588,-1.846 -2.099,-12.535 -1.894,-17.044 0.26,-5.72 -0.399,-10.532 0.474,-15.149 0.117,-0.515 0.941,-0.321 0.946,-0.947 0.55,-0.07 0.84,0.11 0.95,0.48 z"
         id="path111"
         style="stroke-width:0.254152" />
      <path
         d="m 131.03,673.66 c 0.358,6.186 1.082,18.397 0.473,24.618 -3.968,-0.744 -2.524,-7.922 -2.84,-12.309 -0.228,-3.16 -0.407,-8.929 0.473,-12.31 h 1.9 z"
         id="path112"
         style="stroke-width:0.254152" />
      <path
         d="m 69.96,676.98 c 2.396,1.51 0.728,4.889 0.473,7.575 -0.423,4.461 -0.671,9.734 -1.42,14.676 -0.661,4.359 -0.589,10.122 -4.261,11.362 1.052,-9.691 2.799,-22.757 4.261,-33.613 0.316,-0.01 0.631,-0.01 0.947,-0.01 z"
         id="path113"
         style="stroke-width:0.254152" />
      <path
         d="m 249.39,703.02 c -4.444,1.836 -4.311,-4.78 -9.942,-3.313 0.84,-7.06 10.08,-0.86 9.94,3.31 z"
         id="path114"
         style="stroke-width:0.254152" />
      <path
         d="m 153.76,708.7 c -1.271,5.074 1.57,12.58 -1.894,16.097 -4.17,-1.161 -1.629,-13.162 -0.947,-17.044 1.63,-0.38 2,0.52 2.84,0.94 z"
         id="path115"
         style="stroke-width:0.254152" />
      <path
         d="m 77.535,723.37 c -1.85,5.433 -6.219,10.794 -11.836,10.89 3.102,-3.842 7.824,-6.063 9.942,-10.89 z"
         id="path116"
         style="stroke-width:0.254152" />
      <path
         d="m 150.92,729.05 c -1.214,4.467 -1.488,9.874 -6.628,10.415 0.35,-3.11 2.42,-12.68 6.63,-10.41 z"
         id="path117"
         style="stroke-width:0.254152" />
      <path
         d="m 63.332,734.26 c -0.046,4.292 -8.897,6.558 -11.362,3.787 3.414,-1.37 8.719,-3.21 11.362,-3.79 z"
         id="path118"
         style="stroke-width:0.254152" />
      <path
         d="m 202.99,734.74 c -2.226,4.9 -5.843,10.854 -11.836,10.416 2.365,-4.578 7.532,-6.355 9.469,-11.362 1.52,-0.42 1.47,0.73 2.37,0.94 z"
         id="path119"
         style="stroke-width:0.254152" />
      <path
         d="m 92.211,740.42 c -1.884,0.684 -7.844,1.266 -10.416,0.946 1.81,-2.1 8.202,-3.5 10.416,-0.95 z"
         id="path120"
         style="stroke-width:0.254152" />
      <path
         d="m 213.41,742.31 c -0.657,4.866 -4.437,6.609 -8.521,8.048 -0.202,-0.902 -1.353,-0.856 -0.947,-2.367 3,-1.78 5.1,-6.82 9.47,-5.68 z"
         id="path121"
         style="stroke-width:0.254152" />
      <path
         d="m 85.583,744.2 c -2.522,1.964 -8.822,6.964 -11.836,3.787 3.396,-1.29 8.211,-5.83 11.836,-3.79 z"
         id="path122"
         style="stroke-width:0.254152" />
      <path
         d="m 51.496,747.52 c -1.221,3.097 -7.021,3.947 -9.942,3.787 0.389,-3.7 7.47,-5.28 9.942,-3.79 z"
         id="path123"
         style="stroke-width:0.254152" />
      <path
         d="m 246.08,747.99 c -1.899,3.35 -8.494,4.391 -12.309,4.262 1.83,-3.41 8.57,-4.31 12.31,-4.26 z"
         id="path124"
         style="stroke-width:0.254152" />
      <path
         d="m 191.63,747.99 c 0.55,-0.076 0.842,0.104 0.946,0.474 3.194,4.999 10.291,8.48 18.464,5.682 -0.218,3.81 -5.146,3.888 -7.575,3.787 -5.437,-0.225 -10.909,-4.506 -12.309,-8.048 -0.19,-0.98 0.33,-1.25 0.48,-1.89 z"
         id="path125"
         style="stroke-width:0.254152" />
      <path
         d="m 256.96,748.46 c 4.046,0.688 10.027,-0.559 9.941,4.261 -3.232,-0.87 -6.91,-1.295 -9.941,-2.367 v -1.89 z"
         id="path126"
         style="stroke-width:0.254152" />
      <path
         d="m 151.39,751.3 c -3.674,5.869 -13.5,3.255 -20.831,3.787 -5.642,0.41 -11.034,4.74 -14.676,1.421 0.602,-3.223 5.296,-2.238 8.048,-2.841 2.019,-0.441 4.125,-1.781 6.154,-1.894 1.977,-0.109 4.217,0.905 6.155,0.946 5.62,0.12 10.7,-3.24 15.15,-1.43 z"
         id="path127"
         style="stroke-width:0.254152" />
      <path
         d="m 100.73,754.62 c -0.137,3.547 -4.294,1.466 -6.154,1.42 -8.656,-0.214 -20.682,0.375 -27.932,-0.474 0.154,-3.422 4.763,-2.176 7.575,-2.367 8.57,-0.58 19.25,-1.2 26.511,1.42 z"
         id="path128"
         style="stroke-width:0.254152" />
      <path
         d="m 8.414,755.09 v -1.42 c 7.744,1.993 19.943,0.463 29.353,0.947 -0.949,2.66 -5.688,2.217 -8.995,2.366 -7.589,0.34 -16.284,0.34 -20.358,-1.9 z"
         id="path129"
         style="stroke-width:0.254152" />
      <path
         d="m 57.177,755.57 c -2.249,3.885 -10.922,1.036 -15.15,0.947 0.259,-0.688 -0.553,-2.447 0.474,-2.367 3.871,0.25 12.177,-0.69 14.676,1.42 z"
         id="path130"
         style="stroke-width:0.254152" />
      <path
         d="m 265.96,756.04 c -2.183,3.547 -9.479,2.367 -15.15,2.367 -11.718,0 -25.806,0.671 -34.087,-2.841 v -1.42 c 0.384,-0.09 0.473,-0.476 0.947,-0.474 11.034,1.341 27.385,1.863 41.188,1.42 2.06,-0.07 5.91,-1.7 7.1,0.94 z"
         id="path131"
         style="stroke-width:0.254152" />
    </g>
  </g>
</svg>
