<?xml version="1.0" encoding="UTF-8" standalone="no"?>
<svg
   width="1000"
   height="1000"
   viewBox="0 0 1000 1000"
   version="1.1"
   id="svg33"
   sodipodi:docname="microsoft-visual-studio-2010-logo.svg"
   inkscape:version="1.3.2 (091e20e, 2023-11-25, custom)"
   xmlns:inkscape="http://www.inkscape.org/namespaces/inkscape"
   xmlns:sodipodi="http://sodipodi.sourceforge.net/DTD/sodipodi-0.dtd"
   xmlns="http://www.w3.org/2000/svg"
   xmlns:svg="http://www.w3.org/2000/svg"
   xmlns:rdf="http://www.w3.org/1999/02/22-rdf-syntax-ns#"
   xmlns:cc="http://creativecommons.org/ns#"
   xmlns:dc="http://purl.org/dc/elements/1.1/">
  <defs
     id="defs33" />
  <sodipodi:namedview
     id="namedview33"
     pagecolor="#505050"
     bordercolor="#eeeeee"
     borderopacity="1"
     inkscape:showpageshadow="0"
     inkscape:pageopacity="0"
     inkscape:pagecheckerboard="0"
     inkscape:deskcolor="#505050"
     inkscape:zoom="0.60119048"
     inkscape:cx="885.74257"
     inkscape:cy="463.24752"
     inkscape:window-width="2420"
     inkscape:window-height="1463"
     inkscape:window-x="176"
     inkscape:window-y="533"
     inkscape:window-maximized="0"
     inkscape:current-layer="g1" />
  <title
     id="title1">Microsoft Visual Studio 2010 logo</title>
  <linearGradient
     id="SVGID_1_"
     gradientUnits="userSpaceOnUse"
     x1="63.5396"
     y1="30.1182"
     x2="102.3574"
     y2="30.1182"
     gradientTransform="matrix(11.730207,0,0,11.730207,-737.56992,-19.093275)">
    <stop
       offset="0"
       stop-color="#322973"
       id="stop4" />
    <stop
       offset="0.0495"
       stop-color="#404C8C"
       id="stop5" />
    <stop
       offset="0.0981"
       stop-color="#4E70A6"
       id="stop6" />
    <stop
       offset="0.145"
       stop-color="#5D8FBC"
       id="stop7" />
    <stop
       offset="0.1899"
       stop-color="#6DA8CE"
       id="stop8" />
    <stop
       offset="0.2323"
       stop-color="#79BADA"
       id="stop9" />
    <stop
       offset="0.2711"
       stop-color="#81C5E1"
       id="stop10" />
    <stop
       offset="0.303"
       stop-color="#84C8E3"
       id="stop11" />
    <stop
       offset="0.5152"
       stop-color="#80C4E0"
       id="stop12" />
    <stop
       offset="0.6909"
       stop-color="#679FC7"
       id="stop13" />
    <stop
       offset="1"
       stop-color="#322973"
       id="stop14" />
  </linearGradient>
  <linearGradient
     id="SVGID_2_"
     gradientUnits="userSpaceOnUse"
     x1="107.9189"
     y1="27.752001"
     x2="147.63921"
     y2="27.752001"
     gradientTransform="matrix(11.730207,0,0,11.730207,-737.56992,-19.093275)">
    <stop
       offset="0"
       stop-color="#84C8E3"
       id="stop15" />
    <stop
       offset="0.2704"
       stop-color="#79A2CE"
       id="stop16" />
    <stop
       offset="0.8928"
       stop-color="#69378C"
       id="stop17" />
    <stop
       offset="1"
       stop-color="#662483"
       id="stop18" />
  </linearGradient>
  <linearGradient
     id="SVGID_3_"
     gradientUnits="userSpaceOnUse"
     x1="98.582001"
     y1="37.053699"
     x2="125.2891"
     y2="37.053699"
     gradientTransform="matrix(11.730207,0,0,11.730207,-737.56992,-19.093275)">
    <stop
       offset="0"
       stop-color="#322973"
       id="stop19" />
    <stop
       offset="1"
       stop-color="#84C8E3"
       id="stop20" />
  </linearGradient>
  <linearGradient
     id="SVGID_4_"
     gradientUnits="userSpaceOnUse"
     x1="63.5396"
     y1="27.752001"
     x2="147.63921"
     y2="27.752001"
     gradientTransform="matrix(11.730207,0,0,11.730207,-737.56992,-19.093275)">
    <stop
       offset="0"
       stop-color="#84C8E3"
       id="stop21" />
    <stop
       offset="0.0687"
       stop-color="#81C5E1"
       id="stop22" />
    <stop
       offset="0.1455"
       stop-color="#7ABBDB"
       id="stop23" />
    <stop
       offset="0.2263"
       stop-color="#6FABD0"
       id="stop24" />
    <stop
       offset="0.3098"
       stop-color="#6094C0"
       id="stop25" />
    <stop
       offset="0.3954"
       stop-color="#5177AB"
       id="stop26" />
    <stop
       offset="0.4828"
       stop-color="#435693"
       id="stop27" />
    <stop
       offset="0.57"
       stop-color="#37347A"
       id="stop28" />
    <stop
       offset="0.6"
       stop-color="#322973"
       id="stop29" />
    <stop
       offset="0.7515"
       stop-color="#4F277C"
       id="stop30" />
    <stop
       offset="0.9515"
       stop-color="#662483"
       id="stop31" />
    <stop
       offset="1"
       stop-color="#963470"
       id="stop32" />
  </linearGradient>
  <g
     id="g4"
     transform="translate(0,52.913391)"
     style="fill:#404040;fill-opacity:1">
    <g
       id="g3"
       style="fill:#404040;fill-opacity:1">
      <path
         d="m 58.342769,663.72826 c -0.319697,-6.05486 -0.707208,-13.3982 -0.707208,-18.74102 h -0.125938 c -1.545207,5.02312 -3.289005,10.49671 -5.4736,16.48377 l -7.667883,21.06125 h -4.252937 l -7.086614,-20.67374 c -2.058655,-6.18081 -3.734641,-11.72222 -4.955303,-16.87128 h -0.12594 c -0.125942,5.40579 -0.455326,12.61834 -0.837994,19.1915 l -1.15769,18.61509 h -5.347658 l 3.02259,-43.41097 h 7.154429 l 7.401467,20.99827 c 1.806771,5.34766 3.221188,10.10921 4.378878,14.61888 h 0.125942 c 1.162536,-4.37889 2.707736,-9.14528 4.640448,-14.61888 l 7.730852,-20.99827 h 7.149582 l 2.707737,43.41097 H 59.37452 Z m 22.092987,-20.87233 c 0,1.93272 -1.351445,3.48276 -3.608699,3.48276 -2.063493,0 -3.410096,-1.54521 -3.410096,-3.48276 0,-1.92786 1.414411,-3.53605 3.536038,-3.53605 2.063493,0 3.482757,1.54521 3.482757,3.53605 z m -6.316432,39.93305 v -31.1753 h 5.667351 v 31.1753 z m 37.288276,-1.09472 c -1.48223,0.70721 -4.76154,1.80193 -8.95151,1.80193 -9.401996,0 -15.519825,-6.36973 -15.519825,-15.90734 0,-9.59092 6.563476,-16.61455 16.740485,-16.61455 3.34714,0 6.31644,0.83799 7.8568,1.67598 l -1.28848,4.31591 c -1.35144,-0.7072 -3.47791,-1.48224 -6.56832,-1.48224 -7.149584,0 -11.010169,5.34767 -11.010169,11.7852 0,7.21255 4.640452,11.65925 10.821259,11.65925 3.21634,0 5.34766,-0.77503 6.95583,-1.48708 z m 6.63614,-20.35404 c 0,-3.67166 -0.0678,-6.82504 -0.26157,-9.72654 h 4.9553 l 0.26157,6.18082 h 0.19376 c 1.41441,-4.18512 4.89233,-6.82506 8.69478,-6.82506 0.57643,0 1.03175,0.063 1.54036,0.12596 v 5.34764 c -0.57642,-0.12593 -1.15769,-0.12593 -1.92787,-0.12593 -3.99136,0 -6.82504,2.95962 -7.59522,7.21256 -0.13079,0.77017 -0.19375,1.7341 -0.19375,2.63991 v 16.6194 h -5.66736 z m 48.623,5.60439 c 0,11.52846 -8.05056,16.55158 -15.51985,16.55158 -8.37508,0 -14.9434,-6.18081 -14.9434,-16.03813 0,-10.37078 6.89287,-16.48376 15.45202,-16.48376 8.95635,0 15.01123,6.50534 15.01123,15.97031 z m -24.66511,0.3197 c 0,6.82503 3.86543,11.98378 9.40199,11.98378 5.41063,0 9.46497,-5.09093 9.46497,-12.10973 0,-5.27984 -2.63992,-11.91597 -9.33903,-11.91597 -6.63129,0 -9.52793,6.18565 -9.52793,12.04192 z m 31.0445,9.79435 c 1.73412,1.03175 4.69858,2.18943 7.53709,2.18943 4.05434,0 5.98706,-1.99568 5.98706,-4.6356 0,-2.71258 -1.61302,-4.127 -5.73517,-5.6722 -5.66735,-2.05865 -8.30727,-5.08609 -8.30727,-8.82073 0,-5.02312 4.12215,-9.14526 10.75344,-9.14526 3.15821,0 5.92892,0.83799 7.60007,1.92786 l -1.35145,4.127 c -1.22551,-0.77502 -3.47792,-1.86974 -6.37457,-1.86974 -3.34712,0 -5.14905,1.92786 -5.14905,4.24809 0,2.57695 1.80193,3.73465 5.86111,5.34766 5.34766,1.99567 8.17649,4.69858 8.17649,9.33417 0,5.54142 -4.31591,9.40201 -11.59628,9.40201 -3.4101,0 -6.56348,-0.90097 -8.75775,-2.1846 z m 54.4841,-10.11405 c 0,11.52846 -8.05055,16.55158 -15.51983,16.55158 -8.37508,0 -14.94341,-6.18081 -14.94341,-16.03813 0,-10.37078 6.89286,-16.48376 15.45202,-16.48376 8.95636,0 15.01122,6.50534 15.01122,15.97031 z m -24.66994,0.3197 c 0,6.82503 3.86543,11.98378 9.402,11.98378 5.41062,0 9.46496,-5.09093 9.46496,-12.10973 0,-5.27984 -2.63992,-11.91597 -9.33902,-11.91597 -6.62644,0 -9.52794,6.18565 -9.52794,12.04192 z m 32.40079,15.52467 V 655.9296 h -4.32074 v -4.31592 h 4.32074 v -1.48223 c 0,-4.37888 1.02691,-8.37509 3.60386,-10.88422 2.12163,-2.05865 4.9553,-2.89664 7.59523,-2.89664 2.06349,0 3.73464,0.45048 4.8342,0.90096 l -0.77502,4.37888 c -0.83799,-0.38751 -1.92787,-0.70722 -3.60386,-0.70722 -4.82936,0 -6.05486,4.18512 -6.05486,9.01449 v 1.67598 h 7.53709 v 4.31592 h -7.53709 v 26.85938 z m 25.75498,-38.63973 v 7.46929 h 8.11836 v 4.3159 h -8.11836 v 16.81314 c 0,3.86544 1.09957,6.05003 4.25294,6.05003 1.54036,0 2.44617,-0.12594 3.28416,-0.38267 l 0.26157,4.31592 c -1.09956,0.38751 -2.83852,0.77017 -5.02311,0.77017 -2.64477,0 -4.7664,-0.90097 -6.12269,-2.3832 -1.5452,-1.73411 -2.18944,-4.50481 -2.18944,-8.17649 v -17.00206 h -4.82936 v -4.3159 h 4.82936 v -5.80299 z"
         id="path1"
         style="stroke-width:1;fill:#404040;fill-opacity:1" />
      <path
         d="m 295.15097,649.36612 c 0,5.92408 -4.76639,10.62266 -10.81641,10.62266 -6.05487,0 -10.88422,-4.70342 -10.88422,-10.62266 0,-5.92893 4.82935,-10.56452 10.94719,-10.56452 5.98221,0 10.75344,4.63559 10.75344,10.56452 z m -18.99775,0 c 0,4.69858 3.53605,8.43322 8.23946,8.43322 4.57264,0.0678 8.05055,-3.73464 8.05055,-8.37509 0,-4.70342 -3.47791,-8.50104 -8.17648,-8.50104 -4.57748,0.005 -8.11353,3.80246 -8.11353,8.44291 z m 6.50535,5.4736 h -2.45101 V 644.2752 c 0.96394,-0.12595 2.32022,-0.31971 4.05919,-0.31971 1.99568,0 2.90149,0.31971 3.60385,0.83799 0.64424,0.45049 1.09956,1.22551 1.09956,2.25242 0,1.29331 -0.96392,2.12646 -2.18944,2.51397 v 0.1308 c 1.03176,0.31969 1.54521,1.15768 1.86975,2.57211 0.31969,1.60816 0.57642,2.18943 0.77018,2.57694 h -2.57212 c -0.31969,-0.38751 -0.51344,-1.28848 -0.83799,-2.57694 -0.19375,-1.09473 -0.83799,-1.60819 -2.18943,-1.60819 h -1.1577 v 4.18513 z m 0.0581,-5.92893 h 1.15771 c 1.35143,0 2.451,-0.45047 2.451,-1.54519 0,-0.96394 -0.70721,-1.60817 -2.25725,-1.60817 -0.64424,0 -1.09473,0.0678 -1.35146,0.12594 z"
         id="path2"
         style="stroke-width:1;fill:#404040;fill-opacity:1" />
    </g>
    <g
       id="g2"
       style="fill:#404040;fill-opacity:1">
      <path
         d="M 56.661941,818.69407 17.402191,698.95304 h 16.876122 l 18.653827,58.97924 c 4.974676,16.16892 9.411683,30.73934 12.792717,44.76726 h 0.353608 c 3.37619,-13.85354 8.176486,-28.95679 13.679147,-44.58803 l 20.252308,-59.15847 h 16.52253 L 73.717276,818.69407 Z M 143.53714,708.54396 c 0,5.32827 -3.73464,9.5909 -9.94935,9.5909 -5.68673,0 -9.41653,-4.26747 -9.41653,-9.5909 0,-5.33314 3.91387,-9.77498 9.77498,-9.77498 5.68189,0.004 9.5909,4.26747 9.5909,9.77498 z m -17.40895,110.15011 v -85.98878 h 15.63609 v 85.98878 z m 39.43897,-15.81532 c 4.79546,2.84337 12.9671,6.04034 20.78515,6.04034 11.19423,0 16.52252,-5.5075 16.52252,-12.79272 0,-7.45959 -4.44185,-11.37346 -15.81532,-15.63608 -15.63608,-5.68673 -22.91645,-14.03276 -22.91645,-24.33572 0,-13.85838 11.37346,-25.22699 29.66885,-25.22699 8.70931,0 16.34328,2.31055 20.96436,5.32829 l -3.73465,11.37345 c -3.37135,-2.13131 -9.59091,-5.14905 -17.58816,-5.14905 -9.23732,0 -14.21199,5.32828 -14.21199,11.72221 0,7.11084 4.96984,10.3078 16.16406,14.74966 14.74482,5.50751 22.56286,12.9671 22.56286,25.75497 0,15.27763 -11.90145,25.93904 -31.97937,25.93904 -9.41653,0 -18.121,-2.48976 -24.16134,-6.04033 z m 144.43033,-7.81319 c 0,9.05807 0.17923,16.87128 0.70722,23.62851 h -13.85353 l -0.89128,-14.0376 h -0.35361 c -3.90901,6.93161 -13.14631,15.99453 -28.42395,15.99453 -13.49993,0 -29.66884,-7.63882 -29.66884,-37.66127 v -50.2796 h 15.63608 v 47.43623 c 0,16.3433 5.14906,27.53753 19.18666,27.53753 10.48219,0 17.76739,-7.2852 20.61076,-14.3912 0.88643,-2.13131 1.41926,-4.97468 1.41926,-7.99242 v -52.59498 h 15.63609 v 62.36027 z m 86.33755,3.01775 c 0,7.45959 0.35845,14.7448 1.24488,20.61076 h -14.03276 l -1.24488,-10.84064 h -0.52798 c -4.79546,6.75723 -14.03276,12.79757 -26.29749,12.79757 -17.40896,0 -26.29265,-12.25989 -26.29265,-24.699 0,-20.78515 18.4746,-32.15376 51.69886,-31.97938 v -1.77287 c 0,-6.93161 -1.95209,-19.8987 -19.54026,-19.71948 -8.17649,0 -16.52252,2.31053 -22.56285,6.39393 l -3.55057,-10.48218 c 7.10598,-4.44185 17.58816,-7.45959 28.42396,-7.45959 26.29264,0 32.68658,17.94177 32.68658,34.99712 v 32.15376 z M 381.23662,774.8084 c -17.05534,-0.35361 -36.42122,2.66899 -36.42122,19.36588 0,10.30296 6.75238,14.91919 14.57042,14.91919 11.36862,0 18.65383,-7.10599 21.13875,-14.39121 0.52798,-1.77286 0.70721,-3.55056 0.70721,-4.96983 V 774.8084 Z m 40.33025,-82.25413 h 15.63608 v 126.1398 h -15.63608 z m 78.16588,107.30674 c 6.92677,4.43701 16.87128,7.81321 27.53269,7.81321 15.81531,0 25.05261,-8.35089 25.05261,-20.43155 0,-11.015 -6.39393,-17.58816 -22.56285,-23.6285 -19.54026,-7.10599 -31.62093,-17.41379 -31.62093,-34.1107 0,-18.65382 15.45687,-32.51221 38.73176,-32.51221 12.07582,0 21.13876,2.84337 26.29265,5.86597 l -4.26262,12.61349 c -3.73464,-2.31053 -11.72707,-5.68188 -22.56285,-5.68188 -16.34329,0 -22.56285,9.77012 -22.56285,17.94177 0,11.19423 7.28521,16.69689 23.80773,23.09568 20.25231,7.8132 30.37605,17.58818 30.37605,35.17635 0,18.4746 -13.49993,34.64351 -41.74952,34.64351 -11.54783,0 -24.15648,-3.55057 -30.55527,-7.81804 z M 607.0395,712.09937 v 20.60592 h 22.3836 v 11.90628 h -22.3836 v 46.36574 c 0,10.65657 3.01775,16.69691 11.72223,16.69691 4.26746,0 6.75235,-0.35361 9.06292,-1.06567 l 0.70721,11.90145 c -3.02262,1.06566 -7.81806,2.13131 -13.85838,2.13131 -7.28037,0 -13.14633,-2.48976 -16.87128,-6.57317 -4.26746,-4.79544 -6.04034,-12.43426 -6.04034,-22.56284 v -46.89857 h -13.32554 v -11.90628 h 13.32554 v -15.98969 z m 111.91816,82.96619 c 0,9.05807 0.17434,16.87128 0.7072,23.62851 H 705.81132 L 704.92,804.65647 h -0.3536 c -3.90896,6.93161 -13.14627,15.99453 -28.42393,15.99453 -13.49994,0 -29.66884,-7.63882 -29.66884,-37.66127 v -50.2796 h 15.6361 v 47.43623 c 0,16.3433 5.14903,27.53753 19.18662,27.53753 10.48223,0 17.76741,-7.2852 20.61078,-14.3912 0.8864,-2.13131 1.41927,-4.97468 1.41927,-7.99242 v -52.59498 h 15.6361 v 62.36027 z M 818.97431,692.55427 v 103.93055 c 0,7.63881 0.35359,16.34329 0.7072,22.20925 h -13.85348 l -0.70721,-14.92403 h -0.53286 c -4.62108,9.5909 -14.92405,16.87611 -28.96163,16.87611 -20.78515,0 -36.9492,-17.58817 -36.9492,-43.7016 -0.17925,-28.60318 17.76251,-46.01212 38.54771,-46.01212 13.32553,0 22.02999,6.21471 25.93416,12.96709 h 0.35845 v -51.34525 z m -15.45201,75.14814 c 0,-1.95209 -0.17919,-4.61623 -0.71205,-6.57316 -2.31051,-9.77014 -10.83577,-17.94177 -22.55801,-17.94177 -16.16889,0 -25.75981,14.21682 -25.75981,33.04019 0,17.41378 8.70445,31.80015 25.40621,31.80015 10.48217,0 20.07308,-7.106 22.91161,-18.65384 0.53286,-2.13131 0.71205,-4.26262 0.71205,-6.75238 z m 58.97924,-59.15845 c 0,5.32827 -3.72977,9.5909 -9.94937,9.5909 -5.68674,0 -9.41166,-4.26747 -9.41166,-9.5909 0,-5.33314 3.90903,-9.77498 9.77011,-9.77498 5.68189,0.004 9.59092,4.26747 9.59092,9.77498 z m -17.40897,110.15011 v -85.98878 h 15.6361 v 85.98878 z m 119.38258,-43.70644 c 0,31.79531 -22.20439,45.65852 -42.81517,45.65852 -23.09565,0 -41.21667,-17.05534 -41.21667,-44.23927 0,-28.60317 19.01227,-45.4793 42.64077,-45.4793 24.68932,0.005 41.39107,17.94662 41.39107,44.06005 z m -68.04213,0.88643 c 0,18.83305 10.66142,33.04503 25.93416,33.04503 14.92406,0 26.11827,-14.03275 26.11827,-33.40348 0,-14.56558 -7.28519,-32.86581 -25.75498,-32.86581 -18.30505,0.004 -26.29745,17.0602 -26.29745,33.22426 z"
         id="path3"
         style="stroke-width:1;fill:#404040;fill-opacity:1" />
      <path
         d="m 986.18067,730.89852 c 0,5.92407 -4.76642,10.62266 -10.8213,10.62266 -6.05488,0 -10.88422,-4.70343 -10.88422,-10.62266 0,-5.92892 4.82934,-10.56453 10.95205,-10.56453 5.98705,0 10.75347,4.63561 10.75347,10.56453 z m -19.00265,0 c 0,4.70342 3.54089,8.43321 8.24433,8.43321 4.57264,0.0678 8.05054,-3.73464 8.05054,-8.37509 0,-4.69858 -3.4779,-8.50103 -8.1765,-8.50103 -4.57263,0.005 -8.11837,3.8073 -8.11837,8.44291 z m 6.50538,5.4736 h -2.44617 v -10.56453 c 0.96393,-0.12595 2.3202,-0.3197 4.05916,-0.3197 1.99573,0 2.89666,0.3197 3.60387,0.83799 0.64423,0.45532 1.09957,1.22551 1.09957,2.25726 0,1.28848 -0.96877,2.12163 -2.18946,2.51398 v 0.12594 c 1.02691,0.3197 1.54039,1.15769 1.86492,2.57211 0.32454,1.61301 0.58124,2.18943 0.77504,2.57695 h -2.57697 c -0.31969,-0.38752 -0.51349,-1.28848 -0.83802,-2.57695 -0.18888,-1.09472 -0.83795,-1.60818 -2.18939,-1.60818 h -1.1577 v 4.18513 z m 0.0678,-5.92408 h 1.15764 c 1.3515,0 2.44623,-0.45533 2.44623,-1.54521 0,-0.96393 -0.7072,-1.61301 -2.25243,-1.61301 -0.64423,0 -1.09957,0.0678 -1.35144,0.13078 z"
         id="path4"
         style="stroke-width:1;fill:#404040;fill-opacity:1" />
    </g>
  </g>
  <g
     id="g1"
     transform="translate(4.0944881e-8,45.354335)">
    <path
       fill="url(#SVGID_1_)"
       d="m 463.09891,358.18545 -0.87977,1.10264 C 447.16928,347.31155 432.64729,334.63122 418.81737,321.3409 407.11063,309.59895 394.84082,299.26466 382.24258,290.30279 276.55341,215.06525 146.58273,235.05354 105.7264,321.3409 c -6.756578,12.82111 -15.964801,52.62165 -5.64221,93.73601 13.97068,55.69503 63.82407,113.78301 204.21117,110.4399 C 136.85839,564.48456 -6.1328021,439.04173 8.8466654,290.47875 18.18391,242.30281 39.098856,205.78666 67.20441,180.3673 c 89.64225,-81.137875 252.3285,-49.3842 344.89156,76.38712 21.29032,28.90322 38.8739,62.79175 51.00294,101.43103 z"
       id="path14"
       style="fill:url(#SVGID_1_);stroke-width:1" />
    <path
       fill="url(#SVGID_2_)"
       d="m 585.45762,93.880441 c 192.2127,-95.5543462 428.74128,9.642229 407.47443,238.322629 -19.50727,216.29321 -311.9077,290.86214 -464.58928,150.47502 87.19133,39.06159 156.0248,32.62172 203.75531,1.38417 80.81006,-52.8915 101.16215,-176.8328 47.69548,-271.38998 C 745.88121,152.69573 682.23257,104.53148 585.45762,93.880441 Z"
       id="path18"
       style="fill:url(#SVGID_2_);stroke-width:1" />
    <path
       fill="url(#SVGID_3_)"
       d="m 732.09808,484.07399 c -47.73051,31.23755 -116.57574,37.67743 -203.75531,-1.38417 -19.20243,-19.80058 -33.71282,-39.27272 -46.10011,-58.53372 -20.76251,-32.26978 -35.54258,-63.94134 -56.35198,-95.49556 -2.32258,-2.49852 -4.68034,-4.93841 -7.08503,-7.31964 13.82991,13.30205 28.35189,25.98238 43.40176,37.94719 16.83296,13.41935 34.33459,25.9472 52.28191,37.52491 69.86566,45.09089 146.64049,75.85922 217.60876,87.26099 z"
       id="path20"
       style="fill:url(#SVGID_3_);stroke-width:1" />
    <path
       fill="url(#SVGID_4_)"
       d="m 585.45762,93.880441 c 192.2127,-95.5543462 428.74128,9.642229 407.47443,238.322629 -19.50727,216.29321 -311.9077,290.86214 -464.58928,150.47502 87.19133,39.06159 156.0248,32.62172 203.75531,1.38417 123.26196,19.81232 228.99835,-18.79178 250.61698,-142.19352 8.77421,-138.32255 -110.00587,-170.74484 -202.9215,-129.19646 -0.0588,0.0234 -0.0939,0.0469 -0.14082,0.0704 -81.34958,36.44575 -178.82846,106.49852 -262.64143,181.84158 -0.84463,0.73899 -1.68917,1.47801 -2.52199,2.21702 -10.66289,9.39588 -21.40781,18.52198 -32.25837,27.33136 C 426.51237,469.36431 368.02554,506.13851 304.27187,525.50506 136.83489,564.47282 -6.1562998,439.02999 8.8231664,290.467 18.160411,242.29107 39.075356,205.7749 67.18093,180.35557 l 0.05865,0.0704 c -82.920801,88.95014 -63.1436947,207.56592 32.82112,234.63923 100.19942,35.65982 200.15251,-36.7038 282.17012,-124.78587 10.24046,-11.00292 20.21114,-22.24046 29.85338,-33.53664 0.17596,-0.21115 0.34018,-0.41055 0.51614,-0.62171 C 467.05198,192.25 519.99083,126.47871 585.45762,93.880452 Z"
       id="path32"
       style="fill:url(#SVGID_4_);stroke-width:1" />
    <path
       d="m 933.25478,502.46963 h -5.31376 v -1.91671 h 12.93788 v 1.91671 h -5.3394 v 15.54772 h -2.28472 z m 24.28429,7.88082 c -0.12835,-2.43014 -0.28249,-5.39079 -0.28249,-7.53854 h -0.0517 c -0.62459,2.01085 -1.32631,4.2185 -2.20761,6.63151 l -3.08043,8.47125 h -1.71138 l -2.84944,-8.32577 c -0.8386,-2.49003 -1.50601,-4.7148 -1.99372,-6.78554 h -0.0517 c -0.0607,2.17342 -0.17977,5.08272 -0.34217,7.71823 l -0.47078,7.48719 h -2.14766 l 1.2236,-17.46443 h 2.87502 l 2.98645,8.44557 c 0.72723,2.14775 1.29194,4.07303 1.76266,5.88708 h 0.0517 c 0.47059,-1.7627 1.08665,-3.68799 1.86537,-5.88708 l 3.11468,-8.44557 h 2.87507 l 1.08666,17.46443 h -2.22472 z"
       id="path33"
       style="stroke-width:1;fill:#404040;fill-opacity:1" />
  </g>
  <metadata
     id="metadata33">
    <rdf:RDF>
      <cc:Work
         rdf:about="">
        <dc:title>Microsoft Visual Studio 2010 logo</dc:title>
      </cc:Work>
    </rdf:RDF>
  </metadata>
  <rect
     style="fill:#000000;fill-opacity:0;stroke-width:0.999998;stroke-linejoin:round;stroke-miterlimit:100"
     id="rect33"
     width="1620"
     height="1000"
     x="0"
     y="0" />
</svg>
