<?xml version="1.0" encoding="UTF-8" standalone="no"?>
<svg
   width="300"
   height="300"
   viewBox="0 0 300 300"
   fill="none"
   version="1.1"
   id="svg12"
   sodipodi:docname="logo-cloudflare.svg"
   inkscape:version="1.4.2 (f4327f4, 2025-05-13)"
   xmlns:inkscape="http://www.inkscape.org/namespaces/inkscape"
   xmlns:sodipodi="http://sodipodi.sourceforge.net/DTD/sodipodi-0.dtd"
   xmlns="http://www.w3.org/2000/svg"
   xmlns:svg="http://www.w3.org/2000/svg">
  <sodipodi:namedview
     id="namedview12"
     pagecolor="#c2c2c2"
     bordercolor="#000000"
     borderopacity="0.25"
     inkscape:showpageshadow="2"
     inkscape:pageopacity="0.0"
     inkscape:pagecheckerboard="true"
     inkscape:deskcolor="#d1d1d1"
     inkscape:zoom="1.7869979"
     inkscape:cx="-131.78527"
     inkscape:cy="-0.83939662"
     inkscape:window-width="2560"
     inkscape:window-height="1369"
     inkscape:window-x="-8"
     inkscape:window-y="-8"
     inkscape:window-maximized="1"
     inkscape:current-layer="svg12" />
  <path
     id="path13"
     style="fill:#ffffff;stroke-width:20.7816;stroke-linecap:round"
     d="M 300,150 A 150,150 0 0 1 150.00086,300 150,150 0 0 1 0,150.00171 150,150 0 0 1 149.99744,2.1846011e-8 150,150 0 0 1 300,149.99658 l -150,0.003 z" />
  <g
     id="g13"
     transform="matrix(3.164141,0,0,3.164141,31.681701,61.206433)">
    <path
       d="m 51.027,36.4346 0.378,-1.3292 c 0.4589,-1.5734 0.2879,-3.0383 -0.477,-4.1053 -0.7019,-0.9857 -1.8718,-1.5643 -3.2937,-1.6366 L 20.7268,29.0199 c -0.1799,-0.0091 -0.3329,-0.0905 -0.4229,-0.2262 -0.09,-0.1356 -0.117,-0.3165 -0.0539,-0.4883 0.0899,-0.2622 0.3509,-0.4701 0.6209,-0.4792 l 27.1503,-0.3436 c 3.2218,-0.1447 6.7045,-2.776 7.9284,-5.9771 l 1.5478,-4.0691 c 0.045,-0.1085 0.063,-0.226 0.063,-0.3436 0,-0.0633 -0.009,-0.1266 -0.018,-0.1899 C 55.7966,8.95458 48.7322,3.01367 40.3,3.01367 c -7.7752,0 -14.3806,5.0457 -16.7474,12.05363 -1.5299,-1.1484 -3.4827,-1.7633 -5.5885,-1.5554 -3.7346,0.3708 -6.7313,3.391 -7.1003,7.1436 -0.099,0.9766 -0.018,1.9079 0.2069,2.7941 C 4.97834,23.6305 0.0917969,28.649 0.0917969,34.807 c 0,0.5606 0.0449961,1.1031 0.1169891,1.6457 0.035996,0.2623 0.260976,0.4521 0.521951,0.4521 L 50.397,36.9139 c 0.0091,0 0.0091,0 0.0181,0 0.279,-0.0091 0.5309,-0.1989 0.6119,-0.4793 z"
       fill="#f6821f"
       id="path1" />
    <path
       d="m 59.9905,17.7363 c -0.2519,0 -0.495,0.0091 -0.7469,0.0181 -0.045,0 -0.081,0.009 -0.117,0.0271 -0.126,0.0452 -0.234,0.1537 -0.2699,0.2894 l -1.0619,3.6712 c -0.4591,1.5734 -0.288,3.0382 0.4769,4.1052 0.7019,0.9857 1.8718,1.5644 3.2937,1.6368 l 5.7325,0.3436 c 0.1709,0.009 0.315,0.0904 0.4049,0.226 0.099,0.1357 0.117,0.3165 0.063,0.4884 -0.09,0.2621 -0.351,0.4701 -0.6209,0.4792 l -5.9575,0.3436 c -3.2307,0.1537 -6.7224,2.776 -7.9463,5.9771 l -0.4319,1.1302 c -0.081,0.2081 0.072,0.4251 0.2789,0.4341 0.0091,0 0.0091,0 0.0181,0 h 20.5091 c 0.243,0 0.4589,-0.1628 0.531,-0.3978 0.3599,-1.2751 0.5489,-2.6133 0.5489,-4.0058 0,-8.1473 -6.5874,-14.7664 -14.7047,-14.7664 z"
       fill="#fbad41"
       id="path2" />
  </g>
  <g
     id="g12"
     transform="matrix(1.5524616,0,0,1.5524616,-92.535724,153.00794)">
    <path
       d="m 97.3086,24.3633 h 3.3924 v 9.3227 h 5.94 v 2.9841 h -9.3324 z"
       fill="#000000"
       id="path3" />
    <path
       d="m 110.16,30.5496 v -0.0362 c 0,-3.5356 2.835,-6.4021 6.614,-6.4021 3.781,0 6.579,2.8304 6.579,6.366 v 0.0361 c 0,3.5356 -2.834,6.4021 -6.614,6.4021 -3.78,0 -6.579,-2.8303 -6.579,-6.3659 z m 9.728,0 v -0.0362 c 0,-1.7723 -1.277,-3.3276 -3.149,-3.3276 -1.854,0 -3.096,1.5101 -3.096,3.2915 v 0.0361 c 0,1.7723 1.278,3.3276 3.131,3.3276 1.873,0 3.114,-1.51 3.114,-3.2914 z"
       fill="#000000"
       id="path4" />
    <path
       d="m 127.51,31.2716 v -6.9083 h 3.446 v 6.8451 c 0,1.7723 0.891,2.6223 2.259,2.6223 1.367,0 2.259,-0.8047 2.259,-2.5318 v -6.9266 h 3.446 v 6.827 c 0,3.9787 -2.258,5.7149 -5.741,5.7149 -3.483,-0.0181 -5.669,-1.7904 -5.669,-5.6426 z"
       fill="#000000"
       id="path5" />
    <path
       d="m 144.123,24.3633 h 4.724 c 4.375,0 6.912,2.5318 6.912,6.0856 v 0.0361 c 0,3.5536 -2.574,6.1941 -6.984,6.1941 h -4.652 z m 4.779,9.2865 c 2.033,0 3.375,-1.1212 3.375,-3.1106 v -0.0361 c 0,-1.9712 -1.35,-3.1106 -3.375,-3.1106 h -1.386 v 6.2573 z"
       fill="#000000"
       id="path6" />
    <path
       d="m 160.689,24.3633 h 9.81 v 2.984 h -6.407 v 2.0978 h 5.795 v 2.8303 h -5.795 v 4.3947 h -3.403 z"
       fill="#000000"
       id="path7" />
    <path
       d="m 175.225,24.3633 h 3.392 v 9.3227 h 5.931 v 2.9841 h -9.323 z"
       fill="#000000"
       id="path8" />
    <path
       d="m 193.429,24.2734 h 3.276 l 5.219,12.3972 h -3.645 l -0.891,-2.1972 h -4.724 l -0.873,2.1972 h -3.572 z m 2.97,7.5414 -1.368,-3.4994 -1.386,3.4994 z"
       fill="#000000"
       id="path9" />
    <path
       d="m 206.289,24.3633 h 5.796 c 1.871,0 3.168,0.4973 3.987,1.3382 0.719,0.7053 1.088,1.6548 1.088,2.8665 v 0.0362 c 0,1.8808 -0.999,3.1286 -2.519,3.7797 l 2.924,4.2952 h -3.923 l -2.467,-3.7255 h -1.493 v 3.7255 h -3.393 z m 5.633,5.9047 c 1.152,0 1.819,-0.5607 1.819,-1.4559 V 28.776 c 0,-0.9676 -0.703,-1.4558 -1.836,-1.4558 h -2.223 v 2.9568 h 2.24 z"
       fill="#000000"
       id="path10" />
    <path
       d="m 222.057,24.3633 h 9.853 v 2.9025 h -6.488 v 1.8628 h 5.876 v 2.6857 h -5.876 v 1.9531 H 232 v 2.9027 h -9.943 z"
       fill="#000000"
       id="path11" />
    <path
       d="m 89.8752,31.9964 c -0.477,1.0761 -1.4759,1.8446 -2.8078,1.8446 -1.8537,0 -3.1316,-1.5463 -3.1316,-3.3276 v -0.0361 c 0,-1.7723 1.2418,-3.2915 3.0957,-3.2915 1.3948,0 2.4657,0.8681 2.9157,2.0436 h 3.5816 c -0.5759,-2.9298 -3.1316,-5.1181 -6.4614,-5.1181 -3.7795,0 -6.6143,2.8665 -6.6143,6.4021 v 0.0362 c 0,3.5356 2.7987,6.3659 6.5784,6.3659 3.2307,0 5.7595,-2.1069 6.4254,-4.9281 h -3.5817 z"
       fill="#000000"
       id="path12" />
  </g>
  <defs
     id="defs12" />
</svg>
