<?xml version="1.0" encoding="UTF-8" standalone="no"?>
<svg
   fill="none"
   height="1000"
   width="1620"
   viewBox="0 0 1620 999.99999"
   version="1.1"
   id="svg27"
   sodipodi:docname="netlify-vs-cloudflare.svg"
   xml:space="preserve"
   inkscape:version="1.4.2 (f4327f4, 2025-05-13)"
   xmlns:inkscape="http://www.inkscape.org/namespaces/inkscape"
   xmlns:sodipodi="http://sodipodi.sourceforge.net/DTD/sodipodi-0.dtd"
   xmlns:xlink="http://www.w3.org/1999/xlink"
   xmlns="http://www.w3.org/2000/svg"
   xmlns:svg="http://www.w3.org/2000/svg"><defs
     id="defs27"><clipPath
       id="clip0_235_8"><rect
         width="512"
         height="208.12601"
         fill="#ffffff"
         id="rect13"
         x="0"
         y="0" /></clipPath><linearGradient
       id="a"
       gradientUnits="userSpaceOnUse"><stop
         style="stop-color:#fff;stop-opacity:1"
         offset="0"
         id="stop1-0" /><stop
         style="stop-color:#fff;stop-opacity:0"
         offset="1"
         id="stop2-9" /></linearGradient><linearGradient
       id="b"
       gradientUnits="userSpaceOnUse"><stop
         style="stop-color:#c0cdf9;stop-opacity:1"
         offset="0"
         id="stop3-4" /><stop
         style="stop-color:#07092d;stop-opacity:.28804347"
         offset="1"
         id="stop4-8" /></linearGradient><linearGradient
       x1="82.118591"
       y1="20"
       x2="60"
       y2="40"
       id="t"
       xlink:href="#b"
       gradientUnits="userSpaceOnUse" /><linearGradient
       x1="33"
       y1="35"
       x2="58"
       y2="60"
       id="u"
       xlink:href="#a"
       gradientUnits="userSpaceOnUse"
       gradientTransform="matrix(1.00918,0,0,1.00918,-0.3890738,-0.3831933)" /><linearGradient
       x1="60"
       y1="20"
       x2="90"
       y2="50"
       id="v"
       xlink:href="#a"
       gradientUnits="userSpaceOnUse" /><linearGradient
       x1="231.625"
       y1="195.1875"
       x2="231.75"
       y2="201.5"
       id="A"
       xlink:href="#a"
       gradientUnits="userSpaceOnUse" /><linearGradient
       x1="231.37646"
       y1="195.62132"
       x2="231.37646"
       y2="200.07138"
       id="B"
       xlink:href="#a"
       gradientUnits="userSpaceOnUse" /><linearGradient
       id="j"><stop
         style="stop-color:#fff;stop-opacity:.33004925"
         offset="0"
         id="stop17-6" /><stop
         style="stop-color:#fff;stop-opacity:0"
         offset="1"
         id="stop18" /></linearGradient><linearGradient
       x1="95.5"
       y1="208.16444"
       x2="153.5"
       y2="223.5"
       id="L"
       xlink:href="#a"
       gradientUnits="userSpaceOnUse" /><linearGradient
       x1="57.225197"
       y1="76.246338"
       x2="53.63158"
       y2="84.480316"
       id="M"
       xlink:href="#n"
       gradientUnits="userSpaceOnUse"
       gradientTransform="matrix(0.88526,0,0,0.88526,5.1772151,9.2293372)" /><linearGradient
       id="n"><stop
         style="stop-color:#eeeeec;stop-opacity:1"
         offset="0"
         id="stop25" /><stop
         style="stop-color:#eeeeec;stop-opacity:0"
         offset="1"
         id="stop26" /></linearGradient><linearGradient
       x1="73.712105"
       y1="180.47572"
       x2="82.754066"
       y2="187.65974"
       id="O"
       xlink:href="#a"
       gradientUnits="userSpaceOnUse"
       gradientTransform="matrix(0.4928,0,0,0.4928,-6.0003885,-9.7225182)" /><linearGradient
       id="p"><stop
         style="stop-color:#729fcf;stop-opacity:1"
         offset="0"
         id="stop29" /><stop
         style="stop-color:#729fcf;stop-opacity:0"
         offset="1"
         id="stop30" /></linearGradient><linearGradient
       x1="180.81293"
       y1="217.5"
       x2="153.70045"
       y2="144.5"
       id="P"
       xlink:href="#p"
       gradientUnits="userSpaceOnUse"
       gradientTransform="translate(-130.16572,-83.352786)" /><radialGradient
       cx="116.31038"
       cy="250.89737"
       r="30.599579"
       fx="116.31038"
       fy="250.89737"
       id="w"
       xlink:href="#a"
       gradientUnits="userSpaceOnUse"
       gradientTransform="matrix(1.57005,0,0,1.05093,-75.500107,-22.095908)" /><radialGradient
       cx="132.44434"
       cy="251.99396"
       r="30.599579"
       fx="132.44434"
       fy="251.99396"
       id="x"
       xlink:href="#a"
       gradientUnits="userSpaceOnUse"
       gradientTransform="matrix(2.00325,0,0,1.3409,-132.8752,-95.166065)" /><radialGradient
       cx="210.25"
       cy="168.5"
       r="34.25"
       fx="210.25"
       fy="168.5"
       id="y"
       xlink:href="#a"
       gradientUnits="userSpaceOnUse"
       gradientTransform="matrix(1,0,0,0.42336,0,97.164234)" /><radialGradient
       cx="217.5"
       cy="182.08189"
       r="34.25"
       fx="217.5"
       fy="182.08189"
       id="z"
       xlink:href="#a"
       gradientUnits="userSpaceOnUse"
       gradientTransform="matrix(1,0,0,0.42336,0,97.164234)" /><radialGradient
       cx="228.21875"
       cy="204.83229"
       r="14.09375"
       fx="228.21875"
       fy="204.83229"
       id="C"
       xlink:href="#a"
       gradientUnits="userSpaceOnUse"
       gradientTransform="matrix(1,0,0,0.14775,0,174.56924)" /><radialGradient
       cx="228.21875"
       cy="204.83229"
       r="14.09375"
       fx="228.21875"
       fy="204.83229"
       id="F"
       xlink:href="#a"
       gradientUnits="userSpaceOnUse"
       gradientTransform="matrix(1,0,0,0.14775,0,174.56924)" /><radialGradient
       cx="89.875"
       cy="187.86935"
       r="22.75"
       fx="89.875"
       fy="187.86935"
       id="G"
       xlink:href="#j"
       gradientUnits="userSpaceOnUse"
       gradientTransform="matrix(1,0,0,0.40708,0,115.76014)" /><radialGradient
       cx="90.28125"
       cy="230.83626"
       r="10.46875"
       fx="90.28125"
       fy="230.83626"
       id="J"
       xlink:href="#a"
       gradientUnits="userSpaceOnUse"
       gradientTransform="matrix(1.18507,-0.32836,0.12286,0.4434,-45.068314,152.92161)" /><radialGradient
       cx="68.39994"
       cy="21.225746"
       r="54.783398"
       fx="68.39994"
       fy="21.225746"
       id="K"
       xlink:href="#a"
       gradientUnits="userSpaceOnUse"
       gradientTransform="matrix(1.72215,0,0,1.69498,-49.39526,-14.078057)" /><radialGradient
       cx="181.22731"
       cy="214.55121"
       r="22.466398"
       fx="181.22731"
       fy="214.55121"
       id="N"
       xlink:href="#a"
       gradientUnits="userSpaceOnUse"
       gradientTransform="matrix(1.35152,0,0,1.71757,-63.705646,-153.95568)" /><filter
       id="q"
       color-interpolation-filters="sRGB"
       x="-0.017255854"
       y="-0.017528899"
       width="1.0345117"
       height="1.0350578"><feGaussianBlur
         stdDeviation=".80546496"
         id="feGaussianBlur30" /></filter><filter
       id="r"
       color-interpolation-filters="sRGB"
       x="-0.074775365"
       y="-0.075958553"
       width="1.1495507"
       height="1.1519171"><feGaussianBlur
         stdDeviation="3.4903482"
         id="feGaussianBlur31" /></filter><clipPath
       id="s"><use
         transform="translate(.00000101)"
         style="opacity:.25;fill:#fff;fill-opacity:1"
         width="400"
         height="300"
         xlink:href="#d"
         id="use31" /></clipPath><path
       d="M54.1 12.5 12.9 54.7C-2.7 70.3 23 69 32.3 74.9c4.3 2.8-13.8 6.4-10.1 10.1 3.6 3.7 21.7 7.1 25.3 10.7 3.6 3.7-7.3 7.6-3.7 11.3 3.5 3.7 11.9.2 13.4 8.6 1.1 6.2 15.4 3.1 21.8-2.2 4-3.4-6.9-3.4-3.3-7.1 9-9.1 17-4.1 20.3-12.5 1.8-4.5-13.6-7.7-9.5-10.6 9.8-6.9 45.8-10.4 29.2-27L73 12.5c-5.3-5-14-5-18.9 0zm-9.9 64.7c.9 0 30.8 4 19.3 7.1-4.4 1.2-24.6-7.1-19.3-7.1zm57.2 16.6c0 2.1 16.3 3.3 15.4-.5-1.3-6.4-13.6-5.9-15.4.5zm-69.5 11.1c3.7 3.2 9.3-.7 11.1-5.2-3.6-4.7-16.9.3-11.1 5.2zm67.5-6.7c-4.6 4.2.8 8.6 5.3 5.7 1.2-.8-.1-4.7-5.3-5.7z"
       id="d" /><clipPath
       id="clip0_235_8-8"><rect
         width="512"
         height="208.12601"
         fill="#ffffff"
         id="rect13-8"
         x="0"
         y="0" /></clipPath><radialGradient
       cx="116.31038"
       cy="250.89737"
       r="30.599579"
       fx="116.31038"
       fy="250.89737"
       id="w-7"
       xlink:href="#a"
       gradientUnits="userSpaceOnUse"
       gradientTransform="matrix(1.57005,0,0,1.05093,-75.500107,-22.095908)" /><radialGradient
       cx="132.44434"
       cy="251.99396"
       r="30.599579"
       fx="132.44434"
       fy="251.99396"
       id="x-6"
       xlink:href="#a"
       gradientUnits="userSpaceOnUse"
       gradientTransform="matrix(2.00325,0,0,1.3409,-132.8752,-95.166065)" /><radialGradient
       cx="210.25"
       cy="168.5"
       r="34.25"
       fx="210.25"
       fy="168.5"
       id="y-1"
       xlink:href="#a"
       gradientUnits="userSpaceOnUse"
       gradientTransform="matrix(1,0,0,0.42336,0,97.164234)" /><radialGradient
       cx="217.5"
       cy="182.08189"
       r="34.25"
       fx="217.5"
       fy="182.08189"
       id="z-4"
       xlink:href="#a"
       gradientUnits="userSpaceOnUse"
       gradientTransform="matrix(1,0,0,0.42336,0,97.164234)" /><radialGradient
       cx="228.21875"
       cy="204.83229"
       r="14.09375"
       fx="228.21875"
       fy="204.83229"
       id="C-2"
       xlink:href="#a"
       gradientUnits="userSpaceOnUse"
       gradientTransform="matrix(1,0,0,0.14775,0,174.56924)" /><radialGradient
       cx="228.21875"
       cy="204.83229"
       r="14.09375"
       fx="228.21875"
       fy="204.83229"
       id="F-3"
       xlink:href="#a"
       gradientUnits="userSpaceOnUse"
       gradientTransform="matrix(1,0,0,0.14775,0,174.56924)" /><radialGradient
       cx="89.875"
       cy="187.86935"
       r="22.75"
       fx="89.875"
       fy="187.86935"
       id="G-2"
       xlink:href="#j"
       gradientUnits="userSpaceOnUse"
       gradientTransform="matrix(1,0,0,0.40708,0,115.76014)" /><radialGradient
       cx="90.28125"
       cy="230.83626"
       r="10.46875"
       fx="90.28125"
       fy="230.83626"
       id="J-2"
       xlink:href="#a"
       gradientUnits="userSpaceOnUse"
       gradientTransform="matrix(1.18507,-0.32836,0.12286,0.4434,-45.068314,152.92161)" /><radialGradient
       cx="68.39994"
       cy="21.225746"
       r="54.783398"
       fx="68.39994"
       fy="21.225746"
       id="K-1"
       xlink:href="#a"
       gradientUnits="userSpaceOnUse"
       gradientTransform="matrix(1.72215,0,0,1.69498,-49.39526,-14.078057)" /><radialGradient
       cx="181.22731"
       cy="214.55121"
       r="22.466398"
       fx="181.22731"
       fy="214.55121"
       id="N-6"
       xlink:href="#a"
       gradientUnits="userSpaceOnUse"
       gradientTransform="matrix(1.35152,0,0,1.71757,-63.705646,-153.95568)" /><filter
       id="q-8"
       color-interpolation-filters="sRGB"
       x="-0.017255854"
       y="-0.017528899"
       width="1.0345117"
       height="1.0350578"><feGaussianBlur
         stdDeviation=".80546496"
         id="feGaussianBlur30-5" /></filter><filter
       id="r-7"
       color-interpolation-filters="sRGB"
       x="-0.074775368"
       y="-0.07595855"
       width="1.1495507"
       height="1.1519171"><feGaussianBlur
         stdDeviation="3.4903482"
         id="feGaussianBlur31-6" /></filter><clipPath
       id="s-1"><use
         transform="translate(1.01e-6)"
         style="opacity:0.25;fill:#ffffff;fill-opacity:1"
         width="400"
         height="300"
         xlink:href="#d-9"
         id="use31-8" /></clipPath><path
       d="M 54.1,12.5 12.9,54.7 C -2.7,70.3 23,69 32.3,74.9 36.6,77.7 18.5,81.3 22.2,85 c 3.6,3.7 21.7,7.1 25.3,10.7 3.6,3.7 -7.3,7.6 -3.7,11.3 3.5,3.7 11.9,0.2 13.4,8.6 1.1,6.2 15.4,3.1 21.8,-2.2 4,-3.4 -6.9,-3.4 -3.3,-7.1 9,-9.1 17,-4.1 20.3,-12.5 1.8,-4.5 -13.6,-7.7 -9.5,-10.6 9.8,-6.9 45.8,-10.4 29.2,-27 L 73,12.5 c -5.3,-5 -14,-5 -18.9,0 z m -9.9,64.7 c 0.9,0 30.8,4 19.3,7.1 -4.4,1.2 -24.6,-7.1 -19.3,-7.1 z m 57.2,16.6 c 0,2.1 16.3,3.3 15.4,-0.5 -1.3,-6.4 -13.6,-5.9 -15.4,0.5 z m -69.5,11.1 c 3.7,3.2 9.3,-0.7 11.1,-5.2 -3.6,-4.7 -16.9,0.3 -11.1,5.2 z m 67.5,-6.7 c -4.6,4.2 0.8,8.6 5.3,5.7 1.2,-0.8 -0.1,-4.7 -5.3,-5.7 z"
       id="d-9" /><g
       id="SVG"
       fill="#ffffff"
       transform="scale(2) translate(20,79)"><path
         id="S"
         d="M 5.482,31.319 C2.163,28.001 0.109,23.419 0.109,18.358 C0.109,8.232 8.322,0.024 18.443,0.024 C28.569,0.024 36.782,8.232 36.782,18.358 L26.042,18.358 C26.042,14.164 22.638,10.765 18.443,10.765 C14.249,10.765 10.850,14.164 10.850,18.358 C10.850,20.453 11.701,22.351 13.070,23.721 L13.075,23.721 C14.450,25.101 15.595,25.500 18.443,25.952 L18.443,25.952 C23.509,26.479 28.091,28.006 31.409,31.324 L31.409,31.324 C34.728,34.643 36.782,39.225 36.782,44.286 C36.782,54.412 28.569,62.625 18.443,62.625 C8.322,62.625 0.109,54.412 0.109,44.286 L10.850,44.286 C10.850,48.480 14.249,51.884 18.443,51.884 C22.638,51.884 26.042,48.480 26.042,44.286 C26.042,42.191 25.191,40.298 23.821,38.923 L23.816,38.923 C22.441,37.548 20.468,37.074 18.443,36.697 L18.443,36.692 C13.533,35.939 8.800,34.638 5.482,31.319 L5.482,31.319 L5.482,31.319 Z" /><path
         id="V"
         d="M 73.452,0.024 L60.482,62.625 L49.742,62.625 L36.782,0.024 L47.522,0.024 L55.122,36.687 L62.712,0.024 L73.452,0.024 Z" /><path
         id="G-24"
         d="M 91.792,25.952 L110.126,25.952 L110.126,44.286 L110.131,44.286 C110.131,54.413 101.918,62.626 91.792,62.626 C81.665,62.626 73.458,54.413 73.458,44.286 L73.458,44.286 L73.458,18.359 L73.453,18.359 C73.453,8.233 81.665,0.025 91.792,0.025 C101.913,0.025 110.126,8.233 110.126,18.359 L99.385,18.359 C99.385,14.169 95.981,10.765 91.792,10.765 C87.597,10.765 84.198,14.169 84.198,18.359 L84.198,44.286 L84.198,44.286 C84.198,48.481 87.597,51.880 91.792,51.880 C95.981,51.880 99.380,48.481 99.385,44.291 L99.385,44.286 L99.385,36.698 L91.792,36.698 L91.792,25.952 L91.792,25.952 Z" /></g><clipPath
       id="clip0_235_8-86"><rect
         width="512"
         height="208.12601"
         fill="#ffffff"
         id="rect13-5"
         x="0"
         y="0" /></clipPath><radialGradient
       cx="116.31038"
       cy="250.89737"
       r="30.599579"
       fx="116.31038"
       fy="250.89737"
       id="w-4"
       xlink:href="#a"
       gradientUnits="userSpaceOnUse"
       gradientTransform="matrix(1.57005,0,0,1.05093,-75.500107,-22.095908)" /><radialGradient
       cx="132.44434"
       cy="251.99396"
       r="30.599579"
       fx="132.44434"
       fy="251.99396"
       id="x-4"
       xlink:href="#a"
       gradientUnits="userSpaceOnUse"
       gradientTransform="matrix(2.00325,0,0,1.3409,-132.8752,-95.166065)" /><radialGradient
       cx="210.25"
       cy="168.5"
       r="34.25"
       fx="210.25"
       fy="168.5"
       id="y-6"
       xlink:href="#a"
       gradientUnits="userSpaceOnUse"
       gradientTransform="matrix(1,0,0,0.42336,0,97.164234)" /><radialGradient
       cx="217.5"
       cy="182.08189"
       r="34.25"
       fx="217.5"
       fy="182.08189"
       id="z-0"
       xlink:href="#a"
       gradientUnits="userSpaceOnUse"
       gradientTransform="matrix(1,0,0,0.42336,0,97.164234)" /><radialGradient
       cx="228.21875"
       cy="204.83229"
       r="14.09375"
       fx="228.21875"
       fy="204.83229"
       id="C-6"
       xlink:href="#a"
       gradientUnits="userSpaceOnUse"
       gradientTransform="matrix(1,0,0,0.14775,0,174.56924)" /><radialGradient
       cx="228.21875"
       cy="204.83229"
       r="14.09375"
       fx="228.21875"
       fy="204.83229"
       id="F-6"
       xlink:href="#a"
       gradientUnits="userSpaceOnUse"
       gradientTransform="matrix(1,0,0,0.14775,0,174.56924)" /><radialGradient
       cx="89.875"
       cy="187.86935"
       r="22.75"
       fx="89.875"
       fy="187.86935"
       id="G-0"
       xlink:href="#j"
       gradientUnits="userSpaceOnUse"
       gradientTransform="matrix(1,0,0,0.40708,0,115.76014)" /><radialGradient
       cx="90.28125"
       cy="230.83626"
       r="10.46875"
       fx="90.28125"
       fy="230.83626"
       id="J-1"
       xlink:href="#a"
       gradientUnits="userSpaceOnUse"
       gradientTransform="matrix(1.18507,-0.32836,0.12286,0.4434,-45.068314,152.92161)" /><radialGradient
       cx="68.39994"
       cy="21.225746"
       r="54.783398"
       fx="68.39994"
       fy="21.225746"
       id="K-8"
       xlink:href="#a"
       gradientUnits="userSpaceOnUse"
       gradientTransform="matrix(1.72215,0,0,1.69498,-49.39526,-14.078057)" /><radialGradient
       cx="181.22731"
       cy="214.55121"
       r="22.466398"
       fx="181.22731"
       fy="214.55121"
       id="N-4"
       xlink:href="#a"
       gradientUnits="userSpaceOnUse"
       gradientTransform="matrix(1.35152,0,0,1.71757,-63.705646,-153.95568)" /><filter
       id="q-9"
       color-interpolation-filters="sRGB"
       x="-0.017255854"
       y="-0.017528899"
       width="1.0345117"
       height="1.0350578"><feGaussianBlur
         stdDeviation=".80546496"
         id="feGaussianBlur30-6" /></filter><filter
       id="r-3"
       color-interpolation-filters="sRGB"
       x="-0.074775368"
       y="-0.07595855"
       width="1.1495507"
       height="1.1519171"><feGaussianBlur
         stdDeviation="3.4903482"
         id="feGaussianBlur31-7" /></filter><clipPath
       id="s-8"><use
         transform="translate(1.01e-6)"
         style="opacity:0.25;fill:#ffffff;fill-opacity:1"
         width="400"
         height="300"
         xlink:href="#d-91"
         id="use31-82" /></clipPath><path
       d="M 54.1,12.5 12.9,54.7 C -2.7,70.3 23,69 32.3,74.9 36.6,77.7 18.5,81.3 22.2,85 c 3.6,3.7 21.7,7.1 25.3,10.7 3.6,3.7 -7.3,7.6 -3.7,11.3 3.5,3.7 11.9,0.2 13.4,8.6 1.1,6.2 15.4,3.1 21.8,-2.2 4,-3.4 -6.9,-3.4 -3.3,-7.1 9,-9.1 17,-4.1 20.3,-12.5 1.8,-4.5 -13.6,-7.7 -9.5,-10.6 9.8,-6.9 45.8,-10.4 29.2,-27 L 73,12.5 c -5.3,-5 -14,-5 -18.9,0 z m -9.9,64.7 c 0.9,0 30.8,4 19.3,7.1 -4.4,1.2 -24.6,-7.1 -19.3,-7.1 z m 57.2,16.6 c 0,2.1 16.3,3.3 15.4,-0.5 -1.3,-6.4 -13.6,-5.9 -15.4,0.5 z m -69.5,11.1 c 3.7,3.2 9.3,-0.7 11.1,-5.2 -3.6,-4.7 -16.9,0.3 -11.1,5.2 z m 67.5,-6.7 c -4.6,4.2 0.8,8.6 5.3,5.7 1.2,-0.8 -0.1,-4.7 -5.3,-5.7 z"
       id="d-91" /><clipPath
       id="a-7"><path
         d="m 159,0.79 h 25 V 69 h -25 z m 0,0"
         id="path1-6" /></clipPath><clipPath
       id="b-3"><path
         d="m 183,9 h 35.371 V 69 H 183 Z m 0,0"
         id="path2-6" /></clipPath><clipPath
       id="c"><path
         d="M 0,0.79 H 92 V 92 H 0 Z m 0,0"
         id="path3-1" /></clipPath><clipPath
       id="clip0_235_8-5"><rect
         width="512"
         height="208.12601"
         fill="#ffffff"
         id="rect13-4"
         x="0"
         y="0" /></clipPath><linearGradient
       x1="82.118591"
       y1="20"
       x2="60"
       y2="40"
       id="t-3"
       xlink:href="#b"
       gradientUnits="userSpaceOnUse" /><linearGradient
       x1="33"
       y1="35"
       x2="58"
       y2="60"
       id="u-7"
       xlink:href="#a"
       gradientUnits="userSpaceOnUse"
       gradientTransform="matrix(1.00918,0,0,1.00918,-0.3890738,-0.3831933)" /><linearGradient
       x1="60"
       y1="20"
       x2="90"
       y2="50"
       id="v-2"
       xlink:href="#a"
       gradientUnits="userSpaceOnUse" /><linearGradient
       x1="231.625"
       y1="195.1875"
       x2="231.75"
       y2="201.5"
       id="A-6"
       xlink:href="#a"
       gradientUnits="userSpaceOnUse" /><linearGradient
       x1="231.37646"
       y1="195.62132"
       x2="231.37646"
       y2="200.07138"
       id="B-0"
       xlink:href="#a"
       gradientUnits="userSpaceOnUse" /><linearGradient
       x1="95.5"
       y1="208.16444"
       x2="153.5"
       y2="223.5"
       id="L-5"
       xlink:href="#a"
       gradientUnits="userSpaceOnUse" /><linearGradient
       x1="57.225197"
       y1="76.246338"
       x2="53.63158"
       y2="84.480316"
       id="M-7"
       xlink:href="#n"
       gradientUnits="userSpaceOnUse"
       gradientTransform="matrix(0.88526,0,0,0.88526,5.1772151,9.2293372)" /><linearGradient
       x1="73.712105"
       y1="180.47572"
       x2="82.754066"
       y2="187.65974"
       id="O-1"
       xlink:href="#a"
       gradientUnits="userSpaceOnUse"
       gradientTransform="matrix(0.4928,0,0,0.4928,-6.0003885,-9.7225182)" /><linearGradient
       x1="180.81293"
       y1="217.5"
       x2="153.70045"
       y2="144.5"
       id="P-0"
       xlink:href="#p"
       gradientUnits="userSpaceOnUse"
       gradientTransform="translate(-130.16572,-83.352786)" /><radialGradient
       cx="116.31038"
       cy="250.89737"
       r="30.599579"
       fx="116.31038"
       fy="250.89737"
       id="w-1"
       xlink:href="#a"
       gradientUnits="userSpaceOnUse"
       gradientTransform="matrix(1.57005,0,0,1.05093,-75.500107,-22.095908)" /><radialGradient
       cx="132.44434"
       cy="251.99396"
       r="30.599579"
       fx="132.44434"
       fy="251.99396"
       id="x-46"
       xlink:href="#a"
       gradientUnits="userSpaceOnUse"
       gradientTransform="matrix(2.00325,0,0,1.3409,-132.8752,-95.166065)" /><radialGradient
       cx="210.25"
       cy="168.5"
       r="34.25"
       fx="210.25"
       fy="168.5"
       id="y-0"
       xlink:href="#a"
       gradientUnits="userSpaceOnUse"
       gradientTransform="matrix(1,0,0,0.42336,0,97.164234)" /><radialGradient
       cx="217.5"
       cy="182.08189"
       r="34.25"
       fx="217.5"
       fy="182.08189"
       id="z-7"
       xlink:href="#a"
       gradientUnits="userSpaceOnUse"
       gradientTransform="matrix(1,0,0,0.42336,0,97.164234)" /><radialGradient
       cx="228.21875"
       cy="204.83229"
       r="14.09375"
       fx="228.21875"
       fy="204.83229"
       id="C-1"
       xlink:href="#a"
       gradientUnits="userSpaceOnUse"
       gradientTransform="matrix(1,0,0,0.14775,0,174.56924)" /><radialGradient
       cx="228.21875"
       cy="204.83229"
       r="14.09375"
       fx="228.21875"
       fy="204.83229"
       id="F-7"
       xlink:href="#a"
       gradientUnits="userSpaceOnUse"
       gradientTransform="matrix(1,0,0,0.14775,0,174.56924)" /><radialGradient
       cx="89.875"
       cy="187.86935"
       r="22.75"
       fx="89.875"
       fy="187.86935"
       id="G-7"
       xlink:href="#j"
       gradientUnits="userSpaceOnUse"
       gradientTransform="matrix(1,0,0,0.40708,0,115.76014)" /><radialGradient
       cx="90.28125"
       cy="230.83626"
       r="10.46875"
       fx="90.28125"
       fy="230.83626"
       id="J-7"
       xlink:href="#a"
       gradientUnits="userSpaceOnUse"
       gradientTransform="matrix(1.18507,-0.32836,0.12286,0.4434,-45.068314,152.92161)" /><radialGradient
       cx="68.39994"
       cy="21.225746"
       r="54.783398"
       fx="68.39994"
       fy="21.225746"
       id="K-7"
       xlink:href="#a"
       gradientUnits="userSpaceOnUse"
       gradientTransform="matrix(1.72215,0,0,1.69498,-49.39526,-14.078057)" /><radialGradient
       cx="181.22731"
       cy="214.55121"
       r="22.466398"
       fx="181.22731"
       fy="214.55121"
       id="N-3"
       xlink:href="#a"
       gradientUnits="userSpaceOnUse"
       gradientTransform="matrix(1.35152,0,0,1.71757,-63.705646,-153.95568)" /><filter
       id="q-3"
       color-interpolation-filters="sRGB"
       x="-0.017255854"
       y="-0.017528899"
       width="1.0345117"
       height="1.0350578"><feGaussianBlur
         stdDeviation=".80546496"
         id="feGaussianBlur30-59" /></filter><filter
       id="r-9"
       color-interpolation-filters="sRGB"
       x="-0.074775368"
       y="-0.07595855"
       width="1.1495507"
       height="1.1519171"><feGaussianBlur
         stdDeviation="3.4903482"
         id="feGaussianBlur31-8" /></filter><clipPath
       id="s-18"><use
         transform="translate(1.01e-6)"
         style="opacity:0.25;fill:#ffffff;fill-opacity:1"
         width="400"
         height="300"
         xlink:href="#d-6"
         id="use31-2" /></clipPath><path
       d="M 54.1,12.5 12.9,54.7 C -2.7,70.3 23,69 32.3,74.9 36.6,77.7 18.5,81.3 22.2,85 c 3.6,3.7 21.7,7.1 25.3,10.7 3.6,3.7 -7.3,7.6 -3.7,11.3 3.5,3.7 11.9,0.2 13.4,8.6 1.1,6.2 15.4,3.1 21.8,-2.2 4,-3.4 -6.9,-3.4 -3.3,-7.1 9,-9.1 17,-4.1 20.3,-12.5 1.8,-4.5 -13.6,-7.7 -9.5,-10.6 9.8,-6.9 45.8,-10.4 29.2,-27 L 73,12.5 c -5.3,-5 -14,-5 -18.9,0 z m -9.9,64.7 c 0.9,0 30.8,4 19.3,7.1 -4.4,1.2 -24.6,-7.1 -19.3,-7.1 z m 57.2,16.6 c 0,2.1 16.3,3.3 15.4,-0.5 -1.3,-6.4 -13.6,-5.9 -15.4,0.5 z m -69.5,11.1 c 3.7,3.2 9.3,-0.7 11.1,-5.2 -3.6,-4.7 -16.9,0.3 -11.1,5.2 z m 67.5,-6.7 c -4.6,4.2 0.8,8.6 5.3,5.7 1.2,-0.8 -0.1,-4.7 -5.3,-5.7 z"
       id="d-6" /></defs><sodipodi:namedview
     id="namedview27"
     pagecolor="#ffffff"
     bordercolor="#000000"
     borderopacity="0.25"
     inkscape:showpageshadow="2"
     inkscape:pageopacity="0.0"
     inkscape:pagecheckerboard="0"
     inkscape:deskcolor="#d1d1d1"
     inkscape:zoom="0.28491212"
     inkscape:cx="694.95113"
     inkscape:cy="468.56554"
     inkscape:window-width="1589"
     inkscape:window-height="1007"
     inkscape:window-x="926"
     inkscape:window-y="263"
     inkscape:window-maximized="0"
     inkscape:current-layer="svg27" /><radialGradient
     id="logo-bottom-left"
     cx="0"
     cy="0"
     gradientTransform="matrix(-59,-225,150,-39,161.4,470)"
     gradientUnits="userSpaceOnUse"
     r="1"><stop
       offset="0"
       stop-color="#fff"
       stop-opacity=".4"
       id="stop1" /><stop
       offset="1"
       stop-opacity=".1"
       id="stop2" /></radialGradient><radialGradient
     id="logo-top-right"
     cx="0"
     cy="0"
     gradientTransform="matrix(50,-379,280,37,360,374.2)"
     gradientUnits="userSpaceOnUse"
     r="1"><stop
       offset="0"
       stop-color="#fff"
       stop-opacity=".6"
       id="stop3" /><stop
       offset="1"
       stop-color="#fff"
       stop-opacity=".1"
       id="stop4" /></radialGradient><radialGradient
     id="logo-top-left"
     cx="0"
     cy="0"
     gradientTransform="matrix(69,-319,218,47,175.4,307)"
     gradientUnits="userSpaceOnUse"
     r="1"><stop
       offset="0"
       stop-color="#fff"
       stop-opacity=".8"
       id="stop5" /><stop
       offset="1"
       stop-color="#fff"
       stop-opacity=".4"
       id="stop6" /></radialGradient><radialGradient
     id="logo-bottom-right"
     cx="0"
     cy="0"
     gradientTransform="matrix(-96,-163,187,-111,335.3,512.2)"
     gradientUnits="userSpaceOnUse"
     r="1"><stop
       offset="0"
       stop-color="#fff"
       stop-opacity=".3"
       id="stop7" /><stop
       offset="1"
       stop-opacity=".3"
       id="stop8" /></radialGradient><radialGradient
     id="logo-top-edge"
     cx="0"
     cy="0"
     gradientTransform="matrix(-36,166,-112,-24,310,128.2)"
     gradientUnits="userSpaceOnUse"
     r="1"><stop
       offset="0"
       stop-color="#fff"
       stop-opacity="0"
       id="stop9" /><stop
       offset="1"
       stop-color="#fff"
       stop-opacity=".2"
       id="stop10" /></radialGradient><radialGradient
     id="logo-left-edge"
     cx="0"
     cy="0"
     gradientTransform="matrix(88,89,-190,187,111,220.2)"
     gradientUnits="userSpaceOnUse"
     r="1"><stop
       offset="0"
       stop-color="#fff"
       stop-opacity=".2"
       id="stop11" /><stop
       offset="1"
       stop-color="#fff"
       stop-opacity=".4"
       id="stop12" /></radialGradient><radialGradient
     id="logo-bottom-edge"
     cx="0"
     cy="0"
     gradientTransform="matrix(9,130,-276,20,215,284)"
     gradientUnits="userSpaceOnUse"
     r="1"><stop
       offset="0"
       stop-color="#fff"
       stop-opacity=".2"
       id="stop13" /><stop
       offset="1"
       stop-color="#fff"
       stop-opacity=".3"
       id="stop14" /></radialGradient><radialGradient
     id="logo-middle-edge"
     cx="0"
     cy="0"
     gradientTransform="matrix(-198,-104,327,-623,400,399.2)"
     gradientUnits="userSpaceOnUse"
     r="1"><stop
       offset="0"
       stop-color="#fff"
       stop-opacity=".2"
       id="stop15" /><stop
       offset=".5"
       stop-color="#fff"
       stop-opacity=".2"
       id="stop16" /><stop
       offset="1"
       stop-color="#fff"
       stop-opacity=".3"
       id="stop17" /></radialGradient><clipPath
     id="clip"><path
       d="m 0.2,0.2 h 512 v 512 H 0.2 Z"
       id="path17" /></clipPath><rect
     style="fill:#808080;fill-opacity:0.251121;stroke-width:10.7112;stroke-linecap:round"
     id="background-rectangle"
     height="1007.4278"
     x="0.2"
     y="0.2"
     ry="0"
     width="1617.9611"
     sodipodi:insensitive="true" /><style
     type="text/css"
     id="style1">
	.st0{fill-rule:evenodd;clip-rule:evenodd;fill:#FF4088;stroke:#C9177E;stroke-width:27;}
	.st1{fill-rule:evenodd;clip-rule:evenodd;fill:#FFFFFF;}
</style><style
     type="text/css"
     id="style1-8">
	.st0{fill-rule:evenodd;clip-rule:evenodd;fill:#FF4088;stroke:#C9177E;stroke-width:27;}
	.st1{fill-rule:evenodd;clip-rule:evenodd;fill:#FFFFFF;}
</style><style
     type="text/css"
     id="style1-9">
	.st0{fill-rule:evenodd;clip-rule:evenodd;fill:#FF4088;stroke:#C9177E;stroke-width:27;}
	.st1{fill-rule:evenodd;clip-rule:evenodd;fill:#FFFFFF;}
</style><style
     type="text/css"
     id="style1-0">
	.st0{fill-rule:evenodd;clip-rule:evenodd;fill:#FF4088;stroke:#C9177E;stroke-width:27;}
	.st1{fill-rule:evenodd;clip-rule:evenodd;fill:#FFFFFF;}
</style><g
     id="netlify-group"
     transform="matrix(0.83881104,0,0,0.83881104,-712.04087,229.12201)"><circle
       style="fill:#ffffff;fill-opacity:1;stroke-width:11.3386;stroke-linecap:round"
       id="path14-5"
       cx="1308.0405"
       cy="322.93088"
       r="230.75903" /><g
       clip-path="url(#clip0_235_8)"
       id="netlify"
       transform="matrix(0.84973224,0,0,0.84973224,1094.3658,246.13296)"><path
         d="m 117.436,207.036 v -52.432 l 1.093,-1.094 h 10.923 l 1.093,1.094 v 52.432 l -1.093,1.094 h -10.923 z"
         fill="#05bdba"
         id="path1-2" /><path
         d="M 117.436,53.5225 V 1.09339 L 118.529,0 h 10.923 l 1.093,1.09339 V 53.5225 l -1.093,1.0934 h -10.923 z"
         fill="#05bdba"
         id="path2" /><path
         d="m 69.9539,169.238 h -1.5445 l -7.7225,-7.726 v -1.545 l 18.0332,-18.029 8.1775,0.004 1.0972,1.089 v 8.178 z"
         fill="#05bdba"
         id="path3" /><path
         d="m 69.9462,38.8917 h -1.5445 l -7.7225,7.7264 v 1.5445 l 18.0332,18.0294 8.1775,-0.0038 1.0972,-1.0896 v -8.1774 z"
         fill="#05bdba"
         id="path4" /><path
         d="M 1.09339,97.5104 H 75.3711 l 1.0934,1.0934 v 10.9222 l -1.0934,1.094 H 1.09339 L 0,109.526 V 98.6038 Z"
         fill="#05bdba"
         id="path5" /><path
         d="m 440.999,97.5104 h 69.911 l 1.094,1.0934 v 10.9222 l -1.094,1.094 h -74.277 l -1.094,-1.094 4.366,-10.9222 z"
         fill="#05bdba"
         id="path6" /><path
         d="m 212.056,108.727 -1.093,1.094 h -33.884 l -1.093,1.093 c 0,2.187 2.187,8.743 10.93,8.743 3.28,0 6.556,-1.093 7.65,-3.28 l 1.093,-1.093 h 13.117 l 1.093,1.093 c -1.093,6.557 -6.556,16.397 -22.953,16.397 -18.58,0 -27.327,-13.117 -27.327,-28.417 0,-15.2994 8.743,-28.4162 26.233,-28.4162 17.491,0 26.234,13.1168 26.234,28.4162 v 4.374 z M 195.659,97.7971 c 0,-1.0934 -1.093,-8.7433 -9.837,-8.7433 -8.743,0 -9.836,7.6499 -9.836,8.7433 l 1.093,1.0934 h 17.487 z"
         fill="#014847"
         id="path7" /><path
         d="m 242.66,115.284 c 0,2.186 1.093,3.28 3.28,3.28 h 9.836 l 1.094,1.093 v 10.93 l -1.094,1.094 h -9.836 c -9.837,0 -18.58,-4.374 -18.58,-16.397 V 91.2368 l -1.094,-1.0934 h -7.649 L 217.523,89.05 V 78.1199 l 1.094,-1.0934 h 7.649 l 1.094,-1.0933 v -9.8367 l 1.093,-1.0934 h 13.117 l 1.093,1.0934 v 9.8367 l 1.094,1.0933 h 12.023 l 1.094,1.0934 V 89.05 l -1.094,1.0934 h -12.023 l -1.094,1.0934 v 24.0472 z"
         fill="#014847"
         id="path8" /><path
         d="m 283.1,131.681 h -13.117 l -1.094,-1.094 V 56.2636 l 1.094,-1.0934 H 283.1 l 1.093,1.0934 v 74.3234 z"
         fill="#014847"
         id="path9" /><path
         d="m 312.61,68.2871 h -13.117 l -1.094,-1.0934 V 56.2636 l 1.094,-1.0934 h 13.117 l 1.093,1.0934 v 10.9301 z m 0,63.3939 h -13.117 l -1.094,-1.094 V 78.1237 l 1.094,-1.0933 h 13.117 l 1.093,1.0933 v 52.4633 z"
         fill="#014847"
         id="path10" /><path
         d="m 363.98,56.2636 v 10.9301 l -1.094,1.0934 h -9.836 c -2.187,0 -3.281,1.0934 -3.281,3.2801 v 4.3736 l 1.094,1.0934 h 10.93 l 1.093,1.0934 v 10.93 l -1.093,1.0934 h -10.93 l -1.094,1.0934 v 39.3466 l -1.093,1.093 h -13.117 l -1.093,-1.093 V 91.2444 l -1.094,-1.0934 h -7.649 l -1.094,-1.0934 v -10.93 l 1.094,-1.0934 h 7.649 l 1.094,-1.0934 v -4.3736 c 0,-12.0234 8.743,-16.397 18.58,-16.397 h 9.836 l 1.094,1.0934 z"
         fill="#014847"
         id="path11" /><path
         d="m 404.42,132.774 c -4.374,10.93 -8.743,17.487 -24.047,17.487 h -5.467 l -1.093,-1.094 v -10.93 l 1.093,-1.093 h 5.467 c 5.463,0 6.556,-1.094 7.65,-4.374 v -1.093 L 370.536,89.05 V 78.1199 l 1.094,-1.0934 h 9.836 l 1.094,1.0934 13.117,37.1641 h 1.093 l 13.117,-37.1641 1.093,-1.0934 h 9.837 l 1.093,1.0934 V 89.05 l -17.486,43.72 z"
         fill="#014847"
         id="path12" /><path
         d="m 135.454,131.681 -1.093,-1.094 0.007,-31.6698 c 0,-5.4631 -2.148,-9.699 -8.743,-9.8366 -3.391,-0.088 -7.271,-0.0077 -11.416,0.1682 l -0.619,0.6346 0.008,40.7036 -1.094,1.094 H 99.3913 l -1.0934,-1.094 V 77.5388 l 1.0934,-1.0934 29.5097,-0.2676 c 14.784,0 20.767,10.1578 20.767,21.6231 v 32.7861 l -1.093,1.094 z"
         fill="#014847"
         id="path13" /></g></g><g
     style="fill:none"
     id="g16"
     transform="matrix(1.2904216,0,0,1.2904215,1041.2788,306.43677)"><path
       id="path13-0"
       style="fill:#ffffff;stroke-width:20.7816;stroke-linecap:round"
       d="M 300,150 A 150,150 0 0 1 150.00086,300 150,150 0 0 1 0,150.00171 150,150 0 0 1 149.99744,2.1846011e-8 150,150 0 0 1 300,149.99658 l -150,0.003 z" /><g
       id="g13"
       transform="matrix(3.164141,0,0,3.164141,31.681701,61.206433)"><path
         d="m 51.027,36.4346 0.378,-1.3292 c 0.4589,-1.5734 0.2879,-3.0383 -0.477,-4.1053 -0.7019,-0.9857 -1.8718,-1.5643 -3.2937,-1.6366 L 20.7268,29.0199 c -0.1799,-0.0091 -0.3329,-0.0905 -0.4229,-0.2262 -0.09,-0.1356 -0.117,-0.3165 -0.0539,-0.4883 0.0899,-0.2622 0.3509,-0.4701 0.6209,-0.4792 l 27.1503,-0.3436 c 3.2218,-0.1447 6.7045,-2.776 7.9284,-5.9771 l 1.5478,-4.0691 c 0.045,-0.1085 0.063,-0.226 0.063,-0.3436 0,-0.0633 -0.009,-0.1266 -0.018,-0.1899 C 55.7966,8.95458 48.7322,3.01367 40.3,3.01367 c -7.7752,0 -14.3806,5.0457 -16.7474,12.05363 -1.5299,-1.1484 -3.4827,-1.7633 -5.5885,-1.5554 -3.7346,0.3708 -6.7313,3.391 -7.1003,7.1436 -0.099,0.9766 -0.018,1.9079 0.2069,2.7941 C 4.97834,23.6305 0.0917969,28.649 0.0917969,34.807 c 0,0.5606 0.0449961,1.1031 0.1169891,1.6457 0.035996,0.2623 0.260976,0.4521 0.521951,0.4521 L 50.397,36.9139 c 0.0091,0 0.0091,0 0.0181,0 0.279,-0.0091 0.5309,-0.1989 0.6119,-0.4793 z"
         fill="#f6821f"
         id="path1" /><path
         d="m 59.9905,17.7363 c -0.2519,0 -0.495,0.0091 -0.7469,0.0181 -0.045,0 -0.081,0.009 -0.117,0.0271 -0.126,0.0452 -0.234,0.1537 -0.2699,0.2894 l -1.0619,3.6712 c -0.4591,1.5734 -0.288,3.0382 0.4769,4.1052 0.7019,0.9857 1.8718,1.5644 3.2937,1.6368 l 5.7325,0.3436 c 0.1709,0.009 0.315,0.0904 0.4049,0.226 0.099,0.1357 0.117,0.3165 0.063,0.4884 -0.09,0.2621 -0.351,0.4701 -0.6209,0.4792 l -5.9575,0.3436 c -3.2307,0.1537 -6.7224,2.776 -7.9463,5.9771 l -0.4319,1.1302 c -0.081,0.2081 0.072,0.4251 0.2789,0.4341 0.0091,0 0.0091,0 0.0181,0 h 20.5091 c 0.243,0 0.4589,-0.1628 0.531,-0.3978 0.3599,-1.2751 0.5489,-2.6133 0.5489,-4.0058 0,-8.1473 -6.5874,-14.7664 -14.7047,-14.7664 z"
         fill="#fbad41"
         id="path2-9" /></g><g
       id="g12"
       transform="matrix(1.5524616,0,0,1.5524616,-92.535724,153.00794)"><path
         d="m 97.3086,24.3633 h 3.3924 v 9.3227 h 5.94 v 2.9841 h -9.3324 z"
         fill="#000000"
         id="path3-4" /><path
         d="m 110.16,30.5496 v -0.0362 c 0,-3.5356 2.835,-6.4021 6.614,-6.4021 3.781,0 6.579,2.8304 6.579,6.366 v 0.0361 c 0,3.5356 -2.834,6.4021 -6.614,6.4021 -3.78,0 -6.579,-2.8303 -6.579,-6.3659 z m 9.728,0 v -0.0362 c 0,-1.7723 -1.277,-3.3276 -3.149,-3.3276 -1.854,0 -3.096,1.5101 -3.096,3.2915 v 0.0361 c 0,1.7723 1.278,3.3276 3.131,3.3276 1.873,0 3.114,-1.51 3.114,-3.2914 z"
         fill="#000000"
         id="path4-8" /><path
         d="m 127.51,31.2716 v -6.9083 h 3.446 v 6.8451 c 0,1.7723 0.891,2.6223 2.259,2.6223 1.367,0 2.259,-0.8047 2.259,-2.5318 v -6.9266 h 3.446 v 6.827 c 0,3.9787 -2.258,5.7149 -5.741,5.7149 -3.483,-0.0181 -5.669,-1.7904 -5.669,-5.6426 z"
         fill="#000000"
         id="path5-8" /><path
         d="m 144.123,24.3633 h 4.724 c 4.375,0 6.912,2.5318 6.912,6.0856 v 0.0361 c 0,3.5536 -2.574,6.1941 -6.984,6.1941 h -4.652 z m 4.779,9.2865 c 2.033,0 3.375,-1.1212 3.375,-3.1106 v -0.0361 c 0,-1.9712 -1.35,-3.1106 -3.375,-3.1106 h -1.386 v 6.2573 z"
         fill="#000000"
         id="path6-2" /><path
         d="m 160.689,24.3633 h 9.81 v 2.984 h -6.407 v 2.0978 h 5.795 v 2.8303 h -5.795 v 4.3947 h -3.403 z"
         fill="#000000"
         id="path7-4" /><path
         d="m 175.225,24.3633 h 3.392 v 9.3227 h 5.931 v 2.9841 h -9.323 z"
         fill="#000000"
         id="path8-5" /><path
         d="m 193.429,24.2734 h 3.276 l 5.219,12.3972 h -3.645 l -0.891,-2.1972 h -4.724 l -0.873,2.1972 h -3.572 z m 2.97,7.5414 -1.368,-3.4994 -1.386,3.4994 z"
         fill="#000000"
         id="path9-5" /><path
         d="m 206.289,24.3633 h 5.796 c 1.871,0 3.168,0.4973 3.987,1.3382 0.719,0.7053 1.088,1.6548 1.088,2.8665 v 0.0362 c 0,1.8808 -0.999,3.1286 -2.519,3.7797 l 2.924,4.2952 h -3.923 l -2.467,-3.7255 h -1.493 v 3.7255 h -3.393 z m 5.633,5.9047 c 1.152,0 1.819,-0.5607 1.819,-1.4559 V 28.776 c 0,-0.9676 -0.703,-1.4558 -1.836,-1.4558 h -2.223 v 2.9568 h 2.24 z"
         fill="#000000"
         id="path10-1" /><path
         d="m 222.057,24.3633 h 9.853 v 2.9025 h -6.488 v 1.8628 h 5.876 v 2.6857 h -5.876 v 1.9531 H 232 v 2.9027 h -9.943 z"
         fill="#000000"
         id="path11-7" /><path
         d="m 89.8752,31.9964 c -0.477,1.0761 -1.4759,1.8446 -2.8078,1.8446 -1.8537,0 -3.1316,-1.5463 -3.1316,-3.3276 v -0.0361 c 0,-1.7723 1.2418,-3.2915 3.0957,-3.2915 1.3948,0 2.4657,0.8681 2.9157,2.0436 h 3.5816 c -0.5759,-2.9298 -3.1316,-5.1181 -6.4614,-5.1181 -3.7795,0 -6.6143,2.8665 -6.6143,6.4021 v 0.0362 c 0,3.5356 2.7987,6.3659 6.5784,6.3659 3.2307,0 5.7595,-2.1069 6.4254,-4.9281 h -3.5817 z"
         fill="#000000"
         id="path12-1" /></g></g><text
     xml:space="preserve"
     style="font-size:252.071px;font-family:Arial;-inkscape-font-specification:'Arial, Normal';text-align:start;writing-mode:lr-tb;direction:ltr;text-anchor:start;fill:#808080;fill-opacity:0.500894;stroke-width:31.5819;stroke-linecap:round"
     x="666.302"
     y="565.35632"
     id="text16"><tspan
       sodipodi:role="line"
       id="tspan16"
       x="666.302"
       y="565.35632"
       style="stroke-width:31.5819">vs.</tspan></text></svg>
