<?xml version="1.0" encoding="UTF-8" standalone="no"?>
<!-- Created with Inkscape (http://www.inkscape.org/) -->

<svg
   width="6122.835"
   height="4535.4331"
   viewBox="0 0 1620.0001 1200"
   version="1.1"
   id="svg343"
   inkscape:export-filename="michael_gr_logo_4.png"
   inkscape:export-xdpi="25.4"
   inkscape:export-ydpi="25.4"
   inkscape:version="1.3.2 (091e20e, 2023-11-25, custom)"
   sodipodi:docname="email.svg"
   xmlns:inkscape="http://www.inkscape.org/namespaces/inkscape"
   xmlns:sodipodi="http://sodipodi.sourceforge.net/DTD/sodipodi-0.dtd"
   xmlns="http://www.w3.org/2000/svg"
   xmlns:svg="http://www.w3.org/2000/svg">
  <sodipodi:namedview
     id="namedview345"
     pagecolor="#505050"
     bordercolor="#ffffff"
     borderopacity="1"
     inkscape:showpageshadow="0"
     inkscape:pageopacity="0"
     inkscape:pagecheckerboard="1"
     inkscape:deskcolor="#505050"
     inkscape:document-units="mm"
     showgrid="false"
     inkscape:zoom="0.14866305"
     inkscape:cx="2946.26"
     inkscape:cy="1984.3532"
     inkscape:current-layer="layer1"
     inkscape:window-width="3043"
     inkscape:window-height="1760"
     inkscape:window-x="779"
     inkscape:window-y="260"
     inkscape:window-maximized="0" />
  <defs
     id="defs340" />
  <g
     inkscape:label="Layer 1"
     inkscape:groupmode="layer"
     id="layer1"
     transform="translate(562.52576,199.41574)">
    <rect
       style="opacity:0.8;fill:none;stroke:none;stroke-width:0.264583;stroke-linejoin:round;stroke-miterlimit:100"
       id="rect1"
       width="1620.0001"
       height="1200"
       x="-562.52576"
       y="-199.41574" />
    <g
       id="g1"
       transform="translate(-5.0177433,70.16189)">
      <path
         id="fill"
         style="display:inline;fill:#f20d0d;fill-opacity:1;stroke:#ffffff;stroke-width:1.8;stroke-dasharray:none;stroke-opacity:0.198507"
         d="m 396.68223,299.16934 v 50.92836 h 12.29914 v -28.60558 h 21.75919 v 28.60558 h 11.46866 v -28.64186 c 0.0563,-4.13617 -3.13957,-7.98349 -7.29293,-7.98349 h -25.93491 v -14.27019 z m 155.15343,0 v 50.92836 h 12.29871 v -50.92836 z m -224.21546,0.0324 v 7.98782 h 12.2987 v -7.98785 z m 299.62064,14.03905 -32.72257,0.23148 c -5.12468,0.0362 -6.6585,1.37552 -6.63694,7.86776 l -0.0432,20.38499 c -0.007,5.9786 1.88131,8.3726 6.81055,8.3726 h 27.97505 v 5.80947 h -22.7054 v 8.01978 h 27.35619 c 5.36165,-0.026 6.98156,-2.64494 7.02518,-7.34952 l 0.12438,-35.2438 c 0.11467,-6.08261 -2.02327,-7.94265 -7.18324,-8.09276 z m -357.67308,0.2316 c -5.63656,0 -9.11758,1.33625 -9.11758,7.7736 v 28.85175 h 12.29871 v -28.60558 h 12.29871 v 28.60558 h 12.29871 v -28.60558 h 12.29871 v 28.60558 h 12.29914 v -28.76883 c 0,-5.91516 -4.19942,-7.85652 -9.18321,-7.85652 z m 58.05244,0 v 36.62535 h 12.2987 v -36.62538 z m 25.06123,0 c -3.93009,0.16573 -6.00687,3.27467 -6.03145,7.92519 l -0.10839,20.28609 c 0.13008,4.78793 2.15909,8.47357 7.84746,8.41407 h 36.54762 v -8.02013 h -33.04259 v -20.58548 l 33.11211,0.0147 v -8.03445 z m 97.20681,0 v 8.01977 h 32.88409 v 6.2828 h -27.89299 c -4.58375,0 -5.16189,4.52264 -5.16858,8.01977 v 6.2828 c 0.0168,4.36433 1.27138,7.99948 5.28865,8.02021 h 32.8897 c 4.38322,-0.11151 6.05986,-3.80494 6.05736,-8.47712 l -0.0212,-20.04986 c -0.003,-3.38081 -2.50097,-8.09837 -6.40544,-8.09837 z m 56.22436,0 c -4.35882,-0.0176 -5.68727,2.98547 -5.68727,8.01977 v 20.60956 h 4.4e-4 c 0.0533,5.22075 2.63651,7.88397 6.27243,7.99602 h 38.02548 v -8.02021 h -32.75152 v -6.2828 h 27.16402 c 3.60814,0 5.60001,-2.80893 5.60001,-7.19059 l 0.007,-7.13141 c 0,-6.30289 -1.3392,-7.98067 -6.26509,-8.00034 z m 139.33142,-1e-4 c -4.63654,0 -5.69445,1.53415 -5.69028,7.93686 v 28.6885 h 12.1981 v -28.60558 h 25.41624 v -8.01978 z m -45.5257,7.98566 h 22.70542 v 20.61949 h -22.70542 z m -87.90341,0.0342 h 21.7592 v 6.28279 h -21.7592 z m -51.94669,14.30255 h 22.70541 v 6.2828 h -22.70541 z m 110.00087,6.31518 v 7.98781 h 12.29871 v -7.98781 z"
         sodipodi:nodetypes="ccccccccscccccccccccccscccsccccccccscccccccccccsssccccccccccccccccccccsccccccsccscccccccsccccsccccccsccccccccccccccccccccc" />
      <path
         id="fill-5"
         style="display:inline;fill:#f20d0d;fill-opacity:1;stroke:#ffffff;stroke-width:1.8;stroke-dasharray:none;stroke-opacity:0.198507"
         d="m -36.151984,301.54556 v 50.92836 h 12.29914 v -28.60558 h 21.7591901 v 28.60558 h 11.468657 v -28.64186 c 0.0563,-4.13617 -3.139567,-7.98349 -7.292927,-7.98349 H -23.852834 v -14.27019 z m 155.153424,0 v 50.92836 h 12.29871 v -50.92836 z m -224.21545,0.0324 v 7.98782 h 12.298703 v -7.98785 z m -58.05244,14.27065 c -5.63656,0 -9.11758,1.33625 -9.11758,7.7736 v 28.85175 h 12.29871 v -28.60558 h 12.29871 v 28.60558 h 12.29872 v -28.60558 h 12.2987 v 28.60558 h 12.29914 v -28.76883 c 0,-5.91516 -4.19942,-7.85652 -9.18321,-7.85652 z m 58.05244,0 v 36.62535 h 12.298703 v -36.62538 z m 25.061233,0 c -3.93009,0.16573 -6.00687,3.27467 -6.03145,7.92519 l -0.10839,20.28609 c 0.13008,4.78793 2.15909,8.47357 7.84746,8.41407 h 36.547613 v -8.02013 h -33.042583 v -20.58548 l 33.112103,0.0147 v -8.03445 z m 97.2068,0 v 8.01977 h 32.88409 v 6.2828 h -27.89299 c -4.58375,0 -5.16189,4.52264 -5.16858,8.01977 v 6.2828 c 0.0168,4.36433 1.27138,7.99948 5.28865,8.02021 h 32.8897 c 4.38322,-0.11151 6.05986,-3.80494 6.05736,-8.47712 l -0.0212,-20.04986 c -0.003,-3.38081 -2.50097,-8.09837 -6.40544,-8.09837 z m 56.22436,0 c -4.35882,-0.0176 -5.68727,2.98547 -5.68727,8.01977 v 20.60956 h 4.4e-4 c 0.0533,5.22075 2.63651,7.88397 6.27243,7.99602 h 38.025477 v -8.02021 H 79.137943 v -6.2828 h 27.164017 c 3.60814,0 5.60001,-2.80893 5.60001,-7.19059 l 0.007,-7.13141 c 0,-6.30289 -1.3392,-7.98067 -6.26509,-8.00034 z m 5.90231,8.01976 h 21.759197 v 6.28279 H 79.180693 Z m -51.94669,14.30255 h 22.70541 v 6.2828 h -22.70541 z"
         sodipodi:nodetypes="ccccccccscccccccccccccscccccccccccsssccccccccccccccccccccsccccccsccscccccccscccccccccccccc" />
      <path
         d="m 248.21181,314.68666 q 0,4.70342 -0.62251,9.61435 -0.55335,4.91092 -1.86754,9.54518 -1.31419,4.63425 -3.4584,8.78433 -2.1442,4.08091 -5.25676,7.19347 -3.11256,3.11256 -7.26264,4.91093 -4.08091,1.7292 -9.40684,1.7292 -2.83589,0 -5.25677,-0.62252 -2.42088,-0.69168 -4.28841,-1.9367 -1.86754,-1.24502 -3.18173,-3.18173 -1.24502,-2.00587 -1.7292,-4.56508 -2.76672,2.76672 -5.3951,4.77259 -2.55922,1.9367 -5.04926,3.18172 -2.49005,1.24503 -4.91093,1.79837 -2.35171,0.55335 -4.63425,0.55335 -2.97423,0 -5.25677,-0.55335 -2.28254,-0.62251 -4.08091,-1.7292 -1.7292,-1.17585 -2.97422,-2.83588 -1.24503,-1.66004 -2.07504,-3.73507 -0.83002,-2.07504 -1.17586,-4.56509 -0.34584,-2.49005 -0.34584,-5.3951 0,-2.97423 0.48418,-6.77846 0.48417,-3.87341 1.59086,-7.95432 1.10669,-4.08091 3.04339,-7.95432 1.93671,-3.94257 4.77259,-6.98596 2.90506,-3.11256 6.84763,-4.9801 3.94258,-1.9367 9.19934,-1.9367 2.21338,0 4.21925,0.55334 2.07504,0.48418 3.94257,1.59087 1.86754,1.10669 3.59674,2.76672 1.7292,1.66003 3.52756,3.94257 l 1.17586,-6.08678 q 0.27667,-0.96835 1.24502,-1.45253 0.96835,-0.48417 3.59674,-0.48417 1.24502,0 2.07504,0.13833 0.89918,0.13834 1.38336,0.41501 0.48417,0.2075 0.62251,0.55334 0.2075,0.34584 0.0692,0.83002 l -6.15595,31.81727 q -1.10669,6.01761 0.55334,8.92266 1.66003,2.83589 6.29428,2.83589 2.83589,0 5.11843,-1.38336 2.28255,-1.45253 4.01175,-3.8734 1.7292,-2.42088 2.90505,-5.60261 1.17586,-3.25089 1.93671,-6.77846 0.76084,-3.59674 1.10668,-7.33181 0.34584,-3.73507 0.34584,-7.19347 0,-6.01761 -1.66003,-11.41271 -1.59086,-5.46427 -5.53344,-9.54518 -3.94257,-4.15008 -10.5827,-6.57096 -6.57095,-2.49005 -16.53114,-2.49005 -8.16182,0 -14.52528,1.79837 -6.36345,1.79837 -11.20521,4.91093 -4.84175,3.04339 -8.30015,7.05513 -3.4584,4.01174 -5.87928,8.57683 -2.35171,4.49592 -3.80424,9.26851 -1.45253,4.70342 -2.21337,9.13017 -0.76085,4.35758 -1.03752,8.23099 -0.20751,3.87341 -0.20751,6.57096 0,7.67764 1.7292,14.04109 1.79837,6.36346 6.15595,10.99771 4.35758,4.63426 11.68939,7.19347 7.3318,2.55922 18.46785,2.55922 5.04926,0 9.13017,-0.62252 4.08091,-0.55334 7.05513,-1.24502 3.04339,-0.62251 4.91093,-1.24502 1.86753,-0.55335 2.55921,-0.55335 0.41501,0 0.69168,0.20751 0.34584,0.27667 0.48418,0.76085 0.2075,0.55334 0.27667,1.31419 0.0692,0.83001 0.0692,2.00587 0,0.96835 -0.0692,1.59086 0,0.62251 -0.13834,1.10669 -0.13833,0.55334 -0.415,0.96835 -0.20751,0.41501 -0.62252,0.76085 -0.415,0.34584 -2.42087,1.03752 -1.93671,0.69168 -5.32594,1.38336 -3.32006,0.69168 -7.81598,1.17585 -4.49592,0.48418 -9.89102,0.48418 -12.93441,0 -21.92625,-3.04339 -8.92266,-3.04339 -14.59444,-8.71517 -5.6026,-5.67177 -8.09265,-13.62609 -2.49005,-7.95431 -2.49005,-17.77617 0,-3.59673 0.34584,-8.23098 0.41501,-4.70343 1.45253,-9.96019 1.10669,-5.32594 3.04339,-10.79021 1.9367,-5.53343 4.98009,-10.7902 3.11256,-5.25677 7.47015,-9.89102 4.42675,-4.70342 10.37519,-8.16182 6.01761,-3.52757 13.69526,-5.53344 7.74681,-2.00587 17.4995,-2.00587 11.34354,0 19.57453,2.76672 8.30016,2.69755 13.69526,7.67764 5.3951,4.9801 8.02349,12.17357 2.62838,7.1243 2.62838,15.90863 z m -40.11743,4.49592 q -2.62838,-4.42675 -5.3951,-6.77846 -2.76672,-2.35171 -6.29428,-2.35171 -2.90506,0 -5.25677,1.45252 -2.35171,1.38336 -4.08091,3.66591 -1.7292,2.21337 -2.97422,5.04926 -1.17586,2.83589 -1.9367,5.81011 -0.76085,2.97422 -1.10669,5.81011 -0.27667,2.76672 -0.27667,4.91092 0,5.11843 1.79836,7.88515 1.86754,2.76672 6.22512,2.76672 1.66003,0 3.38923,-0.55334 1.7292,-0.62251 3.6659,-1.79837 1.93671,-1.24502 4.08091,-3.18173 2.21338,-2.00587 4.84176,-4.70342 z m -74.42473,-40.8091 z"
         id="text1"
         style="font-size:141.656px;font-family:Calibri;-inkscape-font-specification:'Calibri, Normal';font-variant-position:super;opacity:0.8;fill:#808080;stroke-width:0.264583;stroke-linejoin:round;stroke-miterlimit:100"
         aria-label="@" />
    </g>
  </g>
</svg>
