<?xml version="1.0" encoding="UTF-8" standalone="no"?>
<!-- Generator: Adobe Illustrator 19.2.1, SVG Export Plug-In . SVG Version: 6.00 Build 0)  -->

<svg
   version="1.1"
   id="layer"
   x="0px"
   y="0px"
   viewBox="0 0 1620 1000"
   xml:space="preserve"
   sodipodi:docname="dialogic-corporation-logo.svg"
   width="1620"
   height="1000"
   inkscape:version="1.3.2 (091e20e, 2023-11-25, custom)"
   xmlns:inkscape="http://www.inkscape.org/namespaces/inkscape"
   xmlns:sodipodi="http://sodipodi.sourceforge.net/DTD/sodipodi-0.dtd"
   xmlns="http://www.w3.org/2000/svg"
   xmlns:svg="http://www.w3.org/2000/svg"><defs
   id="defs11" /><sodipodi:namedview
   id="namedview11"
   pagecolor="#505050"
   bordercolor="#eeeeee"
   borderopacity="1"
   inkscape:showpageshadow="0"
   inkscape:pageopacity="0"
   inkscape:pagecheckerboard="0"
   inkscape:deskcolor="#505050"
   inkscape:zoom="0.33167178"
   inkscape:cx="153.76647"
   inkscape:cy="577.37803"
   inkscape:window-width="2392"
   inkscape:window-height="1339"
   inkscape:window-x="1071"
   inkscape:window-y="556"
   inkscape:window-maximized="0"
   inkscape:current-layer="layer" />
<style
   type="text/css"
   id="style1">
	.st0{fill:#5D5C5E;}
	.st1{fill:#0071A4;}
	.st2{fill:#0A86B6;}
	.st3{fill:#44C8F5;}
	.st4{fill:#3CB4E7;}
	.st5{fill:#389ECB;}
</style>
<g
   id="g11"
   transform="matrix(2.575404,0,0,2.5754041,-16.189608,-328.76924)"
   style="stroke-width:0.388289">
	<path
   class="st0"
   d="m 231.9,343.6 c 13.8,0 23.1,-9.3 23.1,-22.9 v -0.2 c 0,-13.6 -9.3,-23.1 -23.1,-23.1 h -13 v 46.2 z M 202.1,282.2 H 232 c 24.1,0 40.7,16.5 40.7,38.1 v 0.2 c 0,21.6 -16.6,38.3 -40.7,38.3 h -29.9 z"
   id="path1"
   style="stroke-width:0.388289" />
	<rect
   x="279.79999"
   y="300.20001"
   class="st0"
   width="16.6"
   height="58.700001"
   id="rect1"
   style="stroke-width:0.388289" />
	<path
   class="st0"
   d="m 340.7,338.2 v -3 c -2.8,-1.3 -6.6,-2.2 -10.6,-2.2 -7.1,0 -11.5,2.8 -11.5,8.1 v 0.2 c 0,4.5 3.7,7.1 9.1,7.1 7.7,0 13,-4.2 13,-10.2 m -38.2,3.8 v -0.2 c 0,-12.8 9.7,-18.7 23.6,-18.7 5.9,0 10.2,1 14.3,2.4 v -1 c 0,-6.9 -4.3,-10.7 -12.6,-10.7 -6.3,0 -10.8,1.2 -16.2,3.2 l -4.2,-12.7 c 6.5,-2.8 12.8,-4.7 22.8,-4.7 9.1,0 15.6,2.4 19.8,6.6 4.4,4.4 6.3,10.8 6.3,18.7 v 34 h -16.1 v -6.3 c -4,4.5 -9.6,7.4 -17.7,7.4 -10.9,-0.1 -20,-6.4 -20,-18"
   id="path2"
   style="stroke-width:0.388289" />
	<rect
   x="366"
   y="279"
   class="st0"
   width="16.6"
   height="79.900002"
   id="rect2"
   style="stroke-width:0.388289" />
	<path
   class="st0"
   d="m 436.4,329.8 v -0.2 c 0,-8.6 -6.2,-16.2 -15.4,-16.2 -9.5,0 -15.2,7.3 -15.2,16 v 0.2 c 0,8.6 6.2,16.2 15.4,16.2 9.5,0 15.2,-7.3 15.2,-16 m -47.1,0 v -0.2 c 0,-16.9 13.6,-30.5 31.8,-30.5 18.2,0 31.6,13.5 31.6,30.3 v 0.2 c 0,16.9 -13.6,30.5 -31.8,30.5 -18.1,0.1 -31.6,-13.4 -31.6,-30.3"
   id="path3"
   style="stroke-width:0.388289" />
	<path
   class="st0"
   d="m 502.3,326.7 v -0.2 c 0,-8 -6.2,-13.6 -14.3,-13.6 -8.1,0 -14.2,5.6 -14.2,13.6 v 0.2 c 0,8.1 6.1,13.6 14.2,13.6 8.1,-0.1 14.3,-5.6 14.3,-13.6 m -42.2,43.7 5.7,-12.5 c 6,3.4 12,5.4 19.8,5.4 11.4,0 16.7,-5.5 16.7,-16 v -2.8 c -4.9,5.9 -10.3,9.5 -19.1,9.5 -13.7,0 -26,-10 -26,-27.4 v -0.2 c 0,-17.5 12.6,-27.4 26,-27.4 9.1,0 14.4,3.8 18.9,8.8 v -7.7 h 16.6 v 45.4 c 0,10.5 -2.5,18.2 -7.4,23.1 -5.5,5.5 -13.9,7.9 -25.3,7.9 -9.5,0.1 -18.5,-2.1 -25.9,-6.1"
   id="path4"
   style="stroke-width:0.388289" />
	<rect
   x="528.59998"
   y="300.20001"
   class="st0"
   width="16.6"
   height="58.700001"
   id="rect4"
   style="stroke-width:0.388289" />
	<path
   class="st0"
   d="m 553,329.8 v -0.2 c 0,-16.7 12.8,-30.5 30.7,-30.5 11.1,0 17.9,3.7 23.4,9.8 l -10.1,11 c -3.7,-3.9 -7.4,-6.5 -13.3,-6.5 -8.3,0 -14.2,7.3 -14.2,16 v 0.2 c 0,9 5.8,16.2 14.9,16.2 5.6,0 9.4,-2.4 13.5,-6.2 l 9.7,9.8 c -5.7,6.2 -12.3,10.7 -24,10.7 C 566,360.2 553,346.6 553,329.8"
   id="path5"
   style="stroke-width:0.388289" />
	<path
   class="st1"
   d="m 158.3,320.5 c 0,5.8 -4.4,11.8 -9.9,11.8 -5.5,0 -9.9,-6 -9.9,-11.8 0,-5.8 4.4,-11.8 9.9,-11.8 5.5,0 9.9,6 9.9,11.8"
   id="path6"
   style="stroke-width:0.388289" />
	<path
   class="st2"
   d="m 127.2,312.8 c 2.7,-3.6 4.4,-8.7 4.4,-12.6 0,-7 -5.3,-12.6 -11.9,-12.6 -6.6,0 -11.9,5.7 -11.9,12.6 0,4 1.7,9.1 4.4,12.7 0,0 5.6,7.3 0,15.3 -2.7,3.6 -4.4,8.7 -4.4,12.7 0,7 5.3,12.6 11.9,12.6 6.6,0 11.9,-5.7 11.9,-12.6 0,-4 -1.7,-9 -4.4,-12.6 0,-0.1 -5.8,-7.2 0,-15.5"
   id="path7"
   style="stroke-width:0.388289" />
	<path
   class="st3"
   d="m 20.8,320.5 c 0,5.8 4.4,11.8 9.9,11.8 5.5,0 9.9,-6 9.9,-11.8 0,-5.8 -4.4,-11.8 -9.9,-11.8 -5.5,0 -9.9,6 -9.9,11.8"
   id="path8"
   style="stroke-width:0.388289" />
	<path
   class="st4"
   d="m 51.9,312.8 c -2.7,-3.6 -4.4,-8.7 -4.4,-12.6 0,-7 5.3,-12.6 11.9,-12.6 6.6,0 11.9,5.7 11.9,12.6 0,4 -1.7,9.1 -4.4,12.7 0,0 -5.6,7.3 0,15.3 2.7,3.6 4.4,8.7 4.4,12.7 0,7 -5.3,12.6 -11.9,12.6 -6.6,0 -11.9,-5.7 -11.9,-12.6 0,-4 1.7,-9 4.4,-12.6 0,-0.1 5.9,-7.2 0,-15.5"
   id="path9"
   style="stroke-width:0.388289" />
	<path
   class="st5"
   d="m 78.2,321.8 c 0,-0.4 -0.1,-0.9 -0.1,-1.4 0,-0.5 0,-0.9 0.1,-1.4 0.3,-3.7 1.9,-8.1 4.3,-11.3 0,0 5.8,-7.1 0,-15.4 -2.7,-3.6 -4.4,-8.7 -4.4,-12.6 0,-7 5.3,-12.6 11.9,-12.6 6.6,0 11.9,5.7 11.9,12.6 0,4 -1.7,9.1 -4.4,12.7 0,0 -5.6,7.3 0,15.3 2.4,3.2 4,7.6 4.4,11.3 0,0.4 0.1,0.9 0.1,1.4 0,0.5 0,0.9 -0.1,1.4 -0.3,3.7 -2,8.1 -4.4,11.3 0,0 -5.6,7.3 0,15.3 2.7,3.6 4.4,8.7 4.4,12.7 0,7 -5.3,12.6 -11.9,12.6 -6.6,0 -11.9,-5.7 -11.9,-12.6 0,-4 1.7,-9 4.4,-12.6 0,0 5.8,-7.1 0,-15.4 -2.4,-3.2 -4,-7.6 -4.3,-11.3"
   id="path10"
   style="stroke-width:0.388289" />
	<path
   class="st0"
   d="m 614.8,354.9 h 0.6 c 0.7,0 1.2,-0.2 1.2,-0.8 0,-0.5 -0.3,-0.8 -1.1,-0.8 -0.3,0 -0.5,0 -0.7,0.1 z m -0.1,2.9 h -1.2 v -5.1 c 0.5,-0.1 1.1,-0.2 2,-0.2 1,0 1.4,0.2 1.8,0.4 0.3,0.2 0.5,0.6 0.5,1.1 0,0.6 -0.4,1 -1.1,1.2 v 0.1 c 0.5,0.2 0.8,0.6 0.9,1.3 0.2,0.8 0.3,1.1 0.4,1.3 h -1.3 c -0.2,-0.2 -0.3,-0.7 -0.4,-1.3 -0.1,-0.6 -0.4,-0.8 -1.1,-0.8 h -0.6 v 2 z m -3.1,-2.7 c 0,2.3 1.7,4.1 4,4.1 2.3,0 3.9,-1.8 3.9,-4.1 0,-2.3 -1.7,-4.1 -4,-4.1 -2.2,0 -3.9,1.8 -3.9,4.1 m 9.2,0 c 0,2.9 -2.3,5.2 -5.3,5.2 -2.9,0 -5.3,-2.3 -5.3,-5.2 0,-2.9 2.4,-5.1 5.3,-5.1 3,-0.1 5.3,2.2 5.3,5.1"
   id="path11"
   style="stroke-width:0.388289" />
</g>
<rect
   style="fill:#000000;fill-opacity:0;stroke-width:0.999999;stroke-linejoin:round;stroke-miterlimit:100"
   id="rect11"
   width="1620"
   height="1000"
   x="0"
   y="0" /></svg>
