<?xml version="1.0" encoding="UTF-8" standalone="no"?>
<svg
   class="svg-icon"
   style="overflow:hidden;fill:currentColor"
   viewBox="0 0 1620 1000"
   version="1.1"
   id="svg1"
   sodipodi:docname="java-11.svg"
   width="1620"
   height="1000"
   inkscape:version="1.3.2 (091e20e, 2023-11-25, custom)"
   xmlns:inkscape="http://www.inkscape.org/namespaces/inkscape"
   xmlns:sodipodi="http://sodipodi.sourceforge.net/DTD/sodipodi-0.dtd"
   xmlns="http://www.w3.org/2000/svg"
   xmlns:svg="http://www.w3.org/2000/svg">
  <defs
     id="defs1" />
  <sodipodi:namedview
     id="namedview1"
     pagecolor="#505050"
     bordercolor="#eeeeee"
     borderopacity="1"
     inkscape:showpageshadow="0"
     inkscape:pageopacity="0"
     inkscape:pagecheckerboard="0"
     inkscape:deskcolor="#505050"
     inkscape:zoom="0.89111328"
     inkscape:cx="333.85205"
     inkscape:cy="489.83671"
     inkscape:window-width="3840"
     inkscape:window-height="2081"
     inkscape:window-x="-9"
     inkscape:window-y="-9"
     inkscape:window-maximized="1"
     inkscape:current-layer="svg1" />
  <rect
     style="opacity:0.8;fill:#000000;fill-opacity:0;stroke-width:0.999997;stroke-linejoin:round;stroke-miterlimit:100"
     id="rect26"
     width="1620"
     height="1000"
     x="0"
     y="0" />
  <g
     id="g27"
     transform="translate(-79.880441,50.608211)">
    <g
       id="g26"
       style="fill:#205dde;fill-opacity:1"
       transform="translate(83.042206,81.919998)">
      <path
         d="m 658.133,514.487 c 11.762,-7.633 22.711,-13.267 31.859,-21.025 12.982,-11.011 26.18,-22.409 36.41,-35.836 9.67,-12.693 11.041,-28.524 1.667,-43.091 -9.542,-14.825 -49.002,-16.011 -54.32,-16.835 2.527,-2.019 7.611,-5.798 7.611,-5.798 0,0 19.391,-5.098 44.734,-1.986 35.03,7.678 47.081,45.126 25.694,74.251 -17.629,24.011 -62.002,48.374 -93.654,50.321 z"
         id="path24"
         style="fill:#205dde;fill-opacity:1" />
      <path
         d="m 761.119,633.098 c -258.39,74.507 -388.98,39.125 -388.98,39.125 0,0 55.492,46.786 194.491,19.951 51.585,-9.959 143.916,-37.25 194.489,-59.076 z"
         id="path23"
         style="fill:#205dde;fill-opacity:1" />
      <path
         d="m 416.086,466.843 c 0,0 -14.781,28.618 27.882,29.689 101.518,2.55 175.663,-15.385 175.663,-15.385 0,0 15.595,20.033 15.595,22.079 0,0 -135.979,31.446 -213.553,11.664 -49.553,-12.64 -16.777,-42.436 -5.585,-48.048 z"
         id="path22"
         style="fill:#205dde;fill-opacity:1" />
      <path
         d="m 439.426,394.382 c 0,0 -100.196,36.02 7.043,38.523 14.633,0.342 210.172,-14.884 210.172,-14.884 0,0 -126.169,35.975 -238.974,32.837 -151.031,-15.07 21.653,-56.577 21.759,-56.476 z"
         id="path21"
         style="fill:#205dde;fill-opacity:1" />
      <path
         d="m 624.373,570.939 c -160.089,47.191 -222.26,-9.852 -222.26,-9.852 l 20.81,-18.112 c 8.034,5.773 50.29,32.523 140.949,13.351 l 60.5,14.612 z"
         id="path20"
         style="fill:#205dde;fill-opacity:1" />
      <path
         d="m 724.934,594.958 c 12.017,9.978 -6.81,38.14 -78.7,47.908 -388.337,39.916 -368.483,-6.714 -369.035,-16.64 -1.579,-28.409 71.941,-42.012 101.553,-37.299 -19.738,7.62 -74.002,40.91 1.213,43.561 53.967,2.82 108.128,6.699 162.025,4.781 50.895,-1.815 182.438,-21.958 182.944,-42.311 z"
         id="path17"
         style="fill:#205dde;fill-opacity:1" />
    </g>
    <g
       id="g25"
       style="fill:#df851f;fill-opacity:1"
       transform="translate(83.042206,81.919998)">
      <path
         d="m 665.446,167.371 c -21.126,14.121 -39.993,25.627 -57.567,38.845 -12.879,9.684 -25.317,20.553 -35.726,32.787 -16.841,19.787 -16.823,34.955 -2.882,57.211 5.567,8.883 11.328,17.68 17.555,26.103 13.102,17.724 12.658,36.591 0.809,53.366 -9.75,13.803 -23.533,24.756 -37.775,39.261 -0.615,-5.917 -1.106,-7.027 -0.742,-7.618 18.492,-30.187 18.05,-37.452 -4.147,-66.432 -27.381,-35.755 -32.285,-67.497 -11.395,-97.41 9.843,-14.094 23.29,-27.499 38.121,-35.884 26.791,-15.142 55.831,-26.316 83.995,-39.014 1.891,-0.848 4.289,-0.577 9.758,-1.213 z"
         id="path19"
         style="fill:#df851f;fill-opacity:1" />
      <path
         d="m 516.663,389.729 c -29.467,-29.523 -63.475,-55.253 -79.148,-96.295 -7.358,-19.265 -7.57,-39.042 6.876,-53.971 23.817,-24.617 49.915,-47.03 75.22,-70.188 10.929,-10 22.816,-18.995 33.331,-29.396 29.373,-29.053 43.039,-63.447 33.563,-105.414 17.796,18.915 20.593,41.489 15.153,64.989 -9.293,40.16 -36.252,68.535 -66.131,94.659 -14.379,12.571 -29.573,24.442 -42.51,38.385 -29.991,32.33 -32.067,64.294 -8.125,101.396 11.525,17.859 23.428,35.472 35.164,53.196 -1.135,0.879 -2.263,1.76 -3.394,2.64 z"
         id="path15"
         style="fill:#df851f;fill-opacity:1" />
    </g>
    <g
       id="g24"
       transform="translate(-10.099712,57.231779)"
       style="fill:#de2020;fill-opacity:1">
      <path
         d="m 957.30703,608.72979 c -5.195,-6.315 -9.997,-12.151 -16.103,-19.571 30.777,-14.398 33.257,-41.116 32.826,-70.084 -0.756,-50.769 -0.16,-101.557 -0.13,-152.341 0.002,-5.201 0,-10.4 0,-16.894 11.726,0 22.334,0 33.91797,0 0.22,3.729 0.627,7.42 0.627,11.104 0,56.531 0.193,113.067 -0.173,169.598 -0.269,41.407 -11.69397,58.782 -50.96497,78.19 z"
         id="path18"
         style="fill:#de2020;fill-opacity:1" />
      <path
         d="m 1166.071,404.32579 c 1.808,-0.943 2.215,-1.338 2.635,-1.35 32.743,-1.013 32.436,-0.924 41.503,30.575 7.843,27.236 16.484,54.246 24.777,81.357 1.296,0.198 2.593,0.395 3.892,0.595 9.143,-37.152 18.286,-74.306 27.603,-112.16 9.152,0 19.458,0 33.116,0 -7.733,29.353 -14.4,57.423 -22.658,85.02 -5.456,18.242 -13.671,35.644 -19.725,53.728 -3.365,10.054 -9.305,13.741 -19.313,12.228 -1.406,-0.211 -2.922,-0.269 -4.3,0.015 -16.18,3.33 -23.478,-3.639 -27.901,-19.411 -12.218,-43.586 -26.171,-86.69 -39.627,-130.596 z"
         id="path16"
         style="fill:#de2020;fill-opacity:1" />
      <path
         d="m 1147.741,553.58779 c -7.906,0 -14.973,0 -22.838,0 -1.355,-3.682 -2.78,-7.556 -4.358,-11.842 -1.554,0.179 -3.146,-0.113 -4.036,0.542 -13.504,9.939 -28.201,15.661 -45.357,14.822 -21.521,-1.056 -35.114,-10.163 -40.371,-28.038 -5.974,-20.32 0.567,-43.104 18.89,-52.418 14.055,-7.147 30.558,-9.668 46.153,-13.493 6.341,-1.559 13.168,-1.129 19.609,-1.589 3.44,-27.727 -4.911,-37.645 -31.125,-37.161 -7.111,0.132 -14.261,1.267 -21.281,2.554 -6.918,1.265 -13.697,3.307 -20.435,4.985 -7.461,-19.424 -7.857,-21.282 10.578,-25.214 18.779,-4.006 38.62,-6.276 57.679,-4.902 23.63,1.7 35.179,13.263 36.654,36.676 2.171,34.357 1.181,68.911 1.419,103.383 0.023,3.697 -0.729,7.398 -1.181,11.697 z m -32.262,-70.791 c -13.38,1.854 -26.207,2.581 -38.461,5.619 -12.359,3.063 -18.051,15.763 -14.644,28.422 3.095,11.499 12.967,18.398 25.166,15.413 30.331,-7.419 32.321,-12.497 27.939,-49.455 z"
         id="path14"
         style="fill:#de2020;fill-opacity:1" />
      <path
         d="m 1396.86,458.57179 c 2.073,-26.377 -5.318,-35.187 -32.366,-34.003 -13.616,0.595 -27.105,3.989 -42.044,6.34 -1.341,-5.673 -2.82,-11.923 -4.476,-18.925 26.335,-9.587 51.841,-16.177 79.043,-9.638 18.986,4.565 31.348,16.258 31.978,35.584 1.239,38.148 0.365,76.363 0.365,115.881 -10.515,-1.867 -24.836,8.807 -27.187,-9.354 -15.981,4.143 -31.965,10.669 -48.365,11.97 -23.19,1.841 -38.019,-10.502 -42.32,-30.272 -4.882,-22.409 4.113,-45.116 24.463,-52.614 18.965,-6.994 39.444,-9.884 60.91,-14.97 z m 0.636,23.993 c -14.549,2.117 -27.218,2.974 -39.346,5.997 -12.211,3.049 -18.55,16.587 -14.975,28.314 3.798,12.448 14.721,18.319 28.039,15.07 22.276,-5.442 26.412,-10.831 26.284,-34.238 -0.023,-3.761 0,-7.521 0,-15.142 z"
         id="path1"
         style="fill:#de2020;fill-opacity:1" />
    </g>
  </g>
</svg>
