<?xml version="1.0" encoding="UTF-8" standalone="no"?>
<!-- Created with Inkscape (http://www.inkscape.org/) -->

<svg
   width="1620mm"
   height="1000mm"
   viewBox="0 0 1620 1000"
   version="1.1"
   id="svg5"
   inkscape:version="1.3.2 (091e20e, 2023-11-25, custom)"
   sodipodi:docname="jargon.svg"
   inkscape:export-filename="jargon.png"
   inkscape:export-xdpi="200"
   inkscape:export-ydpi="200"
   xmlns:inkscape="http://www.inkscape.org/namespaces/inkscape"
   xmlns:sodipodi="http://sodipodi.sourceforge.net/DTD/sodipodi-0.dtd"
   xmlns="http://www.w3.org/2000/svg"
   xmlns:svg="http://www.w3.org/2000/svg">
  <sodipodi:namedview
     id="namedview7"
     pagecolor="#505050"
     bordercolor="#ffffff"
     borderopacity="1"
     inkscape:showpageshadow="0"
     inkscape:pageopacity="0"
     inkscape:pagecheckerboard="1"
     inkscape:deskcolor="#505050"
     inkscape:document-units="mm"
     showgrid="false"
     inkscape:zoom="0.2102413"
     inkscape:cx="3971.6269"
     inkscape:cy="1357.9634"
     inkscape:window-width="2987"
     inkscape:window-height="1585"
     inkscape:window-x="616"
     inkscape:window-y="373"
     inkscape:window-maximized="0"
     inkscape:current-layer="g11"
     showguides="true" />
  <defs
     id="defs2" />
  <g
     inkscape:groupmode="layer"
     id="layer2"
     inkscape:label="background">
    <rect
       style="fill:#c0c0c0;fill-opacity:1;stroke:none;stroke-width:0.0999997;stroke-linecap:square;stroke-miterlimit:0;stop-color:#000000"
       id="rectangle"
       width="1620"
       height="1000"
       x="-47.822025"
       y="71.575745"
       transform="translate(47.822025,-71.575745)"
       inkscape:label="rectangle" />
  </g>
  <g
     inkscape:label="With-fonts"
     inkscape:groupmode="layer"
     id="layer1"
     transform="translate(47.822025,-71.575745)"
     style="display:none">
    <g
       id="foreground"
       transform="translate(10.277919,30.78057)">
      <text
         xml:space="preserve"
         style="font-style:normal;font-variant:normal;font-weight:normal;font-stretch:normal;font-size:49.3609px;line-height:1.25;font-family:sans-serif;-inkscape-font-specification:'sans-serif, Normal';font-variant-ligatures:normal;font-variant-caps:normal;font-variant-numeric:normal;font-variant-east-asian:normal;fill:#3f3f3f;fill-opacity:1;stroke-width:0.264582"
         x="306.59476"
         y="483.76511"
         id="pronunciation"><tspan
           sodipodi:role="line"
           id="tspan6"
           x="306.59476"
           y="483.76511">/ ˈdʒɑr gən, -gɒn /</tspan></text>
      <g
         id="g7"
         transform="translate(0,52.111235)"
         style="fill:#3f3f3f;fill-opacity:1">
        <text
           xml:space="preserve"
           style="font-style:normal;font-variant:normal;font-weight:normal;font-stretch:normal;font-size:34.7345px;line-height:1.25;font-family:sans-serif;-inkscape-font-specification:'sans-serif, Normal';font-variant-ligatures:normal;font-variant-position:super;font-variant-caps:normal;font-variant-numeric:normal;font-variant-east-asian:normal;fill:#3f3f3f;fill-opacity:1;stroke-width:0.264581"
           x="238.69566"
           y="425.98041"
           id="superscript-1"><tspan
             sodipodi:role="line"
             id="tspan2"
             x="238.69566"
             y="425.98041"
             style="font-style:normal;font-variant:normal;font-weight:normal;font-stretch:normal;font-size:34.7345px;font-family:sans-serif;-inkscape-font-specification:'sans-serif, Normal';font-variant-ligatures:normal;font-variant-caps:normal;font-variant-numeric:normal;font-variant-east-asian:normal;fill:#3f3f3f;fill-opacity:1;stroke-width:0.264581">1</tspan></text>
        <text
           xml:space="preserve"
           style="font-style:normal;font-variant:normal;font-weight:600;font-stretch:normal;font-size:49.361px;line-height:1.25;font-family:'LFT Etica Sheriff';-inkscape-font-specification:'LFT Etica Sheriff, Semi-Bold';font-variant-ligatures:normal;font-variant-caps:normal;font-variant-numeric:normal;font-variant-east-asian:normal;fill:#3f3f3f;fill-opacity:1;stroke-width:1.14849"
           x="70.87677"
           y="431.58371"
           id="jargon"><tspan
             sodipodi:role="line"
             id="tspan1"
             x="70.87677"
             y="431.58371">jar·gon</tspan></text>
      </g>
      <text
         xml:space="preserve"
         style="font-style:normal;font-variant:normal;font-weight:normal;font-stretch:normal;font-size:49.3609px;line-height:1.25;font-family:sans-serif;-inkscape-font-specification:'sans-serif, Normal';font-variant-ligatures:normal;font-variant-caps:normal;font-variant-numeric:normal;font-variant-east-asian:normal;fill:#3f3f3f;fill-opacity:1;stroke-width:0.264582"
         x="67.939781"
         y="625.13281"
         id="definition"><tspan
           sodipodi:role="line"
           id="tspan3"
           x="67.939781"
           y="625.13281">1. Technical terminology unique to a particular subject.</tspan></text>
      <text
         xml:space="preserve"
         style="font-style:normal;font-variant:normal;font-weight:normal;font-stretch:normal;font-size:49.3609px;line-height:1.25;font-family:sans-serif;-inkscape-font-specification:'sans-serif, Normal';font-variant-ligatures:normal;font-variant-caps:normal;font-variant-numeric:normal;font-variant-east-asian:normal;fill:#3f3f3f;fill-opacity:1;stroke-width:0.264582"
         x="826.50146"
         y="483.77621"
         id="noun"><tspan
           sodipodi:role="line"
           id="tspan7"
           x="826.50146"
           y="483.77621">(noun)</tspan></text>
    </g>
  </g>
  <g
     inkscape:label="Without-fonts"
     inkscape:groupmode="layer"
     id="g11"
     transform="translate(47.822025,-71.575745)"
     style="display:inline">
    <g
       id="g10"
       transform="translate(10.277919,30.78057)">
      <path
         d="m 327.32248,446.26239 -17.28114,44.82972 h -4.16964 l 17.20883,-44.82972 z m 28.48856,10.17105 h -2.4825 v -8.00187 h 2.4825 z m 33.28487,27.33167 h -4.53118 v -2.81994 q -1.95226,1.68714 -4.07324,2.62712 -2.12097,0.93998 -4.60348,0.93998 -4.8204,0 -7.66443,-3.71171 -2.81994,-3.71171 -2.81994,-10.29156 0,-3.42248 0.96408,-6.0978 0.98818,-2.67532 2.65122,-4.55528 1.63894,-1.83175 3.80812,-2.79583 2.19328,-0.96408 4.53117,-0.96408 2.12098,0 3.75992,0.45794 1.63893,0.43383 3.44658,1.37381 v -11.66537 h 4.53118 z m -4.53118,-6.62805 v -15.44939 q -1.83175,-0.81947 -3.27787,-1.13279 -1.44612,-0.31333 -3.15736,-0.31333 -3.80812,0 -5.92909,2.65122 -2.12098,2.65122 -2.12098,7.51983 0,4.7963 1.63894,7.3029 1.63893,2.48251 5.25423,2.48251 1.92816,0 3.90453,-0.84357 1.97636,-0.86767 3.6876,-2.21738 z m 34.24895,4.29015 q 0,5.37475 -3.32608,9.01415 -3.39838,3.71171 -8.74903,3.71171 -4.67578,0 -7.78494,-2.69943 -3.10916,-2.67532 -3.5671,-7.3029 l 4.55528,-0.38563 q 0.45794,3.01275 2.09687,4.8204 1.80765,2.00046 4.69989,2.00046 3.44659,0 5.54346,-2.72352 1.92817,-2.48251 1.92817,-6.04961 0,-3.83221 -2.3379,-5.97729 -2.21738,-2.02457 -5.92909,-2.02457 h -2.24149 v -3.83222 l 8.09827,-8.4357 q -3.59119,0.14461 -4.8927,0.14461 h -10.43617 v -3.51889 h 20.92054 v 2.86814 l -8.89364,9.03825 q 4.36246,0.31332 7.2306,3.22967 3.08506,3.15736 3.08506,8.12237 z m 25.54812,2.3379 h -4.33836 v -2.72353 q -2.362,3.30197 -6.70036,3.30197 -5.27834,0 -8.36339,-4.31425 -2.77173,-3.83222 -2.77173,-9.30338 0,-8.31519 5.23013,-11.56896 2.53071,-1.56663 5.56757,-1.56663 4.74809,0 7.47162,4.00093 v -3.42248 h 3.90452 z m -3.90452,-12.48484 q 0,-3.97683 -1.51843,-6.77266 -1.87996,-3.49479 -5.54346,-3.49479 -3.6153,0 -5.37475,3.32607 -1.37381,2.60302 -1.37381,6.55575 0,3.90452 1.51842,6.57984 1.87996,3.30198 5.51936,3.30198 3.49479,0 5.30244,-3.15736 1.47023,-2.55482 1.47023,-6.33883 z m 28.70549,-9.49619 h -0.24102 q -1.01229,-0.24102 -1.97637,-0.33743 -0.93998,-0.12051 -2.24148,-0.12051 -2.09688,0 -4.04914,0.93998 -1.95226,0.91588 -3.75991,2.3861 v 19.11289 h -4.53118 v -26.92194 h 4.53118 V 460.82 q 2.69942,-2.16918 4.74809,-3.06095 2.07277,-0.91588 4.21785,-0.91588 1.181,0 1.71124,0.0723 0.53025,0.0482 1.59074,0.21691 z m 43.45589,18.92007 q 0,6.84497 -3.10915,10.05054 -3.10916,3.20556 -9.5685,3.20556 -2.14508,0 -4.19375,-0.31332 -2.02457,-0.28923 -4.00093,-0.84357 v -4.62759 h 0.24102 q 1.10869,0.43384 3.51889,1.06049 2.4102,0.65075 4.8204,0.65075 2.3138,0 3.83222,-0.55434 1.51843,-0.55435 2.362,-1.54253 0.84357,-0.93998 1.2051,-2.26559 0.36153,-1.32561 0.36153,-2.96454 v -2.45841 q -2.04867,1.63894 -3.92863,2.45841 -1.85585,0.79536 -4.74809,0.79536 -4.8204,0 -7.66444,-3.47069 -2.81993,-3.49479 -2.81993,-9.83361 0,-3.47069 0.96408,-5.9773 0.98818,-2.53071 2.67532,-4.36246 1.56663,-1.71124 3.80811,-2.65122 2.24149,-0.96408 4.45887,-0.96408 2.3379,0 3.90453,0.48204 1.59073,0.45794 3.35018,1.42202 l 0.28922,-1.1569 h 4.24195 z m -4.53117,-4.33836 v -14.67812 q -1.80765,-0.81947 -3.37428,-1.15689 -1.54253,-0.36153 -3.08506,-0.36153 -3.73581,0 -5.88089,2.5066 -2.14508,2.50661 -2.14508,7.27881 0,4.53118 1.59074,6.86907 1.59073,2.33789 5.27833,2.33789 1.97637,0 3.95273,-0.74716 2.00047,-0.77126 3.66351,-2.04867 z m 35.9843,-6.33883 q 0,6.31473 -3.35018,10.21925 -3.54299,4.14555 -9.73721,4.14555 -5.59166,0 -8.55621,-3.35018 -2.79583,-3.18146 -2.79583,-8.86954 v -2.4584 h 19.83595 q 0,-4.7963 -2.79584,-7.35111 -2.53071,-2.31379 -6.77266,-2.31379 -2.26559,0 -5.01322,0.89177 -2.91634,0.96408 -4.48297,2.362 h -0.24102 v -4.94091 q 5.37475,-2.26559 9.68901,-2.26559 6.72446,0 10.46027,3.6153 3.75991,3.6153 3.75991,10.31565 z m -4.60348,3.15737 h -15.42529 q 0.0482,7.47162 7.1824,7.47162 3.44659,0 5.68807,-2.02457 2.24149,-2.02457 2.55482,-5.44705 z m 33.98381,10.58078 h -4.53118 v -15.32888 q 0,-1.85585 -0.21691,-3.47069 -0.21692,-1.63893 -0.79537,-2.55481 -0.60255,-1.01228 -1.73534,-1.49432 -1.1328,-0.50614 -2.94045,-0.50614 -1.85585,0 -3.88042,0.91587 -2.02457,0.91588 -3.88042,2.3379 v 20.10107 h -4.53118 v -26.92194 h 4.53118 v 2.98865 q 2.12097,-1.75945 4.38656,-2.74763 2.26559,-0.98818 4.65169,-0.98818 4.36246,0 6.65215,2.62712 2.28969,2.62711 2.28969,7.56802 z m 18.1247,-6.86907 -6.79676,15.78681 h -3.5189 l 4.19375,-15.78681 z m 40.17805,-6.65216 h -15.03965 v -4.36246 h 15.03965 z m 29.98289,10.46027 q 0,6.84497 -3.10916,10.05054 -3.10916,3.20556 -9.56849,3.20556 -2.14508,0 -4.19375,-0.31332 -2.02457,-0.28923 -4.00094,-0.84357 v -4.62759 h 0.24102 q 1.1087,0.43384 3.5189,1.06049 2.4102,0.65075 4.8204,0.65075 2.31379,0 3.83222,-0.55434 1.51842,-0.55435 2.36199,-1.54253 0.84357,-0.93998 1.2051,-2.26559 0.36153,-1.32561 0.36153,-2.96454 v -2.45841 q -2.04867,1.63894 -3.92862,2.45841 -1.85586,0.79536 -4.7481,0.79536 -4.8204,0 -7.66444,-3.47069 -2.81993,-3.49479 -2.81993,-9.83361 0,-3.47069 0.96408,-5.9773 0.98818,-2.53071 2.67532,-4.36246 1.56663,-1.71124 3.80812,-2.65122 2.24149,-0.96408 4.45887,-0.96408 2.33789,0 3.90452,0.48204 1.59074,0.45794 3.35018,1.42202 l 0.28923,-1.1569 h 4.24195 z m -4.53118,-4.33836 v -14.67812 q -1.80765,-0.81947 -3.37428,-1.15689 -1.54253,-0.36153 -3.08505,-0.36153 -3.73581,0 -5.88089,2.5066 -2.14508,2.50661 -2.14508,7.27881 0,4.53118 1.59073,6.86907 1.59073,2.33789 5.27834,2.33789 1.97636,0 3.95273,-0.74716 2.00046,-0.77126 3.6635,-2.04867 z m 34.39356,-5.63987 q 0,5.49526 -2.74763,9.32748 -3.08506,4.29015 -8.3875,4.29015 -4.33836,0 -6.70036,-3.30197 v 2.72353 h -4.33836 v -25.59633 h 3.90453 v 3.42248 q 2.72352,-4.00093 7.47162,-4.00093 6.74856,0 9.47209,6.21832 1.32561,3.03685 1.32561,6.91727 z m -4.45888,0.16872 q 0,-3.97683 -1.37381,-6.55575 -1.73534,-3.32607 -5.37475,-3.32607 -3.6394,0 -5.54346,3.49479 -1.51842,2.81993 -1.51842,6.77266 0,3.78401 1.47022,6.33883 1.80765,3.15736 5.30244,3.15736 3.6394,0 5.51936,-3.30198 1.51842,-2.67532 1.51842,-6.57984 z m 33.47768,12.87047 h -4.53117 v -15.32888 q 0,-1.85585 -0.21692,-3.47069 -0.21692,-1.63893 -0.79537,-2.55481 -0.60255,-1.01228 -1.73534,-1.49432 -1.13279,-0.50614 -2.94044,-0.50614 -1.85586,0 -3.88043,0.91587 -2.02457,0.91588 -3.88042,2.3379 v 20.10107 h -4.53118 v -26.92194 h 4.53118 v 2.98865 q 2.12098,-1.75945 4.38657,-2.74763 2.26558,-0.98818 4.65168,-0.98818 4.36246,0 6.65215,2.62712 2.28969,2.62711 2.28969,7.56802 z m 42.34722,-37.50272 -17.28114,44.82972 h -4.16965 l 17.20883,-44.82972 z"
         id="text4"
         style="font-size:49.3609px;line-height:1.25;-inkscape-font-specification:'sans-serif, Normal';fill:#3f3f3f;stroke-width:0.264582"
         aria-label="/ ˈdʒɑr gən, -gɒn /" />
      <g
         id="g8"
         transform="translate(0,52.111235)"
         style="fill:#3f3f3f;fill-opacity:1">
        <path
           d="m 254.19729,416.38093 h -10.43053 v -2.06914 h 3.96869 v -9.6334 h -4.10437 v -1.89954 q 0.76321,0 1.67906,-0.10176 0.91585,-0.11873 1.42466,-0.32225 0.62753,-0.27136 1.00065,-0.64449 0.37313,-0.37312 0.42401,-1.05153 h 2.28963 v 13.65297 h 3.7482 z"
           id="text5"
           style="font-size:34.7345px;line-height:1.25;-inkscape-font-specification:'sans-serif, Normal';font-variant-position:super;stroke-width:0.264581"
           aria-label="1" />
        <path
           d="m 75.81287,396.24123 q 1.184664,-0.93786 3.011021,-0.93786 1.826357,0 2.96166,0.93786 1.184664,0.8885 1.184664,2.51741 0,1.57956 -1.184664,2.51742 -1.135303,0.88849 -2.96166,0.88849 -1.776996,0 -2.96166,-0.88849 -1.184664,-0.93786 -1.184664,-2.51742 0,-1.62891 1.135303,-2.51741 z m 6.515652,9.32923 v 28.62938 q 0,3.85016 -1.727635,5.67652 -1.678274,1.87572 -5.676515,1.87572 -2.46805,0 -4.44249,-0.59234 l 0.444249,-4.39313 q 1.036581,0.29617 2.319967,0.29617 1.382108,0 1.97444,-0.59233 0.592332,-0.59233 0.592332,-2.31997 V 410.2104 l -3.208465,-1.38211 v -3.25783 z m 17.078893,-0.59233 q 10.760695,0 10.760695,9.52667 v 11.25431 q 0,0.83914 0.44425,1.33275 0.49361,0.44425 1.23403,0.44425 h 0.88849 v 4.0476 q -2.07316,0.29617 -3.01102,0.29617 -4.24504,0 -5.28162,-3.94888 l -0.0494,-0.39489 q -2.81358,4.63993 -8.342013,4.63993 -3.652714,0 -5.824598,-1.92508 -2.171884,-1.92508 -2.171884,-5.62715 0,-3.50463 2.813577,-5.77524 2.862938,-2.2706 9.082424,-2.2706 2.073164,0 3.702074,0.19744 v -2.17188 q 0,-4.73866 -4.837377,-4.73866 -3.998241,0 -7.799038,2.41869 l -1.727635,-4.0476 q 4.738656,-3.25783 10.119005,-3.25783 z m 1.283385,15.20319 q -6.416929,0 -6.416929,4.19568 0,1.67828 0.98722,2.61614 1.036581,0.88849 2.912299,0.88849 2.27061,0 3.85016,-1.82635 1.62891,-1.82636 1.62891,-3.94888 v -1.67828 q -1.23402,-0.2468 -2.96166,-0.2468 z m 31.98593,-15.20319 q 1.43147,0 2.61613,0.44425 l -0.54297,5.92332 q -1.38211,-0.24681 -2.56677,-0.24681 -4.0476,0 -6.17013,3.554 v 12.48833 l 4.39313,1.28339 v 3.1591 h -14.1666 v -3.1591 l 3.25782,-1.28339 v -17.07891 l -3.20846,-1.23402 v -3.25783 h 8.34201 l 0.69105,4.09697 h 0.0987 q 1.18467,-2.36933 3.10974,-3.50464 1.92508,-1.18466 4.14633,-1.18466 z m 6.76246,7.25607 q 1.03658,-0.98722 2.81358,-0.98722 1.77699,0 2.81357,0.98722 1.03658,0.93786 1.03658,2.66549 0,1.67828 -1.08594,2.71486 -1.03658,0.98722 -2.76421,0.98722 -1.777,0 -2.81358,-0.98722 -1.03658,-1.03658 -1.03658,-2.6655 0,-1.72763 1.03658,-2.71485 z m 36.82331,-7.30543 v 5.52843 l -4.59057,-0.69105 q 1.53019,1.72763 1.53019,4.39313 0,4.19568 -3.01102,6.36757 -3.01102,2.17188 -8.44073,2.17188 -2.46805,0 -4.0476,-0.44425 -0.44425,0.59233 -0.44425,1.38211 0,2.36933 3.20846,2.36933 h 7.20671 q 3.99824,0 6.17012,1.87571 2.17189,1.82636 2.17189,4.98547 0,3.94888 -3.40591,6.51565 -3.35655,2.56677 -10.16837,2.56677 -12.43897,0 -12.43897,-6.46629 0,-3.50463 3.70208,-5.87396 -1.67828,-1.38211 -1.67828,-3.94888 0,-2.76422 2.07316,-4.6893 -3.60335,-2.22124 -3.60335,-6.9599 0,-4.39313 3.15911,-6.71309 3.20846,-2.31997 8.49009,-2.31997 3.35655,0 6.0714,0.93786 z m -14.1666,3.75144 q -2.41869,0 -3.75144,1.33274 -1.33275,1.33275 -1.33275,3.75144 0,2.46805 1.33275,3.75143 1.33275,1.28339 3.75144,1.28339 2.2706,0 3.60335,-1.28339 1.38211,-1.33274 1.38211,-3.75143 0,-2.46805 -1.38211,-3.75144 -1.33275,-1.33274 -3.60335,-1.33274 z m 3.89952,22.50861 h -8.44074 q -1.72763,0.93786 -1.72763,3.01102 0,3.60336 6.66373,3.60336 3.30719,0 5.28163,-0.98722 2.0238,-0.98722 2.0238,-3.06039 0,-2.56677 -3.80079,-2.56677 z m 25.81588,-26.21069 q 6.0714,0 9.62539,3.50463 3.554,3.45527 3.554,10.11901 0,6.46629 -3.75144,10.02028 -3.75144,3.55399 -9.77348,3.55399 -5.87396,0 -9.37859,-3.50463 -3.45527,-3.55399 -3.45527,-10.06964 0,-6.51566 3.65272,-10.06965 3.65271,-3.55399 9.52667,-3.55399 z m 4.49185,7.15735 q -1.72764,-2.17189 -4.54121,-2.17189 -2.81358,0 -4.54121,2.17189 -1.67828,2.17188 -1.67828,6.46629 0,4.2944 1.67828,6.41693 1.72763,2.12252 4.54121,2.12252 2.81357,0 4.54121,-2.12252 1.777,-2.17189 1.777,-6.41693 0,-4.34377 -1.777,-6.46629 z m 30.01153,-7.15735 q 8.44073,0 8.44073,9.32923 v 12.88322 l 3.20847,1.23403 v 3.1591 h -9.72412 v -15.9436 q 0,-2.9123 -0.98722,-4.14633 -0.93786,-1.28338 -3.20846,-1.28338 -2.61614,0 -5.72588,3.10974 v 13.87044 l 3.20847,1.23403 v 3.1591 h -12.98195 v -3.1591 l 3.25783,-1.23403 v -17.12827 l -3.25783,-1.23402 v -3.25783 h 8.7369 l 0.44425,3.30719 h 0.0987 q 3.55399,-3.89952 8.49009,-3.89952 z"
           id="text8"
           style="font-weight:600;font-size:49.361px;line-height:1.25;font-family:'LFT Etica Sheriff';-inkscape-font-specification:'LFT Etica Sheriff, Semi-Bold';stroke-width:1.14849"
           aria-label="jar·gon" />
      </g>
      <path
         d="M 94.066352,625.13281 H 74.640138 v -3.6635 h 7.471621 v -24.0538 h -7.471621 v -3.27787 q 1.518426,0 3.25377,-0.24102 1.735344,-0.26512 2.627118,-0.74716 1.108693,-0.60255 1.735345,-1.51843 0.650754,-0.93998 0.747162,-2.50661 h 3.73581 v 32.34489 h 7.327009 z m 17.112418,0 h -5.76037 v -6.86907 h 5.76037 z m 53.86798,-31.64593 h -12.82227 v 31.64593 h -4.77219 v -31.64593 h -12.82227 v -4.24195 h 30.41673 z m 21.6918,18.65495 H 166.9026 q 0,2.48251 0.74717,4.33836 0.74716,1.83176 2.04867,3.01275 1.2533,1.1569 2.96454,1.73535 1.73535,0.57845 3.80812,0.57845 2.74763,0 5.51936,-1.08459 2.79583,-1.1087 3.97683,-2.16918 h 0.24102 v 4.94091 q -2.28969,0.96408 -4.67579,1.61483 -2.3861,0.65075 -5.01322,0.65075 -6.70035,0 -10.46027,-3.6153 -3.75991,-3.6394 -3.75991,-10.31565 0,-6.60395 3.5912,-10.48437 3.6153,-3.88043 9.49619,-3.88043 5.44705,0 8.38749,3.18147 2.96455,3.18146 2.96455,9.03825 z m -4.41067,-3.47069 q -0.0241,-3.56709 -1.80765,-5.51935 -1.75944,-1.95227 -5.37474,-1.95227 -3.6394,0 -5.80858,2.14508 -2.14508,2.14508 -2.43431,5.32654 z m 31.18799,14.77453 q -2.26558,1.08459 -4.31425,1.68714 -2.02457,0.60255 -4.31426,0.60255 -2.91634,0 -5.35065,-0.84357 -2.4343,-0.86767 -4.16964,-2.60301 -1.75945,-1.73535 -2.72353,-4.38657 -0.96408,-2.65122 -0.96408,-6.19421 0,-6.60395 3.6153,-10.36386 3.6394,-3.75992 9.5926,-3.75992 2.31379,0 4.53117,0.65076 2.24149,0.65075 4.09734,1.59073 v 5.03732 h -0.24102 q -2.07277,-1.61484 -4.29015,-2.48251 -2.19328,-0.86767 -4.29016,-0.86767 -3.85632,0 -6.0978,2.60302 -2.21739,2.57891 -2.21739,7.59213 0,4.8686 2.16918,7.49572 2.19328,2.60302 6.14601,2.60302 1.37382,0 2.79583,-0.36153 1.42202,-0.36153 2.55482,-0.93998 0.98818,-0.50614 1.85585,-1.06049 0.86767,-0.57845 1.37381,-0.98818 h 0.24102 z m 28.31986,1.68714 h -4.53117 v -15.32887 q 0,-1.85586 -0.21692,-3.47069 -0.21692,-1.63894 -0.79537,-2.55481 -0.60255,-1.01229 -1.73534,-1.49433 -1.1328,-0.50614 -2.94045,-0.50614 -1.85585,0 -3.88042,0.91588 -2.02457,0.91587 -3.88042,2.33789 v 20.10107 h -4.53118 V 587.6301 h 4.53118 v 13.56942 q 2.12098,-1.75944 4.38656,-2.74762 2.26559,-0.98819 4.65169,-0.98819 4.36246,0 6.65215,2.62712 2.28969,2.62712 2.28969,7.56803 z m 31.23619,0 h -4.53117 v -15.32887 q 0,-1.85586 -0.21692,-3.47069 -0.21692,-1.63894 -0.79537,-2.55481 -0.60255,-1.01229 -1.73534,-1.49433 -1.13279,-0.50614 -2.94044,-0.50614 -1.85586,0 -3.88043,0.91588 -2.02457,0.91587 -3.88042,2.33789 v 20.10107 h -4.53118 v -26.92193 h 4.53118 v 2.98864 q 2.12098,-1.75944 4.38657,-2.74762 2.26558,-0.98819 4.65168,-0.98819 4.36246,0 6.65215,2.62712 2.28969,2.62712 2.28969,7.56803 z m 13.59353,-31.42901 h -5.10963 v -4.69989 h 5.10963 z m -0.28922,31.42901 h -4.53118 v -26.92193 h 4.53118 z m 28.8742,-1.68714 q -2.26559,1.08459 -4.31426,1.68714 -2.02456,0.60255 -4.31425,0.60255 -2.91635,0 -5.35065,-0.84357 -2.4343,-0.86767 -4.16964,-2.60301 -1.75945,-1.73535 -2.72353,-4.38657 -0.96408,-2.65122 -0.96408,-6.19421 0,-6.60395 3.6153,-10.36386 3.6394,-3.75992 9.5926,-3.75992 2.31379,0 4.53117,0.65076 2.24149,0.65075 4.09734,1.59073 v 5.03732 h -0.24102 q -2.07277,-1.61484 -4.29015,-2.48251 -2.19329,-0.86767 -4.29016,-0.86767 -3.85632,0 -6.09781,2.60302 -2.21738,2.57891 -2.21738,7.59213 0,4.8686 2.16918,7.49572 2.19328,2.60302 6.14601,2.60302 1.37381,0 2.79583,-0.36153 1.42202,-0.36153 2.55481,-0.93998 0.98819,-0.50614 1.85586,-1.06049 0.86767,-0.57845 1.37381,-0.98818 h 0.24102 z m 26.72911,1.68714 h -4.50707 v -2.86814 q -0.60255,0.40974 -1.63894,1.1569 -1.01228,0.72306 -1.97636,1.1569 -1.13279,0.55434 -2.60302,0.91587 -1.47022,0.38563 -3.44658,0.38563 -3.63941,0 -6.17012,-2.4102 -2.53071,-2.4102 -2.53071,-6.14601 0,-3.06095 1.30151,-4.94091 1.32561,-1.90405 3.75991,-2.98865 2.45841,-1.08459 5.905,-1.47022 3.44658,-0.38563 7.39931,-0.57845 v -0.69895 q 0,-1.54253 -0.55435,-2.55482 -0.53024,-1.01228 -1.54252,-1.59073 -0.96408,-0.55434 -2.3138,-0.74716 -1.34971,-0.19282 -2.81993,-0.19282 -1.78355,0 -3.97683,0.48204 -2.19328,0.45794 -4.53118,1.34972 h -0.24102 v -4.60349 q 1.32561,-0.36153 3.83222,-0.79536 2.50661,-0.43384 4.94091,-0.43384 2.84404,0 4.94091,0.48204 2.12098,0.45794 3.66351,1.59073 1.51842,1.1087 2.31379,2.86814 0.79536,1.75945 0.79536,4.36246 z m -4.50707,-6.62805 v -7.49572 q -2.07277,0.12051 -4.89271,0.36153 -2.79583,0.24102 -4.43477,0.69896 -1.95226,0.55434 -3.15736,1.73534 -1.2051,1.1569 -1.2051,3.20557 0,2.31379 1.39792,3.49479 1.39791,1.15689 4.26605,1.15689 2.3861,0 4.36247,-0.91587 1.97636,-0.93998 3.6635,-2.24149 z m 17.81138,6.62805 h -4.53118 V 587.6301 h 4.53118 z m 40.29855,-0.24102 q -1.2774,0.33743 -2.79583,0.55435 -1.49432,0.21692 -2.67532,0.21692 -4.12144,0 -6.26652,-2.21739 -2.14508,-2.21738 -2.14508,-7.11009 v -14.31659 h -3.06095 v -3.80811 h 3.06095 v -7.73675 h 4.53118 v 7.73675 h 9.35157 v 3.80811 h -9.35157 v 12.26792 q 0,2.12098 0.0964,3.32608 0.0964,1.181 0.67486,2.21738 0.53024,0.96408 1.44612,1.42202 0.93998,0.43384 2.84404,0.43384 1.10869,0 2.31379,-0.31333 1.2051,-0.33743 1.73534,-0.55435 h 0.24102 z m 28.00653,-12.74996 h -19.83595 q 0,2.48251 0.74717,4.33836 0.74716,1.83176 2.04867,3.01275 1.2533,1.1569 2.96454,1.73535 1.73535,0.57845 3.80812,0.57845 2.74763,0 5.51936,-1.08459 2.79583,-1.1087 3.97683,-2.16918 h 0.24102 v 4.94091 q -2.28969,0.96408 -4.67579,1.61483 -2.3861,0.65075 -5.01322,0.65075 -6.70035,0 -10.46027,-3.6153 -3.75991,-3.6394 -3.75991,-10.31565 0,-6.60395 3.5912,-10.48437 3.6153,-3.88043 9.49619,-3.88043 5.44705,0 8.38749,3.18147 2.96455,3.18146 2.96455,9.03825 z m -4.41067,-3.47069 q -0.0241,-3.56709 -1.80765,-5.51935 -1.75944,-1.95227 -5.37474,-1.95227 -3.6394,0 -5.80858,2.14508 -2.14508,2.14508 -2.43431,5.32654 z m 28.07884,-5.51935 h -0.24102 q -1.01228,-0.24102 -1.97636,-0.33743 -0.93998,-0.12051 -2.24149,-0.12051 -2.09687,0 -4.04913,0.93998 -1.95227,0.91587 -3.75992,2.38609 v 19.11289 h -4.53117 v -26.92193 h 4.53117 v 3.97683 q 2.69943,-2.16918 4.7481,-3.06096 2.07277,-0.91587 4.21785,-0.91587 1.181,0 1.71124,0.0723 0.53025,0.0482 1.59073,0.21692 z m 43.55233,21.98102 h -4.53118 v -15.32887 q 0,-1.73535 -0.16871,-3.35018 -0.14462,-1.61483 -0.65076,-2.57891 -0.55434,-1.03639 -1.59073,-1.56663 -1.03639,-0.53025 -2.98865,-0.53025 -1.90406,0 -3.80811,0.96408 -1.90406,0.93998 -3.80812,2.4102 0.0723,0.55435 0.12051,1.30151 0.0482,0.72306 0.0482,1.44612 v 17.23293 h -4.53117 v -15.32887 q 0,-1.78355 -0.16872,-3.37428 -0.14461,-1.61484 -0.65075,-2.57892 -0.55435,-1.03638 -1.59073,-1.54252 -1.03639,-0.53025 -2.98865,-0.53025 -1.85586,0 -3.73581,0.91588 -1.85586,0.91587 -3.71171,2.33789 v 20.10107 h -4.53118 v -26.92193 h 4.53118 v 2.98864 q 2.12098,-1.75944 4.21785,-2.74762 2.12098,-0.98819 4.50707,-0.98819 2.74763,0 4.65169,1.1569 1.92816,1.1569 2.86814,3.20557 2.74763,-2.3138 5.01322,-3.32608 2.26558,-1.03639 4.8445,-1.03639 4.43477,0 6.53164,2.69943 2.12098,2.67532 2.12098,7.49572 z m 13.59351,-31.42901 h -5.10963 v -4.69989 h 5.10963 z m -0.28923,31.42901 h -4.53117 v -26.92193 h 4.53117 z m 31.47721,0 h -4.53117 v -15.32887 q 0,-1.85586 -0.21692,-3.47069 -0.21692,-1.63894 -0.79537,-2.55481 -0.60255,-1.01229 -1.73534,-1.49433 -1.1328,-0.50614 -2.94045,-0.50614 -1.85585,0 -3.88042,0.91588 -2.02457,0.91587 -3.88042,2.33789 v 20.10107 h -4.53118 v -26.92193 h 4.53118 v 2.98864 q 2.12097,-1.75944 4.38656,-2.74762 2.26559,-0.98819 4.65169,-0.98819 4.36246,0 6.65215,2.62712 2.28969,2.62712 2.28969,7.56803 z m 31.67004,-13.44891 q 0,6.57984 -3.37428,10.38796 -3.37428,3.80811 -9.03825,3.80811 -5.71217,0 -9.08645,-3.80811 -3.35018,-3.80812 -3.35018,-10.38796 0,-6.57985 3.35018,-10.38797 3.37428,-3.83222 9.08645,-3.83222 5.66397,0 9.03825,3.83222 3.37428,3.80812 3.37428,10.38797 z m -4.67578,0 q 0,-5.23014 -2.04867,-7.76085 -2.04868,-2.55481 -5.68808,-2.55481 -3.6876,0 -5.73627,2.55481 -2.02457,2.53071 -2.02457,7.76085 0,5.06142 2.04867,7.68853 2.04867,2.60302 5.71217,2.60302 3.6153,0 5.66397,-2.57891 2.07278,-2.60302 2.07278,-7.71264 z m 16.26886,13.44891 h -4.53118 V 587.6301 h 4.53118 z m 31.91104,-13.44891 q 0,6.57984 -3.37428,10.38796 -3.37428,3.80811 -9.03825,3.80811 -5.71217,0 -9.08645,-3.80811 -3.35018,-3.80812 -3.35018,-10.38796 0,-6.57985 3.35018,-10.38797 3.37428,-3.83222 9.08645,-3.83222 5.66397,0 9.03825,3.83222 3.37428,3.80812 3.37428,10.38797 z m -4.67578,0 q 0,-5.23014 -2.04868,-7.76085 -2.04867,-2.55481 -5.68807,-2.55481 -3.6876,0 -5.73627,2.55481 -2.02457,2.53071 -2.02457,7.76085 0,5.06142 2.04867,7.68853 2.04867,2.60302 5.71217,2.60302 3.6153,0 5.66397,-2.57891 2.07278,-2.60302 2.07278,-7.71264 z m 33.52589,10.38796 q 0,6.84497 -3.10916,10.05053 -3.10915,3.20557 -9.56849,3.20557 -2.14508,0 -4.19375,-0.31333 -2.02457,-0.28922 -4.00093,-0.84357 v -4.62758 h 0.24102 q 1.10869,0.43383 3.51889,1.06049 2.4102,0.65075 4.8204,0.65075 2.31379,0 3.83222,-0.55434 1.51843,-0.55435 2.362,-1.54253 0.84357,-0.93998 1.2051,-2.26559 0.36153,-1.32561 0.36153,-2.96455 v -2.4584 q -2.04867,1.63893 -3.92863,2.4584 -1.85585,0.79537 -4.74809,0.79537 -4.82041,0 -7.66444,-3.47069 -2.81994,-3.49479 -2.81994,-9.83362 0,-3.47069 0.96408,-5.97729 0.98819,-2.53071 2.67533,-4.36247 1.56663,-1.71124 3.80811,-2.65122 2.24149,-0.96408 4.45887,-0.96408 2.3379,0 3.90453,0.48204 1.59073,0.45794 3.35018,1.42202 l 0.28922,-1.15689 h 4.24195 z m -4.53117,-4.33836 v -14.67812 q -1.80765,-0.81947 -3.37428,-1.1569 -1.54253,-0.36153 -3.08506,-0.36153 -3.73581,0 -5.88089,2.50661 -2.14508,2.50661 -2.14508,7.27881 0,4.53117 1.59074,6.86907 1.59073,2.33789 5.27833,2.33789 1.97637,0 3.95273,-0.74716 2.00047,-0.77127 3.66351,-2.04867 z m 36.73144,-19.52262 -15.7145,36.85196 h -4.8445 l 5.01321,-11.23154 -10.72539,-25.62042 h 4.91681 l 8.26699,19.95645 8.33929,-19.95645 z m 45.60099,26.92193 h -4.53118 v -2.98865 q -2.28969,1.80765 -4.38656,2.77173 -2.09688,0.96408 -4.62759,0.96408 -4.24195,0 -6.60395,-2.57891 -2.36199,-2.60302 -2.36199,-7.61623 v -17.47395 h 4.53117 v 15.32887 q 0,2.04867 0.19282,3.51889 0.19281,1.44612 0.81947,2.48251 0.65075,1.06049 1.68714,1.54253 1.03638,0.48204 3.01275,0.48204 1.75944,0 3.83222,-0.91588 2.09687,-0.91588 3.90452,-2.33789 v -20.10107 h 4.53118 z m 31.42902,0 h -4.53118 v -15.32887 q 0,-1.85586 -0.21692,-3.47069 -0.21691,-1.63894 -0.79536,-2.55481 -0.60255,-1.01229 -1.73535,-1.49433 -1.13279,-0.50614 -2.94044,-0.50614 -1.85585,0 -3.88042,0.91588 -2.02457,0.91587 -3.88043,2.33789 v 20.10107 h -4.53117 v -26.92193 h 4.53117 v 2.98864 q 2.12098,-1.75944 4.38657,-2.74762 2.26559,-0.98819 4.65169,-0.98819 4.36246,0 6.65215,2.62712 2.28969,2.62712 2.28969,7.56803 z m 13.59348,-31.42901 h -5.10963 v -4.69989 h 5.10963 z m -0.28923,31.42901 h -4.53117 v -26.92193 h 4.53117 z m 30.80239,9.93003 h -4.53118 v -12.96688 q -2.09687,1.80765 -4.16965,2.69942 -2.07277,0.86768 -4.48297,0.86768 -4.7963,0 -7.66444,-3.68761 -2.84403,-3.71171 -2.84403,-10.21925 0,-3.47069 0.98818,-6.12191 1.01228,-2.67532 2.65122,-4.48297 1.59073,-1.75945 3.73581,-2.72353 2.14508,-0.96408 4.53118,-0.96408 2.16918,0 3.83222,0.48204 1.68714,0.48204 3.42248,1.42202 l 0.28922,-1.15689 h 4.24196 z m -4.53118,-16.775 v -15.23246 q -1.87996,-0.84357 -3.32608,-1.181 -1.44612,-0.33743 -3.13326,-0.33743 -3.92862,0 -5.97729,2.67532 -2.04867,2.65122 -2.04867,7.32701 0,4.724 1.63893,7.27881 1.66304,2.53071 5.20604,2.53071 1.97636,0 3.95272,-0.84357 1.97637,-0.86767 3.68761,-2.21739 z m 35.76737,6.84497 h -4.53118 v -2.98865 q -2.28969,1.80765 -4.38656,2.77173 -2.09688,0.96408 -4.62759,0.96408 -4.24195,0 -6.60395,-2.57891 -2.36199,-2.60302 -2.36199,-7.61623 v -17.47395 h 4.53117 v 15.32887 q 0,2.04867 0.19282,3.51889 0.19282,1.44612 0.81947,2.48251 0.65075,1.06049 1.68714,1.54253 1.03638,0.48204 3.01275,0.48204 1.75944,0 3.83222,-0.91588 2.09687,-0.91588 3.90452,-2.33789 v -20.10107 h 4.53118 z m 31.45312,-12.99098 h -19.83595 q 0,2.48251 0.74717,4.33836 0.74716,1.83176 2.04867,3.01275 1.2533,1.1569 2.96454,1.73535 1.73535,0.57845 3.80812,0.57845 2.74763,0 5.51936,-1.08459 2.79583,-1.1087 3.97683,-2.16918 h 0.24102 v 4.94091 q -2.28969,0.96408 -4.67579,1.61483 -2.3861,0.65075 -5.01322,0.65075 -6.70035,0 -10.46027,-3.6153 -3.75991,-3.6394 -3.75991,-10.31565 0,-6.60395 3.5912,-10.48437 3.6153,-3.88043 9.49619,-3.88043 5.44705,0 8.3875,3.18147 2.96454,3.18146 2.96454,9.03825 z m -4.41067,-3.47069 q -0.0241,-3.56709 -1.80765,-5.51935 -1.75944,-1.95227 -5.37474,-1.95227 -3.6394,0 -5.80858,2.14508 -2.14508,2.14508 -2.43431,5.32654 z m 42.61233,16.22065 q -1.2774,0.33743 -2.79583,0.55435 -1.49432,0.21692 -2.67532,0.21692 -4.12144,0 -6.26652,-2.21739 -2.14508,-2.21738 -2.14508,-7.11009 v -14.31659 h -3.06095 v -3.80811 h 3.06095 v -7.73675 h 4.53118 v 7.73675 h 9.35157 v 3.80811 h -9.35157 v 12.26792 q 0,2.12098 0.0964,3.32608 0.0964,1.181 0.67485,2.21738 0.53025,0.96408 1.44612,1.42202 0.93998,0.43384 2.84404,0.43384 1.10869,0 2.31379,-0.31333 1.2051,-0.33743 1.73534,-0.55435 h 0.24102 z m 28.41627,-13.20789 q 0,6.57984 -3.37428,10.38796 -3.37428,3.80811 -9.03825,3.80811 -5.71218,0 -9.08646,-3.80811 -3.35018,-3.80812 -3.35018,-10.38796 0,-6.57985 3.35018,-10.38797 3.37428,-3.83222 9.08646,-3.83222 5.66397,0 9.03825,3.83222 3.37428,3.80812 3.37428,10.38797 z m -4.67579,0 q 0,-5.23014 -2.04867,-7.76085 -2.04867,-2.55481 -5.68807,-2.55481 -3.68761,0 -5.73628,2.55481 -2.02457,2.53071 -2.02457,7.76085 0,5.06142 2.04867,7.68853 2.04867,2.60302 5.71218,2.60302 3.6153,0 5.66397,-2.57891 2.07277,-2.60302 2.07277,-7.71264 z m 49.96347,13.44891 h -4.50707 v -2.86814 q -0.60255,0.40974 -1.63894,1.1569 -1.01228,0.72306 -1.97636,1.1569 -1.13279,0.55434 -2.60302,0.91587 -1.47022,0.38563 -3.44658,0.38563 -3.63941,0 -6.17012,-2.4102 -2.53071,-2.4102 -2.53071,-6.14601 0,-3.06095 1.30151,-4.94091 1.32561,-1.90405 3.75991,-2.98865 2.45841,-1.08459 5.90499,-1.47022 3.44659,-0.38563 7.39932,-0.57845 v -0.69895 q 0,-1.54253 -0.55435,-2.55482 -0.53024,-1.01228 -1.54252,-1.59073 -0.96408,-0.55434 -2.3138,-0.74716 -1.34971,-0.19282 -2.81993,-0.19282 -1.78355,0 -3.97683,0.48204 -2.19328,0.45794 -4.53118,1.34972 h -0.24102 v -4.60349 q 1.32561,-0.36153 3.83222,-0.79536 2.50661,-0.43384 4.94091,-0.43384 2.84404,0 4.94091,0.48204 2.12098,0.45794 3.66351,1.59073 1.51842,1.1087 2.31379,2.86814 0.79536,1.75945 0.79536,4.36246 z m -4.50707,-6.62805 v -7.49572 q -2.07277,0.12051 -4.89271,0.36153 -2.79583,0.24102 -4.43477,0.69896 -1.95226,0.55434 -3.15736,1.73534 -1.2051,1.1569 -1.2051,3.20557 0,2.31379 1.39792,3.49479 1.39791,1.15689 4.26605,1.15689 2.3861,0 4.36247,-0.91587 1.97636,-0.93998 3.6635,-2.24149 z m 54.27774,-7.15829 q 0,3.27787 -0.94,6.0014 -0.94,2.69942 -2.6512,4.57938 -1.5908,1.78354 -3.7599,2.77173 -2.1451,0.96408 -4.5553,0.96408 -2.0969,0 -3.8081,-0.45794 -1.68718,-0.45794 -3.44663,-1.42202 v 11.27974 h -4.53117 v -36.85196 h 4.53117 v 2.81993 q 1.80765,-1.51843 4.04913,-2.53071 2.2656,-1.03639 4.8204,-1.03639 4.8686,0 7.568,3.68761 2.7236,3.6635 2.7236,10.19515 z m -4.6758,0.12051 q 0,-4.86861 -1.6631,-7.27881 -1.663,-2.4102 -5.1096,-2.4102 -1.9522,0 -3.9286,0.84357 -1.97638,0.84357 -3.78403,2.21739 v 15.25656 q 1.92813,0.86768 3.30193,1.181 1.398,0.31333 3.1574,0.31333 3.784,0 5.905,-2.55481 2.121,-2.55482 2.121,-7.56803 z m 32.6582,13.66583 h -4.5071 v -2.86814 q -0.6025,0.40974 -1.6389,1.1569 -1.0123,0.72306 -1.9764,1.1569 -1.1328,0.55434 -2.603,0.91587 -1.4702,0.38563 -3.4466,0.38563 -3.6394,0 -6.1701,-2.4102 -2.5307,-2.4102 -2.5307,-6.14601 0,-3.06095 1.3015,-4.94091 1.3256,-1.90405 3.7599,-2.98865 2.4584,-1.08459 5.905,-1.47022 3.4466,-0.38563 7.3993,-0.57845 v -0.69895 q 0,-1.54253 -0.5543,-2.55482 -0.5303,-1.01228 -1.5426,-1.59073 -0.964,-0.55434 -2.3138,-0.74716 -1.3497,-0.19282 -2.8199,-0.19282 -1.7835,0 -3.9768,0.48204 -2.1933,0.45794 -4.5312,1.34972 h -0.241 v -4.60349 q 1.3256,-0.36153 3.8322,-0.79536 2.5066,-0.43384 4.9409,-0.43384 2.844,0 4.9409,0.48204 2.121,0.45794 3.6635,1.59073 1.5185,1.1087 2.3138,2.86814 0.7954,1.75945 0.7954,4.36246 z m -4.5071,-6.62805 v -7.49572 q -2.0728,0.12051 -4.8927,0.36153 -2.7958,0.24102 -4.4348,0.69896 -1.9522,0.55434 -3.1573,1.73534 -1.2051,1.1569 -1.2051,3.20557 0,2.31379 1.3979,3.49479 1.3979,1.15689 4.266,1.15689 2.3861,0 4.3625,-0.91587 1.9764,-0.93998 3.6635,-2.24149 z m 30.0311,-15.35297 h -0.241 q -1.0123,-0.24102 -1.9764,-0.33743 -0.94,-0.12051 -2.2415,-0.12051 -2.0969,0 -4.0491,0.93998 -1.9523,0.91587 -3.7599,2.38609 v 19.11289 h -4.5312 v -26.92193 h 4.5312 v 3.97683 q 2.6994,-2.16918 4.7481,-3.06096 2.0727,-0.91587 4.2178,-0.91587 1.181,0 1.7113,0.0723 0.5302,0.0482 1.5907,0.21692 z m 18.2452,21.74 q -1.2774,0.33743 -2.7959,0.55435 -1.4943,0.21692 -2.6753,0.21692 -4.1214,0 -6.2665,-2.21739 -2.1451,-2.21738 -2.1451,-7.11009 v -14.31659 h -3.0609 v -3.80811 h 3.0609 v -7.73675 h 4.5312 v 7.73675 h 9.3516 v 3.80811 h -9.3516 v 12.26792 q 0,2.12098 0.096,3.32608 0.096,1.181 0.6749,2.21738 0.5302,0.96408 1.4461,1.42202 0.94,0.43384 2.844,0.43384 1.1087,0 2.3138,-0.31333 1.2051,-0.33743 1.7354,-0.55435 h 0.241 z m 10.3397,-31.18799 h -5.1096 v -4.69989 h 5.1096 z m -0.2892,31.42901 h -4.5312 v -26.92193 h 4.5312 z m 28.8742,-1.68714 q -2.2655,1.08459 -4.3142,1.68714 -2.0246,0.60255 -4.3143,0.60255 -2.9163,0 -5.3506,-0.84357 -2.4343,-0.86767 -4.1697,-2.60301 -1.7594,-1.73535 -2.7235,-4.38657 -0.9641,-2.65122 -0.9641,-6.19421 0,-6.60395 3.6153,-10.36386 3.6394,-3.75992 9.5926,-3.75992 2.3138,0 4.5312,0.65076 2.2415,0.65075 4.0973,1.59073 v 5.03732 h -0.241 q -2.0728,-1.61484 -4.2901,-2.48251 -2.1933,-0.86767 -4.2902,-0.86767 -3.8563,0 -6.0978,2.60302 -2.2174,2.57891 -2.2174,7.59213 0,4.8686 2.1692,7.49572 2.1933,2.60302 6.146,2.60302 1.3738,0 2.7958,-0.36153 1.4221,-0.36153 2.5549,-0.93998 0.9881,-0.50614 1.8558,-1.06049 0.8677,-0.57845 1.3738,-0.98818 h 0.241 z m 28.127,1.68714 h -4.5311 v -2.98865 q -2.2897,1.80765 -4.3866,2.77173 -2.0969,0.96408 -4.6276,0.96408 -4.2419,0 -6.6039,-2.57891 -2.362,-2.60302 -2.362,-7.61623 v -17.47395 h 4.5311 v 15.32887 q 0,2.04867 0.1929,3.51889 0.1928,1.44612 0.8194,2.48251 0.6508,1.06049 1.6872,1.54253 1.0364,0.48204 3.0127,0.48204 1.7595,0 3.8322,-0.91588 2.0969,-0.91588 3.9046,-2.33789 v -20.10107 h 4.5311 z m 13.4972,0 h -4.5312 V 587.6301 h 4.5312 z m 29.8865,0 h -4.507 v -2.86814 q -0.6026,0.40974 -1.639,1.1569 -1.0123,0.72306 -1.9763,1.1569 -1.1328,0.55434 -2.6031,0.91587 -1.4702,0.38563 -3.4465,0.38563 -3.6394,0 -6.1702,-2.4102 -2.5307,-2.4102 -2.5307,-6.14601 0,-3.06095 1.3015,-4.94091 1.3257,-1.90405 3.76,-2.98865 2.4584,-1.08459 5.9049,-1.47022 3.4466,-0.38563 7.3994,-0.57845 v -0.69895 q 0,-1.54253 -0.5544,-2.55482 -0.5302,-1.01228 -1.5425,-1.59073 -0.9641,-0.55434 -2.3138,-0.74716 -1.3497,-0.19282 -2.8199,-0.19282 -1.7836,0 -3.9769,0.48204 -2.1933,0.45794 -4.5311,1.34972 h -0.2411 v -4.60349 q 1.3256,-0.36153 3.8323,-0.79536 2.5066,-0.43384 4.9409,-0.43384 2.844,0 4.9409,0.48204 2.121,0.45794 3.6635,1.59073 1.5184,1.1087 2.3138,2.86814 0.7953,1.75945 0.7953,4.36246 z m -4.507,-6.62805 v -7.49572 q -2.0728,0.12051 -4.8927,0.36153 -2.7959,0.24102 -4.4348,0.69896 -1.9523,0.55434 -3.1574,1.73534 -1.2051,1.1569 -1.2051,3.20557 0,2.31379 1.3979,3.49479 1.398,1.15689 4.2661,1.15689 2.3861,0 4.3625,-0.91587 1.9763,-0.93998 3.6635,-2.24149 z m 30.031,-15.35297 h -0.241 q -1.0123,-0.24102 -1.9764,-0.33743 -0.94,-0.12051 -2.2415,-0.12051 -2.0969,0 -4.0491,0.93998 -1.9523,0.91587 -3.7599,2.38609 v 19.11289 h -4.5312 v -26.92193 h 4.5312 v 3.97683 q 2.6994,-2.16918 4.7481,-3.06096 2.0727,-0.91587 4.2178,-0.91587 1.181,0 1.7112,0.0723 0.5303,0.0482 1.5908,0.21692 z m 40.8529,14.22018 q 0,3.6876 -3.061,6.0496 -3.0368,2.362 -8.3152,2.362 -2.9886,0 -5.4952,-0.69896 -2.4825,-0.72306 -4.1697,-1.56663 v -5.08552 h 0.241 q 2.1451,1.61483 4.7722,2.57891 2.6271,0.93998 5.0373,0.93998 2.9887,0 4.6758,-0.96408 1.6872,-0.96408 1.6872,-3.03685 0,-1.59074 -0.9159,-2.4102 -0.9159,-0.81947 -3.5189,-1.39792 -0.9641,-0.21692 -2.5307,-0.50614 -1.5425,-0.28923 -2.8199,-0.62665 -3.543,-0.93998 -5.0374,-2.74763 -1.4702,-1.83176 -1.4702,-4.48298 0,-1.66303 0.6749,-3.13326 0.6989,-1.47022 2.0969,-2.62711 1.3497,-1.1328 3.4224,-1.78355 2.0969,-0.67486 4.6758,-0.67486 2.4102,0 4.8686,0.60255 2.4825,0.57845 4.1215,1.42202 v 4.8445 h -0.241 q -1.7354,-1.2774 -4.2179,-2.14508 -2.4825,-0.89177 -4.8686,-0.89177 -2.4825,0 -4.1938,0.96408 -1.7112,0.93998 -1.7112,2.81993 0,1.66304 1.0364,2.50661 1.0123,0.84357 3.2779,1.37382 1.2533,0.28922 2.7958,0.57844 1.5666,0.28923 2.603,0.53025 3.1574,0.72306 4.8686,2.48251 1.7113,1.78354 1.7113,4.72399 z m 28.8019,7.76084 h -4.5311 v -2.98865 q -2.2897,1.80765 -4.3866,2.77173 -2.0969,0.96408 -4.6276,0.96408 -4.2419,0 -6.6039,-2.57891 -2.362,-2.60302 -2.362,-7.61623 v -17.47395 h 4.5311 v 15.32887 q 0,2.04867 0.1929,3.51889 0.1928,1.44612 0.8194,2.48251 0.6508,1.06049 1.6872,1.54253 1.0364,0.48204 3.0127,0.48204 1.7595,0 3.8322,-0.91588 2.0969,-0.91588 3.9046,-2.33789 v -20.10107 h 4.5311 z m 32.6101,-13.66583 q 0,3.37428 -0.9641,6.0737 -0.94,2.69943 -2.5548,4.53118 -1.7113,1.90406 -3.7599,2.86814 -2.0487,0.93997 -4.5071,0.93997 -2.2897,0 -4.001,-0.55434 -1.7112,-0.53025 -3.3742,-1.44612 l -0.2893,1.2533 h -4.2419 V 587.6301 h 4.5312 v 13.40071 q 1.904,-1.56663 4.0491,-2.55481 2.1451,-1.01229 4.8204,-1.01229 4.7722,0 7.5198,3.66351 2.7718,3.6635 2.7718,10.33976 z m -4.6758,0.12051 q 0,-4.8204 -1.5908,-7.30291 -1.5907,-2.50661 -5.1337,-2.50661 -1.9764,0 -4.0009,0.86767 -2.0246,0.84357 -3.7599,2.19329 v 15.42528 q 1.9281,0.86767 3.3019,1.2051 1.398,0.33743 3.1574,0.33743 3.7599,0 5.8809,-2.45841 2.1451,-2.4825 2.1451,-7.76084 z m 20.1251,-17.88369 h -5.1096 v -4.69989 h 5.1096 z m -0.2892,32.07977 q 0,4.72399 -2.4102,7.13419 -2.4102,2.4102 -6.4593,2.4102 -0.9641,0 -2.5548,-0.19282 -1.5667,-0.19281 -2.6272,-0.48204 v -4.31425 h 0.2411 q 0.6748,0.26512 1.8076,0.60255 1.1569,0.33742 2.2415,0.33742 1.7353,0 2.7958,-0.48204 1.0605,-0.48204 1.5908,-1.44612 0.5302,-0.96408 0.6748,-2.33789 0.1687,-1.34971 0.1687,-3.30198 v -21.6918 h -5.6157 v -3.80811 h 10.1469 z m 31.4289,-13.64174 h -19.8359 q 0,2.48251 0.7471,4.33836 0.7472,1.83176 2.0487,3.01275 1.2533,1.1569 2.9646,1.73535 1.7353,0.57845 3.8081,0.57845 2.7476,0 5.5193,-1.08459 2.7959,-1.1087 3.9769,-2.16918 h 0.241 v 4.94091 q -2.2897,0.96408 -4.6758,1.61483 -2.3861,0.65075 -5.0132,0.65075 -6.7004,0 -10.4603,-3.6153 -3.7599,-3.6394 -3.7599,-10.31565 0,-6.60395 3.5912,-10.48437 3.6153,-3.88043 9.4962,-3.88043 5.447,0 8.3875,3.18147 2.9645,3.18146 2.9645,9.03825 z m -4.4106,-3.47069 q -0.024,-3.56709 -1.8077,-5.51935 -1.7594,-1.95227 -5.3747,-1.95227 -3.6394,0 -5.8086,2.14508 -2.1451,2.14508 -2.4343,5.32654 z m 31.1879,14.77453 q -2.2656,1.08459 -4.3142,1.68714 -2.0246,0.60255 -4.3143,0.60255 -2.9163,0 -5.3506,-0.84357 -2.4343,-0.86767 -4.1697,-2.60301 -1.7594,-1.73535 -2.7235,-4.38657 -0.9641,-2.65122 -0.9641,-6.19421 0,-6.60395 3.6153,-10.36386 3.6394,-3.75992 9.5926,-3.75992 2.3138,0 4.5312,0.65076 2.2415,0.65075 4.0973,1.59073 v 5.03732 h -0.241 q -2.0728,-1.61484 -4.2901,-2.48251 -2.1933,-0.86767 -4.2902,-0.86767 -3.8563,0 -6.0978,2.60302 -2.2174,2.57891 -2.2174,7.59213 0,4.8686 2.1692,7.49572 2.1933,2.60302 6.146,2.60302 1.3738,0 2.7958,-0.36153 1.4221,-0.36153 2.5548,-0.93998 0.9882,-0.50614 1.8559,-1.06049 0.8677,-0.57845 1.3738,-0.98818 h 0.241 z m 19.7879,1.44612 q -1.2774,0.33743 -2.7959,0.55435 -1.4943,0.21692 -2.6753,0.21692 -4.1214,0 -6.2665,-2.21739 -2.1451,-2.21738 -2.1451,-7.11009 v -14.31659 h -3.0609 v -3.80811 h 3.0609 v -7.73675 h 4.5312 v 7.73675 h 9.3516 v 3.80811 h -9.3516 v 12.26792 q 0,2.12098 0.096,3.32608 0.096,1.181 0.6748,2.21738 0.5303,0.96408 1.4462,1.42202 0.9399,0.43384 2.844,0.43384 1.1087,0 2.3138,-0.31333 1.2051,-0.33743 1.7353,-0.55435 h 0.2411 z m 12.8704,0.24102 h -5.7603 v -6.86907 h 5.7603 z"
         id="text9"
         style="font-size:49.3609px;line-height:1.25;-inkscape-font-specification:'sans-serif, Normal';fill:#3f3f3f;stroke-width:0.264582"
         aria-label="1. Technical terminology unique to a particular subject." />
      <path
         d="m 845.37333,493.70624 h -5.51936 q -4.26605,-4.89271 -6.62805,-10.67719 -2.36199,-5.78448 -2.36199,-13.03918 0,-7.2547 2.36199,-13.03918 2.362,-5.78448 6.62805,-10.67719 h 5.51936 v 0.24102 q -1.95226,1.75945 -3.73581,4.07324 -1.75944,2.28969 -3.27787,5.35064 -1.44612,2.96455 -2.362,6.53164 -0.89177,3.5671 -0.89177,7.51983 0,4.12144 0.86767,7.54393 0.89178,3.42248 2.3861,6.50754 1.44612,2.96454 3.30197,5.35064 1.85586,2.4102 3.71171,4.07324 z m 30.51314,-9.93003 h -4.53118 v -15.32887 q 0,-1.85585 -0.21692,-3.47069 -0.21692,-1.63893 -0.79536,-2.55481 -0.60255,-1.01228 -1.73535,-1.49432 -1.13279,-0.50615 -2.94044,-0.50615 -1.85586,0 -3.88042,0.91588 -2.02457,0.91588 -3.88043,2.33789 v 20.10107 h -4.53117 v -26.92193 h 4.53117 v 2.98865 q 2.12098,-1.75945 4.38657,-2.74763 2.26559,-0.98818 4.65168,-0.98818 4.36247,0 6.65216,2.62711 2.28969,2.62712 2.28969,7.56803 z M 907.5565,470.3273 q 0,6.57984 -3.37428,10.38796 -3.37428,3.80812 -9.03826,3.80812 -5.71217,0 -9.08645,-3.80812 -3.35018,-3.80812 -3.35018,-10.38796 0,-6.57985 3.35018,-10.38797 3.37428,-3.83221 9.08645,-3.83221 5.66398,0 9.03826,3.83221 3.37428,3.80812 3.37428,10.38797 z m -4.67579,0 q 0,-5.23014 -2.04867,-7.76085 -2.04867,-2.55481 -5.68808,-2.55481 -3.6876,0 -5.73627,2.55481 -2.02457,2.53071 -2.02457,7.76085 0,5.06142 2.04867,7.68854 2.04867,2.60301 5.71217,2.60301 3.61531,0 5.66398,-2.57891 2.07277,-2.60302 2.07277,-7.71264 z m 34.00793,13.44891 h -4.53118 v -2.98864 q -2.28969,1.80765 -4.38656,2.77173 -2.09688,0.96408 -4.62759,0.96408 -4.24195,0 -6.60395,-2.57892 -2.36199,-2.60301 -2.36199,-7.61623 v -17.47395 h 4.53117 v 15.32887 q 0,2.04867 0.19282,3.51889 0.19282,1.44612 0.81947,2.48251 0.65075,1.06049 1.68714,1.54253 1.03638,0.48204 3.01275,0.48204 1.75944,0 3.83222,-0.91588 2.09687,-0.91587 3.90452,-2.33789 v -20.10107 h 4.53118 z m 31.429,0 h -4.53117 v -15.32887 q 0,-1.85585 -0.21692,-3.47069 -0.21692,-1.63893 -0.79537,-2.55481 -0.60255,-1.01228 -1.73534,-1.49432 -1.13279,-0.50615 -2.94044,-0.50615 -1.85586,0 -3.88043,0.91588 -2.02457,0.91588 -3.88042,2.33789 v 20.10107 h -4.53118 v -26.92193 h 4.53118 v 2.98865 q 2.12098,-1.75945 4.38656,-2.74763 2.26559,-0.98818 4.65169,-0.98818 4.36246,0 6.65215,2.62711 2.28969,2.62712 2.28969,7.56803 z m 22.31845,-13.78634 q 0,7.2547 -2.36199,13.03918 -2.362,5.78448 -6.62805,10.67719 h -5.51936 v -0.24102 q 1.85585,-1.66304 3.71171,-4.07324 1.87995,-2.3861 3.30197,-5.35064 1.49433,-3.08506 2.362,-6.50754 0.89177,-3.42249 0.89177,-7.54393 0,-3.95273 -0.89177,-7.51983 -0.89178,-3.56709 -2.362,-6.53164 -1.51842,-3.06095 -3.30197,-5.35064 -1.75945,-2.31379 -3.71171,-4.07324 v -0.24102 h 5.51936 q 4.26605,4.89271 6.62805,10.67719 2.36199,5.78448 2.36199,13.03918 z"
         id="text10"
         style="font-size:49.3609px;line-height:1.25;-inkscape-font-specification:'sans-serif, Normal';fill:#3f3f3f;stroke-width:0.264582"
         aria-label="(noun)" />
    </g>
  </g>
</svg>
