<?xml version="1.0" encoding="UTF-8" standalone="no"?>
<svg
		xmlns:dc="http://purl.org/dc/elements/1.1/"
		xmlns:cc="http://creativecommons.org/ns#"
		xmlns:rdf="http://www.w3.org/1999/02/22-rdf-syntax-ns#"
		xmlns:svg="http://www.w3.org/2000/svg"
		xmlns="http://www.w3.org/2000/svg"
		xmlns:sodipodi="http://sodipodi.sourceforge.net/DTD/sodipodi-0.dtd"
		xmlns:inkscape="http://www.inkscape.org/namespaces/inkscape"
		version="1.1"
		x="0px"
		y="0px"
		viewBox="0 0 146.54835 146.54835"
		enable-background="new 0 0 100 100"
		id="svg12"
		sodipodi:docname="mikenakis-bytecode.svg"
		inkscape:version="1.0.2 (e86c870879, 2021-01-15, custom)"
		width="387.74249mm"
		height="387.74249mm"
		inkscape:export-filename="C:\Users\Michael\Downloads\art\bytecode\more\noun_19046_cc.svg.png"
		inkscape:export-xdpi="150.034"
		inkscape:export-ydpi="150.034">
	<metadata
			id="metadata18">
		<rdf:RDF>
			<cc:Work
					rdf:about="">
				<dc:format>image/svg+xml</dc:format>
				<dc:type
						rdf:resource="http://purl.org/dc/dcmitype/StillImage"/>
				<dc:title></dc:title>
			</cc:Work>
		</rdf:RDF>
	</metadata>
	<defs
			id="defs16"/>
	<sodipodi:namedview
			pagecolor="#d6c2c2"
			bordercolor="#666666"
			borderopacity="1"
			objecttolerance="10"
			gridtolerance="10"
			guidetolerance="10"
			inkscape:pageopacity="1"
			inkscape:pageshadow="2"
			inkscape:window-width="640"
			inkscape:window-height="480"
			id="namedview14"
			showgrid="true"
			inkscape:snap-grids="true"
			showguides="true"
			inkscape:guide-bbox="true"
			inkscape:zoom="0.40891251"
			inkscape:cx="606.78091"
			inkscape:cy="669.7577"
			inkscape:current-layer="svg12"
			units="mm"
			fit-margin-top="0"
			fit-margin-left="0"
			fit-margin-right="0"
			fit-margin-bottom="0"
			inkscape:document-rotation="0">
		<inkscape:grid
				type="xygrid"
				id="grid4495"
				dotted="false"
				originx="33.131832"
				originy="110.16102"/>
	</sodipodi:namedview>
	<circle
			style="fill:#cbcbcb;fill-opacity:1;stroke-width:3"
			id="path850"
			cx="73.274178"
			cy="73.274178"
			r="73.274178"/>
	<circle
			style="fill:none;fill-opacity:1;stroke:#000000;stroke-width:3;stroke-opacity:1"
			id="path852"
			cx="73.274178"
			cy="73.274178"
			r="68.80088"/>

	<g
			id="g877"
			transform="translate(-0.38491005,-0.08219135)"
			style="opacity:0.8">
		<path
				d="m 107.15554,41.406404 h -0.658 c 0.684,-3 2.029,-8.914 2.029,-9.654 0,-2.417 -1.303,-4.53 -3.231,-5.667 0.067,-0.27 0.114,-0.546 0.114,-0.827 0,-1.861 -1.514,-3.376 -3.375,-3.376 -1.86,0 -3.374995,1.514 -3.374995,3.375 0,0.274 0.041,0.54 0.105,0.799 -1.939,1.106 -3.222,3.173 -3.222,5.597 0,0.334 0.179,1.046 0.944,3.914 0.502,1.884 1.107,3.84 1.492,5.84 h -21.648853 -1.421 v -2.816 c 0,-1.729 -1.729,-3.136 -3.54,-3.136 -1.729,0 -3.46,1.407 -3.46,3.136 v 2.815 h -1.87 c -0.552,0 -1.13,0.432 -1.13,0.984 v 3.563 c 0,0.552 0.578,1.453 1.13,1.453 h 1.87 v 1.519 c -8,1.377 -12.2,4.317803 -14.375,12.317803 h -7.826 c -0.552,0 -1.027078,0.44806 -1.019787,1.000011 l 0.01659,1.255842 c 8.32e-4,0.063 -0.0638,0.545147 -0.0748,0.613147 -10e-4,0.004 -0.19,0.458 -0.482,1.046 -0.667,1.342 -1.466001,2.94 -4.970001,2.94 -0.552,0 -1.269,0.447 -1.269,1 v 2.771 c 0,0.556 0.871997,1.374 1.423997,1.374 h 4.576001 v 35.275003 c -1.000001,1.521 -2.228001,2.328 -4.666001,2.328 -0.552,0 -1.334,0.447 -1.334,1 v 2.771 c 0,0.554 0.872,0.626 1.424,0.626 h 63.305999 c 0.553,0 1.27,-0.072 1.27,-0.625 v -2.771 c 0,-0.553 -0.781,-1 -1.334,-1 -2.438,0 -3.665998,-0.807 -4.665998,-2.328 V 73.243207 h 4.729998 c 0.553,0 1.27,-0.818 1.27,-1.371 v -2.771 c 0,-0.553 -0.582,-1 -1.135,-1 -5.347998,0 -4.914998,-3.824 -4.939998,-3.98 -0.011,-0.069 -0.0019,-0.322827 -0.0023,-0.384825 l -0.01105,-1.450816 c -0.0042,-0.551984 -0.75165,-1.042359 -1.30465,-1.042359 h -7.614 c -2.193,-8 -6.993,-10.766803 -13.993,-12.268803 v -1.568 h 1.421 30.824848 c 0.553,0 0.73,-0.901 0.73,-1.453 v -3.563 c 0,-0.552 -0.178,-0.984 -0.729,-0.984 z m -37.246848,-2.816 c 0,-0.626 0.833,-1.136 1.542,-1.136 0.626,0 1.458,0.509 1.458,1.136 v 2.816 h -3 z m 31.999998,74.216806 v 0.436 H 39.908691 v -0.436 c 3,-0.234 4.096001,-1.564 5.093001,-2.564 h 51.968 c 0.998,1 1.939,2.33 4.938998,2.564 z M 91.908692,92.243207 v 11.000003 h -42 V 92.243207 Z m -45.5,-2 v -17 h 49 v 17 z m 47.5,15.000003 V 90.243207 h 1.5 v 15.000003 z m 1.5,0 v 3 h -49 v -3 z m -47.5,-15.000003 v 15.026873 l -1.5,-0.0269 V 90.243211 Z m 48.79,-23 c 0.965,1 2.21,2.561 5.209998,2.818 v 1.182 h -4.601998 -52.642 -4.756001 v -1.182 c 4.000001,-0.263 4.452001,-1.818 5.378001,-2.818 z m -0.79,-4 v 1.028 c 0,0.176 0.01768,0.689417 0.02629,0.972 0.015,0.049 -0.231291,-0.001 -0.213291,-0.001 H 46.256692 c 0.009,0 0.248094,-0.414687 0.256094,-0.445687 0.108,-0.161 0.193032,-0.38251 0.193518,-0.58051 l 0.0024,-0.972803 h 7.76 33.499 z m -8.99,-2 h -31.402 c 2.192,-8 7.492,-10.328803 15.702,-10.328803 8.209,0 13.49,2.328803 15.7,10.328803 z m -17.01,-12.544803 v -1.292 h 3 v 1.309 c -1,-0.034 -1.211,-0.068 -1.663,-0.068 -0.342,0 -0.337,0.031 -1.337,0.051 z m 5,-3.292 h -8 v -2 h 8 z m 27.125848,-21.525 c 0.758,0 1.375,0.617 1.375,1.375 0,0.027 -0.014,0.052 -0.016,0.079 -0.435,-0.093 -0.884,-0.144 -1.345,-0.144 -0.476,0 -0.937,0.05 -1.379,0.142 -0.002,-0.027 -0.013,-0.05 -0.013,-0.077 0.003,-0.758 0.621,-1.375 1.378,-1.375 z m -4.490995,7.874 c 0,-2.501 1.979,-4.563 4.506995,-4.563 2.469,0 4.477,2.248 4.479,4.73 -0.043,0.604 -1.215,5.484 -1.993,9.484 h -4.595995 c -0.392,-2 -1.011,-4.244 -1.521,-6.159 -0.394,-1.479 -0.842,-3.259 -0.876,-3.492 z m 8.340995,13.651 H 76.908692 v -2 h 28.975848 z"
				id="path2"
				inkscape:connector-curvature="0"
				sodipodi:nodetypes="scscssscsccccssscsssscccsssccssssccssssssssccsssscsssccccsssssssccsccccccccccccccccccccccccccccccccccccccccccsccccsccccccscccccsccccccsscsccscscccccccccc"/>
		<path
				style="fill:#e3dc96;fill-opacity:1;stroke-width:0.919422"
				d="m 70.805712,75.907753 c -5.14968,0 -10.623,1.68254 -10.623,4.80214 0,3.11868 5.47332,4.80122 10.623,4.80122 5.1506,0 10.62484,-1.68254 10.62484,-4.80122 0,-3.1196 -5.47424,-4.80214 -10.62484,-4.80214 z"
				id="path4-4"
				inkscape:connector-curvature="0"
				sodipodi:nodetypes="sssss"/>
		<path
				d="m 70.889692,75.507207 c -5.601,0 -11.554,1.83 -11.554,5.223 0,3.392 5.953,5.222 11.554,5.222 5.602,0 11.556,-1.83 11.556,-5.222 0,-3.393 -5.954,-5.223 -11.556,-5.223 z m 0,8.443 c -5.832,0 -9.554,-1.907 -9.554,-3.221 0,-1.314 3.722,-3.223 9.554,-3.223 5.833,0 9.556,1.907 9.556,3.223 0,1.314 -3.723,3.221 -9.556,3.221 z"
				id="path4"
				inkscape:connector-curvature="0"/>
		<path
				style="fill:#ffc061;fill-opacity:1;stroke-width:0.761343"
				d="m 70.958692,100.7432 c 1.638411,0 2.970761,-1.332348 2.970761,-2.970758 0,-1.63689 -1.33235,-2.96924 -2.970761,-2.96924 -1.63765,0 -2.97,1.33235 -2.97,2.96924 0,1.63841 1.33235,2.970758 2.97,2.970758 z"
				id="path6-0"
				inkscape:connector-curvature="0"
				sodipodi:nodetypes="sssss"/>
		<path
				d="m 70.904547,101.64921 c 2.152,0 3.902,-1.750003 3.902,-3.902003 0,-2.15 -1.75,-3.9 -3.902,-3.9 -2.151,0 -3.901,1.75 -3.901,3.9 0,2.152 1.75,3.902003 3.901,3.902003 z m 0,-5.802003 c 1.049,0 1.902,0.853 1.902,1.9 0,1.051 -0.854,1.902 -1.902,1.902 -1.048,0 -1.901,-0.854 -1.901,-1.902 0,-1.048 0.853,-1.9 1.901,-1.9 z"
				id="path6"
				inkscape:connector-curvature="0"
				sodipodi:nodetypes="ssssssssss"/>
		<path
				style="fill:#ffc061;fill-opacity:1;stroke-width:1"
				d="m 102.03471,23.881488 c -0.757,0 -1.37513,0.617 -1.37813,1.375 0,0.027 0.0111,0.04995 0.0131,0.07695 0.442,-0.092 0.90291,-0.141992 1.37891,-0.141992 0.461,0 0.91011,0.05114 1.34511,0.144141 0.002,-0.027 0.016,-0.0521 0.016,-0.0791 0,-0.758 -0.617,-1.375 -1.375,-1.375 z"
				id="path4673"/>
		<path
				style="fill:#a16100;fill-opacity:1;stroke-width:1"
				d="m 102.05053,27.192426 c -2.527998,0 -4.506838,2.062086 -4.506838,4.563086 0.034,0.232999 0.48198,2.012992 0.87598,3.491992 0.51,1.915 1.1289,4.158985 1.5209,6.158985 h 4.596088 c 0.778,-4 1.94997,-8.879985 1.99297,-9.483985 -0.002,-2.481999 -2.0101,-4.730078 -4.4791,-4.730078 z"
				id="path4671"/>
		<path
				style="fill:#ffc061;fill-opacity:1;stroke-width:1"
				d="m 71.450722,37.454535 c -0.709,10e-7 -1.54199,0.509938 -1.54199,1.135938 v 2.816016 h 3 v -2.816016 c 0,-0.627 -0.83201,-1.135938 -1.45801,-1.135938 z"
				id="path4669"/>
		<path
				style="fill:#ffc061;fill-opacity:1;stroke-width:1"
				d="m 66.908732,43.406489 v 2 h 8 v -2 z"
				id="path4667"/>
		<path
				style="fill:#ffc061;fill-opacity:1;stroke-width:1"
				d="m 76.908732,43.406489 v 2 h 28.975978 v -2 z"
				id="path4665"/>
		<path
				style="fill:#ffc061;fill-opacity:1;stroke-width:1"
				d="m 69.908732,47.406489 v 1.291992 c 1,-0.02 0.99511,-0.05098 1.33711,-0.05098 0.452,0 0.66289,0.03397 1.66289,0.06797 v -1.308984 z"
				id="path4663"/>
		<path
				style="fill:#ffc061;fill-opacity:1;stroke-width:1"
				d="m 71.218692,50.914496 c -8.21,0 -13.50995,2.328711 -15.70195,10.328711 h 31.40195 c -2.21,-8 -7.491,-10.328711 -15.7,-10.328711 z"
				id="path4661"/>
		<path
				style="fill:#a16100;fill-opacity:1;stroke-width:1"
				d="m 46.708734,63.243207 -0.0023,0.972852 c -5e-4,0.198 -0.08555,0.419469 -0.193554,0.580469 -0.008,0.031 -0.247055,0.445703 -0.256055,0.445703 h 49.465041 c -0.018,0 0.22828,0.04998 0.21328,10e-4 -0.0086,-0.282583 -0.02637,-0.795875 -0.02637,-0.971875 v -1.028125 h -7.94101 -33.49903 z"
				id="path4659"/>
		<path
				style="fill:#a16100;fill-opacity:1;stroke-width:1"
				d="m 45.286859,67.243207 c -0.926,1.000001 -1.378124,2.555164 -5.378125,2.818164 v 1.181836 h 4.756055 52.641993 4.601948 v -1.181836 c -2.999998,-0.257 -4.244958,-1.818163 -5.209958,-2.818164 z"
				id="path4657"/>
		<path
				style="fill:#a16100;fill-opacity:1;stroke-width:1"
				d="m 46.408734,73.243207 v 17 15.000003 h 1.5 V 90.243207 H 93.908732 V 105.24321 H 47.908734 v 0.0269 l -1.5,-0.0269 v 3 h 48.999998 v -3 -15.000003 -17 z"
				id="path4655"/>
		<path
				style="fill:#ffdba5;fill-opacity:1;stroke-width:1"
				d="m 70.889792,75.50727 c 5.602,0 11.55605,1.830047 11.55605,5.223047 0,3.392 -5.95405,5.22207 -11.55605,5.22207 -5.601,0 -11.5541,-1.83007 -11.5541,-5.22207 0,-3.393 5.9531,-5.223047 11.5541,-5.223047 z"
				id="path4653"/>
		<path
				style="fill:#a16100;fill-opacity:1;stroke-width:1"
				d="m 45.001703,110.24321 c -0.997,1 -2.092969,2.33006 -5.092969,2.56406 v 0.43594 h 61.999996 v -0.43594 c -2.999998,-0.234 -3.940868,-1.56406 -4.938868,-2.56406 z"
				id="path2-7"/>
		<path
				style="fill:#a16100;fill-opacity:1;stroke-width:1"
				d="M 49.908691,92.243207 V 103.24321 H 91.908692 V 92.243207 Z m 21.000001,1.59805 c 2.152,0 3.90196,1.75 3.90196,3.9 0,2.152 -1.74996,3.901953 -3.90196,3.901953 -2.151,0 -3.90097,-1.749953 -3.90097,-3.901953 0,-2.15 1.74997,-3.9 3.90097,-3.9 z"
				id="path2-4"
				inkscape:connector-curvature="0"
				sodipodi:nodetypes="cccccsssss"/>
		<path
				style="stroke-width:1"
				d="m 70.889692,75.507207 c -5.601,0 -11.554,1.83 -11.554,5.223 0,3.392 5.953,5.222 11.554,5.222 5.602,0 11.556,-1.83 11.556,-5.222 0,-3.393 -5.954,-5.223 -11.556,-5.223 z m 0,8.443 c -5.832,0 -9.554,-1.907 -9.554,-3.221 0,-1.314 3.722,-3.223 9.554,-3.223 5.833,0 9.556,1.907 9.556,3.223 0,1.314 -3.723,3.221 -9.556,3.221 z"
				id="path4-6"
				inkscape:connector-curvature="0"/>
	</g>
</svg>
