<?xml version="1.0" encoding="UTF-8" standalone="no"?>
<svg
   width="1620.0001pt"
   height="1000pt"
   version="1.1"
   viewBox="0 0 1620.0001 1000"
   id="svg174"
   sodipodi:docname="collaboration.svg"
   inkscape:version="1.3.2 (091e20e, 2023-11-25, custom)"
   inkscape:export-filename="collaboration 2.png"
   inkscape:export-xdpi="36"
   inkscape:export-ydpi="36"
   xmlns:inkscape="http://www.inkscape.org/namespaces/inkscape"
   xmlns:sodipodi="http://sodipodi.sourceforge.net/DTD/sodipodi-0.dtd"
   xmlns="http://www.w3.org/2000/svg"
   xmlns:svg="http://www.w3.org/2000/svg">
  <sodipodi:namedview
     id="namedview176"
     pagecolor="#505050"
     bordercolor="#ffffff"
     borderopacity="1"
     inkscape:showpageshadow="0"
     inkscape:pageopacity="0"
     inkscape:pagecheckerboard="1"
     inkscape:deskcolor="#505050"
     inkscape:document-units="pt"
     showgrid="false"
     inkscape:zoom="0.715188"
     inkscape:cx="936.81661"
     inkscape:cy="726.38243"
     inkscape:current-layer="svg174"
     showguides="true"
     inkscape:window-width="3840"
     inkscape:window-height="2081"
     inkscape:window-x="-9"
     inkscape:window-y="-9"
     inkscape:window-maximized="1" />
  <defs
     id="defs74">
    <symbol
       id="x"
       overflow="visible">
      <path
         d="M 0.015625,0 H 0 V -0.015625 H 0.015625 0 V 0 Z"
         id="path2" />
    </symbol>
    <symbol
       id="c"
       overflow="visible">
      <path
         d="M 0.015625,-0.015625 H 0 V 0 -0.015625 Z"
         id="path5" />
    </symbol>
    <symbol
       id="a"
       overflow="visible">
      <path
         d="M 0.015625,-0.015625 V 0 H 0 0.015625 0 v -0.015625 z m 0,0 H 0 Z"
         id="path8" />
    </symbol>
    <symbol
       id="b"
       overflow="visible">
      <path
         d="M 0.015625,0 H 0 Z m 0,-0.015625 V 0 H 0 C 0,-0.0078125 0.0039062,-0.015625 0.015625,-0.015625 H 0 Z"
         id="path11" />
    </symbol>
    <symbol
       id="e"
       overflow="visible">
      <path
         d="M 0.015625,-0.015625 V 0 H 0 v -0.015625 z"
         id="path14" />
    </symbol>
    <symbol
       id="i"
       overflow="visible">
      <path
         d="M 0.015625,-0.015625 V 0 H 0 V -0.015625 Z M 0.015625,0 V -0.015625 H 0 V 0 Z"
         id="path17" />
    </symbol>
    <symbol
       id="m"
       overflow="visible">
      <path
         d="M 0.015625,0 V -0.015625 H 0 V 0 Z M 0,-0.015625 H 0.015625 V 0 H 0 Z"
         id="path20" />
    </symbol>
    <symbol
       id="h"
       overflow="visible">
      <path
         d="M 0,-0.015625 0.015625,0 V -0.015625 0 H 0 Z"
         id="path23" />
    </symbol>
    <symbol
       id="l"
       overflow="visible">
      <path
         d="M 0.015625,-0.015625 H 0 V 0 h 0.015625 z m 0,0 V 0 H 0 v -0.015625 z"
         id="path26" />
    </symbol>
    <symbol
       id="w"
       overflow="visible">
      <path
         d="M 0,-0.015625 V 0 Z"
         id="path29" />
    </symbol>
    <symbol
       id="k"
       overflow="visible">
      <path
         d="M 0,-0.015625 H 0.015625 V 0 H 0 Z"
         id="path32" />
    </symbol>
    <symbol
       id="g"
       overflow="visible">
      <path
         d="M 0.015625,-0.015625 H 0 0.015625 V 0 H 0 0.015625 0 v -0.015625 z"
         id="path35" />
    </symbol>
    <symbol
       id="f"
       overflow="visible">
      <path
         d="M 0.015625,-0.015625 V 0 -0.015625 H 0 V 0 -0.015625 Z"
         id="path38" />
    </symbol>
    <symbol
       id="j"
       overflow="visible">
      <path
         d="M 0,-0.015625 H 0.015625 V 0 H 0 Z"
         id="path41" />
    </symbol>
    <symbol
       id="d"
       overflow="visible">
      <path
         d="M 0.015625,-0.015625 H 0 V 0 h 0.015625 z m 0,0 V 0 H 0 v -0.015625 z"
         id="path44" />
    </symbol>
    <symbol
       id="v"
       overflow="visible">
      <path
         d="M 0,-0.015625 0.015625,0 V -0.015625 0 H 0 Z"
         id="path47" />
    </symbol>
    <symbol
       id="u"
       overflow="visible">
      <path
         d="M 0,-0.015625 V 0 Z"
         id="path50" />
    </symbol>
    <symbol
       id="t"
       overflow="visible">
      <path
         d="M 0.015625,-0.015625 V 0 H 0 v -0.015625 z"
         id="path53" />
    </symbol>
    <symbol
       id="s"
       overflow="visible">
      <path
         d="M 0.015625,-0.015625 H 0.03125 V 0 H 0.015625 V -0.015625 0 -0.015625 H 0 V 0 -0.015625 Z"
         id="path56" />
    </symbol>
    <symbol
       id="r"
       overflow="visible">
      <path
         d="M 0.015625,-0.015625 V 0 -0.015625 H 0 V 0 -0.015625 Z"
         id="path59" />
    </symbol>
    <symbol
       id="q"
       overflow="visible">
      <path
         d="M 0,-0.015625 H 0.015625 V 0 -0.015625 0 L 0,-0.015625 V 0 Z"
         id="path62" />
    </symbol>
    <symbol
       id="p"
       overflow="visible">
      <path
         d="M 0,0 V -0.015625 0 H 0.015625 V -0.015625 0 Z"
         id="path65" />
    </symbol>
    <symbol
       id="o"
       overflow="visible">
      <path
         d="M 0,-0.015625 V 0 Z"
         id="path68" />
    </symbol>
    <symbol
       id="n"
       overflow="visible">
      <path
         d="M 0.015625,-0.015625 H 0 V 0 H 0.015625 0 v -0.015625 z"
         id="path71" />
    </symbol>
  </defs>
  <rect
     style="fill:#000000;fill-opacity:0;stroke:#1b1b1b;stroke-width:0.773835;stroke-linejoin:round;stroke-miterlimit:100;stroke-opacity:1"
     id="background"
     width="1619.2262"
     height="999.22614"
     x="0.38691732"
     y="0.38691732" />
  <g
     id="g1"
     transform="matrix(0.95781382,0,0,0.95781382,-147.81378,22.579002)"
     style="stroke-width:1.04404">
    <circle
       style="fill:#c0c0c0;fill-opacity:1;stroke:#bfbfbf;stroke-width:5.919;stroke-linecap:round;stroke-linejoin:round;stroke-miterlimit:0;stop-color:#000000"
       id="background-disk"
       cx="1000"
       cy="498.44864"
       r="497.16534" />
    <path
       id="background-circle"
       style="fill:none;fill-opacity:0.5;stroke:#1a1a1a;stroke-width:15.6607;stroke-linecap:round;stroke-linejoin:round;stroke-miterlimit:0;stroke-dasharray:none;stroke-opacity:1;stop-color:#000000"
       d="M 1480.3433,498.44863 A 480.34329,480.34329 0 0 1 999.99998,978.79191 480.34329,480.34329 0 0 1 519.6567,498.44863 480.34329,480.34329 0 0 1 999.99998,18.105344 480.34329,480.34329 0 0 1 1480.3433,498.44863 Z" />
    <g
       id="symbol"
       transform="matrix(-0.25084777,0.93617662,-0.93617662,-0.25084777,1705.3211,-322.23561)"
       style="stroke-width:1.07722">
      <path
         d="m 1436.4046,723.6913 c 2.0467,1.78928 2.2598,4.89413 0.4703,6.94087 -1.7894,2.04665 -4.8944,2.25975 -6.941,0.47036 -18.9485,-16.68352 -24.7381,-20.7037 -45.5173,-33.33765 -1.0545,-0.67332 -2.1412,-1.36641 -10.2631,-6.58725 -13.709,-8.81155 -27.8392,-18.1359 -39.784,-26.55732 -12.1387,-8.55375 -22.13,-16.24917 -27.3711,-21.67675 -14.231,-14.72825 -25.8927,-33.26637 -29.4892,-61.76267 -3.5214,-27.87531 0.7738,-65.32793 18.2165,-118.26051 5.1563,-15.64801 0.6221,-30.886 -4.6337,-48.54593 -0.6349,-2.13016 -1.2792,-4.30657 -2.2613,-7.70624 -0.6519,-2.27506 -1.2903,-4.44015 -1.9007,-6.49513 -22.6612,-13.13851 -36.4843,-28.4322 -51.3603,-44.89056 -7.0801,-7.82984 -14.4061,-15.93463 -23.23,-24.31299 -5.6432,-5.35622 -8.1653,-10.80941 -8.6021,-15.4532 l 0.017,-0.009 c -0.2698,-2.86277 0.2267,-5.45094 1.2847,-7.60713 l 0.017,-0.009 c 0.581,-1.18942 1.3297,-2.25385 2.212,-3.16085 -1.4743,-0.93051 -2.9624,-1.81727 -4.4818,-2.66568 -6.9718,-3.8867 -10.3666,-9.24364 -11.2079,-14.4241 -0.4478,-2.7405 -0.1741,-5.43245 0.6734,-7.85238 0.8031,-2.29422 2.119,-4.33586 3.8313,-5.96874 -3.8645,-2.92888 -6.5411,-6.54346 -8.1291,-10.4033 -1.7125,-4.15397 -2.1681,-8.53862 -1.5004,-12.63741 0.6752,-4.16878 2.5023,-8.08119 5.3394,-11.20917 2.401,-2.64405 5.5117,-4.71345 9.2455,-5.8697 0.353,-2.80648 1.2751,-5.44857 2.7203,-7.74801 1.6714,-2.66641 4.0195,-4.83601 6.9814,-6.26371 6.5293,-3.14185 15.9229,-2.5474 27.1466,4.98189 7.5146,5.03933 14.6783,10.10819 21.7799,15.12847 12.001,8.48644 23.8052,16.83442 37.3551,25.04683 2.2045,1.33341 4.3766,2.63257 6.551,3.90836 1.6054,0.9428 3.9788,2.30524 7.162,4.12453 10.3589,5.89994 18.0723,11.34832 24.6919,17.41081 6.6196,6.06255 12.0523,12.65795 17.8662,20.88289 7.9669,11.27183 17.4955,25.35553 25.796,37.63179 3.2608,4.81892 6.3217,9.33904 9.4478,13.92823 8.7908,12.89318 17.0352,25.6239 22.8153,39.16406 5.9046,13.83444 9.1981,28.39323 7.8393,44.58049 -1.5997,19.06729 -2.1642,36.04847 -2.0785,50.87489 0.108,18.55002 1.2383,33.69431 2.6256,45.32888 1.5434,12.94462 4.8769,23.91473 10.0002,32.82433 4.9343,8.57547 11.5591,15.27979 19.8945,20.03871 l 27.3078,13.37182 c 2.4879,1.09032 3.6182,3.98768 2.5277,6.47562 -1.0904,2.48788 -3.9878,3.61833 -6.4757,2.52789 l -27.7178,-13.55369 -0.2406,-0.13821 c -10.009,-5.65037 -17.9517,-13.6315 -23.8204,-23.84382 -5.7879,-10.07155 -9.532,-22.27808 -11.2346,-36.52549 -1.4274,-11.9502 -2.5851,-27.48416 -2.6979,-46.46323 -0.089,-15.05839 0.4841,-32.31616 2.114,-51.72034 1.2037,-14.37746 -1.7648,-27.42829 -7.0882,-39.89585 -5.4506,-12.76738 -13.4024,-25.03572 -21.9073,-37.50734 -2.4703,-3.62684 -5.8593,-8.63524 -9.4655,-13.96215 -8.4555,-12.50385 -18.169,-26.85701 -25.6772,-37.47434 -5.4185,-7.66383 -10.4356,-13.7713 -16.48,-19.30678 -6.0414,-5.52946 -13.2046,-10.56908 -22.9331,-16.11724 -1.8539,-1.05474 -4.272,-2.46005 -7.2505,-4.21017 -2.4181,-1.41987 -4.6312,-2.74154 -6.6713,-3.97035 -13.8793,-8.40786 -25.8155,-16.85474 -37.9515,-25.43152 -6.9517,-4.91547 -13.9624,-9.87339 -21.5708,-14.98055 -7.8762,-5.28301 -13.7604,-6.04515 -17.4025,-4.29198 -1.2418,0.59655 -2.2228,1.51099 -2.93,2.62702 -0.758,1.20116 -1.209,2.68181 -1.3294,4.30482 -0.3724,4.88981 2.2731,10.77671 8.6204,14.98242 26.2581,17.40779 40.0201,30.18473 53.1242,42.35779 7.8729,7.31366 15.5095,14.3989 25.4992,22.11864 0.564,-0.14043 1.1402,-0.2577 1.7137,-0.35177 4.4788,-0.7245 9.1504,-0.0406 13.6591,2.15685 8.5366,4.16213 16.4886,13.88828 20.9917,29.85357 0.705,2.48913 2.0392,6.10056 3.5685,9.90323 1.9176,4.77211 4.1242,9.7892 5.8153,13.3683 8.0992,17.1576 9.6007,27.81743 12.0432,45.11254 0.1621,1.15347 0.3305,2.33289 0.5054,3.55302 l 0.1847,1.2809 c 2.5168,17.73265 4.793,33.76805 25.4576,57.4182 1.7838,2.04362 1.5784,5.14691 -0.4654,6.93078 -2.0437,1.78381 -5.1471,1.57848 -6.931,-0.46524 -22.5999,-25.87183 -25.0703,-43.26301 -27.802,-62.48891 l -0.1845,-1.2809 c -0.1719,-1.21423 -0.3433,-2.39948 -0.5053,-3.55301 -2.3145,-16.41754 -3.7451,-26.53412 -11.1849,-42.30102 -1.7663,-3.7377 -4.0609,-8.9653 -6.0481,-13.89893 -1.6566,-4.1171 -3.11,-8.06939 -3.9108,-10.89671 -3.6736,-12.99822 -9.6205,-20.66416 -15.8283,-23.6897 -2.6164,-1.27995 -5.2727,-1.68179 -7.7787,-1.27577 -2.5204,0.40624 -4.9453,1.65637 -7.0838,3.67975 -5.1002,4.82836 -8.5047,13.84887 -8.0441,26.51531 0.3911,10.806 2.9601,19.2005 7.1609,32.95686 0.757,2.47661 1.5694,5.12966 2.429,7.99964 l 0.011,0.0387 c 0.7916,2.62713 1.6212,5.43961 2.4953,8.47773 0.516,1.80398 1.3851,4.72019 2.239,7.59333 5.7326,19.24906 10.6772,35.8636 4.5453,54.45984 -16.9246,51.35898 -21.1267,87.38658 -17.7801,113.94477 3.2761,25.94418 13.8693,42.79867 26.7931,56.17222 4.7646,4.93537 14.2756,12.22963 25.9616,20.46345 11.8742,8.36947 25.8841,17.61793 39.4582,26.33905 1.0457,0.67059 4.6938,3.00178 10.2483,6.55851 21.2841,13.02579 27.859,18.11773 46.6708,34.21554 z M 791.34338,665.18556 c -0.11467,-0.0793 -0.22651,-0.16753 -0.33847,-0.25566 -11.20337,-8.55819 -20.97329,-18.75027 -30.27915,-28.45999 -8.436,-8.80028 -16.46371,-17.18304 -24.6184,-23.2813 0.15455,5.2962 -0.27998,10.12313 -1.20555,14.4444 9.18931,6.81768 16.54923,14.38363 24.28537,22.33357 12.00879,12.33555 24.95472,25.6394 46.73626,37.82279 1.40605,0.16766 2.63073,-0.25134 3.52937,-1.04239 0.64102,-0.56875 1.13661,-1.31804 1.43841,-2.186 0.31861,-0.90603 0.41412,-1.9448 0.23874,-3.0254 -0.40598,-2.50593 -2.28866,-5.23065 -6.26586,-7.44875 -4.75167,-2.6494 -9.24207,-5.65467 -13.52167,-8.90192 z m 4.9399,-8.59059 c 0.53553,0.0576 0.99896,-0.0229 1.36452,-0.22091 0.37707,-0.20404 0.69388,-0.53764 0.90998,-0.98008 l -0.008,-0.002 c 0.30302,-0.62687 0.44033,-1.43102 0.35431,-2.38247 l -0.0203,0.003 c -0.23778,-2.5205 -1.86418,-5.72302 -5.58219,-9.25587 -8.85033,-8.40095 -16.42231,-16.78081 -23.73612,-24.87602 -12.13766,-13.42537 -23.54167,-26.04821 -39.71254,-37.12055 2.1645,7.14143 3.8269,12.95506 4.89573,18.74036 11.54362,6.71057 21.98218,17.60897 33.08335,29.18772 8.82643,9.21192 18.08797,18.87874 28.45442,26.91386 z m -70.78457,-89.19319 c 22.66133,13.13849 36.48421,28.43218 51.36033,44.89054 7.08013,7.82983 14.40607,15.93466 23.22998,24.31301 5.64328,5.35622 8.16537,10.80941 8.60217,15.45319 l -0.0172,0.009 c 0.26978,2.86276 -0.22623,5.45096 -1.28472,7.60715 l -0.0172,0.009 c -0.581,1.18942 -1.32972,2.25385 -2.21196,3.16084 1.4743,0.93051 2.96236,1.81728 4.4817,2.66569 6.97192,3.88668 10.36667,9.24362 11.208,14.42411 0.44775,2.74047 0.17423,5.43241 -0.67335,7.85235 -0.80324,2.29423 -2.11912,4.33584 -3.83139,5.96873 3.86452,2.92892 6.54101,6.54349 8.12926,10.4033 1.71243,4.15396 2.16791,8.53861 1.50026,12.63742 -0.67522,4.16877 -2.50246,8.08122 -5.33954,11.20916 -2.3951,2.64106 -5.49449,4.70448 -9.21938,5.86351 -0.35616,2.78622 -1.27014,5.40189 -2.68944,7.68065 -1.66829,2.67219 -4.02178,4.85942 -6.98664,6.29595 -6.5463,3.16537 -15.9571,2.59446 -27.18312,-4.94037 -7.51462,-5.03932 -14.67819,-10.10818 -21.77988,-15.12847 -12.00102,-8.48643 -23.80515,-16.83441 -37.35518,-25.04682 -2.20456,-1.3334 -4.37665,-2.63253 -6.55099,-3.90836 -1.60523,-0.94282 -3.97879,-2.30523 -7.16199,-4.12454 -10.35886,-5.89993 -18.0722,-11.34831 -24.69185,-17.41083 -6.61966,-6.06252 -12.05225,-12.65794 -17.86613,-20.88288 -7.96697,-11.2718 -17.49564,-25.3555 -25.79618,-37.63177 -3.26066,-4.81892 -6.32152,-9.33905 -9.44778,-13.92824 -8.79069,-12.89317 -17.03496,-25.62389 -22.81526,-39.16404 -5.90451,-13.83447 -9.19796,-28.39322 -7.83928,-44.5805 1.59983,-19.0673 2.16412,-36.04848 2.07858,-50.87489 -0.10811,-18.55001 -1.2384,-33.69433 -2.62573,-45.32886 -1.54329,-12.94465 -4.87683,-23.91475 -10.00006,-32.82436 -4.93433,-8.57549 -11.55925,-15.2798 -19.89451,-20.03868 l -27.22696,-16.69048 c -2.48791,-1.09034 -3.61826,-3.98768 -2.5278,-6.47562 1.09041,-2.48791 3.98783,-3.6183 6.47578,-2.52791 l 27.64193,16.86721 0.24066,0.1382 c 10.00892,5.65038 17.95166,13.63153 23.82035,23.84381 5.78792,10.07158 9.532,22.27809 11.23458,36.5255 1.42745,11.95021 2.5851,27.4842 2.69793,46.46326 0.0891,15.05836 -0.48411,32.31613 -2.11395,51.72032 -1.20371,14.37743 1.76473,27.42827 7.08816,39.89587 5.45052,12.76738 13.40244,25.03569 21.90727,37.50732 2.4704,3.62682 5.85922,8.63524 9.46547,13.96213 8.45562,12.50386 18.1691,26.85703 25.67732,37.47436 5.41846,7.66383 10.43543,13.77129 16.47995,19.30678 6.04137,5.52946 13.20452,10.56908 22.93301,16.11725 1.85407,1.05471 4.27202,2.46002 7.25056,4.21017 2.41811,1.41985 4.63113,2.74153 6.67125,3.97035 13.87927,8.40786 25.8156,16.85471 37.95155,25.4315 6.95172,4.91548 13.96235,9.87338 21.57087,14.98056 7.87613,5.28303 13.76023,6.03059 17.40506,4.26865 1.25912,-0.6056 2.26001,-1.53772 2.9697,-2.67703 0.76052,-1.22445 1.2173,-2.70806 1.33485,-4.33693 0.35547,-4.8663 -2.29522,-10.70662 -8.63526,-14.85647 -28.38092,-18.55653 -41.05272,-30.77317 -52.86288,-42.1659 -7.57962,-7.31297 -14.79917,-14.27254 -25.71782,-22.35531 -0.59588,0.14971 -1.1923,0.27026 -1.79194,0.37059 -4.47888,0.72451 -9.15039,0.0406 -13.65902,-2.1569 -8.53671,-4.1621 -16.48871,-13.88823 -20.99188,-29.85351 -0.70491,-2.48916 -2.03916,-6.10059 -3.56837,-9.90323 -1.91764,-4.77212 -4.12423,-9.78921 -5.81522,-13.36835 -8.0993,-17.15758 -9.60088,-27.81739 -12.04337,-45.11251 -0.16209,-1.15346 -0.33038,-2.33288 -0.50528,-3.55305 l -0.18462,-1.28087 c -2.5169,-17.73265 -4.79311,-33.76806 -25.4577,-57.41819 -1.78381,-2.04362 -1.57837,-5.14692 0.46541,-6.93078 2.04368,-1.78382 5.14703,-1.57846 6.93087,0.46525 22.59995,25.87181 25.0704,43.263 27.80206,62.48887 l 0.18459,1.2809 c 0.17186,1.21426 0.34318,2.39952 0.5053,3.55302 2.31443,16.41754 3.7451,26.53412 11.18492,42.30102 1.76631,3.73771 4.06077,8.96531 6.04804,13.89896 1.65657,4.11709 3.10998,8.06937 3.91072,10.89672 3.67369,12.99821 9.62058,20.66414 15.82846,23.68968 2.61627,1.27994 5.27262,1.68178 7.7786,1.27578 2.52046,-0.40627 4.94529,-1.65638 7.08383,-3.67977 5.10019,-4.82835 8.50463,-13.84885 8.04409,-26.5153 -0.39107,-10.80603 -2.96013,-19.20048 -7.16091,-32.95687 -0.75697,-2.47661 -1.56937,-5.12966 -2.42897,-7.99963 l -0.0123,-0.0375 c -0.79156,-2.62717 -1.62118,-5.43965 -2.4953,-8.47775 -0.51604,-1.80398 -1.3851,-4.7202 -2.23903,-7.59332 -5.73246,-19.24908 -10.67706,-35.86365 -4.54525,-54.45986 16.92445,-51.35896 21.12669,-87.38656 17.78011,-113.94476 -3.27614,-25.94421 -13.86931,-42.79869 -26.79307,-56.17223 -4.76461,-4.93539 -14.27561,-12.22963 -25.96168,-20.46346 -11.87402,-8.36947 -25.88401,-17.61791 -39.45821,-26.33903 -1.27476,-0.81483 -4.49706,-2.87747 -10.12478,-6.47623 -16.5115,-10.83469 -22.52607,-15.49578 -42.40419,-32.92688 -2.04675,-1.78928 -2.25967,-4.89413 -0.47021,-6.94084 1.78935,-2.04676 4.89427,-2.25975 6.94097,-0.47037 18.72583,17.522 23.85677,21.61207 41.25068,32.04893 0.91806,0.55086 1.8711,1.19977 10.14286,6.51087 13.70894,8.81155 27.83914,18.13588 39.78397,26.55731 12.13873,8.55374 22.12997,16.24917 27.37106,21.67676 14.23105,14.72826 25.89273,33.26639 29.48919,61.76269 3.52156,27.87526 -0.7738,65.32791 -18.21647,118.26049 -5.15624,15.64798 -0.62206,30.886 4.63373,48.54593 0.63489,2.13015 1.27927,4.30658 2.26129,7.70621 0.65187,2.27509 1.29032,4.44016 1.90067,6.49518 z m 76.48973,129.44471 c -0.091,-0.0478 -0.17303,-0.093 -0.25818,-0.14371 -23.39281,-12.95385 -36.99468,-26.92635 -49.60351,-39.87907 -6.71275,-6.90078 -13.1381,-13.50366 -20.52425,-19.35017 -1.80114,3.73774 -4.05465,6.84693 -6.62473,9.27904 -0.29449,0.27811 -0.59195,0.55049 -0.89543,0.81132 9.41809,7.28437 16.04651,13.67256 22.96418,20.34852 11.45813,11.05503 23.74883,22.90597 51.43593,41.00488 6.18156,4.04255 10.04351,9.3683 11.85881,14.80102 1.16027,-0.61253 2.17215,-1.41131 3.01047,-2.33204 1.53129,-1.68507 2.51999,-3.8344 2.89854,-6.15615 0.39189,-2.39475 0.13368,-4.92633 -0.83653,-7.29194 -1.30326,-3.15875 -3.89262,-6.10074 -7.95763,-8.17795 -1.87867,-0.96142 -3.70219,-1.92949 -5.46193,-2.90155 z M 1282.5699,385.79917 c -2.1644,-7.14141 -3.8269,-12.95502 -4.8958,-18.74032 -11.5436,-6.71061 -21.9822,-17.60899 -33.0833,-29.18774 -8.8264,-9.21192 -18.088,-18.87874 -28.4544,-26.91385 -0.5356,-0.0576 -0.999,0.023 -1.3646,0.22092 -0.377,0.20398 -0.6939,0.53762 -0.9099,0.98004 l 0.011,9.4e-4 c -0.303,0.62688 -0.4402,1.431 -0.3544,2.38246 l 0.02,-0.003 c 0.2378,2.52049 1.8643,5.72301 5.5823,9.25585 8.8504,8.40098 16.4223,16.7808 23.7362,24.87604 12.1376,13.42538 23.5416,26.04822 39.7125,37.12053 z m -61.4905,-83.42662 c 0.1147,0.0792 0.2265,0.16754 0.3384,0.25567 11.2033,8.55818 20.9732,18.75028 30.2791,28.46001 8.436,8.80027 16.4638,17.18305 24.6185,23.28127 -0.1546,-5.29622 0.2795,-10.1231 1.2055,-14.44437 -9.1893,-6.81769 -16.5492,-14.38366 -24.2854,-22.33358 -12.0087,-12.33557 -24.9548,-25.63939 -46.7362,-37.8228 -1.406,-0.16766 -2.6307,0.25133 -3.5293,1.04237 -0.6412,0.56876 -1.1367,1.31806 -1.4385,2.18606 -0.3186,0.90602 -0.4141,1.94472 -0.2388,3.02541 0.4059,2.5059 2.2887,5.23062 6.2659,7.44871 4.7516,2.64938 9.2421,5.65467 13.5217,8.90192 z m -10.649,-31.66644 c 0.091,0.0477 0.1731,0.0929 0.2583,0.1437 23.3928,12.95386 36.9946,26.92637 49.6034,39.87908 6.7128,6.90078 13.1381,13.50367 20.5243,19.35017 1.8011,-3.73772 4.0547,-6.84695 6.6248,-9.27905 0.3288,-0.31064 0.6577,-0.60677 0.9928,-0.89141 -8.6536,-6.91411 -15.5617,-13.33292 -22.6641,-19.92746 -12.8117,-11.89467 -26.2587,-24.38917 -51.8719,-41.36256 -6.1355,-4.06665 -9.9653,-9.38699 -11.7837,-14.79709 -1.1806,0.61576 -2.2039,1.42055 -3.0507,2.35302 -1.5312,1.68505 -2.52,3.83437 -2.8986,6.15617 -0.3918,2.3947 -0.1333,4.92632 0.8366,7.29193 1.3032,3.15874 3.8927,6.10071 7.9577,8.17792 1.8786,0.96144 3.7021,1.92951 5.4618,2.90158 z"
         id="hands"
         style="fill:#1a1a1a;fill-opacity:1;stroke-width:1.07722"
         sodipodi:nodetypes="csccccccscccccccccccccccccccccccccsccccccscccscccscccccccccccccccccsccccccccccsccccccccccccccccccccccccccccccccccccccsccccccccccccccccccccccccccccccccccsccccccccccscccsccccccccccccccccccccccccccccscccccccccccccccccccccccscsccccccccccccccccccccccccccccscccccccccccccccccccccccccccccccccccc" />
      <g
         id="gear"
         style="stroke-width:1.07722">
        <path
           id="gear-sprokes"
           style="display:inline;fill:#1a1a1a;fill-opacity:1;stroke:none;stroke-width:1.07722"
           d="m 999.38012,272.79217 c -3.56878,0.25044 -7.16955,0.2816 -10.72022,0.65599 -2.20772,0.32371 -3.5467,2.35725 -4.14968,4.34437 -1.52987,3.62962 -2.8526,7.35291 -4.03167,11.10625 -1.09592,4.65905 -2.29598,9.38378 -2.17454,14.19863 0.63497,1.42368 -0.94671,1.12508 -1.86689,1.34045 -1.14497,0.15862 -2.2776,0.39414 -3.41751,0.58876 -0.97432,-2.66059 -1.91106,-5.33565 -3.37503,-7.77709 -1.27365,-2.40294 -2.97882,-4.56167 -4.53487,-6.78779 -2.63327,-3.32393 -5.14666,-6.78014 -8.10711,-9.81068 -1.61447,-1.55587 -4.05734,-1.30314 -5.99281,-0.56818 -2.96008,0.87497 -5.98599,1.55603 -8.9038,2.55563 -1.84432,0.86169 -2.81132,2.86815 -2.86909,4.82846 -0.55115,4.01546 -1.17381,8.03708 -1.49889,12.07272 -0.0711,4.53219 0.015,9.0954 0.96034,13.54548 -0.0235,0.70514 0.97218,1.82293 -0.19471,1.89115 -1.51495,0.44122 -2.95858,1.16414 -4.37368,1.78345 -1.71165,-2.47944 -3.47647,-4.91606 -5.58077,-7.08206 -1.81709,-1.90218 -3.63505,-3.84573 -5.62803,-5.56052 -3.2726,-2.46942 -6.4262,-5.10641 -9.77701,-7.45931 -1.88217,-1.07731 -4.18144,-0.57595 -5.85095,0.66315 -2.73024,1.63532 -5.61087,3.05699 -8.24998,4.82185 -1.80981,1.29727 -2.01573,3.70531 -1.76721,5.74081 0.0516,3.7742 0.68243,7.51131 1.18336,11.24343 0.56772,2.8811 0.88556,5.82883 2.10697,8.53073 0.84643,2.05537 1.27841,4.29503 2.48113,6.18365 -1.5074,0.9973 -2.99183,2.02109 -4.4167,3.13382 -2.45322,-2.54921 -5.19579,-4.81809 -8.18832,-6.7002 -3.92128,-2.29462 -7.92361,-4.46251 -12.04196,-6.37461 -2.18656,-0.64354 -4.2649,-2.16426 -6.62387,-1.86684 -2.53979,0.36588 -3.99301,2.76481 -5.87954,4.24483 -1.64641,1.69008 -3.68414,3.03608 -5.01931,5.00075 -1.32953,2.43885 0.0703,5.1248 0.47943,7.61047 0.83477,2.86252 2,5.64488 3.03956,8.43996 1.2641,2.67114 2.34121,5.44293 4.12711,7.82423 1.28861,1.75767 2.05279,3.9047 3.71066,5.36889 -1.31928,1.23522 -2.51317,2.57827 -3.57234,4.0431 -1.98551,-1.78595 -4.66542,-2.48143 -7.02161,-3.64363 -2.73507,-1.27915 -5.70417,-1.9647 -8.59354,-2.79388 -3.9639,-0.89753 -7.90157,-1.987 -11.90475,-2.65543 -2.26711,-0.14083 -4.07584,1.58493 -5.09356,3.4267 -1.76093,2.63607 -3.77892,5.12274 -5.37986,7.85178 -1.04559,2.0208 -0.0523,4.27112 1.06644,6.02204 1.70555,3.27289 3.71074,6.39034 5.70799,9.48468 2.12508,2.59896 4.24318,5.19739 6.71888,7.47535 1.33076,1.2506 2.46837,2.74898 4.10853,3.61478 -0.97175,1.58317 -1.86427,3.20703 -2.65653,4.88747 -2.22504,-1.28704 -4.90494,-1.15879 -7.29739,-1.98228 -2.91482,-0.90518 -6.01052,-0.70354 -9.01974,-0.97781 -3.19219,-0.0317 -6.41609,-0.66807 -9.57595,0.0116 -2.18795,0.29658 -4.83012,0.38685 -6.15393,2.46848 -1.36962,2.52905 -2.23648,5.31712 -3.41261,7.94583 -0.86716,1.85171 -1.79137,4.07543 -0.71506,6.04431 1.0726,1.8349 2.66458,3.32409 4.01076,4.9589 2.96928,2.8872 5.90254,5.81025 9.16558,8.37059 1.88138,1.5674 4.00023,2.85657 6.12427,4.06565 1.07523,0.5775 2.1474,1.15432 3.24728,1.6838 -0.63103,1.74829 -1.15985,3.52295 -1.52961,5.34534 -2.61935,-0.64224 -5.3556,-0.18085 -8.02668,-0.32602 -2.74496,-0.0398 -5.4654,0.52614 -8.18194,0.85211 -4.31911,1.04306 -8.70248,1.92833 -12.86037,3.50404 -1.96353,0.93961 -2.60807,3.21042 -2.78233,5.21711 -0.41117,2.90214 -1.10981,5.78363 -1.34859,8.69833 -0.12237,2.24688 1.68644,3.88726 3.40009,5.02688 2.91303,2.43861 6.27485,4.24211 9.49364,6.23326 2.55748,1.30339 4.96967,2.96172 7.81806,3.56816 2.26782,0.56529 4.3424,1.73359 6.66198,2.09756 -0.14466,1.7684 -0.26855,3.5344 -0.27603,5.30962 -2.80707,-0.10391 -5.44757,1.09713 -8.16214,1.65739 -2.66881,0.70522 -5.24533,1.7593 -7.80805,2.77254 -3.45422,1.58218 -6.95117,3.07621 -10.18567,5.08661 -2.14453,0.94656 -3.26955,3.36458 -2.91359,5.63622 0.16988,3.254 0.12254,6.53283 0.42586,9.77163 0.29481,2.24453 2.35939,3.59777 4.35721,4.22548 3.61822,1.59748 7.37068,2.88877 11.13812,4.07499 3.17669,0.87717 6.37477,1.63902 9.64897,2.04678 1.7863,0.22099 3.59914,0.0423 5.39586,0.0999 0.21033,1.71997 0.60945,3.50889 0.86385,5.15701 -2.23498,1.13853 -4.70611,1.74569 -6.85243,3.08021 -2.77766,1.33183 -5.16554,3.32914 -7.68027,5.07977 -3.02816,2.32218 -6.07631,4.61615 -8.81771,7.27998 -1.86281,1.38914 -2.48819,3.97894 -1.61055,6.10694 0.91332,3.02612 1.68578,6.12027 2.68545,9.10469 0.76401,1.90775 2.73655,2.90719 4.69496,3.10474 2.81431,0.72384 5.68371,1.0891 8.57692,1.30856 3.33203,0.44361 6.70637,0.35528 10.0559,0.25032 2.9431,-0.31351 5.94746,-0.35292 8.81386,-1.14201 0.5887,1.66267 1.24796,3.28698 2.04921,4.85824 -1.36268,1.16454 -2.93937,2.0567 -4.37172,3.12481 -2.74257,2.68025 -5.67762,5.18494 -8.26517,8.01167 -2.31083,2.75527 -4.6811,5.46347 -6.61388,8.50658 -1.31719,1.59223 -1.89002,3.66591 -1.02705,5.56711 1.7138,3.20871 3.4618,6.4286 5.28105,9.57428 1.17425,1.68791 3.29154,2.3214 5.269,2.08741 2.4771,0.0671 4.94971,0.01 7.38447,-0.49826 3.84306,-0.57033 7.71113,-1.13652 11.45909,-2.16539 2.30698,-0.60236 4.52343,-1.42679 6.64082,-2.52494 1.02199,-0.77292 1.76628,-0.58037 2.2181,0.62888 0.69392,1.07842 1.4646,2.10509 2.21218,3.1503 -3.53329,3.34861 -5.86077,7.67177 -8.5681,11.66071 -1.62955,2.55762 -2.85841,5.35993 -4.25949,8.04489 -0.67963,2.20323 -1.90333,4.27224 -2.13721,6.58923 -0.004,2.74139 2.45843,4.40511 4.01758,6.33801 1.66563,1.66698 2.99645,3.70758 4.90024,5.10936 1.71369,1.24277 3.88793,0.72863 5.69755,0.0283 3.62863,-1.11124 7.24671,-2.29655 10.78768,-3.6551 2.61393,-1.20201 5.34307,-2.18477 7.65306,-3.94193 1.7984,-1.326 4.00398,-2.10504 5.51204,-3.79743 1.32425,1.19836 2.66019,2.38056 4.01073,3.5495 -2.09161,3.28478 -3.71396,6.86515 -4.98512,10.54147 -1.15557,3.06958 -1.92649,6.24256 -2.61297,9.44475 -0.62259,2.51345 -1.00822,5.09546 -1.27221,7.66336 -0.14167,2.23342 1.58437,3.94037 3.33086,5.04154 2.42585,1.75615 4.73624,3.73253 7.23143,5.35633 1.82576,1.15819 4.09249,0.55447 5.76838,-0.5845 3.58252,-1.74359 6.76426,-4.15937 10.0582,-6.37219 2.49376,-1.82859 5.08575,-3.5367 7.21888,-5.79911 1.57245,-1.44008 2.86731,-3.15217 4.22438,-4.79032 1.53589,0.95944 3.10936,1.83019 4.72198,2.65318 -1.13845,2.89743 -1.85379,5.93132 -2.25668,9.01673 -0.43086,3.35222 -1.05279,6.70265 -0.87399,10.09663 -0.0385,3.28025 0.007,6.58832 0.51961,9.82817 0.41725,2.18525 2.51289,3.36797 4.43966,4.04902 2.86521,1.19024 5.65678,2.65499 8.56686,3.67673 2.25958,0.55371 4.3035,-1.00514 5.73298,-2.59571 2.6797,-2.6109 5.49198,-5.11575 8.03842,-7.85246 2.88656,-3.4618 5.47337,-7.15257 7.72102,-11.05987 0.50314,-0.62499 0.44397,-2.18079 1.55674,-1.43016 1.43828,0.4064 2.87657,0.81273 4.31487,1.21907 -0.63917,4.82915 -0.34115,9.72258 0.37413,14.52566 0.35921,3.15059 1.36195,6.19503 2.07471,9.27474 0.89431,2.3386 1.00758,5.2134 3.13048,6.85904 1.99024,1.23509 4.45829,1.11159 6.67034,1.69045 2.18268,0.26692 4.33741,1.1002 6.54728,0.953 2.83507,-0.43377 4.09379,-3.31228 5.86105,-5.2106 1.70708,-2.40079 3.01383,-5.09241 4.56364,-7.60071 2.17306,-4.24626 4.29259,-8.56124 5.52791,-13.18466 -0.13501,-1.49842 1.01399,-1.22374 2.0923,-1.04663 1.15319,0.14798 2.31799,0.0572 3.47674,0.0819 -0.0514,2.84545 1.06746,5.55028 1.70428,8.29183 0.7434,2.59241 1.7601,5.11917 2.7441,7.62793 1.4715,3.07862 2.5472,6.36874 4.5736,9.14741 1.0134,1.91447 2.6257,3.90553 4.9913,3.92957 3.6787,-0.15697 7.3802,-0.16312 11.045,-0.4644 2.2295,-0.43302 3.4896,-2.515 4.2136,-4.48427 1.2467,-2.34888 2.0418,-4.87028 2.7971,-7.40955 1.4826,-4.4758 2.4478,-9.11484 3.1087,-13.77749 0.089,-1.64749 0.2373,-3.29173 0.1851,-4.94267 1.7667,-0.18378 3.5167,-0.46218 5.248,-0.86057 1.1025,2.9212 2.3418,5.78408 3.8881,8.50275 2.1591,3.65255 4.6491,7.10075 7.2457,10.46011 1.4333,1.95927 3.2237,3.6436 4.9287,5.3575 1.4908,1.26121 3.5834,1.4149 5.352,0.69089 3.1965,-0.95646 6.4814,-1.66465 9.6226,-2.77578 2.036,-0.91585 2.6956,-3.20168 2.9008,-5.24268 0.7615,-3.71396 1.0612,-7.50433 1.3795,-11.27463 -0.047,-3.8593 0.1559,-7.753 -0.4015,-11.57687 -0.252,-1.29197 -0.3597,-2.62596 -0.9073,-3.83827 1.7691,-0.55083 3.4579,-1.29085 5.1247,-2.09462 2.3441,3.85934 5.2478,7.37829 8.6046,10.40377 2.5617,2.53015 5.4814,4.67072 8.2976,6.90052 2.0446,1.30134 3.8836,3.52109 6.5076,3.37087 2.3891,-0.35822 4.264,-2.08341 6.3924,-3.11216 1.936,-1.28526 4.298,-2.03401 5.8768,-3.78702 1.6861,-2.12694 0.8103,-4.96675 0.8915,-7.44134 -0.2065,-2.95634 -0.6727,-5.90657 -1.0876,-8.83982 -0.5767,-2.90346 -1.0444,-5.83277 -2.1061,-8.61036 -0.683,-2.05921 -1.281,-4.21352 -2.4144,-6.05063 1.5338,-0.96106 2.9751,-2.04759 4.3809,-3.18578 1.8823,2.24118 4.1711,4.09497 6.6924,5.57267 3.3622,2.18932 6.754,4.34553 10.3699,6.10889 2.5668,1.52498 5.4234,2.43923 8.2525,3.34128 2.3021,0.45139 4.2104,-1.1914 5.7316,-2.6784 2.1152,-1.97354 4.4714,-3.71682 6.4371,-5.83324 1.4387,-1.7127 1.0044,-4.08477 0.3534,-6.0265 -0.8299,-3.62626 -2.1882,-7.10965 -3.4775,-10.58516 -2.2668,-4.17651 -4.4287,-8.4375 -7.0863,-12.37209 -0.5476,-0.63304 -1.3322,-1.05909 -0.2627,-1.66682 1.0777,-1.04764 2.0253,-2.20729 2.9842,-3.36351 1.3862,0.65127 2.6535,1.49736 3.8743,2.4356 3.6423,1.64628 7.4602,2.92167 11.2842,4.08092 3.6625,0.87399 7.3056,1.84583 11.0628,2.21924 2.241,0.64103 4.7371,-0.36925 5.9058,-2.37689 1.8811,-2.7367 3.9441,-5.364 5.7135,-8.16772 1.0945,-1.96214 0.2882,-4.26088 -0.8301,-6.01365 -1.619,-3.46958 -3.9409,-6.53814 -6.0448,-9.71315 -2.2896,-2.97088 -4.4648,-6.08128 -7.1391,-8.71076 -1.129,-0.89805 -2.1311,-1.97685 -3.4351,-2.62368 0.9462,-1.55014 1.8249,-3.13598 2.6792,-4.73807 2.4127,1.25261 5.1906,1.49697 7.8239,2.02289 2.8935,0.49535 5.8391,0.74545 8.7705,0.88035 4.2396,0.025 8.5026,0.0643 12.7084,-0.50335 2.1859,-0.49966 3.4199,-2.57371 4.0145,-4.57548 1.0025,-2.70872 2.2925,-5.33267 3.1204,-8.09293 0.5912,-2.18785 -0.8593,-4.17406 -2.3152,-5.64553 -2.3702,-2.9026 -5.1173,-5.47674 -7.7958,-8.08104 -2.38,-1.98733 -4.6652,-4.09823 -7.3726,-5.64217 -1.7325,-1.2055 -3.7005,-1.97082 -5.5481,-2.95443 0.5512,-1.79629 1.0704,-3.60054 1.5751,-5.4103 2.8461,0.68176 5.8033,0.20701 8.6995,0.34747 2.5999,-0.0773 5.1943,-0.52673 7.7618,-0.89253 4.1185,-1.03012 8.3141,-1.84164 12.3511,-3.14083 1.9593,-0.75993 2.8976,-2.8372 3.0473,-4.82244 0.5085,-3.09661 1.2328,-6.17152 1.6097,-9.28136 0.1563,-2.20267 -1.4799,-3.96409 -3.2497,-5.02532 -2.9882,-2.38361 -6.3374,-4.24656 -9.6133,-6.19113 -3.4104,-1.66277 -6.7535,-3.51788 -10.3182,-4.81959 -1.4292,-0.28079 -2.8719,-0.49886 -4.277,-0.88982 0.2133,-1.81878 0.34,-3.64027 0.341,-5.47199 3.3359,-0.0268 6.5617,-1.07261 9.7621,-1.90952 3.1985,-1.14195 6.3953,-2.28177 9.4123,-3.85648 2.7375,-1.26715 5.4609,-2.62231 8.011,-4.22326 1.7968,-1.19672 2.177,-3.54282 1.8418,-5.53883 -0.2818,-3.18271 -0.3395,-6.40033 -0.7571,-9.56194 -0.3649,-2.05401 -2.1893,-3.35294 -4.0565,-3.95307 -3.5402,-1.69961 -7.3131,-2.83043 -11.0283,-4.06605 -2.8702,-0.75665 -5.7072,-1.67125 -8.6891,-1.84987 -2.1747,-0.37157 -4.3862,-0.14782 -6.5811,-0.20793 -0.1886,-1.88619 -0.495,-3.74939 -0.9256,-5.59541 2.8255,-0.56704 5.2772,-2.22823 7.8783,-3.40318 2.3474,-1.19086 4.4905,-2.77027 6.6665,-4.24154 3.3652,-2.63297 6.8258,-5.1797 9.8055,-8.25167 1.4908,-1.64928 1.2521,-4.05498 0.5052,-5.98399 -0.8864,-2.8766 -1.513,-5.85222 -2.5577,-8.66864 -0.8489,-2.09777 -3.2023,-2.8292 -5.269,-3.02306 -3.7155,-0.75931 -7.5091,-1.04382 -11.278,-1.37403 -4.297,-0.0938 -8.5934,0.0726 -12.8508,0.68265 -0.8756,0.13435 -1.7712,0.14317 -2.6395,0.30783 -0.6413,-1.68859 -1.3271,-3.3485 -2.1142,-4.97514 2.2596,-0.93327 4.0319,-2.72644 5.8713,-4.29207 2.3879,-2.11187 4.6758,-4.35158 6.8145,-6.71442 2.6286,-3.12597 5.3057,-6.23933 7.4882,-9.69293 1.1382,-1.91345 0.3704,-4.1777 -0.6885,-5.93639 -1.3407,-1.94803 -2.4685,-4.26295 -3.7272,-6.352 -0.8323,-1.9501 -2.6238,-3.58448 -4.8302,-3.59828 -2.8812,-0.0196 -5.7636,-0.0954 -8.6088,0.4417 -3.5922,0.40654 -7.1747,1.01791 -10.6883,1.83154 -2.3798,0.95173 -4.8573,1.64754 -7.2485,2.54603 -0.6704,0.0919 -1.4095,1.47192 -1.7228,0.30746 -0.7788,-1.41116 -1.77,-2.67102 -2.7751,-3.92516 2.4768,-2.39772 4.4843,-5.23396 6.4777,-8.02852 1.812,-2.83874 3.5209,-5.72178 4.9285,-8.78515 1.4071,-2.60529 2.4606,-5.39177 3.3865,-8.19516 0.5952,-2.15417 -0.712,-4.17877 -2.187,-5.62682 -1.9723,-2.19133 -3.7468,-4.58496 -5.8313,-6.66163 -1.6171,-1.56978 -4.0741,-1.29715 -6.0124,-0.55076 -3.8146,1.01522 -7.5408,2.35167 -11.2197,3.7684 -2.6964,1.20667 -5.4496,2.29958 -7.8739,4.01742 -1.8366,1.12514 -3.6175,2.35983 -5.2555,3.76414 -1.3729,-1.25509 -2.7737,-2.47346 -4.2121,-3.6534 1.559,-2.14903 2.9548,-4.4249 3.7689,-6.96741 1.0322,-2.77757 2.1962,-5.53321 2.9962,-8.38841 0.9138,-4.02701 1.9671,-8.0451 2.4677,-12.14382 0.1632,-2.23291 -1.5208,-3.99625 -3.3255,-5.04488 -2.5596,-1.74874 -4.9759,-3.74274 -7.622,-5.34382 -1.9469,-1.07966 -4.2109,-0.24378 -5.9489,0.8496 -3.3799,1.52043 -6.2754,3.85628 -9.3407,5.89542 -2.5407,1.8796 -5.2025,3.6098 -7.3755,5.93026 -1.6627,1.45944 -2.9467,3.27873 -4.4002,4.93578 -1.557,-0.95368 -3.1528,-1.82941 -4.7771,-2.66292 1.3834,-3.23571 2.0699,-6.74114 2.6441,-10.19741 0.3141,-4.6375 0.5684,-9.29502 0.4867,-13.93852 -0.3527,-2.29001 0.1616,-4.86807 -1.1693,-6.89697 -0.7786,-1.23847 -2.1407,-1.88418 -3.4825,-2.24228 -2.9031,-1.06471 -5.7307,-2.39319 -8.6796,-3.29791 -2.2152,-0.59966 -4.2008,0.88007 -5.7281,2.30212 -2.9493,2.1899 -5.3078,5.03261 -7.8662,7.63839 -3.0072,3.7068 -6.0212,7.46347 -8.2782,11.67794 -0.1634,1.4096 -1.0086,1.43858 -2.1361,0.8963 -1.2526,-0.34811 -2.4995,-0.71657 -3.7484,-1.07814 0.7291,-5.38288 0.1441,-10.82228 -0.4546,-16.18149 -1.0686,-4.30998 -1.9479,-8.67436 -3.2152,-12.92893 -0.8924,-1.88037 -2.932,-2.80567 -4.9311,-2.89981 -3.1591,-0.44186 -6.3043,-1.1422 -9.4719,-1.42582 -2.24,-0.12687 -3.9334,1.64261 -5.0032,3.41382 -2.3053,3.00457 -4.194,6.30692 -6.1314,9.54824 -2.195,4.6581 -4.4844,9.35183 -5.4242,14.45409 -0.5127,0.42604 -1.7327,-0.10973 -2.5109,-0.0562 -1.009,-0.0499 -2.0201,-0.0994 -3.03,-0.14931 -0.3654,-2.56839 -0.483,-5.18034 -1.417,-7.6299 -0.8559,-2.85866 -1.7211,-5.73881 -2.849,-8.49999 -1.5972,-3.39116 -3.1061,-6.8267 -5.1323,-9.99165 -0.8767,-1.86832 -2.7292,-3.20098 -4.83578,-3.11226 z m -1.48738,11.34343 c 1.45782,3.13694 3.10926,6.19624 4.02696,9.54975 0.9057,2.73469 1.8281,5.48909 2.0005,8.38283 0.4225,2.56723 -0.6213,5.5898 1.3295,7.72647 1.3971,1.64747 3.6751,1.70606 5.6689,1.72258 4.1399,0.0868 8.2514,0.59932 12.3669,0.97536 2.0771,0.0133 3.8984,-1.50473 4.5895,-3.38129 0.3006,-0.82781 0.1611,-1.91773 0.3887,-2.83956 0.4896,-5.213 2.8975,-9.96307 5.1473,-14.60225 1.4706,-2.28878 2.768,-4.69357 4.4041,-6.8714 1.352,0.21651 2.7042,0.43299 4.0563,0.64949 0.7061,3.13176 1.6654,6.22729 2.1125,9.4043 0.5287,5.00436 0.9656,10.12327 -0.2609,15.06617 -0.7527,2.36535 0.3292,5.21715 2.7047,6.15001 4.9147,1.55093 9.905,2.90959 14.8771,4.28018 1.9199,0.38319 3.8932,-0.61143 4.8973,-2.25375 1.2823,-2.37025 1.583,-5.22078 3.2653,-7.40624 2.6803,-4.035 5.7113,-7.83847 9.1822,-11.22333 0.8171,-0.9264 1.7512,-1.72573 2.7219,-2.48554 1.2526,0.49253 2.505,0.98507 3.7574,1.4776 0.2385,3.56824 -0.019,7.15725 -0.1726,10.72712 -0.086,3.50182 -0.7878,6.98926 -2.02,10.26466 -0.8803,2.35493 -2.8949,4.61552 -2.1863,7.2778 0.4769,2.18413 2.6023,3.27016 4.4506,4.14451 3.7552,1.84917 7.2967,4.08293 10.9409,6.13023 2.3317,1.04036 5.0884,-0.20463 6.2365,-2.38004 1.8084,-3.06776 4.0834,-5.71226 6.7568,-8.07889 3.3705,-2.68362 6.9604,-5.11142 10.5509,-7.49093 0.9578,-0.85766 1.8343,-0.57452 2.6701,0.28205 0.5678,0.69384 2.2067,0.95737 1.974,1.97273 -0.6323,2.9582 -1.1932,5.95626 -2.1102,8.8375 -1.1232,2.84995 -1.9729,5.84331 -3.4072,8.54974 -1.305,2.37817 -3.362,4.28436 -4.5527,6.71556 -0.9467,2.21277 0.1688,4.7915 2.1184,6.05804 3.5556,2.86568 6.9056,5.97646 10.3587,8.95506 1.9952,1.50347 4.9454,0.99528 6.5419,-0.85432 2.7081,-2.77223 5.9229,-5.00908 9.3415,-6.80595 3.8533,-1.85445 7.8959,-3.27384 11.9806,-4.52099 0.997,-0.25429 1.4378,1.34189 2.1942,1.8882 1.0638,0.69681 0.8339,1.61657 0.2922,2.59006 -2.1404,4.53005 -4.4047,9.05295 -7.5458,12.98755 -1.4391,1.97812 -3.0306,3.87855 -5.1537,5.15043 -1.8921,1.05447 -3.2483,3.19271 -2.8095,5.40296 0.4636,2.26049 2.4259,3.76456 3.6654,5.62442 2.2838,2.61328 3.6945,5.84587 5.7624,8.60278 1.5782,1.86923 4.4937,2.12636 6.461,0.71564 1.5987,-0.84288 3.183,-1.75384 4.6868,-2.70873 2.8082,-0.78446 5.4339,-2.16924 8.3684,-2.46711 3.2069,-0.60892 6.462,-1.04383 9.7112,-1.30081 1.2743,-0.42082 1.5468,0.88491 2.0854,1.73217 0.2943,0.88935 1.6757,1.83874 0.644,2.65485 -2.4667,3.13708 -5.0096,6.2268 -7.9312,8.9571 -1.8936,1.69476 -3.6757,3.62078 -5.8855,4.88836 -1.7613,0.91374 -3.5591,1.84731 -5.1694,3.00601 -2.0155,1.52562 -2.2031,4.52264 -0.9324,6.5869 1.9181,3.95971 3.5589,8.0773 5.1289,12.15941 0.9216,1.92404 3.06,3.24377 5.2213,2.81665 1.8831,-0.4195 3.5312,-1.66401 5.5133,-1.62873 5.2241,-0.72577 10.5416,-0.93307 15.7795,-0.2361 1.5185,0.14017 3.0348,0.29592 4.5288,0.61161 0.3562,1.2611 0.7123,2.52221 1.0685,3.78331 -2.4342,2.14786 -5.0121,4.15202 -7.6641,6.02146 -2.8389,2.05126 -5.9884,3.57705 -9.1648,5.02646 -2.1086,0.53284 -4.2909,0.94269 -6.2906,1.8056 -2.204,1.09591 -2.9955,3.89582 -2.238,6.14715 0.8402,3.73287 1.5076,7.49423 1.8849,11.30347 0.058,2.06914 0.8102,4.35895 2.8309,5.27198 2.2319,1.12036 4.7692,0.0182 7.1344,0.1558 3.4661,-0.12903 6.9525,0.21472 10.2664,1.27053 3.1996,0.87266 6.352,1.96182 9.4313,3.18854 1.161,0.22834 0.4923,1.74549 0.7768,2.59129 0.062,1.03591 0.4879,2.27096 -0.8849,2.51906 -3.5712,1.78037 -7.1738,3.51169 -10.9726,4.75823 -3.0707,0.95489 -6.246,1.87239 -9.4972,1.6467 -2.0372,0.007 -4.4768,-0.34004 -5.9618,1.41264 -1.9341,1.9737 -1.2328,4.93815 -1.4578,7.42237 0.048,3.57317 -0.6154,7.14596 -0.7752,10.67802 0,2.48787 2.195,4.63899 4.6654,4.6886 2.4704,0.10574 4.8904,0.57389 7.2863,1.12926 4.3945,1.96037 8.73,4.07128 12.7713,6.69568 0.9735,0.53676 1.8575,1.20684 2.7436,1.87386 -0.2392,1.31522 -0.4785,2.63045 -0.7177,3.94567 -4.0253,0.98469 -8.0293,2.14791 -12.1735,2.49811 -2.6592,0.33833 -5.3655,0.14133 -8.0369,0.14565 -2.3266,-0.28733 -4.6025,-1.53046 -6.9653,-1.08169 -2.2117,0.43352 -3.552,2.53151 -3.9043,4.63155 -1.196,4.50851 -2.6575,8.95019 -3.8704,13.44715 -0.5059,2.47798 1.2998,4.99032 3.7261,5.53576 3.316,0.86282 6.369,2.47356 9.1726,4.42087 3.2058,2.36216 6.0532,5.16074 8.8301,8.00809 0.5104,0.71471 1.7519,1.39977 1.6307,2.26727 -0.4274,1.06727 -0.855,2.13453 -1.2825,3.20181 -3.2677,0.21466 -6.5627,0.21642 -9.8299,0.0353 -3.6019,-0.29999 -7.253,-0.67922 -10.7056,-1.7604 -2.0059,-0.86096 -3.914,-2.11623 -6.101,-2.45105 -2.2027,-0.10408 -4.1645,1.38834 -4.9702,3.38732 -2.0718,4.00975 -4.4253,7.86782 -6.6529,11.78491 -1.1256,2.2933 -0.058,5.20384 2.1628,6.39666 2.2727,1.73283 5.0232,2.88471 6.7454,5.25295 3.2945,3.85974 6.2404,8.01895 8.8763,12.34868 0.9545,0.94019 0.1585,1.75786 -0.4922,2.58571 -0.6807,0.64682 -0.9515,2.24919 -2.134,1.72646 -2.8894,-0.51646 -5.7696,-1.19438 -8.582,-2.03622 -2.7006,-0.96058 -5.5563,-1.67184 -8.0496,-3.08731 -1.003,-0.82663 -2.146,-1.43377 -3.267,-2.04129 -1.7015,-1.34748 -3.3337,-3.29973 -5.7172,-3.15594 -1.1014,0.0906 -2.2925,0.49865 -3.055,1.20487 -2.7873,3.35743 -5.5548,6.73247 -8.6874,9.77894 -1.5859,1.38118 -3.0577,3.4156 -2.4427,5.62835 0.5211,2.34426 2.7567,3.70702 4.1862,5.48824 1.516,1.27181 2.1621,3.28044 3.2398,4.90933 1.597,2.92035 3.3857,5.77234 4.3102,8.99532 0.5709,1.63549 1.2019,3.25278 1.5691,4.95022 -1.0739,0.94609 -2.1477,1.89219 -3.2216,2.8383 -2.7646,-0.96335 -5.2468,-2.58557 -7.8451,-3.91482 -2.7377,-1.80628 -5.6686,-3.36777 -8.2256,-5.41899 -1.5176,-1.2894 -2.6927,-2.91105 -3.97,-4.42576 0.4653,-1.32252 -0.8058,-1.07896 -1.5491,-1.58152 -1.5735,-1.20621 -3.8198,-1.13513 -5.4642,-0.10974 -1.3524,0.015 -1.1071,1.0712 -2.0574,1.62345 -3.0746,2.57129 -6.4351,4.74681 -9.7782,6.94592 -1.8505,1.35784 -2.5261,4.0407 -1.4355,6.07928 1.2806,2.35401 3.1491,4.42199 3.7812,7.08764 1.5115,4.14602 2.2519,8.51442 2.7445,12.88647 0.2064,1.48488 0.399,2.97087 0.3949,4.4729 -1.2059,0.68846 -2.4119,1.37693 -3.6177,2.0654 -3.5169,-2.6374 -6.9633,-5.38688 -10.0578,-8.51781 -2.7092,-2.82109 -5.0522,-6.02034 -6.6249,-9.61902 -0.9396,-2.37727 -3.7981,-3.75496 -6.2127,-2.79967 -3.5367,1.5521 -6.9764,3.34693 -10.6895,4.46383 -1.9039,0.66166 -4.1468,1.17764 -5.1611,3.12348 -1.1596,2.01084 -0.2357,4.29234 0.4455,6.29121 0.7494,2.15144 1.4726,4.34152 1.4021,6.65711 0.1778,4.04373 0.1914,8.10205 -0.3676,12.11838 -0.1161,1.35626 -0.2823,2.70549 -0.5585,4.03925 -1.3456,0.37454 -2.6912,0.74908 -4.0367,1.12362 -2.1485,-2.20198 -3.8347,-4.80831 -5.667,-7.26933 -2.2784,-3.27479 -4.2615,-6.7569 -5.6303,-10.5137 -0.9177,-2.29531 -0.574,-5.34468 -2.8102,-6.9465 -1.5474,-1.25476 -3.6682,-1.06427 -5.474,-0.54628 -3.6827,0.85785 -7.4155,1.41075 -11.1731,1.81341 -2.1224,0.0222 -4.2873,1.20582 -4.9817,3.29882 -0.791,2.63595 0.6373,5.35266 0.2071,8.04253 -0.2339,4.12318 -1.2289,8.17435 -2.3482,12.136 -0.7794,2.27905 -1.2937,4.66058 -2.4054,6.81126 -1.4052,0.0497 -2.8103,0.0996 -4.2155,0.14947 -1.6149,-2.48628 -2.5642,-5.33832 -3.8172,-8.01507 -1.4043,-3.58718 -2.6182,-7.2653 -3.3306,-11.05153 -0.1496,-2.29252 0.3509,-4.68218 -0.3638,-6.90024 -0.8713,-2.11463 -3.2257,-3.21042 -5.4338,-2.92923 -3.38609,0.0252 -6.77314,0.0698 -10.13408,-0.41148 -2.09227,-0.20848 -4.49679,-0.7641 -6.26226,0.75248 -1.99295,1.423 -1.86112,4.04398 -2.05598,6.21588 -0.29529,3.07545 -1.74895,5.89776 -2.94686,8.70294 -1.72116,3.59814 -3.68683,7.08811 -5.84243,10.43585 -0.48844,1.27593 -1.66251,0.69867 -2.68465,0.5321 -0.94154,-0.2846 -2.40438,0.0167 -2.39053,-1.34117 -0.94156,-3.51989 -1.92246,-7.05232 -2.22115,-10.69761 -0.37427,-3.3134 -0.57536,-6.7257 0.0469,-10.01492 0.46775,-1.63513 0.93535,-3.27028 1.40537,-4.90475 -0.94204,-0.31533 -0.63131,-1.6566 -1.4062,-2.24076 -1.51057,-2.04437 -4.29206,-2.02322 -6.48841,-2.83668 -3.58639,-0.95893 -7.13144,-2.11606 -10.74319,-2.95357 -2.47202,-0.39529 -4.82043,1.46326 -5.36422,3.84921 -0.62282,2.06949 -1.33917,4.11207 -2.60542,5.88741 -1.91234,2.96975 -3.93518,5.91203 -6.4072,8.44217 -1.80042,1.72989 -3.58556,3.47575 -5.40087,5.19006 -1.27195,-0.56182 -2.54393,-1.12363 -3.81588,-1.68545 -0.19739,-2.94051 -0.18129,-5.91048 -0.0446,-8.85013 0.65653,-4.9447 0.94491,-10.14337 3.52659,-14.55136 1.117,-1.74912 1.52573,-4.11776 0.26241,-5.90375 -1.28932,-1.89366 -3.71763,-2.46091 -5.58074,-3.63741 -3.2814,-1.57949 -6.25058,-3.76158 -9.47824,-5.40357 -2.11606,-0.87749 -4.62633,0.0707 -5.85351,1.95102 -1.06219,1.98411 -2.16025,4.07698 -3.80193,5.70734 -3.04344,3.47873 -7.02115,5.92444 -10.79361,8.52811 -1.34461,0.88977 -2.63503,1.86874 -4.08959,2.57746 -1.11932,-0.84542 -2.23866,-1.69086 -3.35798,-2.53628 0.52063,-3.11188 1.24241,-6.20401 2.10219,-9.23706 1.27335,-3.975 2.72971,-7.97771 5.10212,-11.43676 1.37695,-1.65446 3.34132,-3.21528 3.23585,-5.58522 0.0133,-1.97689 -1.39182,-3.51525 -2.89643,-4.62851 -3.37875,-2.85078 -6.59454,-5.90385 -9.96967,-8.74792 -2.04571,-1.51082 -5.03526,-0.90773 -6.62721,0.98135 -1.62158,1.45311 -3.02958,3.15791 -5.03721,4.09657 -2.041,1.33071 -4.05418,2.72739 -6.36241,3.57402 -3.2901,1.50625 -6.78483,2.51324 -10.21729,3.64302 -0.88874,-0.98508 -1.77751,-1.97015 -2.66625,-2.95521 1.00195,-2.84364 2.55674,-5.46025 3.9655,-8.114 2.43945,-3.48861 4.39082,-7.39476 7.50381,-10.35154 1.73626,-1.41598 4.10115,-2.58606 4.49742,-5.02796 0.44557,-2.13911 -0.98309,-3.94468 -2.19763,-5.53952 -2.53194,-3.36128 -4.76139,-6.94631 -7.23174,-10.34265 -1.62084,-1.96502 -4.71749,-2.13729 -6.66669,-0.56452 -2.02924,1.51978 -4.33392,2.58491 -6.6804,3.50665 -4.87309,1.64038 -10.01965,2.16848 -15.07564,2.97477 -1.01719,0.01 -2.19394,0.28918 -2.43187,-1.01964 -0.49814,-0.90497 -0.9963,-1.80998 -1.49445,-2.71495 1.72817,-2.48244 3.73221,-4.77856 5.74807,-7.02626 2.31405,-2.11101 4.44,-4.46394 6.90191,-6.39181 1.49805,-0.75692 2.5844,-2.12171 4.20689,-2.6224 1.92546,-0.65309 4.00536,-1.81591 4.46017,-3.96725 0.70245,-2.61151 -1.23974,-4.85402 -2.12659,-7.1575 -1.60368,-3.04502 -2.47876,-6.40951 -3.91712,-9.51829 -1.18063,-2.26447 -4.15379,-3.0215 -6.41385,-1.99537 -2.32726,0.84124 -4.72206,1.45307 -7.20329,1.56767 -4.32347,0.46649 -8.69553,0.41257 -13.00843,-0.13818 -1.46626,-0.1104 -2.92041,-0.29819 -4.34651,-0.66487 -0.35831,-1.23836 -0.71663,-2.47673 -1.07494,-3.7151 3.58301,-3.1764 7.48331,-5.99059 11.43578,-8.68634 1.96541,-1.13713 4.03972,-2.03367 6.16605,-2.80975 1.99548,-1.01058 4.66649,-0.2501 6.38147,-1.95822 1.7946,-1.42405 1.92827,-3.96601 1.27873,-6.00093 -0.95679,-4.27389 -1.56512,-8.61413 -2.27573,-12.92863 -0.54629,-2.53078 -3.27116,-4.10082 -5.75783,-3.61926 -3.35524,0.36698 -6.77116,0.50588 -10.08952,-0.21475 -3.87761,-0.72523 -7.63068,-1.96463 -11.32627,-3.33015 -0.92621,-0.29396 -1.80905,-0.69998 -2.70402,-1.07467 -0.0487,-1.37044 -0.0974,-2.74088 -0.14616,-4.11132 2.78373,-1.54602 5.72456,-2.81802 8.6591,-4.04637 3.37261,-1.37118 6.89505,-2.33413 10.44375,-3.09483 2.29369,-0.15197 4.68854,0.36041 6.90368,-0.37996 1.96343,-0.8839 3.09008,-3.00645 2.91529,-5.12748 0.0175,-4.58696 0.38759,-9.15883 0.68302,-13.73061 0.0376,-2.46176 -2.06177,-4.63154 -4.50438,-4.76082 -2.22745,-0.17213 -4.496,-0.27994 -6.5343,-1.29944 -2.25619,-0.84107 -4.68811,-1.22944 -6.71875,-2.60334 -3.00859,-1.5961 -5.92323,-3.3925 -8.73122,-5.31252 -1.27055,-0.44032 -0.6049,-1.63929 -0.50811,-2.61534 0.18636,-1.02583 0.0554,-2.33189 1.44331,-2.29661 3.67407,-0.95352 7.35912,-1.93312 11.15466,-2.24849 2.63989,-0.30339 5.3261,-0.1287 7.97508,-0.12121 2.10217,0.38846 4.21275,0.98256 6.35223,1.01746 2.42273,-0.1415 4.25467,-2.30977 4.50322,-4.64174 0.75846,-3.46028 1.62591,-6.88956 2.85819,-10.21516 0.70832,-1.93803 1.60394,-4.19911 0.38732,-6.13598 -1.4244,-2.68297 -4.87532,-2.48938 -7.2096,-3.90348 -3.27244,-1.60509 -6.25192,-3.72049 -8.9516,-6.16079 -2.25328,-2.03001 -4.49828,-4.10265 -6.5296,-6.35555 -0.51053,-0.79873 0.60896,-1.85562 0.75806,-2.75883 0.23969,-1.15963 0.86165,-1.82922 2.09668,-1.71284 4.17059,0.13036 8.37422,0.30195 12.52687,0.70799 2.06084,0.55841 4.15689,1.011 6.23683,1.44196 1.01583,0.52462 2.0588,0.98854 3.0891,1.48767 -0.44288,1.42146 1.16923,0.78796 2.01674,0.91905 2.3895,0.88075 5.07634,-0.57856 6.01657,-2.85263 1.79044,-3.72267 3.70602,-7.37737 5.88549,-10.88873 1.45697,-1.87414 1.7065,-4.75032 0.0263,-6.56512 -1.63507,-1.60496 -3.69167,-2.74213 -5.50262,-4.11921 -2.85542,-2.81938 -5.74906,-5.64213 -8.06121,-8.93322 -1.34137,-2.23787 -2.82017,-4.39629 -4.02175,-6.71497 0.79782,-1.13878 1.59564,-2.27758 2.39344,-3.41635 4.84836,1.13495 9.78121,2.08848 14.42431,3.91696 2.13789,1.03853 4.5659,1.64218 6.26157,3.38632 1.80183,1.40963 3.5412,3.57401 6.08711,3.26075 2.18651,-0.11638 3.58963,-1.95073 4.74209,-3.58261 1.72861,-2.30174 3.5249,-4.54362 5.65794,-6.48771 1.47883,-1.51796 3.46421,-2.97194 3.53049,-5.29558 0.1528,-2.11149 -1.36942,-3.72887 -2.77554,-5.09235 -1.26412,-1.31423 -2.56973,-2.57766 -3.3482,-4.25779 -1.35812,-2.0956 -2.76642,-4.16351 -3.6749,-6.50774 -1.28768,-2.77248 -2.285,-5.68449 -3.25617,-8.57635 -0.6811,-1.12468 0.29503,-1.73818 1.0737,-2.41261 0.8157,-0.45265 1.41209,-2.04909 2.43182,-1.4376 4.05568,1.75834 7.90256,3.9793 11.73646,6.1777 2.70166,1.92525 5.40696,3.98461 7.20532,6.82522 1.11223,2.04595 3.64514,3.53583 6.01516,2.72394 1.95763,-0.70019 3.23055,-2.25173 4.95264,-3.38256 2.79712,-2.258 5.98409,-3.99805 8.78819,-6.22829 1.9335,-1.68986 1.88554,-4.78453 0.32262,-6.71082 -1.2148,-1.83595 -2.41877,-3.69581 -2.96392,-5.85427 -0.84634,-2.21446 -1.68148,-4.43155 -1.95763,-6.80211 -0.63953,-3.46467 -1.09208,-6.97763 -1.32944,-10.49113 0.41659,-0.76097 1.7008,-1.03992 2.44661,-1.618 0.86213,-0.92701 1.62235,-0.32742 2.36459,0.39472 2.77537,2.18185 5.71137,4.18148 8.07504,6.831 2.35292,2.36098 4.63721,4.87866 6.28692,7.77692 0.75552,1.65847 1.21634,3.51741 2.67805,4.71132 1.65116,1.39568 4.08734,1.29167 5.86712,0.1952 3.19338,-1.50724 6.39668,-2.98998 9.77733,-4.03416 2.01335,-0.60797 4.37983,-1.40972 5.09777,-3.62374 0.95616,-2.43149 -0.60324,-4.84916 -1.12365,-7.19643 -1.15102,-4.24899 -1.12793,-8.71505 -1.01769,-13.08283 0.36217,-2.81054 0.66688,-5.62879 1.08588,-8.4317 1.25465,-0.34857 2.5093,-0.69712 3.76394,-1.04569 3.143,3.79137 6.24945,7.65409 8.8265,11.85491 1.77678,3.09056 2.96582,6.48125 3.62005,9.98096 0.51513,2.66011 3.43801,4.42409 6.03597,3.66289 4.63774,-0.89769 9.31572,-1.58256 13.97694,-2.31826 2.53676,-0.53841 4.13471,-3.2534 3.64177,-5.75113 -0.29141,-2.99132 -0.7153,-6.01819 -0.004,-8.98792 0.60605,-3.82115 1.53817,-7.59074 2.94777,-11.19771 0.47801,-1.40706 0.98941,-2.80141 1.57561,-4.16736 1.37481,-0.0736 2.74962,-0.14716 4.12442,-0.22083 0.30852,0.52824 0.61705,1.0565 0.92555,1.58477 z" />
        <ellipse
           style="fill:none;stroke:#1b1b1b;stroke-width:10.7722;stroke-linecap:round;stroke-linejoin:round;stroke-miterlimit:0;stroke-dasharray:none;stroke-opacity:1;stop-color:#000000"
           id="gear-circle"
           cx="1006.2193"
           cy="483.76477"
           rx="144.90393"
           ry="149.13994" />
      </g>
    </g>
  </g>
</svg>
