<?xml version="1.0" encoding="UTF-8" standalone="no"?>
<!-- Created with Inkscape (http://www.inkscape.org/) -->

<svg
   width="1620.0007mm"
   height="1000mm"
   viewBox="0 0 1620.0007 1000"
   version="1.1"
   id="svg1"
   inkscape:version="1.3.2 (091e20e, 2023-11-25, custom)"
   sodipodi:docname="diamond.svg"
   xmlns:inkscape="http://www.inkscape.org/namespaces/inkscape"
   xmlns:sodipodi="http://sodipodi.sourceforge.net/DTD/sodipodi-0.dtd"
   xmlns="http://www.w3.org/2000/svg"
   xmlns:svg="http://www.w3.org/2000/svg">
  <sodipodi:namedview
     id="namedview1"
     pagecolor="#505050"
     bordercolor="#eeeeee"
     borderopacity="1"
     inkscape:showpageshadow="0"
     inkscape:pageopacity="0"
     inkscape:pagecheckerboard="0"
     inkscape:deskcolor="#505050"
     inkscape:document-units="mm"
     inkscape:zoom="0.20322584"
     inkscape:cx="1921.5077"
     inkscape:cy="2074.0473"
     inkscape:window-width="3840"
     inkscape:window-height="2081"
     inkscape:window-x="-9"
     inkscape:window-y="-9"
     inkscape:window-maximized="1"
     inkscape:current-layer="layer1" />
  <defs
     id="defs1" />
  <g
     inkscape:label="Layer 1"
     inkscape:groupmode="layer"
     id="layer1"
     transform="translate(69.652611,-20.830685)">
    <rect
       style="fill:#bebebe;fill-opacity:1;stroke-width:0.264583;stroke-linejoin:round;stroke-miterlimit:100"
       id="rect1"
       width="1620.0007"
       height="1000"
       x="-69.652611"
       y="20.830685" />
    <path
       id="path25"
       d="m 616.60521,175.76127 c -5.69233,1.07427 -11.15738,3.04589 -16.7691,4.45813 -32.3084,9.05147 -64.62374,18.09249 -96.91323,27.2025 -7.76904,4.21244 -15.27086,8.89596 -22.94529,13.27599 -26.56061,15.53324 -53.13313,31.05957 -79.65302,46.65402 -4.10021,4.22086 -7.57684,8.98666 -11.45314,13.40686 -21.41963,25.62115 -42.86997,51.21871 -64.22937,76.88893 -1.92198,3.26963 -1.43793,7.27958 -2.18675,10.79973 -1.88359,15.03963 -3.88844,30.06874 -5.56472,45.13122 0.1892,3.70283 3.26791,6.19453 5.29076,8.98769 25.44139,31.91955 50.932,63.80359 76.73186,95.43205 111.78138,137.77122 223.56242,275.54275 335.34404,413.31376 3.0318,3.31014 9.10599,2.5318 11.317,-1.33794 123.53507,-151.46756 247.0755,-302.93162 370.60715,-454.40142 2.3817,-3.90849 5.6756,-7.04396 8.4249,-10.70818 12.874,-15.76876 25.5747,-31.69147 38.1519,-47.69806 1.8844,-3.06554 0.7149,-6.75908 0.3861,-10.06862 -1.9847,-15.74302 -3.9117,-31.49768 -6.0474,-47.21875 -1.2317,-3.60608 -4.4379,-5.95207 -6.5781,-8.97619 -23.1903,-27.71238 -46.3249,-55.48072 -69.6066,-83.11066 -4.5707,-3.20635 -9.5965,-5.67852 -14.3374,-8.61329 -29.4814,-17.22691 -58.9579,-34.47187 -88.46347,-51.65144 -22.22656,-6.39835 -44.5438,-12.5043 -66.80956,-18.77711 -15.2489,-4.26242 -30.49812,-8.53235 -45.75117,-12.77488 -7.82284,-0.67739 -15.68314,-0.68091 -23.51997,-1.12277 -34.24138,-1.40021 -68.4818,-2.86021 -102.72664,-4.15319 -40.89961,1.68721 -81.79922,3.37441 -122.69882,5.06162 z m 123.75926,8.94061 c 40.54451,1.67217 81.08892,3.34747 121.63343,5.02084 15.4775,13.44958 30.95499,26.89916 46.43248,40.34873 -7.66828,19.04004 -15.33656,38.08007 -23.00485,57.12011 -97.19578,0 -194.39157,0 -291.58732,0 -7.66729,-19.03808 -15.33459,-38.07616 -23.00189,-57.11423 15.3483,-13.338 30.69659,-26.67601 46.04489,-40.01401 3.95056,-0.76242 8.00163,-0.39307 11.99202,-0.75725 37.16373,-1.53448 74.32745,-3.07092 111.49124,-4.60419 z m 232.1271,35.78595 c 19.83768,11.59393 39.67533,23.18785 59.51303,34.78178 -38.06046,-10.59466 -76.12093,-21.18931 -114.18144,-31.78396 -10.36859,-9.00814 -20.73713,-18.0163 -31.10572,-27.02444 28.59139,8.00887 57.18276,16.01775 85.77413,24.02662 z m -411.05096,2.99195 c -37.12974,10.33529 -74.25947,20.67058 -111.3892,31.00587 19.39432,-11.33456 38.78867,-22.66913 58.183,-34.0037 27.87493,-7.81018 55.74988,-15.62038 83.62483,-23.43057 -10.13954,8.80946 -20.27909,17.61893 -30.41863,26.4284 z m 506.49969,53.30309 c -5.4663,23.62962 -10.951,47.25498 -16.4542,70.87601 -51.67649,-19.37671 -103.35296,-38.75342 -155.02938,-58.13014 7.30517,-18.12591 14.61034,-36.25181 21.91552,-54.37772 49.85601,13.87728 99.71206,27.75456 149.56806,41.63185 z m -485.17436,12.74587 c -51.53845,19.07918 -103.0769,38.15837 -154.61536,57.23755 -5.58263,-23.22505 -11.16525,-46.45008 -16.74787,-69.67512 3.36841,-1.69552 7.18451,-2.10081 10.72564,-3.31313 46.24755,-12.87371 92.49508,-25.74743 138.74264,-38.62115 7.29832,18.12396 14.59662,36.2479 21.89495,54.37185 z m 552.89396,65.58799 c -24.423,-1.6697 -48.846,-3.33938 -73.2689,-5.00908 5.0032,-21.54752 10.0064,-43.09504 15.0096,-64.64256 19.4198,23.21722 38.8395,46.43443 58.2593,69.65164 z m -718.3144,-5.49942 c -24.03738,1.77343 -48.07475,3.54687 -72.11214,5.32032 19.00088,-22.72395 38.00177,-45.44788 57.00264,-68.17182 5.03651,20.9505 10.073,41.901 15.1095,62.8515 z m 462.41327,-51.35055 c -18.61919,33.51335 -37.23838,67.0267 -55.85756,100.54008 -56.28232,0 -112.56465,0 -168.84693,0 -18.52133,-33.51338 -37.04265,-67.02673 -55.56396,-100.54008 93.42283,0 186.84564,0 280.26845,0 z m -238.64835,98.31156 c -65.66629,-14.63584 -131.33258,-29.27162 -196.99887,-43.9074 47.79289,-17.69724 95.58578,-35.39446 143.37868,-53.09169 17.8734,32.33301 35.7468,64.66602 53.62019,96.99909 z m 394.30308,-43.11758 c -65.87671,14.41656 -131.75342,28.83314 -197.63012,43.24968 17.983,-32.37022 35.96601,-64.74043 53.94906,-97.11064 47.89366,17.95365 95.7874,35.9073 143.68106,53.86096 z m -397.87052,53.67601 c -48.89493,34.13677 -97.78986,68.2736 -146.68479,102.41037 -19.43935,-49.36375 -38.8787,-98.72744 -58.31805,-148.09119 68.33428,15.22692 136.66856,30.45389 205.00284,45.68082 z m -305.11129,-4.41602 c 1.52093,-12.02258 3.04186,-24.04522 4.56279,-36.06781 21.07382,-1.5542 42.14763,-3.10841 63.22145,-4.66262 -22.59475,13.57684 -45.18949,27.15364 -67.78424,40.73043 z m 658.35508,106.35073 c -49.68573,-33.96158 -99.37146,-67.92318 -149.0572,-101.88481 68.54666,-14.99792 137.09334,-29.99584 205.64003,-44.99376 -18.861,48.95956 -37.7219,97.91906 -56.58283,146.87857 z M 1143.7402,366.77331 c 1.4682,11.63309 2.9363,23.26616 4.4044,34.89921 -22.7427,-13.08741 -45.4852,-26.17488 -68.2277,-39.26239 21.2744,1.45441 42.5489,2.90877 63.8233,4.36318 z m 3.5588,47.22816 c -13.2671,16.74397 -26.2653,33.69878 -39.5502,50.42861 -13.8899,-32.3946 -27.7885,-64.78541 -41.6964,-97.1723 27.0821,15.58125 54.1643,31.16247 81.2466,46.74369 z m -776.92622,46.27391 c -12.12244,-15.18581 -24.24487,-30.37165 -36.36731,-45.55749 26.1984,-15.74464 52.3968,-31.48933 78.59519,-47.23404 -14.07596,30.93052 -28.15192,61.86105 -42.22788,92.79153 z m 107.05834,45.59567 c -32.77735,-12.63917 -65.55471,-25.27838 -98.33206,-37.91759 14.90102,-32.75779 29.80203,-65.51555 44.70305,-98.27335 17.87635,45.39701 35.75269,90.79398 53.62901,136.19094 z M 1097.8334,469.4832 c -31.3856,12.35145 -62.7713,24.70288 -94.1568,37.05437 17.3546,-45.04758 34.7093,-90.09515 52.064,-135.14273 14.0309,32.69609 28.0618,65.39223 42.0928,98.08836 z M 821.81945,409.88793 c 2.25302,39.99836 4.50606,79.99669 6.75904,119.99506 -58.89744,-0.34858 -117.79489,-0.69682 -176.69235,-1.04527 1.79304,-39.64996 3.58601,-79.29988 5.37906,-118.94979 54.8514,0 109.70285,0 164.55425,0 z M 640.76395,528.1389 c -44.97613,-5.18331 -89.95226,-10.36658 -134.9284,-15.54989 46.68498,-32.59139 93.36996,-65.18279 140.05495,-97.77422 -1.70885,37.77471 -3.4177,75.5494 -5.12655,113.32411 z m 335.75308,-15.36785 c -45.60155,5.49061 -91.20307,10.98125 -136.80462,16.47189 -2.1473,-38.12806 -4.2946,-76.25607 -6.4419,-114.38409 47.74885,32.63737 95.49766,65.27479 143.24652,97.9122 z m -492.20942,10.8315 C 550.31058,630.71568 616.31355,737.82885 682.31653,844.94202 585.91058,726.10575 489.50462,607.26948 393.09868,488.4332 c 30.40297,11.72311 60.80595,23.44625 91.20893,35.16935 z M 799.51052,841.5302 C 865.36272,735.75591 931.21501,629.98166 997.06725,524.20741 1027.1393,512.44979 1057.1742,500.59753 1087.2191,488.77087 991.31629,606.35729 895.41341,723.94375 799.51052,841.5302 Z M 641.82391,542.40868 c 28.06776,117.42103 56.1355,234.84206 84.20328,352.2631 C 650.29474,771.75721 574.5623,648.84259 498.82988,525.92798 c 47.66468,5.49358 95.32935,10.98711 142.99403,16.4807 z M 753.36871,894.5837 C 781.89843,777.55513 810.42814,660.52653 838.95785,543.49797 886.87797,537.73136 934.7981,531.96471 982.71822,526.19811 906.26838,648.99331 829.81855,771.78848 753.36871,894.5837 Z M 672.70353,542.87258 c 51.56755,0.22883 103.13391,0.65714 154.70053,1.03355 C 798.15988,663.84537 768.9157,783.7847 739.67153,903.72398 710.91962,783.42649 682.16777,663.12895 653.41587,542.8315 c 6.42925,0.0128 12.85845,0.0256 19.28766,0.0426 z m 239.32953,53.45869 c -2.82396,0.0171 -4.73897,2.48766 -5.94468,4.75858 -4.2127,7.0804 -8.96932,13.99476 -12.93192,21.2793 -1.27325,3.94858 3.29855,8.25964 7.15543,6.65925 3.03826,-1.09517 4.07505,-4.43098 5.78446,-6.8441 3.82508,-6.23596 7.86243,-12.34428 11.43026,-18.7299 1.15262,-3.41617 -1.94216,-7.29077 -5.49355,-7.12313 z M 888.55844,634.105 c -2.83036,-0.004 -4.75867,2.45646 -5.98206,4.72215 -17.77424,28.68508 -35.67853,57.29581 -53.4134,86.00309 -1.65414,3.15754 0.80484,7.30645 4.24415,7.77256 2.70119,0.4777 5.18369,-1.4856 6.32927,-3.8008 17.98961,-29.00588 36.09803,-57.94013 54.05428,-86.96607 1.66547,-3.45955 -1.45867,-7.89921 -5.23224,-7.73093 z"
       style="stroke-width:0.352778" />
    <g
       id="use25"
       transform="matrix(1.503315,0,0,1.503315,253.56751,965.42788)"
       style="stroke-width:0.234667">
      <path
         d="M 0.015625,0 H 0 V -0.015625 H 0.015625 0 V 0 Z"
         id="path71"
         style="stroke-width:0.234667" />
    </g>
    <g
       id="use26"
       transform="matrix(1.503315,0,0,1.503315,253.59687,965.42788)"
       style="stroke-width:0.234667">
      <path
         d="M 0.015625,-0.015625 H 0 V 0 -0.015625 Z"
         id="path72"
         style="stroke-width:0.234667" />
    </g>
    <g
       id="use27"
       transform="matrix(1.503315,0,0,1.503315,253.62036,965.42788)"
       style="stroke-width:0.234667">
      <path
         d="M 0.015625,-0.015625 V 0 H 0 0.015625 0 v -0.015625 z m 0,0 H 0 Z"
         id="path73"
         style="stroke-width:0.234667" />
    </g>
    <g
       id="use28"
       transform="matrix(1.503315,0,0,1.503315,253.64972,965.42788)"
       style="stroke-width:0.234667">
      <path
         d="M 0.015625,0 H 0 Z m 0,-0.015625 V 0 H 0 C 0,-0.0078125 0.0039062,-0.015625 0.015625,-0.015625 H 0 Z"
         id="path74"
         style="stroke-width:0.234667" />
    </g>
    <g
       id="use29"
       transform="matrix(1.503315,0,0,1.503315,253.67321,965.42788)"
       style="stroke-width:0.234667">
      <path
         d="M 0.015625,-0.015625 V 0 H 0 v -0.015625 z"
         id="path75"
         style="stroke-width:0.234667" />
    </g>
    <g
       id="use30"
       transform="matrix(1.503315,0,0,1.503315,253.6967,965.42788)"
       style="stroke-width:0.234667">
      <path
         d="M 0.015625,-0.015625 V 0 H 0 0.015625 0 v -0.015625 z m 0,0 H 0 Z"
         id="path76"
         style="stroke-width:0.234667" />
    </g>
    <g
       id="use31"
       transform="matrix(1.503315,0,0,1.503315,253.72606,965.42788)"
       style="stroke-width:0.234667">
      <path
         d="M 0.015625,-0.015625 V 0 H 0 V -0.015625 Z M 0.015625,0 V -0.015625 H 0 V 0 Z"
         id="path77"
         style="stroke-width:0.234667" />
    </g>
    <g
       id="use32"
       transform="matrix(1.503315,0,0,1.503315,253.76717,965.42788)"
       style="stroke-width:0.234667">
      <path
         d="M 0.015625,0 V -0.015625 H 0 V 0 Z M 0,-0.015625 H 0.015625 V 0 H 0 Z"
         id="path78"
         style="stroke-width:0.234667" />
    </g>
    <g
       id="use33"
       transform="matrix(1.503315,0,0,1.503315,253.8024,965.42788)"
       style="stroke-width:0.234667">
      <path
         d="M 0,-0.015625 0.015625,0 V -0.015625 0 H 0 Z"
         id="path79"
         style="stroke-width:0.234667" />
    </g>
    <g
       id="use34"
       transform="matrix(1.503315,0,0,1.503315,253.84351,965.42788)"
       style="stroke-width:0.234667">
      <path
         d="M 0.015625,-0.015625 H 0 V 0 h 0.015625 z m 0,0 V 0 H 0 v -0.015625 z"
         id="path80"
         style="stroke-width:0.234667" />
    </g>
    <g
       id="use35"
       transform="matrix(1.503315,0,0,1.503315,253.87874,965.42788)"
       style="stroke-width:0.234667">
      <path
         d="M 0,-0.015625 V 0 Z"
         id="path81"
         style="stroke-width:0.234667" />
    </g>
    <g
       id="use36"
       transform="matrix(1.503315,0,0,1.503315,253.89049,965.42788)"
       style="stroke-width:0.234667">
      <path
         d="M 0.015625,-0.015625 V 0 H 0 0.015625 0 v -0.015625 z m 0,0 H 0 Z"
         id="path82"
         style="stroke-width:0.234667" />
    </g>
    <g
       id="use37"
       transform="matrix(1.503315,0,0,1.503315,253.91985,965.42788)"
       style="stroke-width:0.234667">
      <path
         d="M 0,-0.015625 H 0.015625 V 0 H 0 Z"
         id="path83"
         style="stroke-width:0.234667" />
    </g>
    <g
       id="use38"
       transform="matrix(1.503315,0,0,1.503315,253.94921,965.42788)"
       style="stroke-width:0.234667">
      <path
         d="M 0.015625,-0.015625 H 0 0.015625 V 0 H 0 0.015625 0 v -0.015625 z"
         id="path84"
         style="stroke-width:0.234667" />
    </g>
    <g
       id="use39"
       transform="matrix(1.503315,0,0,1.503315,253.9727,965.42788)"
       style="stroke-width:0.234667">
      <path
         d="M 0.015625,0 H 0 Z m 0,-0.015625 V 0 H 0 C 0,-0.0078125 0.0039062,-0.015625 0.015625,-0.015625 H 0 Z"
         id="path85"
         style="stroke-width:0.234667" />
    </g>
    <g
       id="use40"
       transform="matrix(1.503315,0,0,1.503315,254.00206,965.42788)"
       style="stroke-width:0.234667">
      <path
         d="M 0.015625,-0.015625 V 0 -0.015625 H 0 V 0 -0.015625 Z"
         id="path86"
         style="stroke-width:0.234667" />
    </g>
    <g
       id="use41"
       transform="matrix(1.503315,0,0,1.503315,254.03142,965.42788)"
       style="stroke-width:0.234667">
      <path
         d="M 0.015625,-0.015625 V 0 H 0 V -0.015625 Z M 0.015625,0 V -0.015625 H 0 V 0 Z"
         id="path87"
         style="stroke-width:0.234667" />
    </g>
    <g
       id="use42"
       transform="matrix(1.503315,0,0,1.503315,254.06078,965.42788)"
       style="stroke-width:0.234667">
      <path
         d="M 0.015625,-0.015625 H 0 V 0 -0.015625 Z"
         id="path88"
         style="stroke-width:0.234667" />
    </g>
    <g
       id="use43"
       transform="matrix(1.503315,0,0,1.503315,254.09602,965.42788)"
       style="stroke-width:0.234667">
      <path
         d="M 0,-0.015625 H 0.015625 V 0 H 0 Z"
         id="path89"
         style="stroke-width:0.234667" />
    </g>
    <g
       id="use44"
       transform="matrix(1.503315,0,0,1.503315,254.13125,965.42788)"
       style="stroke-width:0.234667">
      <path
         d="M 0.015625,0 H 0 Z m 0,-0.015625 V 0 H 0 C 0,-0.0078125 0.0039062,-0.015625 0.015625,-0.015625 H 0 Z"
         id="path90"
         style="stroke-width:0.234667" />
    </g>
    <g
       id="use45"
       transform="matrix(1.503315,0,0,1.503315,254.15474,965.42788)"
       style="stroke-width:0.234667">
      <path
         d="M 0.015625,-0.015625 V 0 -0.015625 H 0 V 0 -0.015625 Z"
         id="path91"
         style="stroke-width:0.234667" />
    </g>
    <g
       id="use46"
       transform="matrix(1.503315,0,0,1.503315,254.1841,965.42788)"
       style="stroke-width:0.234667">
      <path
         d="M 0.015625,0 H 0 Z m 0,-0.015625 V 0 H 0 C 0,-0.0078125 0.0039062,-0.015625 0.015625,-0.015625 H 0 Z"
         id="path92"
         style="stroke-width:0.234667" />
    </g>
    <g
       id="use47"
       transform="matrix(1.503315,0,0,1.503315,254.21346,965.42788)"
       style="stroke-width:0.234667">
      <path
         d="M 0.015625,-0.015625 H 0 0.015625 V 0 H 0 0.015625 0 v -0.015625 z"
         id="path93"
         style="stroke-width:0.234667" />
    </g>
    <g
       id="use48"
       transform="matrix(1.503315,0,0,1.503315,254.24283,965.42788)"
       style="stroke-width:0.234667">
      <path
         d="M 0.015625,-0.015625 H 0 V 0 h 0.015625 z m 0,0 V 0 H 0 v -0.015625 z"
         id="path94"
         style="stroke-width:0.234667" />
    </g>
    <g
       id="use49"
       transform="matrix(1.503315,0,0,1.503315,254.26632,965.42788)"
       style="stroke-width:0.234667">
      <path
         d="M 0,-0.015625 0.015625,0 V -0.015625 0 H 0 Z"
         id="path95"
         style="stroke-width:0.234667" />
    </g>
    <g
       id="use50"
       transform="matrix(1.503315,0,0,1.503315,254.29568,965.42788)"
       style="stroke-width:0.234667">
      <path
         d="M 0.015625,-0.015625 H 0 0.015625 V 0 H 0 0.015625 0 v -0.015625 z"
         id="path96"
         style="stroke-width:0.234667" />
    </g>
    <g
       id="use51"
       transform="matrix(1.503315,0,0,1.503315,254.31917,965.42788)"
       style="stroke-width:0.234667">
      <path
         d="M 0,-0.015625 H 0.015625 V 0 H 0 Z"
         id="path97"
         style="stroke-width:0.234667" />
    </g>
    <g
       id="use52"
       transform="matrix(1.503315,0,0,1.503315,254.34853,965.42788)"
       style="stroke-width:0.234667">
      <path
         d="M 0,-0.015625 0.015625,0 V -0.015625 0 H 0 Z"
         id="path98"
         style="stroke-width:0.234667" />
    </g>
    <g
       id="use53"
       transform="matrix(1.503315,0,0,1.503315,254.37789,965.42788)"
       style="stroke-width:0.234667">
      <path
         d="M 0,-0.015625 V 0 Z"
         id="path99"
         style="stroke-width:0.234667" />
    </g>
    <g
       id="use54"
       transform="matrix(1.503315,0,0,1.503315,253.56751,965.46896)"
       style="stroke-width:0.234667">
      <path
         d="M 0.015625,-0.015625 V 0 H 0 v -0.015625 z"
         id="path100"
         style="stroke-width:0.234667" />
    </g>
    <g
       id="use55"
       transform="matrix(1.503315,0,0,1.503315,253.58513,965.46896)"
       style="stroke-width:0.234667">
      <path
         d="M 0.015625,-0.015625 H 0 V 0 -0.015625 Z"
         id="path101"
         style="stroke-width:0.234667" />
    </g>
    <g
       id="use56"
       transform="matrix(1.503315,0,0,1.503315,253.60862,965.46896)"
       style="stroke-width:0.234667">
      <path
         d="M 0.015625,-0.015625 H 0 V 0 h 0.015625 z m 0,0 V 0 H 0 v -0.015625 z"
         id="path102"
         style="stroke-width:0.234667" />
    </g>
    <g
       id="use57"
       transform="matrix(1.503315,0,0,1.503315,253.63798,965.46896)"
       style="stroke-width:0.234667">
      <path
         d="M 0.015625,-0.015625 H 0.03125 V 0 H 0.015625 V -0.015625 0 -0.015625 H 0 V 0 -0.015625 Z"
         id="path103"
         style="stroke-width:0.234667" />
    </g>
    <g
       id="use58"
       transform="matrix(1.503315,0,0,1.503315,253.6967,965.46896)"
       style="stroke-width:0.234667">
      <path
         d="M 0.015625,-0.015625 V 0 H 0 v -0.015625 z"
         id="path104"
         style="stroke-width:0.234667" />
    </g>
    <g
       id="use59"
       transform="matrix(1.503315,0,0,1.503315,253.71432,965.46896)"
       style="stroke-width:0.234667">
      <path
         d="M 0.015625,-0.015625 V 0 -0.015625 H 0 V 0 -0.015625 Z"
         id="path105"
         style="stroke-width:0.234667" />
    </g>
    <g
       id="use60"
       transform="matrix(1.503315,0,0,1.503315,253.74368,965.46896)"
       style="stroke-width:0.234667">
      <path
         d="M 0.015625,-0.015625 V 0 H 0 0.015625 0 v -0.015625 z m 0,0 H 0 Z"
         id="path106"
         style="stroke-width:0.234667" />
    </g>
    <g
       id="use61"
       transform="matrix(1.503315,0,0,1.503315,253.78479,965.46896)"
       style="stroke-width:0.234667">
      <path
         d="M 0,-0.015625 H 0.015625 V 0 -0.015625 0 L 0,-0.015625 V 0 Z"
         id="path107"
         style="stroke-width:0.234667" />
    </g>
    <g
       id="use62"
       transform="matrix(1.503315,0,0,1.503315,253.82002,965.46896)"
       style="stroke-width:0.234667">
      <path
         d="M 0.015625,-0.015625 H 0 V 0 h 0.015625 z m 0,0 V 0 H 0 v -0.015625 z"
         id="path108"
         style="stroke-width:0.234667" />
    </g>
    <g
       id="use63"
       transform="matrix(1.503315,0,0,1.503315,253.84938,965.46896)"
       style="stroke-width:0.234667">
      <path
         d="M 0,0 V -0.015625 0 H 0.015625 V -0.015625 0 Z"
         id="path109"
         style="stroke-width:0.234667" />
    </g>
    <g
       id="use64"
       transform="matrix(1.503315,0,0,1.503315,253.87874,965.46896)"
       style="stroke-width:0.234667">
      <path
         d="M 0.015625,-0.015625 V 0 -0.015625 H 0 V 0 -0.015625 Z"
         id="path110"
         style="stroke-width:0.234667" />
    </g>
    <g
       id="use65"
       transform="matrix(1.503315,0,0,1.503315,253.92572,965.46896)"
       style="stroke-width:0.234667">
      <path
         d="M 0,-0.015625 H 0.015625 V 0 H 0 Z"
         id="path111"
         style="stroke-width:0.234667" />
    </g>
    <g
       id="use66"
       transform="matrix(1.503315,0,0,1.503315,253.95508,965.46896)"
       style="stroke-width:0.234667">
      <path
         d="M 0.015625,-0.015625 H 0 V 0 -0.015625 Z"
         id="path112"
         style="stroke-width:0.234667" />
    </g>
    <g
       id="use67"
       transform="matrix(1.503315,0,0,1.503315,253.97857,965.46896)"
       style="stroke-width:0.234667">
      <path
         d="M 0.015625,-0.015625 H 0 V 0 h 0.015625 z m 0,0 V 0 H 0 v -0.015625 z"
         id="path113"
         style="stroke-width:0.234667" />
    </g>
    <g
       id="use68"
       transform="matrix(1.503315,0,0,1.503315,254.00793,965.46896)"
       style="stroke-width:0.234667">
      <path
         d="M 0,-0.015625 V 0 Z"
         id="path114"
         style="stroke-width:0.234667" />
    </g>
    <g
       id="use69"
       transform="matrix(1.503315,0,0,1.503315,254.01968,965.46896)"
       style="stroke-width:0.234667">
      <path
         d="M 0.015625,-0.015625 V 0 H 0 0.015625 0 v -0.015625 z m 0,0 H 0 Z"
         id="path115"
         style="stroke-width:0.234667" />
    </g>
    <g
       id="use70"
       transform="matrix(1.503315,0,0,1.503315,254.04904,965.46896)"
       style="stroke-width:0.234667">
      <path
         d="M 0.015625,-0.015625 H 0 V 0 H 0.015625 0 v -0.015625 z"
         id="path116"
         style="stroke-width:0.234667" />
    </g>
    <g
       id="use71"
       transform="matrix(1.503315,0,0,1.503315,254.07253,965.46896)"
       style="stroke-width:0.234667">
      <path
         d="M 0.015625,-0.015625 V 0 H 0 v -0.015625 z"
         id="path117"
         style="stroke-width:0.234667" />
    </g>
  </g>
</svg>
