<?xml version="1.0" encoding="UTF-8" standalone="no"?>
<!-- Uploaded to: SVG Repo, www.svgrepo.com, Generator: SVG Repo Mixer Tools -->

<svg
   height="1000"
   width="1620.0001"
   version="1.1"
   id="Layer_1"
   viewBox="0 0 1036.8001 639.99999"
   xml:space="preserve"
   sodipodi:docname="windows-banner-michael.gr.svg"
   inkscape:version="1.3.2 (091e20e, 2023-11-25, custom)"
   inkscape:export-filename="windows-banner-michael.gr.png"
   inkscape:export-xdpi="96"
   inkscape:export-ydpi="96"
   xmlns:inkscape="http://www.inkscape.org/namespaces/inkscape"
   xmlns:sodipodi="http://sodipodi.sourceforge.net/DTD/sodipodi-0.dtd"
   xmlns="http://www.w3.org/2000/svg"
   xmlns:svg="http://www.w3.org/2000/svg"><defs
   id="defs4" /><sodipodi:namedview
   id="namedview4"
   pagecolor="#505050"
   bordercolor="#eeeeee"
   borderopacity="1"
   inkscape:showpageshadow="0"
   inkscape:pageopacity="0"
   inkscape:pagecheckerboard="0"
   inkscape:deskcolor="#505050"
   showgrid="false"
   inkscape:zoom="0.80654367"
   inkscape:cx="834.42475"
   inkscape:cy="467.42664"
   inkscape:window-width="2996"
   inkscape:window-height="1504"
   inkscape:window-x="576"
   inkscape:window-y="343"
   inkscape:window-maximized="0"
   inkscape:current-layer="Layer_1" />


<g
   id="g5"
   transform="matrix(1.7464574,0,0,1.7464574,-394.31967,-184.5121)"
   style="stroke-width:0.933282"><g
     id="g4"
     transform="matrix(0.41698631,0,0,0.41698631,203.57698,182.12892)"
     style="fill:#0078d6;fill-opacity:1;stroke-width:0.933282">
	<path
   style="fill:#0078d6;fill-opacity:1;stroke-width:0.933282"
   d="m 232,246.516 c 0,-38.996 0,-77.988 0,-116.984 -40,6.324 -72.536,12.624 -112,18.944 0,39.78 0,59.672 0,99.456 39.464,-0.46 72,-0.952 112,-1.416 z"
   id="path1" />
	<path
   style="fill:#0078d6;fill-opacity:1;stroke-width:0.933282"
   d="m 248,246.284 c 40,-0.48 88.536,-0.936 128,-1.42 0,-45.78 0,-91.564 0,-137.344 -39.464,6.324 -88,12.62 -128,18.948 0,39.94 0,79.876 0,119.816 z"
   id="path2" />
	<path
   style="fill:#0078d6;fill-opacity:1;stroke-width:0.933282"
   d="m 249.6,265.72 c -0.016,39.936 0,79.876 0,119.816 39.46,6.324 86.928,12.624 126.4,18.944 0,-45.78 0,-91.568 0,-137.344 -39.464,-0.468 -86.928,-0.944 -126.4,-1.416 z"
   id="path3" />
	<path
   style="fill:#0078d6;fill-opacity:1;stroke-width:0.933282"
   d="m 232,265.484 c -40,-0.476 -72.536,-0.944 -112,-1.42 0,39.784 0,59.672 0,99.456 39.464,6.328 72,12.62 112,18.944 0,-38.992 0,-77.984 0,-116.98 z"
   id="path4" />
</g><path
     d="m 394.09478,252.26443 c 3.08706,0.0134 6.17411,0.0134 9.27488,0.055 4.81582,17.39731 9.56302,34.82208 14.39255,52.23302 1.02902,3.64954 1.79735,7.3815 2.25013,11.16832 5.02161,-21.3625 11.88173,-42.27213 17.64424,-63.45619 2.67545,0.0134 5.3509,0.0134 8.02635,0.0275 4.23956,15.07859 8.20471,30.22573 12.40311,45.31808 1.55039,6.00941 3.55354,11.93657 4.18467,18.15187 4.54141,-21.33504 11.01737,-42.24467 16.16247,-63.4425 3.04589,-0.041 6.09179,-0.041 9.13769,-0.041 -6.64061,24.27117 -13.55562,48.47367 -20.27854,72.71732 h -9.8923 c -4.87069,-17.41101 -9.70022,-34.83572 -14.62579,-52.21927 -0.82322,-2.81267 -1.16623,-5.72134 -1.42691,-8.63001 -0.38416,2.51078 -0.74089,5.04902 -1.38574,7.50496 -4.98046,17.72652 -10.02951,35.42572 -14.87276,53.17971 -3.29286,0.17837 -6.58573,0.19206 -9.87859,0.16461 -7.06592,-24.22996 -14.07697,-48.4873 -21.11546,-72.73101"
     id="path6"
     style="fill:#0078d6;fill-opacity:1;stroke-width:1.28048" /><path
     d="m 493.22361,252.85438 a 5.4881016,5.4881012 0 1 1 0,1.37203 m 1.23482,18.63213 h 8.23216 v 52.13689 h -8.23216"
     id="path8"
     style="fill:#0078d6;fill-opacity:1;stroke-width:1.28048" /><path
     d="m 524.58812,281.25527 c 4.70604,-8.38304 15.68224,-12.2384 24.53181,-8.35558 7.03849,2.744 9.65905,10.89382 9.87858,17.83635 0.38417,11.41523 0.0686,22.84423 0.16465,34.25939 -2.74406,0 -5.48811,0 -8.23216,-0.0134 -0.12349,-10.96249 0.28812,-21.95238 -0.19209,-32.91481 -0.21952,-5.43328 -2.52452,-11.9641 -8.43795,-13.34983 -8.63004,-2.60691 -17.24636,5.17248 -17.52077,13.7065 -0.24695,10.85274 -0.0137,21.71917 -0.096,32.57184 h -8.23215 c 0.0137,-17.38355 0.0137,-34.75334 0,-52.1369 h 8.24587 c -0.0137,2.79892 -0.0275,5.59783 -0.10975,8.3968"
     id="path10"
     style="fill:#0078d6;fill-opacity:1;stroke-width:1.28048" /><path
     d="m 608.3777,248.17576 c 2.74405,-0.0137 5.4881,-0.0137 8.23216,-0.0137 v 76.83337 h -8.20472 c 0.0137,-2.78521 -0.0412,-5.57043 -0.23324,-8.35564 -5.94087,10.67443 -21.82893,13.0343 -30.91173,5.11769 -6.48969,-5.58413 -8.4654,-14.66694 -8.12239,-22.88537 0.0686,-8.34189 2.81265,-17.20519 9.45325,-22.65216 8.63005,-7.10708 23.92813,-6.69543 29.84155,3.74566 -0.10976,-10.60576 -0.0137,-21.19782 -0.0549,-31.78982 m -17.72657,30.37664 c -6.58572,1.04268 -11.0448,7.05222 -12.27962,13.26745 -1.61899,7.49127 -1.33087,16.1625 3.3889,22.52871 5.10393,6.77779 16.36826,6.9287 21.82892,0.52134 3.71819,-3.86912 4.77465,-9.4121 4.80209,-14.59834 0.0412,-5.47436 0.50765,-11.64844 -3.12822,-16.21734 -3.21054,-4.56883 -9.20629,-6.62688 -14.61207,-5.50182"
     id="path12"
     style="fill:#0078d6;fill-opacity:1;stroke-width:1.28048" /><path
     d="m 648.63296,271.56881 c 7.3403,-0.64486 15.4764,0.50765 20.992,5.81741 6.2289,5.74873 8.0812,14.6807 7.7382,22.84422 -0.096,7.34029 -2.8127,14.7904 -8.191,19.90803 -11.2232,10.20794 -32.0642,7.97152 -39.1851,-6.06432 -5.5978,-11.75827 -4.4728,-28.03046 5.7488,-36.96236 3.6633,-3.1008 8.3008,-4.51399 12.8971,-5.54298 m -1.4818,7.46381 c -12.0876,3.71821 -14.1319,19.51021 -10.3588,29.89638 3.0047,9.22003 14.7218,13.30867 23.1323,9.00058 5.6939,-2.62061 8.2871,-9.04167 8.8359,-14.92768 0.6174,-6.87379 0.069,-14.66695 -4.7884,-20.03155 -4.1161,-4.63744 -11.086,-5.63898 -16.821,-3.93773"
     id="path14"
     style="fill:#0078d6;fill-opacity:1;stroke-width:1.28048" /><path
     d="m 680.79316,272.85854 h 8.5889 c 3.4026,12.41677 6.6955,24.86112 10.1667,37.26419 0.6998,2.33242 0.9604,4.7472 1.2074,7.16192 3.8828,-14.95501 8.7947,-29.63571 13.1989,-44.43987 l 7.505,0.041 c 3.773,14.81792 8.4654,29.41625 11.5936,44.38509 3.2243,-14.88653 7.8068,-29.44372 11.3878,-44.24788 2.7578,-0.13721 5.5155,-0.17836 8.287,-0.20582 -5.2274,17.38355 -10.2353,34.82202 -15.4901,52.17811 h -8.534 c -3.7045,-14.13177 -8.5066,-27.98925 -11.5113,-42.27206 -3.581,14.26912 -8.5477,28.15398 -12.6364,42.27206 h -8.2459 c -5.1588,-17.38355 -10.4273,-34.72595 -15.5176,-52.13696"
     id="path16"
     style="fill:#0078d6;fill-opacity:1;stroke-width:1.28048" /><path
     d="m 773.47356,271.54135 c 5.1451,-0.35667 10.3862,0.13722 15.2294,2.0306 1.3446,2.55193 0.3019,5.89977 0.6174,8.76729 -5.7762,-3.60845 -13.7339,-5.91347 -20.0041,-2.23641 -4.2944,2.33241 -4.5002,9.23372 -0.3155,11.79942 5.9957,3.88282 13.6104,4.89811 18.9339,9.89229 5.8723,5.65273 4.4454,16.51917 -2.4285,20.75872 -8.3556,5.32345 -19.3593,4.80211 -28.1128,0.74093 0,-3.07335 -0.014,-6.14669 -0.069,-9.22004 6.229,4.7472 14.9825,7.38151 22.4326,4.00628 4.3494,-2.18151 4.5689,-8.86324 0.7409,-11.67591 -5.9957,-4.41792 -14.2142,-5.11769 -19.5376,-10.63321 -5.2549,-5.296 -4.3082,-15.03738 1.5504,-19.52391 3.0322,-2.78521 7.1345,-3.62214 10.9625,-4.70605"
     id="path18"
     style="fill:#0078d6;fill-opacity:1;stroke-width:1.28048" /></g><rect
   style="fill:#0078d6;fill-opacity:0;stroke-width:1.26635"
   id="rect4"
   width="1036.8"
   height="640"
   x="0"
   y="0" /></svg>
