<?xml version="1.0" encoding="UTF-8" standalone="no"?>
<!-- Created with Inkscape (http://www.inkscape.org/) -->

<svg
   width="428.62497mm"
   height="264.58334mm"
   viewBox="0 0 428.62497 264.58334"
   version="1.1"
   id="svg1"
   xml:space="preserve"
   inkscape:version="1.4.2 (f4327f4, 2025-05-13)"
   sodipodi:docname="ca1051.svg"
   xmlns:inkscape="http://www.inkscape.org/namespaces/inkscape"
   xmlns:sodipodi="http://sodipodi.sourceforge.net/DTD/sodipodi-0.dtd"
   xmlns="http://www.w3.org/2000/svg"
   xmlns:svg="http://www.w3.org/2000/svg"><sodipodi:namedview
     id="namedview1"
     pagecolor="#ffffff"
     bordercolor="#000000"
     borderopacity="0.25"
     inkscape:showpageshadow="2"
     inkscape:pageopacity="0.0"
     inkscape:pagecheckerboard="0"
     inkscape:deskcolor="#d1d1d1"
     inkscape:document-units="mm"
     inkscape:zoom="0.36756309"
     inkscape:cx="780.81833"
     inkscape:cy="704.64093"
     inkscape:window-width="1582"
     inkscape:window-height="1094"
     inkscape:window-x="920"
     inkscape:window-y="229"
     inkscape:window-maximized="0"
     inkscape:current-layer="svg1" /><defs
     id="defs1" /><rect
     style="fill:#4f2f2f;fill-opacity:1;stroke:#000000;stroke-width:0.127;stroke-linecap:round;-inkscape-stroke:none"
     id="rect5"
     width="428.49796"
     height="264.45636"
     x="0.06350565"
     y="0.063493989" /><path
     d="m 118.26221,112.51969 7.46395,1.88488 q -2.34691,9.19359 -8.46427,14.04042 -6.07889,4.80836 -14.88943,4.80836 -9.118332,0 -14.850953,-3.69282 -5.694148,-3.73129 -8.695118,-10.77073 -2.962494,-7.03945 -2.962494,-15.1175 0,-8.808922 3.347235,-15.348296 3.385708,-6.577842 9.580019,-9.962931 6.232781,-3.423554 13.696731,-3.423554 8.46427,0 14.23537,4.308293 5.7711,4.308295 8.04106,12.117076 l -7.34853,1.731012 q -1.96217,-6.154706 -5.69415,-8.962791 -3.73197,-2.808082 -9.38764,-2.808082 -6.502106,0 -10.888137,3.115819 -4.347559,3.11582 -6.117361,8.385785 -1.769803,5.2315 -1.769803,10.809199 0,7.19331 2.077594,12.57868 2.116068,5.3469 6.540574,8.00112 4.424506,2.65422 9.580023,2.65422 6.27125,0 10.61881,-3.6159 4.34756,-3.61588 5.88652,-10.73226 z m 10.46492,19.77199 21.66084,-56.392487 h 8.04106 l 23.08439,56.392487 h -8.50275 l -6.57905,-17.07931 h -23.58454 l -6.19431,17.07931 z m 16.27449,-23.15708 h 19.12156 l -5.88652,-15.617564 q -2.69317,-7.116378 -4.00129,-11.693941 -1.07727,5.423834 -3.03944,10.770734 z m 65.75201,23.15708 h -6.92531 V 88.170135 q -2.50081,2.38495 -6.57905,4.769897 -4.03977,2.384949 -7.27158,3.577423 v -6.693243 q 5.80957,-2.731149 10.15713,-6.616307 4.34756,-3.885158 6.15583,-7.539514 h 4.46298 z m 17.7365,-27.81158 q 0,-10.001392 2.03912,-16.079163 2.0776,-6.116239 6.11736,-9.424392 4.07824,-3.308154 10.23408,-3.308154 4.53993,0 7.96411,1.846411 3.42418,1.807945 5.65567,5.269968 2.2315,3.423554 3.50113,8.385784 1.26964,4.923765 1.26964,13.309546 0,9.92447 -2.03911,16.04071 -2.03913,6.07777 -6.11737,9.42439 -4.03976,3.30815 -10.23407,3.30815 -8.15648,0 -12.81183,-5.84697 -5.57873,-7.03944 -5.57873,-22.92628 z m 7.11769,0 q 0,13.88656 3.23181,18.50259 3.27029,4.57756 8.04106,4.57756 4.77077,0 8.00258,-4.61603 3.27029,-4.61603 3.27029,-18.46412 0,-13.925015 -3.27029,-18.502578 -3.23181,-4.577562 -8.07953,-4.577562 -4.77077,0 -7.61784,4.039026 -3.57808,5.154564 -3.57808,19.041114 z m 36.70417,13.04029 7.27156,-0.61548 q 0.80796,5.30844 3.73198,8.00112 2.96251,2.65422 7.11769,2.65422 5.00161,0 8.46427,-3.76976 3.46266,-3.76976 3.46266,-10.00139 0,-5.92391 -3.34723,-9.34746 -3.30877,-3.42356 -8.69513,-3.42356 -3.34723,0 -6.04042,1.53868 -2.69316,1.50021 -4.23213,3.92362 l -6.50208,-0.84627 5.46329,-28.965579 h 28.04752 v 6.616307 h -22.50728 l -3.03942,15.155963 q 5.07855,-3.538955 10.65727,-3.538955 7.38702,0 12.46556,5.116094 5.07858,5.1161 5.07858,13.15569 0,7.65491 -4.46297,13.23261 -5.42484,6.84711 -14.81249,6.84711 -7.69479,0 -12.58099,-4.30829 -4.84771,-4.3083 -5.54024,-11.42467 z m 69.9072,14.77129 h -6.9253 V 88.170135 q -2.50081,2.38495 -6.57905,4.769897 -4.03976,2.384949 -7.27159,3.577423 v -6.693243 q 5.80956,-2.731149 10.15712,-6.616307 4.34756,-3.885158 6.15585,-7.539514 h 4.46297 z"
     id="text4"
     style="font-size:297.895px;font-family:Arial;-inkscape-font-specification:'Arial, Normal';text-align:center;text-anchor:middle;fill:#d0b0b0;stroke:#d0b0b0;stroke-width:2.64481;stroke-linecap:round"
     aria-label="CA1051" /><path
     d="m 22.889975,168.6272 v -17.16905 h 5.915389 q 2.003032,0 3.057262,0.24594 1.475916,0.33964 2.51843,1.22971 1.358783,1.14773 2.026463,2.93959 0.679388,1.78014 0.679388,4.07559 0,1.95582 -0.456831,3.46661 -0.456832,1.51078 -1.171363,2.50625 -0.714534,0.98377 -1.569628,1.55763 -0.843382,0.56216 -2.049889,0.85494 -1.19479,0.29279 -2.752705,0.29279 z m 2.272446,-2.02609 h 3.66637 q 1.698479,0 2.658997,-0.31621 0.972233,-0.31621 1.5462,-0.89007 0.808243,-0.8081 1.25336,-2.16663 0.456831,-1.37024 0.456831,-3.31435 0,-2.69364 -0.890236,-4.13416 -0.878524,-1.45222 -2.143595,-1.9441 -0.913664,-0.35135 -2.940126,-0.35135 h -3.607801 z m 13.9978,-4.19271 q 0,-3.45489 1.921039,-5.11792 1.604769,-1.38196 3.912355,-1.38196 2.565288,0 4.193485,1.68646 1.628195,1.67474 1.628195,4.63775 0,2.40085 -0.726246,3.78281 -0.714531,1.37024 -2.096741,2.13149 -1.370496,0.76125 -2.998693,0.76125 -2.612142,0 -4.228624,-1.67475 -1.60477,-1.67474 -1.60477,-4.82513 z m 2.167026,0 q 0,2.38914 1.042514,3.58371 1.042512,1.18286 2.623854,1.18286 1.569628,0 2.612143,-1.19457 1.042514,-1.19457 1.042514,-3.64227 0,-2.30716 -1.054227,-3.49003 -1.042514,-1.19457 -2.60043,-1.19457 -1.581342,0 -2.623854,1.18286 -1.042514,1.18286 -1.042514,3.57201 z m 18.624688,6.2188 v -12.4376 h 1.897608 v 1.76843 q 1.370498,-2.04951 3.95921,-2.04951 1.124511,0 2.061602,0.4099 0.948806,0.39819 1.417352,1.05404 0.468544,0.65584 0.655962,1.55762 0.117138,0.58558 0.117138,2.04952 v 7.6476 h -2.108456 v -7.56562 q 0,-1.28827 -0.245986,-1.92069 -0.245987,-0.64413 -0.878524,-1.0189 -0.620823,-0.38648 -1.464204,-0.38648 -1.347068,0 -2.331016,0.85494 -0.972233,0.85494 -0.972233,3.24408 v 6.79267 z m 12.557024,-6.2188 q 0,-3.45489 1.921036,-5.11792 1.60477,-1.38196 3.912356,-1.38196 2.565287,0 4.193485,1.68646 1.628197,1.67474 1.628197,4.63775 0,2.40085 -0.726246,3.78281 -0.714534,1.37024 -2.096744,2.13149 -1.370495,0.76125 -2.998692,0.76125 -2.61214,0 -4.228625,-1.67475 -1.604767,-1.67474 -1.604767,-4.82513 z m 2.167023,0 q 0,2.38914 1.042514,3.58371 1.042515,1.18286 2.623855,1.18286 1.56963,0 2.612142,-1.19457 1.042514,-1.19457 1.042514,-3.64227 0,-2.30716 -1.054226,-3.49003 -1.042515,-1.19457 -2.60043,-1.19457 -1.58134,0 -2.623855,1.18286 -1.042514,1.18286 -1.042514,3.57201 z m 16.563089,4.33325 0.304556,1.86213 q -0.890236,0.18738 -1.593055,0.18738 -1.147938,0 -1.780475,-0.36305 -0.632534,-0.36306 -0.890236,-0.94864 -0.257699,-0.59728 -0.257699,-2.49454 v -7.15573 h -1.546201 v -1.6396 h 1.546201 v -3.08013 l 2.096741,-1.26484 v 4.34497 h 2.120168 v 1.6396 h -2.120168 v 7.27284 q 0,0.90179 0.105423,1.15944 0.117136,0.25765 0.363123,0.4099 0.2577,0.15225 0.726246,0.15225 0.351408,0 0.925376,-0.082 z m 16.797369,1.88555 v -1.56934 q -1.18308,1.85042 -3.47896,1.85042 -1.48763,0 -2.74099,-0.81981 -1.24164,-0.8198 -1.932748,-2.28374 -0.679391,-1.47565 -0.679391,-3.38462 0,-1.86213 0.620822,-3.37291 0.620827,-1.52249 1.862467,-2.33059 1.24165,-0.80809 2.77613,-0.80809 1.12452,0 2.00304,0.48017 0.87852,0.46846 1.42906,1.22971 v -6.16025 h 2.09675 v 17.16905 z m -6.66507,-6.20709 q 0,2.38914 1.00738,3.572 1.00737,1.18286 2.37787,1.18286 1.38221,0 2.34272,-1.1243 0.97224,-1.13601 0.97224,-3.45489 0,-2.5531 -0.98395,-3.74768 -0.98394,-1.19457 -2.42472,-1.19457 -1.40564,0 -2.35445,1.14773 -0.93709,1.14772 -0.93709,3.61885 z m 20.45202,2.20176 2.17874,0.26936 q -0.5154,1.90898 -1.90932,2.96301 -1.39393,1.05404 -3.56095,1.05404 -2.72928,0 -4.33405,-1.67475 -1.59305,-1.68645 -1.59305,-4.71973 0,-3.13868 1.61648,-4.87198 1.61648,-1.7333 4.19348,-1.7333 2.49501,0 4.07635,1.69817 1.58134,1.69816 1.58134,4.77829 0,0.18738 -0.0117,0.56215 h -9.2772 q 0.11713,2.04951 1.15965,3.13867 1.04251,1.08917 2.60042,1.08917 1.15965,0 1.97961,-0.60899 0.81996,-0.609 1.30021,-1.94411 z m -6.92276,-3.40804 h 6.94619 q -0.14056,-1.56934 -0.79653,-2.35402 -1.00737,-1.21799 -2.61214,-1.21799 -1.45249,0 -2.44815,0.97206 -0.98395,0.97205 -1.08937,2.59995 z m 19.86633,2.8576 2.07331,0.26936 q -0.33969,2.14321 -1.74533,3.3612 -1.39392,1.20629 -3.4321,1.20629 -2.55357,0 -4.11148,-1.66303 -1.5462,-1.67475 -1.5462,-4.79001 0,-2.01437 0.66768,-3.52516 0.66767,-1.51078 2.02645,-2.26031 1.3705,-0.76125 2.97527,-0.76125 2.02646,0 3.31496,1.03061 1.2885,1.0189 1.65162,2.90445 l -2.04988,0.31621 q -0.29285,-1.25313 -1.04252,-1.88555 -0.73796,-0.63242 -1.79219,-0.63242 -1.59305,0 -2.58871,1.14773 -0.99566,1.13601 -0.99566,3.60714 0,2.50625 0.96052,3.64227 0.96052,1.13601 2.50672,1.13601 1.24164,0 2.07331,-0.76124 0.83167,-0.76125 1.05423,-2.3423 z m 3.83037,4.55577 v -17.16905 h 2.10845 v 17.16905 z m 13.49411,-1.53421 q -1.17136,0.99548 -2.26073,1.40538 -1.07765,0.40991 -2.3193,0.40991 -2.04989,0 -3.15097,-0.99548 -1.10108,-1.00719 -1.10108,-2.56482 0,-0.91349 0.40997,-1.66303 0.4217,-0.76125 1.08937,-1.218 0.67939,-0.45674 1.52278,-0.69097 0.62082,-0.16396 1.87418,-0.31621 2.55357,-0.3045 3.76008,-0.72612 0.0117,-0.43332 0.0117,-0.55043 0,-1.28827 -0.5974,-1.81529 -0.80824,-0.7144 -2.4013,-0.7144 -1.48763,0 -2.20216,0.52702 -0.70282,0.5153 -1.04252,1.8387 l -2.0616,-0.28107 q 0.28113,-1.3234 0.92538,-2.13149 0.64425,-0.81981 1.86247,-1.25313 1.21822,-0.44504 2.82299,-0.44504 1.59305,0 2.58871,0.37477 0.99566,0.37476 1.46421,0.94863 0.46854,0.56215 0.65596,1.4288 0.10542,0.53873 0.10542,1.94411 v 2.81076 q 0,2.93958 0.12885,3.72425 0.14057,0.77296 0.53883,1.48736 h -2.20216 q -0.32799,-0.65585 -0.42169,-1.53421 z m -0.1757,-4.70801 q -1.14794,0.46845 -3.44381,0.79638 -1.30022,0.18738 -1.83904,0.42161 -0.53883,0.23423 -0.83167,0.69098 -0.29284,0.44503 -0.29284,0.99547 0,0.84323 0.63253,1.40538 0.64425,0.56216 1.87419,0.56216 1.21821,0 2.16702,-0.52702 0.94881,-0.53873 1.39392,-1.46394 0.3397,-0.7144 0.3397,-2.10807 z m 5.37655,6.24222 v -12.4376 h 1.89761 v 1.88555 q 0.72625,-1.3234 1.33536,-1.74502 0.62082,-0.42161 1.35878,-0.42161 1.06594,0 2.16702,0.67927 l -0.72624,1.95581 q -0.7731,-0.45674 -1.5462,-0.45674 -0.69111,0 -1.24165,0.42161 -0.55054,0.4099 -0.78481,1.14773 -0.35141,1.1243 -0.35141,2.45941 v 6.51159 z m 16.52796,-4.00533 2.17874,0.26936 q -0.5154,1.90898 -1.90933,2.96301 -1.39392,1.05404 -3.56094,1.05404 -2.72928,0 -4.33405,-1.67475 -1.59305,-1.68645 -1.59305,-4.71973 0,-3.13868 1.61648,-4.87198 1.61648,-1.7333 4.19348,-1.7333 2.49501,0 4.07635,1.69817 1.58134,1.69816 1.58134,4.77829 0,0.18738 -0.0117,0.56215 h -9.2772 q 0.11714,2.04951 1.15965,3.13867 1.04252,1.08917 2.60043,1.08917 1.15965,0 1.9796,-0.60899 0.81996,-0.609 1.30022,-1.94411 z m -6.92276,-3.40804 h 6.94619 q -0.14057,-1.56934 -0.79653,-2.35402 -1.00737,-1.21799 -2.61214,-1.21799 -1.45249,0 -2.44815,0.97206 -0.98395,0.97205 -1.08937,2.59995 z m 21.86937,7.41337 -4.73232,-12.4376 h 2.2256 l 2.67071,7.44851 q 0.4334,1.20628 0.79652,2.50625 0.28113,-0.98376 0.78482,-2.36572 l 2.76442,-7.58904 h 2.16702 l -4.70888,12.4376 z m 8.55094,-14.74477 v -2.42428 h 2.10846 v 2.42428 z m 0,14.74477 v -12.4376 h 2.10846 v 12.4376 z m 4.47463,-3.71254 2.08502,-0.32793 q 0.17571,1.25314 0.97223,1.92069 0.80825,0.66755 2.24902,0.66755 1.4525,0 2.15531,-0.58557 0.70282,-0.59729 0.70282,-1.39367 0,-0.7144 -0.62082,-1.1243 -0.4334,-0.28108 -2.15531,-0.7144 -2.3193,-0.58557 -3.22125,-1.00719 -0.89024,-0.43332 -1.35878,-1.18286 -0.45684,-0.76125 -0.45684,-1.67474 0,-0.83152 0.37484,-1.53421 0.38655,-0.7144 1.04251,-1.18286 0.49198,-0.36305 1.33536,-0.609 0.8551,-0.25765 1.82733,-0.25765 1.4642,0 2.56529,0.42161 1.11279,0.42162 1.63991,1.14773 0.52711,0.7144 0.72624,1.92068 l -2.0616,0.28108 q -0.14056,-0.96034 -0.81995,-1.49907 -0.66768,-0.53873 -1.89762,-0.53873 -1.45249,0 -2.07331,0.48017 -0.62082,0.48017 -0.62082,1.1243 0,0.40991 0.2577,0.73783 0.2577,0.33963 0.80824,0.56215 0.31627,0.11712 1.86247,0.53873 2.2373,0.59729 3.11583,0.98377 0.89023,0.37476 1.39392,1.10087 0.50369,0.72612 0.50369,1.80358 0,1.05403 -0.62083,1.99095 -0.60911,0.92521 -1.76876,1.44051 -1.15965,0.5036 -2.62385,0.5036 -2.42473,0 -3.70151,-1.00719 -1.26508,-1.00719 -1.61648,-2.98643 z m 12.84985,-11.03223 v -2.42428 h 2.10845 v 2.42428 z m 0,14.74477 v -12.4376 h 2.10845 v 12.4376 z m 7.26246,0 h -1.95617 v -17.16905 h 2.10845 v 6.12511 q 1.33536,-1.67474 3.40867,-1.67474 1.14794,0 2.16703,0.46846 1.0308,0.45675 1.68676,1.29997 0.66768,0.83152 1.04252,2.01438 0.37483,1.18286 0.37483,2.52968 0,3.19724 -1.58134,4.94225 -1.58134,1.74502 -3.79522,1.74502 -2.20216,0 -3.45553,-1.83871 z m -0.0234,-6.3125 q 0,2.2369 0.60911,3.23238 0.99566,1.62789 2.69414,1.62789 1.38221,0 2.38958,-1.19457 1.00737,-1.20628 1.00737,-3.58371 0,-2.43599 -0.97223,-3.59543 -0.96052,-1.15944 -2.33101,-1.15944 -1.38221,0 -2.38959,1.20628 -1.00737,1.19458 -1.00737,3.4666 z m 11.37395,6.3125 v -17.16905 h 2.10845 v 17.16905 z m 13.89237,-4.00533 2.17874,0.26936 q -0.5154,1.90898 -1.90933,2.96301 -1.39392,1.05404 -3.56094,1.05404 -2.72928,0 -4.33405,-1.67475 -1.59306,-1.68645 -1.59306,-4.71973 0,-3.13868 1.61649,-4.87198 1.61648,-1.7333 4.19348,-1.7333 2.49501,0 4.07635,1.69817 1.58134,1.69816 1.58134,4.77829 0,0.18738 -0.0117,0.56215 h -9.27721 q 0.11714,2.04951 1.15966,3.13867 1.04251,1.08917 2.60043,1.08917 1.15965,0 1.9796,-0.60899 0.81995,-0.609 1.30021,-1.94411 z m -6.92276,-3.40804 h 6.94619 q -0.14056,-1.56934 -0.79652,-2.35402 -1.00738,-1.21799 -2.61215,-1.21799 -1.45249,0 -2.44815,0.97206 -0.98394,0.97205 -1.08937,2.59995 z m 18.42556,-7.3314 v -2.42428 h 2.10846 v 2.42428 z m 0,14.74477 v -12.4376 h 2.10846 v 12.4376 z m 5.318,0 v -12.4376 h 1.8976 v 1.76843 q 1.37051,-2.04951 3.95922,-2.04951 1.12452,0 2.0616,0.4099 0.94881,0.39819 1.41735,1.05404 0.46855,0.65584 0.65598,1.55762 0.11712,0.58558 0.11712,2.04952 v 7.6476 h -2.10845 v -7.56562 q 0,-1.28827 -0.24599,-1.92069 -0.24599,-0.64413 -0.87853,-1.0189 -0.62082,-0.38648 -1.46419,-0.38648 -1.34707,0 -2.33103,0.85494 -0.97221,0.85494 -0.97221,3.24408 v 6.79267 z m 12.49846,-3.71254 2.08504,-0.32793 q 0.17568,1.25314 0.97221,1.92069 0.80825,0.66755 2.24903,0.66755 1.45248,0 2.15532,-0.58557 0.70282,-0.59729 0.70282,-1.39367 0,-0.7144 -0.62085,-1.1243 -0.43339,-0.28108 -2.15529,-0.7144 -2.31931,-0.58557 -3.22125,-1.00719 -0.89024,-0.43332 -1.35878,-1.18286 -0.45683,-0.76125 -0.45683,-1.67474 0,-0.83152 0.37483,-1.53421 0.38655,-0.7144 1.04252,-1.18286 0.49195,-0.36305 1.33535,-0.609 0.85509,-0.25765 1.82733,-0.25765 1.4642,0 2.56528,0.42161 1.1128,0.42162 1.6399,1.14773 0.52714,0.7144 0.72625,1.92068 l -2.0616,0.28108 q -0.14056,-0.96034 -0.81994,-1.49907 -0.66769,-0.53873 -1.89761,-0.53873 -1.4525,0 -2.07332,0.48017 -0.62082,0.48017 -0.62082,1.1243 0,0.40991 0.25771,0.73783 0.25768,0.33963 0.80822,0.56215 0.31627,0.11712 1.86248,0.53873 2.23729,0.59729 3.11582,0.98377 0.89024,0.37476 1.39394,1.10087 0.50367,0.72612 0.50367,1.80358 0,1.05403 -0.62082,1.99095 -0.6091,0.92521 -1.76877,1.44051 -1.15964,0.5036 -2.62384,0.5036 -2.42474,0 -3.70151,-1.00719 -1.26507,-1.00719 -1.61649,-2.98643 z m 17.44161,1.82699 0.30455,1.86213 q -0.89024,0.18738 -1.59306,0.18738 -1.14792,0 -1.78046,-0.36305 -0.63254,-0.36306 -0.89024,-0.94864 -0.25771,-0.59728 -0.25771,-2.49454 v -7.15573 h -1.54619 v -1.6396 h 1.54619 v -3.08013 l 2.09676,-1.26484 v 4.34497 h 2.12016 v 1.6396 h -2.12016 v 7.27284 q 0,0.90179 0.1054,1.15944 0.11715,0.25765 0.36314,0.4099 0.25768,0.15225 0.72622,0.15225 0.35143,0 0.9254,-0.082 z m 10.17916,0.35134 q -1.17139,0.99548 -2.26075,1.40538 -1.07765,0.40991 -2.31929,0.40991 -2.04989,0 -3.15097,-0.99548 -1.1011,-1.00719 -1.1011,-2.56482 0,-0.91349 0.40998,-1.66303 0.4217,-0.76125 1.08936,-1.218 0.67941,-0.45674 1.52278,-0.69097 0.62082,-0.16396 1.87418,-0.31621 2.55358,-0.3045 3.7601,-0.72612 0.0116,-0.43332 0.0116,-0.55043 0,-1.28827 -0.59741,-1.81529 -0.80824,-0.7144 -2.40128,-0.7144 -1.48765,0 -2.20216,0.52702 -0.70284,0.5153 -1.04252,1.8387 l -2.0616,-0.28107 q 0.28111,-1.3234 0.92537,-2.13149 0.64425,-0.81981 1.86248,-1.25313 1.2182,-0.44504 2.82298,-0.44504 1.59306,0 2.58871,0.37477 0.99565,0.37476 1.4642,0.94863 0.46854,0.56215 0.65597,1.4288 0.10543,0.53873 0.10543,1.94411 v 2.81076 q 0,2.93958 0.12884,3.72425 0.14056,0.77296 0.53882,1.48736 h -2.20216 q -0.32799,-0.65585 -0.42167,-1.53421 z m -0.17571,-4.70801 q -1.14796,0.46845 -3.44383,0.79638 -1.3002,0.18738 -1.83903,0.42161 -0.53882,0.23423 -0.83168,0.69098 -0.29283,0.44503 -0.29283,0.99547 0,0.84323 0.63254,1.40538 0.64425,0.56216 1.87417,0.56216 1.21823,0 2.16704,-0.52702 0.9488,-0.53873 1.39391,-1.46394 0.33971,-0.7144 0.33971,-2.10807 z m 5.39997,6.24222 v -12.4376 h 1.89761 v 1.76843 q 1.37051,-2.04951 3.95922,-2.04951 1.12451,0 2.0616,0.4099 0.94881,0.39819 1.41735,1.05404 0.46854,0.65584 0.65597,1.55762 0.11712,0.58558 0.11712,2.04952 v 7.6476 h -2.10844 v -7.56562 q 0,-1.28827 -0.24599,-1.92069 -0.24599,-0.64413 -0.87853,-1.0189 -0.62082,-0.38648 -1.46419,-0.38648 -1.34707,0 -2.33103,0.85494 -0.97222,0.85494 -0.97222,3.24408 v 6.79267 z m 21.45939,-4.55577 2.07332,0.26936 q -0.3397,2.14321 -1.74533,3.3612 -1.39392,1.20629 -3.43209,1.20629 -2.55358,0 -4.11149,-1.66303 -1.54622,-1.67475 -1.54622,-4.79001 0,-2.01437 0.66769,-3.52516 0.66769,-1.51078 2.02646,-2.26031 1.3705,-0.76125 2.97528,-0.76125 2.02645,0 3.31496,1.03061 1.28848,1.0189 1.65162,2.90445 l -2.04988,0.31621 q -0.29286,-1.25313 -1.04252,-1.88555 -0.73797,-0.63242 -1.79218,-0.63242 -1.59306,0 -2.58874,1.14773 -0.99565,1.13601 -0.99565,3.60714 0,2.50625 0.96052,3.64227 0.96053,1.13601 2.50672,1.13601 1.24164,0 2.07332,-0.76124 0.83165,-0.76125 1.05421,-2.3423 z m 12.39306,0.55044 2.17873,0.26936 q -0.51539,1.90898 -1.90933,2.96301 -1.39392,1.05404 -3.56095,1.05404 -2.72927,0 -4.33405,-1.67475 -1.59306,-1.68645 -1.59306,-4.71973 0,-3.13868 1.6165,-4.87198 1.61647,-1.7333 4.19348,-1.7333 2.495,0 4.07634,1.69817 1.58135,1.69816 1.58135,4.77829 0,0.18738 -0.0116,0.56215 h -9.2772 q 0.11713,2.04951 1.15965,3.13867 1.04252,1.08917 2.60042,1.08917 1.15967,0 1.97961,-0.60899 0.81997,-0.609 1.30023,-1.94411 z m -6.92278,-3.40804 h 6.94619 q -0.14056,-1.56934 -0.79653,-2.35402 -1.00737,-1.21799 -2.61212,-1.21799 -1.4525,0 -2.44815,0.97206 -0.98396,0.97205 -1.08939,2.59995 z m 18.91755,7.41337 v -10.798 h -1.86249 v -1.6396 h 1.86249 v -1.3234 q 0,-1.25313 0.22255,-1.86213 0.30455,-0.81981 1.06593,-1.3234 0.7731,-0.5153 2.15532,-0.5153 0.89024,0 1.96789,0.2108 l -0.31627,1.83871 q -0.65597,-0.11712 -1.24164,-0.11712 -0.96052,0 -1.35879,0.4099 -0.39826,0.40991 -0.39826,1.53421 v 1.14773 h 2.42472 v 1.6396 h -2.42472 v 10.798 z m 6.17307,-14.74477 v -2.42428 h 2.10845 v 2.42428 z m 0,14.74477 v -12.4376 h 2.10845 v 12.4376 z m 13.83382,-4.00533 2.17875,0.26936 q -0.51541,1.90898 -1.90933,2.96301 -1.39394,1.05404 -3.56095,1.05404 -2.72927,0 -4.33404,-1.67475 -1.59306,-1.68645 -1.59306,-4.71973 0,-3.13868 1.61649,-4.87198 1.61647,-1.7333 4.19346,-1.7333 2.49502,0 4.07637,1.69817 1.58134,1.69816 1.58134,4.77829 0,0.18738 -0.0116,0.56215 h -9.27722 q 0.11715,2.04951 1.15967,3.13867 1.04252,1.08917 2.60043,1.08917 1.15964,0 1.97961,-0.60899 0.81993,-0.609 1.3002,-1.94411 z m -6.92276,-3.40804 h 6.94619 q -0.14056,-1.56934 -0.79653,-2.35402 -1.00737,-1.21799 -2.61214,-1.21799 -1.45248,0 -2.44815,0.97206 -0.98394,0.97205 -1.08937,2.59995 z m 11.70194,7.41337 v -17.16905 h 2.10845 v 17.16905 z m 13.44727,0 v -1.56934 q -1.18308,1.85042 -3.47896,1.85042 -1.48762,0 -2.74101,-0.81981 -1.24164,-0.8198 -1.93273,-2.28374 -0.67939,-1.47565 -0.67939,-3.38462 0,-1.86213 0.62082,-3.37291 0.62082,-1.52249 1.86246,-2.33059 1.24164,-0.80809 2.77614,-0.80809 1.12452,0 2.00304,0.48017 0.8785,0.46846 1.42904,1.22971 v -6.16025 h 2.09676 v 17.16905 z m -6.66508,-6.20709 q 0,2.38914 1.00737,3.572 1.00739,1.18286 2.37787,1.18286 1.38223,0 2.34275,-1.1243 0.97221,-1.13601 0.97221,-3.45489 0,-2.5531 -0.98393,-3.74768 -0.98396,-1.19457 -2.42474,-1.19457 -1.40563,0 -2.35444,1.14773 -0.93709,1.14772 -0.93709,3.61885 z m 11.09284,2.49455 2.08501,-0.32793 q 0.17571,1.25314 0.97224,1.92069 0.80825,0.66755 2.24901,0.66755 1.4525,0 2.15532,-0.58557 0.70281,-0.59729 0.70281,-1.39367 0,-0.7144 -0.62082,-1.1243 -0.43342,-0.28108 -2.15532,-0.7144 -2.31928,-0.58557 -3.22124,-1.00719 -0.89025,-0.43332 -1.35879,-1.18286 -0.45683,-0.76125 -0.45683,-1.67474 0,-0.83152 0.37483,-1.53421 0.38655,-0.7144 1.04252,-1.18286 0.49198,-0.36305 1.33536,-0.609 0.85509,-0.25765 1.82733,-0.25765 1.46422,0 2.5653,0.42161 1.11277,0.42162 1.6399,1.14773 0.52711,0.7144 0.72625,1.92068 l -2.0616,0.28108 q -0.14058,-0.96034 -0.81997,-1.49907 -0.66766,-0.53873 -1.89761,-0.53873 -1.45247,0 -2.07332,0.48017 -0.62082,0.48017 -0.62082,1.1243 0,0.40991 0.25771,0.73783 0.25771,0.33963 0.80825,0.56215 0.31627,0.11712 1.86246,0.53873 2.23731,0.59729 3.11584,0.98377 0.89021,0.37476 1.39391,1.10087 0.5037,0.72612 0.5037,1.80358 0,1.05403 -0.62082,1.99095 -0.60913,0.92521 -1.76877,1.44051 -1.15964,0.5036 -2.62386,0.5036 -2.42472,0 -3.70151,-1.00719 -1.26508,-1.00719 -1.61647,-2.98643 z"
     id="text5"
     style="font-size:90.696px;font-family:Arial;-inkscape-font-specification:'Arial, Normal';text-align:center;text-anchor:middle;fill:#d0b0b0;stroke-width:0.265607;stroke-linecap:round"
     aria-label="Do not declare visible instance fields" /></svg>
