<?xml version="1.0" encoding="UTF-8" standalone="no"?>
<!-- Created with Inkscape (http://www.inkscape.org/) -->

<svg
   width="1620mm"
   height="1000mm"
   viewBox="0 0 1620 1000"
   version="1.1"
   id="svg1"
   xml:space="preserve"
   inkscape:version="1.4.2 (f4327f4, 2025-05-13)"
   sodipodi:docname="ca1051.svg"
   xmlns:inkscape="http://www.inkscape.org/namespaces/inkscape"
   xmlns:sodipodi="http://sodipodi.sourceforge.net/DTD/sodipodi-0.dtd"
   xmlns="http://www.w3.org/2000/svg"
   xmlns:svg="http://www.w3.org/2000/svg"><sodipodi:namedview
     id="namedview1"
     pagecolor="#ffffff"
     bordercolor="#000000"
     borderopacity="0.25"
     inkscape:showpageshadow="2"
     inkscape:pageopacity="0.0"
     inkscape:pagecheckerboard="0"
     inkscape:deskcolor="#d1d1d1"
     inkscape:document-units="mm"
     inkscape:zoom="0.12995318"
     inkscape:cx="2893.3498"
     inkscape:cy="3154.9825"
     inkscape:window-width="1582"
     inkscape:window-height="1094"
     inkscape:window-x="920"
     inkscape:window-y="229"
     inkscape:window-maximized="0"
     inkscape:current-layer="svg1" /><defs
     id="defs1" /><rect
     style="fill:#4f2f2f;fill-opacity:1;stroke:#000000;stroke-width:0.480185;stroke-linecap:round;-inkscape-stroke:none"
     id="rect5"
     width="1620"
     height="1000"
     x="3.5527137e-15"
     y="-7.8159701e-14" /><path
     d="m 446.86769,425.23534 28.21857,7.12737 q -8.87285,34.76411 -32.00044,53.09164 -22.98213,18.18206 -56.29168,18.18206 -34.4732,0 -56.14622,-13.96382 -21.52757,-14.10929 -32.87318,-40.72783 -11.20015,-26.61855 -11.20015,-57.16442 0,-33.30955 12.65472,-58.03716 12.80017,-24.87307 36.21868,-37.67325 23.56395,-12.94563 51.78252,-12.94563 32.00044,0 53.81892,16.29113 21.81848,16.29114 30.40042,45.81881 l -27.7822,6.54555 q -7.41828,-23.27305 -21.52757,-33.89138 -14.10928,-10.61832 -35.49139,-10.61832 -24.58216,0 -41.1642,11.78198 -16.43659,11.78198 -23.12759,31.70952 -6.691,19.78209 -6.691,40.87329 0,27.20037 7.85465,47.56429 8.00011,20.21846 24.72761,30.25496 16.7275,10.0365 36.21868,10.0365 23.70941,0 40.146,-13.67292 16.43659,-13.67291 22.25485,-40.58237 z M 486.43187,500 568.3239,286.76072 h 30.40042 L 685.99824,500 H 653.85235 L 628.97928,435.4173 H 539.81442 L 516.39592,500 Z m 61.52812,-87.56484 h 72.2919 l -22.25486,-59.05535 q -10.18195,-26.90946 -15.12748,-44.21879 -4.07278,20.50937 -11.49106,40.72783 z M 796.54521,500 H 770.36304 V 333.16135 q -9.45468,9.01831 -24.87307,18.03661 -15.27294,9.01831 -27.49129,13.52746 v -25.30944 q 21.96394,-10.32741 38.40053,-25.01852 16.43659,-14.69111 23.27304,-28.50948 h 16.87296 z m 67.05546,-105.16508 q 0,-37.8187 7.70919,-60.80083 7.85466,-23.12759 23.12759,-35.63685 15.4184,-12.50926 38.69144,-12.50926 17.16387,0 30.10951,6.98191 12.94563,6.83646 21.38211,19.92755 8.43648,12.94563 13.23654,31.70952 4.80005,18.61844 4.80005,50.32796 0,37.52779 -7.70918,60.65538 -7.7092,22.98213 -23.12759,35.63685 -15.27293,12.50926 -38.69144,12.50926 -30.83678,0 -48.43702,-22.10939 -21.0912,-26.61855 -21.0912,-86.6921 z m 26.90946,0 q 0,52.50981 12.21835,69.9646 12.3638,17.30933 30.40041,17.30933 18.03661,0 30.25496,-17.45479 12.36381,-17.45478 12.36381,-69.81914 0,-52.65526 -12.36381,-69.96459 Q 951.1655,307.561 932.83798,307.561 q -18.03661,0 -28.80039,15.27294 -13.52746,19.49117 -13.52746,72.00098 z m 138.76557,49.30977 27.4912,-2.32731 q 3.0546,20.07301 14.1093,30.25496 11.2002,10.03651 26.9095,10.03651 18.9093,0 32.0004,-14.25474 13.0911,-14.25475 13.0911,-37.8187 0,-22.40031 -12.6547,-35.34594 -12.5093,-12.94564 -32.8732,-12.94564 -12.6547,0 -22.8367,5.81827 -10.1819,5.6728 -16.0002,14.83656 l -24.5821,-3.20004 20.6548,-109.52877 h 106.0378 v 25.01852 h -85.0921 l -11.491,57.30988 q 19.2002,-13.382 40.2914,-13.382 27.9277,0 47.1279,19.34571 19.2003,19.34572 19.2003,49.74614 0,28.94585 -16.8729,50.03705 -20.5094,25.89126 -56.0008,25.89126 -29.0913,0 -47.5643,-16.29113 -18.3275,-16.29113 -20.9457,-43.20059 z M 1293.5702,500 h -26.1821 V 333.16135 q -9.4547,9.01831 -24.8731,18.03661 -15.2729,9.01831 -27.4913,13.52746 v -25.30944 q 21.9639,-10.32741 38.4005,-25.01852 16.4366,-14.69111 23.2731,-28.50948 h 16.8729 z"
     id="text4"
     style="font-size:297.895px;font-family:Arial;-inkscape-font-specification:'Arial, Normal';text-align:center;text-anchor:middle;fill:#d0b0b0;stroke:#d0b0b0;stroke-width:10;stroke-linecap:round"
     aria-label="CA1051" /><path
     d="M 86.298846,637.39703 V 572.475 h 22.364004 q 7.57276,0 11.55843,0.92998 5.57992,1.28427 9.5213,4.64994 5.13708,4.33995 7.66134,11.11558 2.56853,6.73134 2.56853,15.41123 0,7.39562 -1.72712,13.10841 -1.72712,5.71278 -4.42851,9.47702 -2.7014,3.71996 -5.93421,5.88993 -3.18853,2.12569 -7.74991,3.23281 -4.51708,1.10713 -10.40701,1.10713 z m 8.59132,-7.66133 h 13.861254 q 6.42135,0 10.05273,-1.1957 3.67567,-1.1957 5.84564,-3.36567 3.05568,-3.05568 4.73851,-8.19275 1.72712,-5.18137 1.72712,-12.5327 0,-10.18559 -3.36567,-15.63266 -3.32139,-5.49136 -8.10418,-7.35134 -3.45424,-1.32855 -11.11558,-1.32855 H 94.890166 Z m 52.920754,-15.85408 q 0,-13.06413 7.26277,-19.35262 6.06707,-5.22565 14.79124,-5.22565 9.69845,0 15.85409,6.37707 6.15563,6.33277 6.15563,17.53692 0,9.07846 -2.74568,14.3041 -2.70139,5.18137 -7.92704,8.0599 -5.18136,2.87854 -11.337,2.87854 -9.87559,0 -15.98694,-6.33278 -6.06707,-6.33278 -6.06707,-18.24548 z m 8.19276,0 q 0,9.03417 3.94138,13.55125 3.94137,4.4728 9.91987,4.4728 5.93421,0 9.87559,-4.51708 3.94138,-4.51709 3.94138,-13.77268 0,-8.72418 -3.98566,-13.19698 -3.94138,-4.51709 -9.83131,-4.51709 -5.9785,0 -9.91987,4.4728 -3.94138,4.4728 -3.94138,13.50698 z m 70.41339,23.51541 V 590.3662 h 7.17419 v 6.68706 q 5.18137,-7.74991 14.96838,-7.74991 4.25138,0 7.79419,1.54998 3.5871,1.5057 5.35851,3.98567 1.7714,2.47997 2.47996,5.88992 0.44286,2.21426 0.44286,7.74991 v 28.9182 h -7.97133 v -28.60821 q 0,-4.87136 -0.92999,-7.26276 -0.92999,-2.43569 -3.32139,-3.85281 -2.34711,-1.46141 -5.53564,-1.46141 -5.09279,0 -8.81275,3.23282 -3.67567,3.23281 -3.67567,12.26698 v 25.68539 z m 47.47369,-23.51541 q 0,-13.06413 7.26276,-19.35262 6.06707,-5.22565 14.79124,-5.22565 9.69845,0 15.85409,6.37707 6.15564,6.33277 6.15564,17.53692 0,9.07846 -2.74568,14.3041 -2.7014,5.18137 -7.92705,8.0599 -5.18136,2.87854 -11.337,2.87854 -9.87558,0 -15.98694,-6.33278 -6.06706,-6.33278 -6.06706,-18.24548 z m 8.19275,0 q 0,9.03417 3.94138,13.55125 3.94138,4.4728 9.91987,4.4728 5.93422,0 9.87559,-4.51708 3.94138,-4.51709 3.94138,-13.77268 0,-8.72418 -3.98566,-13.19698 -3.94138,-4.51709 -9.83131,-4.51709 -5.97849,0 -9.91987,4.4728 -3.94138,4.4728 -3.94138,13.50698 z m 62.61921,16.3855 1.15142,7.04134 q -3.36567,0.70857 -6.02278,0.70857 -4.33995,0 -6.73135,-1.37284 -2.39139,-1.37284 -3.36567,-3.5871 -0.97427,-2.25854 -0.97427,-9.43274 v -27.05823 h -5.84564 v -6.19992 h 5.84564 v -11.647 l 7.92704,-4.78279 v 16.42979 h 8.01561 v 6.19992 h -8.01561 v 27.50108 q 0,3.40996 0.39857,4.38423 0.44285,0.97428 1.37284,1.54998 0.97427,0.57571 2.74568,0.57571 1.32855,0 3.49852,-0.31 z m 63.50493,7.12991 v -5.93421 q -4.4728,6.99706 -13.1527,6.99706 -5.62421,0 -10.36272,-3.09996 -4.69423,-3.09996 -7.30705,-8.63561 -2.56854,-5.57993 -2.56854,-12.79841 0,-7.04134 2.34711,-12.75412 2.34711,-5.75707 7.04134,-8.81275 4.69423,-3.05568 10.49558,-3.05568 4.25138,0 7.57277,1.8157 3.32138,1.7714 5.40278,4.64994 V 572.475 h 7.92705 v 64.92203 z M 383.00939,613.9259 q 0,9.03417 3.80853,13.50697 3.80852,4.4728 8.98988,4.4728 5.22565,0 8.85703,-4.25137 3.67567,-4.29566 3.67567,-13.06412 0,-9.65417 -3.71995,-14.17125 -3.71995,-4.51709 -9.16703,-4.51709 -5.31422,0 -8.90132,4.33995 -3.54281,4.33994 -3.54281,13.68411 z m 77.32189,8.32561 8.23704,1.01856 q -1.94855,7.21848 -7.21848,11.20414 -5.26994,3.98567 -13.46269,3.98567 -10.31844,0 -16.38551,-6.33278 -6.02278,-6.37706 -6.02278,-17.84692 0,-11.86842 6.11135,-18.42262 6.11135,-6.55421 15.85409,-6.55421 9.43274,0 15.41123,6.42135 5.9785,6.42135 5.9785,18.06835 0,0.70856 -0.0443,2.12568 H 433.7159 q 0.44285,7.74991 4.38423,11.86842 3.94138,4.11852 9.8313,4.11852 4.38423,0 7.4842,-2.30282 3.09996,-2.30283 4.91565,-7.35134 z m -26.17253,-12.88698 h 26.2611 q -0.53142,-5.93421 -3.01139,-8.90132 -3.80853,-4.60565 -9.87559,-4.60565 -5.49136,0 -9.2556,3.67567 -3.71995,3.67566 -4.11852,9.8313 z m 75.1076,10.80558 7.83847,1.01856 q -1.28427,8.10418 -6.59849,12.70984 -5.26993,4.56137 -12.97555,4.56137 -9.65416,0 -15.54409,-6.28849 -5.84564,-6.33278 -5.84564,-18.11263 0,-7.61705 2.52426,-13.32984 2.52425,-5.71278 7.66133,-8.54703 5.18136,-2.87854 11.24843,-2.87854 7.66133,0 12.5327,3.8971 4.87136,3.85281 6.2442,10.98272 l -7.7499,1.1957 q -1.10713,-4.73852 -3.94138,-7.12991 -2.78996,-2.3914 -6.77563,-2.3914 -6.02278,0 -9.78702,4.33994 -3.76423,4.29566 -3.76423,13.63983 0,9.47702 3.63138,13.77268 3.63138,4.29566 9.47702,4.29566 4.69423,0 7.83847,-2.87853 3.14425,-2.87854 3.98567,-8.85703 z m 14.48127,17.22692 V 572.475 h 7.97132 v 64.92203 z m 51.0165,-5.80135 q -4.42852,3.76424 -8.54703,5.31422 -4.07424,1.54998 -8.76847,1.54998 -7.7499,0 -11.9127,-3.76424 -4.16281,-3.80852 -4.16281,-9.69845 0,-3.45424 1.54998,-6.28849 1.59427,-2.87854 4.11852,-4.60566 2.56854,-1.72712 5.75707,-2.61282 2.34712,-0.61999 7.08563,-1.1957 9.65416,-1.15142 14.21553,-2.74568 0.0443,-1.63855 0.0443,-2.0814 0,-4.87137 -2.25855,-6.8642 -3.05567,-2.7014 -9.07845,-2.7014 -5.62422,0 -8.32561,1.99283 -2.65711,1.94855 -3.94138,6.95277 l -7.79419,-1.06284 q 1.06285,-5.00422 3.49853,-8.0599 2.43568,-3.09996 7.04134,-4.73851 4.60566,-1.68284 10.67272,-1.68284 6.02278,0 9.78702,1.41713 3.76424,1.41712 5.53565,3.5871 1.7714,2.12568 2.47996,5.40279 0.39857,2.03711 0.39857,7.35133 v 10.62844 q 0,11.11557 0.48714,14.08268 0.53142,2.92282 2.03711,5.62421 h -8.3256 q -1.23999,-2.47997 -1.59427,-5.80135 z m -0.66428,-17.80263 q -4.33994,1.7714 -13.01983,3.01139 -4.91566,0.70856 -6.95277,1.59426 -2.03712,0.8857 -3.14425,2.61283 -1.10713,1.68283 -1.10713,3.76423 0,3.18854 2.3914,5.31422 2.43568,2.12569 7.08563,2.12569 4.60565,0 8.19275,-1.99283 3.5871,-2.03712 5.26993,-5.53565 1.28427,-2.70139 1.28427,-7.97132 z m 20.32686,23.60398 V 590.3662 h 7.1742 v 7.12991 q 2.74568,-5.00422 5.04851,-6.59849 2.34711,-1.59427 5.13707,-1.59427 4.02995,0 8.19276,2.56854 l -2.74568,7.39562 q -2.92282,-1.72712 -5.84564,-1.72712 -2.61283,0 -4.69423,1.59427 -2.0814,1.54998 -2.96711,4.33994 -1.32855,4.25138 -1.32855,9.29989 v 24.62254 z m 62.4864,-15.14552 8.23703,1.01856 q -1.94854,7.21848 -7.21848,11.20414 -5.26993,3.98567 -13.46268,3.98567 -10.31844,0 -16.38551,-6.33278 -6.02278,-6.37706 -6.02278,-17.84692 0,-11.86842 6.11135,-18.42262 6.11135,-6.55421 15.85409,-6.55421 9.43273,0 15.41123,6.42135 5.9785,6.42135 5.9785,18.06835 0,0.70856 -0.0443,2.12568 h -35.07384 q 0.44285,7.74991 4.38423,11.86842 3.94138,4.11852 9.8313,4.11852 4.38423,0 7.48419,-2.30282 3.09996,-2.30283 4.91566,-7.35134 z m -26.17253,-12.88698 h 26.2611 q -0.53143,-5.93421 -3.01139,-8.90132 -3.80853,-4.60565 -9.87559,-4.60565 -5.49136,0 -9.2556,3.67567 -3.71996,3.67566 -4.11852,9.8313 z m 82.68038,28.0325 -17.89121,-47.03083 h 8.41418 l 10.09702,28.16536 q 1.63855,4.56137 3.01139,9.47702 1.06284,-3.71995 2.9671,-8.9456 l 10.4513,-28.69678 h 8.19276 l -17.80264,47.03083 z m 32.32812,-55.75501 V 572.475 h 7.97133 v 9.16702 z m 0,55.75501 V 590.3662 h 7.97133 v 47.03083 z m 16.91697,-14.03839 7.88275,-1.23999 q 0.66428,4.73852 3.67567,7.26277 3.05568,2.52425 8.50275,2.52425 5.49136,0 8.14847,-2.21425 2.65711,-2.25855 2.65711,-5.26994 0,-2.70139 -2.34711,-4.25137 -1.63855,-1.06285 -8.14847,-2.7014 -8.76846,-2.21425 -12.17842,-3.80852 -3.36567,-1.63855 -5.13708,-4.4728 -1.72712,-2.87854 -1.72712,-6.33278 0,-3.14424 1.41713,-5.80135 1.46141,-2.7014 3.94137,-4.4728 1.85998,-1.37284 5.04851,-2.30283 3.23282,-0.97428 6.90849,-0.97428 5.53564,0 9.69845,1.59427 4.20709,1.59427 6.19992,4.33995 1.99283,2.70139 2.74568,7.26276 l -7.79419,1.06284 q -0.53142,-3.63138 -3.09996,-5.6685 -2.52426,-2.03711 -7.1742,-2.03711 -5.49136,0 -7.83847,1.81569 -2.34711,1.81569 -2.34711,4.25137 0,1.54998 0.97427,2.78997 0.97427,1.28427 3.05568,2.12569 1.1957,0.44285 7.04134,2.03711 8.45846,2.25855 11.77985,3.71996 3.36567,1.41712 5.26993,4.1628 1.90426,2.74568 1.90426,6.81992 0,3.98566 -2.34711,7.52847 -2.30283,3.49853 -6.68706,5.44708 -4.38423,1.90426 -9.91987,1.90426 -9.16703,0 -13.99411,-3.80853 -4.7828,-3.80852 -6.11135,-11.29271 z m 48.58077,-41.71662 V 572.475 h 7.97133 v 9.16702 z m 0,55.75501 V 590.3662 h 7.97133 v 47.03083 z m 27.45683,0 h -7.39562 V 572.475 h 7.97133 v 23.16113 q 5.04851,-6.33278 12.88698,-6.33278 4.33995,0 8.19276,1.77141 3.89709,1.72712 6.37706,4.91565 2.52425,3.14425 3.94138,7.61705 1.41712,4.4728 1.41712,9.56559 0,12.08985 -5.97849,18.68834 -5.9785,6.59849 -14.34839,6.59849 -8.32561,0 -13.06413,-6.95277 z m -0.0886,-23.8697 q 0,8.45847 2.30283,12.22271 3.76424,6.15563 10.18559,6.15563 5.22565,0 9.03417,-4.51708 3.80852,-4.56137 3.80852,-13.55126 0,-9.21131 -3.67566,-13.59554 -3.63139,-4.38423 -8.81275,-4.38423 -5.22565,0 -9.03417,4.56137 -3.80853,4.51708 -3.80853,13.1084 z m 43.00089,23.8697 V 572.475 h 7.97133 v 64.92203 z m 52.52217,-15.14552 8.23704,1.01856 q -1.94855,7.21848 -7.21848,11.20414 -5.26993,3.98567 -13.46269,3.98567 -10.31844,0 -16.3855,-6.33278 -6.02279,-6.37706 -6.02279,-17.84692 0,-11.86842 6.11136,-18.42262 6.11135,-6.55421 15.85408,-6.55421 9.43274,0 15.41124,6.42135 5.97849,6.42135 5.97849,18.06835 0,0.70856 -0.0443,2.12568 h -35.07385 q 0.44285,7.74991 4.38423,11.86842 3.94138,4.11852 9.83131,4.11852 4.38423,0 7.48419,-2.30282 3.09996,-2.30283 4.91565,-7.35134 z M 907.9656,609.36453 h 26.2611 q -0.53142,-5.93421 -3.01139,-8.90132 -3.80852,-4.60565 -9.87559,-4.60565 -5.49136,0 -9.2556,3.67567 -3.71995,3.67566 -4.11852,9.8313 z m 69.66055,-27.72251 V 572.475 h 7.97133 v 9.16702 z m 0,55.75501 V 590.3662 h 7.97133 v 47.03083 z m 20.10549,0 V 590.3662 h 7.17416 v 6.68706 q 5.1814,-7.74991 14.9684,-7.74991 4.2514,0 7.7942,1.54998 3.5871,1.5057 5.3585,3.98567 1.7714,2.47997 2.48,5.88992 0.4428,2.21426 0.4428,7.74991 v 28.9182 h -7.9713 v -28.60821 q 0,-4.87136 -0.93,-7.26276 -0.93,-2.43569 -3.3214,-3.85281 -2.3471,-1.46141 -5.5356,-1.46141 -5.0928,0 -8.8128,3.23282 -3.6756,3.23281 -3.6756,12.26698 v 25.68539 z m 47.25226,-14.03839 7.8828,-1.23999 q 0.6642,4.73852 3.6756,7.26277 3.0557,2.52425 8.5028,2.52425 5.4913,0 8.1485,-2.21425 2.6571,-2.25855 2.6571,-5.26994 0,-2.70139 -2.3472,-4.25137 -1.6385,-1.06285 -8.1484,-2.7014 -8.7685,-2.21425 -12.1784,-3.80852 -3.3657,-1.63855 -5.1371,-4.4728 -1.7271,-2.87854 -1.7271,-6.33278 0,-3.14424 1.4171,-5.80135 1.4614,-2.7014 3.9414,-4.4728 1.8599,-1.37284 5.0485,-2.30283 3.2328,-0.97428 6.9085,-0.97428 5.5356,0 9.6984,1.59427 4.2071,1.59427 6.1999,4.33995 1.9929,2.70139 2.7457,7.26276 l -7.7942,1.06284 q -0.5314,-3.63138 -3.0999,-5.6685 -2.5243,-2.03711 -7.1742,-2.03711 -5.4914,0 -7.8385,1.81569 -2.3471,1.81569 -2.3471,4.25137 0,1.54998 0.9743,2.78997 0.9742,1.28427 3.0556,2.12569 1.1957,0.44285 7.0414,2.03711 8.4584,2.25855 11.7798,3.71996 3.3657,1.41712 5.27,4.1628 1.9042,2.74568 1.9042,6.81992 0,3.98566 -2.3471,7.52847 -2.3028,3.49853 -6.6871,5.44708 -4.3842,1.90426 -9.9198,1.90426 -9.1671,0 -13.9941,-3.80853 -4.7828,-3.80852 -6.1114,-11.29271 z m 65.9406,6.90848 1.1514,7.04134 q -3.3657,0.70857 -6.0228,0.70857 -4.3399,0 -6.7313,-1.37284 -2.3914,-1.37284 -3.3657,-3.5871 -0.9743,-2.25854 -0.9743,-9.43274 v -27.05823 h -5.8456 v -6.19992 h 5.8456 v -11.647 l 7.9271,-4.78279 v 16.42979 h 8.0156 v 6.19992 h -8.0156 v 27.50108 q 0,3.40996 0.3985,4.38423 0.4429,0.97428 1.3729,1.54998 0.9742,0.57571 2.7456,0.57571 1.3286,0 3.4986,-0.31 z m 38.4838,1.32856 q -4.4286,3.76424 -8.5471,5.31422 -4.0742,1.54998 -8.7684,1.54998 -7.7499,0 -11.9127,-3.76424 -4.1629,-3.80852 -4.1629,-9.69845 0,-3.45424 1.55,-6.28849 1.5943,-2.87854 4.1185,-4.60566 2.5686,-1.72712 5.7571,-2.61282 2.3471,-0.61999 7.0856,-1.1957 9.6542,-1.15142 14.2156,-2.74568 0.044,-1.63855 0.044,-2.0814 0,-4.87137 -2.2586,-6.8642 -3.0557,-2.7014 -9.0784,-2.7014 -5.6243,0 -8.3256,1.99283 -2.6572,1.94855 -3.9414,6.95277 l -7.7942,-1.06284 q 1.0628,-5.00422 3.4985,-8.0599 2.4357,-3.09996 7.0414,-4.73851 4.6056,-1.68284 10.6727,-1.68284 6.0228,0 9.787,1.41713 3.7642,1.41712 5.5356,3.5871 1.7714,2.12568 2.48,5.40279 0.3986,2.03711 0.3986,7.35133 v 10.62844 q 0,11.11557 0.4871,14.08268 0.5314,2.92282 2.0371,5.62421 h -8.3256 q -1.24,-2.47997 -1.5942,-5.80135 z m -0.6643,-17.80263 q -4.34,1.7714 -13.0199,3.01139 -4.9156,0.70856 -6.9527,1.59426 -2.0371,0.8857 -3.1443,2.61283 -1.1071,1.68283 -1.1071,3.76423 0,3.18854 2.3914,5.31422 2.4357,2.12569 7.0856,2.12569 4.6057,0 8.1928,-1.99283 3.5871,-2.03712 5.2699,-5.53565 1.2843,-2.70139 1.2843,-7.97132 z m 20.4154,23.60398 V 590.3662 h 7.1742 v 6.68706 q 5.1814,-7.74991 14.9684,-7.74991 4.2514,0 7.7942,1.54998 3.5871,1.5057 5.3585,3.98567 1.7714,2.47997 2.48,5.88992 0.4428,2.21426 0.4428,7.74991 v 28.9182 h -7.9713 v -28.60821 q 0,-4.87136 -0.93,-7.26276 -0.93,-2.43569 -3.3214,-3.85281 -2.3471,-1.46141 -5.5356,-1.46141 -5.0928,0 -8.8128,3.23282 -3.6756,3.23281 -3.6756,12.26698 v 25.68539 z m 81.1304,-17.22692 7.8385,1.01856 q -1.2843,8.10418 -6.5985,12.70984 -5.2699,4.56137 -12.9755,4.56137 -9.6542,0 -15.5441,-6.28849 -5.8457,-6.33278 -5.8457,-18.11263 0,-7.61705 2.5243,-13.32984 2.5243,-5.71278 7.6613,-8.54703 5.1814,-2.87854 11.2485,-2.87854 7.6613,0 12.5327,3.8971 4.8713,3.85281 6.2442,10.98272 l -7.7499,1.1957 q -1.1072,-4.73852 -3.9414,-7.12991 -2.79,-2.3914 -6.7756,-2.3914 -6.0228,0 -9.7871,4.33994 -3.7642,4.29566 -3.7642,13.63983 0,9.47702 3.6314,13.77268 3.6314,4.29566 9.477,4.29566 4.6942,0 7.8385,-2.87853 3.1442,-2.87854 3.9856,-8.85703 z m 46.8538,2.0814 8.237,1.01856 q -1.9485,7.21848 -7.2185,11.20414 -5.2699,3.98567 -13.4627,3.98567 -10.3184,0 -16.3855,-6.33278 -6.0228,-6.37706 -6.0228,-17.84692 0,-11.86842 6.1114,-18.42262 6.1113,-6.55421 15.8541,-6.55421 9.4327,0 15.4112,6.42135 5.9785,6.42135 5.9785,18.06835 0,0.70856 -0.044,2.12568 h -35.0738 q 0.4428,7.74991 4.3842,11.86842 3.9414,4.11852 9.8313,4.11852 4.3843,0 7.4842,-2.30282 3.1,-2.30283 4.9157,-7.35134 z m -26.1726,-12.88698 h 26.2611 q -0.5314,-5.93421 -3.0114,-8.90132 -3.8085,-4.60565 -9.8755,-4.60565 -5.4914,0 -9.2556,3.67567 -3.72,3.67566 -4.1186,9.8313 z m 71.5206,28.0325 v -40.83091 h -7.0414 v -6.19992 h 7.0414 v -5.00422 q 0,-4.73852 0.8414,-7.04134 1.1514,-3.09997 4.0299,-5.00423 2.9228,-1.94854 8.1485,-1.94854 3.3657,0 7.4399,0.79713 l -1.1957,6.95277 q -2.48,-0.44285 -4.6942,-0.44285 -3.6314,0 -5.1371,1.54998 -1.5057,1.54998 -1.5057,5.80135 v 4.33995 h 9.167 v 6.19992 h -9.167 v 40.83091 z m 23.3382,-55.75501 V 572.475 h 7.9713 v 9.16702 z m 0,55.75501 V 590.3662 h 7.9713 v 47.03083 z m 52.3008,-15.14552 8.2371,1.01856 q -1.9486,7.21848 -7.2185,11.20414 -5.27,3.98567 -13.4627,3.98567 -10.3184,0 -16.3855,-6.33278 -6.0228,-6.37706 -6.0228,-17.84692 0,-11.86842 6.1114,-18.42262 6.1113,-6.55421 15.854,-6.55421 9.4328,0 15.4113,6.42135 5.9785,6.42135 5.9785,18.06835 0,0.70856 -0.044,2.12568 h -35.0739 q 0.4429,7.74991 4.3843,11.86842 3.9414,4.11852 9.8313,4.11852 4.3842,0 7.4842,-2.30282 3.0999,-2.30283 4.9156,-7.35134 z m -26.1725,-12.88698 h 26.2611 q -0.5314,-5.93421 -3.0114,-8.90132 -3.8085,-4.60565 -9.8756,-4.60565 -5.4913,0 -9.2556,3.67567 -3.7199,3.67566 -4.1185,9.8313 z m 44.2409,28.0325 V 572.475 h 7.9713 v 64.92203 z m 50.8394,0 v -5.93421 q -4.4728,6.99706 -13.1527,6.99706 -5.6242,0 -10.3628,-3.09996 -4.6942,-3.09996 -7.307,-8.63561 -2.5685,-5.57993 -2.5685,-12.79841 0,-7.04134 2.3471,-12.75412 2.3471,-5.75707 7.0413,-8.81275 4.6942,-3.05568 10.4956,-3.05568 4.2514,0 7.5728,1.8157 3.3213,1.7714 5.4027,4.64994 V 572.475 h 7.9271 v 64.92203 z m -25.1983,-23.47113 q 0,9.03417 3.8085,13.50697 3.8086,4.4728 8.9899,4.4728 5.2257,0 8.8571,-4.25137 3.6756,-4.29566 3.6756,-13.06412 0,-9.65417 -3.7199,-14.17125 -3.72,-4.51709 -9.1671,-4.51709 -5.3142,0 -8.9013,4.33995 -3.5428,4.33994 -3.5428,13.68411 z m 41.9381,9.43274 7.8827,-1.23999 q 0.6643,4.73852 3.6757,7.26277 3.0557,2.52425 8.5027,2.52425 5.4914,0 8.1485,-2.21425 2.6571,-2.25855 2.6571,-5.26994 0,-2.70139 -2.3471,-4.25137 -1.6386,-1.06285 -8.1485,-2.7014 -8.7684,-2.21425 -12.1784,-3.80852 -3.3657,-1.63855 -5.1371,-4.4728 -1.7271,-2.87854 -1.7271,-6.33278 0,-3.14424 1.4171,-5.80135 1.4614,-2.7014 3.9414,-4.4728 1.86,-1.37284 5.0485,-2.30283 3.2328,-0.97428 6.9085,-0.97428 5.5357,0 9.6985,1.59427 4.207,1.59427 6.1999,4.33995 1.9928,2.70139 2.7457,7.26276 l -7.7942,1.06284 q -0.5315,-3.63138 -3.1,-5.6685 -2.5242,-2.03711 -7.1742,-2.03711 -5.4913,0 -7.8385,1.81569 -2.3471,1.81569 -2.3471,4.25137 0,1.54998 0.9743,2.78997 0.9743,1.28427 3.0557,2.12569 1.1957,0.44285 7.0413,2.03711 8.4585,2.25855 11.7799,3.71996 3.3656,1.41712 5.2699,4.1628 1.9043,2.74568 1.9043,6.81992 0,3.98566 -2.3471,7.52847 -2.3029,3.49853 -6.6871,5.44708 -4.3842,1.90426 -9.9199,1.90426 -9.167,0 -13.9941,-3.80853 -4.7828,-3.80852 -6.1113,-11.29271 z"
     id="text5"
     style="font-size:90.696px;font-family:Arial;-inkscape-font-specification:'Arial, Normal';text-align:center;text-anchor:middle;fill:#d0b0b0;stroke-width:1.00426;stroke-linecap:round"
     aria-label="Do not declare visible instance fields" /></svg>
