<?xml version="1.0" encoding="UTF-8" standalone="no"?>
<svg
   width="1620pt"
   height="1065.0179pt"
   version="1.1"
   viewBox="0 0 1620 1065.0179"
   id="svg150"
   sodipodi:docname="quality.svg"
   inkscape:version="1.3.2 (091e20e, 2023-11-25, custom)"
   inkscape:export-filename="quality.png"
   inkscape:export-xdpi="46.079998"
   inkscape:export-ydpi="46.079998"
   xmlns:inkscape="http://www.inkscape.org/namespaces/inkscape"
   xmlns:sodipodi="http://sodipodi.sourceforge.net/DTD/sodipodi-0.dtd"
   xmlns="http://www.w3.org/2000/svg"
   xmlns:svg="http://www.w3.org/2000/svg">
  <sodipodi:namedview
     id="namedview152"
     pagecolor="#505050"
     bordercolor="#ffffff"
     borderopacity="1"
     inkscape:showpageshadow="0"
     inkscape:pageopacity="0"
     inkscape:pagecheckerboard="1"
     inkscape:deskcolor="#505050"
     inkscape:document-units="pt"
     showgrid="false"
     inkscape:zoom="0.357594"
     inkscape:cx="1412.2161"
     inkscape:cy="871.09963"
     inkscape:current-layer="svg150"
     inkscape:window-width="3840"
     inkscape:window-height="2081"
     inkscape:window-x="-9"
     inkscape:window-y="-9"
     inkscape:window-maximized="1" />
  <defs
     id="defs68">
    <symbol
       id="g"
       overflow="visible">
      <path
         d="m 18.766,-1.125 c -0.96875,0.5 -1.9805,0.875 -3.0312,1.125 -1.043,0.25781 -2.1367,0.39062 -3.2812,0.39062 -3.3984,0 -6.0898,-0.94531 -8.0781,-2.8438 -1.9922,-1.9062 -2.9844,-4.4844 -2.9844,-7.7344 0,-3.2578 0.99219,-5.8359 2.9844,-7.7344 1.9883,-1.9062 4.6797,-2.8594 8.0781,-2.8594 1.1445,0 2.2383,0.13281 3.2812,0.39062 1.0508,0.25 2.0625,0.625 3.0312,1.125 v 4.2188 c -0.98047,-0.65625 -1.9453,-1.1406 -2.8906,-1.4531 -0.94922,-0.3125 -1.9492,-0.46875 -3,-0.46875 -1.875,0 -3.3516,0.60547 -4.4219,1.8125 -1.0742,1.1992 -1.6094,2.8555 -1.6094,4.9688 0,2.1055 0.53516,3.7617 1.6094,4.9688 1.0703,1.1992 2.5469,1.7969 4.4219,1.7969 1.0508,0 2.0508,-0.14844 3,-0.45312 0.94531,-0.3125 1.9102,-0.80078 2.8906,-1.4688 z"
         id="path2" />
    </symbol>
    <symbol
       id="b"
       overflow="visible">
      <path
         d="m 13.734,-11.141 c -0.4375,-0.19531 -0.87109,-0.34375 -1.2969,-0.4375 -0.41797,-0.10156 -0.83984,-0.15625 -1.2656,-0.15625 -1.2617,0 -2.2305,0.40625 -2.9062,1.2188 -0.67969,0.80469 -1.0156,1.9531 -1.0156,3.4531 v 7.0625 H 2.3591 v -15.312 h 4.8906 v 2.5156 c 0.625,-1 1.3438,-1.7266 2.1562,-2.1875 0.82031,-0.46875 1.8008,-0.70312 2.9375,-0.70312 0.16406,0 0.34375,0.01172 0.53125,0.03125 0.19531,0.01172 0.47656,0.03906 0.84375,0.07813 z"
         id="path5" />
    </symbol>
    <symbol
       id="a"
       overflow="visible">
      <path
         d="m 17.641,-7.7031 v 1.4062 H 6.188 c 0.125,1.1484 0.53906,2.0078 1.25,2.5781 0.70703,0.57422 1.7031,0.85938 2.9844,0.85938 1.0312,0 2.082,-0.14844 3.1562,-0.45312 1.082,-0.3125 2.1914,-0.77344 3.3281,-1.3906 v 3.7656 c -1.1562,0.4375 -2.3125,0.76562 -3.4688,0.98438 -1.1562,0.22656 -2.3125,0.34375 -3.4688,0.34375 -2.7734,0 -4.9297,-0.70312 -6.4688,-2.1094 -1.5312,-1.4062 -2.2969,-3.3789 -2.2969,-5.9219 0,-2.5 0.75391,-4.4609 2.2656,-5.8906 1.5078,-1.4375 3.582,-2.1562 6.2188,-2.1562 2.4062,0 4.332,0.73047 5.7812,2.1875 1.4453,1.4492 2.1719,3.3828 2.1719,5.7969 z m -5.0312,-1.625 c 0,-0.92578 -0.27344,-1.6719 -0.8125,-2.2344 -0.54297,-0.57031 -1.25,-0.85938 -2.125,-0.85938 -0.94922,0 -1.7188,0.26562 -2.3125,0.79688 -0.5937,0.53126 -0.96484,1.2969 -1.1094,2.2969 z"
         id="path8" />
    </symbol>
    <symbol
       id="e"
       overflow="visible">
      <path
         d="m 9.2188,-6.8906 c -1.0234,0 -1.793,0.17188 -2.3125,0.51562 -0.51172,0.34375 -0.76562,0.85547 -0.76562,1.5312 0,0.625 0.20703,1.1172 0.625,1.4688 0.41406,0.34375 0.98828,0.51562 1.7188,0.51562 0.92578,0 1.7031,-0.32812 2.3281,-0.98438 0.63281,-0.66406 0.95312,-1.4922 0.95312,-2.4844 v -0.5625 z m 7.4688,-1.8438 V 0 h -4.9219 v -2.2656 c -0.65625,0.92969 -1.3984,1.6055 -2.2188,2.0312 -0.82422,0.41406 -1.8242,0.625 -3,0.625 -1.5859,0 -2.8711,-0.45703 -3.8594,-1.375 -0.99219,-0.92578 -1.4844,-2.1289 -1.4844,-3.6094 0,-1.7891 0.61328,-3.1016 1.8438,-3.9375 1.2383,-0.84375 3.1797,-1.2656 5.8281,-1.2656 h 2.8906 v -0.39062 c 0,-0.76953 -0.30859,-1.332 -0.92188,-1.6875 -0.61719,-0.36328 -1.5703,-0.54688 -2.8594,-0.54688 -1.0547,0 -2.0312,0.10547 -2.9375,0.3125 -0.89844,0.21094 -1.7305,0.52344 -2.5,0.9375 v -3.7344 c 1.0391,-0.25 2.0859,-0.44141 3.1406,-0.57812 1.0625,-0.13281 2.125,-0.20312 3.1875,-0.20312 2.7578,0 4.75,0.54688 5.9688,1.6406 1.2266,1.0859 1.8438,2.8555 1.8438,5.3125 z"
         id="path11" />
    </symbol>
    <symbol
       id="d"
       overflow="visible">
      <path
         d="m 7.7031,-19.656 v 4.3438 H 12.75 v 3.5 H 7.7031 v 6.5 c 0,0.71094 0.14062,1.1875 0.42188,1.4375 0.28126,0.25 0.83594,0.375 1.6719,0.375 h 2.5156 v 3.5 h -4.1875 c -1.9375,0 -3.3125,-0.39844 -4.125,-1.2031 -0.80469,-0.8125 -1.2031,-2.1797 -1.2031,-4.1094 v -6.5 h -2.4219 v -3.5 h 2.4219 v -4.3438 z"
         id="path14" />
    </symbol>
    <symbol
       id="k"
       overflow="visible">
      <path
         d="m 12.766,-13.078 v -8.2031 h 4.9219 V -1e-4 H 12.766 v -2.2188 c -0.66797,0.90625 -1.4062,1.5703 -2.2188,1.9844 -0.8126,0.4141 -1.7578,0.625 -2.8281,0.625 -1.8867,0 -3.4336,-0.75 -4.6406,-2.25 -1.2109,-1.5 -1.8125,-3.4258 -1.8125,-5.7812 0,-2.3633 0.60156,-4.2969 1.8125,-5.7969 1.207,-1.5 2.7539,-2.25 4.6406,-2.25 1.0625,0 2,0.21484 2.8125,0.64062 0.82031,0.42969 1.5664,1.0859 2.2344,1.9688 z m -3.2188,9.9219 c 1.0391,0 1.8359,-0.37891 2.3906,-1.1406 0.55078,-0.76953 0.82812,-1.8828 0.82812,-3.3438 0,-1.457 -0.27734,-2.5664 -0.82812,-3.3281 -0.55469,-0.76953 -1.3516,-1.1562 -2.3906,-1.1562 -1.043,0 -1.8398,0.38672 -2.3906,1.1562 -0.55469,0.76172 -0.82812,1.8711 -0.82812,3.3281 0,1.4609 0.27344,2.5742 0.82812,3.3438 0.55078,0.76172 1.3477,1.1406 2.3906,1.1406 z"
         id="path17" />
    </symbol>
    <symbol
       id="j"
       overflow="visible">
      <path
         d="m 10.5,-3.1562 c 1.0508,0 1.8516,-0.37891 2.4062,-1.1406 0.55078,-0.76953 0.82812,-1.8828 0.82812,-3.3438 0,-1.457 -0.27734,-2.5664 -0.82812,-3.3281 -0.55469,-0.76953 -1.3555,-1.1562 -2.4062,-1.1562 -1.0547,0 -1.8594,0.38672 -2.4219,1.1562 -0.55469,0.77344 -0.82812,1.8828 -0.82812,3.3281 0,1.4492 0.27344,2.5586 0.82812,3.3281 0.5625,0.77344 1.3672,1.1562 2.4219,1.1562 z m -3.25,-9.9219 c 0.67578,-0.88281 1.4219,-1.5391 2.2344,-1.9688 0.82031,-0.42578 1.7656,-0.64062 2.8281,-0.64062 1.8945,0 3.4453,0.75 4.6562,2.25 1.207,1.5 1.8125,3.4336 1.8125,5.7969 0,2.3555 -0.60547,4.2812 -1.8125,5.7812 -1.2109,1.5 -2.7617,2.25 -4.6562,2.25 -1.0625,0 -2.0078,-0.21094 -2.8281,-0.625 C 8.6719,-0.6602 7.9258,-1.32032 7.25,-2.21882 V -2e-5 H 2.3594 v -21.281 H 7.25 Z"
         id="path20" />
    </symbol>
    <symbol
       id="i"
       overflow="visible">
      <path
         d="m 0.34375,-15.312 h 4.8906 l 4.125,10.391 3.5,-10.391 h 4.8906 l -6.4375,16.766 c -0.64844,1.6953 -1.4023,2.8828 -2.2656,3.5625 -0.86719,0.6875 -2,1.0312 -3.4062,1.0312 H 2.79685 V 2.8289 h 1.5312 c 0.83203,0 1.4375,-0.13672 1.8125,-0.40625 C 6.52336,2.16093 6.82024,1.69218 7.03117,1.01645 L 7.17179,0.59457 Z"
         id="path23" />
    </symbol>
    <symbol
       id="h"
       overflow="visible">
      <path
         d="M 2.3594,-21.281 H 7.25 V 0 H 2.3594 Z"
         id="path26" />
    </symbol>
    <symbol
       id="v"
       overflow="visible">
      <path
         d="M 2.3594,-15.312 H 7.25 V 0 H 2.3594 Z m 0,-5.9688 H 7.25 v 4 H 2.3594 Z"
         id="path29" />
    </symbol>
    <symbol
       id="u"
       overflow="visible">
      <path
         d="m 2.5781,-20.406 h 5.25 V -1.984 C 7.8281,0.5551 7.13279,2.4574 5.75,3.7191 4.375,4.9769 2.2891,5.6097 -0.5,5.6097 H -1.5781 V 1.6253 h 0.82812 c 1.0938,0 1.9219,-0.30859 2.4844,-0.92188 0.5625,-0.60547 0.84375,-1.5 0.84375,-2.6875 z"
         id="path32" />
    </symbol>
    <symbol
       id="c"
       overflow="visible">
      <path
         d="m 9.6406,-12.188 c -1.0859,0 -1.9141,0.39062 -2.4844,1.1719 -0.57422,0.78125 -0.85938,1.9062 -0.85938,3.375 0,1.4688 0.28516,2.5938 0.85938,3.375 0.57031,0.77344 1.3984,1.1562 2.4844,1.1562 1.0625,0 1.875,-0.38281 2.4375,-1.1562 0.57031,-0.78125 0.85938,-1.9062 0.85938,-3.375 0,-1.4688 -0.28906,-2.5938 -0.85938,-3.375 -0.5625,-0.78125 -1.375,-1.1719 -2.4375,-1.1719 z m 0,-3.5 c 2.6328,0 4.6914,0.71484 6.1719,2.1406 1.4766,1.418 2.2188,3.3867 2.2188,5.9062 0,2.5117 -0.74219,4.4805 -2.2188,5.9062 C 14.332,-0.317 12.2734,0.39 9.6406,0.39 6.9922,0.39 4.9258,-0.31703 3.4375,-1.735 1.9453,-3.1608 1.2031,-5.1295 1.2031,-7.6412 c 0,-2.5195 0.74219,-4.4883 2.2344,-5.9062 1.4883,-1.4258 3.5547,-2.1406 6.2031,-2.1406 z"
         id="path35" />
    </symbol>
    <symbol
       id="f"
       overflow="visible">
      <path
         d="M 17.75,-9.3281 V 0 h -4.9219 v -7.1406 c 0,-1.3203 -0.03125,-2.2344 -0.09375,-2.7344 -0.0625,-0.5 -0.16797,-0.86719 -0.3125,-1.1094 -0.1875,-0.3125 -0.44922,-0.55469 -0.78125,-0.73438 -0.32422,-0.17578 -0.69531,-0.26562 -1.1094,-0.26562 -1.0234,0 -1.8242,0.39844 -2.4062,1.1875 -0.58594,0.78125 -0.875,1.8711 -0.875,3.2656 V -1e-4 H 2.3594 v -15.312 H 7.25 v 2.2344 c 0.73828,-0.88281 1.5195,-1.5391 2.3438,-1.9688 0.83203,-0.42578 1.75,-0.64062 2.75,-0.64062 1.7695,0 3.1133,0.54688 4.0312,1.6406 0.91406,1.0859 1.375,2.6562 1.375,4.7188 z"
         id="path38" />
    </symbol>
    <symbol
       id="t"
       overflow="visible">
      <path
         d="m 14.312,-14.828 v 3.7188 c -1.043,-0.4375 -2.0547,-0.76562 -3.0312,-0.98438 -0.98047,-0.21875 -1.9023,-0.32812 -2.7656,-0.32812 -0.92969,0 -1.6211,0.11719 -2.0781,0.34375 -0.44922,0.23047 -0.67188,0.58984 -0.67188,1.0781 0,0.38672 0.17188,0.68359 0.51562,0.89062 0.34375,0.21094 0.95703,0.36719 1.8438,0.46875 l 0.85938,0.125 c 2.5078,0.32422 4.1953,0.85156 5.0625,1.5781 0.86328,0.73047 1.2969,1.8711 1.2969,3.4219 0,1.6367 -0.60547,2.8672 -1.8125,3.6875 -1.1992,0.8125 -2.9922,1.2188 -5.375,1.2188 -1.0234,0 -2.0742,-0.078125 -3.1562,-0.23438 -1.0742,-0.15625 -2.1797,-0.39453 -3.3125,-0.71875 v -3.7188 c 0.96875,0.48047 1.9609,0.83984 2.9844,1.0781 1.0312,0.23047 2.0781,0.34375 3.1406,0.34375 0.95703,0 1.6758,-0.12891 2.1562,-0.39062 0.47656,-0.26953 0.71875,-0.66406 0.71875,-1.1875 0,-0.4375 -0.16797,-0.75781 -0.5,-0.96875 -0.33594,-0.21875 -0.99609,-0.38281 -1.9844,-0.5 L 7.34339,-6.01551 c -2.1797,-0.26953 -3.7031,-0.77344 -4.5781,-1.5156 -0.875,-0.73828 -1.3125,-1.8594 -1.3125,-3.3594 0,-1.625 0.55078,-2.8281 1.6562,-3.6094 1.1133,-0.78906 2.8203,-1.1875 5.125,-1.1875 0.89453,0 1.8359,0.07422 2.8281,0.21875 1,0.13672 2.082,0.35156 3.25,0.64062 z"
         id="path41" />
    </symbol>
    <symbol
       id="s"
       overflow="visible">
      <path
         d="m 12.422,-21.281 v 3.2188 H 9.7189 c -0.6875,0 -1.1719,0.125 -1.4531,0.375 -0.27344,0.25 -0.40625,0.6875 -0.40625,1.3125 v 1.0625 h 4.1875 v 3.5 H 7.85955 V -2e-4 h -4.8906 v -11.812 h -2.4375 v -3.5 h 2.4375 v -1.0625 c 0,-1.6641 0.46094,-2.8984 1.3906,-3.7031 0.92578,-0.80078 2.3672,-1.2031 4.3281,-1.2031 z"
         id="path44" />
    </symbol>
    <symbol
       id="r"
       overflow="visible">
      <path
         d="m 16.547,-12.766 c 0.61328,-0.94531 1.3477,-1.6719 2.2031,-2.1719 0.85156,-0.5 1.7891,-0.75 2.8125,-0.75 1.7578,0 3.0977,0.54688 4.0156,1.6406 0.92578,1.0859 1.3906,2.6562 1.3906,4.7188 V -4e-4 h -4.9219 v -7.9844 -0.35938 c 0.0078,-0.13281 0.01563,-0.32031 0.01563,-0.5625 0,-1.082 -0.16406,-1.8633 -0.48438,-2.3438 -0.3125,-0.48828 -0.82422,-0.73438 -1.5312,-0.73438 -0.92969,0 -1.6484,0.38672 -2.1562,1.1562 -0.51172,0.76172 -0.77344,1.8672 -0.78125,3.3125 v 7.5156 h -4.9219 v -7.9844 c 0,-1.6953 -0.14844,-2.7852 -0.4375,-3.2656 -0.29297,-0.48828 -0.8125,-0.73438 -1.5625,-0.73438 -0.9375,0 -1.6641,0.38672 -2.1719,1.1562 -0.51172,0.76172 -0.76562,1.8594 -0.76562,3.2969 v 7.5312 h -4.9219 v -15.312 h 4.9219 v 2.2344 c 0.60156,-0.86328 1.2891,-1.5156 2.0625,-1.9531 0.78125,-0.4375 1.6406,-0.65625 2.5781,-0.65625 1.0625,0 2,0.25781 2.8125,0.76562 0.8125,0.51172 1.4258,1.2305 1.8438,2.1562 z"
         id="path47" />
    </symbol>
    <symbol
       id="q"
       overflow="visible">
      <path
         d="M 17.75,-9.3281 V 0 h -4.9219 v -7.1094 c 0,-1.3438 -0.03125,-2.2656 -0.09375,-2.7656 -0.0625,-0.5 -0.16797,-0.86719 -0.3125,-1.1094 -0.1875,-0.3125 -0.44922,-0.55469 -0.78125,-0.73438 -0.32422,-0.17578 -0.69531,-0.26562 -1.1094,-0.26562 -1.0234,0 -1.8242,0.39844 -2.4062,1.1875 -0.58594,0.78125 -0.875,1.8711 -0.875,3.2656 V -1e-4 H 2.3594 v -21.281 H 7.25 v 8.2031 c 0.73828,-0.88281 1.5195,-1.5391 2.3438,-1.9688 0.83203,-0.42578 1.75,-0.64062 2.75,-0.64062 1.7695,0 3.1133,0.54688 4.0312,1.6406 0.91406,1.0859 1.375,2.6562 1.375,4.7188 z"
         id="path50" />
    </symbol>
    <symbol
       id="p"
       overflow="visible">
      <path
         d="m 2.5781,-20.406 h 5.875 l 7.4219,14 v -14 h 4.9844 V 0 h -5.875 L 7.5625,-14 V 0 H 2.5781 Z"
         id="path53" />
    </symbol>
    <symbol
       id="o"
       overflow="visible">
      <path
         d="m 2.1875,-5.9688 v -9.3438 h 4.9219 v 1.5312 c 0,0.83594 -0.00781,1.875 -0.015625,3.125 -0.011719,1.25 -0.015625,2.0859 -0.015625,2.5 0,1.2422 0.03125,2.1328 0.09375,2.6719 0.070313,0.54297 0.17969,0.93359 0.32812,1.1719 0.20703,0.32422 0.47266,0.57422 0.79688,0.75 0.32031,0.16797 0.69141,0.25 1.1094,0.25 1.0195,0 1.8203,-0.39062 2.4062,-1.1719 0.58203,-0.78125 0.875,-1.8672 0.875,-3.2656 v -7.5625 h 4.8906 V -6e-4 H 12.6875 V -2.2194 C 11.94531,-1.32096 11.1641,-0.6608 10.3437,-0.235 9.51948,0.17906 8.6093,0.39 7.6093,0.39 5.8476,0.39 4.5038,-0.14906 3.5781,-1.235 2.64841,-2.317 2.1875,-3.8952 2.1875,-5.9694 Z"
         id="path56" />
    </symbol>
    <symbol
       id="n"
       overflow="visible">
      <path
         d="m 2.5781,-20.406 h 8.7344 c 2.5938,0 4.582,0.57812 5.9688,1.7344 1.3945,1.1484 2.0938,2.7891 2.0938,4.9219 0,2.1367 -0.69922,3.7812 -2.0938,4.9375 -1.3867,1.1562 -3.375,1.7344 -5.9688,1.7344 H 7.8281 V 3e-4 h -5.25 z m 5.25,3.8125 v 5.7031 H 10.75 c 1.0195,0 1.8047,-0.25 2.3594,-0.75 0.5625,-0.5 0.84375,-1.2031 0.84375,-2.1094 0,-0.91406 -0.28125,-1.6172 -0.84375,-2.1094 -0.55469,-0.48828 -1.3398,-0.73438 -2.3594,-0.73438 z"
         id="path59" />
    </symbol>
    <symbol
       id="m"
       overflow="visible">
      <path
         d="M 2.3594,-15.312 H 7.25 v 15.031 c 0,2.0508 -0.49609,3.6172 -1.4844,4.7031 -0.98047,1.082 -2.4062,1.625 -4.2812,1.625 H -0.9375 V 2.8283 h 0.85938 c 0.92578,0 1.5625,-0.21094 1.9062,-0.625 0.35156,-0.41797 0.53125,-1.2461 0.53125,-2.4844 z m 0,-5.9688 H 7.25 v 4 H 2.3594 Z"
         id="path62" />
    </symbol>
    <symbol
       id="l"
       overflow="visible">
      <path
         d="m 14.719,-14.828 v 3.9844 c -0.65625,-0.45703 -1.3242,-0.79688 -2,-1.0156 -0.66797,-0.21875 -1.3594,-0.32812 -2.0781,-0.32812 -1.3672,0 -2.4336,0.40234 -3.2031,1.2031 -0.76172,0.79297 -1.1406,1.9062 -1.1406,3.3438 0,1.4297 0.37891,2.543 1.1406,3.3438 0.76953,0.79297 1.8359,1.1875 3.2031,1.1875 0.75781,0 1.4844,-0.10938 2.1719,-0.32812 0.6875,-0.22656 1.3203,-0.56641 1.9062,-1.0156 v 4 c -0.76172,0.28125 -1.5391,0.48828 -2.3281,0.625 -0.78125,0.14453 -1.5742,0.21875 -2.375,0.21875 -2.7617,0 -4.9219,-0.70703 -6.4844,-2.125 -1.5547,-1.4141 -2.3281,-3.3828 -2.3281,-5.9062 0,-2.5312 0.77344,-4.5039 2.3281,-5.9219 1.5625,-1.4141 3.7227,-2.125 6.4844,-2.125 0.80078,0 1.5938,0.07422 2.375,0.21875 0.78125,0.13672 1.5547,0.35156 2.3281,0.64062 z"
         id="path65" />
    </symbol>
  </defs>
  <rect
     style="display:inline;fill:#000000;fill-opacity:0.00909089;stroke:none;stroke-width:2;stroke-linecap:round;stroke-linejoin:round;stroke-miterlimit:0;stop-color:#000000"
     id="background"
     width="1620"
     height="1065.0179"
     x="0"
     y="0" />
  <g
     id="g2"
     transform="translate(-190,32.508975)">
    <g
       id="g1">
      <g
         id="shield"
         transform="matrix(0.68802189,0,0,0.68901908,973.47034,-313.39283)"
         style="stroke-width:1.4524">
        <ellipse
           style="display:inline;fill:#d0d0d0;fill-opacity:1;stroke:none;stroke-width:24.4242;stroke-miterlimit:10;paint-order:markers stroke fill;stop-color:#000000"
           id="disk"
           cx="38.559322"
           cy="1180.5084"
           ry="725.66931"
           rx="726.72107" />
        <ellipse
           style="display:inline;fill:none;stroke:#242424;stroke-width:24.4242;stroke-miterlimit:10;paint-order:markers stroke fill;stop-color:#000000"
           id="ring"
           cx="38.559322"
           cy="1180.5084"
           rx="690.95203"
           ry="689.95203" />
      </g>
      <g
         id="graphic"
         transform="translate(0,26.360926)">
        <path
           d="m 813.32371,374.90781 c 7.77919,6.58746 15.82378,13.39876 17.80854,19.51508 2.14038,6.59059 -0.40933,17.17643 -2.87376,27.41463 -3.61565,15.01258 -7.3528,30.53795 0.88898,41.86454 8.32919,11.44484 24.35335,12.67393 39.8488,13.86138 5.88927,0.45195 11.89155,0.91244 16.98775,1.94852 l -60.50229,158.89519 c -1.10749,2.909 -0.29313,6.19946 2.04339,8.25571 2.33546,2.05512 5.70167,2.44738 8.44859,0.97853 l 58.03571,-31.03042 22.70117,61.77189 c 1.07339,2.92165 3.84693,4.86917 6.95946,4.88722 0.0149,0 0.0289,0 0.0436,0 3.0944,0 5.87115,-1.91114 6.97332,-4.80621 l 60.68457,-159.37599 c 3.09222,-1.25141 6.01182,-2.02854 8.62876,-2.02854 2.6169,0 5.5354,0.77713 8.6276,2.02854 l 60.6847,159.37599 c 1.1022,2.89507 3.8779,4.80621 6.9733,4.80621 0.014,0 0.028,0 0.044,0 3.1125,-0.0185 5.8861,-1.96657 6.9594,-4.88722 l 22.7022,-61.77189 58.0357,31.03042 c 1.1214,0.60004 2.3931,0.88259 3.5581,0.88145 4.1113,-0.0142 7.4423,-3.34703 7.4423,-7.46152 0,-1.13728 -0.2537,-2.21501 -0.7088,-3.17961 L 1114.017,479.51083 c 5.0951,-1.03609 11.0973,-1.49657 16.9888,-1.94853 15.4944,-1.18745 31.5163,-2.41639 39.8476,-13.86024 8.2418,-11.32659 4.5047,-26.85082 0.889,-41.86454 -2.4654,-10.23721 -5.0141,-20.82404 -2.8737,-27.41463 1.9847,-6.11532 10.0294,-12.92762 17.8086,-19.51508 12.0481,-10.2021 24.5057,-20.75056 24.5057,-35.35482 0,-14.60441 -12.4586,-25.155 -24.5057,-35.35597 -7.7792,-6.58746 -15.8239,-13.39976 -17.8086,-19.51508 -2.1393,-6.59058 0.4104,-17.17528 2.8748,-27.41249 3.6157,-15.01372 7.3528,-30.54009 -0.8911,-41.86767 -8.3292,-11.44385 -24.3522,-12.67294 -39.8466,-13.86039 -10.4174,-0.79944 -21.1907,-1.62448 -26.6708,-5.61319 -5.3626,-3.90344 -9.4207,-13.80169 -13.3443,-23.37375 -5.9372,-14.48602 -12.077,-29.46662 -25.7199,-33.8955 -2.3375,-0.76008 -4.8266,-1.14481 -7.3986,-1.14481 -10.7692,0 -21.6609,6.68979 -32.1944,13.15886 -9.102,5.58974 -18.5142,11.37036 -25.67835,11.37036 -7.1641,0 -16.57631,-5.78062 -25.6783,-11.37036 -10.53354,-6.47021 -21.42523,-13.15886 -32.19434,-13.15886 -2.57209,0 -5.06104,0.38473 -7.3965,1.14268 -13.64393,4.43001 -19.78369,19.40948 -25.72093,33.89549 -3.92476,9.57207 -7.98063,19.47145 -13.34653,23.37489 -5.47996,3.98758 -16.2512,4.81375 -26.66855,5.61206 -15.49439,1.18859 -31.51747,2.41654 -39.84773,13.86138 -8.24285,11.32773 -4.50569,26.85295 -0.89005,41.86767 2.4655,10.23721 5.01414,20.82191 2.87481,27.4115 -1.98476,6.11532 -10.02935,12.92762 -17.80852,19.51508 -12.04823,10.2021 -24.50577,20.75156 -24.50577,35.35596 10e-4,14.6054 12.45861,25.15486 24.50682,35.35696 z m 9.64349,-59.32337 c 9.37167,-7.93593 19.06314,-16.14247 22.36007,-26.29653 3.43868,-10.59537 0.38798,-23.26191 -2.56039,-35.51159 -2.8215,-11.71985 -5.74003,-23.8395 -1.55199,-29.5934 4.27545,-5.87442 16.80443,-6.83475 28.92192,-7.76424 12.49166,-0.95721 25.40649,-1.94853 34.30915,-8.42513 8.78648,-6.3946 13.65885,-18.284 18.37242,-29.78114 4.64746,-11.34038 9.4548,-23.06776 16.52194,-25.36164 0.85699,-0.27828 1.76836,-0.41358 2.7874,-0.41358 6.55121,0 15.61696,5.56729 24.38427,10.95138 10.86822,6.67486 22.10741,13.5767 33.48841,13.5767 11.3799,0 22.6191,-6.90184 33.4872,-13.5767 8.7674,-5.38409 17.8321,-10.95138 24.3843,-10.95138 1.019,0 1.9316,0.13501 2.7875,0.41358 7.066,2.29388 11.8733,14.02126 16.5209,25.36164 4.7124,11.49714 9.5859,23.38654 18.3701,29.78 8.9038,6.47874 21.8208,7.46906 34.3114,8.42627 12.1175,0.92949 24.6464,1.88982 28.9218,7.76311 4.1881,5.7539 1.2696,17.87354 -1.552,29.59353 -2.9493,12.24969 -5.999,24.91609 -2.5603,35.51259 3.297,10.15292 12.9884,18.3596 22.3601,26.2954 9.4515,8.00415 19.2261,16.28104 19.2261,23.96854 0,7.6865 -9.7734,15.9624 -19.2261,23.96641 -9.3717,7.93593 -19.0631,16.14247 -22.3601,26.2944 -3.4418,10.5975 -0.3902,23.26617 2.5593,35.51799 2.8215,11.71885 5.74,23.83637 1.5542,29.58913 -4.2766,5.87328 -16.8055,6.83475 -28.923,7.76325 -12.4917,0.95721 -25.4076,1.94852 -34.3092,8.42612 -8.7864,6.3946 -13.6589,18.284 -18.3724,29.78114 -4.6475,11.34152 -9.4548,23.06776 -16.522,25.36165 -0.857,0.27827 -1.7683,0.41358 -2.7873,0.41358 -6.5512,0 -15.617,-5.56729 -24.3843,-10.95139 -10.8693,-6.67486 -22.1074,-13.5767 -33.48834,-13.5767 -11.37993,0 -22.61911,6.90184 -33.48735,13.5767 -8.76836,5.3841 -17.83304,10.95139 -24.38533,10.95139 -1.01903,0 -1.93146,-0.13502 -2.78741,-0.41358 -7.06606,-2.29389 -11.87341,-14.02127 -16.52087,-25.36165 -4.71249,-11.49714 -9.58593,-23.38654 -18.37027,-29.78 -8.9016,-6.47874 -21.81856,-7.46906 -34.31022,-8.42626 -12.11751,-0.9295 -24.6486,-1.88983 -28.92299,-7.76311 -4.18698,-5.7539 -1.26846,-17.87142 1.55306,-29.59027 2.9505,-12.25182 6.0012,-24.92049 2.55931,-35.51685 -3.29693,-10.15307 -12.98838,-18.35961 -22.36006,-26.2944 -9.45161,-8.00416 -19.22621,-16.28105 -19.22621,-23.96755 0,-7.68636 9.77566,-15.9634 19.22728,-23.96741 z m 282.4954,283.82353 c -1.9037,-1.01903 -4.156,-1.16087 -6.1739,-0.3934 -2.0178,0.76861 -3.6038,2.37277 -4.3478,4.39917 l -18.7807,51.10177 -47.2571,-124.11284 c 9.5242,5.78702 19.2967,11.18589 28.9689,11.18589 2.5721,0 5.0611,-0.38473 7.3955,-1.14268 13.6449,-4.43001 19.7847,-19.40848 25.7219,-33.89549 3.0177,-7.36033 6.1153,-14.90173 9.8236,-19.77417 l 52.6603,138.30152 z m -181.62519,55.10754 -18.77959,-51.10177 c -0.74402,-2.0264 -2.33119,-3.6317 -4.34794,-4.39917 -0.85807,-0.32617 -1.75772,-0.4882 -2.65523,-0.4882 -1.2141,0 -2.42287,0.29633 -3.51864,0.8816 l -48.01064,25.66977 52.66023,-138.30252 c 3.70838,4.87231 6.80811,12.41484 9.82469,19.77517 5.93724,14.48701 12.07701,29.46662 25.71987,33.89549 2.33546,0.75895 4.82441,1.14268 7.3965,1.14268 9.67227,0 19.44473,-5.39887 28.96777,-11.18589 z"
           id="badge"
           style="stroke-width:0.75" />
        <path
           d="m 999.99997,477.77762 c 76.21843,0 138.22583,-62.00738 138.22583,-138.22577 0,-76.21839 -62.0074,-138.22577 -138.22582,-138.22577 -76.21836,0 -138.22576,62.00738 -138.22576,138.22577 0,76.21739 62.00739,138.22577 138.22575,138.22577 z m 0,-261.5285 c 67.98943,0 123.30283,55.31333 123.30283,123.30273 0,67.98939 -55.3134,123.30273 -123.30283,123.30273 -67.98937,0 -123.3027,-55.31334 -123.3027,-123.30273 0,-67.9894 55.31333,-123.30273 123.3027,-123.30273 z"
           id="circle"
           style="stroke-width:0.75" />
        <g
           id="stars"
           transform="matrix(12.522388,0,0,12.522388,699.27485,462.26774)"
           style="stroke-width:0.0598929">
          <path
             d="M 10.76,23.06 C 10.7,22.88 10.54,22.75 10.36,22.72 L 8.25,22.41 7.31,20.5 c -0.17,-0.34 -0.73,-0.34 -0.9,0 l -0.94,1.91 -2.11,0.31 c -0.19,0.03 -0.34,0.16 -0.4,0.34 -0.06,0.18 -0.01,0.38 0.13,0.51 l 1.53,1.49 -0.36,2.1 c -0.03,0.19 0.04,0.38 0.2,0.49 0.15,0.11 0.36,0.13 0.53,0.04 l 1.89,-0.99 1.89,0.99 c 0.07,0.04 0.15,0.06 0.23,0.06 0.1,0 0.21,-0.03 0.29,-0.1 0.15,-0.11 0.23,-0.3 0.2,-0.49 l -0.36,-2.1 1.53,-1.49 c 0.11,-0.13 0.16,-0.32 0.1,-0.51 z M 8.22,24.53 C 8.1,24.64 8.05,24.81 8.08,24.97 L 8.31,26.33 7.09,25.69 C 7.02,25.65 6.94,25.63 6.86,25.63 6.78,25.63 6.7,25.65 6.63,25.69 L 5.4,26.34 5.63,24.98 C 5.66,24.82 5.6,24.65 5.49,24.54 L 4.5,23.57 5.87,23.37 c 0.16,-0.02 0.3,-0.13 0.38,-0.27 l 0.61,-1.24 0.61,1.24 c 0.07,0.15 0.21,0.25 0.38,0.27 l 1.37,0.2 z"
             id="star1"
             style="stroke-width:0.0598929" />
          <path
             d="m 19.33,23.06 c -0.06,-0.18 -0.22,-0.31 -0.4,-0.34 L 16.82,22.41 15.88,20.5 c -0.17,-0.34 -0.73,-0.34 -0.9,0 l -0.94,1.91 -2.11,0.31 c -0.19,0.03 -0.34,0.16 -0.4,0.34 -0.06,0.18 -0.01,0.38 0.13,0.51 l 1.53,1.49 -0.36,2.1 c -0.03,0.19 0.04,0.38 0.2,0.49 0.09,0.06 0.19,0.1 0.29,0.1 0.08,0 0.16,-0.02 0.23,-0.06 l 1.89,-0.99 1.89,0.99 c 0.17,0.09 0.37,0.07 0.53,-0.04 0.15,-0.11 0.23,-0.3 0.2,-0.49 l -0.36,-2.1 1.53,-1.49 c 0.11,-0.13 0.16,-0.32 0.1,-0.51 z m -2.54,1.47 c -0.12,0.11 -0.17,0.28 -0.14,0.44 l 0.23,1.36 -1.22,-0.64 c -0.14,-0.08 -0.32,-0.08 -0.46,0 l -1.22,0.64 0.23,-1.36 c 0.03,-0.16 -0.03,-0.33 -0.14,-0.44 l -0.99,-0.96 1.37,-0.2 c 0.16,-0.02 0.3,-0.13 0.38,-0.27 l 0.61,-1.24 0.61,1.24 c 0.07,0.15 0.21,0.25 0.38,0.27 l 1.37,0.2 z"
             id="star2"
             style="stroke-width:0.0598929" />
          <path
             d="M 27.9,23.06 C 27.84,22.88 27.68,22.75 27.5,22.72 L 25.39,22.41 24.45,20.5 c -0.17,-0.34 -0.73,-0.34 -0.9,0 l -0.94,1.91 -2.11,0.31 c -0.19,0.03 -0.34,0.16 -0.4,0.34 -0.06,0.18 -0.01,0.38 0.13,0.51 l 1.53,1.49 -0.36,2.1 c -0.03,0.19 0.04,0.38 0.2,0.49 0.09,0.06 0.19,0.1 0.29,0.1 0.08,0 0.16,-0.02 0.23,-0.06 L 24,26.7 l 1.89,0.99 c 0.17,0.09 0.37,0.07 0.53,-0.04 0.15,-0.11 0.23,-0.3 0.2,-0.49 l -0.36,-2.1 1.53,-1.49 c 0.12,-0.13 0.17,-0.32 0.11,-0.51 z m -2.53,1.47 c -0.12,0.11 -0.17,0.28 -0.14,0.44 l 0.23,1.36 -1.22,-0.64 c -0.07,-0.04 -0.15,-0.06 -0.23,-0.06 -0.08,0 -0.16,0.02 -0.23,0.06 l -1.22,0.64 0.23,-1.36 c 0.03,-0.16 -0.03,-0.33 -0.14,-0.44 l -0.99,-0.96 1.37,-0.2 c 0.16,-0.02 0.3,-0.13 0.38,-0.27 L 24,21.86 24.61,23.1 c 0.07,0.15 0.21,0.25 0.38,0.27 l 1.37,0.2 z"
             id="star3"
             style="stroke-width:0.0598929" />
          <path
             d="M 36.07,22.72 33.96,22.41 33.02,20.5 c -0.17,-0.34 -0.73,-0.34 -0.9,0 l -0.94,1.91 -2.11,0.31 c -0.19,0.03 -0.34,0.16 -0.4,0.34 -0.06,0.18 -0.01,0.38 0.13,0.51 l 1.53,1.49 -0.36,2.1 c -0.03,0.19 0.04,0.38 0.2,0.49 0.15,0.11 0.36,0.13 0.53,0.04 l 1.89,-0.99 1.89,0.99 c 0.07,0.04 0.15,0.06 0.23,0.06 0.1,0 0.21,-0.03 0.29,-0.1 0.15,-0.11 0.23,-0.3 0.2,-0.49 l -0.36,-2.1 1.53,-1.49 c 0.14,-0.13 0.19,-0.33 0.13,-0.51 -0.08,-0.18 -0.24,-0.31 -0.43,-0.34 z m -2.13,1.81 c -0.12,0.11 -0.17,0.28 -0.14,0.44 l 0.23,1.36 -1.22,-0.64 c -0.07,-0.04 -0.15,-0.06 -0.23,-0.06 -0.08,0 -0.16,0.02 -0.23,0.06 l -1.22,0.64 0.23,-1.36 c 0.03,-0.16 -0.03,-0.33 -0.14,-0.44 l -0.99,-0.96 1.37,-0.2 c 0.16,-0.02 0.3,-0.13 0.38,-0.27 l 0.61,-1.24 0.61,1.24 c 0.07,0.15 0.21,0.25 0.38,0.27 l 1.37,0.2 z"
             id="star4"
             style="stroke-width:0.0598929" />
          <path
             d="M 44.64,22.72 42.53,22.41 41.59,20.5 c -0.17,-0.34 -0.73,-0.34 -0.9,0 l -0.94,1.91 -2.11,0.31 c -0.19,0.03 -0.34,0.16 -0.4,0.34 -0.06,0.18 -0.01,0.38 0.13,0.51 l 1.53,1.49 -0.36,2.1 c -0.03,0.19 0.04,0.38 0.2,0.49 0.15,0.11 0.36,0.13 0.53,0.04 l 1.89,-0.99 1.89,0.99 c 0.07,0.04 0.15,0.06 0.23,0.06 0.1,0 0.21,-0.03 0.29,-0.1 0.15,-0.11 0.23,-0.3 0.2,-0.49 l -0.36,-2.1 1.53,-1.49 c 0.14,-0.13 0.19,-0.33 0.13,-0.51 -0.08,-0.18 -0.24,-0.31 -0.43,-0.34 z m -2.13,1.81 c -0.12,0.11 -0.17,0.28 -0.14,0.44 l 0.23,1.36 -1.22,-0.64 c -0.07,-0.04 -0.15,-0.06 -0.23,-0.06 -0.08,0 -0.16,0.02 -0.23,0.06 l -1.22,0.64 0.23,-1.36 c 0.03,-0.16 -0.03,-0.33 -0.14,-0.44 l -0.99,-0.96 1.37,-0.2 c 0.16,-0.02 0.3,-0.13 0.38,-0.27 l 0.61,-1.24 0.61,1.24 c 0.07,0.15 0.21,0.25 0.38,0.27 l 1.37,0.2 z"
             id="star5"
             style="stroke-width:0.0598929" />
        </g>
        <path
           d="m 1086.0085,334.67002 0.3197,-0.22839 a 19.593795,19.593795 0 0 0 3.4712,-14.79812 c -0.7766,-11.00724 -18.6348,-14.29571 -22.8367,-14.47834 -2.375,0 -5.9375,0 -10.0024,0 a 207.4476,207.4476 0 0 1 -25.0745,-0.45678 c -1.3703,-6.94235 1.5528,-18.589 3.6081,-26.58179 a 82.896828,82.896828 0 0 0 2.0554,-9.1346 37.086625,37.086625 0 0 0 -4.5673,-24.02412 29.002471,29.002471 0 0 0 -17.4472,-11.46402 11.372623,11.372623 0 0 0 -9.1347,1.55285 4.5673184,4.5673184 0 0 0 -1.8269,3.97365 96.872823,96.872823 0 0 1 -3.6996,24.43513 l -1.32448,5.89191 a 86.779048,86.779048 0 0 1 -10.3678,14.38695 100.481,100.481 0 0 0 -6.85097,9.13461 29.322183,29.322183 0 0 0 -2.42067,6.07453 c -2.60338,8.44957 -6.89664,22.24287 -18.26927,25.43996 v -0.31964 a 9.1346367,9.1346367 0 0 0 -9.13465,-9.13461 H 916.3326 a 9.1346367,9.1346367 0 0 0 -9.13462,9.13461 v 78.10111 a 9.1346367,9.1346367 0 0 0 9.13462,9.1346 h 36.53855 a 9.1346367,9.1346367 0 0 0 9.13464,-9.1346 v -4.56731 a 16.305327,16.305327 0 0 1 16.71638,4.29329 c 1.05048,0.77642 2.00962,1.73562 2.96876,2.60343 a 24.754865,24.754865 0 0 0 8.63229,6.02877 c 3.1971,1.14183 39.27888,2.64905 56.54328,2.64905 h 4.1107 a 39.507304,39.507304 0 0 0 21.9231,-5.11533 19.913509,19.913509 0 0 0 8.3125,-12.69724 14.752439,14.752439 0 0 0 -1.553,-9.86541 19.228411,19.228411 0 0 0 7.1251,-11.32688 15.939941,15.939941 0 0 0 -2.101,-10.6876 16.944751,16.944751 0 0 0 3.2429,-2.37489 16.259653,16.259653 0 0 0 4.8413,-12.60586 15.483209,15.483209 0 0 0 -6.7596,-13.83892 z m -169.6759,67.5049 v -78.10111 h 36.53855 v 78.10111 z m 158.7143,-35.76202 a 2.2836591,2.2836591 0 0 1 1.4615,1.00482 7.3077094,7.3077094 0 0 1 1.4159,4.56731 c -0.9135,3.79088 -3.5168,8.86059 -15.6659,8.86059 v 0 a 4.5673184,4.5673184 0 0 0 -4.5673,4.5673 4.5673184,4.5673184 0 0 0 4.5673,4.56731 h 0.2284 a 38.548167,38.548167 0 0 0 8.8148,-0.9592 c 0,0 0,0.2284 0,0.31978 a 5.7548211,5.7548211 0 0 1 0.7765,4.56731 10.824545,10.824545 0 0 1 -4.5673,6.71395 32.245267,32.245267 0 0 1 -16.9904,3.56248 c -17.3558,0.3654 -54.57948,-1.55285 -57.41118,-2.05526 a 17.766869,17.766869 0 0 1 -5.38943,-4.06489 c -1.18751,-1.09621 -2.375,-2.23803 -3.69953,-3.24285 a 24.526501,24.526501 0 0 0 -22.28852,-6.25716 v -54.76218 c 17.90391,-3.24285 23.93276,-22.83666 26.85588,-31.97127 a 45.673184,45.673184 0 0 1 1.4615,-4.56731 c 0.9592,-1.59861 3.6082,-4.84132 6.1659,-7.99278 6.80528,-8.40381 11.28128,-14.20432 12.19468,-18.26922 0.3654,-1.827 0.8222,-3.74526 1.2788,-5.70927 a 128.75271,128.75271 0 0 0 4.0193,-22.97353 20.781298,20.781298 0 0 1 11.464,7.39899 28.089007,28.089007 0 0 1 3.1515,18.04096 73.670845,73.670845 0 0 1 -1.827,8.17556 96.644456,96.644456 0 0 0 -4.1563,26.85579 c -1.0505,-0.54817 -1.5529,-1.0962 -1.6899,-1.64423 a 4.5673184,4.5673184 0 1 0 -8.9062,1.96387 c 2.5121,11.41826 22.0145,11.82943 45.3078,11.23563 3.8821,0 7.262,0 9.1346,0 5.3895,0.27402 14.2043,3.65388 14.3871,6.07454 a 12.103393,12.103393 0 0 1 -1.1876,7.99278 7.0336702,7.0336702 0 0 1 -5.0239,1.64423 5.1153965,5.1153965 0 0 0 -2.0097,0.5938 c -3.2428,-0.27402 -6.3485,-0.31978 -8.815,-0.31978 a 4.5673756,4.5673756 0 0 0 0,9.13475 c 16.8078,0 20.0049,3.24271 20.0049,9.13461 a 7.3990557,7.3990557 0 0 1 -1.9639,5.98315 c -1.8726,1.73562 -6.4399,3.69949 -17.7669,3.01445 a 4.5755344,4.5755344 0 0 0 -0.5481,9.13461 c 1.7813,0 3.4255,0 5.0241,0 a 56.771768,56.771768 0 0 0 6.5312,-0.3654 z"
           id="thumbs-up-2"
           style="display:inline;stroke-width:0.75" />
      </g>
    </g>
  </g>
</svg>
