<?xml version="1.0" encoding="UTF-8" standalone="no"?>
<svg
   width="300"
   height="300"
   viewBox="0 0 300 300"
   version="1.1"
   id="svg6"
   sodipodi:docname="logo-svg.svg"
   xml:space="preserve"
   inkscape:version="1.4.2 (f4327f4, 2025-05-13)"
   xmlns:inkscape="http://www.inkscape.org/namespaces/inkscape"
   xmlns:sodipodi="http://sodipodi.sourceforge.net/DTD/sodipodi-0.dtd"
   xmlns:xlink="http://www.w3.org/1999/xlink"
   xmlns="http://www.w3.org/2000/svg"
   xmlns:svg="http://www.w3.org/2000/svg"
   xmlns:rdf="http://www.w3.org/1999/02/22-rdf-syntax-ns#"
   xmlns:cc="http://creativecommons.org/ns#"
   xmlns:dc="http://purl.org/dc/elements/1.1/"><sodipodi:namedview
     id="namedview6"
     pagecolor="#bbbbbb"
     bordercolor="#000000"
     borderopacity="0.25"
     inkscape:showpageshadow="2"
     inkscape:pageopacity="0.0"
     inkscape:pagecheckerboard="true"
     inkscape:deskcolor="#d1d1d1"
     inkscape:zoom="1.345"
     inkscape:cx="237.17472"
     inkscape:cy="129.36803"
     inkscape:window-width="1666"
     inkscape:window-height="1032"
     inkscape:window-x="835"
     inkscape:window-y="263"
     inkscape:window-maximized="0"
     inkscape:current-layer="svg6" /><title
     id="title1">SVG Logo</title><desc
     id="desc1">Designed for the SVG Logo Contest in 2006 by Harvey Rayner, and adopted by W3C in 2009. It is available under the Creative Commons license for those who have an SVG product or who are using SVG on their site.</desc><metadata
     id="license"><rdf:RDF><cc:Work
         rdf:about=""><dc:title>SVG Logo</dc:title><dc:date>14-08-2009</dc:date><dc:creator><cc:Agent><dc:title>W3C</dc:title></cc:Agent><cc:Agent><dc:title>Harvey Rayner, designer</dc:title></cc:Agent></dc:creator><dc:description>See document description</dc:description><cc:license
           rdf:resource="http://creativecommons.org/licenses/by-nc-sa/2.5/" /><dc:format>image/svg+xml</dc:format><dc:type
           rdf:resource="http://purl.org/dc/dcmitype/StillImage" /></cc:Work><cc:License
         rdf:about="http://creativecommons.org/licenses/by-nc-sa/2.5/"><cc:permits
           rdf:resource="http://web.resource.org/cc/Reproduction" /><cc:permits
           rdf:resource="http://web.resource.org/cc/Distribution" /><cc:requires
           rdf:resource="http://web.resource.org/cc/Notice" /><cc:requires
           rdf:resource="http://web.resource.org/cc/Attribution" /><cc:prohibits
           rdf:resource="http://web.resource.org/cc/CommercialUse" /><cc:permits
           rdf:resource="http://web.resource.org/cc/DerivativeWorks" /><cc:requires
           rdf:resource="http://web.resource.org/cc/ShareAlike" /></cc:License></rdf:RDF></metadata><defs
     id="defs1"><g
       id="SVG"
       fill="#ffffff"
       transform="matrix(2,0,0,2,40,158)"><path
         id="S"
         d="M 5.482,31.319 C 2.163,28.001 0.109,23.419 0.109,18.358 0.109,8.232 8.322,0.024 18.443,0.024 c 10.126,0 18.339,8.208 18.339,18.334 h -10.74 c 0,-4.194 -3.404,-7.593 -7.599,-7.593 -4.194,0 -7.593,3.399 -7.593,7.593 0,2.095 0.851,3.993 2.22,5.363 h 0.005 c 1.375,1.38 2.52,1.779 5.368,2.231 v 0 c 5.066,0.527 9.648,2.054 12.966,5.372 v 0 c 3.319,3.319 5.373,7.901 5.373,12.962 0,10.126 -8.213,18.339 -18.339,18.339 C 8.322,62.625 0.109,54.412 0.109,44.286 H 10.85 c 0,4.194 3.399,7.598 7.593,7.598 4.195,0 7.599,-3.404 7.599,-7.598 0,-2.095 -0.851,-3.988 -2.221,-5.363 H 23.816 C 22.441,37.548 20.468,37.074 18.443,36.697 V 36.692 C 13.533,35.939 8.8,34.638 5.482,31.319 v 0 z" /><path
         id="V"
         d="M 73.452,0.024 60.482,62.625 H 49.742 L 36.782,0.024 h 10.74 l 7.6,36.663 7.59,-36.663 z" /><path
         id="G"
         d="m 91.792,25.952 h 18.334 v 18.334 h 0.005 c 0,10.127 -8.213,18.34 -18.339,18.34 -10.127,0 -18.334,-8.213 -18.334,-18.34 v 0 -25.927 h -0.005 c 0,-10.126 8.212,-18.334 18.339,-18.334 10.121,0 18.334,8.208 18.334,18.334 H 99.385 c 0,-4.19 -3.404,-7.594 -7.593,-7.594 -4.195,0 -7.594,3.404 -7.594,7.594 v 25.927 0 c 0,4.195 3.399,7.594 7.594,7.594 4.189,0 7.588,-3.399 7.593,-7.589 V 44.286 36.698 H 91.792 V 25.952 Z" /></g><clipPath
       id="clip0_235_8"><rect
         width="512"
         height="208.12601"
         fill="#ffffff"
         id="rect13"
         x="0"
         y="0" /></clipPath><linearGradient
       id="a"
       gradientUnits="userSpaceOnUse"><stop
         style="stop-color:#fff;stop-opacity:1"
         offset="0"
         id="stop1-0" /><stop
         style="stop-color:#fff;stop-opacity:0"
         offset="1"
         id="stop2-9" /></linearGradient><linearGradient
       id="b"
       gradientUnits="userSpaceOnUse"><stop
         style="stop-color:#c0cdf9;stop-opacity:1"
         offset="0"
         id="stop3-4" /><stop
         style="stop-color:#07092d;stop-opacity:.28804347"
         offset="1"
         id="stop4-8" /></linearGradient><linearGradient
       x1="82.118591"
       y1="20"
       x2="60"
       y2="40"
       id="t"
       xlink:href="#b"
       gradientUnits="userSpaceOnUse" /><linearGradient
       x1="33"
       y1="35"
       x2="58"
       y2="60"
       id="u"
       xlink:href="#a"
       gradientUnits="userSpaceOnUse"
       gradientTransform="matrix(1.00918,0,0,1.00918,-0.3890738,-0.3831933)" /><linearGradient
       x1="60"
       y1="20"
       x2="90"
       y2="50"
       id="v"
       xlink:href="#a"
       gradientUnits="userSpaceOnUse" /><linearGradient
       x1="231.625"
       y1="195.1875"
       x2="231.75"
       y2="201.5"
       id="A"
       xlink:href="#a"
       gradientUnits="userSpaceOnUse" /><linearGradient
       x1="231.37646"
       y1="195.62132"
       x2="231.37646"
       y2="200.07138"
       id="B"
       xlink:href="#a"
       gradientUnits="userSpaceOnUse" /><linearGradient
       id="j"><stop
         style="stop-color:#fff;stop-opacity:.33004925"
         offset="0"
         id="stop17-6" /><stop
         style="stop-color:#fff;stop-opacity:0"
         offset="1"
         id="stop18" /></linearGradient><linearGradient
       x1="95.5"
       y1="208.16444"
       x2="153.5"
       y2="223.5"
       id="L"
       xlink:href="#a"
       gradientUnits="userSpaceOnUse" /><linearGradient
       x1="57.225197"
       y1="76.246338"
       x2="53.63158"
       y2="84.480316"
       id="M"
       xlink:href="#n"
       gradientUnits="userSpaceOnUse"
       gradientTransform="matrix(0.88526,0,0,0.88526,5.1772151,9.2293372)" /><linearGradient
       id="n"><stop
         style="stop-color:#eeeeec;stop-opacity:1"
         offset="0"
         id="stop25" /><stop
         style="stop-color:#eeeeec;stop-opacity:0"
         offset="1"
         id="stop26" /></linearGradient><linearGradient
       x1="73.712105"
       y1="180.47572"
       x2="82.754066"
       y2="187.65974"
       id="O"
       xlink:href="#a"
       gradientUnits="userSpaceOnUse"
       gradientTransform="matrix(0.4928,0,0,0.4928,-6.0003885,-9.7225182)" /><linearGradient
       id="p"><stop
         style="stop-color:#729fcf;stop-opacity:1"
         offset="0"
         id="stop29" /><stop
         style="stop-color:#729fcf;stop-opacity:0"
         offset="1"
         id="stop30" /></linearGradient><linearGradient
       x1="180.81293"
       y1="217.5"
       x2="153.70045"
       y2="144.5"
       id="P"
       xlink:href="#p"
       gradientUnits="userSpaceOnUse"
       gradientTransform="translate(-130.16572,-83.352786)" /><radialGradient
       cx="116.31038"
       cy="250.89737"
       r="30.599579"
       fx="116.31038"
       fy="250.89737"
       id="w"
       xlink:href="#a"
       gradientUnits="userSpaceOnUse"
       gradientTransform="matrix(1.57005,0,0,1.05093,-75.500107,-22.095908)" /><radialGradient
       cx="132.44434"
       cy="251.99396"
       r="30.599579"
       fx="132.44434"
       fy="251.99396"
       id="x"
       xlink:href="#a"
       gradientUnits="userSpaceOnUse"
       gradientTransform="matrix(2.00325,0,0,1.3409,-132.8752,-95.166065)" /><radialGradient
       cx="210.25"
       cy="168.5"
       r="34.25"
       fx="210.25"
       fy="168.5"
       id="y"
       xlink:href="#a"
       gradientUnits="userSpaceOnUse"
       gradientTransform="matrix(1,0,0,0.42336,0,97.164234)" /><radialGradient
       cx="217.5"
       cy="182.08189"
       r="34.25"
       fx="217.5"
       fy="182.08189"
       id="z"
       xlink:href="#a"
       gradientUnits="userSpaceOnUse"
       gradientTransform="matrix(1,0,0,0.42336,0,97.164234)" /><radialGradient
       cx="228.21875"
       cy="204.83229"
       r="14.09375"
       fx="228.21875"
       fy="204.83229"
       id="C"
       xlink:href="#a"
       gradientUnits="userSpaceOnUse"
       gradientTransform="matrix(1,0,0,0.14775,0,174.56924)" /><radialGradient
       cx="228.21875"
       cy="204.83229"
       r="14.09375"
       fx="228.21875"
       fy="204.83229"
       id="F"
       xlink:href="#a"
       gradientUnits="userSpaceOnUse"
       gradientTransform="matrix(1,0,0,0.14775,0,174.56924)" /><radialGradient
       cx="89.875"
       cy="187.86935"
       r="22.75"
       fx="89.875"
       fy="187.86935"
       id="G-0"
       xlink:href="#j"
       gradientUnits="userSpaceOnUse"
       gradientTransform="matrix(1,0,0,0.40708,0,115.76014)" /><radialGradient
       cx="90.28125"
       cy="230.83626"
       r="10.46875"
       fx="90.28125"
       fy="230.83626"
       id="J"
       xlink:href="#a"
       gradientUnits="userSpaceOnUse"
       gradientTransform="matrix(1.18507,-0.32836,0.12286,0.4434,-45.068314,152.92161)" /><radialGradient
       cx="68.39994"
       cy="21.225746"
       r="54.783398"
       fx="68.39994"
       fy="21.225746"
       id="K"
       xlink:href="#a"
       gradientUnits="userSpaceOnUse"
       gradientTransform="matrix(1.72215,0,0,1.69498,-49.39526,-14.078057)" /><radialGradient
       cx="181.22731"
       cy="214.55121"
       r="22.466398"
       fx="181.22731"
       fy="214.55121"
       id="N"
       xlink:href="#a"
       gradientUnits="userSpaceOnUse"
       gradientTransform="matrix(1.35152,0,0,1.71757,-63.705646,-153.95568)" /><filter
       id="q"
       color-interpolation-filters="sRGB"
       x="-0.017255854"
       y="-0.017528899"
       width="1.0345117"
       height="1.0350578"><feGaussianBlur
         stdDeviation=".80546496"
         id="feGaussianBlur30" /></filter><filter
       id="r"
       color-interpolation-filters="sRGB"
       x="-0.074775368"
       y="-0.07595855"
       width="1.1495507"
       height="1.1519171"><feGaussianBlur
         stdDeviation="3.4903482"
         id="feGaussianBlur31" /></filter><clipPath
       id="s"><use
         transform="translate(1.01e-6)"
         style="opacity:0.25;fill:#ffffff;fill-opacity:1"
         width="400"
         height="300"
         xlink:href="#d"
         id="use31" /></clipPath><path
       d="M 54.1,12.5 12.9,54.7 C -2.7,70.3 23,69 32.3,74.9 36.6,77.7 18.5,81.3 22.2,85 c 3.6,3.7 21.7,7.1 25.3,10.7 3.6,3.7 -7.3,7.6 -3.7,11.3 3.5,3.7 11.9,0.2 13.4,8.6 1.1,6.2 15.4,3.1 21.8,-2.2 4,-3.4 -6.9,-3.4 -3.3,-7.1 9,-9.1 17,-4.1 20.3,-12.5 1.8,-4.5 -13.6,-7.7 -9.5,-10.6 9.8,-6.9 45.8,-10.4 29.2,-27 L 73,12.5 c -5.3,-5 -14,-5 -18.9,0 z m -9.9,64.7 c 0.9,0 30.8,4 19.3,7.1 -4.4,1.2 -24.6,-7.1 -19.3,-7.1 z m 57.2,16.6 c 0,2.1 16.3,3.3 15.4,-0.5 -1.3,-6.4 -13.6,-5.9 -15.4,0.5 z m -69.5,11.1 c 3.7,3.2 9.3,-0.7 11.1,-5.2 -3.6,-4.7 -16.9,0.3 -11.1,5.2 z m 67.5,-6.7 c -4.6,4.2 0.8,8.6 5.3,5.7 1.2,-0.8 -0.1,-4.7 -5.3,-5.7 z"
       id="d" /></defs><g
     id="g1"
     transform="matrix(1.0650065,0,0,1.0650065,-9.7509782,-9.7509782)"><circle
       style="fill:#ffffff;fill-opacity:1;stroke-width:6.92054;stroke-linecap:round"
       id="path14-9"
       cx="150"
       cy="150"
       r="140.84421" /><g
       id="g6"
       transform="matrix(0.70875363,0,0,0.70875363,45.367253,35.340765)"><path
         id="base"
         fill="#000000"
         d="m 8.5,150 h 283 v 100 c 0,23.5 -18,41.5 -41.5,41.5 H 50 C 26.5,291.5 8.5,273.5 8.5,250 Z" /><g
         stroke-width="38.0086"
         stroke="#000000"
         id="g3"><g
           id="svgstar"
           transform="translate(150,150)"><path
             id="svgbar"
             fill="#ffb13b"
             d="m -84.1487,-15.8513 a 22.4171,22.4171 0 1 0 0,31.7026 H 84.1487 a 22.4171,22.4171 0 1 0 0,-31.7026 z" /><use
             xlink:href="#svgbar"
             transform="rotate(45)"
             id="use1" /><use
             xlink:href="#svgbar"
             transform="rotate(90)"
             id="use2" /><use
             xlink:href="#svgbar"
             transform="rotate(135)"
             id="use3" /></g></g><use
         xlink:href="#svgstar"
         id="use4" /><use
         xlink:href="#base"
         opacity="0.85"
         id="use5" /><use
         xlink:href="#SVG"
         id="use6" /></g></g><style
     type="text/css"
     id="style1">
	.st0{fill-rule:evenodd;clip-rule:evenodd;fill:#FF4088;stroke:#C9177E;stroke-width:27;}
	.st1{fill-rule:evenodd;clip-rule:evenodd;fill:#FFFFFF;}
</style></svg>
