<?xml version="1.0" encoding="UTF-8" standalone="no"?>
<svg
   fill="none"
   height="373.88171"
   width="373.88171"
   viewBox="0 0 373.88171 373.88171"
   version="1.1"
   id="svg27"
   sodipodi:docname="logo-intensedebate.svg"
   xml:space="preserve"
   inkscape:version="1.4.2 (f4327f4, 2025-05-13)"
   xmlns:inkscape="http://www.inkscape.org/namespaces/inkscape"
   xmlns:sodipodi="http://sodipodi.sourceforge.net/DTD/sodipodi-0.dtd"
   xmlns:xlink="http://www.w3.org/1999/xlink"
   xmlns="http://www.w3.org/2000/svg"
   xmlns:svg="http://www.w3.org/2000/svg"><defs
     id="defs27"><clipPath
       id="clip0_235_8"><rect
         width="512"
         height="208.12601"
         fill="#ffffff"
         id="rect13"
         x="0"
         y="0" /></clipPath><linearGradient
       id="a"
       gradientUnits="userSpaceOnUse"><stop
         style="stop-color:#fff;stop-opacity:1"
         offset="0"
         id="stop1-0" /><stop
         style="stop-color:#fff;stop-opacity:0"
         offset="1"
         id="stop2-9" /></linearGradient><linearGradient
       id="b"
       gradientUnits="userSpaceOnUse"><stop
         style="stop-color:#c0cdf9;stop-opacity:1"
         offset="0"
         id="stop3-4" /><stop
         style="stop-color:#07092d;stop-opacity:.28804347"
         offset="1"
         id="stop4-8" /></linearGradient><linearGradient
       x1="82.118591"
       y1="20"
       x2="60"
       y2="40"
       id="t"
       xlink:href="#b"
       gradientUnits="userSpaceOnUse" /><linearGradient
       x1="33"
       y1="35"
       x2="58"
       y2="60"
       id="u"
       xlink:href="#a"
       gradientUnits="userSpaceOnUse"
       gradientTransform="matrix(1.00918,0,0,1.00918,-0.3890738,-0.3831933)" /><linearGradient
       x1="60"
       y1="20"
       x2="90"
       y2="50"
       id="v"
       xlink:href="#a"
       gradientUnits="userSpaceOnUse" /><linearGradient
       x1="231.625"
       y1="195.1875"
       x2="231.75"
       y2="201.5"
       id="A"
       xlink:href="#a"
       gradientUnits="userSpaceOnUse" /><linearGradient
       x1="231.37646"
       y1="195.62132"
       x2="231.37646"
       y2="200.07138"
       id="B"
       xlink:href="#a"
       gradientUnits="userSpaceOnUse" /><linearGradient
       id="j"><stop
         style="stop-color:#fff;stop-opacity:.33004925"
         offset="0"
         id="stop17-6" /><stop
         style="stop-color:#fff;stop-opacity:0"
         offset="1"
         id="stop18" /></linearGradient><linearGradient
       x1="95.5"
       y1="208.16444"
       x2="153.5"
       y2="223.5"
       id="L"
       xlink:href="#a"
       gradientUnits="userSpaceOnUse" /><linearGradient
       x1="57.225197"
       y1="76.246338"
       x2="53.63158"
       y2="84.480316"
       id="M"
       xlink:href="#n"
       gradientUnits="userSpaceOnUse"
       gradientTransform="matrix(0.88526,0,0,0.88526,5.1772151,9.2293372)" /><linearGradient
       id="n"><stop
         style="stop-color:#eeeeec;stop-opacity:1"
         offset="0"
         id="stop25" /><stop
         style="stop-color:#eeeeec;stop-opacity:0"
         offset="1"
         id="stop26" /></linearGradient><linearGradient
       x1="73.712105"
       y1="180.47572"
       x2="82.754066"
       y2="187.65974"
       id="O"
       xlink:href="#a"
       gradientUnits="userSpaceOnUse"
       gradientTransform="matrix(0.4928,0,0,0.4928,-6.0003885,-9.7225182)" /><linearGradient
       id="p"><stop
         style="stop-color:#729fcf;stop-opacity:1"
         offset="0"
         id="stop29" /><stop
         style="stop-color:#729fcf;stop-opacity:0"
         offset="1"
         id="stop30" /></linearGradient><linearGradient
       x1="180.81293"
       y1="217.5"
       x2="153.70045"
       y2="144.5"
       id="P"
       xlink:href="#p"
       gradientUnits="userSpaceOnUse"
       gradientTransform="translate(-130.16572,-83.352786)" /><radialGradient
       cx="116.31038"
       cy="250.89737"
       r="30.599579"
       fx="116.31038"
       fy="250.89737"
       id="w"
       xlink:href="#a"
       gradientUnits="userSpaceOnUse"
       gradientTransform="matrix(1.57005,0,0,1.05093,-75.500107,-22.095908)" /><radialGradient
       cx="132.44434"
       cy="251.99396"
       r="30.599579"
       fx="132.44434"
       fy="251.99396"
       id="x"
       xlink:href="#a"
       gradientUnits="userSpaceOnUse"
       gradientTransform="matrix(2.00325,0,0,1.3409,-132.8752,-95.166065)" /><radialGradient
       cx="210.25"
       cy="168.5"
       r="34.25"
       fx="210.25"
       fy="168.5"
       id="y"
       xlink:href="#a"
       gradientUnits="userSpaceOnUse"
       gradientTransform="matrix(1,0,0,0.42336,0,97.164234)" /><radialGradient
       cx="217.5"
       cy="182.08189"
       r="34.25"
       fx="217.5"
       fy="182.08189"
       id="z"
       xlink:href="#a"
       gradientUnits="userSpaceOnUse"
       gradientTransform="matrix(1,0,0,0.42336,0,97.164234)" /><radialGradient
       cx="228.21875"
       cy="204.83229"
       r="14.09375"
       fx="228.21875"
       fy="204.83229"
       id="C"
       xlink:href="#a"
       gradientUnits="userSpaceOnUse"
       gradientTransform="matrix(1,0,0,0.14775,0,174.56924)" /><radialGradient
       cx="228.21875"
       cy="204.83229"
       r="14.09375"
       fx="228.21875"
       fy="204.83229"
       id="F"
       xlink:href="#a"
       gradientUnits="userSpaceOnUse"
       gradientTransform="matrix(1,0,0,0.14775,0,174.56924)" /><radialGradient
       cx="89.875"
       cy="187.86935"
       r="22.75"
       fx="89.875"
       fy="187.86935"
       id="G"
       xlink:href="#j"
       gradientUnits="userSpaceOnUse"
       gradientTransform="matrix(1,0,0,0.40708,0,115.76014)" /><radialGradient
       cx="90.28125"
       cy="230.83626"
       r="10.46875"
       fx="90.28125"
       fy="230.83626"
       id="J"
       xlink:href="#a"
       gradientUnits="userSpaceOnUse"
       gradientTransform="matrix(1.18507,-0.32836,0.12286,0.4434,-45.068314,152.92161)" /><radialGradient
       cx="68.39994"
       cy="21.225746"
       r="54.783398"
       fx="68.39994"
       fy="21.225746"
       id="K"
       xlink:href="#a"
       gradientUnits="userSpaceOnUse"
       gradientTransform="matrix(1.72215,0,0,1.69498,-49.39526,-14.078057)" /><radialGradient
       cx="181.22731"
       cy="214.55121"
       r="22.466398"
       fx="181.22731"
       fy="214.55121"
       id="N"
       xlink:href="#a"
       gradientUnits="userSpaceOnUse"
       gradientTransform="matrix(1.35152,0,0,1.71757,-63.705646,-153.95568)" /><filter
       id="q"
       color-interpolation-filters="sRGB"
       x="-0.017255854"
       y="-0.017528899"
       width="1.0345117"
       height="1.0350578"><feGaussianBlur
         stdDeviation=".80546496"
         id="feGaussianBlur30" /></filter><filter
       id="r"
       color-interpolation-filters="sRGB"
       x="-0.074775368"
       y="-0.07595855"
       width="1.1495507"
       height="1.1519171"><feGaussianBlur
         stdDeviation="3.4903482"
         id="feGaussianBlur31" /></filter><clipPath
       id="s"><use
         transform="translate(1.01e-6)"
         style="opacity:0.25;fill:#ffffff;fill-opacity:1"
         width="400"
         height="300"
         xlink:href="#d"
         id="use31" /></clipPath><path
       d="M 54.1,12.5 12.9,54.7 C -2.7,70.3 23,69 32.3,74.9 36.6,77.7 18.5,81.3 22.2,85 c 3.6,3.7 21.7,7.1 25.3,10.7 3.6,3.7 -7.3,7.6 -3.7,11.3 3.5,3.7 11.9,0.2 13.4,8.6 1.1,6.2 15.4,3.1 21.8,-2.2 4,-3.4 -6.9,-3.4 -3.3,-7.1 9,-9.1 17,-4.1 20.3,-12.5 1.8,-4.5 -13.6,-7.7 -9.5,-10.6 9.8,-6.9 45.8,-10.4 29.2,-27 L 73,12.5 c -5.3,-5 -14,-5 -18.9,0 z m -9.9,64.7 c 0.9,0 30.8,4 19.3,7.1 -4.4,1.2 -24.6,-7.1 -19.3,-7.1 z m 57.2,16.6 c 0,2.1 16.3,3.3 15.4,-0.5 -1.3,-6.4 -13.6,-5.9 -15.4,0.5 z m -69.5,11.1 c 3.7,3.2 9.3,-0.7 11.1,-5.2 -3.6,-4.7 -16.9,0.3 -11.1,5.2 z m 67.5,-6.7 c -4.6,4.2 0.8,8.6 5.3,5.7 1.2,-0.8 -0.1,-4.7 -5.3,-5.7 z"
       id="d" /></defs><sodipodi:namedview
     id="namedview27"
     pagecolor="#ffffff"
     bordercolor="#000000"
     borderopacity="0.25"
     inkscape:showpageshadow="2"
     inkscape:pageopacity="0.0"
     inkscape:pagecheckerboard="0"
     inkscape:deskcolor="#d1d1d1"
     inkscape:zoom="0.28491212"
     inkscape:cx="614.22449"
     inkscape:cy="-421.18251"
     inkscape:window-width="1348"
     inkscape:window-height="1032"
     inkscape:window-x="622"
     inkscape:window-y="187"
     inkscape:window-maximized="0"
     inkscape:current-layer="svg27" /><radialGradient
     id="logo-bottom-left"
     cx="0"
     cy="0"
     gradientTransform="matrix(-59,-225,150,-39,161.4,470)"
     gradientUnits="userSpaceOnUse"
     r="1"><stop
       offset="0"
       stop-color="#fff"
       stop-opacity=".4"
       id="stop1" /><stop
       offset="1"
       stop-opacity=".1"
       id="stop2" /></radialGradient><radialGradient
     id="logo-top-right"
     cx="0"
     cy="0"
     gradientTransform="matrix(50,-379,280,37,360,374.2)"
     gradientUnits="userSpaceOnUse"
     r="1"><stop
       offset="0"
       stop-color="#fff"
       stop-opacity=".6"
       id="stop3" /><stop
       offset="1"
       stop-color="#fff"
       stop-opacity=".1"
       id="stop4" /></radialGradient><radialGradient
     id="logo-top-left"
     cx="0"
     cy="0"
     gradientTransform="matrix(69,-319,218,47,175.4,307)"
     gradientUnits="userSpaceOnUse"
     r="1"><stop
       offset="0"
       stop-color="#fff"
       stop-opacity=".8"
       id="stop5" /><stop
       offset="1"
       stop-color="#fff"
       stop-opacity=".4"
       id="stop6" /></radialGradient><radialGradient
     id="logo-bottom-right"
     cx="0"
     cy="0"
     gradientTransform="matrix(-96,-163,187,-111,335.3,512.2)"
     gradientUnits="userSpaceOnUse"
     r="1"><stop
       offset="0"
       stop-color="#fff"
       stop-opacity=".3"
       id="stop7" /><stop
       offset="1"
       stop-opacity=".3"
       id="stop8" /></radialGradient><radialGradient
     id="logo-top-edge"
     cx="0"
     cy="0"
     gradientTransform="matrix(-36,166,-112,-24,310,128.2)"
     gradientUnits="userSpaceOnUse"
     r="1"><stop
       offset="0"
       stop-color="#fff"
       stop-opacity="0"
       id="stop9" /><stop
       offset="1"
       stop-color="#fff"
       stop-opacity=".2"
       id="stop10" /></radialGradient><radialGradient
     id="logo-left-edge"
     cx="0"
     cy="0"
     gradientTransform="matrix(88,89,-190,187,111,220.2)"
     gradientUnits="userSpaceOnUse"
     r="1"><stop
       offset="0"
       stop-color="#fff"
       stop-opacity=".2"
       id="stop11" /><stop
       offset="1"
       stop-color="#fff"
       stop-opacity=".4"
       id="stop12" /></radialGradient><radialGradient
     id="logo-bottom-edge"
     cx="0"
     cy="0"
     gradientTransform="matrix(9,130,-276,20,215,284)"
     gradientUnits="userSpaceOnUse"
     r="1"><stop
       offset="0"
       stop-color="#fff"
       stop-opacity=".2"
       id="stop13" /><stop
       offset="1"
       stop-color="#fff"
       stop-opacity=".3"
       id="stop14" /></radialGradient><radialGradient
     id="logo-middle-edge"
     cx="0"
     cy="0"
     gradientTransform="matrix(-198,-104,327,-623,400,399.2)"
     gradientUnits="userSpaceOnUse"
     r="1"><stop
       offset="0"
       stop-color="#fff"
       stop-opacity=".2"
       id="stop15" /><stop
       offset=".5"
       stop-color="#fff"
       stop-opacity=".2"
       id="stop16" /><stop
       offset="1"
       stop-color="#fff"
       stop-opacity=".3"
       id="stop17" /></radialGradient><clipPath
     id="clip"><path
       d="m 0.2,0.2 h 512 v 512 H 0.2 Z"
       id="path17" /></clipPath><style
     type="text/css"
     id="style1">
	.st0{fill-rule:evenodd;clip-rule:evenodd;fill:#FF4088;stroke:#C9177E;stroke-width:27;}
	.st1{fill-rule:evenodd;clip-rule:evenodd;fill:#FFFFFF;}
</style><g
     id="g5"
     transform="matrix(0.81011286,0,0,0.81011286,-877.09976,-418.40861)"><circle
       style="fill:#ffffff;fill-opacity:1;stroke-width:11.3386;stroke-linecap:round"
       id="path14-9-7"
       cx="1313.4474"
       cy="747.24091"
       r="230.75903" /><g
       id="g8"
       transform="matrix(0.82814704,0,0,-0.82814704,1095.2553,782.71484)">
        <g
   id="g10"
   transform="scale(0.1)">
            <path
   d="m 1328.26,515.34 c -46.31,0 -73.87,-22.695 -94.55,-54.215 h -1.91 v 48.316 H 1131.35 V 10.2109 H 1231.8 V 346 c 0,44.285 12.78,68.922 50.15,68.922 31.53,0 49.26,-22.695 49.26,-59.102 V 10.2109 h 100.42 V 393.234 c 0,89.571 -53.16,122.106 -103.37,122.106 z M 666.648,661.023 H 566.16 V 509.441 H 515.934 V 430.645 H 566.16 V 127.352 c 0,-53.1918 30.543,-117.1411 121.145,-117.1411 h 41.332 V 104.68 c -44.321,0 -61.989,2.992 -61.989,49.269 v 276.696 h 61.989 v 78.796 H 666.648 Z M 1952.49,357.793 c 0,37.414 18.69,57.129 49.26,57.129 30.51,0 49.18,-19.715 49.18,-57.129 v -57.176 h -98.44 z m 198.89,-135.898 v 137.882 c 0,87.598 -57.1,155.563 -149.63,155.563 -61.06,0 -107.37,-28.606 -131,-71.922 -13.79,-25.574 -18.71,-61.016 -18.71,-101.414 V 177.57 c 0,-40.398 4.92,-75.84 18.71,-101.4216 23.63,-43.3203 69.94,-71.88668 131,-71.88668 46.26,0 82.71,16.77738 109.27,44.28908 25.65,26.5508 40.36,64.9882 40.36,106.3202 h -100.45 c -1.91,-21.633 -10.83,-50.191 -49.18,-50.191 -30.57,0 -49.26,17.781 -49.26,49.269 v 67.946 z M 957.109,300.617 h -98.554 v 57.176 c 0,37.414 18.75,57.129 49.254,57.129 30.554,0 49.3,-19.715 49.3,-57.129 z m -49.3,214.723 c -60.977,0 -107.321,-28.606 -130.883,-71.922 -13.895,-25.574 -18.785,-61.016 -18.785,-101.414 V 177.57 c 0,-40.398 4.89,-75.84 18.785,-101.4216 23.562,-43.3203 69.906,-71.88668 130.883,-71.88668 46.312,0 82.718,16.77738 109.301,44.28908 25.62,26.5508 40.41,64.9882 40.41,106.3202 H 957.109 c -1.976,-21.633 -10.902,-50.191 -49.3,-50.191 -30.504,0 -49.254,17.781 -49.254,49.269 v 67.946 h 198.965 v 137.882 c 0,87.598 -57.09,155.563 -149.711,155.563 z M 0,610.832 H 100.445 V 711.32 H 0 Z M 380.078,515.34 c -46.226,0 -73.828,-22.695 -94.515,-54.215 h -1.911 v 48.316 H 183.164 V 10.2109 H 283.652 V 346 c 0,44.285 12.778,68.922 50.2,68.922 31.507,0 49.175,-22.695 49.175,-59.102 V 10.2109 H 483.52 V 393.234 c 0,89.571 -53.25,122.106 -103.442,122.106 z M 0,10.2109 H 100.445 V 509.441 H 0 Z m 1697.47,285.5231 -32.56,13.036 -26.51,10.597 c -37.39,14.715 -42.35,32.488 -42.35,51.153 0,25.703 17.74,50.234 49.26,50.234 26.55,0 50.2,-17.668 51.19,-51.164 h 94.56 c -0.94,82.754 -60.13,145.75 -141.84,145.75 -80.73,0 -147.65,-61.09 -147.65,-145.75 0,-22.547 4.44,-42.871 12.66,-60.82 16.13,-35.332 46.98,-61.446 88.69,-77.04 l 48.29,-17.707 c 38.43,-14.785 50.15,-33.535 50.15,-61.132 0,-33.45 -27.52,-54.1527 -56.05,-54.1527 -37.42,0 -50.27,28.6137 -54.15,56.1327 h -94.56 c 3.96,-98.4022 70.92,-150.60928 149.68,-150.60928 86.66,0 149.65,68.00778 149.65,150.60928 0,59.152 -23.58,112.317 -98.46,140.863"
   style="fill:#27b5e4;fill-opacity:1;fill-rule:nonzero;stroke:none"
   id="path12-4" />
            <path
   d="m 4198.24,358.84 c 0,37.937 19.69,57.976 51.79,57.976 32.08,0 51.7,-20.039 51.7,-57.976 v -58 h -103.49 z m 209.05,-137.922 v 139.934 c 0,89.003 -59.98,157.89 -157.26,157.89 -64.19,0 -112.89,-28.945 -137.71,-72.883 -14.49,-26.004 -19.65,-62 -19.65,-103.035 V 175.891 c 0,-40.961 5.16,-76.9613 19.65,-102.9105 C 4137.14,28.9883 4185.84,0 4250.03,0 c 48.54,0 86.91,16.9492 114.83,44.9688 26.9,26.9921 42.43,65.9532 42.43,107.9222 h -105.56 c -2.05,-21.961 -11.36,-50.942 -51.7,-50.942 -32.1,0 -51.79,18.012 -51.79,50 v 68.969 z M 3981.98,666.777 H 3876.49 V 512.813 h -52.8 v -79.961 h 52.8 V 124.961 c 0,-53.9219 32,-118.98053 127.27,-118.98053 h 43.42 V 101.949 c -46.52,0 -65.2,2.981 -65.2,50 v 280.903 h 65.2 v 79.961 h -65.2 z M 3678.83,154.941 c 0,-40.961 -21.78,-64.9801 -56.92,-64.9801 -34.16,0 -54.88,25.9691 -54.88,64.9801 0,53.997 37.26,71.965 82.85,71.965 9.3,0 17.53,-1.008 28.95,-3.058 z m -52.77,363.801 c -47.65,0 -86.92,-15.941 -114.94,-42.949 -27.9,-26.961 -44.47,-64.973 -47.57,-109.961 h 102.47 c 6.24,33.047 33.09,50.984 60.04,50.984 39.3,0 52.77,-25.964 52.77,-59.961 v -52.949 c -21.78,0.93 -36.22,2.989 -50.69,2.989 -132.48,0 -166.56,-56.055 -166.56,-171.965 C 3461.58,23.0117 3526.73,0 3575.32,0 c 50.74,0 73.53,21.0391 101.5,58.0117 h 2.01 V 5.98047 h 105.54 V 358.84 c 0,105.976 -70.36,159.902 -158.31,159.902 z M 3272.17,170.891 c 0,-40.93 -15.5,-68.942 -51.72,-68.942 -32.12,0 -52.76,26 -52.76,62.961 v 196.918 c 0,32.07 22.77,54.988 52.76,54.988 40.39,0 51.72,-27.984 51.72,-59.961 z m -5.12,347.851 c -41.38,0 -74.57,-18.961 -97.27,-51.906 h -2.09 V 717.707 H 3062.11 V 5.98047 h 105.58 V 51.9492 C 3194.57,23.0117 3215.24,0 3268.07,0 c 42.41,0 73.44,14.9414 92.12,47.9609 12.35,22 17.58,53.0591 17.58,108.9691 v 192.914 c 0,73 -3.14,101.972 -16.58,123 -17.6,26.937 -43.5,45.898 -94.14,45.898 z M 2864.52,300.84 h -103.5 v 58 c 0,37.937 19.56,57.976 51.68,57.976 32.15,0 51.82,-20.039 51.82,-57.976 z m -51.82,217.902 c -64.19,0 -112.75,-28.945 -137.58,-72.883 -14.53,-26.004 -19.67,-62 -19.67,-103.035 V 175.891 c 0,-40.961 5.14,-76.9613 19.67,-102.9105 C 2699.95,28.9883 2748.51,0 2812.7,0 c 48.72,0 86.96,16.9492 114.94,44.9688 26.84,26.9921 42.46,65.9532 42.46,107.9222 h -105.58 c -2.08,-21.961 -11.38,-50.942 -51.82,-50.942 -32.12,0 -51.68,18.012 -51.68,50 v 68.969 h 209.08 v 139.934 c 0,89.003 -60.08,157.89 -157.4,157.89 z M 2457.85,164.91 c 0,-36.961 -20.68,-62.961 -52.83,-62.961 -36.15,0 -51.69,28.012 -51.69,68.942 v 185.964 c 0,31.977 11.31,59.961 51.69,59.961 30.06,0 52.83,-22.918 52.83,-54.988 z m 0,301.926 h -2.09 c -22.77,32.945 -55.9,51.906 -97.28,51.906 -50.71,0 -76.6,-18.961 -94.17,-45.898 -13.48,-21.028 -16.62,-50 -16.62,-123 V 156.93 c 0,-55.91 5.22,-86.9691 17.66,-108.9691 C 2283.95,14.9414 2315.02,0 2357.44,0 c 52.77,0 73.49,23.0117 100.41,51.9492 V 5.98047 h 105.54 V 717.707 H 2457.85 V 466.836"
   style="fill:#444142;fill-opacity:1;fill-rule:nonzero;stroke:none"
   id="path14-23" />
            <path
   d="m 5277.01,1189.02 c 0,0 -1.12,-53.07 -50.22,-134.4 -49.19,-81.593 -178.66,-105.792 -254.99,-117.749 -76.47,-11.875 -139.22,7.961 -239.58,-41.824 -100.39,-49.918 -60.14,-102.242 -174.78,-174.988 -114.67,-72.559 -146.89,67.89 -56.31,95.226 90.52,27.406 113.01,3.438 177.01,157.969 63.85,154.486 241.76,77.296 241.76,77.296 0,0 -156.1,130.59 -280,-28.46 -123.84,-158.969 -203.74,-50.031 -283.4,-111.422 -79.58,-61.477 -52.31,-131.004 -87.72,-204.383 -35.55,-73.387 -69.28,-110.019 -106.27,-86.754 -37.14,23.27 -48.44,85.625 2.68,120.77 51.16,34.875 54.3,29.656 77.12,81.219 22.65,51.535 -20.37,104.679 -20.37,104.679 0,0 -18.13,-63.117 -46.3,-94.179 -26.69,-29.364 -89.24,-49.313 -214.79,-72.672 h 18.29 c 42.25,0 76.49,-34.25 76.49,-76.52 V 604.59 c 22.13,-3.281 41.19,-16.047 52.88,-33.977 38.69,26.215 86.55,40.746 138.69,40.746 53.17,0 100.52,-15.39 138.53,-42.089 58.82,-41.266 95.25,-109.825 95.25,-192.325 V 263.313 c 21.42,-4.856 49.35,-19.942 84.08,-33.829 67,-27.004 99.33,-26.886 193.18,81.004 93.81,108.067 243.22,20.235 243.22,20.235 0,0 -38.77,34.199 -76.85,59.113 -38.1,25.254 -93.28,40.176 -143.71,38.836 -50.11,-1.16 -80.51,-4.774 -138.95,-39.336 -58.38,-34.559 -82.45,-25.117 -101.23,6.582 -18.82,31.738 11.87,73.75 46.22,94.219 34.48,20.23 73.25,28.988 187.4,-3.321 114.29,-32.332 150.8,-15.574 220.27,58.934 69.58,74.418 20.65,188.387 20.65,188.387 0,0 -1.33,-72.184 -53.46,-117.442 -51.99,-45.144 -113.37,-43.281 -143.41,15.196 -29.94,58.363 -27.43,116.918 53.52,160.093 81.16,43.356 98.62,6.129 283.47,101.309 184.85,95.004 121.63,295.727 121.63,295.727"
   style="fill:#27b5e4;fill-opacity:1;fill-rule:nonzero;stroke:none"
   id="path16" />
            <path
   d="m 4469.2,95.4492 c 71.78,32.6528 142.92,-23.7383 142.92,-23.7383 0,0 8.07,33.3091 -10.75,64.8911 -18.75,31.91 -53.85,44.418 -88.51,47.808 -10.38,1.02 -22.85,2.309 -34.81,4.633 1.75,-6.422 2.93,-13.082 2.93,-20.043 0,-25.34 -4.19,-50.129 -11.78,-73.5508"
   style="fill:#27b5e4;fill-opacity:1;fill-rule:nonzero;stroke:none"
   id="path18-2" />
        </g>
    </g></g></svg>
