<?xml version="1.0" encoding="UTF-8" standalone="no"?>
<svg
   fill="none"
   height="300"
   width="300"
   viewBox="0 0 300 300"
   version="1.1"
   id="svg27"
   sodipodi:docname="logo-netlify.svg"
   xml:space="preserve"
   inkscape:version="1.4.2 (f4327f4, 2025-05-13)"
   xmlns:inkscape="http://www.inkscape.org/namespaces/inkscape"
   xmlns:sodipodi="http://sodipodi.sourceforge.net/DTD/sodipodi-0.dtd"
   xmlns:xlink="http://www.w3.org/1999/xlink"
   xmlns="http://www.w3.org/2000/svg"
   xmlns:svg="http://www.w3.org/2000/svg"><defs
     id="defs27"><clipPath
       id="clip0_235_8"><rect
         width="512"
         height="208.12601"
         fill="#ffffff"
         id="rect13"
         x="0"
         y="0" /></clipPath><linearGradient
       id="a"
       gradientUnits="userSpaceOnUse"><stop
         style="stop-color:#fff;stop-opacity:1"
         offset="0"
         id="stop1-0" /><stop
         style="stop-color:#fff;stop-opacity:0"
         offset="1"
         id="stop2-9" /></linearGradient><linearGradient
       id="b"
       gradientUnits="userSpaceOnUse"><stop
         style="stop-color:#c0cdf9;stop-opacity:1"
         offset="0"
         id="stop3-4" /><stop
         style="stop-color:#07092d;stop-opacity:.28804347"
         offset="1"
         id="stop4-8" /></linearGradient><linearGradient
       x1="82.118591"
       y1="20"
       x2="60"
       y2="40"
       id="t"
       xlink:href="#b"
       gradientUnits="userSpaceOnUse" /><linearGradient
       x1="33"
       y1="35"
       x2="58"
       y2="60"
       id="u"
       xlink:href="#a"
       gradientUnits="userSpaceOnUse"
       gradientTransform="matrix(1.00918,0,0,1.00918,-0.3890738,-0.3831933)" /><linearGradient
       x1="60"
       y1="20"
       x2="90"
       y2="50"
       id="v"
       xlink:href="#a"
       gradientUnits="userSpaceOnUse" /><linearGradient
       x1="231.625"
       y1="195.1875"
       x2="231.75"
       y2="201.5"
       id="A"
       xlink:href="#a"
       gradientUnits="userSpaceOnUse" /><linearGradient
       x1="231.37646"
       y1="195.62132"
       x2="231.37646"
       y2="200.07138"
       id="B"
       xlink:href="#a"
       gradientUnits="userSpaceOnUse" /><linearGradient
       id="j"><stop
         style="stop-color:#fff;stop-opacity:.33004925"
         offset="0"
         id="stop17-6" /><stop
         style="stop-color:#fff;stop-opacity:0"
         offset="1"
         id="stop18" /></linearGradient><linearGradient
       x1="95.5"
       y1="208.16444"
       x2="153.5"
       y2="223.5"
       id="L"
       xlink:href="#a"
       gradientUnits="userSpaceOnUse" /><linearGradient
       x1="57.225197"
       y1="76.246338"
       x2="53.63158"
       y2="84.480316"
       id="M"
       xlink:href="#n"
       gradientUnits="userSpaceOnUse"
       gradientTransform="matrix(0.88526,0,0,0.88526,5.1772151,9.2293372)" /><linearGradient
       id="n"><stop
         style="stop-color:#eeeeec;stop-opacity:1"
         offset="0"
         id="stop25" /><stop
         style="stop-color:#eeeeec;stop-opacity:0"
         offset="1"
         id="stop26" /></linearGradient><linearGradient
       x1="73.712105"
       y1="180.47572"
       x2="82.754066"
       y2="187.65974"
       id="O"
       xlink:href="#a"
       gradientUnits="userSpaceOnUse"
       gradientTransform="matrix(0.4928,0,0,0.4928,-6.0003885,-9.7225182)" /><linearGradient
       id="p"><stop
         style="stop-color:#729fcf;stop-opacity:1"
         offset="0"
         id="stop29" /><stop
         style="stop-color:#729fcf;stop-opacity:0"
         offset="1"
         id="stop30" /></linearGradient><linearGradient
       x1="180.81293"
       y1="217.5"
       x2="153.70045"
       y2="144.5"
       id="P"
       xlink:href="#p"
       gradientUnits="userSpaceOnUse"
       gradientTransform="translate(-130.16572,-83.352786)" /><radialGradient
       cx="116.31038"
       cy="250.89737"
       r="30.599579"
       fx="116.31038"
       fy="250.89737"
       id="w"
       xlink:href="#a"
       gradientUnits="userSpaceOnUse"
       gradientTransform="matrix(1.57005,0,0,1.05093,-75.500107,-22.095908)" /><radialGradient
       cx="132.44434"
       cy="251.99396"
       r="30.599579"
       fx="132.44434"
       fy="251.99396"
       id="x"
       xlink:href="#a"
       gradientUnits="userSpaceOnUse"
       gradientTransform="matrix(2.00325,0,0,1.3409,-132.8752,-95.166065)" /><radialGradient
       cx="210.25"
       cy="168.5"
       r="34.25"
       fx="210.25"
       fy="168.5"
       id="y"
       xlink:href="#a"
       gradientUnits="userSpaceOnUse"
       gradientTransform="matrix(1,0,0,0.42336,0,97.164234)" /><radialGradient
       cx="217.5"
       cy="182.08189"
       r="34.25"
       fx="217.5"
       fy="182.08189"
       id="z"
       xlink:href="#a"
       gradientUnits="userSpaceOnUse"
       gradientTransform="matrix(1,0,0,0.42336,0,97.164234)" /><radialGradient
       cx="228.21875"
       cy="204.83229"
       r="14.09375"
       fx="228.21875"
       fy="204.83229"
       id="C"
       xlink:href="#a"
       gradientUnits="userSpaceOnUse"
       gradientTransform="matrix(1,0,0,0.14775,0,174.56924)" /><radialGradient
       cx="228.21875"
       cy="204.83229"
       r="14.09375"
       fx="228.21875"
       fy="204.83229"
       id="F"
       xlink:href="#a"
       gradientUnits="userSpaceOnUse"
       gradientTransform="matrix(1,0,0,0.14775,0,174.56924)" /><radialGradient
       cx="89.875"
       cy="187.86935"
       r="22.75"
       fx="89.875"
       fy="187.86935"
       id="G"
       xlink:href="#j"
       gradientUnits="userSpaceOnUse"
       gradientTransform="matrix(1,0,0,0.40708,0,115.76014)" /><radialGradient
       cx="90.28125"
       cy="230.83626"
       r="10.46875"
       fx="90.28125"
       fy="230.83626"
       id="J"
       xlink:href="#a"
       gradientUnits="userSpaceOnUse"
       gradientTransform="matrix(1.18507,-0.32836,0.12286,0.4434,-45.068314,152.92161)" /><radialGradient
       cx="68.39994"
       cy="21.225746"
       r="54.783398"
       fx="68.39994"
       fy="21.225746"
       id="K"
       xlink:href="#a"
       gradientUnits="userSpaceOnUse"
       gradientTransform="matrix(1.72215,0,0,1.69498,-49.39526,-14.078057)" /><radialGradient
       cx="181.22731"
       cy="214.55121"
       r="22.466398"
       fx="181.22731"
       fy="214.55121"
       id="N"
       xlink:href="#a"
       gradientUnits="userSpaceOnUse"
       gradientTransform="matrix(1.35152,0,0,1.71757,-63.705646,-153.95568)" /><filter
       id="q"
       color-interpolation-filters="sRGB"
       x="-0.017255854"
       y="-0.017528899"
       width="1.0345117"
       height="1.0350578"><feGaussianBlur
         stdDeviation=".80546496"
         id="feGaussianBlur30" /></filter><filter
       id="r"
       color-interpolation-filters="sRGB"
       x="-0.074775368"
       y="-0.07595855"
       width="1.1495507"
       height="1.1519171"><feGaussianBlur
         stdDeviation="3.4903482"
         id="feGaussianBlur31" /></filter><clipPath
       id="s"><use
         transform="translate(1.01e-6)"
         style="opacity:0.25;fill:#ffffff;fill-opacity:1"
         width="400"
         height="300"
         xlink:href="#d"
         id="use31" /></clipPath><path
       d="M 54.1,12.5 12.9,54.7 C -2.7,70.3 23,69 32.3,74.9 36.6,77.7 18.5,81.3 22.2,85 c 3.6,3.7 21.7,7.1 25.3,10.7 3.6,3.7 -7.3,7.6 -3.7,11.3 3.5,3.7 11.9,0.2 13.4,8.6 1.1,6.2 15.4,3.1 21.8,-2.2 4,-3.4 -6.9,-3.4 -3.3,-7.1 9,-9.1 17,-4.1 20.3,-12.5 1.8,-4.5 -13.6,-7.7 -9.5,-10.6 9.8,-6.9 45.8,-10.4 29.2,-27 L 73,12.5 c -5.3,-5 -14,-5 -18.9,0 z m -9.9,64.7 c 0.9,0 30.8,4 19.3,7.1 -4.4,1.2 -24.6,-7.1 -19.3,-7.1 z m 57.2,16.6 c 0,2.1 16.3,3.3 15.4,-0.5 -1.3,-6.4 -13.6,-5.9 -15.4,0.5 z m -69.5,11.1 c 3.7,3.2 9.3,-0.7 11.1,-5.2 -3.6,-4.7 -16.9,0.3 -11.1,5.2 z m 67.5,-6.7 c -4.6,4.2 0.8,8.6 5.3,5.7 1.2,-0.8 -0.1,-4.7 -5.3,-5.7 z"
       id="d" /></defs><sodipodi:namedview
     id="namedview27"
     pagecolor="#bbbbbb"
     bordercolor="#000000"
     borderopacity="0.25"
     inkscape:showpageshadow="2"
     inkscape:pageopacity="0.0"
     inkscape:pagecheckerboard="true"
     inkscape:deskcolor="#d1d1d1"
     inkscape:zoom="1.6117063"
     inkscape:cx="176.21076"
     inkscape:cy="212.19747"
     inkscape:window-width="1642"
     inkscape:window-height="1032"
     inkscape:window-x="721"
     inkscape:window-y="241"
     inkscape:window-maximized="0"
     inkscape:current-layer="svg27" /><radialGradient
     id="logo-bottom-left"
     cx="0"
     cy="0"
     gradientTransform="matrix(-59,-225,150,-39,161.4,470)"
     gradientUnits="userSpaceOnUse"
     r="1"><stop
       offset="0"
       stop-color="#fff"
       stop-opacity=".4"
       id="stop1" /><stop
       offset="1"
       stop-opacity=".1"
       id="stop2" /></radialGradient><radialGradient
     id="logo-top-right"
     cx="0"
     cy="0"
     gradientTransform="matrix(50,-379,280,37,360,374.2)"
     gradientUnits="userSpaceOnUse"
     r="1"><stop
       offset="0"
       stop-color="#fff"
       stop-opacity=".6"
       id="stop3" /><stop
       offset="1"
       stop-color="#fff"
       stop-opacity=".1"
       id="stop4" /></radialGradient><radialGradient
     id="logo-top-left"
     cx="0"
     cy="0"
     gradientTransform="matrix(69,-319,218,47,175.4,307)"
     gradientUnits="userSpaceOnUse"
     r="1"><stop
       offset="0"
       stop-color="#fff"
       stop-opacity=".8"
       id="stop5" /><stop
       offset="1"
       stop-color="#fff"
       stop-opacity=".4"
       id="stop6" /></radialGradient><radialGradient
     id="logo-bottom-right"
     cx="0"
     cy="0"
     gradientTransform="matrix(-96,-163,187,-111,335.3,512.2)"
     gradientUnits="userSpaceOnUse"
     r="1"><stop
       offset="0"
       stop-color="#fff"
       stop-opacity=".3"
       id="stop7" /><stop
       offset="1"
       stop-opacity=".3"
       id="stop8" /></radialGradient><radialGradient
     id="logo-top-edge"
     cx="0"
     cy="0"
     gradientTransform="matrix(-36,166,-112,-24,310,128.2)"
     gradientUnits="userSpaceOnUse"
     r="1"><stop
       offset="0"
       stop-color="#fff"
       stop-opacity="0"
       id="stop9" /><stop
       offset="1"
       stop-color="#fff"
       stop-opacity=".2"
       id="stop10" /></radialGradient><radialGradient
     id="logo-left-edge"
     cx="0"
     cy="0"
     gradientTransform="matrix(88,89,-190,187,111,220.2)"
     gradientUnits="userSpaceOnUse"
     r="1"><stop
       offset="0"
       stop-color="#fff"
       stop-opacity=".2"
       id="stop11" /><stop
       offset="1"
       stop-color="#fff"
       stop-opacity=".4"
       id="stop12" /></radialGradient><radialGradient
     id="logo-bottom-edge"
     cx="0"
     cy="0"
     gradientTransform="matrix(9,130,-276,20,215,284)"
     gradientUnits="userSpaceOnUse"
     r="1"><stop
       offset="0"
       stop-color="#fff"
       stop-opacity=".2"
       id="stop13" /><stop
       offset="1"
       stop-color="#fff"
       stop-opacity=".3"
       id="stop14" /></radialGradient><radialGradient
     id="logo-middle-edge"
     cx="0"
     cy="0"
     gradientTransform="matrix(-198,-104,327,-623,400,399.2)"
     gradientUnits="userSpaceOnUse"
     r="1"><stop
       offset="0"
       stop-color="#fff"
       stop-opacity=".2"
       id="stop15" /><stop
       offset=".5"
       stop-color="#fff"
       stop-opacity=".2"
       id="stop16" /><stop
       offset="1"
       stop-color="#fff"
       stop-opacity=".3"
       id="stop17" /></radialGradient><clipPath
     id="clip"><path
       d="m 0.2,0.2 h 512 v 512 H 0.2 Z"
       id="path17" /></clipPath><style
     type="text/css"
     id="style1">
	.st0{fill-rule:evenodd;clip-rule:evenodd;fill:#FF4088;stroke:#C9177E;stroke-width:27;}
	.st1{fill-rule:evenodd;clip-rule:evenodd;fill:#FFFFFF;}
</style><g
     id="g18"
     transform="matrix(0.65002872,0,0,0.65002872,-700.26391,-59.914346)"><circle
       style="fill:#ffffff;fill-opacity:1;stroke-width:11.3386;stroke-linecap:round"
       id="path14-5"
       cx="1308.0405"
       cy="322.93088"
       r="230.75903" /><g
       clip-path="url(#clip0_235_8)"
       id="netlify"
       transform="matrix(0.84973224,0,0,0.84973224,1094.3658,246.13296)"><path
         d="m 117.436,207.036 v -52.432 l 1.093,-1.094 h 10.923 l 1.093,1.094 v 52.432 l -1.093,1.094 h -10.923 z"
         fill="#05bdba"
         id="path1-2" /><path
         d="M 117.436,53.5225 V 1.09339 L 118.529,0 h 10.923 l 1.093,1.09339 V 53.5225 l -1.093,1.0934 h -10.923 z"
         fill="#05bdba"
         id="path2" /><path
         d="m 69.9539,169.238 h -1.5445 l -7.7225,-7.726 v -1.545 l 18.0332,-18.029 8.1775,0.004 1.0972,1.089 v 8.178 z"
         fill="#05bdba"
         id="path3" /><path
         d="m 69.9462,38.8917 h -1.5445 l -7.7225,7.7264 v 1.5445 l 18.0332,18.0294 8.1775,-0.0038 1.0972,-1.0896 v -8.1774 z"
         fill="#05bdba"
         id="path4" /><path
         d="M 1.09339,97.5104 H 75.3711 l 1.0934,1.0934 v 10.9222 l -1.0934,1.094 H 1.09339 L 0,109.526 V 98.6038 Z"
         fill="#05bdba"
         id="path5" /><path
         d="m 440.999,97.5104 h 69.911 l 1.094,1.0934 v 10.9222 l -1.094,1.094 h -74.277 l -1.094,-1.094 4.366,-10.9222 z"
         fill="#05bdba"
         id="path6" /><path
         d="m 212.056,108.727 -1.093,1.094 h -33.884 l -1.093,1.093 c 0,2.187 2.187,8.743 10.93,8.743 3.28,0 6.556,-1.093 7.65,-3.28 l 1.093,-1.093 h 13.117 l 1.093,1.093 c -1.093,6.557 -6.556,16.397 -22.953,16.397 -18.58,0 -27.327,-13.117 -27.327,-28.417 0,-15.2994 8.743,-28.4162 26.233,-28.4162 17.491,0 26.234,13.1168 26.234,28.4162 v 4.374 z M 195.659,97.7971 c 0,-1.0934 -1.093,-8.7433 -9.837,-8.7433 -8.743,0 -9.836,7.6499 -9.836,8.7433 l 1.093,1.0934 h 17.487 z"
         fill="#014847"
         id="path7" /><path
         d="m 242.66,115.284 c 0,2.186 1.093,3.28 3.28,3.28 h 9.836 l 1.094,1.093 v 10.93 l -1.094,1.094 h -9.836 c -9.837,0 -18.58,-4.374 -18.58,-16.397 V 91.2368 l -1.094,-1.0934 h -7.649 L 217.523,89.05 V 78.1199 l 1.094,-1.0934 h 7.649 l 1.094,-1.0933 v -9.8367 l 1.093,-1.0934 h 13.117 l 1.093,1.0934 v 9.8367 l 1.094,1.0933 h 12.023 l 1.094,1.0934 V 89.05 l -1.094,1.0934 h -12.023 l -1.094,1.0934 v 24.0472 z"
         fill="#014847"
         id="path8" /><path
         d="m 283.1,131.681 h -13.117 l -1.094,-1.094 V 56.2636 l 1.094,-1.0934 H 283.1 l 1.093,1.0934 v 74.3234 z"
         fill="#014847"
         id="path9" /><path
         d="m 312.61,68.2871 h -13.117 l -1.094,-1.0934 V 56.2636 l 1.094,-1.0934 h 13.117 l 1.093,1.0934 v 10.9301 z m 0,63.3939 h -13.117 l -1.094,-1.094 V 78.1237 l 1.094,-1.0933 h 13.117 l 1.093,1.0933 v 52.4633 z"
         fill="#014847"
         id="path10" /><path
         d="m 363.98,56.2636 v 10.9301 l -1.094,1.0934 h -9.836 c -2.187,0 -3.281,1.0934 -3.281,3.2801 v 4.3736 l 1.094,1.0934 h 10.93 l 1.093,1.0934 v 10.93 l -1.093,1.0934 h -10.93 l -1.094,1.0934 v 39.3466 l -1.093,1.093 h -13.117 l -1.093,-1.093 V 91.2444 l -1.094,-1.0934 h -7.649 l -1.094,-1.0934 v -10.93 l 1.094,-1.0934 h 7.649 l 1.094,-1.0934 v -4.3736 c 0,-12.0234 8.743,-16.397 18.58,-16.397 h 9.836 l 1.094,1.0934 z"
         fill="#014847"
         id="path11" /><path
         d="m 404.42,132.774 c -4.374,10.93 -8.743,17.487 -24.047,17.487 h -5.467 l -1.093,-1.094 v -10.93 l 1.093,-1.093 h 5.467 c 5.463,0 6.556,-1.094 7.65,-4.374 v -1.093 L 370.536,89.05 V 78.1199 l 1.094,-1.0934 h 9.836 l 1.094,1.0934 13.117,37.1641 h 1.093 l 13.117,-37.1641 1.093,-1.0934 h 9.837 l 1.093,1.0934 V 89.05 l -17.486,43.72 z"
         fill="#014847"
         id="path12" /><path
         d="m 135.454,131.681 -1.093,-1.094 0.007,-31.6698 c 0,-5.4631 -2.148,-9.699 -8.743,-9.8366 -3.391,-0.088 -7.271,-0.0077 -11.416,0.1682 l -0.619,0.6346 0.008,40.7036 -1.094,1.094 H 99.3913 l -1.0934,-1.094 V 77.5388 l 1.0934,-1.0934 29.5097,-0.2676 c 14.784,0 20.767,10.1578 20.767,21.6231 v 32.7861 l -1.093,1.094 z"
         fill="#014847"
         id="path13" /></g></g></svg>
