<?xml version="1.0" encoding="UTF-8" standalone="no"?>
<svg
   fill="none"
   height="300"
   width="300"
   viewBox="0 0 300 300"
   version="1.1"
   id="svg27"
   sodipodi:docname="logo-obsidian.svg"
   xml:space="preserve"
   inkscape:version="1.4.2 (f4327f4, 2025-05-13)"
   xmlns:inkscape="http://www.inkscape.org/namespaces/inkscape"
   xmlns:sodipodi="http://sodipodi.sourceforge.net/DTD/sodipodi-0.dtd"
   xmlns:xlink="http://www.w3.org/1999/xlink"
   xmlns="http://www.w3.org/2000/svg"
   xmlns:svg="http://www.w3.org/2000/svg"><defs
     id="defs27"><clipPath
       id="clip0_235_8"><rect
         width="512"
         height="208.12601"
         fill="#ffffff"
         id="rect13"
         x="0"
         y="0" /></clipPath><linearGradient
       id="a"
       gradientUnits="userSpaceOnUse"><stop
         style="stop-color:#fff;stop-opacity:1"
         offset="0"
         id="stop1-0" /><stop
         style="stop-color:#fff;stop-opacity:0"
         offset="1"
         id="stop2-9" /></linearGradient><linearGradient
       id="b"
       gradientUnits="userSpaceOnUse"><stop
         style="stop-color:#c0cdf9;stop-opacity:1"
         offset="0"
         id="stop3-4" /><stop
         style="stop-color:#07092d;stop-opacity:.28804347"
         offset="1"
         id="stop4-8" /></linearGradient><linearGradient
       x1="82.118591"
       y1="20"
       x2="60"
       y2="40"
       id="t"
       xlink:href="#b"
       gradientUnits="userSpaceOnUse" /><linearGradient
       x1="33"
       y1="35"
       x2="58"
       y2="60"
       id="u"
       xlink:href="#a"
       gradientUnits="userSpaceOnUse"
       gradientTransform="matrix(1.00918,0,0,1.00918,-0.3890738,-0.3831933)" /><linearGradient
       x1="60"
       y1="20"
       x2="90"
       y2="50"
       id="v"
       xlink:href="#a"
       gradientUnits="userSpaceOnUse" /><linearGradient
       x1="231.625"
       y1="195.1875"
       x2="231.75"
       y2="201.5"
       id="A"
       xlink:href="#a"
       gradientUnits="userSpaceOnUse" /><linearGradient
       x1="231.37646"
       y1="195.62132"
       x2="231.37646"
       y2="200.07138"
       id="B"
       xlink:href="#a"
       gradientUnits="userSpaceOnUse" /><linearGradient
       id="j"><stop
         style="stop-color:#fff;stop-opacity:.33004925"
         offset="0"
         id="stop17-6" /><stop
         style="stop-color:#fff;stop-opacity:0"
         offset="1"
         id="stop18" /></linearGradient><linearGradient
       x1="95.5"
       y1="208.16444"
       x2="153.5"
       y2="223.5"
       id="L"
       xlink:href="#a"
       gradientUnits="userSpaceOnUse" /><linearGradient
       x1="57.225197"
       y1="76.246338"
       x2="53.63158"
       y2="84.480316"
       id="M"
       xlink:href="#n"
       gradientUnits="userSpaceOnUse"
       gradientTransform="matrix(0.88526,0,0,0.88526,5.1772151,9.2293372)" /><linearGradient
       id="n"><stop
         style="stop-color:#eeeeec;stop-opacity:1"
         offset="0"
         id="stop25" /><stop
         style="stop-color:#eeeeec;stop-opacity:0"
         offset="1"
         id="stop26" /></linearGradient><linearGradient
       x1="73.712105"
       y1="180.47572"
       x2="82.754066"
       y2="187.65974"
       id="O"
       xlink:href="#a"
       gradientUnits="userSpaceOnUse"
       gradientTransform="matrix(0.4928,0,0,0.4928,-6.0003885,-9.7225182)" /><linearGradient
       id="p"><stop
         style="stop-color:#729fcf;stop-opacity:1"
         offset="0"
         id="stop29" /><stop
         style="stop-color:#729fcf;stop-opacity:0"
         offset="1"
         id="stop30" /></linearGradient><linearGradient
       x1="180.81293"
       y1="217.5"
       x2="153.70045"
       y2="144.5"
       id="P"
       xlink:href="#p"
       gradientUnits="userSpaceOnUse"
       gradientTransform="translate(-130.16572,-83.352786)" /><radialGradient
       cx="116.31038"
       cy="250.89737"
       r="30.599579"
       fx="116.31038"
       fy="250.89737"
       id="w"
       xlink:href="#a"
       gradientUnits="userSpaceOnUse"
       gradientTransform="matrix(1.57005,0,0,1.05093,-75.500107,-22.095908)" /><radialGradient
       cx="132.44434"
       cy="251.99396"
       r="30.599579"
       fx="132.44434"
       fy="251.99396"
       id="x"
       xlink:href="#a"
       gradientUnits="userSpaceOnUse"
       gradientTransform="matrix(2.00325,0,0,1.3409,-132.8752,-95.166065)" /><radialGradient
       cx="210.25"
       cy="168.5"
       r="34.25"
       fx="210.25"
       fy="168.5"
       id="y"
       xlink:href="#a"
       gradientUnits="userSpaceOnUse"
       gradientTransform="matrix(1,0,0,0.42336,0,97.164234)" /><radialGradient
       cx="217.5"
       cy="182.08189"
       r="34.25"
       fx="217.5"
       fy="182.08189"
       id="z"
       xlink:href="#a"
       gradientUnits="userSpaceOnUse"
       gradientTransform="matrix(1,0,0,0.42336,0,97.164234)" /><radialGradient
       cx="228.21875"
       cy="204.83229"
       r="14.09375"
       fx="228.21875"
       fy="204.83229"
       id="C"
       xlink:href="#a"
       gradientUnits="userSpaceOnUse"
       gradientTransform="matrix(1,0,0,0.14775,0,174.56924)" /><radialGradient
       cx="228.21875"
       cy="204.83229"
       r="14.09375"
       fx="228.21875"
       fy="204.83229"
       id="F"
       xlink:href="#a"
       gradientUnits="userSpaceOnUse"
       gradientTransform="matrix(1,0,0,0.14775,0,174.56924)" /><radialGradient
       cx="89.875"
       cy="187.86935"
       r="22.75"
       fx="89.875"
       fy="187.86935"
       id="G"
       xlink:href="#j"
       gradientUnits="userSpaceOnUse"
       gradientTransform="matrix(1,0,0,0.40708,0,115.76014)" /><radialGradient
       cx="90.28125"
       cy="230.83626"
       r="10.46875"
       fx="90.28125"
       fy="230.83626"
       id="J"
       xlink:href="#a"
       gradientUnits="userSpaceOnUse"
       gradientTransform="matrix(1.18507,-0.32836,0.12286,0.4434,-45.068314,152.92161)" /><radialGradient
       cx="68.39994"
       cy="21.225746"
       r="54.783398"
       fx="68.39994"
       fy="21.225746"
       id="K"
       xlink:href="#a"
       gradientUnits="userSpaceOnUse"
       gradientTransform="matrix(1.72215,0,0,1.69498,-49.39526,-14.078057)" /><radialGradient
       cx="181.22731"
       cy="214.55121"
       r="22.466398"
       fx="181.22731"
       fy="214.55121"
       id="N"
       xlink:href="#a"
       gradientUnits="userSpaceOnUse"
       gradientTransform="matrix(1.35152,0,0,1.71757,-63.705646,-153.95568)" /><filter
       id="q"
       color-interpolation-filters="sRGB"
       x="-0.017255854"
       y="-0.017528899"
       width="1.0345117"
       height="1.0350578"><feGaussianBlur
         stdDeviation=".80546496"
         id="feGaussianBlur30" /></filter><filter
       id="r"
       color-interpolation-filters="sRGB"
       x="-0.074775368"
       y="-0.07595855"
       width="1.1495507"
       height="1.1519171"><feGaussianBlur
         stdDeviation="3.4903482"
         id="feGaussianBlur31" /></filter><clipPath
       id="s"><use
         transform="translate(1.01e-6)"
         style="opacity:0.25;fill:#ffffff;fill-opacity:1"
         width="400"
         height="300"
         xlink:href="#d"
         id="use31" /></clipPath><path
       d="M 54.1,12.5 12.9,54.7 C -2.7,70.3 23,69 32.3,74.9 36.6,77.7 18.5,81.3 22.2,85 c 3.6,3.7 21.7,7.1 25.3,10.7 3.6,3.7 -7.3,7.6 -3.7,11.3 3.5,3.7 11.9,0.2 13.4,8.6 1.1,6.2 15.4,3.1 21.8,-2.2 4,-3.4 -6.9,-3.4 -3.3,-7.1 9,-9.1 17,-4.1 20.3,-12.5 1.8,-4.5 -13.6,-7.7 -9.5,-10.6 9.8,-6.9 45.8,-10.4 29.2,-27 L 73,12.5 c -5.3,-5 -14,-5 -18.9,0 z m -9.9,64.7 c 0.9,0 30.8,4 19.3,7.1 -4.4,1.2 -24.6,-7.1 -19.3,-7.1 z m 57.2,16.6 c 0,2.1 16.3,3.3 15.4,-0.5 -1.3,-6.4 -13.6,-5.9 -15.4,0.5 z m -69.5,11.1 c 3.7,3.2 9.3,-0.7 11.1,-5.2 -3.6,-4.7 -16.9,0.3 -11.1,5.2 z m 67.5,-6.7 c -4.6,4.2 0.8,8.6 5.3,5.7 1.2,-0.8 -0.1,-4.7 -5.3,-5.7 z"
       id="d" /></defs><sodipodi:namedview
     id="namedview27"
     pagecolor="#bdbdbd"
     bordercolor="#000000"
     borderopacity="0.25"
     inkscape:showpageshadow="2"
     inkscape:pageopacity="0.0"
     inkscape:pagecheckerboard="true"
     inkscape:deskcolor="#d1d1d1"
     inkscape:zoom="1.6117063"
     inkscape:cx="238.56704"
     inkscape:cy="193.58366"
     inkscape:window-width="1721"
     inkscape:window-height="1032"
     inkscape:window-x="534"
     inkscape:window-y="242"
     inkscape:window-maximized="0"
     inkscape:current-layer="svg27" /><radialGradient
     id="logo-bottom-left"
     cx="0"
     cy="0"
     gradientTransform="matrix(-59,-225,150,-39,161.4,470)"
     gradientUnits="userSpaceOnUse"
     r="1"><stop
       offset="0"
       stop-color="#fff"
       stop-opacity=".4"
       id="stop1" /><stop
       offset="1"
       stop-opacity=".1"
       id="stop2" /></radialGradient><radialGradient
     id="logo-top-right"
     cx="0"
     cy="0"
     gradientTransform="matrix(50,-379,280,37,360,374.2)"
     gradientUnits="userSpaceOnUse"
     r="1"><stop
       offset="0"
       stop-color="#fff"
       stop-opacity=".6"
       id="stop3" /><stop
       offset="1"
       stop-color="#fff"
       stop-opacity=".1"
       id="stop4" /></radialGradient><radialGradient
     id="logo-top-left"
     cx="0"
     cy="0"
     gradientTransform="matrix(69,-319,218,47,175.4,307)"
     gradientUnits="userSpaceOnUse"
     r="1"><stop
       offset="0"
       stop-color="#fff"
       stop-opacity=".8"
       id="stop5" /><stop
       offset="1"
       stop-color="#fff"
       stop-opacity=".4"
       id="stop6" /></radialGradient><radialGradient
     id="logo-bottom-right"
     cx="0"
     cy="0"
     gradientTransform="matrix(-96,-163,187,-111,335.3,512.2)"
     gradientUnits="userSpaceOnUse"
     r="1"><stop
       offset="0"
       stop-color="#fff"
       stop-opacity=".3"
       id="stop7" /><stop
       offset="1"
       stop-opacity=".3"
       id="stop8" /></radialGradient><radialGradient
     id="logo-top-edge"
     cx="0"
     cy="0"
     gradientTransform="matrix(-36,166,-112,-24,310,128.2)"
     gradientUnits="userSpaceOnUse"
     r="1"><stop
       offset="0"
       stop-color="#fff"
       stop-opacity="0"
       id="stop9" /><stop
       offset="1"
       stop-color="#fff"
       stop-opacity=".2"
       id="stop10" /></radialGradient><radialGradient
     id="logo-left-edge"
     cx="0"
     cy="0"
     gradientTransform="matrix(88,89,-190,187,111,220.2)"
     gradientUnits="userSpaceOnUse"
     r="1"><stop
       offset="0"
       stop-color="#fff"
       stop-opacity=".2"
       id="stop11" /><stop
       offset="1"
       stop-color="#fff"
       stop-opacity=".4"
       id="stop12" /></radialGradient><radialGradient
     id="logo-bottom-edge"
     cx="0"
     cy="0"
     gradientTransform="matrix(9,130,-276,20,215,284)"
     gradientUnits="userSpaceOnUse"
     r="1"><stop
       offset="0"
       stop-color="#fff"
       stop-opacity=".2"
       id="stop13" /><stop
       offset="1"
       stop-color="#fff"
       stop-opacity=".3"
       id="stop14" /></radialGradient><radialGradient
     id="logo-middle-edge"
     cx="0"
     cy="0"
     gradientTransform="matrix(-198,-104,327,-623,400,399.2)"
     gradientUnits="userSpaceOnUse"
     r="1"><stop
       offset="0"
       stop-color="#fff"
       stop-opacity=".2"
       id="stop15" /><stop
       offset=".5"
       stop-color="#fff"
       stop-opacity=".2"
       id="stop16" /><stop
       offset="1"
       stop-color="#fff"
       stop-opacity=".3"
       id="stop17" /></radialGradient><clipPath
     id="clip"><path
       d="m 0.2,0.2 h 512 v 512 H 0.2 Z"
       id="path17" /></clipPath><style
     type="text/css"
     id="style1">
	.st0{fill-rule:evenodd;clip-rule:evenodd;fill:#FF4088;stroke:#C9177E;stroke-width:27;}
	.st1{fill-rule:evenodd;clip-rule:evenodd;fill:#FFFFFF;}
</style><g
     id="g15"
     transform="matrix(0.65002872,0,0,0.65002872,-129.16686,-324.49038)"><circle
       style="fill:#ffffff;fill-opacity:1;stroke-width:11.3386;stroke-linecap:round"
       id="path14-8"
       cx="429.46851"
       cy="729.95294"
       r="230.75903" /><g
       clip-path="url(#clip)"
       id="obsidian"
       transform="matrix(0.76086753,0,0,0.76086753,227.93548,536.00327)"><path
         d="m 382.3,475.6 c -3.1,23.4 -26,41.6 -48.7,35.3 C 301.2,502 263.7,488.1 230,485.5 l -51.7,-4 a 34,34 0 0 1 -22,-10.2 l -89,-91.7 a 34,34 0 0 1 -6.7,-37.7 c 0,0 55,-121 57.1,-127.3 2,-6.3 9.6,-61.2 14,-90.6 1.2,-7.9 5,-15 11,-20.3 L 248,8.9 a 34.1,34.1 0 0 1 49.6,4.3 L 386,125.6 a 37,37 0 0 1 7.6,22.4 c 0,21.3 1.8,65 13.6,93.2 11.5,27.3 32.5,57 43.5,71.5 a 17.3,17.3 0 0 1 1.3,19.2 1494,1494 0 0 1 -44.8,70.6 c -15,22.3 -21.9,49.9 -25,73.1 z"
         fill="#6c31e3"
         id="path18" /><path
         d="m 165.9,478.3 c 41.4,-84 40.2,-144.2 22.6,-187 -16.2,-39.6 -46.3,-64.5 -70,-80 -0.6,2.3 -1.3,4.4 -2.2,6.5 L 60.6,342 a 34,34 0 0 0 6.6,37.7 l 89.1,91.7 a 34,34 0 0 0 9.6,7 z"
         fill="url(#logo-bottom-left)"
         id="path19"
         style="fill:url(#logo-bottom-left)" /><path
         d="m 278.4,307.8 c 11.2,1.2 22.2,3.6 32.8,7.6 34,12.7 65,41.2 90.5,96.3 1.8,-3.1 3.6,-6.2 5.6,-9.2 a 1536,1536 0 0 0 44.8,-70.6 17,17 0 0 0 -1.3,-19.2 c -11,-14.6 -32,-44.2 -43.5,-71.5 -11.8,-28.2 -13.5,-72 -13.6,-93.2 0,-8.1 -2.6,-16 -7.6,-22.4 L 297.6,13.2 a 34,34 0 0 0 -1.5,-1.7 96,96 0 0 1 2,54 198.3,198.3 0 0 1 -17.6,41.3 l -7.2,14.2 a 171,171 0 0 0 -19.4,71 c -1.2,29.4 4.8,66.4 24.5,115.8 z"
         fill="url(#logo-top-right)"
         id="path20"
         style="fill:url(#logo-top-right)" /><path
         d="M 278.4,307.8 C 258.7,258.4 252.6,221.4 253.9,191.9 a 171,171 0 0 1 19.4,-71 c 2.3,-4.8 4.8,-9.5 7.2,-14.1 7.1,-13.9 14,-27 17.6,-41.4 a 96,96 0 0 0 -2,-54 A 34.1,34.1 0 0 0 248,9 l -105.4,94.8 a 34.1,34.1 0 0 0 -10.9,20.3 l -12.8,85 -0.5,2.3 c 23.8,15.5 54,40.4 70.1,80 a 147,147 0 0 1 7.8,24.8 c 28,-6.8 55.7,-11 82.1,-8.3 z"
         fill="url(#logo-top-left)"
         id="path21"
         style="fill:url(#logo-top-left)" /><path
         d="m 333.6,511 c 22.7,6.2 45.6,-12 48.7,-35.4 a 187,187 0 0 1 19.4,-63.9 c -25.6,-55 -56.5,-83.6 -90.4,-96.3 -36,-13.4 -75.2,-9 -115,0.7 8.9,40.4 3.6,93.3 -30.4,162.2 4,1.8 8.1,3 12.5,3.3 0,0 24.4,2 53.6,4.1 29,2 72.4,17.1 101.6,25.2 z"
         fill="url(#logo-bottom-right)"
         id="path22"
         style="fill:url(#logo-bottom-right)" /><g
         clip-rule="evenodd"
         fill-rule="evenodd"
         id="g26"><path
           d="m 254.1,190 c -1.3,29.2 2.4,62.8 22.1,112.1 L 270,301.6 C 252.3,250.1 248.5,223.6 249.8,194 a 174.7,174.7 0 0 1 20.4,-72 c 2.4,-4.9 8,-14.1 10.5,-18.8 7.1,-13.7 11.9,-21 16,-33.6 5.7,-17.5 4.5,-25.9 3.8,-34.1 4.6,29.9 -12.7,56 -25.7,82.4 a 177.1,177.1 0 0 0 -20.7,72 z"
           fill="url(#logo-top-edge)"
           id="path23"
           style="fill:url(#logo-top-edge)" /><path
           d="m 194.3,293.4 c 2.4,5.4 4.6,9.8 6,16.5 L 195,311 c -2.1,-7.8 -3.8,-13.4 -6.8,-20 -17.8,-42 -46.3,-63.6 -69.7,-79.5 28.2,15.2 57.2,39 75.7,81.9 z"
           fill="url(#logo-left-edge)"
           id="path24"
           style="fill:url(#logo-left-edge)" /><path
           d="m 200.6,315.1 c 9.8,46 -1.2,104.2 -33.6,160.9 27.1,-56.2 40.2,-110.1 29.3,-160 z"
           fill="url(#logo-bottom-edge)"
           id="path25"
           style="fill:url(#logo-bottom-edge)" /><path
           d="m 312.5,311 c 53.1,19.9 73.6,63.6 88.9,100 -19,-38.1 -45.2,-80.3 -90.8,-96 -34.8,-11.8 -64.1,-10.4 -114.3,1 l -1.1,-5 c 53.2,-12.1 81,-13.5 117.3,0 z"
           fill="url(#logo-middle-edge)"
           id="path26"
           style="fill:url(#logo-middle-edge)" /></g></g></g></svg>
