<?xml version="1.0" encoding="UTF-8" standalone="no"?>
<svg
   fill="none"
   height="373.88171"
   width="373.88171"
   viewBox="0 0 373.88171 373.88171"
   version="1.1"
   id="svg27"
   sodipodi:docname="logo-github.svg"
   xml:space="preserve"
   inkscape:version="1.4.2 (f4327f4, 2025-05-13)"
   xmlns:inkscape="http://www.inkscape.org/namespaces/inkscape"
   xmlns:sodipodi="http://sodipodi.sourceforge.net/DTD/sodipodi-0.dtd"
   xmlns:xlink="http://www.w3.org/1999/xlink"
   xmlns="http://www.w3.org/2000/svg"
   xmlns:svg="http://www.w3.org/2000/svg"><defs
     id="defs27"><clipPath
       id="clip0_235_8"><rect
         width="512"
         height="208.12601"
         fill="#ffffff"
         id="rect13"
         x="0"
         y="0" /></clipPath><linearGradient
       id="a"
       gradientUnits="userSpaceOnUse"><stop
         style="stop-color:#fff;stop-opacity:1"
         offset="0"
         id="stop1-0" /><stop
         style="stop-color:#fff;stop-opacity:0"
         offset="1"
         id="stop2-9" /></linearGradient><linearGradient
       id="b"
       gradientUnits="userSpaceOnUse"><stop
         style="stop-color:#c0cdf9;stop-opacity:1"
         offset="0"
         id="stop3-4" /><stop
         style="stop-color:#07092d;stop-opacity:.28804347"
         offset="1"
         id="stop4-8" /></linearGradient><linearGradient
       x1="82.118591"
       y1="20"
       x2="60"
       y2="40"
       id="t"
       xlink:href="#b"
       gradientUnits="userSpaceOnUse" /><linearGradient
       x1="33"
       y1="35"
       x2="58"
       y2="60"
       id="u"
       xlink:href="#a"
       gradientUnits="userSpaceOnUse"
       gradientTransform="matrix(1.00918,0,0,1.00918,-0.3890738,-0.3831933)" /><linearGradient
       x1="60"
       y1="20"
       x2="90"
       y2="50"
       id="v"
       xlink:href="#a"
       gradientUnits="userSpaceOnUse" /><linearGradient
       x1="231.625"
       y1="195.1875"
       x2="231.75"
       y2="201.5"
       id="A"
       xlink:href="#a"
       gradientUnits="userSpaceOnUse" /><linearGradient
       x1="231.37646"
       y1="195.62132"
       x2="231.37646"
       y2="200.07138"
       id="B"
       xlink:href="#a"
       gradientUnits="userSpaceOnUse" /><linearGradient
       id="j"><stop
         style="stop-color:#fff;stop-opacity:.33004925"
         offset="0"
         id="stop17-6" /><stop
         style="stop-color:#fff;stop-opacity:0"
         offset="1"
         id="stop18" /></linearGradient><linearGradient
       x1="95.5"
       y1="208.16444"
       x2="153.5"
       y2="223.5"
       id="L"
       xlink:href="#a"
       gradientUnits="userSpaceOnUse" /><linearGradient
       x1="57.225197"
       y1="76.246338"
       x2="53.63158"
       y2="84.480316"
       id="M"
       xlink:href="#n"
       gradientUnits="userSpaceOnUse"
       gradientTransform="matrix(0.88526,0,0,0.88526,5.1772151,9.2293372)" /><linearGradient
       id="n"><stop
         style="stop-color:#eeeeec;stop-opacity:1"
         offset="0"
         id="stop25" /><stop
         style="stop-color:#eeeeec;stop-opacity:0"
         offset="1"
         id="stop26" /></linearGradient><linearGradient
       x1="73.712105"
       y1="180.47572"
       x2="82.754066"
       y2="187.65974"
       id="O"
       xlink:href="#a"
       gradientUnits="userSpaceOnUse"
       gradientTransform="matrix(0.4928,0,0,0.4928,-6.0003885,-9.7225182)" /><linearGradient
       id="p"><stop
         style="stop-color:#729fcf;stop-opacity:1"
         offset="0"
         id="stop29" /><stop
         style="stop-color:#729fcf;stop-opacity:0"
         offset="1"
         id="stop30" /></linearGradient><linearGradient
       x1="180.81293"
       y1="217.5"
       x2="153.70045"
       y2="144.5"
       id="P"
       xlink:href="#p"
       gradientUnits="userSpaceOnUse"
       gradientTransform="translate(-130.16572,-83.352786)" /><radialGradient
       cx="116.31038"
       cy="250.89737"
       r="30.599579"
       fx="116.31038"
       fy="250.89737"
       id="w"
       xlink:href="#a"
       gradientUnits="userSpaceOnUse"
       gradientTransform="matrix(1.57005,0,0,1.05093,-75.500107,-22.095908)" /><radialGradient
       cx="132.44434"
       cy="251.99396"
       r="30.599579"
       fx="132.44434"
       fy="251.99396"
       id="x"
       xlink:href="#a"
       gradientUnits="userSpaceOnUse"
       gradientTransform="matrix(2.00325,0,0,1.3409,-132.8752,-95.166065)" /><radialGradient
       cx="210.25"
       cy="168.5"
       r="34.25"
       fx="210.25"
       fy="168.5"
       id="y"
       xlink:href="#a"
       gradientUnits="userSpaceOnUse"
       gradientTransform="matrix(1,0,0,0.42336,0,97.164234)" /><radialGradient
       cx="217.5"
       cy="182.08189"
       r="34.25"
       fx="217.5"
       fy="182.08189"
       id="z"
       xlink:href="#a"
       gradientUnits="userSpaceOnUse"
       gradientTransform="matrix(1,0,0,0.42336,0,97.164234)" /><radialGradient
       cx="228.21875"
       cy="204.83229"
       r="14.09375"
       fx="228.21875"
       fy="204.83229"
       id="C"
       xlink:href="#a"
       gradientUnits="userSpaceOnUse"
       gradientTransform="matrix(1,0,0,0.14775,0,174.56924)" /><radialGradient
       cx="228.21875"
       cy="204.83229"
       r="14.09375"
       fx="228.21875"
       fy="204.83229"
       id="F"
       xlink:href="#a"
       gradientUnits="userSpaceOnUse"
       gradientTransform="matrix(1,0,0,0.14775,0,174.56924)" /><radialGradient
       cx="89.875"
       cy="187.86935"
       r="22.75"
       fx="89.875"
       fy="187.86935"
       id="G"
       xlink:href="#j"
       gradientUnits="userSpaceOnUse"
       gradientTransform="matrix(1,0,0,0.40708,0,115.76014)" /><radialGradient
       cx="90.28125"
       cy="230.83626"
       r="10.46875"
       fx="90.28125"
       fy="230.83626"
       id="J"
       xlink:href="#a"
       gradientUnits="userSpaceOnUse"
       gradientTransform="matrix(1.18507,-0.32836,0.12286,0.4434,-45.068314,152.92161)" /><radialGradient
       cx="68.39994"
       cy="21.225746"
       r="54.783398"
       fx="68.39994"
       fy="21.225746"
       id="K"
       xlink:href="#a"
       gradientUnits="userSpaceOnUse"
       gradientTransform="matrix(1.72215,0,0,1.69498,-49.39526,-14.078057)" /><radialGradient
       cx="181.22731"
       cy="214.55121"
       r="22.466398"
       fx="181.22731"
       fy="214.55121"
       id="N"
       xlink:href="#a"
       gradientUnits="userSpaceOnUse"
       gradientTransform="matrix(1.35152,0,0,1.71757,-63.705646,-153.95568)" /><filter
       id="q"
       color-interpolation-filters="sRGB"
       x="-0.017255854"
       y="-0.017528899"
       width="1.0345117"
       height="1.0350578"><feGaussianBlur
         stdDeviation=".80546496"
         id="feGaussianBlur30" /></filter><filter
       id="r"
       color-interpolation-filters="sRGB"
       x="-0.074775368"
       y="-0.07595855"
       width="1.1495507"
       height="1.1519171"><feGaussianBlur
         stdDeviation="3.4903482"
         id="feGaussianBlur31" /></filter><clipPath
       id="s"><use
         transform="translate(1.01e-6)"
         style="opacity:0.25;fill:#ffffff;fill-opacity:1"
         width="400"
         height="300"
         xlink:href="#d"
         id="use31" /></clipPath><path
       d="M 54.1,12.5 12.9,54.7 C -2.7,70.3 23,69 32.3,74.9 36.6,77.7 18.5,81.3 22.2,85 c 3.6,3.7 21.7,7.1 25.3,10.7 3.6,3.7 -7.3,7.6 -3.7,11.3 3.5,3.7 11.9,0.2 13.4,8.6 1.1,6.2 15.4,3.1 21.8,-2.2 4,-3.4 -6.9,-3.4 -3.3,-7.1 9,-9.1 17,-4.1 20.3,-12.5 1.8,-4.5 -13.6,-7.7 -9.5,-10.6 9.8,-6.9 45.8,-10.4 29.2,-27 L 73,12.5 c -5.3,-5 -14,-5 -18.9,0 z m -9.9,64.7 c 0.9,0 30.8,4 19.3,7.1 -4.4,1.2 -24.6,-7.1 -19.3,-7.1 z m 57.2,16.6 c 0,2.1 16.3,3.3 15.4,-0.5 -1.3,-6.4 -13.6,-5.9 -15.4,0.5 z m -69.5,11.1 c 3.7,3.2 9.3,-0.7 11.1,-5.2 -3.6,-4.7 -16.9,0.3 -11.1,5.2 z m 67.5,-6.7 c -4.6,4.2 0.8,8.6 5.3,5.7 1.2,-0.8 -0.1,-4.7 -5.3,-5.7 z"
       id="d" /></defs><sodipodi:namedview
     id="namedview27"
     pagecolor="#ffffff"
     bordercolor="#000000"
     borderopacity="0.25"
     inkscape:showpageshadow="2"
     inkscape:pageopacity="0.0"
     inkscape:pagecheckerboard="0"
     inkscape:deskcolor="#d1d1d1"
     inkscape:zoom="0.40292658"
     inkscape:cx="775.57554"
     inkscape:cy="218.40207"
     inkscape:window-width="1435"
     inkscape:window-height="1032"
     inkscape:window-x="892"
     inkscape:window-y="292"
     inkscape:window-maximized="0"
     inkscape:current-layer="svg27" /><radialGradient
     id="logo-bottom-left"
     cx="0"
     cy="0"
     gradientTransform="matrix(-59,-225,150,-39,161.4,470)"
     gradientUnits="userSpaceOnUse"
     r="1"><stop
       offset="0"
       stop-color="#fff"
       stop-opacity=".4"
       id="stop1" /><stop
       offset="1"
       stop-opacity=".1"
       id="stop2" /></radialGradient><radialGradient
     id="logo-top-right"
     cx="0"
     cy="0"
     gradientTransform="matrix(50,-379,280,37,360,374.2)"
     gradientUnits="userSpaceOnUse"
     r="1"><stop
       offset="0"
       stop-color="#fff"
       stop-opacity=".6"
       id="stop3" /><stop
       offset="1"
       stop-color="#fff"
       stop-opacity=".1"
       id="stop4" /></radialGradient><radialGradient
     id="logo-top-left"
     cx="0"
     cy="0"
     gradientTransform="matrix(69,-319,218,47,175.4,307)"
     gradientUnits="userSpaceOnUse"
     r="1"><stop
       offset="0"
       stop-color="#fff"
       stop-opacity=".8"
       id="stop5" /><stop
       offset="1"
       stop-color="#fff"
       stop-opacity=".4"
       id="stop6" /></radialGradient><radialGradient
     id="logo-bottom-right"
     cx="0"
     cy="0"
     gradientTransform="matrix(-96,-163,187,-111,335.3,512.2)"
     gradientUnits="userSpaceOnUse"
     r="1"><stop
       offset="0"
       stop-color="#fff"
       stop-opacity=".3"
       id="stop7" /><stop
       offset="1"
       stop-opacity=".3"
       id="stop8" /></radialGradient><radialGradient
     id="logo-top-edge"
     cx="0"
     cy="0"
     gradientTransform="matrix(-36,166,-112,-24,310,128.2)"
     gradientUnits="userSpaceOnUse"
     r="1"><stop
       offset="0"
       stop-color="#fff"
       stop-opacity="0"
       id="stop9" /><stop
       offset="1"
       stop-color="#fff"
       stop-opacity=".2"
       id="stop10" /></radialGradient><radialGradient
     id="logo-left-edge"
     cx="0"
     cy="0"
     gradientTransform="matrix(88,89,-190,187,111,220.2)"
     gradientUnits="userSpaceOnUse"
     r="1"><stop
       offset="0"
       stop-color="#fff"
       stop-opacity=".2"
       id="stop11" /><stop
       offset="1"
       stop-color="#fff"
       stop-opacity=".4"
       id="stop12" /></radialGradient><radialGradient
     id="logo-bottom-edge"
     cx="0"
     cy="0"
     gradientTransform="matrix(9,130,-276,20,215,284)"
     gradientUnits="userSpaceOnUse"
     r="1"><stop
       offset="0"
       stop-color="#fff"
       stop-opacity=".2"
       id="stop13" /><stop
       offset="1"
       stop-color="#fff"
       stop-opacity=".3"
       id="stop14" /></radialGradient><radialGradient
     id="logo-middle-edge"
     cx="0"
     cy="0"
     gradientTransform="matrix(-198,-104,327,-623,400,399.2)"
     gradientUnits="userSpaceOnUse"
     r="1"><stop
       offset="0"
       stop-color="#fff"
       stop-opacity=".2"
       id="stop15" /><stop
       offset=".5"
       stop-color="#fff"
       stop-opacity=".2"
       id="stop16" /><stop
       offset="1"
       stop-color="#fff"
       stop-opacity=".3"
       id="stop17" /></radialGradient><clipPath
     id="clip"><path
       d="m 0.2,0.2 h 512 v 512 H 0.2 Z"
       id="path17" /></clipPath><style
     type="text/css"
     id="style1">
	.st0{fill-rule:evenodd;clip-rule:evenodd;fill:#FF4088;stroke:#C9177E;stroke-width:27;}
	.st1{fill-rule:evenodd;clip-rule:evenodd;fill:#FFFFFF;}
</style><g
     id="g19"
     transform="matrix(0.81011286,0,0,0.81011286,-40.799299,-78.451178)"><circle
       style="fill:#ffffff;fill-opacity:1;stroke-width:11.3386;stroke-linecap:round"
       id="path14"
       cx="281.12152"
       cy="327.59885"
       r="230.75903" /><path
       d="m 279.57795,151.44032 c -99.03535,0 -174.61493,75.14524 -174.61493,173.96338 0,79.16311 49.73483,146.92412 120.86218,170.81422 9.23027,1.62887 12.48801,-4.01788 12.48801,-8.68731 0,-4.34365 -0.21719,-28.8853 -0.21719,-43.87091 0,0 -50.16921,10.75054 -60.59398,-21.28391 0,0 -8.14435,-20.63236 -19.76363,-26.06193 0,0 -16.2887,-11.18491 1.19451,-10.96773 0,0 17.70039,1.41169 27.47361,18.46054 15.63716,27.69079 41.80768,19.65503 52.12386,14.98561 1.62887,-11.4021 6.2983,-19.43786 11.40209,-23.9987 -39.96162,-4.34365 -80.24902,-10.20759 -80.24902,-78.72874 0,-19.65503 5.42957,-29.42826 16.83167,-42.13345 -1.84606,-4.66943 -8.03577,-23.8901 1.84605,-48.54034 15.0942,-4.66943 49.30048,19.22067 49.30048,19.22067 14.22547,-3.80069 29.64545,-5.97252 44.84825,-5.97252 15.2028,0 30.73136,2.17183 44.95683,5.97252 0,0 34.31487,-23.8901 49.30048,-19.22067 9.77322,24.86742 3.58352,43.87091 1.73746,48.54034 11.4021,12.5966 18.46054,22.47842 18.46054,42.13345 0,68.95552 -42.13345,74.38509 -81.98649,78.72874 6.62408,5.64675 12.27083,16.28871 12.27083,33.12037 0,24.10728 -0.21718,53.96991 -0.21718,59.72525 0,4.56084 3.25774,10.20759 12.27082,8.57872 71.12734,-23.8901 119.4505,-91.65111 119.4505,-170.81422 0,-98.81814 -80.14043,-173.96338 -179.17575,-173.96338 z m -109.89449,239.76975 -3.04055,0.65155 1.62887,2.71478 3.04055,-0.54296 z m 6.40689,5.97252 -1.84605,0.43437 0.43437,3.8007 3.80069,0.54295 -0.43436,-3.80069 z m 7.49281,9.23027 -2.17183,0.21718 v 4.23507 l 4.01788,1.62887 v -4.34366 z m 8.25294,9.9904 -2.06323,0.76014 0.97732,4.34366 4.56084,0.65155 -0.97733,-4.45225 z m 13.79111,8.03577 -4.34366,1.62887 3.04056,3.47492 4.34365,-1.41169 z m 27.03925,0.65154 -3.25774,3.36634 4.23506,1.73746 3.25774,-3.25774 z m -13.24815,1.52028 -3.8007,2.71479 c 0,1.62887 1.62887,2.82337 4.01788,2.60619 l 3.8007,-2.60619 z"
       id="github"
       sodipodi:nodetypes="sscscccccccscccscccscsscsscccccccccccccccccccccccccccccccccccccc"
       style="fill:#4d4d4d;fill-opacity:1;stroke:none;stroke-width:1.08591" /></g></svg>
