<?xml version="1.0" encoding="UTF-8" standalone="no"?>
<svg
   fill="none"
   height="1000"
   width="1620"
   viewBox="0 0 1620 999.99999"
   version="1.1"
   id="svg27"
   sodipodi:docname="new-blog.svg"
   xml:space="preserve"
   inkscape:version="1.4.2 (f4327f4, 2025-05-13)"
   xmlns:inkscape="http://www.inkscape.org/namespaces/inkscape"
   xmlns:sodipodi="http://sodipodi.sourceforge.net/DTD/sodipodi-0.dtd"
   xmlns="http://www.w3.org/2000/svg"
   xmlns:svg="http://www.w3.org/2000/svg"><defs
     id="defs27"><clipPath
       id="clip0_235_8"><rect
         width="512"
         height="208.12601"
         fill="#ffffff"
         id="rect13"
         x="0"
         y="0" /></clipPath></defs><sodipodi:namedview
     id="namedview27"
     pagecolor="#ffffff"
     bordercolor="#000000"
     borderopacity="0.25"
     inkscape:showpageshadow="2"
     inkscape:pageopacity="0.0"
     inkscape:pagecheckerboard="0"
     inkscape:deskcolor="#d1d1d1"
     inkscape:zoom="0.80585316"
     inkscape:cx="944.34078"
     inkscape:cy="672.57911"
     inkscape:window-width="1368"
     inkscape:window-height="1008"
     inkscape:window-x="1178"
     inkscape:window-y="293"
     inkscape:window-maximized="0"
     inkscape:current-layer="svg27" /><radialGradient
     id="logo-bottom-left"
     cx="0"
     cy="0"
     gradientTransform="matrix(-59,-225,150,-39,161.4,470)"
     gradientUnits="userSpaceOnUse"
     r="1"><stop
       offset="0"
       stop-color="#fff"
       stop-opacity=".4"
       id="stop1" /><stop
       offset="1"
       stop-opacity=".1"
       id="stop2" /></radialGradient><radialGradient
     id="logo-top-right"
     cx="0"
     cy="0"
     gradientTransform="matrix(50,-379,280,37,360,374.2)"
     gradientUnits="userSpaceOnUse"
     r="1"><stop
       offset="0"
       stop-color="#fff"
       stop-opacity=".6"
       id="stop3" /><stop
       offset="1"
       stop-color="#fff"
       stop-opacity=".1"
       id="stop4" /></radialGradient><radialGradient
     id="logo-top-left"
     cx="0"
     cy="0"
     gradientTransform="matrix(69,-319,218,47,175.4,307)"
     gradientUnits="userSpaceOnUse"
     r="1"><stop
       offset="0"
       stop-color="#fff"
       stop-opacity=".8"
       id="stop5" /><stop
       offset="1"
       stop-color="#fff"
       stop-opacity=".4"
       id="stop6" /></radialGradient><radialGradient
     id="logo-bottom-right"
     cx="0"
     cy="0"
     gradientTransform="matrix(-96,-163,187,-111,335.3,512.2)"
     gradientUnits="userSpaceOnUse"
     r="1"><stop
       offset="0"
       stop-color="#fff"
       stop-opacity=".3"
       id="stop7" /><stop
       offset="1"
       stop-opacity=".3"
       id="stop8" /></radialGradient><radialGradient
     id="logo-top-edge"
     cx="0"
     cy="0"
     gradientTransform="matrix(-36,166,-112,-24,310,128.2)"
     gradientUnits="userSpaceOnUse"
     r="1"><stop
       offset="0"
       stop-color="#fff"
       stop-opacity="0"
       id="stop9" /><stop
       offset="1"
       stop-color="#fff"
       stop-opacity=".2"
       id="stop10" /></radialGradient><radialGradient
     id="logo-left-edge"
     cx="0"
     cy="0"
     gradientTransform="matrix(88,89,-190,187,111,220.2)"
     gradientUnits="userSpaceOnUse"
     r="1"><stop
       offset="0"
       stop-color="#fff"
       stop-opacity=".2"
       id="stop11" /><stop
       offset="1"
       stop-color="#fff"
       stop-opacity=".4"
       id="stop12" /></radialGradient><radialGradient
     id="logo-bottom-edge"
     cx="0"
     cy="0"
     gradientTransform="matrix(9,130,-276,20,215,284)"
     gradientUnits="userSpaceOnUse"
     r="1"><stop
       offset="0"
       stop-color="#fff"
       stop-opacity=".2"
       id="stop13" /><stop
       offset="1"
       stop-color="#fff"
       stop-opacity=".3"
       id="stop14" /></radialGradient><radialGradient
     id="logo-middle-edge"
     cx="0"
     cy="0"
     gradientTransform="matrix(-198,-104,327,-623,400,399.2)"
     gradientUnits="userSpaceOnUse"
     r="1"><stop
       offset="0"
       stop-color="#fff"
       stop-opacity=".2"
       id="stop15" /><stop
       offset=".5"
       stop-color="#fff"
       stop-opacity=".2"
       id="stop16" /><stop
       offset="1"
       stop-color="#fff"
       stop-opacity=".3"
       id="stop17" /></radialGradient><clipPath
     id="clip"><path
       d="m 0.2,0.2 h 512 v 512 H 0.2 Z"
       id="path17" /></clipPath><rect
     style="fill:#808080;fill-opacity:0.25112107;stroke-width:10.7112;stroke-linecap:round"
     id="rect1"
     width="1617.9608"
     height="1007.4278"
     x="0.2"
     y="0.2"
     ry="0" /><style
     type="text/css"
     id="style1">
	.st0{fill-rule:evenodd;clip-rule:evenodd;fill:#FF4088;stroke:#C9177E;stroke-width:27;}
	.st1{fill-rule:evenodd;clip-rule:evenodd;fill:#FFFFFF;}
</style><g
     id="g2"><g
       id="g17"
       transform="translate(45.482849,-64.336576)"><circle
         style="fill:#ffffff;fill-opacity:1;stroke-width:11.3386;stroke-linecap:round"
         id="path14-2"
         cx="764.51715"
         cy="317.96719"
         r="230.75903" /><g
         id="hugo"
         transform="matrix(0.99518837,0,0,0.99518837,581.96721,123.96594)"><path
           class="st0"
           d="M 207.5,22.4 321.9,89 c 13.5,7.9 21.9,22.4 21.9,38 v 136.4 c 0,17.3 -9.3,33.3 -24.5,41.8 l -113.5,63.9 c -15.1,8.5 -33.5,8.4 -48.5,-0.2 L 52.8,308.8 C 36.4,299.3 26.2,281.8 26.2,262.9 V 133.4 c 0,-19.1 9.9,-36.8 26.1,-46.8 L 155.1,23.1 c 16,-9.9 36.2,-10.1 52.4,-0.7 z"
           id="path1" /><polygon
           class="st1"
           points="220.9,298.2 220.9,207.6 149,207.6 149,298.2 105.6,298.2 105.6,91 149,91 149,166.5 220.9,166.5 220.9,91 264.4,91 264.4,298.2 "
           id="polygon1" /></g></g><g
       id="g16"
       transform="translate(-258.37385,-7.5304565)"><circle
         style="fill:#ffffff;fill-opacity:1;stroke-width:11.3386;stroke-linecap:round"
         id="path14-9"
         cx="1072.2655"
         cy="754.77136"
         r="230.75903" /><g
         id="g14"
         transform="matrix(1.4054844,0,0,1.4054844,-431.08519,-322.48037)"><text
           xml:space="preserve"
           style="font-style:normal;font-variant:normal;font-weight:normal;font-stretch:normal;font-size:248.393px;font-family:Arial;-inkscape-font-specification:'Arial, Normal';font-variant-ligatures:normal;font-variant-caps:normal;font-variant-numeric:normal;font-variant-east-asian:normal;text-align:start;writing-mode:lr-tb;direction:ltr;text-anchor:start;fill:#000000;fill-opacity:1;stroke:none;stroke-width:9.14491;stroke-linecap:round"
           x="938.20239"
           y="755.5249"
           id="text28"><tspan
             sodipodi:role="line"
             id="tspan28"
             x="938.20239"
             y="755.5249"
             style="font-style:normal;font-variant:normal;font-weight:normal;font-stretch:normal;font-size:51.6178px;font-family:'Lucida Sans';-inkscape-font-specification:'Lucida Sans, Normal';font-variant-ligatures:normal;font-variant-caps:normal;font-variant-numeric:normal;font-variant-east-asian:normal;fill:#000000;fill-opacity:1;stroke-width:9.14491">Stack</tspan></text><text
           xml:space="preserve"
           style="font-style:normal;font-variant:normal;font-weight:normal;font-stretch:normal;font-size:25.4815px;font-family:'Yu Gothic';-inkscape-font-specification:'Yu Gothic, Normal';font-variant-ligatures:normal;font-variant-caps:normal;font-variant-numeric:normal;font-variant-east-asian:normal;text-align:start;writing-mode:lr-tb;direction:ltr;text-anchor:start;fill:#3a3a3a;fill-opacity:1;stroke:none;stroke-width:4.51444;stroke-linecap:round"
           x="938.94348"
           y="789.09735"
           id="text29"><tspan
             sodipodi:role="line"
             id="tspan29"
             x="938.94348"
             y="789.09735"
             style="fill:#3a3a3a;fill-opacity:1;stroke-width:4.51444">Card-style Hugo theme</tspan></text><text
           xml:space="preserve"
           style="font-style:normal;font-variant:normal;font-weight:normal;font-stretch:normal;font-size:25.4815px;font-family:'Yu Gothic';-inkscape-font-specification:'Yu Gothic, Normal';font-variant-ligatures:normal;font-variant-caps:normal;font-variant-numeric:normal;font-variant-east-asian:normal;text-align:start;writing-mode:lr-tb;direction:ltr;text-anchor:start;fill:#3a3a3a;fill-opacity:1;stroke:none;stroke-width:4.51444;stroke-linecap:round"
           x="938.99335"
           y="820.96484"
           id="text30"><tspan
             sodipodi:role="line"
             id="tspan30"
             x="938.99335"
             y="820.96484"
             style="fill:#3a3a3a;fill-opacity:1;stroke-width:4.51444">designed for bloggers</tspan></text></g></g></g><g
     id="g1"
     transform="translate(24)"><g
       id="g19"
       transform="translate(9.2143713,-73.968229)"><circle
         style="fill:#ffffff;fill-opacity:1;stroke-width:11.3386;stroke-linecap:round"
         id="path14"
         cx="281.12152"
         cy="327.59885"
         r="230.75903" /><path
         d="m 279.57795,151.44032 c -99.03535,0 -174.61493,75.14524 -174.61493,173.96338 0,79.16311 49.73483,146.92412 120.86218,170.81422 9.23027,1.62887 12.48801,-4.01788 12.48801,-8.68731 0,-4.34365 -0.21719,-28.8853 -0.21719,-43.87091 0,0 -50.16921,10.75054 -60.59398,-21.28391 0,0 -8.14435,-20.63236 -19.76363,-26.06193 0,0 -16.2887,-11.18491 1.19451,-10.96773 0,0 17.70039,1.41169 27.47361,18.46054 15.63716,27.69079 41.80768,19.65503 52.12386,14.98561 1.62887,-11.4021 6.2983,-19.43786 11.40209,-23.9987 -39.96162,-4.34365 -80.24902,-10.20759 -80.24902,-78.72874 0,-19.65503 5.42957,-29.42826 16.83167,-42.13345 -1.84606,-4.66943 -8.03577,-23.8901 1.84605,-48.54034 15.0942,-4.66943 49.30048,19.22067 49.30048,19.22067 14.22547,-3.80069 29.64545,-5.97252 44.84825,-5.97252 15.2028,0 30.73136,2.17183 44.95683,5.97252 0,0 34.31487,-23.8901 49.30048,-19.22067 9.77322,24.86742 3.58352,43.87091 1.73746,48.54034 11.4021,12.5966 18.46054,22.47842 18.46054,42.13345 0,68.95552 -42.13345,74.38509 -81.98649,78.72874 6.62408,5.64675 12.27083,16.28871 12.27083,33.12037 0,24.10728 -0.21718,53.96991 -0.21718,59.72525 0,4.56084 3.25774,10.20759 12.27082,8.57872 71.12734,-23.8901 119.4505,-91.65111 119.4505,-170.81422 0,-98.81814 -80.14043,-173.96338 -179.17575,-173.96338 z m -109.89449,239.76975 -3.04055,0.65155 1.62887,2.71478 3.04055,-0.54296 z m 6.40689,5.97252 -1.84605,0.43437 0.43437,3.8007 3.80069,0.54295 -0.43436,-3.80069 z m 7.49281,9.23027 -2.17183,0.21718 v 4.23507 l 4.01788,1.62887 v -4.34366 z m 8.25294,9.9904 -2.06323,0.76014 0.97732,4.34366 4.56084,0.65155 -0.97733,-4.45225 z m 13.79111,8.03577 -4.34366,1.62887 3.04056,3.47492 4.34365,-1.41169 z m 27.03925,0.65154 -3.25774,3.36634 4.23506,1.73746 3.25774,-3.25774 z m -13.24815,1.52028 -3.8007,2.71479 c 0,1.62887 1.62887,2.82337 4.01788,2.60619 l 3.8007,-2.60619 z"
         id="github"
         sodipodi:nodetypes="sscscccccccscccscccscsscsscccccccccccccccccccccccccccccccccccccc"
         style="fill:#4d4d4d;fill-opacity:1;stroke:none;stroke-width:1.08591" /></g><g
       id="g15"
       transform="translate(-139.13261,17.287964)"><circle
         style="fill:#ffffff;fill-opacity:1;stroke-width:11.3386;stroke-linecap:round"
         id="path14-8"
         cx="429.46851"
         cy="729.95294"
         r="230.75903" /><g
         clip-path="url(#clip)"
         id="obsidian"
         transform="matrix(0.76086753,0,0,0.76086753,227.93548,536.00327)"><path
           d="m 382.3,475.6 c -3.1,23.4 -26,41.6 -48.7,35.3 C 301.2,502 263.7,488.1 230,485.5 l -51.7,-4 a 34,34 0 0 1 -22,-10.2 l -89,-91.7 a 34,34 0 0 1 -6.7,-37.7 c 0,0 55,-121 57.1,-127.3 2,-6.3 9.6,-61.2 14,-90.6 1.2,-7.9 5,-15 11,-20.3 L 248,8.9 a 34.1,34.1 0 0 1 49.6,4.3 L 386,125.6 a 37,37 0 0 1 7.6,22.4 c 0,21.3 1.8,65 13.6,93.2 11.5,27.3 32.5,57 43.5,71.5 a 17.3,17.3 0 0 1 1.3,19.2 1494,1494 0 0 1 -44.8,70.6 c -15,22.3 -21.9,49.9 -25,73.1 z"
           fill="#6c31e3"
           id="path18" /><path
           d="m 165.9,478.3 c 41.4,-84 40.2,-144.2 22.6,-187 -16.2,-39.6 -46.3,-64.5 -70,-80 -0.6,2.3 -1.3,4.4 -2.2,6.5 L 60.6,342 a 34,34 0 0 0 6.6,37.7 l 89.1,91.7 a 34,34 0 0 0 9.6,7 z"
           fill="url(#logo-bottom-left)"
           id="path19"
           style="fill:url(#logo-bottom-left)" /><path
           d="m 278.4,307.8 c 11.2,1.2 22.2,3.6 32.8,7.6 34,12.7 65,41.2 90.5,96.3 1.8,-3.1 3.6,-6.2 5.6,-9.2 a 1536,1536 0 0 0 44.8,-70.6 17,17 0 0 0 -1.3,-19.2 c -11,-14.6 -32,-44.2 -43.5,-71.5 -11.8,-28.2 -13.5,-72 -13.6,-93.2 0,-8.1 -2.6,-16 -7.6,-22.4 L 297.6,13.2 a 34,34 0 0 0 -1.5,-1.7 96,96 0 0 1 2,54 198.3,198.3 0 0 1 -17.6,41.3 l -7.2,14.2 a 171,171 0 0 0 -19.4,71 c -1.2,29.4 4.8,66.4 24.5,115.8 z"
           fill="url(#logo-top-right)"
           id="path20"
           style="fill:url(#logo-top-right)" /><path
           d="M 278.4,307.8 C 258.7,258.4 252.6,221.4 253.9,191.9 a 171,171 0 0 1 19.4,-71 c 2.3,-4.8 4.8,-9.5 7.2,-14.1 7.1,-13.9 14,-27 17.6,-41.4 a 96,96 0 0 0 -2,-54 A 34.1,34.1 0 0 0 248,9 l -105.4,94.8 a 34.1,34.1 0 0 0 -10.9,20.3 l -12.8,85 -0.5,2.3 c 23.8,15.5 54,40.4 70.1,80 a 147,147 0 0 1 7.8,24.8 c 28,-6.8 55.7,-11 82.1,-8.3 z"
           fill="url(#logo-top-left)"
           id="path21"
           style="fill:url(#logo-top-left)" /><path
           d="m 333.6,511 c 22.7,6.2 45.6,-12 48.7,-35.4 a 187,187 0 0 1 19.4,-63.9 c -25.6,-55 -56.5,-83.6 -90.4,-96.3 -36,-13.4 -75.2,-9 -115,0.7 8.9,40.4 3.6,93.3 -30.4,162.2 4,1.8 8.1,3 12.5,3.3 0,0 24.4,2 53.6,4.1 29,2 72.4,17.1 101.6,25.2 z"
           fill="url(#logo-bottom-right)"
           id="path22"
           style="fill:url(#logo-bottom-right)" /><g
           clip-rule="evenodd"
           fill-rule="evenodd"
           id="g26"><path
             d="m 254.1,190 c -1.3,29.2 2.4,62.8 22.1,112.1 L 270,301.6 C 252.3,250.1 248.5,223.6 249.8,194 a 174.7,174.7 0 0 1 20.4,-72 c 2.4,-4.9 8,-14.1 10.5,-18.8 7.1,-13.7 11.9,-21 16,-33.6 5.7,-17.5 4.5,-25.9 3.8,-34.1 4.6,29.9 -12.7,56 -25.7,82.4 a 177.1,177.1 0 0 0 -20.7,72 z"
             fill="url(#logo-top-edge)"
             id="path23"
             style="fill:url(#logo-top-edge)" /><path
             d="m 194.3,293.4 c 2.4,5.4 4.6,9.8 6,16.5 L 195,311 c -2.1,-7.8 -3.8,-13.4 -6.8,-20 -17.8,-42 -46.3,-63.6 -69.7,-79.5 28.2,15.2 57.2,39 75.7,81.9 z"
             fill="url(#logo-left-edge)"
             id="path24"
             style="fill:url(#logo-left-edge)" /><path
             d="m 200.6,315.1 c 9.8,46 -1.2,104.2 -33.6,160.9 27.1,-56.2 40.2,-110.1 29.3,-160 z"
             fill="url(#logo-bottom-edge)"
             id="path25"
             style="fill:url(#logo-bottom-edge)" /><path
             d="m 312.5,311 c 53.1,19.9 73.6,63.6 88.9,100 -19,-38.1 -45.2,-80.3 -90.8,-96 -34.8,-11.8 -64.1,-10.4 -114.3,1 l -1.1,-5 c 53.2,-12.1 81,-13.5 117.3,0 z"
             fill="url(#logo-middle-edge)"
             id="path26"
             style="fill:url(#logo-middle-edge)" /></g></g></g></g><g
     id="g3"
     transform="translate(-24)"><g
       id="g18"
       transform="translate(21.62358,-69.30026)"><circle
         style="fill:#ffffff;fill-opacity:1;stroke-width:11.3386;stroke-linecap:round"
         id="path14-5"
         cx="1308.0405"
         cy="322.93088"
         r="230.75903" /><g
         clip-path="url(#clip0_235_8)"
         id="netlify"
         transform="matrix(0.84973224,0,0,0.84973224,1094.3658,246.13296)"><path
           d="m 117.436,207.036 v -52.432 l 1.093,-1.094 h 10.923 l 1.093,1.094 v 52.432 l -1.093,1.094 h -10.923 z"
           fill="#05bdba"
           id="path1-2" /><path
           d="M 117.436,53.5225 V 1.09339 L 118.529,0 h 10.923 l 1.093,1.09339 V 53.5225 l -1.093,1.0934 h -10.923 z"
           fill="#05bdba"
           id="path2" /><path
           d="m 69.9539,169.238 h -1.5445 l -7.7225,-7.726 v -1.545 l 18.0332,-18.029 8.1775,0.004 1.0972,1.089 v 8.178 z"
           fill="#05bdba"
           id="path3" /><path
           d="m 69.9462,38.8917 h -1.5445 l -7.7225,7.7264 v 1.5445 l 18.0332,18.0294 8.1775,-0.0038 1.0972,-1.0896 v -8.1774 z"
           fill="#05bdba"
           id="path4" /><path
           d="M 1.09339,97.5104 H 75.3711 l 1.0934,1.0934 v 10.9222 l -1.0934,1.094 H 1.09339 L 0,109.526 V 98.6038 Z"
           fill="#05bdba"
           id="path5" /><path
           d="m 440.999,97.5104 h 69.911 l 1.094,1.0934 v 10.9222 l -1.094,1.094 h -74.277 l -1.094,-1.094 4.366,-10.9222 z"
           fill="#05bdba"
           id="path6" /><path
           d="m 212.056,108.727 -1.093,1.094 h -33.884 l -1.093,1.093 c 0,2.187 2.187,8.743 10.93,8.743 3.28,0 6.556,-1.093 7.65,-3.28 l 1.093,-1.093 h 13.117 l 1.093,1.093 c -1.093,6.557 -6.556,16.397 -22.953,16.397 -18.58,0 -27.327,-13.117 -27.327,-28.417 0,-15.2994 8.743,-28.4162 26.233,-28.4162 17.491,0 26.234,13.1168 26.234,28.4162 v 4.374 z M 195.659,97.7971 c 0,-1.0934 -1.093,-8.7433 -9.837,-8.7433 -8.743,0 -9.836,7.6499 -9.836,8.7433 l 1.093,1.0934 h 17.487 z"
           fill="#014847"
           id="path7" /><path
           d="m 242.66,115.284 c 0,2.186 1.093,3.28 3.28,3.28 h 9.836 l 1.094,1.093 v 10.93 l -1.094,1.094 h -9.836 c -9.837,0 -18.58,-4.374 -18.58,-16.397 V 91.2368 l -1.094,-1.0934 h -7.649 L 217.523,89.05 V 78.1199 l 1.094,-1.0934 h 7.649 l 1.094,-1.0933 v -9.8367 l 1.093,-1.0934 h 13.117 l 1.093,1.0934 v 9.8367 l 1.094,1.0933 h 12.023 l 1.094,1.0934 V 89.05 l -1.094,1.0934 h -12.023 l -1.094,1.0934 v 24.0472 z"
           fill="#014847"
           id="path8" /><path
           d="m 283.1,131.681 h -13.117 l -1.094,-1.094 V 56.2636 l 1.094,-1.0934 H 283.1 l 1.093,1.0934 v 74.3234 z"
           fill="#014847"
           id="path9" /><path
           d="m 312.61,68.2871 h -13.117 l -1.094,-1.0934 V 56.2636 l 1.094,-1.0934 h 13.117 l 1.093,1.0934 v 10.9301 z m 0,63.3939 h -13.117 l -1.094,-1.094 V 78.1237 l 1.094,-1.0933 h 13.117 l 1.093,1.0933 v 52.4633 z"
           fill="#014847"
           id="path10" /><path
           d="m 363.98,56.2636 v 10.9301 l -1.094,1.0934 h -9.836 c -2.187,0 -3.281,1.0934 -3.281,3.2801 v 4.3736 l 1.094,1.0934 h 10.93 l 1.093,1.0934 v 10.93 l -1.093,1.0934 h -10.93 l -1.094,1.0934 v 39.3466 l -1.093,1.093 h -13.117 l -1.093,-1.093 V 91.2444 l -1.094,-1.0934 h -7.649 l -1.094,-1.0934 v -10.93 l 1.094,-1.0934 h 7.649 l 1.094,-1.0934 v -4.3736 c 0,-12.0234 8.743,-16.397 18.58,-16.397 h 9.836 l 1.094,1.0934 z"
           fill="#014847"
           id="path11" /><path
           d="m 404.42,132.774 c -4.374,10.93 -8.743,17.487 -24.047,17.487 h -5.467 l -1.093,-1.094 v -10.93 l 1.093,-1.093 h 5.467 c 5.463,0 6.556,-1.094 7.65,-4.374 v -1.093 L 370.536,89.05 V 78.1199 l 1.094,-1.0934 h 9.836 l 1.094,1.0934 13.117,37.1641 h 1.093 l 13.117,-37.1641 1.093,-1.0934 h 9.837 l 1.093,1.0934 V 89.05 l -17.486,43.72 z"
           fill="#014847"
           id="path12" /><path
           d="m 135.454,131.681 -1.093,-1.094 0.007,-31.6698 c 0,-5.4631 -2.148,-9.699 -8.743,-9.8366 -3.391,-0.088 -7.271,-0.0077 -11.416,0.1682 l -0.619,0.6346 0.008,40.7036 -1.094,1.094 H 99.3913 l -1.0934,-1.094 V 77.5388 l 1.0934,-1.0934 29.5097,-0.2676 c 14.784,0 20.767,10.1578 20.767,21.6231 v 32.7861 l -1.093,1.094 z"
           fill="#014847"
           id="path13" /></g></g><g
       id="g20"
       transform="translate(17.223416,-22)"><circle
         style="fill:#ffffff;fill-opacity:1;stroke-width:11.3386;stroke-linecap:round"
         id="path14-9-7"
         cx="1320.224"
         cy="769.24091"
         r="230.75903" /><g
         id="g8"
         transform="matrix(0.9343566,0,0,-0.9343566,1114.0319,804.71484)">
        <g
   id="g10"
   transform="scale(0.1)">
            <path
   d="m 1328.26,515.34 c -46.31,0 -73.87,-22.695 -94.55,-54.215 h -1.91 v 48.316 H 1131.35 V 10.2109 H 1231.8 V 346 c 0,44.285 12.78,68.922 50.15,68.922 31.53,0 49.26,-22.695 49.26,-59.102 V 10.2109 h 100.42 V 393.234 c 0,89.571 -53.16,122.106 -103.37,122.106 z M 666.648,661.023 H 566.16 V 509.441 H 515.934 V 430.645 H 566.16 V 127.352 c 0,-53.1918 30.543,-117.1411 121.145,-117.1411 h 41.332 V 104.68 c -44.321,0 -61.989,2.992 -61.989,49.269 v 276.696 h 61.989 v 78.796 H 666.648 Z M 1952.49,357.793 c 0,37.414 18.69,57.129 49.26,57.129 30.51,0 49.18,-19.715 49.18,-57.129 v -57.176 h -98.44 z m 198.89,-135.898 v 137.882 c 0,87.598 -57.1,155.563 -149.63,155.563 -61.06,0 -107.37,-28.606 -131,-71.922 -13.79,-25.574 -18.71,-61.016 -18.71,-101.414 V 177.57 c 0,-40.398 4.92,-75.84 18.71,-101.4216 23.63,-43.3203 69.94,-71.88668 131,-71.88668 46.26,0 82.71,16.77738 109.27,44.28908 25.65,26.5508 40.36,64.9882 40.36,106.3202 h -100.45 c -1.91,-21.633 -10.83,-50.191 -49.18,-50.191 -30.57,0 -49.26,17.781 -49.26,49.269 v 67.946 z M 957.109,300.617 h -98.554 v 57.176 c 0,37.414 18.75,57.129 49.254,57.129 30.554,0 49.3,-19.715 49.3,-57.129 z m -49.3,214.723 c -60.977,0 -107.321,-28.606 -130.883,-71.922 -13.895,-25.574 -18.785,-61.016 -18.785,-101.414 V 177.57 c 0,-40.398 4.89,-75.84 18.785,-101.4216 23.562,-43.3203 69.906,-71.88668 130.883,-71.88668 46.312,0 82.718,16.77738 109.301,44.28908 25.62,26.5508 40.41,64.9882 40.41,106.3202 H 957.109 c -1.976,-21.633 -10.902,-50.191 -49.3,-50.191 -30.504,0 -49.254,17.781 -49.254,49.269 v 67.946 h 198.965 v 137.882 c 0,87.598 -57.09,155.563 -149.711,155.563 z M 0,610.832 H 100.445 V 711.32 H 0 Z M 380.078,515.34 c -46.226,0 -73.828,-22.695 -94.515,-54.215 h -1.911 v 48.316 H 183.164 V 10.2109 H 283.652 V 346 c 0,44.285 12.778,68.922 50.2,68.922 31.507,0 49.175,-22.695 49.175,-59.102 V 10.2109 H 483.52 V 393.234 c 0,89.571 -53.25,122.106 -103.442,122.106 z M 0,10.2109 H 100.445 V 509.441 H 0 Z m 1697.47,285.5231 -32.56,13.036 -26.51,10.597 c -37.39,14.715 -42.35,32.488 -42.35,51.153 0,25.703 17.74,50.234 49.26,50.234 26.55,0 50.2,-17.668 51.19,-51.164 h 94.56 c -0.94,82.754 -60.13,145.75 -141.84,145.75 -80.73,0 -147.65,-61.09 -147.65,-145.75 0,-22.547 4.44,-42.871 12.66,-60.82 16.13,-35.332 46.98,-61.446 88.69,-77.04 l 48.29,-17.707 c 38.43,-14.785 50.15,-33.535 50.15,-61.132 0,-33.45 -27.52,-54.1527 -56.05,-54.1527 -37.42,0 -50.27,28.6137 -54.15,56.1327 h -94.56 c 3.96,-98.4022 70.92,-150.60928 149.68,-150.60928 86.66,0 149.65,68.00778 149.65,150.60928 0,59.152 -23.58,112.317 -98.46,140.863"
   style="fill:#27b5e4;fill-opacity:1;fill-rule:nonzero;stroke:none"
   id="path12-4" />
            <path
   d="m 4198.24,358.84 c 0,37.937 19.69,57.976 51.79,57.976 32.08,0 51.7,-20.039 51.7,-57.976 v -58 h -103.49 z m 209.05,-137.922 v 139.934 c 0,89.003 -59.98,157.89 -157.26,157.89 -64.19,0 -112.89,-28.945 -137.71,-72.883 -14.49,-26.004 -19.65,-62 -19.65,-103.035 V 175.891 c 0,-40.961 5.16,-76.9613 19.65,-102.9105 C 4137.14,28.9883 4185.84,0 4250.03,0 c 48.54,0 86.91,16.9492 114.83,44.9688 26.9,26.9921 42.43,65.9532 42.43,107.9222 h -105.56 c -2.05,-21.961 -11.36,-50.942 -51.7,-50.942 -32.1,0 -51.79,18.012 -51.79,50 v 68.969 z M 3981.98,666.777 H 3876.49 V 512.813 h -52.8 v -79.961 h 52.8 V 124.961 c 0,-53.9219 32,-118.98053 127.27,-118.98053 h 43.42 V 101.949 c -46.52,0 -65.2,2.981 -65.2,50 v 280.903 h 65.2 v 79.961 h -65.2 z M 3678.83,154.941 c 0,-40.961 -21.78,-64.9801 -56.92,-64.9801 -34.16,0 -54.88,25.9691 -54.88,64.9801 0,53.997 37.26,71.965 82.85,71.965 9.3,0 17.53,-1.008 28.95,-3.058 z m -52.77,363.801 c -47.65,0 -86.92,-15.941 -114.94,-42.949 -27.9,-26.961 -44.47,-64.973 -47.57,-109.961 h 102.47 c 6.24,33.047 33.09,50.984 60.04,50.984 39.3,0 52.77,-25.964 52.77,-59.961 v -52.949 c -21.78,0.93 -36.22,2.989 -50.69,2.989 -132.48,0 -166.56,-56.055 -166.56,-171.965 C 3461.58,23.0117 3526.73,0 3575.32,0 c 50.74,0 73.53,21.0391 101.5,58.0117 h 2.01 V 5.98047 h 105.54 V 358.84 c 0,105.976 -70.36,159.902 -158.31,159.902 z M 3272.17,170.891 c 0,-40.93 -15.5,-68.942 -51.72,-68.942 -32.12,0 -52.76,26 -52.76,62.961 v 196.918 c 0,32.07 22.77,54.988 52.76,54.988 40.39,0 51.72,-27.984 51.72,-59.961 z m -5.12,347.851 c -41.38,0 -74.57,-18.961 -97.27,-51.906 h -2.09 V 717.707 H 3062.11 V 5.98047 h 105.58 V 51.9492 C 3194.57,23.0117 3215.24,0 3268.07,0 c 42.41,0 73.44,14.9414 92.12,47.9609 12.35,22 17.58,53.0591 17.58,108.9691 v 192.914 c 0,73 -3.14,101.972 -16.58,123 -17.6,26.937 -43.5,45.898 -94.14,45.898 z M 2864.52,300.84 h -103.5 v 58 c 0,37.937 19.56,57.976 51.68,57.976 32.15,0 51.82,-20.039 51.82,-57.976 z m -51.82,217.902 c -64.19,0 -112.75,-28.945 -137.58,-72.883 -14.53,-26.004 -19.67,-62 -19.67,-103.035 V 175.891 c 0,-40.961 5.14,-76.9613 19.67,-102.9105 C 2699.95,28.9883 2748.51,0 2812.7,0 c 48.72,0 86.96,16.9492 114.94,44.9688 26.84,26.9921 42.46,65.9532 42.46,107.9222 h -105.58 c -2.08,-21.961 -11.38,-50.942 -51.82,-50.942 -32.12,0 -51.68,18.012 -51.68,50 v 68.969 h 209.08 v 139.934 c 0,89.003 -60.08,157.89 -157.4,157.89 z M 2457.85,164.91 c 0,-36.961 -20.68,-62.961 -52.83,-62.961 -36.15,0 -51.69,28.012 -51.69,68.942 v 185.964 c 0,31.977 11.31,59.961 51.69,59.961 30.06,0 52.83,-22.918 52.83,-54.988 z m 0,301.926 h -2.09 c -22.77,32.945 -55.9,51.906 -97.28,51.906 -50.71,0 -76.6,-18.961 -94.17,-45.898 -13.48,-21.028 -16.62,-50 -16.62,-123 V 156.93 c 0,-55.91 5.22,-86.9691 17.66,-108.9691 C 2283.95,14.9414 2315.02,0 2357.44,0 c 52.77,0 73.49,23.0117 100.41,51.9492 V 5.98047 h 105.54 V 717.707 H 2457.85 V 466.836"
   style="fill:#444142;fill-opacity:1;fill-rule:nonzero;stroke:none"
   id="path14-23" />
            <path
   d="m 5277.01,1189.02 c 0,0 -1.12,-53.07 -50.22,-134.4 -49.19,-81.593 -178.66,-105.792 -254.99,-117.749 -76.47,-11.875 -139.22,7.961 -239.58,-41.824 -100.39,-49.918 -60.14,-102.242 -174.78,-174.988 -114.67,-72.559 -146.89,67.89 -56.31,95.226 90.52,27.406 113.01,3.438 177.01,157.969 63.85,154.486 241.76,77.296 241.76,77.296 0,0 -156.1,130.59 -280,-28.46 -123.84,-158.969 -203.74,-50.031 -283.4,-111.422 -79.58,-61.477 -52.31,-131.004 -87.72,-204.383 -35.55,-73.387 -69.28,-110.019 -106.27,-86.754 -37.14,23.27 -48.44,85.625 2.68,120.77 51.16,34.875 54.3,29.656 77.12,81.219 22.65,51.535 -20.37,104.679 -20.37,104.679 0,0 -18.13,-63.117 -46.3,-94.179 -26.69,-29.364 -89.24,-49.313 -214.79,-72.672 h 18.29 c 42.25,0 76.49,-34.25 76.49,-76.52 V 604.59 c 22.13,-3.281 41.19,-16.047 52.88,-33.977 38.69,26.215 86.55,40.746 138.69,40.746 53.17,0 100.52,-15.39 138.53,-42.089 58.82,-41.266 95.25,-109.825 95.25,-192.325 V 263.313 c 21.42,-4.856 49.35,-19.942 84.08,-33.829 67,-27.004 99.33,-26.886 193.18,81.004 93.81,108.067 243.22,20.235 243.22,20.235 0,0 -38.77,34.199 -76.85,59.113 -38.1,25.254 -93.28,40.176 -143.71,38.836 -50.11,-1.16 -80.51,-4.774 -138.95,-39.336 -58.38,-34.559 -82.45,-25.117 -101.23,6.582 -18.82,31.738 11.87,73.75 46.22,94.219 34.48,20.23 73.25,28.988 187.4,-3.321 114.29,-32.332 150.8,-15.574 220.27,58.934 69.58,74.418 20.65,188.387 20.65,188.387 0,0 -1.33,-72.184 -53.46,-117.442 -51.99,-45.144 -113.37,-43.281 -143.41,15.196 -29.94,58.363 -27.43,116.918 53.52,160.093 81.16,43.356 98.62,6.129 283.47,101.309 184.85,95.004 121.63,295.727 121.63,295.727"
   style="fill:#27b5e4;fill-opacity:1;fill-rule:nonzero;stroke:none"
   id="path16" />
            <path
   d="m 4469.2,95.4492 c 71.78,32.6528 142.92,-23.7383 142.92,-23.7383 0,0 8.07,33.3091 -10.75,64.8911 -18.75,31.91 -53.85,44.418 -88.51,47.808 -10.38,1.02 -22.85,2.309 -34.81,4.633 1.75,-6.422 2.93,-13.082 2.93,-20.043 0,-25.34 -4.19,-50.129 -11.78,-73.5508"
   style="fill:#27b5e4;fill-opacity:1;fill-rule:nonzero;stroke:none"
   id="path18-2" />
        </g>
    </g></g></g></svg>
