<?xml version="1.0" encoding="UTF-8" standalone="no"?>
<svg
   fill="none"
   height="1000"
   width="1620"
   viewBox="0 0 1620 999.99999"
   version="1.1"
   id="svg27"
   sodipodi:docname="new-blog.svg"
   xml:space="preserve"
   inkscape:version="1.4.2 (f4327f4, 2025-05-13)"
   xmlns:inkscape="http://www.inkscape.org/namespaces/inkscape"
   xmlns:sodipodi="http://sodipodi.sourceforge.net/DTD/sodipodi-0.dtd"
   xmlns:xlink="http://www.w3.org/1999/xlink"
   xmlns="http://www.w3.org/2000/svg"
   xmlns:svg="http://www.w3.org/2000/svg"><defs
     id="defs27"><clipPath
       id="clip0_235_8"><rect
         width="512"
         height="208.12601"
         fill="#ffffff"
         id="rect13"
         x="0"
         y="0" /></clipPath><linearGradient
       id="a"
       gradientUnits="userSpaceOnUse"><stop
         style="stop-color:#fff;stop-opacity:1"
         offset="0"
         id="stop1-0" /><stop
         style="stop-color:#fff;stop-opacity:0"
         offset="1"
         id="stop2-9" /></linearGradient><linearGradient
       id="b"
       gradientUnits="userSpaceOnUse"><stop
         style="stop-color:#c0cdf9;stop-opacity:1"
         offset="0"
         id="stop3-4" /><stop
         style="stop-color:#07092d;stop-opacity:.28804347"
         offset="1"
         id="stop4-8" /></linearGradient><linearGradient
       x1="82.118591"
       y1="20"
       x2="60"
       y2="40"
       id="t"
       xlink:href="#b"
       gradientUnits="userSpaceOnUse" /><linearGradient
       x1="33"
       y1="35"
       x2="58"
       y2="60"
       id="u"
       xlink:href="#a"
       gradientUnits="userSpaceOnUse"
       gradientTransform="matrix(1.00918,0,0,1.00918,-0.3890738,-0.3831933)" /><linearGradient
       x1="60"
       y1="20"
       x2="90"
       y2="50"
       id="v"
       xlink:href="#a"
       gradientUnits="userSpaceOnUse" /><linearGradient
       x1="231.625"
       y1="195.1875"
       x2="231.75"
       y2="201.5"
       id="A"
       xlink:href="#a"
       gradientUnits="userSpaceOnUse" /><linearGradient
       x1="231.37646"
       y1="195.62132"
       x2="231.37646"
       y2="200.07138"
       id="B"
       xlink:href="#a"
       gradientUnits="userSpaceOnUse" /><linearGradient
       id="j"><stop
         style="stop-color:#fff;stop-opacity:.33004925"
         offset="0"
         id="stop17-6" /><stop
         style="stop-color:#fff;stop-opacity:0"
         offset="1"
         id="stop18" /></linearGradient><linearGradient
       x1="95.5"
       y1="208.16444"
       x2="153.5"
       y2="223.5"
       id="L"
       xlink:href="#a"
       gradientUnits="userSpaceOnUse" /><linearGradient
       x1="57.225197"
       y1="76.246338"
       x2="53.63158"
       y2="84.480316"
       id="M"
       xlink:href="#n"
       gradientUnits="userSpaceOnUse"
       gradientTransform="matrix(0.88526,0,0,0.88526,5.1772151,9.2293372)" /><linearGradient
       id="n"><stop
         style="stop-color:#eeeeec;stop-opacity:1"
         offset="0"
         id="stop25" /><stop
         style="stop-color:#eeeeec;stop-opacity:0"
         offset="1"
         id="stop26" /></linearGradient><linearGradient
       x1="73.712105"
       y1="180.47572"
       x2="82.754066"
       y2="187.65974"
       id="O"
       xlink:href="#a"
       gradientUnits="userSpaceOnUse"
       gradientTransform="matrix(0.4928,0,0,0.4928,-6.0003885,-9.7225182)" /><linearGradient
       id="p"><stop
         style="stop-color:#729fcf;stop-opacity:1"
         offset="0"
         id="stop29" /><stop
         style="stop-color:#729fcf;stop-opacity:0"
         offset="1"
         id="stop30" /></linearGradient><linearGradient
       x1="180.81293"
       y1="217.5"
       x2="153.70045"
       y2="144.5"
       id="P"
       xlink:href="#p"
       gradientUnits="userSpaceOnUse"
       gradientTransform="translate(-130.16572,-83.352786)" /><radialGradient
       cx="116.31038"
       cy="250.89737"
       r="30.599579"
       fx="116.31038"
       fy="250.89737"
       id="w"
       xlink:href="#a"
       gradientUnits="userSpaceOnUse"
       gradientTransform="matrix(1.57005,0,0,1.05093,-75.500107,-22.095908)" /><radialGradient
       cx="132.44434"
       cy="251.99396"
       r="30.599579"
       fx="132.44434"
       fy="251.99396"
       id="x"
       xlink:href="#a"
       gradientUnits="userSpaceOnUse"
       gradientTransform="matrix(2.00325,0,0,1.3409,-132.8752,-95.166065)" /><radialGradient
       cx="210.25"
       cy="168.5"
       r="34.25"
       fx="210.25"
       fy="168.5"
       id="y"
       xlink:href="#a"
       gradientUnits="userSpaceOnUse"
       gradientTransform="matrix(1,0,0,0.42336,0,97.164234)" /><radialGradient
       cx="217.5"
       cy="182.08189"
       r="34.25"
       fx="217.5"
       fy="182.08189"
       id="z"
       xlink:href="#a"
       gradientUnits="userSpaceOnUse"
       gradientTransform="matrix(1,0,0,0.42336,0,97.164234)" /><radialGradient
       cx="228.21875"
       cy="204.83229"
       r="14.09375"
       fx="228.21875"
       fy="204.83229"
       id="C"
       xlink:href="#a"
       gradientUnits="userSpaceOnUse"
       gradientTransform="matrix(1,0,0,0.14775,0,174.56924)" /><radialGradient
       cx="228.21875"
       cy="204.83229"
       r="14.09375"
       fx="228.21875"
       fy="204.83229"
       id="F"
       xlink:href="#a"
       gradientUnits="userSpaceOnUse"
       gradientTransform="matrix(1,0,0,0.14775,0,174.56924)" /><radialGradient
       cx="89.875"
       cy="187.86935"
       r="22.75"
       fx="89.875"
       fy="187.86935"
       id="G"
       xlink:href="#j"
       gradientUnits="userSpaceOnUse"
       gradientTransform="matrix(1,0,0,0.40708,0,115.76014)" /><radialGradient
       cx="90.28125"
       cy="230.83626"
       r="10.46875"
       fx="90.28125"
       fy="230.83626"
       id="J"
       xlink:href="#a"
       gradientUnits="userSpaceOnUse"
       gradientTransform="matrix(1.18507,-0.32836,0.12286,0.4434,-45.068314,152.92161)" /><radialGradient
       cx="68.39994"
       cy="21.225746"
       r="54.783398"
       fx="68.39994"
       fy="21.225746"
       id="K"
       xlink:href="#a"
       gradientUnits="userSpaceOnUse"
       gradientTransform="matrix(1.72215,0,0,1.69498,-49.39526,-14.078057)" /><radialGradient
       cx="181.22731"
       cy="214.55121"
       r="22.466398"
       fx="181.22731"
       fy="214.55121"
       id="N"
       xlink:href="#a"
       gradientUnits="userSpaceOnUse"
       gradientTransform="matrix(1.35152,0,0,1.71757,-63.705646,-153.95568)" /><filter
       id="q"
       color-interpolation-filters="sRGB"
       x="-0.017255854"
       y="-0.017528899"
       width="1.0345117"
       height="1.0350578"><feGaussianBlur
         stdDeviation=".80546496"
         id="feGaussianBlur30" /></filter><filter
       id="r"
       color-interpolation-filters="sRGB"
       x="-0.074775365"
       y="-0.075958553"
       width="1.1495507"
       height="1.1519171"><feGaussianBlur
         stdDeviation="3.4903482"
         id="feGaussianBlur31" /></filter><clipPath
       id="s"><use
         transform="translate(.00000101)"
         style="opacity:.25;fill:#fff;fill-opacity:1"
         width="400"
         height="300"
         xlink:href="#d"
         id="use31" /></clipPath><path
       d="M54.1 12.5 12.9 54.7C-2.7 70.3 23 69 32.3 74.9c4.3 2.8-13.8 6.4-10.1 10.1 3.6 3.7 21.7 7.1 25.3 10.7 3.6 3.7-7.3 7.6-3.7 11.3 3.5 3.7 11.9.2 13.4 8.6 1.1 6.2 15.4 3.1 21.8-2.2 4-3.4-6.9-3.4-3.3-7.1 9-9.1 17-4.1 20.3-12.5 1.8-4.5-13.6-7.7-9.5-10.6 9.8-6.9 45.8-10.4 29.2-27L73 12.5c-5.3-5-14-5-18.9 0zm-9.9 64.7c.9 0 30.8 4 19.3 7.1-4.4 1.2-24.6-7.1-19.3-7.1zm57.2 16.6c0 2.1 16.3 3.3 15.4-.5-1.3-6.4-13.6-5.9-15.4.5zm-69.5 11.1c3.7 3.2 9.3-.7 11.1-5.2-3.6-4.7-16.9.3-11.1 5.2zm67.5-6.7c-4.6 4.2.8 8.6 5.3 5.7 1.2-.8-.1-4.7-5.3-5.7z"
       id="d" /><linearGradient
       inkscape:collect="always"
       xlink:href="#a"
       id="linearGradient1"
       gradientUnits="userSpaceOnUse"
       x1="231.625"
       y1="195.1875"
       x2="231.75"
       y2="201.5" /><linearGradient
       inkscape:collect="always"
       xlink:href="#a"
       id="linearGradient2"
       gradientUnits="userSpaceOnUse"
       x1="231.37646"
       y1="195.62132"
       x2="231.37646"
       y2="200.07138" /><linearGradient
       inkscape:collect="always"
       xlink:href="#a"
       id="linearGradient3"
       gradientUnits="userSpaceOnUse"
       x1="231.625"
       y1="195.1875"
       x2="231.75"
       y2="201.5" /><linearGradient
       inkscape:collect="always"
       xlink:href="#a"
       id="linearGradient4"
       gradientUnits="userSpaceOnUse"
       x1="231.37646"
       y1="195.62132"
       x2="231.37646"
       y2="200.07138" /></defs><sodipodi:namedview
     id="namedview27"
     pagecolor="#ffffff"
     bordercolor="#000000"
     borderopacity="0.25"
     inkscape:showpageshadow="2"
     inkscape:pageopacity="0.0"
     inkscape:pagecheckerboard="0"
     inkscape:deskcolor="#d1d1d1"
     inkscape:zoom="0.40292658"
     inkscape:cx="806.59856"
     inkscape:cy="552.20978"
     inkscape:window-width="1815"
     inkscape:window-height="1007"
     inkscape:window-x="700"
     inkscape:window-y="263"
     inkscape:window-maximized="0"
     inkscape:current-layer="svg27" /><radialGradient
     id="logo-bottom-left"
     cx="0"
     cy="0"
     gradientTransform="matrix(-59,-225,150,-39,161.4,470)"
     gradientUnits="userSpaceOnUse"
     r="1"><stop
       offset="0"
       stop-color="#fff"
       stop-opacity=".4"
       id="stop1" /><stop
       offset="1"
       stop-opacity=".1"
       id="stop2" /></radialGradient><radialGradient
     id="logo-top-right"
     cx="0"
     cy="0"
     gradientTransform="matrix(50,-379,280,37,360,374.2)"
     gradientUnits="userSpaceOnUse"
     r="1"><stop
       offset="0"
       stop-color="#fff"
       stop-opacity=".6"
       id="stop3" /><stop
       offset="1"
       stop-color="#fff"
       stop-opacity=".1"
       id="stop4" /></radialGradient><radialGradient
     id="logo-top-left"
     cx="0"
     cy="0"
     gradientTransform="matrix(69,-319,218,47,175.4,307)"
     gradientUnits="userSpaceOnUse"
     r="1"><stop
       offset="0"
       stop-color="#fff"
       stop-opacity=".8"
       id="stop5" /><stop
       offset="1"
       stop-color="#fff"
       stop-opacity=".4"
       id="stop6" /></radialGradient><radialGradient
     id="logo-bottom-right"
     cx="0"
     cy="0"
     gradientTransform="matrix(-96,-163,187,-111,335.3,512.2)"
     gradientUnits="userSpaceOnUse"
     r="1"><stop
       offset="0"
       stop-color="#fff"
       stop-opacity=".3"
       id="stop7" /><stop
       offset="1"
       stop-opacity=".3"
       id="stop8" /></radialGradient><radialGradient
     id="logo-top-edge"
     cx="0"
     cy="0"
     gradientTransform="matrix(-36,166,-112,-24,310,128.2)"
     gradientUnits="userSpaceOnUse"
     r="1"><stop
       offset="0"
       stop-color="#fff"
       stop-opacity="0"
       id="stop9" /><stop
       offset="1"
       stop-color="#fff"
       stop-opacity=".2"
       id="stop10" /></radialGradient><radialGradient
     id="logo-left-edge"
     cx="0"
     cy="0"
     gradientTransform="matrix(88,89,-190,187,111,220.2)"
     gradientUnits="userSpaceOnUse"
     r="1"><stop
       offset="0"
       stop-color="#fff"
       stop-opacity=".2"
       id="stop11" /><stop
       offset="1"
       stop-color="#fff"
       stop-opacity=".4"
       id="stop12" /></radialGradient><radialGradient
     id="logo-bottom-edge"
     cx="0"
     cy="0"
     gradientTransform="matrix(9,130,-276,20,215,284)"
     gradientUnits="userSpaceOnUse"
     r="1"><stop
       offset="0"
       stop-color="#fff"
       stop-opacity=".2"
       id="stop13" /><stop
       offset="1"
       stop-color="#fff"
       stop-opacity=".3"
       id="stop14" /></radialGradient><radialGradient
     id="logo-middle-edge"
     cx="0"
     cy="0"
     gradientTransform="matrix(-198,-104,327,-623,400,399.2)"
     gradientUnits="userSpaceOnUse"
     r="1"><stop
       offset="0"
       stop-color="#fff"
       stop-opacity=".2"
       id="stop15" /><stop
       offset=".5"
       stop-color="#fff"
       stop-opacity=".2"
       id="stop16" /><stop
       offset="1"
       stop-color="#fff"
       stop-opacity=".3"
       id="stop17" /></radialGradient><clipPath
     id="clip"><path
       d="m 0.2,0.2 h 512 v 512 H 0.2 Z"
       id="path17" /></clipPath><rect
     style="fill:#808080;fill-opacity:0.251121;stroke-width:10.7112;stroke-linecap:round"
     id="background-rectangle"
     height="1007.4278"
     x="0.2"
     y="0.2"
     ry="0"
     width="1617.9611" /><style
     type="text/css"
     id="style1">
	.st0{fill-rule:evenodd;clip-rule:evenodd;fill:#FF4088;stroke:#C9177E;stroke-width:27;}
	.st1{fill-rule:evenodd;clip-rule:evenodd;fill:#FFFFFF;}
</style><g
     id="hugo-group"
     transform="matrix(0.81011286,0,0,0.81011286,390.39223,66.727812)"><circle
       style="fill:#ffffff;fill-opacity:1;stroke-width:11.3386;stroke-linecap:round"
       id="path14-2"
       cx="764.51715"
       cy="317.96719"
       r="230.75903" /><g
       id="hugo"
       transform="matrix(0.99518837,0,0,0.99518837,581.96721,123.96594)"><path
         class="st0"
         d="M 207.5,22.4 321.9,89 c 13.5,7.9 21.9,22.4 21.9,38 v 136.4 c 0,17.3 -9.3,33.3 -24.5,41.8 l -113.5,63.9 c -15.1,8.5 -33.5,8.4 -48.5,-0.2 L 52.8,308.8 C 36.4,299.3 26.2,281.8 26.2,262.9 V 133.4 c 0,-19.1 9.9,-36.8 26.1,-46.8 L 155.1,23.1 c 16,-9.9 36.2,-10.1 52.4,-0.7 z"
         id="path1" /><polygon
         class="st1"
         points="220.9,207.6 149,207.6 149,298.2 105.6,298.2 105.6,91 149,91 149,166.5 220.9,166.5 220.9,91 264.4,91 264.4,298.2 220.9,298.2 "
         id="polygon1" /></g></g><g
     id="stack-group"
     transform="matrix(0.81011286,0,0,0.81011286,528.97195,-287.13287)"><circle
       style="fill:#ffffff;fill-opacity:1;stroke-width:11.3386;stroke-linecap:round"
       id="path14-9"
       cx="1072.2655"
       cy="754.77136"
       r="230.75903" /><g
       id="g14"
       transform="matrix(1.4054844,0,0,1.4054844,-431.08519,-322.48037)"><text
         xml:space="preserve"
         style="font-style:normal;font-variant:normal;font-weight:normal;font-stretch:normal;font-size:248.393px;font-family:Arial;-inkscape-font-specification:'Arial, Normal';font-variant-ligatures:normal;font-variant-caps:normal;font-variant-numeric:normal;font-variant-east-asian:normal;text-align:start;writing-mode:lr-tb;direction:ltr;text-anchor:start;fill:#000000;fill-opacity:1;stroke:none;stroke-width:9.14491;stroke-linecap:round"
         x="938.20239"
         y="755.5249"
         id="text28"><tspan
           sodipodi:role="line"
           id="tspan28"
           x="938.20239"
           y="755.5249"
           style="font-style:normal;font-variant:normal;font-weight:normal;font-stretch:normal;font-size:51.6178px;font-family:'Lucida Sans';-inkscape-font-specification:'Lucida Sans, Normal';font-variant-ligatures:normal;font-variant-caps:normal;font-variant-numeric:normal;font-variant-east-asian:normal;fill:#000000;fill-opacity:1;stroke-width:9.14491">Stack</tspan></text><text
         xml:space="preserve"
         style="font-style:normal;font-variant:normal;font-weight:normal;font-stretch:normal;font-size:25.4815px;font-family:'Yu Gothic';-inkscape-font-specification:'Yu Gothic, Normal';font-variant-ligatures:normal;font-variant-caps:normal;font-variant-numeric:normal;font-variant-east-asian:normal;text-align:start;writing-mode:lr-tb;direction:ltr;text-anchor:start;fill:#3a3a3a;fill-opacity:1;stroke:none;stroke-width:4.51444;stroke-linecap:round"
         x="938.94348"
         y="789.09735"
         id="text29"><tspan
           sodipodi:role="line"
           id="tspan29"
           x="938.94348"
           y="789.09735"
           style="fill:#3a3a3a;fill-opacity:1;stroke-width:4.51444">Card-style Hugo theme</tspan></text><text
         xml:space="preserve"
         style="font-style:normal;font-variant:normal;font-weight:normal;font-stretch:normal;font-size:25.4815px;font-family:'Yu Gothic';-inkscape-font-specification:'Yu Gothic, Normal';font-variant-ligatures:normal;font-variant-caps:normal;font-variant-numeric:normal;font-variant-east-asian:normal;text-align:start;writing-mode:lr-tb;direction:ltr;text-anchor:start;fill:#3a3a3a;fill-opacity:1;stroke:none;stroke-width:4.51444;stroke-linecap:round"
         x="938.99335"
         y="820.96484"
         id="text30"><tspan
           sodipodi:role="line"
           id="tspan30"
           x="938.99335"
           y="820.96484"
           style="fill:#3a3a3a;fill-opacity:1;stroke-width:4.51444">designed for bloggers</tspan></text></g></g><g
     id="github-group"
     transform="matrix(0.81011286,0,0,0.81011286,6.216014,58.925082)"><circle
       style="fill:#ffffff;fill-opacity:1;stroke-width:11.3386;stroke-linecap:round"
       id="path14"
       cx="281.12152"
       cy="327.59885"
       r="230.75903" /><path
       d="m 279.57795,151.44032 c -99.03535,0 -174.61493,75.14524 -174.61493,173.96338 0,79.16311 49.73483,146.92412 120.86218,170.81422 9.23027,1.62887 12.48801,-4.01788 12.48801,-8.68731 0,-4.34365 -0.21719,-28.8853 -0.21719,-43.87091 0,0 -50.16921,10.75054 -60.59398,-21.28391 0,0 -8.14435,-20.63236 -19.76363,-26.06193 0,0 -16.2887,-11.18491 1.19451,-10.96773 0,0 17.70039,1.41169 27.47361,18.46054 15.63716,27.69079 41.80768,19.65503 52.12386,14.98561 1.62887,-11.4021 6.2983,-19.43786 11.40209,-23.9987 -39.96162,-4.34365 -80.24902,-10.20759 -80.24902,-78.72874 0,-19.65503 5.42957,-29.42826 16.83167,-42.13345 -1.84606,-4.66943 -8.03577,-23.8901 1.84605,-48.54034 15.0942,-4.66943 49.30048,19.22067 49.30048,19.22067 14.22547,-3.80069 29.64545,-5.97252 44.84825,-5.97252 15.2028,0 30.73136,2.17183 44.95683,5.97252 0,0 34.31487,-23.8901 49.30048,-19.22067 9.77322,24.86742 3.58352,43.87091 1.73746,48.54034 11.4021,12.5966 18.46054,22.47842 18.46054,42.13345 0,68.95552 -42.13345,74.38509 -81.98649,78.72874 6.62408,5.64675 12.27083,16.28871 12.27083,33.12037 0,24.10728 -0.21718,53.96991 -0.21718,59.72525 0,4.56084 3.25774,10.20759 12.27082,8.57872 71.12734,-23.8901 119.4505,-91.65111 119.4505,-170.81422 0,-98.81814 -80.14043,-173.96338 -179.17575,-173.96338 z m -109.89449,239.76975 -3.04055,0.65155 1.62887,2.71478 3.04055,-0.54296 z m 6.40689,5.97252 -1.84605,0.43437 0.43437,3.8007 3.80069,0.54295 -0.43436,-3.80069 z m 7.49281,9.23027 -2.17183,0.21718 v 4.23507 l 4.01788,1.62887 v -4.34366 z m 8.25294,9.9904 -2.06323,0.76014 0.97732,4.34366 4.56084,0.65155 -0.97733,-4.45225 z m 13.79111,8.03577 -4.34366,1.62887 3.04056,3.47492 4.34365,-1.41169 z m 27.03925,0.65154 -3.25774,3.36634 4.23506,1.73746 3.25774,-3.25774 z m -13.24815,1.52028 -3.8007,2.71479 c 0,1.62887 1.62887,2.82337 4.01788,2.60619 l 3.8007,-2.60619 z"
       id="github"
       sodipodi:nodetypes="sscscccccccscccscccscsscsscccccccccccccccccccccccccccccccccccccc"
       style="fill:#4d4d4d;fill-opacity:1;stroke:none;stroke-width:1.08591" /></g><g
     id="obsidian-group"
     transform="matrix(0.81011286,0,0,0.81011286,273.92883,-267.02714)"><circle
       style="fill:#ffffff;fill-opacity:1;stroke-width:11.3386;stroke-linecap:round"
       id="path14-8"
       cx="429.46851"
       cy="729.95294"
       r="230.75903" /><g
       clip-path="url(#clip)"
       id="obsidian"
       transform="matrix(0.76086753,0,0,0.76086753,227.93548,536.00327)"><path
         d="m 382.3,475.6 c -3.1,23.4 -26,41.6 -48.7,35.3 C 301.2,502 263.7,488.1 230,485.5 l -51.7,-4 a 34,34 0 0 1 -22,-10.2 l -89,-91.7 a 34,34 0 0 1 -6.7,-37.7 c 0,0 55,-121 57.1,-127.3 2,-6.3 9.6,-61.2 14,-90.6 1.2,-7.9 5,-15 11,-20.3 L 248,8.9 a 34.1,34.1 0 0 1 49.6,4.3 L 386,125.6 a 37,37 0 0 1 7.6,22.4 c 0,21.3 1.8,65 13.6,93.2 11.5,27.3 32.5,57 43.5,71.5 a 17.3,17.3 0 0 1 1.3,19.2 1494,1494 0 0 1 -44.8,70.6 c -15,22.3 -21.9,49.9 -25,73.1 z"
         fill="#6c31e3"
         id="path18" /><path
         d="m 165.9,478.3 c 41.4,-84 40.2,-144.2 22.6,-187 -16.2,-39.6 -46.3,-64.5 -70,-80 -0.6,2.3 -1.3,4.4 -2.2,6.5 L 60.6,342 a 34,34 0 0 0 6.6,37.7 l 89.1,91.7 a 34,34 0 0 0 9.6,7 z"
         fill="url(#logo-bottom-left)"
         id="path19"
         style="fill:url(#logo-bottom-left)" /><path
         d="m 278.4,307.8 c 11.2,1.2 22.2,3.6 32.8,7.6 34,12.7 65,41.2 90.5,96.3 1.8,-3.1 3.6,-6.2 5.6,-9.2 a 1536,1536 0 0 0 44.8,-70.6 17,17 0 0 0 -1.3,-19.2 c -11,-14.6 -32,-44.2 -43.5,-71.5 -11.8,-28.2 -13.5,-72 -13.6,-93.2 0,-8.1 -2.6,-16 -7.6,-22.4 L 297.6,13.2 a 34,34 0 0 0 -1.5,-1.7 96,96 0 0 1 2,54 198.3,198.3 0 0 1 -17.6,41.3 l -7.2,14.2 a 171,171 0 0 0 -19.4,71 c -1.2,29.4 4.8,66.4 24.5,115.8 z"
         fill="url(#logo-top-right)"
         id="path20"
         style="fill:url(#logo-top-right)" /><path
         d="M 278.4,307.8 C 258.7,258.4 252.6,221.4 253.9,191.9 a 171,171 0 0 1 19.4,-71 c 2.3,-4.8 4.8,-9.5 7.2,-14.1 7.1,-13.9 14,-27 17.6,-41.4 a 96,96 0 0 0 -2,-54 A 34.1,34.1 0 0 0 248,9 l -105.4,94.8 a 34.1,34.1 0 0 0 -10.9,20.3 l -12.8,85 -0.5,2.3 c 23.8,15.5 54,40.4 70.1,80 a 147,147 0 0 1 7.8,24.8 c 28,-6.8 55.7,-11 82.1,-8.3 z"
         fill="url(#logo-top-left)"
         id="path21"
         style="fill:url(#logo-top-left)" /><path
         d="m 333.6,511 c 22.7,6.2 45.6,-12 48.7,-35.4 a 187,187 0 0 1 19.4,-63.9 c -25.6,-55 -56.5,-83.6 -90.4,-96.3 -36,-13.4 -75.2,-9 -115,0.7 8.9,40.4 3.6,93.3 -30.4,162.2 4,1.8 8.1,3 12.5,3.3 0,0 24.4,2 53.6,4.1 29,2 72.4,17.1 101.6,25.2 z"
         fill="url(#logo-bottom-right)"
         id="path22"
         style="fill:url(#logo-bottom-right)" /><g
         clip-rule="evenodd"
         fill-rule="evenodd"
         id="g26"><path
           d="m 254.1,190 c -1.3,29.2 2.4,62.8 22.1,112.1 L 270,301.6 C 252.3,250.1 248.5,223.6 249.8,194 a 174.7,174.7 0 0 1 20.4,-72 c 2.4,-4.9 8,-14.1 10.5,-18.8 7.1,-13.7 11.9,-21 16,-33.6 5.7,-17.5 4.5,-25.9 3.8,-34.1 4.6,29.9 -12.7,56 -25.7,82.4 a 177.1,177.1 0 0 0 -20.7,72 z"
           fill="url(#logo-top-edge)"
           id="path23"
           style="fill:url(#logo-top-edge)" /><path
           d="m 194.3,293.4 c 2.4,5.4 4.6,9.8 6,16.5 L 195,311 c -2.1,-7.8 -3.8,-13.4 -6.8,-20 -17.8,-42 -46.3,-63.6 -69.7,-79.5 28.2,15.2 57.2,39 75.7,81.9 z"
           fill="url(#logo-left-edge)"
           id="path24"
           style="fill:url(#logo-left-edge)" /><path
           d="m 200.6,315.1 c 9.8,46 -1.2,104.2 -33.6,160.9 27.1,-56.2 40.2,-110.1 29.3,-160 z"
           fill="url(#logo-bottom-edge)"
           id="path25"
           style="fill:url(#logo-bottom-edge)" /><path
           d="m 312.5,311 c 53.1,19.9 73.6,63.6 88.9,100 -19,-38.1 -45.2,-80.3 -90.8,-96 -34.8,-11.8 -64.1,-10.4 -114.3,1 l -1.1,-5 c 53.2,-12.1 81,-13.5 117.3,0 z"
           fill="url(#logo-middle-edge)"
           id="path26"
           style="fill:url(#logo-middle-edge)" /></g></g></g><g
     id="netlify-group"
     transform="matrix(0.81011286,0,0,0.81011286,-243.81867,402.19109)"><circle
       style="fill:#ffffff;fill-opacity:1;stroke-width:11.3386;stroke-linecap:round"
       id="path14-5"
       cx="1308.0405"
       cy="322.93088"
       r="230.75903" /><g
       clip-path="url(#clip0_235_8)"
       id="netlify"
       transform="matrix(0.84973224,0,0,0.84973224,1094.3658,246.13296)"><path
         d="m 117.436,207.036 v -52.432 l 1.093,-1.094 h 10.923 l 1.093,1.094 v 52.432 l -1.093,1.094 h -10.923 z"
         fill="#05bdba"
         id="path1-2" /><path
         d="M 117.436,53.5225 V 1.09339 L 118.529,0 h 10.923 l 1.093,1.09339 V 53.5225 l -1.093,1.0934 h -10.923 z"
         fill="#05bdba"
         id="path2" /><path
         d="m 69.9539,169.238 h -1.5445 l -7.7225,-7.726 v -1.545 l 18.0332,-18.029 8.1775,0.004 1.0972,1.089 v 8.178 z"
         fill="#05bdba"
         id="path3" /><path
         d="m 69.9462,38.8917 h -1.5445 l -7.7225,7.7264 v 1.5445 l 18.0332,18.0294 8.1775,-0.0038 1.0972,-1.0896 v -8.1774 z"
         fill="#05bdba"
         id="path4" /><path
         d="M 1.09339,97.5104 H 75.3711 l 1.0934,1.0934 v 10.9222 l -1.0934,1.094 H 1.09339 L 0,109.526 V 98.6038 Z"
         fill="#05bdba"
         id="path5" /><path
         d="m 440.999,97.5104 h 69.911 l 1.094,1.0934 v 10.9222 l -1.094,1.094 h -74.277 l -1.094,-1.094 4.366,-10.9222 z"
         fill="#05bdba"
         id="path6" /><path
         d="m 212.056,108.727 -1.093,1.094 h -33.884 l -1.093,1.093 c 0,2.187 2.187,8.743 10.93,8.743 3.28,0 6.556,-1.093 7.65,-3.28 l 1.093,-1.093 h 13.117 l 1.093,1.093 c -1.093,6.557 -6.556,16.397 -22.953,16.397 -18.58,0 -27.327,-13.117 -27.327,-28.417 0,-15.2994 8.743,-28.4162 26.233,-28.4162 17.491,0 26.234,13.1168 26.234,28.4162 v 4.374 z M 195.659,97.7971 c 0,-1.0934 -1.093,-8.7433 -9.837,-8.7433 -8.743,0 -9.836,7.6499 -9.836,8.7433 l 1.093,1.0934 h 17.487 z"
         fill="#014847"
         id="path7" /><path
         d="m 242.66,115.284 c 0,2.186 1.093,3.28 3.28,3.28 h 9.836 l 1.094,1.093 v 10.93 l -1.094,1.094 h -9.836 c -9.837,0 -18.58,-4.374 -18.58,-16.397 V 91.2368 l -1.094,-1.0934 h -7.649 L 217.523,89.05 V 78.1199 l 1.094,-1.0934 h 7.649 l 1.094,-1.0933 v -9.8367 l 1.093,-1.0934 h 13.117 l 1.093,1.0934 v 9.8367 l 1.094,1.0933 h 12.023 l 1.094,1.0934 V 89.05 l -1.094,1.0934 h -12.023 l -1.094,1.0934 v 24.0472 z"
         fill="#014847"
         id="path8" /><path
         d="m 283.1,131.681 h -13.117 l -1.094,-1.094 V 56.2636 l 1.094,-1.0934 H 283.1 l 1.093,1.0934 v 74.3234 z"
         fill="#014847"
         id="path9" /><path
         d="m 312.61,68.2871 h -13.117 l -1.094,-1.0934 V 56.2636 l 1.094,-1.0934 h 13.117 l 1.093,1.0934 v 10.9301 z m 0,63.3939 h -13.117 l -1.094,-1.094 V 78.1237 l 1.094,-1.0933 h 13.117 l 1.093,1.0933 v 52.4633 z"
         fill="#014847"
         id="path10" /><path
         d="m 363.98,56.2636 v 10.9301 l -1.094,1.0934 h -9.836 c -2.187,0 -3.281,1.0934 -3.281,3.2801 v 4.3736 l 1.094,1.0934 h 10.93 l 1.093,1.0934 v 10.93 l -1.093,1.0934 h -10.93 l -1.094,1.0934 v 39.3466 l -1.093,1.093 h -13.117 l -1.093,-1.093 V 91.2444 l -1.094,-1.0934 h -7.649 l -1.094,-1.0934 v -10.93 l 1.094,-1.0934 h 7.649 l 1.094,-1.0934 v -4.3736 c 0,-12.0234 8.743,-16.397 18.58,-16.397 h 9.836 l 1.094,1.0934 z"
         fill="#014847"
         id="path11" /><path
         d="m 404.42,132.774 c -4.374,10.93 -8.743,17.487 -24.047,17.487 h -5.467 l -1.093,-1.094 v -10.93 l 1.093,-1.093 h 5.467 c 5.463,0 6.556,-1.094 7.65,-4.374 v -1.093 L 370.536,89.05 V 78.1199 l 1.094,-1.0934 h 9.836 l 1.094,1.0934 13.117,37.1641 h 1.093 l 13.117,-37.1641 1.093,-1.0934 h 9.837 l 1.093,1.0934 V 89.05 l -17.486,43.72 z"
         fill="#014847"
         id="path12" /><path
         d="m 135.454,131.681 -1.093,-1.094 0.007,-31.6698 c 0,-5.4631 -2.148,-9.699 -8.743,-9.8366 -3.391,-0.088 -7.271,-0.0077 -11.416,0.1682 l -0.619,0.6346 0.008,40.7036 -1.094,1.094 H 99.3913 l -1.0934,-1.094 V 77.5388 l 1.0934,-1.0934 29.5097,-0.2676 c 14.784,0 20.767,10.1578 20.767,21.6231 v 32.7861 l -1.093,1.094 z"
         fill="#014847"
         id="path13" /></g></g><g
     id="intensedebate-group"
     transform="matrix(0.81011286,0,0,0.81011286,-636.08941,58.452084)"><circle
       style="fill:#ffffff;fill-opacity:1;stroke-width:11.3386;stroke-linecap:round"
       id="path14-9-7"
       cx="1313.4474"
       cy="747.24091"
       r="230.75903" /><g
       id="g8"
       transform="matrix(0.82814704,0,0,-0.82814704,1095.2553,782.71484)">
        <g
   id="g10"
   transform="scale(0.1)">
            <path
   d="m 1328.26,515.34 c -46.31,0 -73.87,-22.695 -94.55,-54.215 h -1.91 v 48.316 H 1131.35 V 10.2109 H 1231.8 V 346 c 0,44.285 12.78,68.922 50.15,68.922 31.53,0 49.26,-22.695 49.26,-59.102 V 10.2109 h 100.42 V 393.234 c 0,89.571 -53.16,122.106 -103.37,122.106 z M 666.648,661.023 H 566.16 V 509.441 H 515.934 V 430.645 H 566.16 V 127.352 c 0,-53.1918 30.543,-117.1411 121.145,-117.1411 h 41.332 V 104.68 c -44.321,0 -61.989,2.992 -61.989,49.269 v 276.696 h 61.989 v 78.796 H 666.648 Z M 1952.49,357.793 c 0,37.414 18.69,57.129 49.26,57.129 30.51,0 49.18,-19.715 49.18,-57.129 v -57.176 h -98.44 z m 198.89,-135.898 v 137.882 c 0,87.598 -57.1,155.563 -149.63,155.563 -61.06,0 -107.37,-28.606 -131,-71.922 -13.79,-25.574 -18.71,-61.016 -18.71,-101.414 V 177.57 c 0,-40.398 4.92,-75.84 18.71,-101.4216 23.63,-43.3203 69.94,-71.88668 131,-71.88668 46.26,0 82.71,16.77738 109.27,44.28908 25.65,26.5508 40.36,64.9882 40.36,106.3202 h -100.45 c -1.91,-21.633 -10.83,-50.191 -49.18,-50.191 -30.57,0 -49.26,17.781 -49.26,49.269 v 67.946 z M 957.109,300.617 h -98.554 v 57.176 c 0,37.414 18.75,57.129 49.254,57.129 30.554,0 49.3,-19.715 49.3,-57.129 z m -49.3,214.723 c -60.977,0 -107.321,-28.606 -130.883,-71.922 -13.895,-25.574 -18.785,-61.016 -18.785,-101.414 V 177.57 c 0,-40.398 4.89,-75.84 18.785,-101.4216 23.562,-43.3203 69.906,-71.88668 130.883,-71.88668 46.312,0 82.718,16.77738 109.301,44.28908 25.62,26.5508 40.41,64.9882 40.41,106.3202 H 957.109 c -1.976,-21.633 -10.902,-50.191 -49.3,-50.191 -30.504,0 -49.254,17.781 -49.254,49.269 v 67.946 h 198.965 v 137.882 c 0,87.598 -57.09,155.563 -149.711,155.563 z M 0,610.832 H 100.445 V 711.32 H 0 Z M 380.078,515.34 c -46.226,0 -73.828,-22.695 -94.515,-54.215 h -1.911 v 48.316 H 183.164 V 10.2109 H 283.652 V 346 c 0,44.285 12.778,68.922 50.2,68.922 31.507,0 49.175,-22.695 49.175,-59.102 V 10.2109 H 483.52 V 393.234 c 0,89.571 -53.25,122.106 -103.442,122.106 z M 0,10.2109 H 100.445 V 509.441 H 0 Z m 1697.47,285.5231 -32.56,13.036 -26.51,10.597 c -37.39,14.715 -42.35,32.488 -42.35,51.153 0,25.703 17.74,50.234 49.26,50.234 26.55,0 50.2,-17.668 51.19,-51.164 h 94.56 c -0.94,82.754 -60.13,145.75 -141.84,145.75 -80.73,0 -147.65,-61.09 -147.65,-145.75 0,-22.547 4.44,-42.871 12.66,-60.82 16.13,-35.332 46.98,-61.446 88.69,-77.04 l 48.29,-17.707 c 38.43,-14.785 50.15,-33.535 50.15,-61.132 0,-33.45 -27.52,-54.1527 -56.05,-54.1527 -37.42,0 -50.27,28.6137 -54.15,56.1327 h -94.56 c 3.96,-98.4022 70.92,-150.60928 149.68,-150.60928 86.66,0 149.65,68.00778 149.65,150.60928 0,59.152 -23.58,112.317 -98.46,140.863"
   style="fill:#27b5e4;fill-opacity:1;fill-rule:nonzero;stroke:none"
   id="path12-4" />
            <path
   d="m 4198.24,358.84 c 0,37.937 19.69,57.976 51.79,57.976 32.08,0 51.7,-20.039 51.7,-57.976 v -58 h -103.49 z m 209.05,-137.922 v 139.934 c 0,89.003 -59.98,157.89 -157.26,157.89 -64.19,0 -112.89,-28.945 -137.71,-72.883 -14.49,-26.004 -19.65,-62 -19.65,-103.035 V 175.891 c 0,-40.961 5.16,-76.9613 19.65,-102.9105 C 4137.14,28.9883 4185.84,0 4250.03,0 c 48.54,0 86.91,16.9492 114.83,44.9688 26.9,26.9921 42.43,65.9532 42.43,107.9222 h -105.56 c -2.05,-21.961 -11.36,-50.942 -51.7,-50.942 -32.1,0 -51.79,18.012 -51.79,50 v 68.969 z M 3981.98,666.777 H 3876.49 V 512.813 h -52.8 v -79.961 h 52.8 V 124.961 c 0,-53.9219 32,-118.98053 127.27,-118.98053 h 43.42 V 101.949 c -46.52,0 -65.2,2.981 -65.2,50 v 280.903 h 65.2 v 79.961 h -65.2 z M 3678.83,154.941 c 0,-40.961 -21.78,-64.9801 -56.92,-64.9801 -34.16,0 -54.88,25.9691 -54.88,64.9801 0,53.997 37.26,71.965 82.85,71.965 9.3,0 17.53,-1.008 28.95,-3.058 z m -52.77,363.801 c -47.65,0 -86.92,-15.941 -114.94,-42.949 -27.9,-26.961 -44.47,-64.973 -47.57,-109.961 h 102.47 c 6.24,33.047 33.09,50.984 60.04,50.984 39.3,0 52.77,-25.964 52.77,-59.961 v -52.949 c -21.78,0.93 -36.22,2.989 -50.69,2.989 -132.48,0 -166.56,-56.055 -166.56,-171.965 C 3461.58,23.0117 3526.73,0 3575.32,0 c 50.74,0 73.53,21.0391 101.5,58.0117 h 2.01 V 5.98047 h 105.54 V 358.84 c 0,105.976 -70.36,159.902 -158.31,159.902 z M 3272.17,170.891 c 0,-40.93 -15.5,-68.942 -51.72,-68.942 -32.12,0 -52.76,26 -52.76,62.961 v 196.918 c 0,32.07 22.77,54.988 52.76,54.988 40.39,0 51.72,-27.984 51.72,-59.961 z m -5.12,347.851 c -41.38,0 -74.57,-18.961 -97.27,-51.906 h -2.09 V 717.707 H 3062.11 V 5.98047 h 105.58 V 51.9492 C 3194.57,23.0117 3215.24,0 3268.07,0 c 42.41,0 73.44,14.9414 92.12,47.9609 12.35,22 17.58,53.0591 17.58,108.9691 v 192.914 c 0,73 -3.14,101.972 -16.58,123 -17.6,26.937 -43.5,45.898 -94.14,45.898 z M 2864.52,300.84 h -103.5 v 58 c 0,37.937 19.56,57.976 51.68,57.976 32.15,0 51.82,-20.039 51.82,-57.976 z m -51.82,217.902 c -64.19,0 -112.75,-28.945 -137.58,-72.883 -14.53,-26.004 -19.67,-62 -19.67,-103.035 V 175.891 c 0,-40.961 5.14,-76.9613 19.67,-102.9105 C 2699.95,28.9883 2748.51,0 2812.7,0 c 48.72,0 86.96,16.9492 114.94,44.9688 26.84,26.9921 42.46,65.9532 42.46,107.9222 h -105.58 c -2.08,-21.961 -11.38,-50.942 -51.82,-50.942 -32.12,0 -51.68,18.012 -51.68,50 v 68.969 h 209.08 v 139.934 c 0,89.003 -60.08,157.89 -157.4,157.89 z M 2457.85,164.91 c 0,-36.961 -20.68,-62.961 -52.83,-62.961 -36.15,0 -51.69,28.012 -51.69,68.942 v 185.964 c 0,31.977 11.31,59.961 51.69,59.961 30.06,0 52.83,-22.918 52.83,-54.988 z m 0,301.926 h -2.09 c -22.77,32.945 -55.9,51.906 -97.28,51.906 -50.71,0 -76.6,-18.961 -94.17,-45.898 -13.48,-21.028 -16.62,-50 -16.62,-123 V 156.93 c 0,-55.91 5.22,-86.9691 17.66,-108.9691 C 2283.95,14.9414 2315.02,0 2357.44,0 c 52.77,0 73.49,23.0117 100.41,51.9492 V 5.98047 h 105.54 V 717.707 H 2457.85 V 466.836"
   style="fill:#444142;fill-opacity:1;fill-rule:nonzero;stroke:none"
   id="path14-23" />
            <path
   d="m 5277.01,1189.02 c 0,0 -1.12,-53.07 -50.22,-134.4 -49.19,-81.593 -178.66,-105.792 -254.99,-117.749 -76.47,-11.875 -139.22,7.961 -239.58,-41.824 -100.39,-49.918 -60.14,-102.242 -174.78,-174.988 -114.67,-72.559 -146.89,67.89 -56.31,95.226 90.52,27.406 113.01,3.438 177.01,157.969 63.85,154.486 241.76,77.296 241.76,77.296 0,0 -156.1,130.59 -280,-28.46 -123.84,-158.969 -203.74,-50.031 -283.4,-111.422 -79.58,-61.477 -52.31,-131.004 -87.72,-204.383 -35.55,-73.387 -69.28,-110.019 -106.27,-86.754 -37.14,23.27 -48.44,85.625 2.68,120.77 51.16,34.875 54.3,29.656 77.12,81.219 22.65,51.535 -20.37,104.679 -20.37,104.679 0,0 -18.13,-63.117 -46.3,-94.179 -26.69,-29.364 -89.24,-49.313 -214.79,-72.672 h 18.29 c 42.25,0 76.49,-34.25 76.49,-76.52 V 604.59 c 22.13,-3.281 41.19,-16.047 52.88,-33.977 38.69,26.215 86.55,40.746 138.69,40.746 53.17,0 100.52,-15.39 138.53,-42.089 58.82,-41.266 95.25,-109.825 95.25,-192.325 V 263.313 c 21.42,-4.856 49.35,-19.942 84.08,-33.829 67,-27.004 99.33,-26.886 193.18,81.004 93.81,108.067 243.22,20.235 243.22,20.235 0,0 -38.77,34.199 -76.85,59.113 -38.1,25.254 -93.28,40.176 -143.71,38.836 -50.11,-1.16 -80.51,-4.774 -138.95,-39.336 -58.38,-34.559 -82.45,-25.117 -101.23,6.582 -18.82,31.738 11.87,73.75 46.22,94.219 34.48,20.23 73.25,28.988 187.4,-3.321 114.29,-32.332 150.8,-15.574 220.27,58.934 69.58,74.418 20.65,188.387 20.65,188.387 0,0 -1.33,-72.184 -53.46,-117.442 -51.99,-45.144 -113.37,-43.281 -143.41,15.196 -29.94,58.363 -27.43,116.918 53.52,160.093 81.16,43.356 98.62,6.129 283.47,101.309 184.85,95.004 121.63,295.727 121.63,295.727"
   style="fill:#27b5e4;fill-opacity:1;fill-rule:nonzero;stroke:none"
   id="path16" />
            <path
   d="m 4469.2,95.4492 c 71.78,32.6528 142.92,-23.7383 142.92,-23.7383 0,0 8.07,33.3091 -10.75,64.8911 -18.75,31.91 -53.85,44.418 -88.51,47.808 -10.38,1.02 -22.85,2.309 -34.81,4.633 1.75,-6.422 2.93,-13.082 2.93,-20.043 0,-25.34 -4.19,-50.129 -11.78,-73.5508"
   style="fill:#27b5e4;fill-opacity:1;fill-rule:nonzero;stroke:none"
   id="path18-2" />
        </g>
    </g></g><g
     id="inkscape-group"
     transform="matrix(0.81011286,0,0,0.81011286,-19.342766,-328.39149)"><circle
       style="fill:#ffffff;fill-opacity:1;stroke-width:11.3386;stroke-linecap:round"
       id="path14-232"
       cx="1509.759"
       cy="1224.759"
       r="230.75903" /><g
       transform="matrix(3.2716776,0,0,3.2716776,1301.5276,1016.0774)"
       style="display:inline;enable-background:new"
       id="g59"><g
         style="opacity:0.783251"
         id="g32"><path
           d="m 54.1,12.988307 -41.2,42.2 c -15.6,15.6 10.1,14.3 19.4,20.2 4.3,2.8 -13.8,6.4 -10.1,10.1 3.6,3.7 21.7,7.1 25.3,10.7 3.6,3.699996 -7.3,7.600003 -3.7,11.300003 3.5,3.7 11.9,0.2 13.4,8.6 1.1,6.2 15.4,3.1 21.8,-2.2 4,-3.4 -6.9,-3.4 -3.3,-7.1 9,-9.100003 17,-4.1 20.3,-12.500003 1.8,-4.5 -13.6,-7.7 -9.5,-10.6 9.8,-6.9 45.8,-10.4 29.2,-27 l -42.7,-43.7 c -5.3,-5.0000003 -14,-5.0000003 -18.9,0 z m 47.3,81.3 c 0,2.1 16.3,3.3 15.4,-0.5 -1.3,-6.4 -13.6,-5.9 -15.4,0.5 z M 31.9,105.38831 c 3.7,3.2 9.3,-0.7 11.1,-5.2 -3.6,-4.700003 -16.9,0.3 -11.1,5.2 z m 67.5,-6.700003 c -4.6,4.200003 0.8,8.600003 5.3,5.700003 1.2,-0.8 -0.1,-4.700007 -5.3,-5.700003 z"
           style="fill:#000000;fill-opacity:1;filter:url(#q)"
           transform="translate(3.7e-7,0.4883067)"
           id="path31" /><path
           d="m 54.1,13.964921 -41.2,42.2 c -15.6,15.6 10.1,14.3 19.4,20.2 4.3,2.8 -13.8,6.4 -10.1,10.1 3.6,3.7 21.7,7.1 25.3,10.7 3.6,3.699999 -7.3,7.600009 -3.7,11.300009 3.5,3.7 11.9,0.2 13.4,8.6 1.1,6.2 15.4,3.1 21.8,-2.2 4,-3.4 -6.9,-3.4 -3.3,-7.1 9,-9.100009 17,-4.1 20.3,-12.500009 1.8,-4.5 -13.6,-7.7 -9.5,-10.6 9.8,-6.9 45.8,-10.4 29.2,-27 l -42.7,-43.7 c -5.3,-5.0000009 -14,-5.0000009 -18.9,0 z m 47.3,81.3 c 0,2.1 16.3,3.3 15.4,-0.5 -1.3,-6.4 -13.6,-5.9 -15.4,0.5 z M 31.9,106.36493 c 3.7,3.2 9.3,-0.7 11.1,-5.2 -3.6,-4.700009 -16.9,0.3 -11.1,5.2 z m 67.5,-6.700009 c -4.6,4.200009 0.8,8.600009 5.3,5.700009 1.2,-0.8 -0.1,-4.70001 -5.3,-5.700009 z"
           style="opacity:0.576355;fill:#000000;fill-opacity:1;filter:url(#r)"
           transform="translate(3.7e-7,0.4883067)"
           id="path32" /></g><path
         d="M 54.1,12.5 12.9,54.7 C -2.7,70.3 23,69 32.3,74.9 36.6,77.7 18.5,81.3 22.2,85 c 3.6,3.7 21.7,7.1 25.3,10.7 3.6,3.7 -7.3,7.6 -3.7,11.3 3.5,3.7 11.9,0.2 13.4,8.6 1.1,6.2 15.4,3.1 21.8,-2.2 4,-3.4 -6.9,-3.4 -3.3,-7.1 9,-9.1 17,-4.1 20.3,-12.5 1.8,-4.5 -13.6,-7.7 -9.5,-10.6 9.8,-6.9 45.8,-10.4 29.2,-27 L 73,12.5 c -5.3,-5 -14,-5 -18.9,0 z m 47.3,81.3 c 0,2.1 16.3,3.3 15.4,-0.5 -1.3,-6.4 -13.6,-5.9 -15.4,0.5 z m -69.5,11.1 c 3.7,3.2 9.3,-0.7 11.1,-5.2 -3.6,-4.7 -16.9,0.3 -11.1,5.2 z m 67.5,-6.7 c -4.6,4.2 0.8,8.6 5.3,5.7 1.2,-0.8 -0.1,-4.7 -5.3,-5.7 z"
         style="fill:#000000;fill-opacity:1"
         id="path33" /><path
         d="M 54.1,12.5 12.9,54.7 C -2.7,70.3 23,69 32.3,74.9 36.6,77.7 18.5,81.3 22.2,85 c 3.6,3.7 21.7,7.1 25.3,10.7 3.6,3.7 -7.3,7.6 -3.7,11.3 3.5,3.7 11.9,0.2 13.4,8.6 1.1,6.2 15.4,3.1 21.8,-2.2 4,-3.4 -6.9,-3.4 -3.3,-7.1 9,-9.1 17,-4.1 20.3,-12.5 1.8,-4.5 -13.6,-7.7 -9.5,-10.6 9.8,-6.9 45.8,-10.4 29.2,-27 L 73,12.5 c -5.3,-5 -14,-5 -18.9,0 z m 47.3,81.3 c 0,2.1 16.3,3.3 15.4,-0.5 -1.3,-6.4 -13.6,-5.9 -15.4,0.5 z m -69.5,11.1 c 3.7,3.2 9.3,-0.7 11.1,-5.2 -3.6,-4.7 -16.9,0.3 -11.1,5.2 z m 67.5,-6.7 c -4.6,4.2 0.8,8.6 5.3,5.7 1.2,-0.8 -0.1,-4.7 -5.3,-5.7 z"
         style="fill:none"
         id="path34" /><use
         transform="matrix(0.99054,0,0,0.99054,0.6051535,0.604136)"
         clip-path="url(#s)"
         style="opacity:0.669951;fill:url(#t);filter:url(#filter8490-0)"
         width="400"
         height="300"
         xlink:href="#d"
         id="use34" /><path
         d="M 16.565217,57.039374 C 5.3632748,68.140398 25.042362,65.011927 40.180121,70.966113 L 71.464824,15.965587 c -4.743164,-4.844083 -10.798268,-4.44041 -15.137759,0 z"
         style="opacity:0.505263;fill:url(#u);stroke:none"
         id="path35" /><path
         d="m 70.5,15.5 16.3,16.6 c 1.5,1.5 1.5,4.6 0.6,5.5 L 79.3,31 77.7,40.7 71,37.1 60.1,44 56.5,29.5 50.7,42.1 36.2,42 c -2.8,0 -2.4,-2.9 0.5,-5.8 5.7,-6.3 16.8,-17 20.3,-20.7 3.6,-3.7 9.9,-3.6 13.5,0 z"
         style="fill:url(#v)"
         id="path36" /><path
         d="m 113,203.5 c 0,0 3.34046,5.10071 3,7.5 -0.66817,4.70868 -10.80945,7.05842 -8.5625,11.25 2.21991,4.14114 10.22139,1.79405 16.9375,6.125 6.6875,4.3125 4.88949,13.10149 9.75,15.3125 9.47925,4.31205 34.375,-7.4375 33.125,-7.1875 -1.25,0.25 -24.57014,5.09545 -29.82014,0.84545 -5.98592,-4.84575 -7.70217,-8.23028 -12.11736,-11.09545 -4.13751,-2.68498 -9.94967,-3.78036 -11.30246,-5.97865 -1.35279,-2.19829 2.7092,-5.03469 2.98996,-9.27135 0.16862,-2.54442 -4,-7.5 -4,-7.5 z"
         transform="matrix(0.52965,0,0,0.52965,-11.722258,-13.864159)"
         style="opacity:0.216749;fill:url(#w);fill-opacity:1;fill-rule:evenodd;stroke:none"
         id="path37" /><path
         d="m 113,203.5 c 0,0 3.34046,5.10071 3,7.5 -0.66817,4.70868 -10.80945,7.05842 -8.5625,11.25 2.21991,4.14114 10.22139,1.79405 16.9375,6.125 6.6875,4.3125 4.88949,13.10149 9.75,15.3125 9.47925,4.31205 34.375,-7.4375 33.125,-7.1875 -41.33959,0.15736 -33.62485,-10.4946 -49.5625,-17.5 -2.30305,-1.0123 -0.96826,-3.76334 -0.6875,-8 0.16862,-2.54442 -4,-7.5 -4,-7.5 z"
         transform="matrix(0.52965,0,0,0.52965,-11.722258,-13.864159)"
         style="opacity:0.275862;fill:url(#x);fill-opacity:1;fill-rule:evenodd;stroke:none;filter:url(#filter8732-3)"
         id="path38" /><path
         d="M 183.25,181.75 C 220.35371,168.09541 232.27363,166.21942 244.5,154 230.33931,165.95366 200.40153,172.3658 176,183 Z"
         transform="matrix(0.52965,0,0,0.52965,-11.722258,-13.864159)"
         style="opacity:0.453202;fill:url(#y);fill-opacity:1;fill-rule:evenodd;stroke:none"
         id="path39" /><path
         d="m 183.25,181.75 c 61.10371,-21.65459 50.77363,-21.53058 61.25,-27.75 -19.42769,7.43666 -55.73446,8.22981 -68.5,29 z"
         transform="matrix(0.52965,0,0,0.52965,-11.722258,-14.791044)"
         style="opacity:0.512315;fill:url(#z);fill-opacity:1;fill-rule:evenodd;stroke:none;filter:url(#filter8764-9)"
         id="path40" /><path
         d="m 237.875,199.0625 a 7.9375,2.4375 0 1 1 -15.875,0 7.9375,2.4375 0 1 1 15.875,0 z"
         transform="matrix(0.52965,0,0,0.52965,-12.384318,-14.791044)"
         style="display:inline;overflow:visible;visibility:visible;opacity:0.285714;fill:url(#linearGradient1);fill-opacity:1;fill-rule:nonzero;stroke:none;stroke-width:1;marker:none;enable-background:accumulate"
         id="path41" /><path
         d="m 237.875,199.0625 a 7.9375,2.4375 0 1 1 -15.875,0 7.9375,2.4375 0 1 1 15.875,0 z"
         transform="matrix(0.71315,0,0,1.14078,-54.577902,-134.95502)"
         style="display:inline;overflow:visible;visibility:visible;opacity:0.620689;fill:url(#linearGradient2);fill-opacity:1;fill-rule:nonzero;stroke:none;stroke-width:1;marker:none;filter:url(#filter8906-3);enable-background:accumulate"
         id="path42" /><path
         d="m 214.125,203.75 c 3.76948,3.48424 24.75576,5.27219 28.1875,-1 -6.73663,4.7839 -21.71677,3.10264 -28.1875,1 z"
         transform="matrix(0.52965,0,0,0.52965,-11.722258,-14.238677)"
         style="fill:url(#C);fill-opacity:1;fill-rule:evenodd;stroke:none;filter:url(#filter8980-1)"
         id="path43" /><path
         d="m 236.44594,199.0625 a 6.5084434,3.0820823 0 1 1 -13.01688,0 6.5084434,3.0820823 0 1 1 13.01688,0 z"
         transform="matrix(0.20425,-0.10356,0.23952,0.4724,5.7547955,30.286555)"
         style="display:inline;overflow:visible;visibility:visible;opacity:0.285714;fill:url(#linearGradient3);fill-opacity:1;fill-rule:nonzero;stroke:none;stroke-width:1;marker:none;enable-background:accumulate"
         id="path44" /><path
         d="m 236.99305,199.0625 a 7.0555515,2.1400476 0 1 1 -14.1111,0 7.0555515,2.1400476 0 1 1 14.1111,0 z"
         transform="matrix(0.27502,-0.13944,0.51588,1.01747,-65.353496,-69.300635)"
         style="display:inline;overflow:visible;visibility:visible;opacity:0.620689;fill:url(#linearGradient4);fill-opacity:1;fill-rule:nonzero;stroke:none;stroke-width:1;marker:none;filter:url(#filter8906-3);enable-background:accumulate"
         id="path45" /><path
         d="m 217.05754,201.94027 c 3.76948,3.48424 26.97122,8.91123 25.25496,0.80973 -3.31737,5.32326 -18.78423,1.29291 -25.25496,-0.80973 z"
         transform="matrix(0.20425,-0.10356,0.23952,0.4724,6.2599008,30.649764)"
         style="fill:url(#F);fill-opacity:1;fill-rule:evenodd;stroke:none;filter:url(#filter8980-1)"
         id="path46" /><path
         d="m 68.25,186 c 0,-0.62057 38.84622,11.83854 45.5,18.5 -5.47122,-5.33854 -33.159709,-17.61609 -37.375,-17.75 -4.215291,-0.13391 -7.625,-0.5 -8.125,-0.75 z"
         transform="matrix(0.52965,0,0,0.52965,-11.722258,-13.864159)"
         style="fill:url(#G);fill-opacity:1;fill-rule:evenodd;stroke:none"
         id="path47" /><path
         d="m 237.875,199.0625 a 7.9375,2.4375 0 1 1 -15.875,0 7.9375,2.4375 0 1 1 15.875,0 z"
         transform="matrix(0.46557,-0.10222,0.12385,0.3686,-95.518389,49.727432)"
         style="display:inline;overflow:visible;visibility:visible;opacity:0.285714;fill:url(#A);fill-opacity:1;fill-rule:nonzero;stroke:none;stroke-width:1;marker:none;enable-background:accumulate"
         id="path48" /><path
         d="m 237.875,199.0625 a 7.9375,2.4375 0 1 1 -15.875,0 7.9375,2.4375 0 1 1 15.875,0 z"
         transform="matrix(0.62687,-0.13763,0.26675,0.7939,-160.70561,-25.755035)"
         style="display:inline;overflow:visible;visibility:visible;opacity:0.620689;fill:url(#B);fill-opacity:1;fill-rule:nonzero;stroke:none;stroke-width:1;marker:none;filter:url(#filter8906-3);enable-background:accumulate"
         id="path49" /><path
         d="m 80.5,220.0625 c 0,0 2.10339,5.65078 7.875,5.9375 5.83887,0.29006 12.50324,-7.00698 13.0625,-9.625 -1,2.25 -6.590334,9.03328 -13.8125,8.9375 -4.099862,-0.0544 -7.125,-5.25 -7.125,-5.25 z"
         transform="matrix(0.52965,0,0,0.52965,-11.622949,-14.42691)"
         style="opacity:0.615764;fill:url(#J);fill-opacity:1;fill-rule:evenodd;stroke:none;filter:url(#filter9068-2)"
         id="path50" /><path
         d="m 63.40625,10.21875 c -3.098181,0 -6.134601,1.122042 -8.28125,3.3125 l -41.1875,42.1875 c -3.76562,3.76562 -4.6702413,6.23069 -4.4375,7.625 0.1163706,0.697155 0.4585994,1.303027 1.1875,1.9375 0.728901,0.634473 1.831495,1.256389 3.15625,1.8125 2.649511,1.112222 6.217961,2.008085 9.71875,2.96875 3.500789,0.960665 6.929812,1.974626 9.53125,3.625 0.396623,0.258266 0.769088,0.576468 1.03125,1.03125 0.262162,0.454782 0.354216,1.056088 0.25,1.5625 -0.208431,1.012824 -0.83202,1.546985 -1.46875,2.03125 -1.27346,0.96853 -3.023257,1.773229 -4.78125,2.625 -1.757993,0.851771 -3.524925,1.723242 -4.40625,2.4375 -0.440663,0.357129 -0.600112,0.678133 -0.59375,0.65625 0.0064,-0.02188 -0.116851,-0.273101 0.09375,-0.0625 0.551764,0.56709 2.274075,1.538165 4.46875,2.40625 2.194675,0.868085 4.88065,1.745624 7.59375,2.625 2.7131,0.879376 5.4575,1.749959 7.78125,2.65625 2.32375,0.906291 4.217694,1.748944 5.46875,3 0.622681,0.639978 1.062632,1.435956 1.15625,2.25 0.09362,0.814044 -0.126809,1.578032 -0.4375,2.21875 -0.621382,1.28144 -1.620313,2.26719 -2.53125,3.21875 -0.910938,0.95156 -1.736226,1.86034 -2.03125,2.46875 -0.147512,0.3042 -0.170347,0.50242 -0.15625,0.625 0.0141,0.12258 0.03518,0.24623 0.3125,0.53125 A 1.4566768,1.4566768 0 0 1 44.875,106 c 1.193594,1.2618 3.787002,1.43924 6.71875,2.125 1.465874,0.34288 2.998909,0.86196 4.3125,2 1.313591,1.13804 2.299435,2.87059 2.71875,5.21875 0.176459,0.99459 0.702722,1.4788 1.96875,1.875 1.266028,0.3962 3.194353,0.46554 5.3125,0.15625 4.236295,-0.61859 9.260035,-2.69532 12.15625,-5.09375 0.17999,-0.15299 0.129956,-0.11255 0.1875,-0.1875 -0.194805,-0.13939 -0.651644,-0.43652 -1.40625,-0.8125 -0.891527,-0.4442 -1.944708,-0.85956 -2.75,-1.875 -0.402646,-0.50772 -0.679877,-1.30934 -0.5625,-2.09375 0.117377,-0.78441 0.546832,-1.43702 1.125,-2.03125 4.745751,-4.79848 9.421937,-5.944136 12.9375,-6.875 1.757782,-0.465432 3.229292,-0.891233 4.34375,-1.59375 1.114458,-0.702517 1.98508,-1.663728 2.71875,-3.53125 0.08087,-0.202174 0.07855,-0.260846 -0.03125,-0.5 C 94.515197,92.542096 94.220541,92.159521 93.75,91.75 92.808918,90.930959 91.239577,90.050804 89.6875,89.1875 88.135423,88.324196 86.627034,87.519262 85.53125,86.5 84.983358,85.990369 84.409233,85.348367 84.34375,84.375 84.27827,83.401633 84.916318,82.523367 85.65625,82 88.401968,80.06679 92.552528,78.595094 97.0625,77.03125 101.57247,75.467406 106.42363,73.849125 110.375,72 c 3.95137,-1.849125 6.85729,-3.978669 7.78125,-6.125 0.46198,-1.073165 0.54663,-2.158606 0.0625,-3.5625 -0.48413,-1.403894 -1.58958,-3.120831 -3.5625,-5.09375 L 72,13.5625 c -0.01071,-0.0101 -0.02051,-0.02119 -0.03125,-0.03125 -2.357722,-2.207738 -5.478371,-3.3125 -8.5625,-3.3125 z m 45.9375,80 c -2.63522,0.09513 -5.05952,1.301393 -6.09375,3.1875 0.29381,0.110524 0.55838,0.234969 1.03125,0.34375 1.37562,0.316455 3.29543,0.520736 5.1875,0.5625 1.89207,0.04176 3.78415,-0.117472 4.9375,-0.4375 0.50487,-0.14009 0.77236,-0.281778 0.90625,-0.375 -0.2558,-1.091098 -0.86487,-1.862126 -1.90625,-2.4375 -1.07862,-0.595951 -2.55669,-0.898111 -4.0625,-0.84375 z m -70.5,9.0625 c -2.089872,-0.145348 -4.716548,0.686551 -6,1.71875 -0.641726,0.5161 -0.913269,0.99441 -0.9375,1.3125 -0.02423,0.31809 0.07726,0.74199 0.9375,1.46875 a 1.4566768,1.4566768 0 0 1 0,0.0312 c 1.352809,1.17 2.882256,1.04802 4.625,0.0937 1.460951,-0.79997 2.757201,-2.30075 3.625,-3.875 -0.585032,-0.377341 -1.284532,-0.682853 -2.25,-0.75 z m 61,0.625 c -0.447303,0.5686 -0.690902,1.09797 -0.71875,1.46875 -0.03844,0.51176 0.106611,0.90723 0.5,1.28125 0.73729,0.70099 2.33912,1.00278 3.96875,0.125 -0.0322,-0.1891 -0.0933,-0.47591 -0.34375,-0.84375 -0.4999,-0.73414 -1.6686,-1.5251 -3.40625,-2.03125 z"
         style="fill:none;stroke:url(#K);stroke-width:0.488307;stroke-miterlimit:4;stroke-dasharray:none;stroke-opacity:1;filter:url(#filter9298-4)"
         id="path51" /><path
         d="m 95.5,172 c -5.090606,1.50191 -21.592018,7.73713 -19.25,12.5 2.243595,4.56272 40.61138,6.40132 46.5,20 2.5679,5.93009 -5.89238,10.40326 -3.75,16.5 1.64973,4.69477 14.41196,16.49084 22.48603,22.06781 6.33298,4.37435 14.65096,-3.52244 11.26397,-10.06781 -5.39589,-10.42759 18.44266,-23.19912 29.25,-29 6.30524,-3.38436 -13,-20 -13,-20 z"
         transform="matrix(0.4883,0,0,0.4883,-5.8104012,-7.7042521)"
         style="opacity:0.325123;fill:url(#L);fill-opacity:1;fill-rule:evenodd;stroke:none;filter:url(#filter5983-8)"
         id="path52" /><path
         d="m 41.742167,78.533037 c 2.231933,1.639226 6.636757,0.650538 9.282124,1.841759 6.349518,2.859218 14.154941,6.045427 12.718568,0.404555 l -1.615771,1.342042 -0.03153,-2.557545 -3.751977,0.916294 c 0,0 -2.906173,-2.332759 -4.238526,-3.101995 -0.27829,-0.160669 -1.707695,1.292815 -1.707695,1.292815 l -0.25697,-1.543804 c -1.857372,-0.197638 -3.696159,-0.284805 -5.31515,-0.271821 -3.880942,0.03112 -6.499059,0.637741 -5.083074,1.6777 z"
         style="fill:url(#M);fill-opacity:1;fill-rule:evenodd;stroke:none"
         id="path53" /><path
         d="m 182.75,187.25 c -1.75981,6.4783 21.62776,15.27989 19.875,19.75 -3.85895,9.84158 -24.97596,3.13755 -41.125,23.75 -2.31318,2.95251 3.25,13.5 2.5,12.25 -0.75,-1.25 -6.4649,-9.96285 -5,-14.25 4.59417,-13.44525 49.0128,-18.45749 40.875,-24.875 -4.67988,-3.69058 -21.50546,-13.88721 -17.125,-16.625 z"
         transform="matrix(0.4883,0,0,0.4883,-5.8104012,-7.7042521)"
         style="opacity:0.477833;fill:url(#N);fill-opacity:1;fill-rule:evenodd;stroke:none;filter:url(#filter5845-5)"
         id="path54" /><path
         d="m 236.5,201.1875 a 2.5625,1.0625 0 1 1 -5.125,0 2.5625,1.0625 0 1 1 5.125,0 z"
         transform="matrix(0.4883,0,0,0.4883,-6.3597463,-8.0094438)"
         style="display:inline;overflow:visible;visibility:visible;opacity:0.586207;fill:#ffffff;fill-opacity:1;fill-rule:nonzero;stroke:none;stroke-width:1;marker:none;enable-background:accumulate"
         id="path55" /><path
         d="m 236.5,201.1875 a 2.5625,1.0625 0 1 1 -5.125,0 2.5625,1.0625 0 1 1 5.125,0 z"
         transform="matrix(0.30966,0,0,0.4883,27.528443,1.5735759)"
         style="display:inline;overflow:visible;visibility:visible;opacity:0.586207;fill:#ffffff;fill-opacity:1;fill-rule:nonzero;stroke:none;stroke-width:1;marker:none;enable-background:accumulate"
         id="path56" /><path
         d="m 236.5,201.1875 a 2.5625,1.0625 0 1 1 -5.125,0 2.5625,1.0625 0 1 1 5.125,0 z"
         transform="matrix(0.54786,0,0,0.4883,-92.102233,1.115795)"
         style="display:inline;overflow:visible;visibility:visible;opacity:0.586207;fill:#ffffff;fill-opacity:1;fill-rule:nonzero;stroke:none;stroke-width:1;marker:none;enable-background:accumulate"
         id="path57" /><path
         d="m 36.672282,76.528654 c -7.152988,4.424107 -18.274031,6.034229 -6.103834,8.972635 -1.449712,-3.2281 3.138581,-2.872021 6.103834,-8.972635 z"
         style="display:inline;overflow:visible;visibility:visible;opacity:0.251232;fill:url(#O);fill-opacity:1;fill-rule:nonzero;stroke:none;stroke-width:2.04789;marker:none;enable-background:accumulate"
         id="path58" /><path
         d="m 8.8342799,171.64721 c 0,0 22.5917801,-2.12795 27.8180201,-8.64645 3.05755,-3.81358 -12.15146,-8.2638 -8.86827,-12 12.35008,-14.0541 22.73076,-13.46729 37.05025,-19.35355 14.31949,-5.88626 9.03544,-8.76906 4.40381,-11.35355 -7.9325,-4.4264 -25.58722,-9.14237 -19.74696,-19.64645 5.87688,-10.569936 57.34315,-25.249996 57.34315,-25.249996 15.59619,-5.32843 13.63909,-14.96447 6,-23 l -46,-45.7499997 c 0,0 2.28296,43.3886497 -7,61.9999997 -11.4715,22.99914 -72.54408,48.661766 -47,51.499996 9,1 13.32065,4.0705 17,11 7.57631,14.26883 -21.0000001,40.5 -21.0000001,40.5 z"
         transform="matrix(0.4883,0,0,0.4883,57.750397,32.997477)"
         style="color:#000000;display:inline;overflow:visible;visibility:visible;opacity:0.363158;fill:url(#P);fill-opacity:1;fill-rule:nonzero;stroke:none;stroke-width:2;marker:none;filter:url(#filter10997-7-2);enable-background:accumulate"
         id="path59" /></g></g></svg>
