<?xml version="1.0" encoding="UTF-8" standalone="no"?>
<svg
   class="svg-icon"
   style="overflow:hidden;fill:currentColor"
   viewBox="0 0 1619.9999 1000"
   version="1.1"
   id="svg1"
   sodipodi:docname="csharp-1.svg"
   width="1619.9999"
   height="1000"
   inkscape:version="1.3.2 (091e20e, 2023-11-25, custom)"
   xmlns:inkscape="http://www.inkscape.org/namespaces/inkscape"
   xmlns:sodipodi="http://sodipodi.sourceforge.net/DTD/sodipodi-0.dtd"
   xmlns="http://www.w3.org/2000/svg"
   xmlns:svg="http://www.w3.org/2000/svg">
  <defs
     id="defs1" />
  <sodipodi:namedview
     id="namedview1"
     pagecolor="#505050"
     bordercolor="#eeeeee"
     borderopacity="1"
     inkscape:showpageshadow="0"
     inkscape:pageopacity="0"
     inkscape:pagecheckerboard="0"
     inkscape:deskcolor="#505050"
     inkscape:zoom="0.89111328"
     inkscape:cx="789.46192"
     inkscape:cy="761.40712"
     inkscape:window-width="3840"
     inkscape:window-height="2081"
     inkscape:window-x="-9"
     inkscape:window-y="-9"
     inkscape:window-maximized="1"
     inkscape:current-layer="svg1" />
  <path
     d="m 779.2178,669.38667 17.49333,104.10666 c -11.09333,5.97334 -29.01333,11.52 -52.90667,16.64 -24.32,5.54667 -52.90666,8.53334 -85.76,8.53334 C 563.75113,796.96 492.92446,768.8 445.56446,715.04 c -47.78666,-54.18667 -71.68,-122.88 -71.68,-206.08 2.13334,-98.56 30.72,-174.08 85.33334,-226.98667 56.32,-53.33333 126.29333,-80.64 210.77333,-80.64 32,0 59.73333,2.98667 82.77333,8.10667 23.04,5.12 40.10667,10.66667 51.2,17.06667 L 779.2178,332.74667 733.99113,318.24 c -17.06667,-4.26667 -36.69333,-6.4 -59.30667,-6.4 -49.49333,-0.42667 -90.45333,15.36 -122.45333,46.93333 -32.42667,31.14667 -49.06667,78.93334 -50.34667,142.50667 0,58.02667 15.78667,103.25333 46.08,136.53333 30.29334,32.85334 72.96,49.92 127.57334,50.34667 l 56.74666,-5.12 c 18.34667,-3.41333 33.70667,-8.10667 46.93334,-13.65333 m 101.97333,129.28 L 907.2178,628 h -64 l 14.50666,-85.33333 h 64 l 13.65334,-85.33334 h -64 L 885.88446,372 h 64 l 26.02667,-170.66667 h 85.33337 L 1035.2178,372 h 61.5643 l 26.0267,-170.66667 h 85.3333 L 1182.1154,372 h 64 l -14.5066,85.33333 h -64 l -13.6534,85.33334 h 64 L 1203.4488,628 h -64 l -26.0267,170.66667 h -85.3333 L 1054.1154,628 h -61.56427 l -26.02667,170.66667 h -85.33333 m 125.86667,-256 h 61.5643 l 13.6533,-85.33334 h -61.5643 z"
     fill="#0277BD"
     id="path1"
     style="fill:#13bd02;fill-opacity:1"
     sodipodi:nodetypes="cccccccsscccccccccccccccccccccccccccccccccccccccccccc" />
  <rect
     style="opacity:0.8;fill:#000000;fill-opacity:0;stroke-width:0.999998;stroke-linejoin:round;stroke-miterlimit:100"
     id="rect1"
     width="1619.9999"
     height="1000"
     x="0"
     y="0" />
</svg>
