<?xml version="1.0" encoding="UTF-8" standalone="no"?>
<!-- Generator: Adobe Illustrator 18.1.1, SVG Export Plug-In . SVG Version: 6.00 Build 0)  -->

<svg
   version="1.1"
   id="Layer_1"
   x="0px"
   y="0px"
   viewBox="0 0 1000 1000"
   enable-background="new 0 0 939 459"
   xml:space="preserve"
   sodipodi:docname="apache-software-foundation-logo-2016.svg"
   width="1000"
   height="1000"
   inkscape:version="1.3.2 (091e20e, 2023-11-25, custom)"
   xmlns:inkscape="http://www.inkscape.org/namespaces/inkscape"
   xmlns:sodipodi="http://sodipodi.sourceforge.net/DTD/sodipodi-0.dtd"
   xmlns="http://www.w3.org/2000/svg"
   xmlns:svg="http://www.w3.org/2000/svg"><defs
   id="defs151" /><sodipodi:namedview
   id="namedview151"
   pagecolor="#818181"
   bordercolor="#eeeeee"
   borderopacity="1"
   inkscape:showpageshadow="0"
   inkscape:pageopacity="0"
   inkscape:pagecheckerboard="true"
   inkscape:deskcolor="#808080"
   inkscape:zoom="0.53780618"
   inkscape:cx="750.27029"
   inkscape:cy="392.33465"
   inkscape:window-width="2504"
   inkscape:window-height="1200"
   inkscape:window-x="350"
   inkscape:window-y="409"
   inkscape:window-maximized="0"
   inkscape:current-layer="g152" />









<g
   id="g152"
   transform="matrix(1.7912533,0,0,1.7912533,-25.79879,89.459641)"
   style="stroke-width:0.558269"><g
     id="g1"><g
       id="g3"
       style="stroke-width:0.694886"
       transform="matrix(0.80339739,0,0,0.80339739,-145.81435,114.86986)">
	<path
   fill="#6d6e71"
   d="m 259.7,117.6 v 18.3 h -2.4 v -18.3 h -6.7 v -2.3 h 15.8 v 2.3 z"
   id="path1"
   style="stroke-width:0.694886" />
	<path
   fill="#6d6e71"
   d="m 292.6,135.9 v -9.1 h -12.4 v 9.1 h -2.4 v -20.6 h 2.4 v 9.3 h 12.4 v -9.3 h 2.4 v 20.6 z"
   id="path2"
   style="stroke-width:0.694886" />
	<path
   fill="#6d6e71"
   d="m 311.4,117.6 v 6.8 h 10.4 v 2.3 h -10.4 v 7.1 h 12 V 136 H 309 v -20.6 h 14 v 2.3 h -11.6 z"
   id="path3"
   style="stroke-width:0.694886" />
</g><g
       id="g10"
       style="stroke-width:0.694886"
       transform="matrix(0.80339739,0,0,0.80339739,-145.81435,114.86986)">
	<g
   id="g9"
   style="stroke-width:0.694886">
		<path
   fill="#d22128"
   d="m 232.6,277.3 49.3,-117.8 h 9.5 l 49.3,117.8 H 328.3 L 313,240.5 h -53 l -15.1,36.8 z m 54.1,-104.2 -24.2,58.2 h 47.8 z"
   id="path4"
   style="stroke-width:0.694886" />
		<path
   fill="#d22128"
   d="M 353.3,277.3 V 159.5 h 48.8 c 20.2,0 34.8,18.7 34.8,37 0,19.2 -13.6,37.3 -33.8,37.3 h -38.3 v 43.5 z m 11.5,-53.8 h 37.7 c 13.9,0 22.9,-12.8 22.9,-27 0,-14.8 -10.9,-26.7 -23.9,-26.7 h -36.7 z"
   id="path5"
   style="stroke-width:0.694886" />
		<path
   fill="#d22128"
   d="m 430.5,277.3 49.3,-117.8 h 9.5 l 49.3,117.8 H 526 l -15.3,-36.8 h -52.9 l -15.1,36.8 z m 54.1,-104.2 -24.2,58.2 h 47.8 z"
   id="path6"
   style="stroke-width:0.694886" />
		<path
   fill="#d22128"
   d="m 594.2,158.8 c 20.9,0 36.2,10.6 43.5,25.7 l -9.3,5.6 c -7.5,-15.6 -22.1,-20.9 -34.8,-20.9 -28.2,0 -43.6,25.2 -43.6,48.9 0,26 19.1,49.6 44.1,49.6 13.3,0 28.9,-6.6 36.3,-21.9 l 9.6,5 c -7.6,17.6 -28.5,27.4 -46.6,27.4 -32.3,0 -55.1,-30.9 -55.1,-60.7 0,-28.3 20.4,-58.7 55.9,-58.7 z"
   id="path7"
   style="stroke-width:0.694886" />
		<path
   fill="#d22128"
   d="m 749.1,159.5 v 117.8 h -11.6 v -55.1 h -69.8 v 55.1 H 656.3 V 159.5 h 11.4 v 52.4 h 69.8 v -52.4 z"
   id="path8"
   style="stroke-width:0.694886" />
		<path
   fill="#d22128"
   d="m 854.8,267 v 10.3 H 775.7 V 159.5 h 77.6 v 10.3 h -66.2 v 42.5 h 57.7 v 9.8 H 787.1 V 267 Z"
   id="path9"
   style="stroke-width:0.694886" />
	</g>
</g><g
       id="g27"
       style="stroke-width:0.694886"
       transform="matrix(0.80339739,0,0,0.80339739,-145.81435,114.86986)">
	<path
   fill="#6d6e71"
   d="m 243.6,302.2 c 1.4,0.4 2.6,1 3.7,1.7 l -1.2,2.7 c -1.1,-0.7 -2.2,-1.2 -3.4,-1.6 -1.2,-0.3 -2.4,-0.5 -3.4,-0.5 -1.6,0 -2.9,0.3 -3.8,0.9 -1,0.6 -1.4,1.4 -1.4,2.4 0,0.9 0.3,1.6 0.8,2.2 0.5,0.6 1.2,1 2,1.4 0.8,0.3 1.9,0.7 3.3,1.1 1.7,0.5 3.1,1.1 4.1,1.5 1,0.5 1.9,1.2 2.7,2.1 0.7,0.9 1.1,2.1 1.1,3.7 0,1.4 -0.4,2.6 -1.1,3.6 -0.7,1 -1.8,1.8 -3.2,2.4 -1.4,0.6 -2.9,0.9 -4.7,0.9 -1.8,0 -3.5,-0.3 -5.2,-1 -1.7,-0.7 -3.1,-1.6 -4.3,-2.8 l 1.3,-2.5 c 1.1,1.1 2.4,2 3.9,2.6 1.5,0.6 2.9,0.9 4.3,0.9 1.8,0 3.2,-0.3 4.3,-1 1,-0.7 1.6,-1.6 1.6,-2.8 0,-0.9 -0.3,-1.7 -0.8,-2.3 -0.5,-0.6 -1.2,-1.1 -2,-1.4 -0.8,-0.3 -1.9,-0.7 -3.3,-1.1 -1.7,-0.5 -3,-1 -4.1,-1.4 -1,-0.5 -1.9,-1.1 -2.7,-2.1 -0.7,-0.9 -1.1,-2.1 -1.1,-3.6 0,-1.3 0.4,-2.4 1.1,-3.4 0.7,-1 1.7,-1.7 3,-2.3 1.3,-0.5 2.8,-0.8 4.5,-0.8 1.2,-0.1 2.6,0.1 4,0.5 z"
   id="path10"
   style="stroke-width:0.694886" />
	<path
   fill="#6d6e71"
   d="m 280.5,303.3 c 2,1.1 3.6,2.6 4.7,4.5 1.2,1.9 1.7,4 1.7,6.3 0,2.3 -0.6,4.4 -1.7,6.3 -1.2,1.9 -2.7,3.4 -4.7,4.6 -2,1.1 -4.2,1.7 -6.5,1.7 -2.4,0 -4.6,-0.6 -6.6,-1.7 -2,-1.1 -3.6,-2.6 -4.7,-4.6 -1.2,-1.9 -1.7,-4 -1.7,-6.3 0,-2.3 0.6,-4.4 1.7,-6.3 1.2,-1.9 2.7,-3.4 4.7,-4.5 2,-1.1 4.2,-1.7 6.6,-1.7 2.3,0 4.5,0.6 6.5,1.7 z m -11.6,2.3 c -1.5,0.9 -2.8,2.1 -3.7,3.6 -0.9,1.5 -1.4,3.1 -1.4,4.9 0,1.8 0.5,3.5 1.4,5 0.9,1.5 2.2,2.7 3.7,3.6 1.5,0.9 3.2,1.3 5.1,1.3 1.8,0 3.5,-0.4 5,-1.3 1.5,-0.9 2.8,-2.1 3.7,-3.6 0.9,-1.5 1.4,-3.2 1.4,-5 0,-1.8 -0.5,-3.4 -1.4,-4.9 -0.9,-1.5 -2.1,-2.7 -3.7,-3.5 -1.5,-0.9 -3.2,-1.3 -5,-1.3 -1.8,-0.1 -3.5,0.3 -5.1,1.2 z"
   id="path11"
   style="stroke-width:0.694886" />
	<path
   fill="#6d6e71"
   d="m 304.9,304.4 v 8.7 h 11.6 v 2.7 h -11.6 v 10.6 H 302 v -24.9 h 15.8 v 2.7 h -12.9 z"
   id="path12"
   style="stroke-width:0.694886" />
	<path
   fill="#6d6e71"
   d="m 340.9,304.4 v 22.1 h -2.8 V 304.4 H 330 v -2.7 h 19 v 2.7 z"
   id="path13"
   style="stroke-width:0.694886" />
	<path
   fill="#6d6e71"
   d="m 385.8,326.5 -6.7,-20.9 -6.8,20.9 h -2.9 l -8.3,-24.9 h 3.1 l 6.8,21.6 6.7,-21.5 h 2.8 l 6.8,21.6 6.7,-21.6 h 2.9 l -8.3,24.9 h -2.8 z"
   id="path14"
   style="stroke-width:0.694886" />
	<path
   fill="#6d6e71"
   d="m 411.2,320.3 -2.8,6.3 h -3 l 11.1,-24.9 h 2.9 l 11.1,24.9 h -3.1 l -2.8,-6.3 z m 6.8,-15.4 -5.5,12.6 h 11.1 z"
   id="path15"
   style="stroke-width:0.694886" />
	<path
   fill="#6d6e71"
   d="m 455.3,318.6 c -0.7,0 -1.3,0.1 -1.7,0.1 H 447 v 7.9 h -2.8 v -24.9 h 9.4 c 3.1,0 5.5,0.7 7.2,2.2 1.7,1.5 2.6,3.5 2.6,6.2 0,2 -0.5,3.7 -1.4,5.1 -1,1.4 -2.3,2.4 -4.1,3 l 5.8,8.4 h -3.2 z m 3.6,-4.1 c 1.2,-1 1.8,-2.5 1.8,-4.4 0,-1.9 -0.6,-3.3 -1.8,-4.2 -1.2,-1 -3,-1.4 -5.2,-1.4 h -6.6 V 316 h 6.6 c 2.2,0 4,-0.5 5.2,-1.5 z"
   id="path16"
   style="stroke-width:0.694886" />
	<path
   fill="#6d6e71"
   d="m 482.2,304.4 v 8.2 h 12.5 v 2.7 h -12.5 v 8.5 h 14.5 v 2.7 h -17.3 v -24.9 h 16.9 v 2.7 h -14.1 z"
   id="path17"
   style="stroke-width:0.694886" />
	<path
   fill="#6d6e71"
   d="m 536.3,304.4 v 8.7 h 11.6 v 2.7 h -11.6 v 10.6 h -2.8 v -24.9 h 15.8 v 2.7 h -13 z"
   id="path18"
   style="stroke-width:0.694886" />
	<path
   fill="#6d6e71"
   d="m 580.7,303.3 c 2,1.1 3.6,2.6 4.7,4.5 1.2,1.9 1.7,4 1.7,6.3 0,2.3 -0.6,4.4 -1.7,6.3 -1.2,1.9 -2.7,3.4 -4.7,4.6 -2,1.1 -4.2,1.7 -6.5,1.7 -2.4,0 -4.6,-0.6 -6.6,-1.7 -2,-1.1 -3.6,-2.6 -4.7,-4.6 -1.2,-1.9 -1.7,-4 -1.7,-6.3 0,-2.3 0.6,-4.4 1.7,-6.3 1.2,-1.9 2.7,-3.4 4.7,-4.5 2,-1.1 4.2,-1.7 6.6,-1.7 2.4,0 4.6,0.6 6.5,1.7 z m -11.5,2.3 c -1.5,0.9 -2.8,2.1 -3.7,3.6 -0.9,1.5 -1.4,3.1 -1.4,4.9 0,1.8 0.5,3.5 1.4,5 0.9,1.5 2.2,2.7 3.7,3.6 1.5,0.9 3.2,1.3 5.1,1.3 1.8,0 3.5,-0.4 5,-1.3 1.5,-0.9 2.8,-2.1 3.7,-3.6 0.9,-1.5 1.4,-3.2 1.4,-5 0,-1.8 -0.5,-3.4 -1.4,-4.9 -0.9,-1.5 -2.1,-2.7 -3.7,-3.5 -1.5,-0.9 -3.2,-1.3 -5,-1.3 -1.9,-0.1 -3.6,0.3 -5.1,1.2 z"
   id="path19"
   style="stroke-width:0.694886" />
	<path
   fill="#6d6e71"
   d="m 619.9,323.9 c -1.8,1.8 -4.4,2.7 -7.6,2.7 -3.3,0 -5.8,-0.9 -7.7,-2.7 -1.9,-1.8 -2.8,-4.4 -2.8,-7.6 v -14.6 h 2.8 v 14.6 c 0,2.4 0.7,4.3 2,5.6 1.4,1.3 3.2,2 5.6,2 2.4,0 4.2,-0.7 5.6,-2 1.3,-1.3 2,-3.2 2,-5.6 v -14.6 h 2.8 v 14.6 c 0,3.3 -0.9,5.8 -2.7,7.6 z"
   id="path20"
   style="stroke-width:0.694886" />
	<path
   fill="#6d6e71"
   d="m 657,326.5 -14.9,-20 v 20 h -2.8 v -24.9 h 2.9 l 14.9,20 v -20 h 2.8 v 24.9 z"
   id="path21"
   style="stroke-width:0.694886" />
	<path
   fill="#6d6e71"
   d="m 693.5,303.3 c 1.9,1.1 3.5,2.6 4.6,4.5 1.1,1.9 1.7,4 1.7,6.3 0,2.3 -0.6,4.4 -1.7,6.3 -1.1,1.9 -2.7,3.4 -4.6,4.5 -2,1.1 -4.2,1.6 -6.6,1.6 h -10 V 301.6 H 687 c 2.4,0.1 4.6,0.6 6.5,1.7 z m -13.7,20.5 h 7.2 c 1.8,0 3.5,-0.4 5,-1.3 1.5,-0.8 2.7,-2 3.6,-3.5 0.9,-1.5 1.3,-3.1 1.3,-5 0,-1.8 -0.4,-3.5 -1.3,-4.9 -0.9,-1.5 -2.1,-2.6 -3.6,-3.5 -1.5,-0.9 -3.2,-1.3 -5,-1.3 h -7.1 v 19.5 z"
   id="path22"
   style="stroke-width:0.694886" />
	<path
   fill="#6d6e71"
   d="m 715.9,320.3 -2.8,6.3 h -3 l 11.1,-24.9 h 2.9 l 11.1,24.9 h -3.1 l -2.8,-6.3 z m 6.8,-15.4 -5.5,12.6 h 11.1 z"
   id="path23"
   style="stroke-width:0.694886" />
	<path
   fill="#6d6e71"
   d="m 754,304.4 v 22.1 h -2.8 v -22.1 h -8.1 v -2.7 h 19.1 v 2.7 z"
   id="path24"
   style="stroke-width:0.694886" />
	<path
   fill="#6d6e71"
   d="m 775.8,326.5 v -24.9 h 2.8 v 24.9 z"
   id="path25"
   style="stroke-width:0.694886" />
	<path
   fill="#6d6e71"
   d="m 813.4,303.3 c 2,1.1 3.6,2.6 4.7,4.5 1.2,1.9 1.7,4 1.7,6.3 0,2.3 -0.6,4.4 -1.7,6.3 -1.2,1.9 -2.7,3.4 -4.7,4.6 -2,1.1 -4.2,1.7 -6.5,1.7 -2.4,0 -4.6,-0.6 -6.6,-1.7 -2,-1.1 -3.6,-2.6 -4.7,-4.6 -1.2,-1.9 -1.7,-4 -1.7,-6.3 0,-2.3 0.6,-4.4 1.7,-6.3 1.2,-1.9 2.7,-3.4 4.7,-4.5 2,-1.1 4.2,-1.7 6.6,-1.7 2.3,0 4.5,0.6 6.5,1.7 z m -11.6,2.3 c -1.5,0.9 -2.8,2.1 -3.7,3.6 -0.9,1.5 -1.4,3.1 -1.4,4.9 0,1.8 0.5,3.5 1.4,5 0.9,1.5 2.2,2.7 3.7,3.6 1.5,0.9 3.2,1.3 5.1,1.3 1.8,0 3.5,-0.4 5,-1.3 1.5,-0.9 2.8,-2.1 3.7,-3.6 0.9,-1.5 1.4,-3.2 1.4,-5 0,-1.8 -0.5,-3.4 -1.4,-4.9 -0.9,-1.5 -2.1,-2.7 -3.7,-3.5 -1.5,-0.9 -3.2,-1.3 -5,-1.3 -1.9,-0.1 -3.6,0.3 -5.1,1.2 z"
   id="path26"
   style="stroke-width:0.694886" />
	<path
   fill="#6d6e71"
   d="m 852.6,326.5 -14.9,-20 v 20 h -2.8 v -24.9 h 2.9 l 14.9,20 v -20 h 2.8 v 24.9 z"
   id="path27"
   style="stroke-width:0.694886" />
</g><g
       id="g76"
       style="stroke-width:0.694886"
       transform="matrix(0.80339739,0,0,0.80339739,-145.81435,114.86986)">
	<g
   id="g75"
   style="stroke-width:0.694886">
		<path
   fill="#b0afb0"
   d="m 870.1,161.4 v 8.3 h -2.3 v -8.3 h -2.9 v -2 h 8.2 v 2 z"
   id="path74"
   style="stroke-width:0.694886" />
		<path
   fill="#b0afb0"
   d="m 884,163.2 -2.8,5.6 h -1.4 l -2.8,-5.6 v 6.5 h -2.3 v -10.3 h 3.1 l 2.7,5.7 2.7,-5.7 h 3.1 v 10.3 H 884 Z"
   id="path75"
   style="stroke-width:0.694886" />
	</g>
</g><g
       id="g78"
       style="fill:#404040;fill-opacity:1;stroke-width:0.694886"
       transform="matrix(0.80339739,0,0,0.80339739,-145.81435,114.86986)">
	<path
   fill="#6d6e71"
   d="m 259.7,117.6 v 18.3 h -2.4 v -18.3 h -6.7 v -2.3 h 15.8 v 2.3 z"
   id="path76"
   style="fill:#404040;fill-opacity:1;stroke-width:0.694886" />
	<path
   fill="#6d6e71"
   d="m 292.6,135.9 v -9.1 h -12.4 v 9.1 h -2.4 v -20.6 h 2.4 v 9.3 h 12.4 v -9.3 h 2.4 v 20.6 z"
   id="path77"
   style="fill:#404040;fill-opacity:1;stroke-width:0.694886" />
	<path
   fill="#6d6e71"
   d="m 311.4,117.6 v 6.8 h 10.4 v 2.3 h -10.4 v 7.1 h 12 V 136 H 309 v -20.6 h 14 v 2.3 h -11.6 z"
   id="path78"
   style="fill:#404040;fill-opacity:1;stroke-width:0.694886" />
</g><g
       id="g85"
       style="stroke-width:0.694886"
       transform="matrix(0.80339739,0,0,0.80339739,-145.81435,114.86986)">
	<g
   id="g84"
   style="stroke-width:0.694886">
		<path
   fill="#d22128"
   d="m 232.6,277.3 49.3,-117.8 h 9.5 l 49.3,117.8 H 328.3 L 313,240.5 h -53 l -15.1,36.8 z m 54.1,-104.2 -24.2,58.2 h 47.8 z"
   id="path79"
   style="stroke-width:0.694886" />
		<path
   fill="#d22128"
   d="M 353.3,277.3 V 159.5 h 48.8 c 20.2,0 34.8,18.7 34.8,37 0,19.2 -13.6,37.3 -33.8,37.3 h -38.3 v 43.5 z m 11.5,-53.8 h 37.7 c 13.9,0 22.9,-12.8 22.9,-27 0,-14.8 -10.9,-26.7 -23.9,-26.7 h -36.7 z"
   id="path80"
   style="stroke-width:0.694886" />
		<path
   fill="#d22128"
   d="m 430.5,277.3 49.3,-117.8 h 9.5 l 49.3,117.8 H 526 l -15.3,-36.8 h -52.9 l -15.1,36.8 z m 54.1,-104.2 -24.2,58.2 h 47.8 z"
   id="path81"
   style="stroke-width:0.694886" />
		<path
   fill="#d22128"
   d="m 594.2,158.8 c 20.9,0 36.2,10.6 43.5,25.7 l -9.3,5.6 c -7.5,-15.6 -22.1,-20.9 -34.8,-20.9 -28.2,0 -43.6,25.2 -43.6,48.9 0,26 19.1,49.6 44.1,49.6 13.3,0 28.9,-6.6 36.3,-21.9 l 9.6,5 c -7.6,17.6 -28.5,27.4 -46.6,27.4 -32.3,0 -55.1,-30.9 -55.1,-60.7 0,-28.3 20.4,-58.7 55.9,-58.7 z"
   id="path82"
   style="stroke-width:0.694886" />
		<path
   fill="#d22128"
   d="m 749.1,159.5 v 117.8 h -11.6 v -55.1 h -69.8 v 55.1 H 656.3 V 159.5 h 11.4 v 52.4 h 69.8 v -52.4 z"
   id="path83"
   style="stroke-width:0.694886" />
		<path
   fill="#d22128"
   d="m 854.8,267 v 10.3 H 775.7 V 159.5 h 77.6 v 10.3 h -66.2 v 42.5 h 57.7 v 9.8 H 787.1 V 267 Z"
   id="path84"
   style="stroke-width:0.694886" />
	</g>
</g><g
       id="g102"
       style="fill:#404040;fill-opacity:1;stroke-width:0.694886"
       transform="matrix(0.80339739,0,0,0.80339739,-145.81435,114.86986)">
	<path
   fill="#6d6e71"
   d="m 243.6,302.2 c 1.4,0.4 2.6,1 3.7,1.7 l -1.2,2.7 c -1.1,-0.7 -2.2,-1.2 -3.4,-1.6 -1.2,-0.3 -2.4,-0.5 -3.4,-0.5 -1.6,0 -2.9,0.3 -3.8,0.9 -1,0.6 -1.4,1.4 -1.4,2.4 0,0.9 0.3,1.6 0.8,2.2 0.5,0.6 1.2,1 2,1.4 0.8,0.3 1.9,0.7 3.3,1.1 1.7,0.5 3.1,1.1 4.1,1.5 1,0.5 1.9,1.2 2.7,2.1 0.7,0.9 1.1,2.1 1.1,3.7 0,1.4 -0.4,2.6 -1.1,3.6 -0.7,1 -1.8,1.8 -3.2,2.4 -1.4,0.6 -2.9,0.9 -4.7,0.9 -1.8,0 -3.5,-0.3 -5.2,-1 -1.7,-0.7 -3.1,-1.6 -4.3,-2.8 l 1.3,-2.5 c 1.1,1.1 2.4,2 3.9,2.6 1.5,0.6 2.9,0.9 4.3,0.9 1.8,0 3.2,-0.3 4.3,-1 1,-0.7 1.6,-1.6 1.6,-2.8 0,-0.9 -0.3,-1.7 -0.8,-2.3 -0.5,-0.6 -1.2,-1.1 -2,-1.4 -0.8,-0.3 -1.9,-0.7 -3.3,-1.1 -1.7,-0.5 -3,-1 -4.1,-1.4 -1,-0.5 -1.9,-1.1 -2.7,-2.1 -0.7,-0.9 -1.1,-2.1 -1.1,-3.6 0,-1.3 0.4,-2.4 1.1,-3.4 0.7,-1 1.7,-1.7 3,-2.3 1.3,-0.5 2.8,-0.8 4.5,-0.8 1.2,-0.1 2.6,0.1 4,0.5 z"
   id="path85"
   style="fill:#404040;fill-opacity:1;stroke-width:0.694886" />
	<path
   fill="#6d6e71"
   d="m 280.5,303.3 c 2,1.1 3.6,2.6 4.7,4.5 1.2,1.9 1.7,4 1.7,6.3 0,2.3 -0.6,4.4 -1.7,6.3 -1.2,1.9 -2.7,3.4 -4.7,4.6 -2,1.1 -4.2,1.7 -6.5,1.7 -2.4,0 -4.6,-0.6 -6.6,-1.7 -2,-1.1 -3.6,-2.6 -4.7,-4.6 -1.2,-1.9 -1.7,-4 -1.7,-6.3 0,-2.3 0.6,-4.4 1.7,-6.3 1.2,-1.9 2.7,-3.4 4.7,-4.5 2,-1.1 4.2,-1.7 6.6,-1.7 2.3,0 4.5,0.6 6.5,1.7 z m -11.6,2.3 c -1.5,0.9 -2.8,2.1 -3.7,3.6 -0.9,1.5 -1.4,3.1 -1.4,4.9 0,1.8 0.5,3.5 1.4,5 0.9,1.5 2.2,2.7 3.7,3.6 1.5,0.9 3.2,1.3 5.1,1.3 1.8,0 3.5,-0.4 5,-1.3 1.5,-0.9 2.8,-2.1 3.7,-3.6 0.9,-1.5 1.4,-3.2 1.4,-5 0,-1.8 -0.5,-3.4 -1.4,-4.9 -0.9,-1.5 -2.1,-2.7 -3.7,-3.5 -1.5,-0.9 -3.2,-1.3 -5,-1.3 -1.8,-0.1 -3.5,0.3 -5.1,1.2 z"
   id="path86"
   style="fill:#404040;fill-opacity:1;stroke-width:0.694886" />
	<path
   fill="#6d6e71"
   d="m 304.9,304.4 v 8.7 h 11.6 v 2.7 h -11.6 v 10.6 H 302 v -24.9 h 15.8 v 2.7 h -12.9 z"
   id="path87"
   style="fill:#404040;fill-opacity:1;stroke-width:0.694886" />
	<path
   fill="#6d6e71"
   d="m 340.9,304.4 v 22.1 h -2.8 V 304.4 H 330 v -2.7 h 19 v 2.7 z"
   id="path88"
   style="fill:#404040;fill-opacity:1;stroke-width:0.694886" />
	<path
   fill="#6d6e71"
   d="m 385.8,326.5 -6.7,-20.9 -6.8,20.9 h -2.9 l -8.3,-24.9 h 3.1 l 6.8,21.6 6.7,-21.5 h 2.8 l 6.8,21.6 6.7,-21.6 h 2.9 l -8.3,24.9 h -2.8 z"
   id="path89"
   style="fill:#404040;fill-opacity:1;stroke-width:0.694886" />
	<path
   fill="#6d6e71"
   d="m 411.2,320.3 -2.8,6.3 h -3 l 11.1,-24.9 h 2.9 l 11.1,24.9 h -3.1 l -2.8,-6.3 z m 6.8,-15.4 -5.5,12.6 h 11.1 z"
   id="path90"
   style="fill:#404040;fill-opacity:1;stroke-width:0.694886" />
	<path
   fill="#6d6e71"
   d="m 455.3,318.6 c -0.7,0 -1.3,0.1 -1.7,0.1 H 447 v 7.9 h -2.8 v -24.9 h 9.4 c 3.1,0 5.5,0.7 7.2,2.2 1.7,1.5 2.6,3.5 2.6,6.2 0,2 -0.5,3.7 -1.4,5.1 -1,1.4 -2.3,2.4 -4.1,3 l 5.8,8.4 h -3.2 z m 3.6,-4.1 c 1.2,-1 1.8,-2.5 1.8,-4.4 0,-1.9 -0.6,-3.3 -1.8,-4.2 -1.2,-1 -3,-1.4 -5.2,-1.4 h -6.6 V 316 h 6.6 c 2.2,0 4,-0.5 5.2,-1.5 z"
   id="path91"
   style="fill:#404040;fill-opacity:1;stroke-width:0.694886" />
	<path
   fill="#6d6e71"
   d="m 482.2,304.4 v 8.2 h 12.5 v 2.7 h -12.5 v 8.5 h 14.5 v 2.7 h -17.3 v -24.9 h 16.9 v 2.7 h -14.1 z"
   id="path92"
   style="fill:#404040;fill-opacity:1;stroke-width:0.694886" />
	<path
   fill="#6d6e71"
   d="m 536.3,304.4 v 8.7 h 11.6 v 2.7 h -11.6 v 10.6 h -2.8 v -24.9 h 15.8 v 2.7 h -13 z"
   id="path93"
   style="fill:#404040;fill-opacity:1;stroke-width:0.694886" />
	<path
   fill="#6d6e71"
   d="m 580.7,303.3 c 2,1.1 3.6,2.6 4.7,4.5 1.2,1.9 1.7,4 1.7,6.3 0,2.3 -0.6,4.4 -1.7,6.3 -1.2,1.9 -2.7,3.4 -4.7,4.6 -2,1.1 -4.2,1.7 -6.5,1.7 -2.4,0 -4.6,-0.6 -6.6,-1.7 -2,-1.1 -3.6,-2.6 -4.7,-4.6 -1.2,-1.9 -1.7,-4 -1.7,-6.3 0,-2.3 0.6,-4.4 1.7,-6.3 1.2,-1.9 2.7,-3.4 4.7,-4.5 2,-1.1 4.2,-1.7 6.6,-1.7 2.4,0 4.6,0.6 6.5,1.7 z m -11.5,2.3 c -1.5,0.9 -2.8,2.1 -3.7,3.6 -0.9,1.5 -1.4,3.1 -1.4,4.9 0,1.8 0.5,3.5 1.4,5 0.9,1.5 2.2,2.7 3.7,3.6 1.5,0.9 3.2,1.3 5.1,1.3 1.8,0 3.5,-0.4 5,-1.3 1.5,-0.9 2.8,-2.1 3.7,-3.6 0.9,-1.5 1.4,-3.2 1.4,-5 0,-1.8 -0.5,-3.4 -1.4,-4.9 -0.9,-1.5 -2.1,-2.7 -3.7,-3.5 -1.5,-0.9 -3.2,-1.3 -5,-1.3 -1.9,-0.1 -3.6,0.3 -5.1,1.2 z"
   id="path94"
   style="fill:#404040;fill-opacity:1;stroke-width:0.694886" />
	<path
   fill="#6d6e71"
   d="m 619.9,323.9 c -1.8,1.8 -4.4,2.7 -7.6,2.7 -3.3,0 -5.8,-0.9 -7.7,-2.7 -1.9,-1.8 -2.8,-4.4 -2.8,-7.6 v -14.6 h 2.8 v 14.6 c 0,2.4 0.7,4.3 2,5.6 1.4,1.3 3.2,2 5.6,2 2.4,0 4.2,-0.7 5.6,-2 1.3,-1.3 2,-3.2 2,-5.6 v -14.6 h 2.8 v 14.6 c 0,3.3 -0.9,5.8 -2.7,7.6 z"
   id="path95"
   style="fill:#404040;fill-opacity:1;stroke-width:0.694886" />
	<path
   fill="#6d6e71"
   d="m 657,326.5 -14.9,-20 v 20 h -2.8 v -24.9 h 2.9 l 14.9,20 v -20 h 2.8 v 24.9 z"
   id="path96"
   style="fill:#404040;fill-opacity:1;stroke-width:0.694886" />
	<path
   fill="#6d6e71"
   d="m 693.5,303.3 c 1.9,1.1 3.5,2.6 4.6,4.5 1.1,1.9 1.7,4 1.7,6.3 0,2.3 -0.6,4.4 -1.7,6.3 -1.1,1.9 -2.7,3.4 -4.6,4.5 -2,1.1 -4.2,1.6 -6.6,1.6 h -10 V 301.6 H 687 c 2.4,0.1 4.6,0.6 6.5,1.7 z m -13.7,20.5 h 7.2 c 1.8,0 3.5,-0.4 5,-1.3 1.5,-0.8 2.7,-2 3.6,-3.5 0.9,-1.5 1.3,-3.1 1.3,-5 0,-1.8 -0.4,-3.5 -1.3,-4.9 -0.9,-1.5 -2.1,-2.6 -3.6,-3.5 -1.5,-0.9 -3.2,-1.3 -5,-1.3 h -7.1 v 19.5 z"
   id="path97"
   style="fill:#404040;fill-opacity:1;stroke-width:0.694886" />
	<path
   fill="#6d6e71"
   d="m 715.9,320.3 -2.8,6.3 h -3 l 11.1,-24.9 h 2.9 l 11.1,24.9 h -3.1 l -2.8,-6.3 z m 6.8,-15.4 -5.5,12.6 h 11.1 z"
   id="path98"
   style="fill:#404040;fill-opacity:1;stroke-width:0.694886" />
	<path
   fill="#6d6e71"
   d="m 754,304.4 v 22.1 h -2.8 v -22.1 h -8.1 v -2.7 h 19.1 v 2.7 z"
   id="path99"
   style="fill:#404040;fill-opacity:1;stroke-width:0.694886" />
	<path
   fill="#6d6e71"
   d="m 775.8,326.5 v -24.9 h 2.8 v 24.9 z"
   id="path100"
   style="fill:#404040;fill-opacity:1;stroke-width:0.694886" />
	<path
   fill="#6d6e71"
   d="m 813.4,303.3 c 2,1.1 3.6,2.6 4.7,4.5 1.2,1.9 1.7,4 1.7,6.3 0,2.3 -0.6,4.4 -1.7,6.3 -1.2,1.9 -2.7,3.4 -4.7,4.6 -2,1.1 -4.2,1.7 -6.5,1.7 -2.4,0 -4.6,-0.6 -6.6,-1.7 -2,-1.1 -3.6,-2.6 -4.7,-4.6 -1.2,-1.9 -1.7,-4 -1.7,-6.3 0,-2.3 0.6,-4.4 1.7,-6.3 1.2,-1.9 2.7,-3.4 4.7,-4.5 2,-1.1 4.2,-1.7 6.6,-1.7 2.3,0 4.5,0.6 6.5,1.7 z m -11.6,2.3 c -1.5,0.9 -2.8,2.1 -3.7,3.6 -0.9,1.5 -1.4,3.1 -1.4,4.9 0,1.8 0.5,3.5 1.4,5 0.9,1.5 2.2,2.7 3.7,3.6 1.5,0.9 3.2,1.3 5.1,1.3 1.8,0 3.5,-0.4 5,-1.3 1.5,-0.9 2.8,-2.1 3.7,-3.6 0.9,-1.5 1.4,-3.2 1.4,-5 0,-1.8 -0.5,-3.4 -1.4,-4.9 -0.9,-1.5 -2.1,-2.7 -3.7,-3.5 -1.5,-0.9 -3.2,-1.3 -5,-1.3 -1.9,-0.1 -3.6,0.3 -5.1,1.2 z"
   id="path101"
   style="fill:#404040;fill-opacity:1;stroke-width:0.694886" />
	<path
   fill="#6d6e71"
   d="m 852.6,326.5 -14.9,-20 v 20 h -2.8 v -24.9 h 2.9 l 14.9,20 v -20 h 2.8 v 24.9 z"
   id="path102"
   style="fill:#404040;fill-opacity:1;stroke-width:0.694886" />
</g><g
       id="g149"
       style="stroke-width:0.413509"
       transform="matrix(0.60682994,1.206011,-1.206011,0.60682994,488.03675,-185.83298)">
	
		<linearGradient
   id="SVGID_11_"
   gradientUnits="userSpaceOnUse"
   x1="-7658.376"
   y1="-1137.2941"
   x2="-7610.187"
   y2="-1080.9456"
   gradientTransform="matrix(0.4226,-0.9063,0.9063,0.4226,4442.6831,-6372.6807)">
		<stop
   offset="0"
   style="stop-color:#F69923"
   id="stop102" />
		<stop
   offset="0.3123"
   style="stop-color:#F79A23"
   id="stop103" />
		<stop
   offset="0.8383"
   style="stop-color:#E97826"
   id="stop104" />
	</linearGradient>
	<path
   fill="url(#SVGID_11_)"
   d="m 192,60.2 c -5.4,3.2 -14.2,12.1 -24.9,25.1 l 9.8,18.4 c 6.8,-9.8 13.8,-18.6 20.8,-26.1 0.5,-0.6 0.8,-0.9 0.8,-0.9 -0.3,0.3 -0.5,0.6 -0.8,0.9 -2.3,2.5 -9.2,10.5 -19.5,26.5 10,-0.5 25.4,-2.5 37.9,-4.7 3.7,-20.9 -3.7,-30.5 -3.7,-30.5 0,0 -9.4,-15.2 -20.4,-8.7 z"
   id="path104"
   style="fill:url(#SVGID_11_);stroke-width:0.413509" />
	<path
   fill="none"
   d="m 175.5,165.2 c 0.1,0 0.1,0 0.2,0 l -1.4,0.2 c -0.1,0 -0.2,0.1 -0.2,0.1 0.4,-0.2 0.9,-0.2 1.4,-0.3 z"
   id="path105"
   style="stroke-width:0.413509" />
	<path
   fill="none"
   d="m 165.5,198.2 c -0.8,0.2 -1.6,0.3 -2.4,0.4 0.8,-0.1 1.6,-0.3 2.4,-0.4 z"
   id="path106"
   style="stroke-width:0.413509" />
	<path
   fill="none"
   d="m 97.9,272.1 c 0.1,-0.3 0.2,-0.6 0.3,-0.8 2.1,-5.7 4.3,-11.2 6.4,-16.5 2.4,-6 4.7,-11.9 7,-17.5 2.4,-6 4.8,-11.7 7.2,-17.3 2.5,-5.8 4.9,-11.5 7.3,-16.9 2,-4.4 3.9,-8.7 5.8,-12.8 0.6,-1.4 1.3,-2.7 1.9,-4.1 1.2,-2.7 2.5,-5.3 3.7,-7.9 1.1,-2.4 2.2,-4.7 3.3,-6.9 0.4,-0.8 0.7,-1.5 1.1,-2.3 0.1,-0.1 0.1,-0.2 0.2,-0.4 l -1.2,0.1 -0.9,-1.9 c -0.1,0.2 -0.2,0.4 -0.3,0.5 -1.7,3.4 -3.4,6.8 -5.1,10.3 -1,2 -1.9,4 -2.9,6 -2.7,5.6 -5.3,11.2 -7.9,16.9 -2.6,5.7 -5.2,11.5 -7.7,17.3 -2.5,5.7 -4.9,11.4 -7.2,17 -2.4,5.7 -4.7,11.3 -6.9,16.9 -2.3,5.8 -4.6,11.6 -6.8,17.4 -0.5,1.3 -1,2.6 -1.5,3.9 -1.8,4.6 -3.5,9.2 -5.2,13.7 l 1.5,3 1.3,-0.1 c 0,-0.1 0.1,-0.3 0.1,-0.4 2.2,-5.8 4.3,-11.6 6.5,-17.2 z"
   id="path107"
   style="stroke-width:0.413509" />
	<path
   fill="none"
   d="M 162.5,198.7 Z"
   id="path108"
   style="stroke-width:0.413509" />
	<path
   fill="#be202e"
   d="m 159.2,214.8 c -1.2,0.2 -2.5,0.4 -3.8,0.7 0,0 0,0 0,0 0.7,-0.1 1.3,-0.2 2,-0.3 0.6,-0.2 1.2,-0.3 1.8,-0.4 z"
   id="path109"
   style="stroke-width:0.413509" />
	<path
   opacity="0.35"
   fill="#be202e"
   d="m 159.2,214.8 c -1.2,0.2 -2.5,0.4 -3.8,0.7 0,0 0,0 0,0 0.7,-0.1 1.3,-0.2 2,-0.3 0.6,-0.2 1.2,-0.3 1.8,-0.4 z"
   id="path110"
   style="stroke-width:0.413509" />
	<path
   fill="#be202e"
   d="m 162.5,198.7 c 0,0 0,0 0,0 0,0 0,0 0,0 0.2,0 0.4,0 0.6,-0.1 0.8,-0.1 1.6,-0.3 2.4,-0.4 -1,0.1 -2,0.3 -3,0.5 z"
   id="path111"
   style="stroke-width:0.413509" />
	<path
   opacity="0.35"
   fill="#be202e"
   d="m 162.5,198.7 c 0,0 0,0 0,0 0,0 0,0 0,0 0.2,0 0.4,0 0.6,-0.1 0.8,-0.1 1.6,-0.3 2.4,-0.4 -1,0.1 -2,0.3 -3,0.5 z"
   id="path112"
   style="stroke-width:0.413509" />
	
		<linearGradient
   id="SVGID_12_"
   gradientUnits="userSpaceOnUse"
   x1="-8015.0215"
   y1="-1143.5137"
   x2="-7671.2197"
   y2="-1143.5137"
   gradientTransform="matrix(0.4226,-0.9063,0.9063,0.4226,4442.6831,-6372.6807)">
		<stop
   offset="0.3233"
   style="stop-color:#9E2064"
   id="stop112" />
		<stop
   offset="0.6302"
   style="stop-color:#C92037"
   id="stop113" />
		<stop
   offset="0.7514"
   style="stop-color:#CD2335"
   id="stop114" />
		<stop
   offset="1"
   style="stop-color:#E97826"
   id="stop115" />
	</linearGradient>
	<path
   fill="url(#SVGID_12_)"
   d="m 148.1,151.2 c 3,-5.5 6,-11 9,-16.2 3.2,-5.5 6.3,-10.8 9.6,-15.9 0.2,-0.3 0.4,-0.6 0.6,-0.9 3.2,-5 6.4,-9.9 9.6,-14.5 l -9.8,-18.4 c -0.7,0.9 -1.5,1.8 -2.2,2.7 -2.8,3.5 -5.7,7.3 -8.7,11.3 -3.4,4.5 -6.8,9.3 -10.4,14.4 -3.3,4.7 -6.6,9.5 -9.9,14.6 -2.8,4.3 -5.6,8.7 -8.4,13.3 -0.1,0.2 -0.2,0.3 -0.3,0.5 l 12.7,25.1 c 2.7,-5.5 5.4,-10.8 8.2,-16 z"
   id="path115"
   style="fill:url(#SVGID_12_);stroke-width:0.413509" />
	
		<linearGradient
   id="SVGID_13_"
   gradientUnits="userSpaceOnUse"
   x1="-7973.52"
   y1="-1109.0308"
   x2="-7768.6475"
   y2="-1109.0308"
   gradientTransform="matrix(0.4226,-0.9063,0.9063,0.4226,4442.6831,-6372.6807)">
		<stop
   offset="0"
   style="stop-color:#282662"
   id="stop116" />
		<stop
   offset="9.548390e-02"
   style="stop-color:#662E8D"
   id="stop117" />
		<stop
   offset="0.7882"
   style="stop-color:#9F2064"
   id="stop118" />
		<stop
   offset="0.9487"
   style="stop-color:#CD2032"
   id="stop119" />
	</linearGradient>
	<path
   fill="url(#SVGID_13_)"
   d="m 90.3,292.4 c -1.7,4.6 -3.4,9.3 -5.1,14.1 0,0.1 0,0.1 -0.1,0.2 -0.2,0.7 -0.5,1.4 -0.7,2 -1.1,3.2 -2.1,6.1 -4.4,12.8 3.7,1.7 6.7,6.2 9.6,11.3 -0.3,-5.3 -2.5,-10.2 -6.6,-14.1 18.4,0.8 34.3,-3.8 42.5,-17.3 0.7,-1.2 1.4,-2.5 2,-3.8 -3.7,4.7 -8.4,6.7 -17.1,6.3 0,0 0,0 -0.1,0 0,0 0,0 0.1,0 12.8,-5.7 19.2,-11.2 24.9,-20.4 1.3,-2.2 2.7,-4.5 4,-7.1 -11.2,11.5 -24.2,14.8 -37.9,12.3 l -10.3,1.1 c -0.1,0.9 -0.5,1.8 -0.8,2.6 z"
   id="path119"
   style="fill:url(#SVGID_13_);stroke-width:0.413509" />
	
		<linearGradient
   id="SVGID_14_"
   gradientUnits="userSpaceOnUse"
   x1="-7995.7114"
   y1="-1146.7173"
   x2="-7651.9102"
   y2="-1146.7173"
   gradientTransform="matrix(0.4226,-0.9063,0.9063,0.4226,4442.6831,-6372.6807)">
		<stop
   offset="0.3233"
   style="stop-color:#9E2064"
   id="stop120" />
		<stop
   offset="0.6302"
   style="stop-color:#C92037"
   id="stop121" />
		<stop
   offset="0.7514"
   style="stop-color:#CD2335"
   id="stop122" />
		<stop
   offset="1"
   style="stop-color:#E97826"
   id="stop123" />
	</linearGradient>
	<path
   fill="url(#SVGID_14_)"
   d="m 95.1,269.5 c 2.2,-5.7 4.5,-11.5 6.8,-17.4 2.2,-5.6 4.5,-11.2 6.9,-16.9 2.4,-5.7 4.8,-11.3 7.2,-17 2.5,-5.8 5.1,-11.6 7.7,-17.3 2.6,-5.7 5.2,-11.3 7.9,-16.9 1,-2 1.9,-4 2.9,-6 1.7,-3.5 3.4,-6.9 5.1,-10.3 0.1,-0.2 0.2,-0.4 0.3,-0.5 L 127.2,142 c -0.2,0.3 -0.4,0.7 -0.6,1 -3,4.8 -5.9,9.8 -8.8,14.8 -2.9,5.1 -5.8,10.3 -8.6,15.5 -2.4,4.4 -4.7,8.9 -6.9,13.4 -0.5,0.9 -0.9,1.8 -1.3,2.7 -2.8,5.7 -5.3,11.2 -7.5,16.5 -2.6,6 -4.8,11.7 -6.8,17.1 -1.3,3.6 -2.5,7 -3.6,10.3 -0.9,2.8 -1.7,5.7 -2.5,8.5 -1.9,6.6 -3.5,13.3 -4.9,19.9 L 88.4,287 c 1.7,-4.5 3.4,-9.1 5.2,-13.7 0.5,-1.2 1,-2.5 1.5,-3.8 z"
   id="path123"
   style="fill:url(#SVGID_14_);stroke-width:0.413509" />
	
		<linearGradient
   id="SVGID_15_"
   gradientUnits="userSpaceOnUse"
   x1="-7970.6377"
   y1="-1142.0658"
   x2="-7789.96"
   y2="-1142.0658"
   gradientTransform="matrix(0.4226,-0.9063,0.9063,0.4226,4442.6831,-6372.6807)">
		<stop
   offset="0"
   style="stop-color:#282662"
   id="stop124" />
		<stop
   offset="9.548390e-02"
   style="stop-color:#662E8D"
   id="stop125" />
		<stop
   offset="0.7882"
   style="stop-color:#9F2064"
   id="stop126" />
		<stop
   offset="0.9487"
   style="stop-color:#CD2032"
   id="stop127" />
	</linearGradient>
	<path
   fill="url(#SVGID_15_)"
   d="m 75.5,262.7 c -1.6,8.1 -2.7,16.1 -3.3,24.1 0,0.3 0,0.6 -0.1,0.8 -4,-6.4 -14.6,-12.6 -14.6,-12.5 7.6,11.1 13.4,22 14.3,32.8 -4.1,0.8 -9.7,-0.4 -16.1,-2.7 6.7,6.2 11.8,7.9 13.8,8.4 -6.2,0.4 -12.6,4.6 -19.1,9.5 9.5,-3.9 17.2,-5.4 22.7,-4.2 -8.7,24.7 -17.5,51.9 -26.2,80.9 2.7,-0.8 4.3,-2.6 5.2,-5 1.6,-5.2 11.9,-39.6 28.1,-84.8 0.5,-1.3 0.9,-2.6 1.4,-3.9 0.1,-0.4 0.3,-0.7 0.4,-1.1 1.7,-4.7 3.5,-9.6 5.3,-14.5 0.4,-1.1 0.8,-2.2 1.3,-3.4 0,0 0,0 0,-0.1 L 75.9,261.8 c -0.3,0.4 -0.3,0.7 -0.4,0.9 z"
   id="path127"
   style="fill:url(#SVGID_15_);stroke-width:0.413509" />
	
		<linearGradient
   id="SVGID_16_"
   gradientUnits="userSpaceOnUse"
   x1="-7995.7114"
   y1="-1111.135"
   x2="-7651.9102"
   y2="-1111.135"
   gradientTransform="matrix(0.4226,-0.9063,0.9063,0.4226,4442.6831,-6372.6807)">
		<stop
   offset="0.3233"
   style="stop-color:#9E2064"
   id="stop128" />
		<stop
   offset="0.6302"
   style="stop-color:#C92037"
   id="stop129" />
		<stop
   offset="0.7514"
   style="stop-color:#CD2335"
   id="stop130" />
		<stop
   offset="1"
   style="stop-color:#E97826"
   id="stop131" />
	</linearGradient>
	<path
   fill="url(#SVGID_16_)"
   d="m 141.9,169.2 c -0.4,0.7 -0.7,1.5 -1.1,2.3 -1.1,2.3 -2.2,4.6 -3.3,6.9 -1.2,2.6 -2.4,5.2 -3.7,7.9 -0.6,1.3 -1.3,2.7 -1.9,4.1 -1.9,4.1 -3.8,8.4 -5.8,12.8 -2.4,5.4 -4.8,11 -7.3,16.9 -2.4,5.6 -4.8,11.3 -7.2,17.3 -2.3,5.7 -4.6,11.5 -7,17.5 -2.1,5.4 -4.2,10.9 -6.4,16.5 -0.1,0.3 -0.2,0.5 -0.3,0.8 -2.1,5.6 -4.3,11.4 -6.4,17.3 0,0.1 -0.1,0.3 -0.1,0.4 l 10.3,-1.1 c -0.2,0 -0.4,-0.1 -0.6,-0.1 12.3,-1.5 28.6,-10.7 39.1,-22 4.9,-5.2 9.3,-11.4 13.3,-18.6 3,-5.4 5.9,-11.3 8.6,-17.9 2.4,-5.8 4.6,-12 6.8,-18.7 -2.8,1.5 -6,2.6 -9.6,3.3 -0.6,0.1 -1.3,0.3 -1.9,0.4 -0.6,0.1 -1.3,0.2 -2,0.3 v 0 0 c 0,0 0,0 0,0 11.4,-4.4 18.7,-12.9 23.9,-23.3 -3,2.1 -7.9,4.7 -13.8,6 -0.8,0.2 -1.6,0.3 -2.4,0.4 -0.2,0 -0.4,0.1 -0.6,0.1 v 0 0 c 0,0 0,0 0,0 0,0 0,0 0,0 v 0 c 4,-1.7 7.3,-3.5 10.2,-5.7 0.6,-0.5 1.2,-1 1.8,-1.5 0.9,-0.8 1.7,-1.6 2.5,-2.4 0.5,-0.5 1,-1.1 1.5,-1.7 1.1,-1.4 2.2,-2.8 3.2,-4.4 0.3,-0.5 0.6,-1 0.9,-1.5 0.4,-0.7 0.7,-1.5 1.1,-2.2 1.6,-3.2 2.9,-6.1 3.9,-8.6 0.5,-1.3 1,-2.4 1.3,-3.5 0.2,-0.4 0.3,-0.8 0.4,-1.3 0.4,-1.2 0.7,-2.3 1,-3.2 0.4,-1.4 0.6,-2.5 0.8,-3.3 v 0 0 c -0.4,0.3 -0.8,0.6 -1.3,0.9 -3.5,2.1 -9.4,3.9 -14.2,4.8 l 9.4,-1 -9.4,1 c -0.1,0 -0.1,0 -0.2,0 -0.5,0.1 -1,0.2 -1.4,0.2 0.1,0 0.2,-0.1 0.2,-0.1 l -32.2,3.5 c 0,0.3 -0.1,0.4 -0.1,0.5 z"
   id="path131"
   style="fill:url(#SVGID_16_);stroke-width:0.413509" />
	
		<linearGradient
   id="SVGID_17_"
   gradientUnits="userSpaceOnUse"
   x1="-8017.0386"
   y1="-1112.902"
   x2="-7673.2373"
   y2="-1112.902"
   gradientTransform="matrix(0.4226,-0.9063,0.9063,0.4226,4442.6831,-6372.6807)">
		<stop
   offset="0.3233"
   style="stop-color:#9E2064"
   id="stop132" />
		<stop
   offset="0.6302"
   style="stop-color:#C92037"
   id="stop133" />
		<stop
   offset="0.7514"
   style="stop-color:#CD2335"
   id="stop134" />
		<stop
   offset="1"
   style="stop-color:#E97826"
   id="stop135" />
	</linearGradient>
	<path
   fill="url(#SVGID_17_)"
   d="m 178.1,104 c -2.9,4.4 -6,9.4 -9.4,15.1 -0.2,0.3 -0.4,0.6 -0.5,0.9 -2.9,4.9 -6,10.3 -9.2,16.2 -2.8,5.1 -5.7,10.5 -8.8,16.4 -2.6,5.1 -5.4,10.5 -8.2,16.3 l 32.2,-3.5 c 9.4,-4.3 13.6,-8.2 17.7,-13.9 1.1,-1.6 2.2,-3.2 3.3,-4.9 3.3,-5.2 6.6,-10.9 9.5,-16.5 2.8,-5.5 5.3,-10.9 7.2,-15.8 1.2,-3.1 2.2,-6 2.8,-8.5 0.6,-2.2 1,-4.4 1.4,-6.4 -12.6,2.1 -28,4.1 -38,4.6 z"
   id="path135"
   style="fill:url(#SVGID_17_);stroke-width:0.413509" />
	<path
   fill="#be202e"
   d="m 157.3,215.1 c -0.6,0.1 -1.3,0.2 -2,0.3 v 0 c 0.7,0 1.4,-0.1 2,-0.3 z"
   id="path136"
   style="stroke-width:0.413509" />
	<path
   opacity="0.35"
   fill="#be202e"
   d="m 157.3,215.1 c -0.6,0.1 -1.3,0.2 -2,0.3 v 0 c 0.7,0 1.4,-0.1 2,-0.3 z"
   id="path137"
   style="stroke-width:0.413509" />
	
		<linearGradient
   id="SVGID_18_"
   gradientUnits="userSpaceOnUse"
   x1="-7995.7114"
   y1="-1100.5521"
   x2="-7651.9102"
   y2="-1100.5521"
   gradientTransform="matrix(0.4226,-0.9063,0.9063,0.4226,4442.6831,-6372.6807)">
		<stop
   offset="0.3233"
   style="stop-color:#9E2064"
   id="stop137" />
		<stop
   offset="0.6302"
   style="stop-color:#C92037"
   id="stop138" />
		<stop
   offset="0.7514"
   style="stop-color:#CD2335"
   id="stop139" />
		<stop
   offset="1"
   style="stop-color:#E97826"
   id="stop140" />
	</linearGradient>
	<path
   fill="url(#SVGID_18_)"
   d="m 157.3,215.1 c -0.6,0.1 -1.3,0.2 -2,0.3 v 0 c 0.7,0 1.4,-0.1 2,-0.3 z"
   id="path140"
   style="fill:url(#SVGID_18_);stroke-width:0.413509" />
	<path
   fill="#be202e"
   d="m 162.5,198.7 c 0.2,0 0.4,-0.1 0.6,-0.1 -0.2,0 -0.4,0.1 -0.6,0.1 z"
   id="path141"
   style="stroke-width:0.413509" />
	<path
   opacity="0.35"
   fill="#be202e"
   d="m 162.5,198.7 c 0.2,0 0.4,-0.1 0.6,-0.1 -0.2,0 -0.4,0.1 -0.6,0.1 z"
   id="path142"
   style="stroke-width:0.413509" />
	
		<linearGradient
   id="SVGID_19_"
   gradientUnits="userSpaceOnUse"
   x1="-7995.7114"
   y1="-1101.7631"
   x2="-7651.9102"
   y2="-1101.7631"
   gradientTransform="matrix(0.4226,-0.9063,0.9063,0.4226,4442.6831,-6372.6807)">
		<stop
   offset="0.3233"
   style="stop-color:#9E2064"
   id="stop142" />
		<stop
   offset="0.6302"
   style="stop-color:#C92037"
   id="stop143" />
		<stop
   offset="0.7514"
   style="stop-color:#CD2335"
   id="stop144" />
		<stop
   offset="1"
   style="stop-color:#E97826"
   id="stop145" />
	</linearGradient>
	<path
   fill="url(#SVGID_19_)"
   d="m 162.5,198.7 c 0.2,0 0.4,-0.1 0.6,-0.1 -0.2,0 -0.4,0.1 -0.6,0.1 z"
   id="path145"
   style="fill:url(#SVGID_19_);stroke-width:0.413509" />
	<polygon
   fill="#be202e"
   points=""
   id="polygon145"
   style="stroke-width:0.413509" />
	<polygon
   opacity="0.35"
   fill="#be202e"
   points=""
   id="polygon146"
   style="stroke-width:0.413509" />
	
		<linearGradient
   id="SVGID_20_"
   gradientUnits="userSpaceOnUse"
   x1="-7802.5688"
   y1="-1102.006"
   x2="-7726.5776"
   y2="-1102.006"
   gradientTransform="matrix(0.4226,-0.9063,0.9063,0.4226,4442.6831,-6372.6807)">
		<stop
   offset="0.3233"
   style="stop-color:#9E2064"
   id="stop146" />
		<stop
   offset="0.6302"
   style="stop-color:#C92037"
   id="stop147" />
		<stop
   offset="0.7514"
   style="stop-color:#CD2335"
   id="stop148" />
		<stop
   offset="1"
   style="stop-color:#E97826"
   id="stop149" />
	</linearGradient>
	<polygon
   fill="url(#SVGID_20_)"
   points=""
   id="polygon149"
   style="fill:url(#SVGID_20_);stroke-width:0.413509" />
</g><g
       id="g151"
       style="fill:#404040;fill-opacity:1;stroke-width:0.694886"
       transform="matrix(0.80339739,0,0,0.80339739,-145.81435,114.86986)">
	<g
   id="g150"
   style="fill:#404040;fill-opacity:1;stroke-width:0.694886">
		<path
   fill="#b0afb0"
   d="m 870.1,161.4 v 8.3 h -2.3 v -8.3 h -2.9 v -2 h 8.2 v 2 z"
   id="path149"
   style="fill:#404040;fill-opacity:1;stroke-width:0.694886" />
		<path
   fill="#b0afb0"
   d="m 884,163.2 -2.8,5.6 h -1.4 l -2.8,-5.6 v 6.5 h -2.3 v -10.3 h 3.1 l 2.7,5.7 2.7,-5.7 h 3.1 v 10.3 H 884 Z"
   id="path150"
   style="fill:#404040;fill-opacity:1;stroke-width:0.694886" />
	</g>
</g></g></g>
<rect
   style="fill:#000000;fill-opacity:0;stroke-width:0.999999;stroke-linejoin:round;stroke-miterlimit:100"
   id="rect151"
   width="1620"
   height="1000"
   x="0"
   y="0" /></svg>
