<?xml version="1.0" encoding="UTF-8" standalone="no"?>
<svg
   version="1.0"
   width="1620"
   height="1000"
   xml:space="preserve"
   id="svg3"
   sodipodi:docname="blogger-logo.svg"
   inkscape:version="1.4.2 (f4327f4, 2025-05-13)"
   xmlns:inkscape="http://www.inkscape.org/namespaces/inkscape"
   xmlns:sodipodi="http://sodipodi.sourceforge.net/DTD/sodipodi-0.dtd"
   xmlns="http://www.w3.org/2000/svg"
   xmlns:svg="http://www.w3.org/2000/svg"><defs
   id="defs3" /><sodipodi:namedview
   id="namedview3"
   pagecolor="#ffffff"
   bordercolor="#000000"
   borderopacity="0.25"
   inkscape:showpageshadow="2"
   inkscape:pageopacity="0.0"
   inkscape:pagecheckerboard="0"
   inkscape:deskcolor="#d1d1d1"
   inkscape:zoom="0.18147166"
   inkscape:cx="336.14064"
   inkscape:cy="823.82009"
   inkscape:window-width="1182"
   inkscape:window-height="1005"
   inkscape:window-x="1353"
   inkscape:window-y="279"
   inkscape:window-maximized="0"
   inkscape:current-layer="svg3" />
	<rect
   style="fill:#bfbfbf;stroke-width:11.3386;stroke-linecap:round;fill-opacity:0.5044843"
   id="rect3"
   width="1620"
   height="1000"
   x="0"
   y="0" />
	
	<g
   id="g3"
   transform="matrix(2.2297667,0,0,2.2297667,241.03507,217.80165)"><path
     d="m 200.71792,146.03959 c 1.2,0.26 2.6,0.26 4.7,0.26 5.4,0 10.2,-2.34 10.2,-8.49 0,-5.9 -4.8,-8.24 -10.8,-8.24 h -4.1 z m 0,-25.78 h 3.7 c 5.9,0 9,-2.97 9,-7.47 0,-4.59 -2.9,-7.02 -7.9,-7.02 -2.5,0 -3.9,0.18 -4.8,0.45 z m -12.4,-24.470004 c 3.4,0 9.9,-0.01 16.2,-0.01 7.7,0 12.1,-0.16 16,2.67 3.8,2.780004 5.8,6.990004 5.8,12.570004 0,5.31 -1.2,11.19 -8.2,13.71 v 0.18 c 6.3,0.76 11.1,6.83 11.1,14.66 0,5.58 -1.9,10.53 -5.4,13.5 -4,3.5 -8.2,4.45 -21.9,4.45 -6.2,0 -10.8,0.01 -13.6,0.01 V 95.789586 m 94.2,39.150004 c 0,-7.49 -0.9,-12.51 -6.3,-12.51 -5.5,0 -6.6,4.9 -6.6,12.59 0,7.95 2,12.51 6.5,12.51 4.5,0 6.4,-3.97 6.4,-12.59 z m -6.4,22.62 c -13.7,0 -18.1,-8.35 -18.1,-22.39 0,-14.03 5.1,-23 18.7,-23 13.7,0 17.9,9.14 17.9,22.29 0,15.81 -4.8,23.1 -18.5,23.1 m 47.6,-26.19 c 0,-3.69 -0.8,-8.58 -5.4,-8.58 -4.5,0 -6.3,4.52 -6.3,12.56 0,6.59 1.3,11.75 6.3,11.75 4.9,0 5.4,-6.85 5.4,-9.22 z m 12.3,19.79 c 0,8.49 0.2,15.6 -4,20.1 -4,4.1 -10.6,4.8 -16,4.8 -4.4,0 -10.1,-0.9 -13.3,-2.7 -1,-0.6 -1,-1.8 -0.6,-3.1 0.4,-1.2 1.5,-5.1 1.8,-5.8 0.4,-1.23 1.8,-1.29 2.2,-1.07 2.4,1.07 5.7,1.57 9.3,1.57 5.4,0 8.2,-0.5 8.2,-8.77 v -2.8 h -0.2 c -2.3,3 -4.4,4.17 -8.6,4.17 -11.5,0 -15.3,-9.2 -15.3,-21.85 0,-14.27 3.9,-23.31 16.5,-23.31 5,0 7.7,2.54 9.5,6.15 l 0.9,-4.11 c 0,0 0.2,-1.04 1.8,-1.04 h 5.6 c 1.7,0 2.4,0.4 2.5,1.22 0,0.83 -0.3,6.27 -0.3,11.96 v 24.58 m 30.5,-19.79 c 0,-3.69 -0.8,-8.58 -5.4,-8.58 -4.5,0 -6.3,4.52 -6.3,12.56 0,6.59 1.3,11.75 6.3,11.75 5,0 5.4,-6.85 5.4,-9.22 z m 12.3,19.79 c 0,8.49 0.2,15.6 -4,20.1 -3.9,4.1 -10.6,4.8 -15.9,4.8 -4.5,0 -10.2,-0.9 -13.4,-2.7 -0.9,-0.6 -0.9,-1.8 -0.5,-3.1 0.3,-1.2 1.5,-5.1 1.7,-5.8 0.4,-1.23 1.8,-1.29 2.3,-1.07 2.3,1.07 5.7,1.57 9.2,1.57 5.4,0 8.2,-0.5 8.2,-8.77 v -2.8 h -0.2 c -2.2,3 -4.4,4.17 -8.5,4.17 -11.6,0 -15.4,-9.2 -15.4,-21.85 0,-14.27 3.9,-23.31 16.5,-23.31 5,0 7.7,2.54 9.6,6.15 l 0.8,-4.11 c 0,0 0.2,-1.04 1.8,-1.04 h 5.7 c 1.6,0 2.3,0.4 2.4,1.22 0,0.83 -0.3,6.27 -0.3,11.96 v 24.58 m 29.5,-21.12 c 0,-3.03 -0.2,-8.33 -5.1,-8.33 -4.7,0 -5.5,4.96 -5.7,8.33 z m -10.4,8.34 c 0.4,5.66 2.9,9.15 8.3,9.15 3.5,0 3.7,-0.19 8.6,-1.91 0.8,-0.28 2.3,-0.48 2.7,0.61 0.5,1.27 1.7,5.02 2.1,6 0.6,1.68 -1.6,2.55 -1.6,2.55 -3.8,1.86 -8.4,2.74 -13.5,2.74 -12.7,0 -19.9,-8.48 -19.9,-22.09 0,-10.96 4.2,-23.07 18.9,-23.07 14.1,0 16.6,10.87 16.6,21.56 0,2.3 -0.3,4.55 -2.4,4.55 l -19.8,-0.09 m -148,7.62 c 4.8,0 5,0 6.1,7.9 0.3,2.11 -1.5,3.65 -3.9,3.65 h -9.8 c -3.3,0 -6.4,-3.57 -6.5,-6.86 v -2.68 -51.010004 c 0,-0.69 0.5,-1.25 1.2,-1.25 h 9.2 c 0.7,0 1.3,0.56 1.3,1.25 v 46.890004 c 0,1.73 0.2,2.11 2.4,2.11 m 199.5,-33.82 c -1.8,-0.02 -6.5,-0.67 -11,5.1 h -0.3 l -0.5,-3.91 -10.6,0.11 v 1.51 41.31 c 0,0.69 0.5,1.25 1.2,1.25 h 10.2 c 0.7,0 1.3,-0.56 1.3,-1.25 l -0.1,-21.76 c 0,-1.15 0.1,-2.73 0.2,-3.63 0.4,-5.4 1.8,-7.4 6.4,-7.4 1.5,0 4.2,0.77 5.4,1.16 1.3,0.39 2,-1.04 2,-1.04 0,0 1,-5.82 1.4,-8.04 0.3,-2.22 -3.8,-3.39 -5.6,-3.41 m 10.9,3.16 v -4.86 h -1.4 v -1.16 h 4.1 v 1.16 h -1.5 v 4.86 h -1.2 m 11.1,0 h -1.5 v -3.99 l -1,2.57 h -1 l -1.1,-2.57 v 3.99 h -1.3 v -6.02 h 1.6 l 1.3,2.97 1.3,-2.97 h 1.7 v 6.02"
     fill="#003366"
     id="path1" /><path
     d="m 163.91792,170.35959 c 0,10.4 -8.4,18.7 -18.7,18.7 H 57.667923 c -10.36,0 -18.75,-8.3 -18.75,-18.7 V 82.809586 c 0,-10.35 8.395,-18.75 18.75,-18.75 h 87.549997 c 10.3,0 18.7,8.396 18.7,18.75 v 87.550004"
     fill="#ff6600"
     id="path2" /><path
     d="m 88.037923,87.639586 c -13.8,0 -24.99,11.19 -25,25.000004 v 27.43 c 0,13.81 11.2,24.99 25,24.99 h 26.909997 c 13.81,0 24.97,-11.18 24.97,-24.99 v -17.72 c 0,-2.76 -2.21,-5 -4.97,-5 h -4.22 -0.09 c -2.64,0 -4.79,-2.06 -4.97,-4.65 l -0.03,-0.06 c 0,-13.810004 -11.19,-25.000004 -25,-25.000004 z m -0.62,20.280004 h 14.159997 c 2.65,0 4.81,2.15 4.81,4.81 0,2.65 -2.16,4.81 -4.81,4.81 H 87.417923 c -2.65,0 -4.81,-2.16 -4.81,-4.81 0,-2.66 2.16,-4.81 4.81,-4.81 z m -0.03,28.15 h 28.409997 c 2.51,0 4.56,2.02 4.56,4.53 0,2.51 -2.05,4.57 -4.56,4.57 H 87.387923 c -2.51,0 -4.53,-2.06 -4.53,-4.57 0,-2.51 2.02,-4.53 4.53,-4.53 z"
     fill="#ffffff"
     id="path3" /></g>
</svg>
