<?xml version="1.0" encoding="UTF-8" standalone="no"?>
<svg
   viewBox="0 0 1000 1000"
   preserveAspectRatio="xMinYMid"
   version="1.1"
   id="svg1"
   sodipodi:docname="oracle-logo.svg"
   width="1000"
   height="1000"
   inkscape:version="1.3.2 (091e20e, 2023-11-25, custom)"
   xmlns:inkscape="http://www.inkscape.org/namespaces/inkscape"
   xmlns:sodipodi="http://sodipodi.sourceforge.net/DTD/sodipodi-0.dtd"
   xmlns="http://www.w3.org/2000/svg"
   xmlns:svg="http://www.w3.org/2000/svg">
  <defs
     id="defs1" />
  <sodipodi:namedview
     id="namedview1"
     pagecolor="#7e7e7e"
     bordercolor="#eeeeee"
     borderopacity="1"
     inkscape:showpageshadow="0"
     inkscape:pageopacity="0"
     inkscape:pagecheckerboard="true"
     inkscape:deskcolor="#808080"
     inkscape:zoom="0.79274892"
     inkscape:cx="481.86758"
     inkscape:cy="343.1099"
     inkscape:window-width="3081"
     inkscape:window-height="1632"
     inkscape:window-x="351"
     inkscape:window-y="291"
     inkscape:window-maximized="0"
     inkscape:current-layer="svg1" />
  <path
     d="m 436.3281,536.35454 h 65.13548 l -34.40555,-55.56176 -63.25492,100.35308 h -28.7639 l 76.93166,-120.39805 a 18.335381,18.33538 0 0 1 29.91788,-0.2137 l 77.14536,120.61175 H 530.27022 L 516.7217,558.70747 h -65.9048 l -14.36058,-22.35293 m 298.87949,22.35293 V 454.12314 h -24.44717 v 114.88462 a 11.796189,11.796189 0 0 0 3.63286,8.54796 12.351807,12.351806 0 0 0 8.88993,3.71836 h 111.12348 l 14.48884,-22.43839 H 735.20761 M 331.1454,540.03017 a 42.953517,42.953515 0 0 0 0,-85.90703 H 224.29586 V 581.14586 H 248.7003 V 476.60428 h 80.94921 a 20.557852,20.557852 0 0 1 0,41.1157 h -68.85384 l 72.91412,63.42588 h 35.43132 L 320.16127,540.03017 H 331.1454 M 74.193632,581.14586 h 73.811658 a 63.511365,63.511363 0 0 0 0,-126.97998 H 74.193632 a 63.511365,63.511363 0 1 0 0,126.97998 M 146.33844,558.79294 H 75.817749 a 41.115702,41.1157 0 0 1 0,-82.18866 h 70.520691 a 41.115702,41.1157 0 1 1 0,82.18866 m 463.68427,22.35292 h 75.3503 l 14.2751,-22.35292 h -87.95855 a 41.115702,41.1157 0 1 1 0,-82.18866 h 71.58919 l 14.44607,-22.4384 h -87.70211 a 63.511365,63.511363 0 1 0 0,126.97998 M 908.6458,558.79294 A 41.115702,41.1157 0 0 1 869.06869,528.87507 H 973.43933 L 987.7999,506.47941 H 869.06869 a 41.072962,41.072961 0 0 1 39.57711,-29.91787 h 71.63189 l 14.31788,-22.4384 h -87.61665 a 63.511365,63.511363 0 0 0 0,126.97999 h 75.35027 l 14.31788,-22.35293 h -88.04402"
     style="fill:#c74634;stroke-width:0.999998"
     id="path1" />
  <rect
     style="fill:#000000;fill-opacity:0;stroke-width:1;stroke-linejoin:round;stroke-miterlimit:100"
     id="rect1"
     width="1620"
     height="1000"
     x="0"
     y="0" />
</svg>
