<?xml version="1.0" encoding="UTF-8" standalone="no"?>
<!-- Created with Inkscape (http://www.inkscape.org/) -->

<svg
   width="1620"
   height="1000"
   viewBox="0 0 1620 999.99997"
   version="1.1"
   id="svg1"
   xml:space="preserve"
   sodipodi:docname="sisyphus.svg"
   inkscape:version="1.3.2 (091e20e, 2023-11-25, custom)"
   xmlns:inkscape="http://www.inkscape.org/namespaces/inkscape"
   xmlns:sodipodi="http://sodipodi.sourceforge.net/DTD/sodipodi-0.dtd"
   xmlns="http://www.w3.org/2000/svg"
   xmlns:svg="http://www.w3.org/2000/svg"><sodipodi:namedview
     id="namedview1"
     pagecolor="#505050"
     bordercolor="#eeeeee"
     borderopacity="1"
     inkscape:showpageshadow="0"
     inkscape:pageopacity="0"
     inkscape:pagecheckerboard="0"
     inkscape:deskcolor="#505050"
     inkscape:document-units="px"
     inkscape:zoom="0.28740474"
     inkscape:cx="793.30633"
     inkscape:cy="1228.2331"
     inkscape:window-width="2383"
     inkscape:window-height="1324"
     inkscape:window-x="1434"
     inkscape:window-y="733"
     inkscape:window-maximized="0"
     inkscape:current-layer="layer1" /><defs
     id="defs1" /><g
     inkscape:label="Layer 1"
     inkscape:groupmode="layer"
     id="layer1"
     transform="translate(155.51726,88.516266)"><rect
       style="fill:#c0c0c0;fill-opacity:1;stroke-width:1.8;stroke-linejoin:round;stroke-miterlimit:100;stroke-opacity:0.198507"
       id="rect1"
       width="1620"
       height="1000"
       x="-155.51726"
       y="-88.516266" /><path
       style="fill:#000000;stroke-width:0.999995"
       d="m 95.97408,871.54356 c -2.215049,-1.35171 -5.839268,-2.78646 -8.05381,-3.1883 -2.214539,-0.40188 -5.249768,-1.34967 -6.744937,-2.10618 -4.073662,-2.06124 -6.448679,-1.68839 -16.863538,2.64756 -5.233126,2.17863 -9.721632,3.75428 -9.974464,3.50143 -0.658435,-0.65839 12.032251,-6.28131 17.442667,-7.72834 5.480886,-1.46596 5.470042,-1.39476 1.006866,-6.60899 -2.65392,-3.1005 -7.123249,-5.96474 -17.610376,-11.28601 -9.258436,-4.69784 -14.807992,-8.15108 -16.263979,-10.12037 -2.688567,-3.63655 -6.335282,-3.90077 -14.126098,-1.02346 -2.927659,1.08129 -13.391886,4.27291 -23.2538072,7.09255 -9.8619211,2.8196 -22.7731648,7.2062 -28.6916778,9.74805 -15.281915,6.56303 -36.281801,14.4297 -38.269757,14.33601 -1.376315,-0.065 -1.408706,-0.17953 -0.176126,-0.62465 0.830513,-0.29971 7.852459,-3.39031 15.604232,-6.86785 26.54366,-11.90778 35.371124,-15.38506 49.38946743,-19.45561 7.71885347,-2.24133 18.71758057,-5.83831 24.44156157,-7.99325 l 10.407232,-3.91804 2.406614,-5.95042 c 2.549971,-6.30481 4.276573,-8.15485 28.666128,-30.71644 19.126726,-17.69318 34.195476,-39.95648 42.752442,-63.16475 8.79826,-23.86261 22.62164,-37.86561 50.51461,-51.17075 18.8987,-9.0149 27.76282,-15.61686 24.82451,-18.48945 -3.33607,-3.26128 -25.12312,-8.02609 -38.40164,-8.3983 -28.29479,-0.79321 -55.328297,-9.47414 -101.727666,-32.66667 l -23.50696,-11.74985 -11.2250837,0.0381 -11.2250833,0.0381 -42.785839,14.22196 c -49.794216,16.55153 -57.383398,18.80295 -57.383398,17.02355 0,-0.69838 3.64532,-2.27403 8.305478,-3.58994 4.568012,-1.28984 25.293996,-7.96664 46.057738,-14.83728 63.116673,-20.8851 60.288717,-20.88122 102.1827,-0.13814 38.078751,18.85404 67.898524,28.01486 97.858604,30.06272 8.28789,0.56655 18.07485,1.9697 24.27111,3.47978 5.71069,1.39177 10.55944,2.53047 10.77499,2.53047 0.69511,0 2.4459,-7.23069 5.10629,-21.08867 1.42945,-7.44601 4.14584,-17.86563 6.03641,-23.15467 1.89058,-5.28912 3.43755,-9.72217 3.43771,-9.85125 1.7e-4,-0.129 -2.23329,-1.36655 -4.96324,-2.74996 -8.92056,-4.52037 -10.20948,-9.38522 -4.94387,-18.65993 7.66101,-13.49396 9.07191,-16.33235 14.3115,-28.79129 4.34798,-10.33877 6.10976,-16.2096 8.15703,-27.1816 5.05624,-27.09824 6.418,-31.90149 12.57971,-44.37192 10.11946,-20.4803 24.40919,-36.28999 39.10566,-43.26529 0.17564,-0.0834 -0.9139,-2.57499 -2.42122,-5.53704 -6.15131,-12.08755 -3.46062,-21.51204 11.14149,-39.02419 4.80807,-5.76622 12.38454,-15.95935 16.83662,-22.65132 9.48522,-14.25731 13.51347,-19.39055 20.60394,-26.25589 3.33676,-3.23077 7.70308,-9.42615 12.16707,-17.2637 27.22201,-47.79458 57.90682,-65.3806 100.82294,-57.78344 6.07741,1.0758 6.81281,0.98627 12.8015,-1.55897 l 6.35368,-2.70033 -1.95272,-2.4825 c -4.26632,-5.42365 -3.77333,-14.44987 1.05277,-19.27596 2.29848,-2.29845 2.98192,-3.89356 2.98192,-6.95967 0,-8.37679 4.73213,-17.10317 11.01207,-20.30698 3.44726,-1.75864 3.85012,-2.3975 4.39087,-6.96328 1.1187,-9.44603 9.15027,-18.08684 17.67877,-19.01981 3.22609,-0.35289 5.71696,-1.42136 8.05424,-3.45477 5.55288,-4.83103 18.0365,-6.71625 24.61772,-3.71765 1.89629,0.86401 3.10933,0.75066 5.56696,-0.52024 10.19612,-5.2726 31.36546,1.26746 31.36546,9.69003 0,1.15015 0.92937,1.44515 3.7752,1.19832 5.55396,-0.4817 9.60183,1.18905 13.75427,5.67706 2.03109,2.19523 4.3015,3.99134 5.0453,3.99134 4.04213,0 10.35534,10.57585 9.37487,15.70473 -0.33831,1.76984 0.21679,3.34623 1.76773,5.01968 6.26261,6.75752 1.94771,22.77777 -7.29082,27.06902 -4.07145,1.89122 -4.27856,2.199 -4.27856,6.35822 0,5.57841 -1.18372,7.71633 -5.93206,10.71383 -3.72515,2.35153 -3.85135,2.625 -4.52372,9.80087 -1.81272,19.3468 -2.49252,21.3466 -7.6406,22.47732 -1.94732,0.42769 -3.05961,1.43709 -3.49491,3.17158 -0.85287,3.39784 -5.09285,7.53214 -6.98146,6.80742 -1.02815,-0.39453 -2.15671,0.70478 -3.57238,3.4797 -1.13816,2.23103 -2.86538,4.50558 -3.83827,5.05448 -1.41679,0.79932 -1.51837,1.25098 -0.51045,2.26878 4.30937,4.35167 -2.45615,17.29335 -9.7249,18.60259 -6.74443,1.2148 -7.28154,0.36605 11.17931,17.66512 l 11.77335,11.03237 11.38138,-3.08554 c 6.25974,-1.69707 16.13812,-4.2086 21.95198,-5.58116 22.87631,-5.40091 44.61316,-18.34632 46.31627,-27.58375 1.6753,-9.08652 1.25926,-10.8729 -6.44484,-27.67279 -12.80833,-27.93022 -14.78939,-34.19976 -15.7865,-49.95943 -1.00013,-15.80817 -2.82176,-26.37923 -7.19944,-41.77915 -2.71984,-9.56793 -3.13366,-12.58003 -3.04293,-22.14797 0.11108,-11.71709 0.3876,-13.30259 5.09156,-29.19506 1.6389,-5.537 3.2797,-12.78543 3.64627,-16.10762 2.95751,-26.80447 6.94081,-40.46191 16.1862,-55.49758 3.02109,-4.913094 8.06642,-13.579021 11.21191,-19.257614 12.57547,-22.702638 35.5709,-46.526424 57.44889,-59.5184176 5.42094,-3.2191066 14.93907,-9.3437589 21.1516,-13.6103389 19.34208,-13.2836405 42.9279,-22.9976795 66.22251,-27.2743515 18.27375,-3.354886 34.27693,-7.42685 48.08318,-12.234624 33.34617,-11.612202 87.68962,-5.262524 126.32051,14.759708 12.90054,6.686309 27.80621,12.092624 43.04984,15.614248 15.89274,3.671618 24.81604,8.412525 35.56024,18.8931091 35.9962,35.1126599 43.44,45.1336649 54.5482,73.4341199 7.9131,20.160022 13.0398,30.767751 23.8954,49.442691 15.1118,25.99661 19.964,57.84641 13.5193,88.74005 -1.1551,5.537 -3.7029,19.80736 -5.6617,31.7119 -1.9588,11.90455 -4.0168,24.09849 -4.5733,27.09771 -1.2942,6.97492 -1.3822,6.94159 6.1761,2.34034 3.5216,-2.14378 16.3695,-9.02975 28.5509,-15.30213 12.1813,-6.27234 31.888,-16.94801 43.7925,-23.72371 36.3867,-20.71015 68.2898,-35.3915 108.2231,-49.80282 4.9833,-1.7984 17.8946,-7.561 28.6917,-12.80579 39.5131,-19.19376 70.3944,-28.23434 83.5583,-24.46187 2.9241,0.83797 2.3793,0.96245 -13.5908,3.10538 -19.2936,2.58891 -34.1775,7.83881 -65.8217,23.21688 -11.2853,5.48436 -26.4617,12.29643 -33.7252,15.13792 -50.8696,19.90029 -72.4076,29.83787 -103.3085,47.66642 -11.3508,6.54897 -32.4892,18.12485 -46.974,25.72416 -37.5386,19.69407 -36.8802,19.18445 -41.1094,31.81899 -5.6719,16.94456 -11.1355,26.27663 -28.2872,48.31601 -20.3639,26.167 -24.6405,34.88729 -14.7102,29.99517 8.5933,-4.23337 27.0995,-10.40173 33.4284,-11.14208 3.0222,-0.3535 -0.3288,1.10886 -10.0672,4.39337 -20.3323,6.85745 -31.3737,12.24122 -38.212,18.63227 -3.0987,2.89614 -6.9811,6.28217 -8.6275,7.52449 -2.7879,2.10371 -2.5788,2.07726 3.0468,-0.38503 25.8753,-11.3255 38.8957,-16.68612 47.4499,-19.53544 7.456,-2.48347 11.7042,-4.6413 17.0328,-8.65126 8.3353,-6.27275 21.0662,-12.46713 31.6395,-15.39464 12.413,-3.43695 12.4258,-2.29937 0.019,1.80345 -13.2447,4.38037 -17.0974,6.22819 -29.7337,14.26129 -5.0027,3.18024 -14.2897,7.81762 -20.6379,10.30515 -6.3482,2.48763 -20.4098,8.40043 -31.2482,13.1396 -10.8384,4.73915 -21.711,9.39941 -24.1614,10.35613 -2.4504,0.95669 -5.6093,2.53583 -7.0195,3.50918 -5.4799,3.78203 -24.1136,12.45312 -44.04468,20.49597 -11.46304,4.62568 -26.95774,11.21525 -34.43267,14.6435 -23.72658,10.88174 -44.56278,18.83673 -45.10193,17.21938 -0.36321,-1.09011 -2.09824,-0.86069 -15.30157,2.02312 -5.26019,1.14886 -12.5478,2.73896 -16.19474,3.53354 -6.01894,1.31135 -22.06798,8.00055 -39.17526,16.32817 -6.05167,2.94591 -6.31661,2.99586 -3.52358,0.66393 3.38204,-2.82358 16.49923,-9.47634 27.18161,-13.78602 l 7.04715,-2.84304 -7.55051,0.64089 c -8.30162,0.70464 -19.15487,3.79386 -32.06547,9.12692 -4.62414,1.91014 -8.63403,3.24649 -8.91081,2.96973 -0.85111,-0.85118 11.4999,-6.64467 20.68872,-9.70442 l 8.71026,-2.9003 -5.17413,-0.0556 c -11.84304,-0.12714 -29.97211,5.12517 -46.60907,13.5034 -4.02416,2.02653 -7.53736,3.46391 -7.80716,3.19411 -1.68996,-1.68996 26.69197,-15.19025 34.64945,-16.48163 4.90877,-0.79656 4.02557,-1.68719 -2.99573,-3.02093 -3.46069,-0.65735 -10.76477,-2.57278 -16.23148,-4.25656 -24.25305,-7.46976 -48.85309,3.86878 -169.25789,78.01337 -22.80167,14.04113 -58.65403,35.22445 -70.64906,41.74285 l -10.1832,5.53387 -1.14514,5.11681 c -1.4042,6.27474 -7.08318,16.14858 -13.22315,22.99072 -2.52734,2.81643 -6.76503,9.1677 -9.41706,14.11405 -13.86221,25.85419 -26.34662,42.99084 -46.62102,63.99431 -27.96455,28.97019 -42.41674,47.30578 -40.03608,50.79402 2.83685,4.15664 29.08682,15.76943 40.26577,17.81332 16.49509,3.01584 23.6581,6.63421 23.6581,11.95102 0,6.16547 -8.76122,12.06047 -17.92436,12.06047 -2.86434,0 -8.72391,0.99296 -13.02127,2.20657 -11.15259,3.14963 -21.60571,2.96299 -31.76732,-0.56705 -8.51951,-2.95959 -21.51514,-3.81785 -28.04866,-1.85242 -8.47072,2.54816 -18.96897,4.49193 -25.46585,4.715 -5.1249,0.17575 -9.31938,1.11424 -15.09714,3.37716 -4.40028,1.72339 -8.20739,2.92664 -8.46019,2.67375 -0.69339,-0.69332 10.95364,-5.64529 14.72345,-6.25999 3.11876,-0.50854 5.64804,-2.27955 3.25548,-2.27955 -0.61458,0 -2.56668,-1.56057 -4.338,-3.46794 l -3.22051,-3.46795 -6.54374,2.38704 c -3.59901,1.31286 -11.0212,4.02104 -16.4937,6.01814 -15.95676,5.82316 -12.15975,3.49565 5.80417,-3.55782 l 16.47437,-6.46866 0.48357,-6.54376 c 0.61214,-8.28454 4.16642,-15.49776 13.74047,-27.88577 19.29669,-24.96809 36.28204,-58.50852 38.83273,-76.68162 0.76038,-5.41735 1.48274,-5.63388 -15.94342,4.7788 -27.91921,16.6826 -68.90894,37.67724 -110.85216,56.77761 -12.73512,5.79934 -34.4804,15.99601 -48.32289,22.65925 -37.14613,17.88068 -129.41431,58.74527 -139.38799,61.73344 -4.27302,1.28023 -6.40788,4.84675 -4.47044,7.46842 12.19377,16.4999 19.44398,22.19062 34.62862,27.17998 13.25806,4.35639 16.10763,6.35062 16.10763,11.27304 0,3.43246 -3.61213,8.33594 -6.14065,8.33594 -0.65918,0 -4.41725,1.53638 -8.35124,3.41424 -3.93401,1.87789 -9.19135,3.72162 -11.683,4.09727 -2.49165,0.37568 -5.88935,1.07062 -7.55045,1.54435 -8.36163,2.38458 -21.97478,2.19092 -26.175351,-0.37266 z m 13.59141,-3.44754 2.23663,-1.81115 -3.75247,-3.29469 c -2.06386,-1.81209 -5.2853,-4.02572 -7.15875,-4.91905 -3.748859,-1.78775 -4.677073,-3.80391 -1.250557,-2.71635 5.404767,1.71538 11.522477,6.25059 13.305717,9.86389 1.71138,3.46764 2.18271,3.76422 5.53699,3.48438 6.11497,-0.51035 5.26581,-5.0146 -2.04411,-10.84263 -3.14076,-2.50405 -5.55329,-4.71008 -5.36118,-4.90216 1.67589,-1.67592 14.59521,7.94823 14.59521,10.87249 0,2.5838 1.19303,3.16997 4.93024,2.42253 4.27356,-0.85474 3.98016,-1.82321 -2.41342,-7.96645 -5.46593,-5.25185 -8.24907,-10.77547 -3.27186,-6.49357 6.13457,5.27762 10.55604,9.69426 10.96427,10.95228 0.38499,1.18639 0.78543,1.18786 2.67225,0.008 3.2424,-2.02495 2.77491,-3.34268 -2.58055,-7.274 -2.63998,-1.93788 -5.69792,-4.52678 -6.79541,-5.75316 -3.18736,-3.56156 8.16617,2.40563 12.6021,6.62344 3.39353,3.22665 3.64429,3.29892 6.79541,1.95794 6.87164,-2.92433 4.32407,-5.29251 -11.36266,-10.56257 -15.70658,-5.27671 -37.715251,-24.69637 -37.715251,-33.27859 0,-10.98886 18.165241,-29.29882 51.846411,-52.25937 25.99149,-17.7185 39.94506,-30.10462 50.77633,-45.07238 4.88519,-6.75084 2.1028,-5.06585 -9.14306,5.53705 -8.85872,8.35219 -9.6324,8.90445 -5.18941,3.7042 10.16567,-11.89829 18.68746,-18.17253 27.17328,-20.0067 4.66476,-1.00823 11.04743,-6 14.3691,-11.23771 1.58856,-2.50488 9.45312,-10.8689 17.4768,-18.58665 16.52137,-15.89148 35.32052,-39.66887 32.08375,-40.57977 -21.29799,-5.99407 -47.38223,-17.38526 -67.0135,-29.26522 -3.25086,-1.96731 -6.19553,-3.57343 -6.54372,-3.56926 -1.10822,0.0151 -6.99147,21.25862 -8.77958,31.70425 -4.50366,26.3091 -10.23113,33.69063 -35.73178,46.05109 -28.41335,13.77225 -38.98061,24.63556 -48.23765,49.5891 -10.14913,27.35837 -28.175884,51.80859 -55.063575,74.68436 -23.60948,20.08668 -23.5032,26.26814 0.650763,37.84717 10.766267,5.16113 13.564803,7.01654 18.929079,12.54954 5.319182,5.48652 7.269796,6.78838 12.584077,8.39876 3.459035,1.04825 7.648225,2.81295 9.309327,3.92152 3.752259,2.50439 7.647949,2.58467 10.570759,0.21808 z m -39.765825,-49.8257 c -5.800735,-3.27575 -6.141547,-8.38042 -1.00837,-15.10318 4.81008,-6.29956 6.068685,-6.01802 2.448737,0.54777 -4.097272,7.4315 -3.93806,11.31417 0.573086,13.97586 6.050007,3.56958 4.216029,4.0975 -2.013453,0.57955 z m 59.900205,-85.45575 c 20.11383,-19.69323 31.20852,-30.24877 31.20852,-29.69201 0,1.05751 -13.03684,15.8332 -17.58811,19.93399 -7.39645,6.66444 -18.81861,14.84757 -13.62041,9.75802 z m 65.03267,-38.07783 c 0.358,-1.38426 2.13589,-5.71461 3.95081,-9.62302 4.16094,-8.96054 5.62798,-14.23824 4.83549,-17.39569 -0.46373,-1.84774 -0.29647,-2.27573 0.6586,-1.68544 2.60645,1.61083 0.4853,10.7179 -4.94881,21.24755 -2.83088,5.48542 -4.85413,8.84085 -4.49609,7.4566 z m 35.63997,-28.59364 c 0,-0.22299 3.05794,-1.38214 6.79541,-2.57609 3.73747,-1.19384 7.47494,-2.39165 8.3055,-2.66173 0.83054,-0.27024 0.23195,0.24076 -1.33017,1.13571 -4.08182,2.33783 -13.77074,5.22406 -13.77074,4.10211 z M 120.30682,801.86899 c 6.55043,-3.09158 20.51739,-9.48329 31.03768,-14.20373 40.39653,-18.12589 83.16337,-37.66631 97.65246,-44.61789 21.2141,-10.17815 34.80044,-16.625 40.45329,-19.19542 49.98994,-22.73091 64.37159,-30.23959 61.1509,-31.92711 -10.07382,-5.27822 -60.13346,-16.25412 -67.03086,-14.69703 -1.29695,0.29291 -8.60575,0.50098 -16.24179,0.46258 l -13.88369,-0.0699 -7.76092,6.73716 c -4.26851,3.70548 -9.18027,8.80244 -10.91502,11.3266 -4.46773,6.50082 -7.5139,9.05775 -16.25792,13.64662 -6.0141,3.15621 -8.43267,5.1219 -11.15226,9.06391 -10.12794,14.68029 -26.99338,29.83695 -52.15835,46.87385 -20.8801,14.13604 -40.5346,30.70224 -46.80763,39.4529 -2.73695,3.81793 -1.68632,3.5664 11.91411,-2.8526 z m 277.35993,-22.58664 c 5.71613,-1.11806 12.55507,-2.74345 15.19769,-3.61199 6.85481,-2.25297 19.75068,-1.09568 31.32542,2.81118 9.9026,3.34239 12.25031,3.3202 25.54306,-0.24113 4.02053,-1.07725 9.81115,-1.95859 12.8681,-1.95859 6.8938,0 12.17024,-2.11272 13.70852,-5.48897 1.64029,-3.59993 0.50218,-4.17657 -4.12503,-2.08997 -4.84406,2.18442 -13.5987,1.75665 -17.24817,-0.84268 -2.41418,-1.7195 -2.37774,-1.73348 2.78402,-1.06821 5.63704,0.72646 12.38754,-0.11906 12.38754,-1.55172 0,-1.21153 -4.88421,-2.66113 -15.56881,-4.62063 -10.53038,-1.93111 -36.98162,-14.43428 -40.79624,-19.28379 -4.75261,-6.04199 3.33364,-17.43382 40.13511,-56.54169 19.57163,-20.79832 25.9948,-29.37498 39.87922,-53.24946 9.44286,-16.2372 13.37063,-22.30358 19.60803,-30.28456 14.90102,-19.06616 10.76183,-33.41961 -14.22411,-49.32487 -13.88744,-8.8403 -41.34204,-24.63055 -45.02949,-25.8982 -10.73175,-3.68944 -29.44153,9.75845 -44.92233,32.28853 -3.80453,5.53699 -10.90777,15.40459 -15.7849,21.92802 -5.34636,7.15103 -8.36794,12.00904 -7.60943,12.23428 2.97893,0.88446 22.9541,2.78215 42.53384,4.04079 22.38436,1.43893 30.81486,3.23834 35.05984,7.48331 3.07257,3.07258 1.22338,3.81661 -3.24464,1.30539 -14.86898,-8.3568 -41.01611,18.48117 -48.86617,50.15728 -7.53204,30.39303 -19.32961,55.37945 -37.78909,80.03474 -21.55531,28.79021 -23.39969,41.99493 -6.39259,45.76664 0.0977,0.0227 4.8545,-0.87534 10.57061,-1.99348 z m 6.05251,-30.22163 c -3.23227,-3.01131 -2.92642,-8.89501 0.82797,-15.9275 3.17247,-5.9424 10.93873,-15.70156 11.8055,-14.8348 0.27688,0.27704 -1.14896,2.43394 -3.16851,4.79331 -8.73743,10.20775 -11.76354,20.97082 -7.18373,25.55063 2.9684,2.96844 0.86915,3.35342 -2.28123,0.41836 z m 42.09272,-77.47862 c 0,-0.55377 0.47476,-1.00679 1.05507,-1.00679 7.0756,0 28.23757,-21.34854 36.41895,-36.74014 3.88796,-7.31429 5.19493,-7.19807 1.85195,0.16479 -5.96404,13.13552 -20.58267,29.25346 -32.09995,35.39206 -6.54072,3.4862 -7.22602,3.69388 -7.22602,2.19016 z m 63.91343,-75.82708 c -0.61574,-7.39197 -0.43168,-9.00291 1.55661,-13.62483 2.77604,-6.45311 3.42865,-6.26283 1.3842,0.40358 -1.11289,3.62887 -1.35124,7.07898 -0.87547,12.67106 0.40656,4.77763 0.27168,7.9206 -0.35656,8.30887 -0.62642,0.38716 -1.27586,-2.56173 -1.70876,-7.75868 z m -44.46086,-16.76895 c -3.42042,-1.01019 -8.6302,-3.02073 -11.57737,-4.46776 -2.94712,-1.44709 -4.45238,-2.36471 -3.34498,-2.03918 10.47068,3.07772 25.60692,6.49767 29.01145,6.55488 3.27518,0.0552 3.76324,0.26294 2.19708,0.93595 -3.21603,1.38199 -9.57672,0.99771 -16.28618,-0.98389 z m -89.47342,102.52217 c 21.34056,-11.43825 48.98597,-28.04621 50.03852,-30.0607 0.43402,-0.83051 1.99678,-4.68128 3.47282,-8.55719 3.68116,-9.66614 9.64293,-18.35346 20.58264,-29.99222 5.09612,-5.42172 9.0958,-9.99072 8.88824,-10.15332 -0.20753,-0.16241 -8.30528,-0.80798 -17.99504,-1.43425 -9.68972,-0.62627 -22.601,-1.83202 -28.69167,-2.67938 l -11.07403,-1.54079 -9.06055,8.66289 c -26.67892,25.50803 -60.08228,37.34476 -95.63898,33.89042 -11.91315,-1.15733 -10.67788,-1.82434 -19.99601,10.79713 -3.88344,5.26008 -9.9203,12.78625 -13.41524,16.72478 -3.49494,3.93846 -6.35443,7.51877 -6.35443,7.95617 0,0.43745 8.06962,0.50911 17.93248,0.1595 25.12487,-0.89102 40.68513,1.65751 68.72363,11.25596 15.07535,5.16068 12.97061,5.48549 32.58762,-5.02889 z M 333.3256,631.91751 c 33.10705,-6.70473 56.91271,-26.11059 88.6936,-72.30083 15.23908,-22.14848 26.04342,-32.87276 37.05999,-36.78548 11.5208,-4.09182 -23.38495,-21.38588 -43.16449,-21.38588 -0.72121,0 -1.31125,0.87374 -1.31125,1.94168 0,2.30605 -12.66931,27.39671 -19.60728,38.83073 -7.22882,11.91338 -14.75691,21.58557 -22.4468,28.83983 -10.8766,10.26044 -15.01007,12.59147 -6.77217,3.81912 20.86518,-22.21885 47.11954,-65.36552 47.24564,-77.64403 0.0972,-9.45554 -0.15553,-9.35794 -8.41334,3.2493 -24.37397,37.21195 -75.24118,75.4521 -87.99163,66.14892 -1.44115,-1.05151 -0.81226,-1.20183 3.82487,-0.91413 15.63169,0.96979 56.16862,-32.85897 83.51455,-69.69447 l 2.9049,-3.91298 -4.43488,0.63529 c -2.43919,0.34931 -8.73864,0.91098 -13.9988,1.24786 -5.26012,0.33676 -9.8409,0.78053 -10.1795,0.98579 -11.19334,6.78583 -55.99982,-13.34871 -77.28124,-34.72747 -8.75071,-8.79078 -17.3062,-13.47394 -19.86548,-10.87401 -2.40742,2.44555 -3.99368,41.76742 -1.9578,48.53211 0.80071,2.66052 1.05058,4.4314 0.55527,3.93522 -4.71198,-4.72028 -4.98948,-31.96226 -0.52296,-51.3373 0.72806,-3.15822 -4.34184,-5.36374 -6.30798,-2.7441 -5.00815,6.6728 -8.73588,19.08619 -10.34477,34.44837 -2.07301,19.79355 -2.70109,22.12638 -2.83687,10.53662 -0.19986,-17.06016 3.83765,-33.38432 10.6249,-42.95753 l 3.43318,-4.84243 -3.16493,-2.95646 -3.16493,-2.95649 -7.69913,5.48498 c -16.10077,11.47041 -31.54472,34.60051 -36.32874,54.40877 -5.75099,23.81195 -7.50993,38.10449 -6.8275,55.47778 0.51248,13.04665 -0.20784,17.68166 -2.25306,14.49837 -0.97614,-1.5193 -2.24205,-9.69429 -2.44708,-15.80264 -0.16725,-4.98264 -0.72936,-4.25421 -5.39656,6.99388 -2.35292,5.67061 -6.3169,13.4677 -8.80885,17.32681 -6.90704,10.69652 -6.71437,11.24291 6.79483,19.26944 34.26571,20.35899 64.96829,33.28469 87.83688,36.97895 5.9883,0.96741 33.38371,-0.20334 41.03941,-1.75359 z m -4.29392,-9.08459 c 0,-0.18913 5.85329,-4.24264 13.00734,-9.00797 28.17724,-18.7691 42.72701,-32.71526 65.77892,-63.05004 3.15573,-4.15274 6.92691,-8.90952 8.38035,-10.57067 l 2.64265,-3.02017 -1.77498,3.02017 c -17.08291,29.06695 -50.18547,63.01692 -74.301,76.20299 -6.73972,3.68519 -13.73328,6.95741 -13.73328,6.42569 z M 285.32807,603.067 c -7.98278,-1.99709 -21.90622,-10.27229 -27.69775,-16.46182 -3.6323,-3.88182 -1.85194,-3.18171 5.7279,2.25251 23.50228,16.84955 52.45702,15.84238 77.19343,-2.6851 7.74158,-5.79841 8.71673,-5.88882 2.57421,-0.23857 -14.40423,13.24946 -41.3699,21.24297 -57.79779,17.13311 z m -35.54773,-26.36887 c -1.50927,-1.95146 -2.45867,-3.77525 -1.96531,-3.77525 0.24582,0 1.18908,1.13259 2.09608,2.51682 1.69716,2.59022 1.60265,3.49973 -0.13077,1.25843 z m -4.04164,-6.01605 c -12.24258,-15.27098 -14.95231,-59.36521 -4.72103,-76.82357 3.77132,-6.43524 3.81382,-5.27467 0.168,4.58775 -6.02538,16.29944 -4.31303,46.68852 3.74871,66.52864 2.51999,6.20171 2.80137,8.19823 0.80432,5.70718 z m 63.05312,-6.35662 c -4.41293,-2.82204 -8.80836,-8.26111 -12.34718,-15.27886 -3.77984,-7.4956 -3.23353,-9.02069 0.65034,-1.81562 1.78476,3.311 6.08675,8.92582 9.55996,12.4773 7.05422,7.21319 7.41486,7.99247 2.13688,4.61718 z m 16.11013,-26.63023 c -12.57752,-6.64755 -31.89035,-47.54098 -28.85622,-61.10074 0.22488,-1.00508 0.99646,0.87874 1.71461,4.18626 4.57665,21.07821 14.46369,42.32075 24.25453,52.11159 3.74465,3.74473 6.74212,6.78856 6.66099,6.76409 -0.0812,-0.0227 -1.77945,-0.90699 -3.77391,-1.9612 z m 23.25756,-22.67747 c -6.54733,-2.92726 -12.13474,-12.80517 -11.94813,-21.12288 l 0.11289,-5.03366 0.84445,5.76227 c 3.03335,20.69831 17.92058,25.17243 36.65476,11.01595 13.20918,-9.98148 13.86523,-10.20344 5.1741,-1.75047 -11.87662,11.55127 -21.84618,15.14902 -30.83808,11.12879 z M 557.4681,571.7663 c 14.78897,-7.94026 38.37195,-21.76162 65.02432,-38.10903 95.76519,-58.73815 124.75386,-74.66286 145.87711,-80.13642 3.36593,-0.87221 6.5411,-1.84617 7.05589,-2.16434 0.51484,-0.31808 -4.65879,-2.10633 -11.4969,-3.97376 -15.19136,-4.14858 -21.3332,-7.32913 -31.72694,-16.42999 -21.11643,-18.48957 -20.27141,-17.92048 -32.18715,-21.67875 -13.00279,-4.10116 -18.35408,-7.64671 -25.755,-17.0642 l -5.15624,-6.56123 -5.18436,3.74854 c -2.85132,2.06167 -9.83882,7.25952 -15.52774,11.55077 -27.34213,20.62461 -37.89097,26.26233 -64.61786,34.53416 -12.9267,4.00078 -15.77465,4.14636 -21.68436,1.10854 -6.08492,-3.12792 -5.99871,-3.12518 -14.76805,-0.46162 -9.36743,2.84525 -13.94921,2.24675 -27.5145,-3.5942 -13.32644,-5.73812 -29.27156,-11.84826 -36.48299,-13.98022 l -5.27445,-1.5593 -4.20142,7.24132 c -14.78189,25.47728 -37.76642,52.86414 -52.5026,62.55853 -7.40595,4.8721 -7.84356,8.47905 -1.20445,9.92681 25.87172,5.64185 38.35686,10.09245 44.29595,15.79017 1.66111,1.59359 7.37685,5.13705 12.70165,7.87432 5.3248,2.73724 13.25277,7.21956 17.61773,9.9607 4.36492,2.74119 12.26981,7.52382 17.56644,10.62805 18.90378,11.0792 28.42321,20.23059 32.70398,31.43947 2.10417,5.50969 0.85074,5.57506 12.44194,-0.64832 z M 404.53616,477.00864 c 10.24344,-6.11723 21.0683,-12.92422 24.0552,-15.12661 2.98691,-2.20239 5.14628,-3.54404 4.79858,-2.98143 -1.83176,2.96386 -18.83533,16.1463 -28.83075,22.35179 -12.91457,8.0178 -12.19256,9.22153 3.01738,5.0306 17.41635,-4.79887 37.62412,-25.41786 59.07602,-60.27801 l 6.24307,-10.1453 -3.59754,-1.50314 c -1.97863,-0.82671 -3.71411,-1.50317 -3.85652,-1.50317 -0.14244,0 -3.42678,3.96399 -7.29858,8.80889 -11.59672,14.51141 -33.16005,31.46022 -40.02568,31.46022 -0.319,0 3.85648,-3.35557 9.27873,-7.45677 14.44156,-10.92291 37.68489,-33.81905 34.33195,-33.81905 -0.17884,0 -1.84204,-0.43502 -3.696,-0.96678 -3.26518,-0.93641 -3.61234,-0.73827 -11.06734,6.31584 -10.75084,10.17269 -32.07017,28.0224 -36.89152,30.8876 l -4.02689,2.39301 2.01344,-2.33066 c 1.10739,-1.28186 8.3558,-7.77479 16.10762,-14.42873 28.7237,-24.65563 30.02172,-26.18442 24.58667,-28.95723 l -4.10505,-2.09422 -5.82719,6.35234 c -27.90249,30.41711 -91.58851,46.97527 -121.62807,31.62281 -20.93814,-10.70083 -24.38235,-40.36983 -9.39369,-80.9193 4.74058,-12.825 -0.53223,-8.2319 -13.25831,11.54915 -4.58999,7.13454 -12.95408,18.05498 -21.4946,28.06409 -13.89695,16.28653 -7.87273,39.71376 11.66736,45.37267 3.05706,0.88533 10.31505,3.77052 16.12892,6.41148 28.97326,13.16138 45.64164,13.26775 88.0885,0.56214 1.10744,-0.33143 -0.47817,0.57795 -3.52351,2.02105 -10.72219,5.0808 -24.22203,8.65607 -41.27577,10.93136 -8.63191,1.1516 -27.25477,-2.48892 -40.77241,-7.97048 -2.5526,-1.03512 -1.81663,-0.33826 7.04707,6.67224 23.7026,18.74704 42.62349,26.09383 64.93386,25.21315 l 10.57059,-0.41727 z m -49.23055,-0.13243 c -3.20675,-1.21983 -2.63058,-1.34887 9.06052,-2.02857 14.9655,-0.87004 26.57535,-2.76954 31.04031,-5.07848 5.22404,-2.70141 4.60852,-1.13693 -0.68082,1.73053 -8.86901,4.80807 -32.4572,8.02528 -39.42001,5.37652 z m -72.1202,-43.95343 c -3.0907,-5.00081 -0.91992,-23.58261 4.18124,-35.79145 2.43087,-5.81786 2.51674,-3.40845 0.1494,4.19207 -1.73899,5.58314 -2.19,9.59655 -2.22859,19.83153 -0.0452,11.99889 -0.4744,14.4015 -2.10206,11.76785 z m 604.7789,18.69112 c 21.30565,-4.76037 21.24956,-4.74035 76.31169,-27.17419 57.7869,-23.54396 74.0339,-33.55638 87.3339,-53.821 8.8182,-13.43596 18.1134,-26.12287 24.3754,-33.26976 9.0823,-10.36572 14.0477,-17.67371 18.7221,-27.55443 5.9142,-12.50138 7.8922,-19.86411 11.5298,-42.91644 1.0921,-6.92122 3.1503,-18.92641 4.5738,-26.67823 6.9264,-37.71925 7.5816,-45.96254 5.4479,-68.53422 -1.4407,-15.24037 -4.639,-24.80348 -13.1055,-39.18549 -9.36,-15.8997 -19.8252,-37.476056 -25.1474,-51.846405 -13.2202,-35.69614 -52.1127,-79.71170705 -76.8566,-86.9806907 -4.49994,-1.321935 -14.9283,-4.3479233 -23.17417,-6.7244293 -11.22504,-3.235117 -18.41812,-6.076554 -28.62451,-11.30739 -37.5041,-19.221081 -92.29107,-27.122569 -119.97604,-17.303164 -18.783,6.662033 -29.32654,9.504068 -48.70582,13.128809 -29.43584,5.505739 -47.69707,12.934279 -73.53948,29.9152575 -8.63029,5.6709767 -19.52324,12.7680445 -24.20658,15.7712685 -15.76358,10.108554 -37.48656,34.300697 -47.97949,53.433076 -2.88486,5.260146 -6.74727,11.941791 -8.58316,14.8481 -9.57219,15.153418 -13.07435,25.499868 -15.93118,47.065568 -2.19488,16.56842 -3.22375,21.42147 -7.25671,34.22869 -3.54989,11.27319 -4.29043,25.5676 -1.87746,36.24215 0.37546,1.6611 1.80523,7.77698 3.17731,13.59082 1.37202,5.81381 2.92995,14.98762 3.46204,20.38621 0.53211,5.39857 1.40623,14.23256 1.94251,19.63113 1.06236,10.69567 5.12763,22.613 13.17029,38.6091 l 4.24666,8.4462 2.24092,-10.56602 c 1.23255,-5.81134 2.752,-12.6047 3.37661,-15.09633 0.62462,-2.49167 1.38908,-6.23563 1.69884,-8.3199 0.87906,-5.9154 10.98404,-25.21163 15.09114,-28.81769 5.21243,-4.57656 12.557,-3.10857 12.557,2.50982 0,1.19653 0.92103,0.80573 3.55856,-1.51008 13.48612,-11.84097 16.32167,0.46063 5.2576,22.80923 -7.22139,14.58661 -7.07938,15.84852 0.712,6.32519 10.38692,-12.69589 15.32554,-15.54988 19.8393,-11.46499 3.86472,3.49755 -1.14645,16.67195 -10.38965,27.31443 -1.58065,1.81995 -3.95671,5.44417 -5.2801,8.05383 -2.68511,5.29488 -6.63551,9.53712 -6.67302,7.16595 -0.0151,-0.85226 -0.8049,-0.41408 -1.9911,1.10235 -2.73827,3.50071 -2.50535,1.73859 0.36873,-2.79009 1.31023,-2.0645 4.03274,-6.77962 6.04992,-10.47803 2.01722,-3.69842 5.70215,-9.10792 8.18873,-12.02106 3.26627,-3.82648 4.17175,-5.51846 3.2623,-6.09591 -0.69233,-0.43962 -0.79022,-0.80626 -0.21762,-0.81472 1.78029,-0.0266 4.85139,-6.10274 3.67763,-7.27645 -1.88792,-1.88795 -13.94748,9.93022 -22.33671,21.88956 -0.83051,1.18399 -3.452,5.0591 -5.82554,8.61132 -2.84357,4.25565 -4.10336,5.55173 -3.69367,3.79989 0.37364,-1.59724 0.1446,-2.9537 -0.57391,-3.3977 -0.66018,-0.40796 -0.7893,-1.02088 -0.28845,-1.36822 1.72678,-1.19727 5.28539,-8.15581 4.04714,-7.91389 -3.83014,0.74829 -0.10193,-12.12934 5.99574,-20.71067 6.90363,-9.71525 9.82549,-18.38822 6.98817,-20.74298 -1.63131,-1.35388 -2.11093,-0.81115 -12.76158,14.44149 -7.15447,10.24581 -8.97344,14.45891 -8.98327,20.80667 -0.004,2.40461 -0.99956,4.99628 -2.95933,7.7016 -4.1607,5.74373 -6.65735,7.05583 -4.00869,2.10677 0.60031,-1.12166 1.49865,-6.34316 1.99627,-11.60335 0.84283,-8.90841 1.25399,-10.16899 5.99828,-18.38928 5.50537,-9.53916 6.53051,-13.70322 3.80872,-15.47115 -3.59057,-2.33225 -16.53491,19.29159 -17.56185,29.33733 -0.55166,5.39663 -3.19362,15.83126 -4.76041,18.80151 -0.62712,1.18894 -1.0978,9.84648 -1.14933,21.14125 -0.10858,23.80564 -0.41658,24.71306 -10.62921,31.31956 -11.69649,7.56651 -29.2809,15.41901 -40.57927,18.12132 -18.25915,4.36704 -28.87509,7.44382 -38.03898,11.02469 -11.71082,4.57606 -11.89711,4.52515 -24.67209,-6.73764 -15.77863,-13.91091 -22.46403,-18.52395 -36.46732,-25.16339 -14.10578,-6.68797 -13.32956,-6.41576 -12.55719,-4.40308 0.31871,0.83051 0.1482,1.51008 -0.37892,1.51008 -1.80032,0 -4.11705,-3.52205 -8.82406,-13.41524 -9.273,-19.48965 -28.56979,-35.40367 -49.13792,-40.52383 -10.78737,-2.68543 -7.16957,-4.30398 4.58821,-2.0527 14.59259,2.79406 32.10981,14.07869 40.89179,26.34257 l 3.91118,5.46193 0.65749,-4.11162 c 0.79574,-4.97616 4.76879,-16.57035 7.06328,-20.61195 0.97109,-1.71054 1.45376,-2.09534 1.15662,-0.92212 -0.28047,1.1074 -1.65497,6.31721 -3.05439,11.57736 -5.84808,21.98088 -1.76924,29.40522 12.37352,22.52234 6.38505,-3.10746 7.01189,-4.32586 4.7763,-9.28362 -1.76305,-3.90975 -2.35572,-11.16646 -1.08044,-13.22985 0.43735,-0.70769 -0.60018,-2.29815 -2.57427,-3.9462 -4.73825,-3.95565 -5.46326,-12.89916 -1.47623,-18.21064 l 2.64492,-3.52353 -2.31465,-1.48211 c -1.27308,-0.81513 -3.75683,-2.96729 -5.51945,-4.78252 -2.83839,-2.92307 -3.51547,-3.18233 -5.92168,-2.26752 -2.94148,1.1184 -6.08042,0.52436 -8.52541,-1.61336 -1.31286,-1.14792 -3.54906,-0.58822 -14.92368,3.73515 l -13.37947,5.0854 -7.78923,-1.4355 c -47.70887,-8.79224 -84.81172,20.73706 -109.22731,86.93151 -23.75286,64.39748 -6.48031,90.11472 54.24509,80.76587 30.70427,-4.72696 81.75105,-34.37367 70.56505,-40.98245 -6.68991,-3.95246 -27.57638,-20.33763 -34.47981,-27.04908 -7.24015,-7.03869 -8.45427,-7.85203 -10.27039,-6.88007 -2.52993,1.354 -20.95388,7.78598 -27.82829,9.71515 -9.37569,2.63109 -16.18168,3.50843 -20.23195,2.60813 l -3.92947,-0.87357 4.02692,-0.6834 c 10.07764,-1.71012 21.00178,-4.72725 30.71914,-8.48434 5.80614,-2.24485 11.46269,-4.37174 12.57008,-4.72631 3.04178,-0.97407 -1.79909,-3.41571 -7.0471,-3.55442 -6.06027,-0.16018 -8.64996,-1.32545 -6.01791,-2.70788 8.63659,-4.53614 16.97062,-1.85648 28.50935,9.16663 21.33392,20.38054 49.82368,38.25725 71.63747,44.95091 15.14861,4.6484 36.21363,12.56893 47.31618,17.79107 14.56298,6.84974 19.95199,5.89967 49.32959,-8.69689 17.74227,-8.81541 29.0972,-15.97599 43.28919,-27.2989 6.36754,-5.08027 17.01369,-13.32392 23.65809,-18.31917 22.86716,-17.19183 26.86081,-22.39269 32.66228,-42.53568 3.83047,-13.29944 5.52705,-16.00782 14.56003,-23.24286 7.84172,-6.28091 12.67789,-11.86851 12.67789,-14.64779 0,-2.49014 -2.66925,-2.39841 -4.02689,0.13849 -0.59263,1.10739 -1.44747,2.01343 -1.89959,2.01343 -0.45211,0 -4.17365,2.20283 -8.27009,4.89522 -9.93503,6.52975 -21.52946,9.39743 -13.23668,3.27384 1.52265,-1.12435 4.35406,-3.22637 6.29201,-4.67104 13.52877,-10.08569 20.5969,-13.33116 23.93744,-10.99138 6.88734,4.82411 -1.6707,18.47954 -18.21331,29.06173 -5.01928,3.21081 -5.72413,4.06117 -5.72413,6.90581 0,8.14861 -8.01978,28.38085 -13.90817,35.08735 l -3.12282,3.55669 6.25033,10.33353 c 12.39563,20.49319 18.98226,26.70673 32.73668,30.88227 12.20674,3.70568 16.79561,6.25184 25.50932,14.154 20.30789,18.41652 21.51381,19.02442 54.71742,27.58365 12.73509,3.28283 26.55235,6.90301 30.70514,8.04479 19.04356,5.23604 48.99549,4.62343 76.71069,-1.56897 z m -51.03911,-4.50049 c -2.21488,-0.39786 -6.29209,-1.9019 -9.06055,-3.34233 -3.9967,-2.0794 -7.00392,-2.73782 -14.5976,-3.19608 -21.08216,-1.27223 -22.37332,-3.24021 -1.66839,-2.54287 14.3808,0.48432 15.47195,0.66406 18.95478,3.12242 5.93,4.18574 35.64435,4.89329 42.8798,1.02101 1.23798,-0.66257 2.25086,-0.80842 2.25086,-0.32417 0,3.68098 -27.08791,7.35855 -38.7589,5.26194 z m 59.9001,-4.56482 c 8.89667,-1.80029 11.22524,-2.8081 18.52766,-8.019 7.33769,-5.23606 17.36852,-9.93569 25.95644,-12.16099 8.76,-2.26998 8.04861,-1.46077 -3.00703,3.42045 -5.37083,2.37131 -14.20615,6.83491 -19.63397,9.91902 -12.30342,6.99087 -15.88475,8.27851 -22.84978,8.21504 l -5.537,-0.0502 z m -45.9854,-8.8822 c -1.75978,-0.64999 -3.4213,-1.40878 -3.69218,-1.68605 -0.27099,-0.27738 7.05816,-0.50387 16.28697,-0.50338 20.58047,0 22.10252,-0.58633 51.35894,-19.82003 8.99357,-5.91258 18.91393,-10.7126 30.51526,-14.76514 4.79482,-1.67497 11.59019,-4.54161 15.10088,-6.37038 8.17134,-4.25666 8.29961,-4.30833 7.50689,-3.02572 -1.63691,2.64854 -13.9093,8.8444 -26.31409,13.28489 -11.72534,4.19729 -41.90305,20.62124 -48.14581,26.2029 -2.65013,2.36951 15.94133,-3.22526 23.45454,-7.05825 2.35725,-1.20258 3.97784,-1.68795 3.60121,-1.07861 -1.38335,2.23832 -16.61995,9.06105 -22.33157,9.99977 -3.23724,0.53204 -10.41615,2.13047 -15.95308,3.55198 -11.06037,2.83961 -25.54855,3.42491 -31.38796,1.26802 z m -82.47642,-2.01547 c -7.96799,-2.8354 -17.20322,-8.32406 -26.59716,-15.8073 -4.13997,-3.29796 -7.86703,-5.99944 -8.28232,-6.00336 -0.4153,-0.004 -0.75506,-0.50308 -0.75506,-1.1094 0,-1.2793 6.75475,2.49633 16.10758,9.00356 11.14331,7.75293 23.62122,13.4139 31.46452,14.27488 9.20102,1.01001 9.8113,2.00428 1.17024,1.90676 -4.41095,-0.0499 -9.21535,-0.88004 -13.1078,-2.26514 z m 65.54153,-4.75764 c -2.21488,-0.45612 -9.61874,-1.30816 -16.45323,-1.89338 -24.25024,-2.07644 -45.44645,-5.9483 -48.32567,-8.82752 -2.23486,-2.2348 -18.25746,-12.82769 -23.25494,-15.37438 -2.76805,-1.41053 -8.3371,-2.79063 -14.59754,-3.61745 -16.68558,-2.20367 -24.94244,-6.2524 -37.84918,-18.55941 -4.12955,-3.93766 -8.98063,-8.31962 -10.78015,-9.73774 -1.79952,-1.41808 -3.27186,-2.96232 -3.27186,-3.43162 0,-1.63729 7.60776,3.57845 15.2168,10.43234 14.66766,13.21195 25.44321,18.59733 39.1464,19.56454 9.28647,0.65544 16.25949,3.74423 28.03807,12.41981 10.07147,7.41827 15.57733,9.37246 32.36554,11.48745 30.31868,3.81964 43.14511,6.10526 45.07127,8.03135 0.66732,0.66734 0.0563,0.61042 -5.30551,-0.49399 z m 7.18522,-13.20009 c -6.56844,-0.40218 -12.21758,-1.00627 -12.55377,-1.34243 -0.85962,-0.85959 23.82924,-0.44778 28.91569,0.48234 3.66561,0.67032 4.68533,0.41156 8.08615,-2.052 2.14038,-1.5505 6.12476,-3.95064 8.85411,-5.33375 2.72938,-1.38308 9.9126,-6.24074 15.96287,-10.79478 6.05019,-4.55411 14.39803,-9.83602 18.55071,-11.73763 4.15284,-1.90165 11.17474,-5.62565 15.60435,-8.27552 4.42953,-2.64988 10.3618,-5.56847 13.1828,-6.48574 10.57554,-3.43856 26.10864,-18.05961 34.14705,-32.14203 8.27569,-14.49786 12.64158,-20.03849 20.38908,-25.87524 3.72835,-2.80879 8.87893,-7.55124 11.44603,-10.53878 2.5669,-2.98755 4.932,-5.16714 5.2555,-4.84352 0.9624,0.96234 -2.7346,5.47021 -11.02547,13.44388 -12.62344,12.14046 -13.64187,13.42936 -21.5486,27.27101 -5.5369,9.69299 -8.75857,14.18955 -12.08073,16.8612 -2.49166,2.00377 -4.7568,3.89698 -5.03362,4.20724 -5.50083,6.16369 -13.64504,12.04142 -19.28534,13.91842 -3.57785,1.19058 -10.69897,4.65473 -15.82477,7.69802 -9.73043,5.77725 -15.49765,8.52466 -17.89458,8.52466 -0.77862,0 -7.13273,4.09914 -14.12017,9.10928 -6.98747,5.01008 -14.28748,9.77067 -16.2223,10.57905 -1.93481,0.80846 -5.73048,3.05954 -8.43496,5.00248 -5.42615,3.89827 -3.47055,3.72597 -26.37003,2.32384 z m 136.95349,-2.77252 c 13.35957,-6.3945 24.63628,-14.43433 33.23718,-23.69661 4.324,-4.65642 10.9178,-10.77516 14.6532,-13.59717 3.7353,-2.82204 9.8292,-7.94851 13.542,-11.39222 l 6.7505,-6.26126 -3.4261,4.82708 c -3.474,4.89455 -7.7492,8.75844 -18.2177,16.46477 -3.1886,2.34738 -7.6649,6.79567 -9.9471,9.8851 -6.7527,9.14061 -19.86583,18.46402 -33.89499,24.09893 -9.94824,3.99588 -11.36991,3.82267 -2.69699,-0.32878 z m -445.97865,0.87173 c 0.45579,-0.4431 4.59386,-1.76144 9.19566,-2.92966 12.44507,-3.15922 18.18711,-5.55945 27.92512,-11.67319 10.49035,-6.58604 12.07412,-6.56584 3.28387,0.0418 -7.06054,5.30748 -12.96439,8.50414 -20.44813,11.07165 -5.82375,1.99806 -21.18537,4.68388 -19.95652,3.48927 z m 427.17731,-5.18757 c 1.93796,-1.20319 9.39334,-5.99842 16.56756,-10.656 14.34066,-9.31018 15.6497,-8.88097 1.7311,0.56762 -9.42089,6.3954 -19.51264,12.32042 -20.93798,12.29307 -0.48635,-0.008 0.70137,-1.00142 2.63932,-2.20469 z m -600.99492,0.0914 c -2.94102,-1.17341 -6.06106,-3.83083 -6.06106,-5.16234 0,-0.51706 1.39382,0.23248 3.09741,1.66609 1.70357,1.43351 3.85547,2.61327 4.78198,2.62175 0.92649,0.008 2.36405,0.4546 3.1946,0.99131 2.08193,1.34547 -1.56074,1.26054 -5.01293,-0.11682 z m 42.4803,-4.46081 c -8.37626,-1.53036 -13.70015,-4.40511 -15.84716,-8.55702 -2.53442,-4.90103 -1.66757,-4.8805 3.29626,0.078 3.0084,3.00516 6.27545,5.18343 8.80886,5.87323 15.76315,4.2919 16.75652,4.98364 3.74204,2.60579 z m 95.52389,-4.11555 c -5.03851,-1.76413 -11.14633,-5.47464 -11.16494,-6.7827 -0.007,-0.48306 0.55385,-0.4223 1.24599,0.13512 0.69213,0.55727 5.56214,2.63557 10.8223,4.6184 9.62853,3.62949 8.82468,5.43538 -0.90335,2.02929 z m 298.39102,-3.48531 c -4.98332,-1.67261 -12.23177,-3.65303 -16.10766,-4.40094 -6.95518,-1.34222 -6.98454,-1.36112 -2.24788,-1.45077 4.02441,-0.0761 28.10304,6.82424 29.84898,8.55409 1.09676,1.08669 -3.24729,0.0654 -11.49344,-2.70238 z m -36.28302,-4.01967 c -2.15873,-4.78722 -6.76225,-8.96999 -9.87223,-8.96999 -16.74894,0 -39.3967,-12.48769 -44.29092,-24.42141 -5.69842,-13.89459 -7.45008,-18.90946 -6.75496,-19.33902 0.70198,-0.43387 2.18046,2.51531 9.20942,18.37062 5.11099,11.52885 21.10634,20.64359 42.08997,23.98427 5.23371,0.83328 9.49608,4.3665 11.65002,9.6572 2.08118,5.11182 0.24314,5.76184 -2.0313,0.71833 z m 69.00156,1.50745 c -2.49165,-0.8077 -7.02187,-1.94128 -10.06722,-2.51911 -5.74065,-1.08924 -19.12781,-6.68582 -19.12781,-7.99646 0,-0.41073 3.51094,0.73317 7.80212,2.542 7.25155,3.05677 20.8041,6.01716 38.5073,8.4115 l 6.54368,0.88503 -9.56387,0.0727 c -5.83517,0.0445 -11.33019,-0.49971 -14.0942,-1.39576 z m 184.35809,-22.55817 c 11.7329,-15.89169 31.3113,-35.37316 47.3067,-47.07255 7.2921,-5.33368 11.1351,-11.97037 15.8806,-27.42523 0.9969,-3.24652 1.0491,-3.06572 0.6647,2.30058 -0.6427,8.97187 -7.2084,21.80718 -13.2987,25.99739 -9.0205,6.20627 -19.1259,15.34803 -36.4333,32.95897 -9.6056,9.77413 -15.9596,15.73249 -14.12,13.24084 z m -16.2348,-0.81008 c 0,-1.60235 15.2111,-20.87855 24.6648,-31.25653 10.238,-11.23886 14.0196,-14.28074 6.8283,-5.49248 -2.1785,2.66228 -8.2076,10.05026 -13.398,16.41785 -10.561,12.95638 -18.0951,21.42149 -18.0951,20.33116 z m -572.5692,-9.31386 c -2.34975,-0.46355 -5.06791,-1.35116 -6.04036,-1.97244 -1.49211,-0.95319 -1.37522,-1.02438 0.74866,-0.45579 1.38426,0.37058 8.40617,0.94396 15.60428,1.27431 10.83513,0.4973 12.22116,0.72458 8.05381,1.32081 -6.56483,0.93925 -13.0588,0.88021 -18.36639,-0.16702 z m 453.27174,-4.3587 c -3.65707,-1.59384 -6.04743,-4.21054 -4.64062,-5.08002 0.54656,-0.33789 1.36135,-0.0302 1.81062,0.68661 1.44681,2.30372 6.29639,3.7752 12.44172,3.7752 3.32417,0 5.993,0.44832 5.993,1.0067 0,1.46526 -12.03896,1.16553 -15.60472,-0.38849 z M 989.0316,346.3092 c 1.05207,-1.16258 5.53931,-4.53014 9.9716,-7.48352 4.4322,-2.95335 9.6444,-7.04308 11.5822,-9.08826 1.9379,-2.04521 9.866,-9.35295 17.6177,-16.23942 17.6492,-15.67895 17.9353,-16.05598 18.0948,-23.84234 0.3326,-16.23073 5.8707,-30.90715 17.2452,-45.69995 4.3721,-5.68604 9.4077,-12.25495 11.1899,-14.59751 5.8591,-7.70045 6.5808,-11.19199 6.9158,-33.45431 0.1666,-11.07399 0.5188,-22.13591 0.7826,-24.58204 0.2638,-2.44613 0.116,-9.01502 -0.3289,-14.59752 -0.8085,-10.1526 0.175,-21.31434 2.0445,-23.19933 1.0193,-1.02791 1.2138,9.45949 0.9791,52.815 -0.1927,35.63326 0.4208,33.66906 -18.777,60.11054 -8.9592,12.33972 -11.0102,16.36862 -12.4768,24.5092 -0.643,3.56892 -2.086,9.20714 -3.2065,12.52935 -3.5644,10.56678 -3.3527,10.94985 3.2688,5.91415 5.8906,-4.47991 11.9715,-11.12272 16.0119,-17.4915 l 2.2354,-3.52354 -0.6601,3.02018 c -0.9422,4.31115 -4.8124,9.56461 -11.9491,16.22043 -8.3857,7.82046 -33.8429,31.83701 -40.8218,38.51165 -8.2418,7.88247 -12.7022,11.33947 -22.08779,17.11895 -9.25278,5.69773 -10.46721,6.18307 -7.63166,3.04979 z m -347.61869,-1.2347 c -5.61419,-2.05574 -6.20118,-3.76389 -0.72739,-2.1165 2.69311,0.81049 5.34155,1.91864 5.88545,2.46254 1.3248,1.3248 -1.02571,1.16712 -5.15806,-0.3462 z m 112.15621,-6.67921 c -13.18248,-5.77499 -19.26689,-9.81506 -26.97585,-17.91206 -9.53898,-10.01924 -8.76164,-11.22096 1.19785,-1.85174 8.23895,7.75059 15.96868,12.84577 28.3239,18.67028 12.43798,5.86346 10.37003,6.75172 -2.5459,1.09352 z m 154.83355,-5.71628 c 2.21481,-0.82936 8.8862,-2.79756 14.82531,-4.37375 15.79563,-4.19212 17.16707,-5.40346 28.47043,-25.147 10.65343,-18.60827 14.08785,-23.44129 23.27724,-32.75664 4.36966,-4.42957 9.97897,-11.09735 12.46507,-14.81731 4.68816,-7.01468 7.29298,-9.16901 4.45814,-3.68699 -2.9438,5.69266 -8.73411,13.37166 -15.09173,20.01442 -7.40753,7.73967 -11.65341,13.93364 -22.08321,32.2152 -11.96035,20.96459 -14.04302,22.58071 -35.10459,27.24112 -14.70815,3.25461 -17.17822,3.54331 -11.21666,1.31095 z m -556.64813,-6.58308 c -1.13905,-4.05807 6.06113,-18.72277 10.55678,-21.50123 1.42879,-0.88305 1.48017,-0.98148 -4.34541,8.32724 -2.28043,3.64385 -4.24906,8.29047 -4.69186,11.07398 -0.69123,4.3453 -0.83396,4.54258 -1.51951,2.10001 z m 463.52594,1.09191 c -8.82513,-0.8054 -12.26807,-2.53589 -21.15358,-10.63254 -4.15956,-3.79025 -11.73674,-9.60948 -16.83817,-12.93169 -10.73089,-6.98823 -12.09725,-8.97582 -3.03231,-4.41096 8.56662,4.31397 13.35545,7.716 21.90286,15.55991 10.55251,9.68401 12.70307,10.44377 29.69186,10.48894 7.75178,0.0189 14.77376,0.47671 15.60427,1.01346 1.06519,0.68836 -0.41782,1.00055 -5.03361,1.05963 -3.59905,0.0461 -8.35585,0.16626 -10.57066,0.26714 -2.21476,0.10084 -6.97156,-0.0852 -10.57066,-0.41389 z m -160.05405,-7.04886 c -0.008,-0.8832 0.95654,-2.46877 2.1445,-3.52355 2.13203,-1.89303 2.14546,-1.89178 1.04045,0.0955 -2.45066,4.40761 -3.1681,5.1798 -3.18495,3.42789 z M 1016.5733,284.4958 c 3.3535,-5.6825 5.8558,-7.94877 2.9935,-2.71118 -1.3032,2.38475 -3.0446,4.8764 -3.8697,5.53702 -0.8308,0.66509 -0.4398,-0.59599 0.8762,-2.82584 z m 65.4898,-0.18568 c 0,-0.62528 1.4022,-4.23705 3.1162,-8.02613 1.714,-3.78908 5.1057,-12.32557 7.537,-18.96997 4.6611,-12.7374 11.7093,-27.54452 12.2867,-25.81231 0.1882,0.5635 -0.9914,4.11014 -2.6204,7.88142 -1.6292,3.77131 -3.9825,10.0281 -5.2297,13.90401 -3.6161,11.23723 -15.0898,34.826 -15.0898,31.02298 z M 625.97741,267.19924 c -1.7347,-4.51926 -2.31313,-8.38912 -2.53087,-16.93212 l -0.28226,-11.07399 0.94404,9.56389 c 0.51921,5.26015 1.80868,12.72905 2.86551,16.59749 2.39094,8.75211 1.96069,9.54863 -0.99642,1.84473 z m 445.09109,-1.91511 c 0.048,-1.1728 0.2868,-1.41134 0.6083,-0.60823 0.2906,0.7267 0.2547,1.595 -0.08,1.92953 -0.3345,0.33446 -0.5725,-0.26026 -0.5288,-1.3213 z M 725.603,256.57308 c -7.47973,-12.86979 -13.25884,-24.68295 -12.77915,-26.12205 0.36753,-1.10256 7.06639,10.65123 15.74406,27.62447 5.19339,10.15814 3.2354,9.16595 -2.96491,-1.50242 z m 287.423,4.41286 c 0.9599,-1.85644 4.047,-7.27244 6.8603,-12.03551 2.8133,-4.76308 6.642,-11.96493 8.5083,-16.00412 4.0061,-8.67084 4.9579,-9.45838 2.3818,-1.97092 -2.2648,6.58267 -3.8224,9.66941 -10.8579,21.51657 -5.5903,9.4136 -10.4889,15.45045 -6.8925,8.49398 z m 58.0942,-2.66502 c -0.055,-2.76849 0.3386,-5.71317 0.8756,-6.54372 1.242,-1.92189 1.2696,1.69145 0.058,7.55046 l -0.8329,4.02689 z M 632.27058,224.52793 c 0.25137,-15.83182 -0.22621,-19.79932 -5.20285,-43.22157 -2.3559,-11.08816 -2.47121,-14.4619 -0.63647,-18.62443 1.23913,-2.81122 1.29972,-2.56744 0.87551,3.52354 -0.46111,6.62103 0.25387,12.27697 3.05429,24.16143 4.19128,17.78693 4.95198,25.48073 3.69927,37.41609 -1.64842,15.70577 -2.07842,14.92374 -1.78975,-3.25506 z m 460.89852,8.45437 c -0.019,-0.64745 2.9274,-6.98984 6.5444,-14.09417 3.9224,-7.70385 7.1404,-15.55793 7.9738,-19.46069 1.2003,-5.62098 1.4085,-6.00091 1.4774,-2.69433 0.044,2.11718 -1.0856,7.32699 -2.5101,11.57737 -3.3379,9.95927 -13.3858,28.34177 -13.4855,24.67182 z M 665.0425,221.65801 c -3.43645,-3.07044 -4.9881,-15.38804 -2.28101,-18.10768 0.67143,-0.67459 0.89655,1.29006 0.67596,5.89962 -0.3227,6.74423 -0.24084,7.01035 3.38899,11.02833 4.28277,4.74052 3.08658,5.53157 -1.78394,1.17973 z m 37.25184,-18.35076 c -10.18321,-32.80356 0.70693,-65.80237 26.31561,-79.74036 7.03694,-3.82997 7.42856,-2.88471 0.71931,1.73613 -23.26806,16.02529 -33.20224,43.9246 -26.30628,73.87845 2.047,8.89158 1.57697,11.55299 -0.72864,4.12578 z m 331.48106,2.56983 c -0.019,-0.60544 0.8708,-3.73429 1.9782,-6.95301 2.4362,-7.08105 2.5117,-9.70724 0.3961,-13.79821 -2.0055,-3.87822 -1.5457,-11.28495 1.5807,-25.46411 5.8545,-26.55092 1.176,-33.87526 -36.0564,-56.44727 -14.49093,-8.785096 -44.07136,-32.458941 -42.42319,-33.952243 0.69604,-0.630667 17.51426,11.649588 26.33911,19.232159 4.05774,3.486603 11.90805,9.104526 17.44508,12.484294 18.8192,11.48717 31.0171,20.40623 33.971,24.83946 5.1272,7.69474 6.3634,23.18732 2.9429,36.88323 -3.3014,13.21953 -3.4442,15.54022 -1.324,21.50818 1.5221,4.28403 1.7178,6.17305 0.9336,9.01298 -1.1788,4.26939 -5.7326,14.23385 -5.7831,12.65454 z m 63.7946,-12.79562 c 0.3662,-1.55234 0.706,-7.21518 0.7549,-12.58408 0.074,-8.16932 0.2483,-9.18688 1.0686,-6.2381 1.3721,4.93416 0.6227,18.71167 -1.1065,20.3413 -1.1602,1.09336 -1.2757,0.84863 -0.717,-1.51912 z M 635.50183,144.30917 c 13.79168,-18.12628 20.69379,-31.6636 23.63621,-46.358026 3.30054,-16.483041 12.18361,-31.16062 24.48487,-40.456492 5.54267,-4.188522 27.66392,-14.152955 31.10301,-14.010255 1.75933,0.07302 1.28488,0.450792 -1.77979,1.417213 -28.15603,8.878843 -45.39631,26.71768 -50.77364,52.536463 -2.91968,14.018657 -24.18701,51.272087 -29.45759,51.600067 -0.46833,0.0295 0.78578,-2.0989 2.78693,-4.72897 z M 800.17962,91.890668 c 0,-2.104615 23.56493,-12.326914 28.06324,-12.173639 1.94442,0.06625 1.41113,0.429317 -2.02027,1.375238 -2.56422,0.706866 -9.47289,3.583219 -15.35263,6.391891 -5.87968,2.808673 -10.69034,4.791598 -10.69034,4.40651 z M 1058.507,76.004237 c -7.6625,-17.051485 -7.3883,-16.305467 -5.4005,-14.690033 2.9655,2.409846 12.4439,24.058272 11.6181,26.535405 -0.2098,0.628565 -3.0074,-4.701857 -6.2176,-11.845372 z m -36.8753,-16.176789 c -1.369,-0.923176 -7.4751,-6.512292 -13.5691,-12.420264 -9.86636,-9.565039 -11.79963,-10.981213 -17.64818,-12.927488 -9.48594,-3.156722 -13.10544,-6.042172 -21.52468,-17.159493 -9.436,-12.4599302 -13.80657,-16.1995647 -22.42133,-19.1847034 -8.23925,-2.8549832 -11.66899,-4.5055331 -13.80892,-6.645475 -2.19133,-2.1913516 -2.04529,-4.1851686 0.16063,-2.1890756 0.97123,0.8789515 6.92652,3.4158988 13.23409,5.6376676 12.65515,4.4576615 14.72493,5.98638206 24.02041,17.7410974 10.76455,13.612433 14.08978,16.457699 21.87806,18.720249 6.95702,2.021038 7.24611,2.245712 20.68482,16.077826 12.6214,12.990939 15.2038,16.53685 8.9945,12.349659 z m 25.1959,-8.006978 c -2.4915,-4.195895 -7.0219,-9.913043 -10.0672,-12.704768 -5.4813,-5.024783 -4.6049,-5.732901 1.8121,-1.464306 3.2381,2.153926 11.1082,13.524347 13.2013,19.072591 1.913,5.071094 -0.3625,2.81503 -4.9462,-4.903517 z M 705.54735,35.885283 c 0,-0.795862 12.4287,-9.291182 16.86266,-11.52605 7.13853,-3.59805 4.83138,-1.434766 -5.81319,5.450679 -9.80068,6.339568 -11.04947,7.026213 -11.04947,6.075371 z M 756.8904,24.32327 c 7.9214,-6.77529 14.71292,-10.540296 22.82441,-12.653067 3.19655,-0.832596 6.73042,-1.7897729 7.85304,-2.1270693 1.37888,-0.4142777 1.71447,-0.2804787 1.03444,0.4124372 -0.55371,0.5641361 -4.16156,1.9893131 -8.0174,3.1670591 -3.85587,1.17775 -9.74521,3.734441 -13.08746,5.681529 -3.34219,1.947091 -7.66233,4.469779 -9.60033,5.605973 l -3.52355,2.06581 z m 153.77988,-9.014996 c -4.84354,-2.553109 -8.80755,-5.003108 -8.80887,-5.4444549 0,-0.4413392 4.07478,1.3033779 9.05813,3.8771449 4.98323,2.573771 9.06051,5.086745 9.06051,5.584388 0,0.49765 -0.11339,0.841837 -0.25172,0.764874 -0.13833,-0.07695 -4.21459,-2.228848 -9.05805,-4.781952 z m -19.38187,-0.709077 c -3.32225,-1.409643 -8.07058,-3.289308 -10.55199,-4.177032 -5.30559,-1.8980863 -3.77968,-3.005605 1.66518,-1.2086401 4.42322,1.4597971 16.43717,7.0058681 16.43717,7.5879831 0,0.792809 -1.57289,0.334035 -7.55036,-2.202311 z M 804.17126,-5.3988688 c 1.64913,-1.9870941 21.77592,-11.9234222 23.19419,-11.4506602 1.05048,0.350173 -21.9545,12.9182583 -23.64596,12.9182583 -0.42144,0 -0.21804,-0.6604158 0.45177,-1.4675981 z M 587.14309,428.86992 c 21.97492,-6.85474 30.68428,-11.93156 68.92662,-40.17797 5.62234,-4.1527 10.03828,-8.03919 9.81319,-8.63657 -6.07299,-16.11839 -7.1211,-15.85251 -39.86693,10.11354 -24.56774,19.48125 -34.38266,25.91732 -54.74517,35.89876 -16.18573,7.93405 -6.2197,9.69354 15.87229,2.80224 z m -49.23591,-58.99548 3.57164,-1.70319 -13.68985,-14.15271 c -7.52941,-7.78404 -14.21782,-14.72683 -14.86316,-15.42852 -3.09798,-3.36842 -8.68388,-7.28144 -10.3944,-7.28144 -3.04225,0 -6.13412,-2.73874 -7.39089,-6.54686 -2.1211,-6.42702 -4.42504,-3.41568 -5.51483,7.20806 l -0.6034,5.88257 8.73113,5.0336 c 5.38704,3.10567 13.78859,9.54149 21.93575,16.8033 14.8608,13.24584 13.45173,12.45811 18.21801,10.18519 z m -52.28752,-41.12827 c 0.78264,-7.30788 0.31835,-8.57464 -2.30097,-6.27778 -3.19022,2.79749 -8.5378,5.01465 -12.09498,5.01465 -4.72568,0 -2.81993,1.89271 5.29867,5.26242 8.36335,3.47131 8.29403,3.50177 9.09728,-3.99929 z m 33.83652,2.40927 c 1.99353,-1.99358 2.26476,-2.03239 3.39559,-0.48591 1.80053,2.46233 4.44843,0.98536 6.51713,-3.63527 1.754,-3.91772 1.67603,-7.27472 -0.19589,-8.43163 -0.53618,-0.33142 -0.10946,-1.54816 0.96538,-2.75283 1.05949,-1.18742 2.92736,-3.83313 4.15086,-5.87938 l 2.22456,-3.7204 -2.31335,-1.48642 c -2.55196,-1.63977 -12.89648,-3.45342 -11.54452,-2.02405 0.45989,0.48623 3.17807,1.33709 6.04036,1.8908 4.49077,0.86871 6.86582,3.36529 2.6874,2.82488 -5.5633,-0.71959 -15.10088,-3.74368 -15.10088,-4.78812 0,-4.99921 14.74632,-6.39906 20.84644,-1.97888 2.25917,1.637 3.34808,1.84272 5.54181,1.04709 2.87019,-1.04105 4.67945,-3.86345 2.86444,-4.46844 -0.58545,-0.19521 -1.06438,-1.03048 -1.06438,-1.85635 0,-0.87449 -2.52249,-2.58996 -6.04036,-4.10782 -4.35458,-1.87893 -6.04037,-3.14114 -6.04037,-4.52276 0,-2.41932 -1.97614,-1.9384 -11.49679,2.79801 -6.70332,3.33481 -6.87447,3.36715 -4.53026,0.85558 3.26929,-3.50261 9.20681,-6.4411 13.01488,-6.4411 2.01126,0 3.92063,-0.8765 5.40983,-2.48333 l 2.30149,-2.48334 -0.0844,4.1819 -0.0844,4.18191 6.54374,2.30162 c 9.08005,3.19381 9.85896,3.08923 10.57801,-1.42017 0.33108,-2.0764 1.00602,-5.58733 1.49991,-7.80212 0.49385,-2.21482 1.19356,-6.22855 1.55484,-8.91945 0.54387,-4.05081 1.41949,-5.62325 5.08941,-9.13963 4.34313,-4.16147 4.4325,-4.37825 4.4325,-10.75054 0,-4.45891 0.61682,-7.71321 1.96192,-10.3516 l 1.96192,-3.84818 -6.42253,0.68779 c -9.18015,0.98312 -14.78524,-3.56467 -11.63899,-9.44347 l 1.13179,-2.11479 -3.31262,2.0197 c -3.86541,2.35667 -7.30246,2.55947 -10.96737,0.64712 -2.30491,-1.20275 -2.91213,-1.14393 -5.03366,0.48764 -1.32688,1.02044 -3.84237,2.1342 -5.59001,2.47501 -2.61433,0.50974 -3.28817,1.20928 -3.80171,3.94664 -0.95977,5.11606 -4.14374,8.46853 -8.74105,9.20364 -3.27396,0.52357 -4.24049,1.22158 -5.34213,3.85814 -1.49393,3.57556 -5.71961,7.31894 -9.26689,8.20922 -1.27445,0.32 -2.5715,1.38283 -2.8823,2.36219 -0.31083,0.97932 -1.46964,2.59915 -2.57512,3.5996 -1.99357,1.80415 -1.99789,1.79003 -0.52749,-1.72916 0.97297,-2.32852 1.14178,-3.88886 0.4913,-4.53939 -0.54524,-0.54521 -1.08911,-4.50738 -1.20866,-8.80484 -0.38727,-13.92254 -11.47785,-16.44458 -18.88607,-4.29476 -7.6486,12.54411 4.7132,32.01507 15.14522,23.85506 3.39376,-2.65468 4.40237,-2.51565 2.52591,0.34815 -1.81247,2.76617 -5.59115,4.68542 -9.2247,4.68542 -1.94125,0 -2.42572,0.39468 -1.96338,1.59952 0.34061,0.88758 -0.28358,2.74036 -1.40239,4.16268 -2.96405,3.76817 -2.61531,9.15034 0.93553,14.43739 2.07072,3.08323 2.79541,5.17641 2.42809,7.01309 -1.51177,7.55878 5.1232,17.81091 10.72991,16.57947 2.90031,-0.63704 3.0181,-0.52661 3.0181,2.82912 0,5.00639 3.04343,8.5081 6.17379,7.10334 3.2386,-1.45325 4.9002,-0.68519 4.9002,2.26506 0,4.32676 6.67357,5.79414 10.22044,2.24731 z m -6.52915,-5.55163 c -0.92035,-0.92039 -0.85075,-8.16204 0.0839,-8.72685 0.41529,-0.25111 0.83676,1.76096 0.93671,4.47085 0.18746,5.0849 0.1141,5.39074 -1.02062,4.256 z m 12.41632,-9.8995 c -1.02643,-1.23677 -0.95761,-1.51008 0.38004,-1.51008 0.89837,0 1.6334,0.67952 1.6334,1.51008 0,0.83055 -0.17102,1.5101 -0.38015,1.5101 -0.20901,0 -0.94407,-0.67955 -1.63333,-1.5101 z m -26.15215,-7.99395 c -0.71417,-1.87844 -0.71514,-3.26342 -0.004,-4.41818 0.80676,-1.30833 0.9878,-1.34653 0.81478,-0.17197 -0.12235,0.83055 0.13428,2.56353 0.57021,3.8511 1.13294,3.346 -0.13327,4.02322 -1.38187,0.73902 z m -8.52283,-0.78721 c -1.80998,-2.58413 -2.08956,-8.39487 -0.45264,-9.40657 0.74109,-0.45797 0.89873,-0.008 0.47046,1.34072 -0.35425,1.11623 -0.004,3.89113 0.78115,6.16639 1.61708,4.69368 1.44492,5.10302 -0.79897,1.89946 z m 50.97884,-10.34663 c 0.0204,-1.66109 0.2462,-2.21873 0.50139,-1.23923 0.25527,0.9795 0.23849,2.33856 -0.037,3.02016 -0.27575,0.68161 -0.48461,-0.11984 -0.4641,-1.78093 z m -49.92151,-6.1227 c -0.95521,-2.4892 -0.71721,-7.28366 0.39564,-7.97149 0.59745,-0.36907 1.00674,0.80107 1.00674,2.87846 0,1.92533 0.275,4.21721 0.61107,5.09303 0.33608,0.87583 0.15802,1.59242 -0.39564,1.59242 -0.55368,0 -1.28171,-0.71659 -1.61781,-1.59242 z m 14.48985,-4.21839 c 0,-0.66249 1.34578,-2.68398 2.99065,-4.49225 3.88846,-4.2747 3.87848,-2.33962 -0.0113,2.21123 -1.63862,1.91703 -2.97928,2.9435 -2.97928,2.28102 z m 32.21523,-1.26943 c 0,-1.04151 4.83671,-2.51277 5.63528,-1.71423 0.27931,0.27929 -0.87436,0.98971 -2.56371,1.57864 -1.79373,0.6253 -3.07157,0.6817 -3.07157,0.13546 z m -37.26952,-6.51055 c -0.55108,-2.74349 0.40782,-6.26489 2.24638,-8.24933 1.72449,-1.8613 1.93503,-2.97044 1.33773,-7.0471 -0.52152,-3.55892 -0.41121,-4.54896 0.41716,-3.74449 2.32999,2.26277 2.48163,8.39326 0.26653,10.77516 -1.1383,1.22397 -2.51869,3.811 -3.06754,5.74893 -0.54895,1.93794 -1.08903,3.07051 -1.20026,2.51683 z m 33.24263,-12.08072 c -1.0432,-1.25692 -0.91474,-1.51008 0.76606,-1.51008 2.43955,0 3.61363,-3.48756 1.70682,-5.07008 -0.74036,-0.61446 -2.16592,-1.03198 -3.16789,-0.92779 -6.54362,0.68021 -8.47484,-1.11901 -3.1817,-2.96418 4.66339,-1.62566 8.49806,-1.35646 12.93723,0.90824 8.89018,4.53543 9.33138,-1.73483 0.53302,-7.57485 -6.38624,-4.23894 -6.26385,-4.2338 -11.44725,-0.47897 -4.7685,3.45428 -5.19339,3.57901 -5.19339,1.52438 0,-2.38856 7.5098,-6.84986 10.2516,-6.09013 15.16412,4.20184 21.25307,19.66665 7.74333,19.66665 -1.02862,0 -2.4361,0.90606 -3.12766,2.01346 -1.49484,2.39361 -6.01022,2.68423 -7.82017,0.50335 z m -49.20248,-9.32634 c -0.6424,-1.20035 -0.48548,-2.88169 0.48426,-5.18802 1.6316,-3.88044 -0.12177,-7.13024 -3.84701,-7.13024 -1.05424,0 -1.63688,-0.45302 -1.29467,-1.00671 2.97547,-4.8144 10.76092,1.83524 8.72869,7.45527 -1.60064,4.4264 -1.50074,4.9446 0.83522,4.33372 2.57388,-0.67311 2.61988,0.90306 0.0662,2.26972 -2.74859,1.471 -3.88225,1.30373 -4.97273,-0.73374 z m -17.77519,4.8862 c 1.7103,-0.66849 1.99752,-1.80134 2.08786,-8.23476 0.19074,-13.58434 7.25036,-21.05042 19.90434,-21.05042 5.64013,0 9.07435,-5.16221 9.59784,-14.42719 0.35728,-6.322 0.55278,-6.89152 1.78674,-5.204 3.3424,4.57101 0.99743,14.48084 -4.37484,18.48807 -1.53821,1.14734 -2.23961,2.10041 -1.55876,2.11795 2.52166,0.0651 5.49696,8.02567 5.13984,13.75204 -0.3855,6.18167 0.93164,6.96743 5.56715,3.32115 3.09535,-2.43482 3.48747,-6.46628 1.08144,-11.11905 -1.69883,-3.28512 1.91416,-2.5707 3.88631,0.76845 3.97888,6.73693 12.73262,-3.41707 9.73737,-11.29503 -1.42458,-3.74701 -0.49295,-4.21342 3.1041,-1.55399 5.25627,3.88612 10.52591,0.52996 10.48463,-6.67746 -0.0166,-2.90691 0.27878,-5.28529 0.65652,-5.28529 0.9468,0 2.89732,5.83134 2.89732,8.66176 0,2.83546 4.98709,4.15231 9.3882,2.47901 1.55294,-0.59041 3.89888,-1.0735 5.21315,-1.0735 5.53106,0 3.88825,-12.77496 -1.9465,-15.13642 -1.88731,-0.76389 -1.82636,-0.84961 0.64503,-0.90741 6.1842,-0.14458 9.42197,7.99215 5.91535,14.86575 -4.18385,8.20096 -1.80323,10.66052 9.34095,9.65065 8.83807,-0.80091 9.71286,-0.086 7.21415,5.89417 -1.99008,4.76292 -1.95016,5.02806 0.52899,3.51117 6.01543,-3.68061 8.61065,-17.31294 4.00918,-21.05949 -1.5855,-1.29087 -2.05294,-2.85573 -2.05294,-6.87284 0,-5.91008 -0.62529,-6.70277 -12.58679,-15.95538 -5.89911,-4.56318 -7.46334,-5.31133 -10.39052,-4.9696 -2.95346,0.3448 -4.18359,-0.2634 -8.60706,-4.25524 -8.41649,-7.59524 -18.68501,-9.75078 -26.68869,-5.60238 -3.2244,1.67124 -3.69766,1.67405 -8.8532,0.0524 -7.36829,-2.3176 -13.09632,-1.38275 -18.96214,3.09474 -2.49389,1.90365 -5.63356,3.46117 -6.97697,3.46117 -9.15243,0 -17.60331,9.75961 -17.65239,20.38621 -0.0201,4.38315 -0.22561,4.78198 -2.46169,4.78198 -6.00411,0 -11.65463,8.48678 -11.65463,17.5046 0,5.10381 -0.3205,5.92636 -3.4713,8.90842 -6.63328,6.27806 -3.36641,20.80506 3.81444,16.96194 2.90775,-1.55614 5.99286,-8.2113 5.00269,-10.79163 -0.40488,-1.05504 -0.25489,-1.45828 0.39334,-1.05759 0.57628,0.35615 1.27441,3.00656 1.55143,5.88984 0.68818,7.16172 4.03149,10.03251 9.29006,7.97723 z m -6.01003,-24.75851 c 0,-3.59776 0.28089,-6.54112 0.62422,-6.54078 1.32877,9.6e-4 3.24071,9.30166 2.23878,10.89007 -2.04597,3.24353 -2.863,2.00235 -2.863,-4.34929 z m 43.49408,-7.59665 c 8.50623,-1.68031 15.51602,-10.99467 10.11411,-13.43935 -0.6921,-0.31315 -0.40088,-0.46424 0.64714,-0.3356 9.53528,1.17059 1.01587,14.91191 -9.12688,14.72117 l -5.86609,-0.11035 z m -37.90456,-5.71694 c -0.81581,-0.32152 0.91238,-1.18072 3.92527,-1.95175 6.26125,-1.60238 7.57168,-1.15351 3.21286,1.10054 -3.18278,1.64587 -4.6704,1.82326 -7.13813,0.85121 z m 96.94547,-2.54677 c 0.35524,-1.41536 0.87525,-3.18181 1.15554,-3.92537 0.92574,-2.45568 -3.35355,-7.75894 -8.76491,-10.86222 -5.10608,-2.92823 -5.19882,-3.05529 -2.23631,-3.06434 6.79919,-0.0212 14.80147,10.58402 12.51823,16.58941 -1.32149,3.47582 -3.48449,4.49764 -2.67255,1.26252 z m -38.21223,-4.77392 c 0.49303,-3.54016 0.19193,-5.24535 -1.37765,-7.80213 -1.6122,-2.62621 -1.71807,-3.27187 -0.53646,-3.27187 4.0907,0 6.00655,11.14501 2.48702,14.46775 -0.92848,0.87654 -1.05953,0.10045 -0.57291,-3.39375 z m -44.63949,-9.6113 c -3.0167,-0.73413 -5.91812,-1.06708 -6.44757,-0.73983 -0.5295,0.32723 -0.63943,0.0719 -0.24435,-0.56732 1.00214,-1.62153 6.18259,-1.45043 9.6006,0.3171 2.76843,1.43161 2.89941,1.38607 4.05783,-1.41065 2.58721,-6.24599 7.89771,-9.07364 15.12941,-8.05582 4.25593,0.599 4.31361,0.64677 0.95212,0.78882 -4.72125,0.19949 -12.77778,5.32808 -13.61592,8.66754 -0.71938,2.86622 -1.44719,2.94338 -9.43211,1.00016 z m 52.80107,-8.63728 c -2.38893,-1.57702 -4.28274,-1.91342 -9.06055,-1.60941 -5.65655,0.35992 -5.84847,0.30225 -3.02018,-0.90743 5.88509,-2.51712 14.43411,-0.85037 15.95403,3.11046 0.76842,2.00244 -0.15519,1.86088 -3.8733,-0.59362 z M 35.285863,867.33536 c 4.309871,-2.33912 22.543453,-9.27353 26.184313,-9.95819 l 3.295854,-0.61969 -3.52354,1.62591 c -4.568776,2.10819 -27.061874,10.52924 -27.984041,10.4767 -0.389216,-0.0227 0.523124,-0.70828 2.027414,-1.52473 z M 6.8792746,863.90835 c 3.094148,-2.60712 21.1097954,-11.48262 21.8351994,-10.75722 0.288756,0.28876 -4.619263,3.15299 -10.906771,6.3648 -13.4397732,6.86551 -14.249915,7.19108 -10.9284284,4.39242 z M 343.12586,855.48026 c 0,-0.71758 8.98709,-6.73629 11.46596,-7.67875 5.02539,-1.91063 2.5877,0.80187 -3.95021,4.39552 -6.34354,3.48684 -7.51575,3.99896 -7.51575,3.28323 z m 127.85424,-3.45747 c 0,-1.01159 4.4428,-5.23661 8.02615,-7.63279 3.67702,-2.45878 6.18895,-2.12266 3.04784,0.40788 -5.39128,4.34325 -11.07399,8.05081 -11.07399,7.22491 z m -99.94775,-4.37957 c 1.78294,-1.89267 4.72758,-4.30197 6.54375,-5.354 l 3.30201,-1.91286 -2.01349,2.29852 c -1.10739,1.26414 -4.05207,3.67344 -6.5437,5.35405 l -4.53029,3.05548 z m 121.08899,-3.87533 c 5.59223,-4.9832 11.57223,-8.51343 17.11275,-10.10245 3.94236,-1.13061 3.84037,-0.47029 -0.25009,1.61907 -1.79948,0.91918 -7.23342,4.3285 -12.07533,7.57633 -10.70042,7.17751 -12.12759,7.44786 -4.78734,0.90705 z m -291.44725,-5.58626 c 7.36661,-6.80757 23.83073,-16.76028 25.29809,-15.29287 0.30255,0.30236 -15.41962,10.58778 -25.80146,16.87899 l -3.52354,2.1352 z m -36.24214,1.00218 c 4.76672,-3.91752 22.58598,-11.63263 26.58416,-11.51002 0.88229,0.0265 -1.11399,1.10763 -4.4362,2.40117 -3.32219,1.29351 -9.66456,4.08057 -14.09416,6.19344 -9.98915,4.76466 -10.55169,4.9683 -8.0538,2.91541 z m 57.49664,-3.60813 c 5.31113,-4.23805 14.28035,-8.66804 21.19788,-10.46978 5.43973,-1.4169 8.80262,-1.3197 4.75617,0.1372 -8.01017,2.88446 -13.09665,5.12784 -20.39227,8.99384 -9.98741,5.29243 -10.74553,5.47487 -5.56178,1.33844 z m 18.51119,1.76705 c 0,-1.70423 24.69469,-13.5473 25.84653,-12.39549 0.43785,0.43786 -20.31605,11.1501 -23.58139,12.1717 -1.24583,0.38975 -2.26514,0.49043 -2.26514,0.22375 z m -97.09876,-4.52122 c 2.35034,-2.07289 15.4543,-10.24249 17.95218,-11.19217 4.91539,-1.86882 5.15325,-1.12157 0.56734,1.78235 -10.32237,6.53643 -21.97441,12.45687 -18.51952,9.40982 z m 504.50296,-6.36239 c 5.94255,-5.14321 11.68424,-7.84376 16.7387,-7.8729 2.3697,-0.0151 3.58982,-0.41821 3.19382,-1.05895 -0.93524,-1.51321 3.90126,-9.25999 8.06197,-12.91306 13.83728,-12.14936 37.55135,-11.55874 40.31053,1.00392 0.74044,3.371 0.47453,3.28256 4.13247,1.3748 7.09375,-3.69966 16.47436,-0.87299 16.47436,4.96415 0,2.24387 0.32269,2.41512 3.77523,2.00432 2.0764,-0.2468 3.09571,-0.16365 2.26514,0.18595 -0.83056,0.34923 -4.57659,1.95916 -8.3245,3.57751 -7.60762,3.28475 -21.26191,4.4456 -24.14533,2.05255 -1.19471,-0.9916 -2.42602,-0.69381 -6.401,1.54802 -6.31688,3.56258 -20.19329,3.95323 -30.34313,0.85417 -8.1146,-2.47767 -14.39641,-1.24947 -22.80762,4.4592 -7.66309,5.20094 -9.04919,5.11605 -2.93064,-0.17952 z m 55.56605,-7.62829 c 7.73087,-3.91147 11.13213,-9.14264 8.93715,-13.74558 -5.22836,-10.96395 -29.42089,-7.28076 -38.90296,5.92275 l -3.39213,4.72354 2.02195,2.02193 c 4.71556,4.71561 22.90889,5.34112 31.33599,1.07736 z m 25.61605,-1.87147 c 3.70009,-1.26074 4.70956,-2.08071 4.70956,-3.82553 0,-7.24728 -14.02069,-5.76404 -21.58125,2.28314 l -2.95686,3.1471 h 7.55949 c 4.27677,0 9.60455,-0.69683 12.26906,-1.60471 z m -557.0437,9.85391 c 0,-2.30132 10.47386,-10.2206 17.50208,-13.23326 6.1875,-2.65225 5.8731,-1.29226 -0.57037,2.46723 -2.84698,1.66111 -7.82128,4.94465 -11.05402,7.29668 -3.23272,2.35212 -5.87769,3.91333 -5.87769,3.46935 z m 226.01526,-25.24638 c 1.43396,-1.46468 24.73849,-11.94652 28.26858,-12.71459 1.61415,-0.35112 -2.04855,1.70834 -8.13926,4.57667 -13.08186,6.16062 -21.54219,9.58102 -20.12932,8.13792 z m 31.20331,-8.6036 c 4.15716,-2.68433 14.56484,-6.98271 15.24946,-6.29809 0.35986,0.35981 -14.39529,7.35292 -17.76627,8.42018 -0.83055,0.26306 0.302,-0.69203 2.51681,-2.12209 z m -401.160252,-6.4156 c -1.37314,-0.93989 -3.798463,-3.18123 -5.389569,-4.98081 -1.953864,-2.2097 -3.799559,-3.27182 -5.685618,-3.27182 -1.535925,0 -3.381392,-0.70946 -4.100977,-1.57648 -3.7774484,-4.55157 -9.1514074,-5.41312 -15.2835396,-2.4505 -2.2920188,1.10748 -4.3087747,2.01351 -4.4816125,2.01351 -0.1727244,0 -0.3144567,-1.60808 -0.3144567,-3.57354 0,-9.80531 -6.6096752,-13.26327 -18.9081442,-9.89205 -2.192013,0.60091 -2.266659,0.43918 -1.631509,-3.53295 1.991887,-12.45641 -15.906406,-16.85869 -31.839949,-7.83129 -9.031408,5.1168 -9.090671,3.93078 -0.106961,-2.13725 14.679496,-9.91517 39.793322,-3.12102 34.96577,9.4594 -0.428221,1.11583 0.048,1.26104 2.194885,0.66928 8.277052,-2.28155 15.6559366,1.19255 17.546494,8.26114 l 1.1591811,4.33414 3.74418891,-1.3211 c 4.49487869,-1.58585 11.53617599,-0.2109 13.00867999,2.54082 0.515225,0.96273 2.648844,2.02164 4.750337,2.35767 3.048454,0.48749 4.88829,1.82937 9.156472,6.67828 5.407181,6.14286 5.755389,7.36085 1.216026,4.25355 z M 787.09219,784.5442 c 0,-1.56415 8.86884,-9.09309 14.5975,-12.39205 5.75199,-3.31241 9.89098,-4.02228 4.5303,-0.77699 -2.94512,1.78291 -7.05634,4.82793 -17.86942,13.23511 -0.82681,0.64282 -1.25838,0.62018 -1.25838,-0.0661 z m 189.6979,-8.18955 c 5.97755,-6.23921 25.12191,-10.6721 30.03661,-6.95501 1.5261,1.15415 0.4552,1.35175 -7.55039,1.3929 -9.93044,0.051 -17.74499,2.44657 -21.49376,6.58885 -0.9558,1.05623 -2.20546,1.92038 -2.77693,1.92038 -0.5715,0 0.23169,-1.32623 1.78447,-2.94712 z m -132.28339,-9.8394 c 0.10167,-2.62885 16.71084,-12.39375 21.0291,-12.36344 2.19795,0.0151 1.80046,0.45801 -2.58138,2.87422 -2.84859,1.57077 -8.17164,4.52942 -11.82901,6.57479 -3.65741,2.04533 -6.63583,3.35683 -6.61871,2.91443 z m -537.87623,-8.20766 c 5.88308,-5.73687 12.41176,-10.24716 12.2725,-8.47842 -0.0628,0.79812 -12.34864,10.74319 -16.34851,13.23371 -1.21796,0.75836 0.61624,-1.38149 4.07601,-4.75529 z m 314.35184,4.93992 c 0,-1.12339 8.38182,-8.02802 13.59083,-11.19549 5.60524,-3.40845 15.05635,-3.35822 22.14798,0.11755 4.18992,2.05368 4.64471,2.5223 2.71309,2.79617 -1.27632,0.18103 -2.86193,-0.10848 -3.52355,-0.64298 -6.46752,-5.22531 -17.63322,-3.2934 -28.49904,4.93092 -3.53613,2.67648 -6.42931,4.47364 -6.42931,3.99364 z m -304.22127,-3.70174 c 1.97683,-3.64812 11.68031,-11.37169 12.83548,-10.21648 0.27614,0.27628 -2.72918,3.1127 -6.67841,6.30361 -3.94927,3.19079 -6.71991,4.95163 -6.15707,3.91287 z m 558.4197,-0.88078 c 3.93139,-3.43964 12.66856,-8.54295 14.59748,-8.52647 2.28563,0.0189 -2.42797,3.39084 -10.57054,7.56031 -6.3382,3.24551 -6.74329,3.34261 -4.02694,0.96616 z m -545.14236,-0.41878 c 0,-2.21457 17.42789,-15.20863 18.69659,-13.93999 0.21354,0.21354 -3.90579,3.66679 -9.15412,7.67369 -5.24834,4.0069 -9.54247,6.82677 -9.54247,6.2663 z M 68.281773,751.60883 c -6.424293,-6.54587 -14.069397,-8.68535 -18.076754,-5.05874 -2.170545,1.96433 -4.063408,1.97968 -4.063408,0.034 0,-6.49099 -12.011187,-7.67512 -19.540082,-1.92638 -5.834607,4.45504 -7.172107,4.02546 -7.951332,-2.55391 -0.701178,-5.9204 -5.271458,-15.12351 -8.263181,-16.63948 -1.1160564,-0.56553 -3.6504564,-2.27403 -5.631987,-3.79665 -4.58434012,-3.52278 -5.02340783,-3.48801 -9.522255,0.75496 -4.0621606,3.83112 -6.0768,4.54077 -5.0017133,1.76179 1.9594204,-5.06479 1.7254299,-7.18049 -1.2768757,-11.54415 -5.127836,-7.453 -12.31166,-11.38824 -16.245732,-8.89912 -1.10623,0.69993 -1.860435,0.008 -3.165694,-2.90842 -3.840945,-8.57912 -18.306595,-15.20769 -17.14594,-7.85685 0.312189,1.97794 -1.785222,0.42849 -2.827956,-2.0889 -2.202898,-5.31825 -9.279156,-11.93965 -14.167181,-13.25643 -7.898154,-2.12761 -9.102425,-3.12427 -3.112932,-2.57613 5.818053,0.53242 11.687773,3.67276 16.200377,8.66729 1.886892,2.08834 3.712139,2.90253 7.292334,3.25281 5.623106,0.55023 10.730835,4.03983 14.384428,9.82753 1.666318,2.63962 2.973279,3.72529 4.00698,3.32867 5.678702,-2.17917 19.6189601,10.11008 19.6189601,17.29538 0,2.47941 0.098646,2.52476 2.2374425,1.02671 3.30716217,-2.3164 6.0962645,-1.92473 10.3466455,1.45304 2.0901921,1.66114 4.3945699,3.02018 5.1208059,3.02018 3.165997,0 10.483427,13.71012 10.483427,19.64198 0,2.34629 1.435087,3.47433 2.181241,1.71458 2.62439,-6.18932 16.737864,-7.58922 22.483577,-2.23015 1.752454,1.63453 2.552656,1.73348 6.173216,0.76343 5.706342,-1.52897 14.339966,2.51928 18.110234,8.49176 3.491705,5.53127 2.586712,5.63456 -2.646645,0.30199 z m 432.900117,2.1176 c 0,-0.731 16.95736,-11.05708 23.97561,-14.59986 13.8414,-6.98718 2.51031,0.86267 -14.16,9.8095 -5.39858,2.89742 -9.81561,5.05304 -9.81561,4.79036 z m -19.63116,-2.17663 c 6.1123,-4.87382 36.78774,-17.8441 38.39681,-16.235 0.15999,0.15987 -5.24266,2.58898 -12.00588,5.39781 -6.76318,2.80883 -15.92101,6.75753 -20.35057,8.77485 -4.4296,2.01729 -7.14776,2.94535 -6.04036,2.06234 z m -10.57063,-2.84292 c 0,-0.82296 12.06593,-9.13833 18.4186,-12.69336 10.28217,-5.75406 7.18627,-2.54063 -4.5515,4.72434 -14.05302,8.69794 -13.8671,8.59105 -13.8671,7.96902 z m -8.77569,-3.64181 c 3.15331,-2.48035 12.75378,-7.02277 14.81605,-7.01015 1.23001,0.008 -15.71251,9.0028 -16.99843,9.02491 -0.21309,0.004 0.769,-0.90293 2.18238,-2.01476 z m 645.02679,0.0797 c 0,-1.97125 8.5883,-8.12772 14.9547,-10.72014 6.2966,-2.56406 11.4451,-3.25311 25.8177,-3.45528 2.5126,-0.034 3.3239,-0.70163 4.8269,-3.96385 2.5657,-5.56883 14.399,-16.3536 22.0026,-20.05312 5.6942,-2.77031 31.6167,-8.97173 32.7531,-7.83533 0.7165,0.71648 -5.2045,2.61618 -13.1603,4.22245 -15.8609,3.20224 -24.2554,7.87642 -34.946,19.45863 -8.346,9.04187 -7.4935,10.00025 5.4721,6.15122 6.279,-1.86403 16.217,-2.52881 11.7434,-0.78558 -11.081,4.31788 -15.9564,5.14553 -31.2085,5.29777 -17.4714,0.17423 -24.4783,2.0883 -33.8582,9.24812 -2.4186,1.84619 -4.3975,2.94198 -4.3975,2.43511 z m -83.1145,-22.70642 c -0.9579,-2.01872 -4.843,-6.47247 -8.6334,-9.89737 -7.8489,-7.09183 -8.7625,-8.90638 -2.7959,-5.55292 5.6347,3.16687 11.6227,9.90769 12.8952,14.51652 1.3961,5.05599 0.7005,5.49907 -1.4659,0.93377 z m 4.5828,-5.06475 c -3.4497,-7.12626 -3.8527,-15.58159 -0.8615,-18.07994 1.3082,-1.09273 1.8123,-1.34192 1.1202,-0.55374 -2.1139,2.40722 -0.7985,10.69815 3.4565,21.78652 1.3542,3.5288 -1.7599,0.88608 -3.7152,-3.15284 z m 7.1287,-1.67422 c -0.087,-3.15235 5.2941,-13.87619 10.5692,-21.06244 5.3684,-7.31315 5.3349,-5.33884 -0.06,3.5486 -2.5614,4.21947 -5.957,10.49269 -7.5457,13.94045 -2.3162,5.02624 -2.9035,5.73453 -2.9633,3.57339 z m 8.0087,-0.57418 c -0.047,-1.99764 6.7266,-10.86709 10.4931,-13.73983 6.6097,-5.04159 5.692,-3.63519 -7.7246,11.83717 -1.5064,1.7373 -2.7522,2.59348 -2.7685,1.90266 z M 883.23457,696.30936 c 4.62482,-2.99562 11.94811,-5.43292 18.92576,-6.29892 4.06708,-0.50472 5.07935,-1.07849 6.39666,-3.62597 4.29253,-8.30086 14.82032,-13.96478 27.00737,-14.5299 9.53095,-0.44194 8.49003,1.18326 -1.29536,2.0225 -8.01373,0.68727 -15.41548,4.24747 -21.294,10.24226 l -4.48816,4.577 3.48144,0.0865 3.48151,0.0866 -3.02018,0.92583 c -1.6611,0.50921 -6.19136,1.42696 -10.0673,2.03939 -3.87591,0.61251 -9.7652,2.13204 -13.08737,3.37675 -3.32224,1.24475 -6.94643,2.58784 -8.05387,2.98473 -1.10736,0.39685 -0.20107,-0.45218 2.0135,-1.88678 z M 544.47111,681.80248 c 0,-1.39782 11.37419,-11.81685 14.87852,-13.62906 5.19044,-2.68403 3.67228,-0.63152 -5.31352,7.18379 -8.34082,7.25439 -9.565,8.07927 -9.565,6.44527 z M 33.054166,671.95212 c -9.954936,-2.62583 -30.7323968,-9.7564 -29.5641827,-10.1461 0.8531906,-0.2846 29.7681257,8.48069 37.1146197,11.25101 2.533947,0.9555 -2.571515,0.20863 -7.550437,-1.10491 z m 535.065664,-1.36157 c 1.99651,-3.23037 20.64728,-14.33624 20.64728,-12.29473 0,0.76543 -19.35559,13.28636 -20.53883,13.28636 -0.39669,0 -0.44548,-0.44621 -0.10844,-0.99163 z M 86.914012,666.55579 c -18.67452,-2.78805 -30.345244,-6.01134 -47.414089,-13.09523 -19.860094,-8.24232 -18.215433,-9.00201 2.410507,-1.11345 17.915274,6.85179 28.443836,9.82873 43.457075,12.28739 6.901213,1.13019 13.243593,2.46248 14.094172,2.96054 1.929293,1.12985 2.046383,1.13961 -12.547665,-1.03925 z m 671.989828,0.11376 c 1.38424,-1.14399 6.36755,-3.62948 11.074,-5.52325 l 8.55717,-3.44323 0.59712,-5.39278 c 0.86264,-7.79028 3.15157,-11.47819 9.26584,-14.92879 4.95202,-2.79477 8.87675,-7.06019 15.61032,-16.96531 5.33612,-7.84949 11.82563,-12.23 26.5317,-17.90952 16.06408,-6.20397 27.10064,-6.37987 38.83744,-0.619 l 5.80331,2.84849 1.81913,7.28829 c 1.80994,7.25161 1.80827,7.30582 -0.33374,10.77175 -2.62178,4.2421 -4.66106,4.65758 -2.5178,0.51296 1.61623,-3.12537 0.11905,-12.5087 -2.49891,-15.66333 -2.09587,-2.5254 -11.11287,-5.55722 -18.34621,-6.16868 -13.97261,-1.18109 -40.07856,10.9274 -46.98631,21.79333 -4.91396,7.72978 -10.16284,13.4527 -14.69007,16.017 -6.52214,3.6943 -8.16722,5.6236 -9.70838,11.38594 -1.70753,6.38404 -1.511,6.445 10.92034,3.38604 14.28632,-3.5153 14.25074,-3.51027 18.91823,-2.66661 l 4.0269,0.7279 -5.03365,0.67956 c -10.7063,1.44544 -36.32059,8.86231 -52.34972,15.15836 -1.58241,0.62154 -1.47461,0.34545 0.50334,-1.28912 z m -11.28956,-4.81406 c 9.741,-4.71012 17.64228,-6.36287 23.02909,-4.81712 2.35953,0.6771 1.54109,0.94435 -4.69245,1.53245 -5.22129,0.49254 -10.18074,1.83292 -16.07705,4.34502 -11.96051,5.09586 -13.49854,4.37401 -2.25959,-1.06035 z m 65.77704,-1.70082 c -1.39373,-1.67932 2.35767,-7.16176 9.18089,-13.41725 16.35217,-14.99169 48.87799,-14.13434 33.22904,0.87583 -9.06251,8.69257 -38.40325,17.36916 -42.40993,12.54142 z m 20.01026,-4.34646 c 16.15389,-4.54337 27.15326,-11.84591 22.87653,-15.18773 -6.2745,-4.9028 -25.91848,0.99009 -35.07016,10.52058 -8.76767,9.13062 -6.61107,9.95607 12.19363,4.66715 z m 43.28927,-24.97803 c 0,-1.80593 4.43055,-7.30499 7.67872,-9.53066 6.07642,-4.16365 17.48938,-6.82639 17.48938,-4.08038 0,0.5537 -1.11965,1.0067 -2.4881,1.0067 -4.2028,0 -13.89494,4.90838 -18.40138,9.31903 -2.35329,2.30316 -4.27862,3.7816 -4.27862,3.28531 z M 893.8411,627.884 c 7.05101,-6.77212 15.47524,-12.76545 13.53868,-9.63189 -1.16107,1.87849 -12.64985,11.04774 -13.84255,11.04774 -0.74506,0 -0.63466,-0.51443 0.30387,-1.41585 z m 198.3726,-3.46216 c -3.0866,-5.76712 14.3896,-19.4063 27.0913,-21.14337 10.016,-1.36978 20.1415,2.4613 20.1415,7.62073 0,1.63725 1.4555,0.94881 11.0739,-5.23734 3.599,-2.31471 7.3853,-4.51653 8.4138,-4.89276 1.683,-0.61577 1.5093,-1.08328 -1.7363,-4.67576 -12.1827,-13.48494 13.0648,-39.96061 48.011,-50.34642 21.9164,-6.51344 43.9708,0.55353 43.9708,14.08976 v 3.95782 l 4.513,-3.04585 c 14.4741,-9.76845 38.7381,-3.41844 34.0107,8.90083 -0.487,1.26924 -0.2083,1.44104 1.3188,0.81204 2.3499,-0.96789 17.2679,-2.06723 16.4754,-1.21405 -0.3092,0.33298 -2.3218,0.88482 -4.4725,1.22659 -2.1508,0.34167 -12.091,2.89323 -22.0893,5.66981 -12.6055,3.50056 -20.6479,5.17348 -26.2326,5.45657 -8.9401,0.45324 -7.7655,-1.03289 1.7523,-2.21715 15.9563,-1.98535 32.3503,-7.61721 31.4382,-10.80003 -0.3477,-1.2121 -0.866,-3.03837 -1.1524,-4.05837 -3.2072,-11.42147 -32.8077,-5.44662 -37.1044,7.48954 -2.5895,7.79637 -8.6719,14.70743 -15.9269,18.09651 -13.745,6.42095 -26.8372,10.20011 -34.3768,9.92308 -25.5255,-0.93799 -33.0194,0.61258 -48.8415,10.10592 -20.9152,12.54923 -52.866,20.65747 -56.278,14.2819 z m 24.6277,-3.66568 c 18.3271,-4.64906 22.7205,-7.60711 17.6434,-11.87917 -8.0764,-6.79578 -28.7788,-1.66549 -37.0264,9.17541 -5.6242,7.39264 -1.4154,7.97971 19.383,2.70376 z m 97.6061,-26.47854 c 18.8377,-6.14904 26.8573,-12.41971 30.176,-23.59507 3.6174,-12.18099 1.6603,-16.13489 -10.8892,-21.99892 -25.8374,-12.07311 -90.9364,28.09754 -73.3983,45.29199 l 3.7752,3.70125 20.1345,-0.0566 c 19.9357,-0.056 20.234,-0.0891 30.2018,-3.34273 z m -29.2991,-0.0445 c 1.0121,-1.63785 9.2969,-7.21564 10.7174,-7.21564 0.6545,0 -1.0127,1.50159 -3.705,3.33687 -6.9418,4.73228 -7.8507,5.23512 -7.0124,3.87877 z m 28.7957,-4.84558 c 0,-2.62397 14.2794,-16.71976 15.5276,-15.32791 0.1844,0.2055 -3.234,3.95721 -7.5962,8.3369 -4.3623,4.3798 -7.9314,7.52575 -7.9314,6.99101 z m 40.1428,27.48051 c 4.1957,-5.05536 21.6472,-10.33845 25.9305,-7.84984 1.6228,0.9428 1.3975,1.10829 -1.6428,1.2061 -6.4918,0.20894 -9.52,1.01547 -16.9671,4.5189 -8.2389,3.87593 -8.9435,4.08043 -7.3206,2.12484 z M 680.97821,583.84491 c 2.83794,-3.20492 10.56497,-7.90594 12.93719,-7.87084 2.05383,0.0302 2.05415,0.0384 0.0544,1.14678 -1.10735,0.61391 -4.61323,2.86527 -7.79073,5.00302 -6.52762,4.39169 -7.99613,4.87759 -5.20104,1.72104 z m -16.70668,0.42884 c 0,-1.69686 11.48676,-12.01328 15.86073,-14.24474 7.34365,-3.74642 9.46526,-2.60748 2.70451,1.4519 -3.28963,1.97517 -8.01974,5.26361 -10.51144,7.30763 -7.35603,6.0345 -8.0538,6.5097 -8.0538,5.48521 z m 362.87457,-34.00179 c 4.0927,-6.78762 13.7401,-14.59757 18.0321,-14.59757 1.3267,0 0.011,1.36518 -3.9723,4.12412 -3.2756,2.26822 -8.1888,6.23226 -10.9183,8.80887 -4.1375,3.90596 -4.6598,4.1827 -3.1415,1.66458 z m -15.554,0.0685 c 0,-1.48075 5.9888,-8.3476 9.7903,-11.22551 l 3.8005,-2.87732 -4.1774,5.00363 c -4.868,5.83054 -9.4134,10.22423 -9.4134,9.0992 z m 38.2556,-5.01155 c 3.5758,-3.84165 9.3199,-7.67262 14.346,-9.56766 4.8267,-1.81997 3.0024,0.31045 -4.0269,4.70239 -3.7375,2.3352 -8.3811,5.237 -10.3191,6.4484 l -3.5235,2.20252 z M 738.71429,529.73663 c 1.56829,-2.93031 10.21905,-10.26276 14.00631,-11.87183 4.20118,-1.78494 5.107,-1.15738 1.62373,1.12496 -1.43481,0.94022 -5.51258,4.17274 -9.06162,7.18347 -6.93808,5.88575 -8.16858,6.5533 -6.56842,3.5634 z m 19.18281,-4.92362 c 0,-1.5708 8.53569,-8.96467 12.94725,-11.21528 6.66754,-3.40153 6.94204,-2.3835 0.55882,2.07248 -3.27559,2.28658 -7.65443,5.4958 -9.73084,7.13166 -2.07636,1.63584 -3.77523,2.54084 -3.77523,2.01114 z M 40.101246,516.54638 c -12.061304,-1.0287 11.111357,-1.3571 65.688884,-0.93096 26.55719,0.20738 32.44713,0.45169 23.40638,0.97091 -15.00042,0.8615 -78.862194,0.83285 -89.095264,-0.04 z M 938.66781,509.3988 c 4.14149,-4.371 10.42923,-8.56713 16.18136,-10.79866 9.72662,-3.77345 10.74377,-3.14697 1.87639,1.15564 -4.98331,2.41803 -11.42559,6.27901 -14.31625,8.58 -6.22061,4.95184 -7.87014,5.42042 -3.7415,1.06302 z m -971.050872,-3.89318 c -27.323073,-0.99984 -34.228686,-2.61704 -34.228686,-8.01597 0,-8.75043 18.536012,-17.15395 37.889612,-17.17781 l 6.177713,-0.008 0.659755,-4.39956 c 2.424793,-16.16968 23.4681065,-26.68413 42.466015,-21.21847 1.918337,0.55188 2.193864,0.0902 2.836308,-4.75294 6.753525,-50.91045 97.221685,-47.83263 97.221685,3.30773 v 5.79993 l 4.61066,-1.57102 c 17.34717,-5.91075 36.64423,4.22079 39.2659,20.61584 l 0.64492,4.03303 4.52159,-1.54065 c 11.8208,-4.02779 29.46118,4.0109 29.47782,13.43294 0.0159,8.9746 -14.66002,12.54713 -50.8095,12.36864 -33.64145,-0.16626 -34.22777,-1.39821 -1.03314,-2.17105 43.5662,-1.01426 53.12015,-3.55338 48.31727,-12.84114 -3.90565,-7.55267 -21.58232,-11.64858 -28.89352,-6.69498 -3.44266,2.33251 -4.82622,1.48686 -4.82622,-2.94979 0,-18.27306 -33.72282,-32.19033 -42.72108,-17.63084 -1.59634,2.58297 -2.07825,0.55975 -2.07825,-8.72521 0,-12.21627 -3.4241,-20.3938 -11.62761,-27.76946 -27.299109,-24.54427 -78.977737,-7.67696 -78.977737,25.77743 0,8.52581 -0.226394,8.81124 -4.488832,5.6599 -13.6292026,-10.07649 -44.374978,5.32815 -41.94958,21.01813 l 0.505776,3.27187 H -29.82349 c -15.879609,0 -31.69765,5.98189 -33.362948,12.61694 -1.495937,5.96041 2.956498,6.45205 66.7727615,7.37313 29.4729065,0.42535 53.8985865,1.0849 54.2793175,1.46567 0.380735,0.38072 -2.667708,0.69988 -6.774323,0.7092 -4.106608,0.008 -19.924762,0.18686 -35.151496,0.39423 -15.22677093,0.20738 -36.972056,0.0381 -48.322884,-0.37784 z M 1148.5871,485.53275 c 2.4331,-4.45468 7.8751,-9.49664 14.4146,-13.35503 5.4973,-3.24356 5.4437,-1.71318 -0.093,2.6677 -2.6604,2.10483 -7.5038,6.34599 -10.7631,9.42482 l -5.9259,5.5979 z m -16.3315,-1.9396 c 1.7629,-3.29414 9.2101,-9.33465 14.7413,-11.95686 8.7565,-4.15133 8.3105,-2.61434 -1.0358,3.56948 -4.9673,3.28649 -10.3366,6.99165 -11.9317,8.2337 -2.813,2.19035 -2.8663,2.19498 -1.7738,0.15371 z m 31.3523,-0.0302 c 0,-1.55694 11.7211,-12.23058 14.6563,-13.34653 4.362,-1.65845 3.9229,-0.50431 -1.2745,3.34967 -2.6535,1.96762 -6.7499,5.23267 -9.1032,7.2557 -2.3532,2.02297 -4.2786,3.25648 -4.2786,2.74116 z m 18.1211,-3.14604 c 0,-2.45194 5.7749,-7.15954 8.7314,-7.11764 l 2.8458,0.0404 -3.0201,1.58939 c -1.6611,0.87414 -4.266,2.75286 -5.7886,4.17497 -1.5387,1.43694 -2.7685,2.02023 -2.7685,1.31297 z m -326.68275,-5.02953 c 2.67462,-2.70086 43.13666,-18.22077 44.34724,-17.01018 0.23509,0.23516 -2.17179,1.23636 -5.34886,2.22489 -7.0848,2.20433 -20.04091,7.19454 -31.44798,12.11253 -4.70642,2.02915 -8.1041,3.23184 -7.5504,2.67276 z m 52.28848,-8.58035 c 11.03308,-9.26441 47.2207,-27.28884 83.91999,-41.79902 5.37176,-2.12387 17.24178,-6.91971 26.37788,-10.65747 18.5574,-7.59216 53.8551,-20.64168 55.6901,-20.58846 0.6545,0.0189 -12.6274,5.61263 -29.5153,12.4304 -74.98735,30.27294 -100.76547,41.81441 -132.88786,59.49699 -5.03732,2.77292 -5.86258,3.03021 -3.58481,1.11756 z m 414.05447,-16.86614 c 4.9773,-6.0335 18.7788,-8.57568 23.4764,-4.32431 2.7189,2.4605 1.9223,2.80012 -1.99,0.84841 -4.0333,-2.01211 -9.029,-1.47065 -15.7684,1.70915 -2.717,1.28189 -5.3929,2.54078 -5.9467,2.7975 -0.5536,0.25686 -0.4507,-0.20697 0.2286,-1.03075 z m -354.09302,-0.29488 c 0,-2.53306 21.74974,-12.37345 34.44312,-15.58329 12.3019,-3.11089 11.7273,-2.46593 -2.22786,2.50082 -6.92123,2.46337 -16.81497,6.51782 -21.98605,9.00987 -9.58439,4.61891 -10.22921,4.87566 -10.22921,4.0726 z m 269.29932,-13.19846 c 12.6453,-11.70644 29.1034,-21.84028 41.1255,-25.32237 11.3389,-3.28422 12.658,-2.77564 2.6671,1.02838 -11.0718,4.21554 -19.2875,8.7785 -33.3734,18.53523 -13.8948,9.62437 -15.632,10.58452 -10.4192,5.75876 z m 20.638,-1.53351 c 3.5591,-2.91055 20.7698,-11.27608 22.2106,-10.79582 1.1538,0.38456 -22.0735,12.92205 -23.8551,12.87636 -0.4798,-0.0113 0.2604,-0.94856 1.6445,-2.08054 z m -36.2104,0.45586 c -0.1822,-6.53899 19.1988,-25.02604 32.7314,-31.22146 7.3823,-3.37978 9.4939,-2.42307 2.4722,1.12011 -11.2601,5.68182 -25.355,17.7462 -32.9753,28.22486 -1.208,1.66111 -2.2107,2.50552 -2.2283,1.87649 z m -174.1955,-12.38812 c 9.0851,-7.54273 22.045,-14.1316 27.685,-14.07511 2.4497,0.0227 1.9743,0.36831 -2.5168,1.82039 -6.3766,2.0616 -12.8617,5.2527 -18.6244,9.16436 -2.2148,1.50336 -5.1596,3.28388 -6.5438,3.95669 l -2.5168,1.22327 z m 268.7959,-46.42197 c 16.1075,-12.94165 24.9217,-18.38812 31.7676,-19.62988 2.1842,-0.39617 5.217,-1.35088 6.7398,-2.12167 1.5226,-0.77077 2.7685,-1.00552 2.7685,-0.52174 0,0.95414 -5.0333,3.32599 -11.8322,5.5757 -2.3551,0.77927 -10.0902,5.32006 -17.1893,10.09065 -11.9082,8.00223 -18.2397,11.4159 -12.2544,6.60694 z m -193.2914,-2.44907 c 0,-1.014 7.7265,-5.53485 12.0711,-7.06296 5.8094,-2.04326 4.2882,-0.62698 -4.2258,3.93446 -6.739,3.61044 -7.8453,4.05162 -7.8453,3.1285 z m 40.269,-22.13057 c 0,-1.00566 15.6689,-8.348 19.1279,-8.96323 l 3.5235,-0.62669 -4.0269,1.5275 c -4.382,1.66218 -8.9687,3.72517 -14.8492,6.67881 -2.0764,1.04293 -3.7753,1.66552 -3.7753,1.38361 z m -52.3497,-19.79303 c 5.1262,-4.42368 29.2222,-14.27237 30.8751,-12.61957 0.1757,0.17582 -3.6412,1.92676 -8.4823,3.89105 -4.8411,1.96422 -12.4262,5.22038 -16.8558,7.23587 -6.1431,2.79509 -7.4567,3.14923 -5.537,1.49265 z m 175.1704,-19.08978 c 3.6442,-2.98396 16.0224,-8.83625 20.1345,-9.51947 2.2906,-0.38058 -0.8405,1.55096 -8.9477,5.51982 -13.486,6.60206 -15.0464,7.1599 -11.1868,3.99965 z m 42.2824,-22.11656 c 0,-1.27444 19.8799,-10.72167 24.1615,-11.48194 3.082,-0.54723 3.2715,-0.47021 1.5119,0.61477 -4.4085,2.71825 -25.6734,11.71935 -25.6734,10.86717 z m -115.7734,-9.06546 c 11.8692,-11.19107 39.2622,-30.52736 39.2622,-27.71455 0,0.22448 -3.2844,2.78914 -7.2987,5.69936 -4.0143,2.91021 -13.1881,9.68061 -20.3862,15.04533 -15.113,11.26364 -17.9301,12.95965 -11.5773,6.96986 z m 35.8175,-14.09661 c 11.953,-10.34531 31.2969,-21.53221 46.5909,-26.94428 11.395,-4.03242 10.2697,-3.05926 -4.5502,3.9347 -14.2866,6.74221 -20.4037,10.24813 -35.2777,20.21858 -11.7839,7.89904 -13.468,8.59404 -6.763,2.791 z M 133.72678,150.2543 c -5.05189,-0.50938 -1.83871,-0.83135 14.09418,-1.41221 26.5901,-0.96941 182.77786,-0.76113 186.74771,0.24903 1.66111,0.42268 -24.84094,0.82373 -58.89347,0.89121 -34.05252,0.0675 -78.44915,0.30474 -98.65918,0.52724 -20.21003,0.2225 -39.69018,0.10764 -43.28924,-0.25527 z m 153.52577,-12.30902 c 8.85919,-0.38868 51.89671,-1.00916 95.639,-1.37884 105.78915,-0.89406 109.06324,-1.2515 103.84775,-11.33714 -4.07974,-7.88937 -11.29277,-10.59808 -27.97101,-10.50401 -10.61199,0.0598 -12.95631,-0.18803 -12.95631,-1.36996 0,-7.97348 -18.06561,-14.828848 -33.44182,-12.69021 -7.40117,1.0294 -9.76084,1.69973 -20.13037,5.7185 -5.69517,2.20721 -6.5254,1.68 -4.25822,-2.70417 13.35794,-25.831525 -33.07058,-51.128235 -55.93175,-30.474546 -6.28717,5.680047 -6.94761,5.017995 -3.91923,-3.928596 10.06081,-29.722015 -26.26151,-58.827131 -49.2619,-39.473588 -5.19739,4.373317 -6.31801,3.159552 -3.72588,-4.035564 12.09713,-33.5786483 -24.52045,-70.387012 -64.53286,-64.869076 -33.01269,4.552634 -62.56118,35.8004962 -54.62004,57.761327 1.71734,4.749233 0.84009,5.232963 -4.66078,2.570041 -25.95198,-12.5631382 -58.046021,19.33675 -46.26212,45.982248 3.47266,7.8523 2.82471,8.981646 -3.36846,5.870997 -22.813603,-11.458624 -50.376114,2.190085 -49.408555,24.466668 0.240756,5.544299 0.167433,5.725229 -2.194582,5.420969 -25.939729,-3.340959 -67.017562,7.20673 -79.400692,20.38796 -5.459565,5.81142 -3.070224,5.91857 120.246196,5.39224 60.353243,-0.25761 105.655933,-0.14339 100.672643,0.25376 -32.90284,2.62231 -213.478839,3.32383 -220.976439,0.85847 -20.428006,-6.71715 30.7206419,-30.387129 65.688906,-30.398762 l 12.835767,-0.0042 v -3.189909 c 0,-20.052188 23.05511,-35.005484 45.217681,-29.327693 7.491465,1.919221 7.486435,1.921164 6.009715,-2.31496 -8.306428,-23.828042 15.85672,-49.839396 44.82615,-48.255067 l 6.11294,0.334299 0.75085,-6.7247508 c 8.10521,-72.5919992 128.38124,-68.3875022 128.06899,4.4769148 -0.031,7.217514 0.30731,10.685706 1.01218,10.379028 25.44753,-11.071532 51.39493,5.540625 51.39493,32.904286 0,6.856546 0.36956,10.665614 1.00671,10.375846 29.50239,-13.417376 58.39012,0.05023 58.39012,27.22174 v 8.162238 l 4.02692,-1.71748 c 18.71359,-7.981378 41.99041,-5.153509 49.53916,6.01844 l 2.81065,4.15963 8.36352,-0.51859 c 20.77809,-1.28835 35.90232,7.4678 32.98383,19.096 -1.95382,7.78451 -9.8714,8.2914 -127.92586,8.18994 -50.68503,-0.0437 -83.5084,-0.38932 -74.49773,-0.78464 z M 1202.4162,73.666543 c -1.1039,-1.786031 77.1666,-2.911767 95.4987,-1.373522 l 9.1515,0.767905 -7.0471,0.641178 c -11.3504,1.03273 -96.9621,1.001533 -97.6031,-0.03553 z M 1098.6737,61.205104 c -16.493,-7.666726 3.7767,-26.460452 28.36,-26.294905 l 12.2522,0.08247 0.6681,-3.606047 c 3.501,-18.893491 28.4718,-33.509883 47.905,-28.0406612 2.5995,0.7316107 2.6056,0.7187036 2.3449,-4.8681106 -1.3156,-28.1872502 33.3638,-50.5080322 65.4776,-42.1434422 18.708,4.872831 33.8032,20.747643 34.1404,35.9037712 0.1062,4.7678701 0.409,5.7345371 1.6402,5.2358587 19.6349,-7.9521979 36.7976,-0.8756296 40.4208,16.6664191 l 1.1817,5.720886 4.2647,-0.647225 c 11.7897,-1.789221 25.5756,6.729785 26.8959,16.620263 0.397,2.973702 0.4793,3.012435 5.3475,2.51681 30.4849,-3.103543 56.0769,9.946915 33.8538,17.263487 -4.5053,1.483294 -110.0533,2.510865 -122.0317,1.188053 l -7.5504,-0.833824 12.0807,-0.522471 c 6.6445,-0.287357 35.0071,-0.617616 63.0284,-0.733912 55.7521,-0.231383 58.5207,-0.485431 59.0928,-5.422299 0.6679,-5.763489 -14.8039,-9.631638 -34.1513,-8.538232 -11.2476,0.635656 -11.7629,0.578819 -11.286,-1.245083 2.8308,-10.824993 -20.981,-22.475148 -31.6495,-15.484856 -2.806,1.838533 -4.132,0.863354 -2.4621,-1.810605 9.6998,-15.531843 -25.976,-34.237582 -38.2034,-20.0309773 -3.1742,3.6880175 -6.0449,2.5849965 -4.278,-1.64375423 6.063,-14.51091747 -12.7607,-37.72379947 -33.8313,-41.71975347 -33.6904,-6.389257 -67.2234,20.565414 -57.9422,46.5754144 1.7072,4.7843636 0.7219,5.3848136 -4.1308,2.5169951 -16.7096,-9.8752134 -47.6451,8.0399585 -47.6451,27.5920205 v 4.568311 l -5.2853,-1.431258 c -16.5325,-4.47699 -37.7827,3.042644 -40.6273,14.376494 -1.8995,7.568126 -4.6282,7.325416 74.101,6.591292 50.7206,-0.472959 68.2523,-0.203452 60.9069,0.936257 -10.3548,1.606666 -129.5785,2.201114 -132.8882,0.662574 z"
       id="path1" /></g></svg>
