<?xml version="1.0" encoding="UTF-8" standalone="no"?>
<svg
   width="1620pt"
   height="1000pt"
   version="1.1"
   viewBox="0 0 1620 999.99988"
   id="svg12"
   sodipodi:docname="mocking.svg"
   inkscape:version="1.3.2 (091e20e, 2023-11-25, custom)"
   inkscape:export-filename="mock.png"
   inkscape:export-xdpi="72"
   inkscape:export-ydpi="72"
   xmlns:inkscape="http://www.inkscape.org/namespaces/inkscape"
   xmlns:sodipodi="http://sodipodi.sourceforge.net/DTD/sodipodi-0.dtd"
   xmlns="http://www.w3.org/2000/svg"
   xmlns:svg="http://www.w3.org/2000/svg">
  <defs
     id="defs16" />
  <sodipodi:namedview
     id="namedview14"
     pagecolor="#505050"
     bordercolor="#ffffff"
     borderopacity="1"
     inkscape:showpageshadow="0"
     inkscape:pageopacity="0"
     inkscape:pagecheckerboard="1"
     inkscape:deskcolor="#505050"
     inkscape:document-units="pt"
     showgrid="false"
     inkscape:zoom="0.715188"
     inkscape:cx="1022.1089"
     inkscape:cy="662.06368"
     inkscape:current-layer="g1"
     inkscape:window-width="3840"
     inkscape:window-height="2081"
     inkscape:window-x="-9"
     inkscape:window-y="-9"
     inkscape:window-maximized="1" />
  <g
     id="g1"
     transform="translate(-190,1.4781952e-5)">
    <g
       id="g2"
       transform="translate(63.969177,63.969238)">
      <ellipse
         style="display:inline;fill:#c0c0c0;fill-opacity:1;stroke:#bfbfbf;stroke-width:5.66928;stroke-linecap:round;stroke-linejoin:round;stroke-miterlimit:0;stop-color:#000000"
         id="outer-disk"
         cx="936.03082"
         cy="436.03076"
         rx="433.19592"
         ry="433.19614" />
      <path
         id="outer-circle"
         style="display:inline;fill:none;fill-opacity:0.5;stroke:#1a1a1a;stroke-width:20;stroke-linecap:round;stroke-linejoin:round;stroke-miterlimit:0;stroke-dasharray:none;stroke-opacity:1;stop-color:#000000"
         d="M 1349.9136,434.86712 A 413.88276,413.88276 0 0 1 936.03098,848.74989 413.88276,413.88276 0 0 1 522.14802,434.86712 413.88276,413.88276 0 0 1 936.03098,20.984352 413.88276,413.88276 0 0 1 1349.9136,434.86712 Z" />
      <ellipse
         style="fill:#7e7e7e;fill-opacity:1;stroke-width:49.9999;stroke-linecap:round;stroke-linejoin:round;stroke-miterlimit:0;stroke-dasharray:none;stop-color:#000000"
         id="path1113"
         cx="936.03052"
         cy="437.19495"
         rx="228.88542"
         ry="228.88635" />
      <circle
         style="fill:#c0c0c0;fill-opacity:1;stroke-width:49.9999;stroke-linecap:round;stroke-linejoin:round;stroke-miterlimit:0;stroke-dasharray:none;stop-color:#000000"
         id="path1302"
         cx="846.05945"
         cy="368.03799"
         r="26.440445" />
      <g
         id="g1059"
         transform="matrix(0.99212548,0,0,0.99212548,588.78659,159.40282)"
         style="fill:#191919;fill-opacity:1;stroke:none;stroke-width:1.00794;stroke-opacity:1">
        <path
           d="m 350,35 c -64.977,0 -127.29,25.812 -173.24,71.758 -45.945,45.949 -71.758,108.27 -71.758,173.24 0,64.97 25.812,127.29 71.758,173.24 45.949,45.945 108.27,71.758 173.24,71.758 64.97,0 127.29,-25.812 173.24,-71.758 45.945,-45.949 71.758,-108.27 71.758,-173.24 0,-43.008 -11.32,-85.254 -32.824,-122.5 C 540.67,120.252 509.744,89.326 472.498,67.822 435.252,46.318 393.006,34.998 349.998,34.998 Z m 0,455 c -55.695,0 -109.11,-22.125 -148.49,-61.508 -39.383,-39.383 -61.508,-92.797 -61.508,-148.49 0,-55.693 22.125,-109.11 61.508,-148.49 39.383,-39.383 92.797,-61.508 148.49,-61.508 55.693,0 109.11,22.125 148.49,61.508 39.383,39.383 61.508,92.797 61.508,148.49 0,55.693 -22.125,109.11 -61.508,148.49 C 459.107,467.875 405.693,490 350,490 Z"
           id="path2"
           style="fill:#191919;fill-opacity:1;stroke:none;stroke-width:1.00794;stroke-opacity:1" />
        <path
           d="m 401.62,224.52 52.5,35 c 3.8438,2.8945 8.707,4.0742 13.449,3.2695 4.7422,-0.80469 8.9453,-3.5273 11.617,-7.5273 2.6719,-3.9961 3.582,-8.918 2.5156,-13.609 -1.0664,-4.6914 -4.0156,-8.7344 -8.1562,-11.18 l -30.801,-20.477 30.625,-20.477 c 4.8125,-3.6172 7.4258,-9.457 6.918,-15.457 -0.50781,-6 -4.0625,-11.32 -9.4141,-14.078 -5.3516,-2.7617 -11.746,-2.5781 -16.93,0.48828 l -52.5,35 c -4.8359,3.25 -7.7383,8.6953 -7.7383,14.523 0,5.8277 2.9023,11.273 7.7383,14.523 z"
           id="path4"
           style="fill:#191919;fill-opacity:1;stroke:none;stroke-width:1.00794;stroke-opacity:1" />
        <path
           d="m 262.5,262.5 c 13.926,0 27.277,-5.5312 37.125,-15.375 C 309.4688,237.2773 315,223.926 315,210 315,196.074 309.4688,182.723 299.625,172.875 289.7773,163.0312 276.426,157.5 262.5,157.5 c -13.926,0 -27.277,5.5312 -37.125,15.375 C 215.5312,182.7227 210,196.074 210,210 c 0,13.926 5.5312,27.277 15.375,37.125 9.8477,9.8438 23.199,15.375 37.125,15.375 z m 0,-70 c 4.6406,0 9.0938,1.8438 12.375,5.125 3.2812,3.2812 5.125,7.7344 5.125,12.375 0,4.6406 -1.8438,9.0938 -5.125,12.375 -3.2812,3.2812 -7.7344,5.125 -12.375,5.125 -4.6406,0 -9.0938,-1.8438 -12.375,-5.125 C 246.8438,219.0938 245,214.6406 245,210 c 0,-4.6406 1.8438,-9.0938 5.125,-12.375 3.2812,-3.2812 7.7344,-5.125 12.375,-5.125 z"
           id="path6"
           style="fill:#191919;fill-opacity:1;stroke:none;stroke-width:1.00794;stroke-opacity:1" />
        <path
           d="m 472.5,332.5 h -245 c -6.2539,0 -12.031,3.3359 -15.156,8.75 -3.125,5.4141 -3.125,12.086 0,17.5 3.125,5.414 8.9023,8.75 15.156,8.75 h 105 v 26.25 c 0,21.883 11.676,42.102 30.625,53.043 18.949,10.941 42.301,10.941 61.25,0 C 443.324,435.852 455,415.633 455,393.75 V 367.5 h 17.5 c 6.2539,0 12.031,-3.3359 15.156,-8.75 3.125,-5.4141 3.125,-12.086 0,-17.5 -3.125,-5.414 -8.9023,-8.75 -15.156,-8.75 z M 420,393.75 c 0,9.3789 -5.0039,18.043 -13.125,22.734 -8.1211,4.6875 -18.129,4.6875 -26.25,0 C 372.5039,411.7926 367.5,403.129 367.5,393.75 V 367.5 H 420 Z"
           id="path8"
           style="fill:#191919;fill-opacity:1;stroke:none;stroke-width:1.00794;stroke-opacity:1" />
      </g>
    </g>
  </g>
  <rect
     style="fill:#000000;fill-opacity:0;stroke-width:0.75;stroke-linejoin:round;stroke-miterlimit:100"
     id="rect1"
     width="1620"
     height="1000"
     x="-2.8421709e-14"
     y="1.4781953e-05" />
</svg>
